<?xml version="1.0" encoding="utf-8"?>
<svg xmlns="http://www.w3.org/2000/svg" xmlns:xlink="http://www.w3.org/1999/xlink" width="672" height="480" viewBox="0 0 2688 1920">
<defs>
  <clipPath id="clip300">
    <rect x="0" y="0" width="2688" height="1920"/>
  </clipPath>
</defs>
<path clip-path="url(#clip300)" d="M0 1920 L2688 1920 L2688 0 L0 0  Z" fill="#ffffff" fill-rule="evenodd" fill-opacity="1"/>
<defs>
  <clipPath id="clip301">
    <rect x="537" y="0" width="1883" height="1883"/>
  </clipPath>
</defs>
<path clip-path="url(#clip300)" d="M189.154 1800.78 L2640.76 1800.78 L2640.76 47.2441 L189.154 47.2441  Z" fill="#ffffff" fill-rule="evenodd" fill-opacity="1"/>
<defs>
  <clipPath id="clip302">
    <rect x="189" y="47" width="2453" height="1755"/>
  </clipPath>
</defs>
<polyline clip-path="url(#clip302)" style="stroke:#000000; stroke-linecap:round; stroke-linejoin:round; stroke-width:2; stroke-opacity:0.1; fill:none" points="258.539,1800.78 258.539,47.2441 "/>
<polyline clip-path="url(#clip302)" style="stroke:#000000; stroke-linecap:round; stroke-linejoin:round; stroke-width:2; stroke-opacity:0.1; fill:none" points="644.011,1800.78 644.011,47.2441 "/>
<polyline clip-path="url(#clip302)" style="stroke:#000000; stroke-linecap:round; stroke-linejoin:round; stroke-width:2; stroke-opacity:0.1; fill:none" points="1029.48,1800.78 1029.48,47.2441 "/>
<polyline clip-path="url(#clip302)" style="stroke:#000000; stroke-linecap:round; stroke-linejoin:round; stroke-width:2; stroke-opacity:0.1; fill:none" points="1414.95,1800.78 1414.95,47.2441 "/>
<polyline clip-path="url(#clip302)" style="stroke:#000000; stroke-linecap:round; stroke-linejoin:round; stroke-width:2; stroke-opacity:0.1; fill:none" points="1800.43,1800.78 1800.43,47.2441 "/>
<polyline clip-path="url(#clip302)" style="stroke:#000000; stroke-linecap:round; stroke-linejoin:round; stroke-width:2; stroke-opacity:0.1; fill:none" points="2185.9,1800.78 2185.9,47.2441 "/>
<polyline clip-path="url(#clip302)" style="stroke:#000000; stroke-linecap:round; stroke-linejoin:round; stroke-width:2; stroke-opacity:0.1; fill:none" points="2571.37,1800.78 2571.37,47.2441 "/>
<polyline clip-path="url(#clip302)" style="stroke:#000000; stroke-linecap:round; stroke-linejoin:round; stroke-width:2; stroke-opacity:0.1; fill:none" points="189.154,1751.15 2640.76,1751.15 "/>
<polyline clip-path="url(#clip302)" style="stroke:#000000; stroke-linecap:round; stroke-linejoin:round; stroke-width:2; stroke-opacity:0.1; fill:none" points="189.154,1337.58 2640.76,1337.58 "/>
<polyline clip-path="url(#clip302)" style="stroke:#000000; stroke-linecap:round; stroke-linejoin:round; stroke-width:2; stroke-opacity:0.1; fill:none" points="189.154,924.012 2640.76,924.012 "/>
<polyline clip-path="url(#clip302)" style="stroke:#000000; stroke-linecap:round; stroke-linejoin:round; stroke-width:2; stroke-opacity:0.1; fill:none" points="189.154,510.442 2640.76,510.442 "/>
<polyline clip-path="url(#clip302)" style="stroke:#000000; stroke-linecap:round; stroke-linejoin:round; stroke-width:2; stroke-opacity:0.1; fill:none" points="189.154,96.8724 2640.76,96.8724 "/>
<polyline clip-path="url(#clip300)" style="stroke:#000000; stroke-linecap:round; stroke-linejoin:round; stroke-width:4; stroke-opacity:1; fill:none" points="189.154,1800.78 2640.76,1800.78 "/>
<polyline clip-path="url(#clip300)" style="stroke:#000000; stroke-linecap:round; stroke-linejoin:round; stroke-width:4; stroke-opacity:1; fill:none" points="258.539,1800.78 258.539,1781.88 "/>
<polyline clip-path="url(#clip300)" style="stroke:#000000; stroke-linecap:round; stroke-linejoin:round; stroke-width:4; stroke-opacity:1; fill:none" points="644.011,1800.78 644.011,1781.88 "/>
<polyline clip-path="url(#clip300)" style="stroke:#000000; stroke-linecap:round; stroke-linejoin:round; stroke-width:4; stroke-opacity:1; fill:none" points="1029.48,1800.78 1029.48,1781.88 "/>
<polyline clip-path="url(#clip300)" style="stroke:#000000; stroke-linecap:round; stroke-linejoin:round; stroke-width:4; stroke-opacity:1; fill:none" points="1414.95,1800.78 1414.95,1781.88 "/>
<polyline clip-path="url(#clip300)" style="stroke:#000000; stroke-linecap:round; stroke-linejoin:round; stroke-width:4; stroke-opacity:1; fill:none" points="1800.43,1800.78 1800.43,1781.88 "/>
<polyline clip-path="url(#clip300)" style="stroke:#000000; stroke-linecap:round; stroke-linejoin:round; stroke-width:4; stroke-opacity:1; fill:none" points="2185.9,1800.78 2185.9,1781.88 "/>
<polyline clip-path="url(#clip300)" style="stroke:#000000; stroke-linecap:round; stroke-linejoin:round; stroke-width:4; stroke-opacity:1; fill:none" points="2571.37,1800.78 2571.37,1781.88 "/>
<path clip-path="url(#clip300)" d="M258.539 1834 Q254.928 1834 253.099 1837.57 Q251.294 1841.11 251.294 1848.24 Q251.294 1855.34 253.099 1858.91 Q254.928 1862.45 258.539 1862.45 Q262.173 1862.45 263.979 1858.91 Q265.807 1855.34 265.807 1848.24 Q265.807 1841.11 263.979 1837.57 Q262.173 1834 258.539 1834 M258.539 1830.3 Q264.349 1830.3 267.405 1834.9 Q270.483 1839.49 270.483 1848.24 Q270.483 1856.96 267.405 1861.57 Q264.349 1866.15 258.539 1866.15 Q252.729 1866.15 249.65 1861.57 Q246.595 1856.96 246.595 1848.24 Q246.595 1839.49 249.65 1834.9 Q252.729 1830.3 258.539 1830.3 Z" fill="#000000" fill-rule="nonzero" fill-opacity="1" /><path clip-path="url(#clip300)" d="M634.393 1861.55 L642.032 1861.55 L642.032 1835.18 L633.722 1836.85 L633.722 1832.59 L641.986 1830.92 L646.661 1830.92 L646.661 1861.55 L654.3 1861.55 L654.3 1865.48 L634.393 1865.48 L634.393 1861.55 Z" fill="#000000" fill-rule="nonzero" fill-opacity="1" /><path clip-path="url(#clip300)" d="M1024.14 1861.55 L1040.46 1861.55 L1040.46 1865.48 L1018.51 1865.48 L1018.51 1861.55 Q1021.17 1858.79 1025.76 1854.16 Q1030.36 1849.51 1031.54 1848.17 Q1033.79 1845.65 1034.67 1843.91 Q1035.57 1842.15 1035.57 1840.46 Q1035.57 1837.71 1033.63 1835.97 Q1031.71 1834.23 1028.6 1834.23 Q1026.4 1834.23 1023.95 1835 Q1021.52 1835.76 1018.74 1837.31 L1018.74 1832.59 Q1021.57 1831.46 1024.02 1830.88 Q1026.47 1830.3 1028.51 1830.3 Q1033.88 1830.3 1037.08 1832.98 Q1040.27 1835.67 1040.27 1840.16 Q1040.27 1842.29 1039.46 1844.21 Q1038.67 1846.11 1036.57 1848.7 Q1035.99 1849.37 1032.89 1852.59 Q1029.78 1855.78 1024.14 1861.55 Z" fill="#000000" fill-rule="nonzero" fill-opacity="1" /><path clip-path="url(#clip300)" d="M1419.2 1846.85 Q1422.56 1847.57 1424.43 1849.84 Q1426.33 1852.1 1426.33 1855.44 Q1426.33 1860.55 1422.81 1863.35 Q1419.3 1866.15 1412.81 1866.15 Q1410.64 1866.15 1408.32 1865.71 Q1406.03 1865.3 1403.58 1864.44 L1403.58 1859.93 Q1405.52 1861.06 1407.84 1861.64 Q1410.15 1862.22 1412.67 1862.22 Q1417.07 1862.22 1419.36 1860.48 Q1421.68 1858.75 1421.68 1855.44 Q1421.68 1852.38 1419.53 1850.67 Q1417.4 1848.93 1413.58 1848.93 L1409.55 1848.93 L1409.55 1845.09 L1413.76 1845.09 Q1417.21 1845.09 1419.04 1843.72 Q1420.87 1842.34 1420.87 1839.74 Q1420.87 1837.08 1418.97 1835.67 Q1417.1 1834.23 1413.58 1834.23 Q1411.66 1834.23 1409.46 1834.65 Q1407.26 1835.07 1404.62 1835.95 L1404.62 1831.78 Q1407.28 1831.04 1409.6 1830.67 Q1411.93 1830.3 1413.99 1830.3 Q1419.32 1830.3 1422.42 1832.73 Q1425.52 1835.14 1425.52 1839.26 Q1425.52 1842.13 1423.88 1844.12 Q1422.24 1846.09 1419.2 1846.85 Z" fill="#000000" fill-rule="nonzero" fill-opacity="1" /><path clip-path="url(#clip300)" d="M1803.44 1835 L1791.63 1853.45 L1803.44 1853.45 L1803.44 1835 M1802.21 1830.92 L1808.09 1830.92 L1808.09 1853.45 L1813.02 1853.45 L1813.02 1857.34 L1808.09 1857.34 L1808.09 1865.48 L1803.44 1865.48 L1803.44 1857.34 L1787.83 1857.34 L1787.83 1852.82 L1802.21 1830.92 Z" fill="#000000" fill-rule="nonzero" fill-opacity="1" /><path clip-path="url(#clip300)" d="M2176.18 1830.92 L2194.53 1830.92 L2194.53 1834.86 L2180.46 1834.86 L2180.46 1843.33 Q2181.48 1842.98 2182.5 1842.82 Q2183.51 1842.64 2184.53 1842.64 Q2190.32 1842.64 2193.7 1845.81 Q2197.08 1848.98 2197.08 1854.4 Q2197.08 1859.97 2193.61 1863.08 Q2190.14 1866.15 2183.82 1866.15 Q2181.64 1866.15 2179.37 1865.78 Q2177.13 1865.41 2174.72 1864.67 L2174.72 1859.97 Q2176.8 1861.11 2179.02 1861.66 Q2181.25 1862.22 2183.72 1862.22 Q2187.73 1862.22 2190.07 1860.11 Q2192.4 1858.01 2192.4 1854.4 Q2192.4 1850.78 2190.07 1848.68 Q2187.73 1846.57 2183.72 1846.57 Q2181.85 1846.57 2179.97 1846.99 Q2178.12 1847.4 2176.18 1848.28 L2176.18 1830.92 Z" fill="#000000" fill-rule="nonzero" fill-opacity="1" /><path clip-path="url(#clip300)" d="M2571.78 1846.34 Q2568.63 1846.34 2566.78 1848.49 Q2564.95 1850.65 2564.95 1854.4 Q2564.95 1858.12 2566.78 1860.3 Q2568.63 1862.45 2571.78 1862.45 Q2574.92 1862.45 2576.75 1860.3 Q2578.6 1858.12 2578.6 1854.4 Q2578.6 1850.65 2576.75 1848.49 Q2574.92 1846.34 2571.78 1846.34 M2581.06 1831.69 L2581.06 1835.95 Q2579.3 1835.11 2577.49 1834.67 Q2575.71 1834.23 2573.95 1834.23 Q2569.32 1834.23 2566.87 1837.36 Q2564.44 1840.48 2564.09 1846.8 Q2565.46 1844.79 2567.52 1843.72 Q2569.58 1842.64 2572.05 1842.64 Q2577.26 1842.64 2580.27 1845.81 Q2583.3 1848.96 2583.3 1854.4 Q2583.3 1859.72 2580.16 1862.94 Q2577.01 1866.15 2571.78 1866.15 Q2565.78 1866.15 2562.61 1861.57 Q2559.44 1856.96 2559.44 1848.24 Q2559.44 1840.04 2563.33 1835.18 Q2567.22 1830.3 2573.77 1830.3 Q2575.53 1830.3 2577.31 1830.65 Q2579.11 1830.99 2581.06 1831.69 Z" fill="#000000" fill-rule="nonzero" fill-opacity="1" /><polyline clip-path="url(#clip300)" style="stroke:#000000; stroke-linecap:round; stroke-linejoin:round; stroke-width:4; stroke-opacity:1; fill:none" points="189.154,1800.78 189.154,47.2441 "/>
<polyline clip-path="url(#clip300)" style="stroke:#000000; stroke-linecap:round; stroke-linejoin:round; stroke-width:4; stroke-opacity:1; fill:none" points="189.154,1751.15 208.052,1751.15 "/>
<polyline clip-path="url(#clip300)" style="stroke:#000000; stroke-linecap:round; stroke-linejoin:round; stroke-width:4; stroke-opacity:1; fill:none" points="189.154,1337.58 208.052,1337.58 "/>
<polyline clip-path="url(#clip300)" style="stroke:#000000; stroke-linecap:round; stroke-linejoin:round; stroke-width:4; stroke-opacity:1; fill:none" points="189.154,924.012 208.052,924.012 "/>
<polyline clip-path="url(#clip300)" style="stroke:#000000; stroke-linecap:round; stroke-linejoin:round; stroke-width:4; stroke-opacity:1; fill:none" points="189.154,510.442 208.052,510.442 "/>
<polyline clip-path="url(#clip300)" style="stroke:#000000; stroke-linecap:round; stroke-linejoin:round; stroke-width:4; stroke-opacity:1; fill:none" points="189.154,96.8724 208.052,96.8724 "/>
<path clip-path="url(#clip300)" d="M61.4965 1736.95 Q57.8854 1736.95 56.0567 1740.51 Q54.2512 1744.06 54.2512 1751.19 Q54.2512 1758.29 56.0567 1761.86 Q57.8854 1765.4 61.4965 1765.4 Q65.1307 1765.4 66.9363 1761.86 Q68.765 1758.29 68.765 1751.19 Q68.765 1744.06 66.9363 1740.51 Q65.1307 1736.95 61.4965 1736.95 M61.4965 1733.25 Q67.3067 1733.25 70.3622 1737.85 Q73.4409 1742.44 73.4409 1751.19 Q73.4409 1759.91 70.3622 1764.52 Q67.3067 1769.1 61.4965 1769.1 Q55.6864 1769.1 52.6077 1764.52 Q49.5521 1759.91 49.5521 1751.19 Q49.5521 1742.44 52.6077 1737.85 Q55.6864 1733.25 61.4965 1733.25 Z" fill="#000000" fill-rule="nonzero" fill-opacity="1" /><path clip-path="url(#clip300)" d="M81.6584 1762.55 L86.5427 1762.55 L86.5427 1768.43 L81.6584 1768.43 L81.6584 1762.55 Z" fill="#000000" fill-rule="nonzero" fill-opacity="1" /><path clip-path="url(#clip300)" d="M106.728 1736.95 Q103.117 1736.95 101.288 1740.51 Q99.4824 1744.06 99.4824 1751.19 Q99.4824 1758.29 101.288 1761.86 Q103.117 1765.4 106.728 1765.4 Q110.362 1765.4 112.168 1761.86 Q113.996 1758.29 113.996 1751.19 Q113.996 1744.06 112.168 1740.51 Q110.362 1736.95 106.728 1736.95 M106.728 1733.25 Q112.538 1733.25 115.593 1737.85 Q118.672 1742.44 118.672 1751.19 Q118.672 1759.91 115.593 1764.52 Q112.538 1769.1 106.728 1769.1 Q100.918 1769.1 97.8389 1764.52 Q94.7834 1759.91 94.7834 1751.19 Q94.7834 1742.44 97.8389 1737.85 Q100.918 1733.25 106.728 1733.25 Z" fill="#000000" fill-rule="nonzero" fill-opacity="1" /><path clip-path="url(#clip300)" d="M136.89 1736.95 Q133.279 1736.95 131.45 1740.51 Q129.644 1744.06 129.644 1751.19 Q129.644 1758.29 131.45 1761.86 Q133.279 1765.4 136.89 1765.4 Q140.524 1765.4 142.329 1761.86 Q144.158 1758.29 144.158 1751.19 Q144.158 1744.06 142.329 1740.51 Q140.524 1736.95 136.89 1736.95 M136.89 1733.25 Q142.7 1733.25 145.755 1737.85 Q148.834 1742.44 148.834 1751.19 Q148.834 1759.91 145.755 1764.52 Q142.7 1769.1 136.89 1769.1 Q131.079 1769.1 128.001 1764.52 Q124.945 1759.91 124.945 1751.19 Q124.945 1742.44 128.001 1737.85 Q131.079 1733.25 136.89 1733.25 Z" fill="#000000" fill-rule="nonzero" fill-opacity="1" /><path clip-path="url(#clip300)" d="M62.4919 1323.38 Q58.8808 1323.38 57.0521 1326.94 Q55.2465 1330.49 55.2465 1337.62 Q55.2465 1344.72 57.0521 1348.29 Q58.8808 1351.83 62.4919 1351.83 Q66.1261 1351.83 67.9317 1348.29 Q69.7604 1344.72 69.7604 1337.62 Q69.7604 1330.49 67.9317 1326.94 Q66.1261 1323.38 62.4919 1323.38 M62.4919 1319.68 Q68.302 1319.68 71.3576 1324.28 Q74.4363 1328.87 74.4363 1337.62 Q74.4363 1346.34 71.3576 1350.95 Q68.302 1355.53 62.4919 1355.53 Q56.6817 1355.53 53.603 1350.95 Q50.5475 1346.34 50.5475 1337.62 Q50.5475 1328.87 53.603 1324.28 Q56.6817 1319.68 62.4919 1319.68 Z" fill="#000000" fill-rule="nonzero" fill-opacity="1" /><path clip-path="url(#clip300)" d="M82.6538 1348.98 L87.538 1348.98 L87.538 1354.86 L82.6538 1354.86 L82.6538 1348.98 Z" fill="#000000" fill-rule="nonzero" fill-opacity="1" /><path clip-path="url(#clip300)" d="M101.751 1350.93 L118.07 1350.93 L118.07 1354.86 L96.126 1354.86 L96.126 1350.93 Q98.788 1348.17 103.371 1343.54 Q107.978 1338.89 109.158 1337.55 Q111.404 1335.02 112.283 1333.29 Q113.186 1331.53 113.186 1329.84 Q113.186 1327.08 111.242 1325.35 Q109.32 1323.61 106.218 1323.61 Q104.019 1323.61 101.566 1324.38 Q99.1352 1325.14 96.3574 1326.69 L96.3574 1321.97 Q99.1815 1320.83 101.635 1320.26 Q104.089 1319.68 106.126 1319.68 Q111.496 1319.68 114.691 1322.36 Q117.885 1325.05 117.885 1329.54 Q117.885 1331.67 117.075 1333.59 Q116.288 1335.49 114.181 1338.08 Q113.603 1338.75 110.501 1341.97 Q107.399 1345.16 101.751 1350.93 Z" fill="#000000" fill-rule="nonzero" fill-opacity="1" /><path clip-path="url(#clip300)" d="M127.931 1320.3 L146.288 1320.3 L146.288 1324.24 L132.214 1324.24 L132.214 1332.71 Q133.232 1332.36 134.251 1332.2 Q135.269 1332.01 136.288 1332.01 Q142.075 1332.01 145.454 1335.19 Q148.834 1338.36 148.834 1343.77 Q148.834 1349.35 145.362 1352.45 Q141.89 1355.53 135.57 1355.53 Q133.394 1355.53 131.126 1355.16 Q128.88 1354.79 126.473 1354.05 L126.473 1349.35 Q128.556 1350.49 130.779 1351.04 Q133.001 1351.6 135.478 1351.6 Q139.482 1351.6 141.82 1349.49 Q144.158 1347.38 144.158 1343.77 Q144.158 1340.16 141.82 1338.06 Q139.482 1335.95 135.478 1335.95 Q133.603 1335.95 131.728 1336.37 Q129.876 1336.78 127.931 1337.66 L127.931 1320.3 Z" fill="#000000" fill-rule="nonzero" fill-opacity="1" /><path clip-path="url(#clip300)" d="M61.4965 909.81 Q57.8854 909.81 56.0567 913.375 Q54.2512 916.917 54.2512 924.046 Q54.2512 931.153 56.0567 934.718 Q57.8854 938.259 61.4965 938.259 Q65.1307 938.259 66.9363 934.718 Q68.765 931.153 68.765 924.046 Q68.765 916.917 66.9363 913.375 Q65.1307 909.81 61.4965 909.81 M61.4965 906.107 Q67.3067 906.107 70.3622 910.713 Q73.4409 915.296 73.4409 924.046 Q73.4409 932.773 70.3622 937.38 Q67.3067 941.963 61.4965 941.963 Q55.6864 941.963 52.6077 937.38 Q49.5521 932.773 49.5521 924.046 Q49.5521 915.296 52.6077 910.713 Q55.6864 906.107 61.4965 906.107 Z" fill="#000000" fill-rule="nonzero" fill-opacity="1" /><path clip-path="url(#clip300)" d="M81.6584 935.412 L86.5427 935.412 L86.5427 941.292 L81.6584 941.292 L81.6584 935.412 Z" fill="#000000" fill-rule="nonzero" fill-opacity="1" /><path clip-path="url(#clip300)" d="M96.7741 906.732 L115.13 906.732 L115.13 910.667 L101.056 910.667 L101.056 919.139 Q102.075 918.792 103.094 918.63 Q104.112 918.445 105.131 918.445 Q110.918 918.445 114.297 921.616 Q117.677 924.787 117.677 930.204 Q117.677 935.782 114.205 938.884 Q110.732 941.963 104.413 941.963 Q102.237 941.963 99.9685 941.593 Q97.7232 941.222 95.3158 940.482 L95.3158 935.782 Q97.3991 936.917 99.6213 937.472 Q101.844 938.028 104.32 938.028 Q108.325 938.028 110.663 935.921 Q113.001 933.815 113.001 930.204 Q113.001 926.593 110.663 924.486 Q108.325 922.38 104.32 922.38 Q102.445 922.38 100.57 922.796 Q98.7185 923.213 96.7741 924.093 L96.7741 906.732 Z" fill="#000000" fill-rule="nonzero" fill-opacity="1" /><path clip-path="url(#clip300)" d="M136.89 909.81 Q133.279 909.81 131.45 913.375 Q129.644 916.917 129.644 924.046 Q129.644 931.153 131.45 934.718 Q133.279 938.259 136.89 938.259 Q140.524 938.259 142.329 934.718 Q144.158 931.153 144.158 924.046 Q144.158 916.917 142.329 913.375 Q140.524 909.81 136.89 909.81 M136.89 906.107 Q142.7 906.107 145.755 910.713 Q148.834 915.296 148.834 924.046 Q148.834 932.773 145.755 937.38 Q142.7 941.963 136.89 941.963 Q131.079 941.963 128.001 937.38 Q124.945 932.773 124.945 924.046 Q124.945 915.296 128.001 910.713 Q131.079 906.107 136.89 906.107 Z" fill="#000000" fill-rule="nonzero" fill-opacity="1" /><path clip-path="url(#clip300)" d="M62.4919 496.241 Q58.8808 496.241 57.0521 499.806 Q55.2465 503.347 55.2465 510.477 Q55.2465 517.583 57.0521 521.148 Q58.8808 524.69 62.4919 524.69 Q66.1261 524.69 67.9317 521.148 Q69.7604 517.583 69.7604 510.477 Q69.7604 503.347 67.9317 499.806 Q66.1261 496.241 62.4919 496.241 M62.4919 492.537 Q68.302 492.537 71.3576 497.144 Q74.4363 501.727 74.4363 510.477 Q74.4363 519.204 71.3576 523.81 Q68.302 528.393 62.4919 528.393 Q56.6817 528.393 53.603 523.81 Q50.5475 519.204 50.5475 510.477 Q50.5475 501.727 53.603 497.144 Q56.6817 492.537 62.4919 492.537 Z" fill="#000000" fill-rule="nonzero" fill-opacity="1" /><path clip-path="url(#clip300)" d="M82.6538 521.842 L87.538 521.842 L87.538 527.722 L82.6538 527.722 L82.6538 521.842 Z" fill="#000000" fill-rule="nonzero" fill-opacity="1" /><path clip-path="url(#clip300)" d="M96.5426 493.162 L118.765 493.162 L118.765 495.153 L106.218 527.722 L101.334 527.722 L113.14 497.097 L96.5426 497.097 L96.5426 493.162 Z" fill="#000000" fill-rule="nonzero" fill-opacity="1" /><path clip-path="url(#clip300)" d="M127.931 493.162 L146.288 493.162 L146.288 497.097 L132.214 497.097 L132.214 505.569 Q133.232 505.222 134.251 505.06 Q135.269 504.875 136.288 504.875 Q142.075 504.875 145.454 508.046 Q148.834 511.218 148.834 516.634 Q148.834 522.213 145.362 525.315 Q141.89 528.393 135.57 528.393 Q133.394 528.393 131.126 528.023 Q128.88 527.653 126.473 526.912 L126.473 522.213 Q128.556 523.347 130.779 523.903 Q133.001 524.458 135.478 524.458 Q139.482 524.458 141.82 522.352 Q144.158 520.245 144.158 516.634 Q144.158 513.023 141.82 510.917 Q139.482 508.81 135.478 508.81 Q133.603 508.81 131.728 509.227 Q129.876 509.643 127.931 510.523 L127.931 493.162 Z" fill="#000000" fill-rule="nonzero" fill-opacity="1" /><path clip-path="url(#clip300)" d="M52.3067 110.217 L59.9456 110.217 L59.9456 83.8517 L51.6354 85.5183 L51.6354 81.2591 L59.8993 79.5924 L64.5752 79.5924 L64.5752 110.217 L72.214 110.217 L72.214 114.152 L52.3067 114.152 L52.3067 110.217 Z" fill="#000000" fill-rule="nonzero" fill-opacity="1" /><path clip-path="url(#clip300)" d="M81.6584 108.273 L86.5427 108.273 L86.5427 114.152 L81.6584 114.152 L81.6584 108.273 Z" fill="#000000" fill-rule="nonzero" fill-opacity="1" /><path clip-path="url(#clip300)" d="M106.728 82.6711 Q103.117 82.6711 101.288 86.2359 Q99.4824 89.7776 99.4824 96.9072 Q99.4824 104.014 101.288 107.578 Q103.117 111.12 106.728 111.12 Q110.362 111.12 112.168 107.578 Q113.996 104.014 113.996 96.9072 Q113.996 89.7776 112.168 86.2359 Q110.362 82.6711 106.728 82.6711 M106.728 78.9675 Q112.538 78.9675 115.593 83.5739 Q118.672 88.1572 118.672 96.9072 Q118.672 105.634 115.593 110.24 Q112.538 114.824 106.728 114.824 Q100.918 114.824 97.8389 110.24 Q94.7834 105.634 94.7834 96.9072 Q94.7834 88.1572 97.8389 83.5739 Q100.918 78.9675 106.728 78.9675 Z" fill="#000000" fill-rule="nonzero" fill-opacity="1" /><path clip-path="url(#clip300)" d="M136.89 82.6711 Q133.279 82.6711 131.45 86.2359 Q129.644 89.7776 129.644 96.9072 Q129.644 104.014 131.45 107.578 Q133.279 111.12 136.89 111.12 Q140.524 111.12 142.329 107.578 Q144.158 104.014 144.158 96.9072 Q144.158 89.7776 142.329 86.2359 Q140.524 82.6711 136.89 82.6711 M136.89 78.9675 Q142.7 78.9675 145.755 83.5739 Q148.834 88.1572 148.834 96.9072 Q148.834 105.634 145.755 110.24 Q142.7 114.824 136.89 114.824 Q131.079 114.824 128.001 110.24 Q124.945 105.634 124.945 96.9072 Q124.945 88.1572 128.001 83.5739 Q131.079 78.9675 136.89 78.9675 Z" fill="#000000" fill-rule="nonzero" fill-opacity="1" /><polyline clip-path="url(#clip302)" style="stroke:#009af9; stroke-linecap:round; stroke-linejoin:round; stroke-width:4; stroke-opacity:1; fill:none" points="258.539,1751.15 281.667,924.012 304.796,96.8724 327.924,924.012 351.052,1751.15 374.181,1751.15 397.309,1751.15 420.437,1751.15 443.566,1751.15 466.694,1751.15 489.822,1751.15 512.95,1751.15 536.079,1751.15 559.207,1751.15 582.335,1751.15 605.464,1751.15 628.592,1751.15 651.72,1751.15 674.849,1751.15 697.977,1751.15 721.105,1751.15 744.234,1751.15 767.362,1751.15 790.49,1751.15 813.619,1751.15 836.747,1751.15 859.875,1751.15 883.004,1751.15 906.132,1751.15 929.26,1751.15 952.389,1751.15 975.517,1751.15 998.645,1751.15 1021.77,1751.15 1044.9,1751.15 1068.03,1751.15 1091.16,1751.15 1114.29,1751.15 1137.42,1751.15 1160.54,1751.15 1183.67,1751.15 1206.8,1751.15 1229.93,1751.15 1253.06,1751.15 1276.19,1751.15 1299.31,1751.15 1322.44,1751.15 1345.57,1751.15 1368.7,1751.15 1391.83,1751.15 1414.95,1751.15 1438.08,1751.15 1461.21,1751.15 1484.34,1751.15 1507.47,1751.15 1530.6,1751.15 1553.72,1751.15 1576.85,1751.15 1599.98,1751.15 1623.11,1751.15 1646.24,1751.15 1669.37,1751.15 1692.49,1751.15 1715.62,1751.15 1738.75,1751.15 1761.88,1751.15 1785.01,1751.15 1808.14,1751.15 1831.26,1751.15 1854.39,1751.15 1877.52,1751.15 1900.65,1751.15 1923.78,1751.15 1946.91,1751.15 1970.03,1751.15 1993.16,1751.15 2016.29,1751.15 2039.42,1751.15 2062.55,1751.15 2085.68,1751.15 2108.8,1751.15 2131.93,1751.15 2155.06,1751.15 2178.19,1751.15 2201.32,1751.15 2224.45,1751.15 2247.57,1751.15 2270.7,1751.15 2293.83,1751.15 2316.96,1751.15 2340.09,1751.15 2363.22,1751.15 2386.34,1751.15 2409.47,1751.15 2432.6,1751.15 2455.73,1751.15 2478.86,1751.15 2501.99,1751.15 2525.11,1751.15 2548.24,1751.15 2571.37,1751.15 "/>
<polyline clip-path="url(#clip302)" style="stroke:#e26f46; stroke-linecap:round; stroke-linejoin:round; stroke-width:4; stroke-opacity:1; fill:none" points="258.539,1751.15 281.667,1751.15 304.796,1751.15 327.924,924.012 351.052,96.8724 374.181,924.012 397.309,1751.15 420.437,1751.15 443.566,1751.15 466.694,1751.15 489.822,1751.15 512.95,1751.15 536.079,1751.15 559.207,1751.15 582.335,1751.15 605.464,1751.15 628.592,1751.15 651.72,1751.15 674.849,1751.15 697.977,1751.15 721.105,1751.15 744.234,1751.15 767.362,1751.15 790.49,1751.15 813.619,1751.15 836.747,1751.15 859.875,1751.15 883.004,1751.15 906.132,1751.15 929.26,1751.15 952.389,1751.15 975.517,1751.15 998.645,1751.15 1021.77,1751.15 1044.9,1751.15 1068.03,1751.15 1091.16,1751.15 1114.29,1751.15 1137.42,1751.15 1160.54,1751.15 1183.67,1751.15 1206.8,1751.15 1229.93,1751.15 1253.06,1751.15 1276.19,1751.15 1299.31,1751.15 1322.44,1751.15 1345.57,1751.15 1368.7,1751.15 1391.83,1751.15 1414.95,1751.15 1438.08,1751.15 1461.21,1751.15 1484.34,1751.15 1507.47,1751.15 1530.6,1751.15 1553.72,1751.15 1576.85,1751.15 1599.98,1751.15 1623.11,1751.15 1646.24,1751.15 1669.37,1751.15 1692.49,1751.15 1715.62,1751.15 1738.75,1751.15 1761.88,1751.15 1785.01,1751.15 1808.14,1751.15 1831.26,1751.15 1854.39,1751.15 1877.52,1751.15 1900.65,1751.15 1923.78,1751.15 1946.91,1751.15 1970.03,1751.15 1993.16,1751.15 2016.29,1751.15 2039.42,1751.15 2062.55,1751.15 2085.68,1751.15 2108.8,1751.15 2131.93,1751.15 2155.06,1751.15 2178.19,1751.15 2201.32,1751.15 2224.45,1751.15 2247.57,1751.15 2270.7,1751.15 2293.83,1751.15 2316.96,1751.15 2340.09,1751.15 2363.22,1751.15 2386.34,1751.15 2409.47,1751.15 2432.6,1751.15 2455.73,1751.15 2478.86,1751.15 2501.99,1751.15 2525.11,1751.15 2548.24,1751.15 2571.37,1751.15 "/>
</svg>
