<?xml version="1.0" encoding="utf-8"?>
<svg xmlns="http://www.w3.org/2000/svg" xmlns:xlink="http://www.w3.org/1999/xlink" width="400" height="250" viewBox="0 0 1600 1000">
<defs>
  <clipPath id="clip810">
    <rect x="0" y="0" width="1600" height="1000"/>
  </clipPath>
</defs>
<path clip-path="url(#clip810)" d="M0 1000 L1600 1000 L1600 0 L0 0  Z" fill="#ffffff" fill-rule="evenodd" fill-opacity="1"/>
<defs>
  <clipPath id="clip811">
    <rect x="320" y="0" width="1121" height="1000"/>
  </clipPath>
</defs>
<path clip-path="url(#clip810)" d="M185.288 894.608 L1552.76 894.608 L1552.76 47.2441 L185.288 47.2441  Z" fill="#ffffff" fill-rule="evenodd" fill-opacity="1"/>
<defs>
  <clipPath id="clip812">
    <rect x="185" y="47" width="1368" height="848"/>
  </clipPath>
</defs>
<polyline clip-path="url(#clip812)" style="stroke:#000000; stroke-linecap:round; stroke-linejoin:round; stroke-width:2; stroke-opacity:0.1; fill:none" points="362.373,894.608 362.373,47.2441 "/>
<polyline clip-path="url(#clip812)" style="stroke:#000000; stroke-linecap:round; stroke-linejoin:round; stroke-width:2; stroke-opacity:0.1; fill:none" points="615.698,894.608 615.698,47.2441 "/>
<polyline clip-path="url(#clip812)" style="stroke:#000000; stroke-linecap:round; stroke-linejoin:round; stroke-width:2; stroke-opacity:0.1; fill:none" points="869.022,894.608 869.022,47.2441 "/>
<polyline clip-path="url(#clip812)" style="stroke:#000000; stroke-linecap:round; stroke-linejoin:round; stroke-width:2; stroke-opacity:0.1; fill:none" points="1122.35,894.608 1122.35,47.2441 "/>
<polyline clip-path="url(#clip812)" style="stroke:#000000; stroke-linecap:round; stroke-linejoin:round; stroke-width:2; stroke-opacity:0.1; fill:none" points="1375.67,894.608 1375.67,47.2441 "/>
<polyline clip-path="url(#clip812)" style="stroke:#000000; stroke-linecap:round; stroke-linejoin:round; stroke-width:2; stroke-opacity:0.1; fill:none" points="185.288,765.448 1552.76,765.448 "/>
<polyline clip-path="url(#clip812)" style="stroke:#000000; stroke-linecap:round; stroke-linejoin:round; stroke-width:2; stroke-opacity:0.1; fill:none" points="185.288,604.766 1552.76,604.766 "/>
<polyline clip-path="url(#clip812)" style="stroke:#000000; stroke-linecap:round; stroke-linejoin:round; stroke-width:2; stroke-opacity:0.1; fill:none" points="185.288,444.085 1552.76,444.085 "/>
<polyline clip-path="url(#clip812)" style="stroke:#000000; stroke-linecap:round; stroke-linejoin:round; stroke-width:2; stroke-opacity:0.1; fill:none" points="185.288,283.403 1552.76,283.403 "/>
<polyline clip-path="url(#clip812)" style="stroke:#000000; stroke-linecap:round; stroke-linejoin:round; stroke-width:2; stroke-opacity:0.1; fill:none" points="185.288,122.721 1552.76,122.721 "/>
<polyline clip-path="url(#clip810)" style="stroke:#000000; stroke-linecap:round; stroke-linejoin:round; stroke-width:4; stroke-opacity:1; fill:none" points="185.288,894.608 1552.76,894.608 "/>
<polyline clip-path="url(#clip810)" style="stroke:#000000; stroke-linecap:round; stroke-linejoin:round; stroke-width:4; stroke-opacity:1; fill:none" points="362.373,894.608 362.373,875.71 "/>
<polyline clip-path="url(#clip810)" style="stroke:#000000; stroke-linecap:round; stroke-linejoin:round; stroke-width:4; stroke-opacity:1; fill:none" points="615.698,894.608 615.698,875.71 "/>
<polyline clip-path="url(#clip810)" style="stroke:#000000; stroke-linecap:round; stroke-linejoin:round; stroke-width:4; stroke-opacity:1; fill:none" points="869.022,894.608 869.022,875.71 "/>
<polyline clip-path="url(#clip810)" style="stroke:#000000; stroke-linecap:round; stroke-linejoin:round; stroke-width:4; stroke-opacity:1; fill:none" points="1122.35,894.608 1122.35,875.71 "/>
<polyline clip-path="url(#clip810)" style="stroke:#000000; stroke-linecap:round; stroke-linejoin:round; stroke-width:4; stroke-opacity:1; fill:none" points="1375.67,894.608 1375.67,875.71 "/>
<path clip-path="url(#clip810)" d="M321.991 916.048 L340.348 916.048 L340.348 919.983 L326.274 919.983 L326.274 928.455 Q327.292 928.108 328.311 927.946 Q329.329 927.761 330.348 927.761 Q336.135 927.761 339.515 930.932 Q342.894 934.103 342.894 939.52 Q342.894 945.099 339.422 948.2 Q335.95 951.279 329.63 951.279 Q327.454 951.279 325.186 950.909 Q322.941 950.538 320.533 949.798 L320.533 945.099 Q322.616 946.233 324.839 946.788 Q327.061 947.344 329.538 947.344 Q333.542 947.344 335.88 945.238 Q338.218 943.131 338.218 939.52 Q338.218 935.909 335.88 933.802 Q333.542 931.696 329.538 931.696 Q327.663 931.696 325.788 932.113 Q323.936 932.529 321.991 933.409 L321.991 916.048 Z" fill="#000000" fill-rule="nonzero" fill-opacity="1" /><path clip-path="url(#clip810)" d="M362.107 919.127 Q358.496 919.127 356.667 922.691 Q354.862 926.233 354.862 933.363 Q354.862 940.469 356.667 944.034 Q358.496 947.575 362.107 947.575 Q365.741 947.575 367.547 944.034 Q369.375 940.469 369.375 933.363 Q369.375 926.233 367.547 922.691 Q365.741 919.127 362.107 919.127 M362.107 915.423 Q367.917 915.423 370.973 920.029 Q374.051 924.613 374.051 933.363 Q374.051 942.089 370.973 946.696 Q367.917 951.279 362.107 951.279 Q356.297 951.279 353.218 946.696 Q350.163 942.089 350.163 933.363 Q350.163 924.613 353.218 920.029 Q356.297 915.423 362.107 915.423 Z" fill="#000000" fill-rule="nonzero" fill-opacity="1" /><path clip-path="url(#clip810)" d="M392.269 919.127 Q388.658 919.127 386.829 922.691 Q385.024 926.233 385.024 933.363 Q385.024 940.469 386.829 944.034 Q388.658 947.575 392.269 947.575 Q395.903 947.575 397.709 944.034 Q399.537 940.469 399.537 933.363 Q399.537 926.233 397.709 922.691 Q395.903 919.127 392.269 919.127 M392.269 915.423 Q398.079 915.423 401.135 920.029 Q404.213 924.613 404.213 933.363 Q404.213 942.089 401.135 946.696 Q398.079 951.279 392.269 951.279 Q386.459 951.279 383.38 946.696 Q380.324 942.089 380.324 933.363 Q380.324 924.613 383.38 920.029 Q386.459 915.423 392.269 915.423 Z" fill="#000000" fill-rule="nonzero" fill-opacity="1" /><path clip-path="url(#clip810)" d="M573.973 916.048 L596.195 916.048 L596.195 918.039 L583.649 950.608 L578.765 950.608 L590.57 919.983 L573.973 919.983 L573.973 916.048 Z" fill="#000000" fill-rule="nonzero" fill-opacity="1" /><path clip-path="url(#clip810)" d="M605.362 916.048 L623.718 916.048 L623.718 919.983 L609.644 919.983 L609.644 928.455 Q610.663 928.108 611.681 927.946 Q612.7 927.761 613.718 927.761 Q619.505 927.761 622.885 930.932 Q626.265 934.103 626.265 939.52 Q626.265 945.099 622.792 948.2 Q619.32 951.279 613.001 951.279 Q610.825 951.279 608.556 950.909 Q606.311 950.538 603.904 949.798 L603.904 945.099 Q605.987 946.233 608.209 946.788 Q610.431 947.344 612.908 947.344 Q616.913 947.344 619.251 945.238 Q621.589 943.131 621.589 939.52 Q621.589 935.909 619.251 933.802 Q616.913 931.696 612.908 931.696 Q611.033 931.696 609.158 932.113 Q607.306 932.529 605.362 933.409 L605.362 916.048 Z" fill="#000000" fill-rule="nonzero" fill-opacity="1" /><path clip-path="url(#clip810)" d="M645.477 919.127 Q641.866 919.127 640.038 922.691 Q638.232 926.233 638.232 933.363 Q638.232 940.469 640.038 944.034 Q641.866 947.575 645.477 947.575 Q649.112 947.575 650.917 944.034 Q652.746 940.469 652.746 933.363 Q652.746 926.233 650.917 922.691 Q649.112 919.127 645.477 919.127 M645.477 915.423 Q651.288 915.423 654.343 920.029 Q657.422 924.613 657.422 933.363 Q657.422 942.089 654.343 946.696 Q651.288 951.279 645.477 951.279 Q639.667 951.279 636.589 946.696 Q633.533 942.089 633.533 933.363 Q633.533 924.613 636.589 920.029 Q639.667 915.423 645.477 915.423 Z" fill="#000000" fill-rule="nonzero" fill-opacity="1" /><path clip-path="url(#clip810)" d="M813.548 946.673 L821.186 946.673 L821.186 920.307 L812.876 921.974 L812.876 917.715 L821.14 916.048 L825.816 916.048 L825.816 946.673 L833.455 946.673 L833.455 950.608 L813.548 950.608 L813.548 946.673 Z" fill="#000000" fill-rule="nonzero" fill-opacity="1" /><path clip-path="url(#clip810)" d="M852.899 919.127 Q849.288 919.127 847.459 922.691 Q845.654 926.233 845.654 933.363 Q845.654 940.469 847.459 944.034 Q849.288 947.575 852.899 947.575 Q856.534 947.575 858.339 944.034 Q860.168 940.469 860.168 933.363 Q860.168 926.233 858.339 922.691 Q856.534 919.127 852.899 919.127 M852.899 915.423 Q858.709 915.423 861.765 920.029 Q864.844 924.613 864.844 933.363 Q864.844 942.089 861.765 946.696 Q858.709 951.279 852.899 951.279 Q847.089 951.279 844.01 946.696 Q840.955 942.089 840.955 933.363 Q840.955 924.613 844.01 920.029 Q847.089 915.423 852.899 915.423 Z" fill="#000000" fill-rule="nonzero" fill-opacity="1" /><path clip-path="url(#clip810)" d="M883.061 919.127 Q879.45 919.127 877.621 922.691 Q875.816 926.233 875.816 933.363 Q875.816 940.469 877.621 944.034 Q879.45 947.575 883.061 947.575 Q886.695 947.575 888.501 944.034 Q890.33 940.469 890.33 933.363 Q890.33 926.233 888.501 922.691 Q886.695 919.127 883.061 919.127 M883.061 915.423 Q888.871 915.423 891.927 920.029 Q895.006 924.613 895.006 933.363 Q895.006 942.089 891.927 946.696 Q888.871 951.279 883.061 951.279 Q877.251 951.279 874.172 946.696 Q871.117 942.089 871.117 933.363 Q871.117 924.613 874.172 920.029 Q877.251 915.423 883.061 915.423 Z" fill="#000000" fill-rule="nonzero" fill-opacity="1" /><path clip-path="url(#clip810)" d="M913.223 919.127 Q909.612 919.127 907.783 922.691 Q905.978 926.233 905.978 933.363 Q905.978 940.469 907.783 944.034 Q909.612 947.575 913.223 947.575 Q916.857 947.575 918.663 944.034 Q920.492 940.469 920.492 933.363 Q920.492 926.233 918.663 922.691 Q916.857 919.127 913.223 919.127 M913.223 915.423 Q919.033 915.423 922.089 920.029 Q925.167 924.613 925.167 933.363 Q925.167 942.089 922.089 946.696 Q919.033 951.279 913.223 951.279 Q907.413 951.279 904.334 946.696 Q901.279 942.089 901.279 933.363 Q901.279 924.613 904.334 920.029 Q907.413 915.423 913.223 915.423 Z" fill="#000000" fill-rule="nonzero" fill-opacity="1" /><path clip-path="url(#clip810)" d="M1066.87 946.673 L1074.51 946.673 L1074.51 920.307 L1066.2 921.974 L1066.2 917.715 L1074.46 916.048 L1079.14 916.048 L1079.14 946.673 L1086.78 946.673 L1086.78 950.608 L1066.87 950.608 L1066.87 946.673 Z" fill="#000000" fill-rule="nonzero" fill-opacity="1" /><path clip-path="url(#clip810)" d="M1100.25 946.673 L1116.57 946.673 L1116.57 950.608 L1094.63 950.608 L1094.63 946.673 Q1097.29 943.918 1101.87 939.288 Q1106.48 934.636 1107.66 933.293 Q1109.9 930.77 1110.78 929.034 Q1111.69 927.275 1111.69 925.585 Q1111.69 922.83 1109.74 921.094 Q1107.82 919.358 1104.72 919.358 Q1102.52 919.358 1100.07 920.122 Q1097.64 920.886 1094.86 922.437 L1094.86 917.715 Q1097.68 916.58 1100.14 916.002 Q1102.59 915.423 1104.63 915.423 Q1110 915.423 1113.19 918.108 Q1116.39 920.793 1116.39 925.284 Q1116.39 927.414 1115.58 929.335 Q1114.79 931.233 1112.68 933.826 Q1112.1 934.497 1109 937.714 Q1105.9 940.909 1100.25 946.673 Z" fill="#000000" fill-rule="nonzero" fill-opacity="1" /><path clip-path="url(#clip810)" d="M1126.43 916.048 L1144.79 916.048 L1144.79 919.983 L1130.71 919.983 L1130.71 928.455 Q1131.73 928.108 1132.75 927.946 Q1133.77 927.761 1134.79 927.761 Q1140.58 927.761 1143.95 930.932 Q1147.33 934.103 1147.33 939.52 Q1147.33 945.099 1143.86 948.2 Q1140.39 951.279 1134.07 951.279 Q1131.89 951.279 1129.63 950.909 Q1127.38 950.538 1124.97 949.798 L1124.97 945.099 Q1127.06 946.233 1129.28 946.788 Q1131.5 947.344 1133.98 947.344 Q1137.98 947.344 1140.32 945.238 Q1142.66 943.131 1142.66 939.52 Q1142.66 935.909 1140.32 933.802 Q1137.98 931.696 1133.98 931.696 Q1132.1 931.696 1130.23 932.113 Q1128.38 932.529 1126.43 933.409 L1126.43 916.048 Z" fill="#000000" fill-rule="nonzero" fill-opacity="1" /><path clip-path="url(#clip810)" d="M1166.55 919.127 Q1162.94 919.127 1161.11 922.691 Q1159.3 926.233 1159.3 933.363 Q1159.3 940.469 1161.11 944.034 Q1162.94 947.575 1166.55 947.575 Q1170.18 947.575 1171.99 944.034 Q1173.82 940.469 1173.82 933.363 Q1173.82 926.233 1171.99 922.691 Q1170.18 919.127 1166.55 919.127 M1166.55 915.423 Q1172.36 915.423 1175.41 920.029 Q1178.49 924.613 1178.49 933.363 Q1178.49 942.089 1175.41 946.696 Q1172.36 951.279 1166.55 951.279 Q1160.74 951.279 1157.66 946.696 Q1154.6 942.089 1154.6 933.363 Q1154.6 924.613 1157.66 920.029 Q1160.74 915.423 1166.55 915.423 Z" fill="#000000" fill-rule="nonzero" fill-opacity="1" /><path clip-path="url(#clip810)" d="M1320.2 946.673 L1327.84 946.673 L1327.84 920.307 L1319.53 921.974 L1319.53 917.715 L1327.79 916.048 L1332.46 916.048 L1332.46 946.673 L1340.1 946.673 L1340.1 950.608 L1320.2 950.608 L1320.2 946.673 Z" fill="#000000" fill-rule="nonzero" fill-opacity="1" /><path clip-path="url(#clip810)" d="M1349.59 916.048 L1367.95 916.048 L1367.95 919.983 L1353.88 919.983 L1353.88 928.455 Q1354.9 928.108 1355.91 927.946 Q1356.93 927.761 1357.95 927.761 Q1363.74 927.761 1367.12 930.932 Q1370.5 934.103 1370.5 939.52 Q1370.5 945.099 1367.02 948.2 Q1363.55 951.279 1357.23 951.279 Q1355.06 951.279 1352.79 950.909 Q1350.54 950.538 1348.14 949.798 L1348.14 945.099 Q1350.22 946.233 1352.44 946.788 Q1354.66 947.344 1357.14 947.344 Q1361.15 947.344 1363.48 945.238 Q1365.82 943.131 1365.82 939.52 Q1365.82 935.909 1363.48 933.802 Q1361.15 931.696 1357.14 931.696 Q1355.27 931.696 1353.39 932.113 Q1351.54 932.529 1349.59 933.409 L1349.59 916.048 Z" fill="#000000" fill-rule="nonzero" fill-opacity="1" /><path clip-path="url(#clip810)" d="M1389.71 919.127 Q1386.1 919.127 1384.27 922.691 Q1382.46 926.233 1382.46 933.363 Q1382.46 940.469 1384.27 944.034 Q1386.1 947.575 1389.71 947.575 Q1393.34 947.575 1395.15 944.034 Q1396.98 940.469 1396.98 933.363 Q1396.98 926.233 1395.15 922.691 Q1393.34 919.127 1389.71 919.127 M1389.71 915.423 Q1395.52 915.423 1398.58 920.029 Q1401.65 924.613 1401.65 933.363 Q1401.65 942.089 1398.58 946.696 Q1395.52 951.279 1389.71 951.279 Q1383.9 951.279 1380.82 946.696 Q1377.77 942.089 1377.77 933.363 Q1377.77 924.613 1380.82 920.029 Q1383.9 915.423 1389.71 915.423 Z" fill="#000000" fill-rule="nonzero" fill-opacity="1" /><path clip-path="url(#clip810)" d="M1419.87 919.127 Q1416.26 919.127 1414.43 922.691 Q1412.63 926.233 1412.63 933.363 Q1412.63 940.469 1414.43 944.034 Q1416.26 947.575 1419.87 947.575 Q1423.51 947.575 1425.31 944.034 Q1427.14 940.469 1427.14 933.363 Q1427.14 926.233 1425.31 922.691 Q1423.51 919.127 1419.87 919.127 M1419.87 915.423 Q1425.68 915.423 1428.74 920.029 Q1431.82 924.613 1431.82 933.363 Q1431.82 942.089 1428.74 946.696 Q1425.68 951.279 1419.87 951.279 Q1414.06 951.279 1410.98 946.696 Q1407.93 942.089 1407.93 933.363 Q1407.93 924.613 1410.98 920.029 Q1414.06 915.423 1419.87 915.423 Z" fill="#000000" fill-rule="nonzero" fill-opacity="1" /><polyline clip-path="url(#clip810)" style="stroke:#000000; stroke-linecap:round; stroke-linejoin:round; stroke-width:4; stroke-opacity:1; fill:none" points="185.288,894.608 185.288,47.2441 "/>
<polyline clip-path="url(#clip810)" style="stroke:#000000; stroke-linecap:round; stroke-linejoin:round; stroke-width:4; stroke-opacity:1; fill:none" points="185.288,765.448 204.185,765.448 "/>
<polyline clip-path="url(#clip810)" style="stroke:#000000; stroke-linecap:round; stroke-linejoin:round; stroke-width:4; stroke-opacity:1; fill:none" points="185.288,604.766 204.185,604.766 "/>
<polyline clip-path="url(#clip810)" style="stroke:#000000; stroke-linecap:round; stroke-linejoin:round; stroke-width:4; stroke-opacity:1; fill:none" points="185.288,444.085 204.185,444.085 "/>
<polyline clip-path="url(#clip810)" style="stroke:#000000; stroke-linecap:round; stroke-linejoin:round; stroke-width:4; stroke-opacity:1; fill:none" points="185.288,283.403 204.185,283.403 "/>
<polyline clip-path="url(#clip810)" style="stroke:#000000; stroke-linecap:round; stroke-linejoin:round; stroke-width:4; stroke-opacity:1; fill:none" points="185.288,122.721 204.185,122.721 "/>
<path clip-path="url(#clip810)" d="M54.9921 765.9 L84.6679 765.9 L84.6679 769.835 L54.9921 769.835 L54.9921 765.9 Z" fill="#000000" fill-rule="nonzero" fill-opacity="1" /><path clip-path="url(#clip810)" d="M104.76 751.247 Q101.149 751.247 99.3206 754.812 Q97.515 758.353 97.515 765.483 Q97.515 772.589 99.3206 776.154 Q101.149 779.696 104.76 779.696 Q108.395 779.696 110.2 776.154 Q112.029 772.589 112.029 765.483 Q112.029 758.353 110.2 754.812 Q108.395 751.247 104.76 751.247 M104.76 747.543 Q110.571 747.543 113.626 752.15 Q116.705 756.733 116.705 765.483 Q116.705 774.21 113.626 778.816 Q110.571 783.399 104.76 783.399 Q98.9502 783.399 95.8715 778.816 Q92.816 774.21 92.816 765.483 Q92.816 756.733 95.8715 752.15 Q98.9502 747.543 104.76 747.543 Z" fill="#000000" fill-rule="nonzero" fill-opacity="1" /><path clip-path="url(#clip810)" d="M124.922 776.849 L129.807 776.849 L129.807 782.728 L124.922 782.728 L124.922 776.849 Z" fill="#000000" fill-rule="nonzero" fill-opacity="1" /><path clip-path="url(#clip810)" d="M154.158 764.094 Q157.515 764.812 159.39 767.08 Q161.288 769.349 161.288 772.682 Q161.288 777.798 157.769 780.599 Q154.251 783.399 147.769 783.399 Q145.593 783.399 143.279 782.96 Q140.987 782.543 138.533 781.687 L138.533 777.173 Q140.478 778.307 142.793 778.886 Q145.107 779.464 147.631 779.464 Q152.029 779.464 154.32 777.728 Q156.635 775.992 156.635 772.682 Q156.635 769.626 154.482 767.913 Q152.353 766.177 148.533 766.177 L144.506 766.177 L144.506 762.335 L148.718 762.335 Q152.168 762.335 153.996 760.969 Q155.825 759.58 155.825 756.988 Q155.825 754.326 153.927 752.914 Q152.052 751.478 148.533 751.478 Q146.612 751.478 144.413 751.895 Q142.214 752.312 139.575 753.191 L139.575 749.025 Q142.237 748.284 144.552 747.914 Q146.89 747.543 148.95 747.543 Q154.274 747.543 157.376 749.974 Q160.478 752.381 160.478 756.501 Q160.478 759.372 158.834 761.363 Q157.191 763.33 154.158 764.094 Z" fill="#000000" fill-rule="nonzero" fill-opacity="1" /><path clip-path="url(#clip810)" d="M104.112 590.565 Q100.501 590.565 98.6724 594.13 Q96.8669 597.672 96.8669 604.801 Q96.8669 611.908 98.6724 615.472 Q100.501 619.014 104.112 619.014 Q107.746 619.014 109.552 615.472 Q111.381 611.908 111.381 604.801 Q111.381 597.672 109.552 594.13 Q107.746 590.565 104.112 590.565 M104.112 586.861 Q109.922 586.861 112.978 591.468 Q116.057 596.051 116.057 604.801 Q116.057 613.528 112.978 618.134 Q109.922 622.718 104.112 622.718 Q98.3021 622.718 95.2234 618.134 Q92.1679 613.528 92.1679 604.801 Q92.1679 596.051 95.2234 591.468 Q98.3021 586.861 104.112 586.861 Z" fill="#000000" fill-rule="nonzero" fill-opacity="1" /><path clip-path="url(#clip810)" d="M124.274 616.167 L129.158 616.167 L129.158 622.046 L124.274 622.046 L124.274 616.167 Z" fill="#000000" fill-rule="nonzero" fill-opacity="1" /><path clip-path="url(#clip810)" d="M149.343 590.565 Q145.732 590.565 143.904 594.13 Q142.098 597.672 142.098 604.801 Q142.098 611.908 143.904 615.472 Q145.732 619.014 149.343 619.014 Q152.978 619.014 154.783 615.472 Q156.612 611.908 156.612 604.801 Q156.612 597.672 154.783 594.13 Q152.978 590.565 149.343 590.565 M149.343 586.861 Q155.154 586.861 158.209 591.468 Q161.288 596.051 161.288 604.801 Q161.288 613.528 158.209 618.134 Q155.154 622.718 149.343 622.718 Q143.533 622.718 140.455 618.134 Q137.399 613.528 137.399 604.801 Q137.399 596.051 140.455 591.468 Q143.533 586.861 149.343 586.861 Z" fill="#000000" fill-rule="nonzero" fill-opacity="1" /><path clip-path="url(#clip810)" d="M104.76 429.883 Q101.149 429.883 99.3206 433.448 Q97.515 436.99 97.515 444.119 Q97.515 451.226 99.3206 454.791 Q101.149 458.332 104.76 458.332 Q108.395 458.332 110.2 454.791 Q112.029 451.226 112.029 444.119 Q112.029 436.99 110.2 433.448 Q108.395 429.883 104.76 429.883 M104.76 426.18 Q110.571 426.18 113.626 430.786 Q116.705 435.37 116.705 444.119 Q116.705 452.846 113.626 457.453 Q110.571 462.036 104.76 462.036 Q98.9502 462.036 95.8715 457.453 Q92.816 452.846 92.816 444.119 Q92.816 435.37 95.8715 430.786 Q98.9502 426.18 104.76 426.18 Z" fill="#000000" fill-rule="nonzero" fill-opacity="1" /><path clip-path="url(#clip810)" d="M124.922 455.485 L129.807 455.485 L129.807 461.365 L124.922 461.365 L124.922 455.485 Z" fill="#000000" fill-rule="nonzero" fill-opacity="1" /><path clip-path="url(#clip810)" d="M154.158 442.731 Q157.515 443.448 159.39 445.717 Q161.288 447.985 161.288 451.319 Q161.288 456.434 157.769 459.235 Q154.251 462.036 147.769 462.036 Q145.593 462.036 143.279 461.596 Q140.987 461.18 138.533 460.323 L138.533 455.809 Q140.478 456.943 142.793 457.522 Q145.107 458.101 147.631 458.101 Q152.029 458.101 154.32 456.365 Q156.635 454.629 156.635 451.319 Q156.635 448.263 154.482 446.55 Q152.353 444.814 148.533 444.814 L144.506 444.814 L144.506 440.971 L148.718 440.971 Q152.168 440.971 153.996 439.606 Q155.825 438.217 155.825 435.624 Q155.825 432.962 153.927 431.55 Q152.052 430.115 148.533 430.115 Q146.612 430.115 144.413 430.532 Q142.214 430.948 139.575 431.828 L139.575 427.661 Q142.237 426.921 144.552 426.55 Q146.89 426.18 148.95 426.18 Q154.274 426.18 157.376 428.61 Q160.478 431.018 160.478 435.138 Q160.478 438.008 158.834 439.999 Q157.191 441.967 154.158 442.731 Z" fill="#000000" fill-rule="nonzero" fill-opacity="1" /><path clip-path="url(#clip810)" d="M103.95 269.202 Q100.339 269.202 98.5104 272.767 Q96.7049 276.308 96.7049 283.438 Q96.7049 290.544 98.5104 294.109 Q100.339 297.651 103.95 297.651 Q107.584 297.651 109.39 294.109 Q111.219 290.544 111.219 283.438 Q111.219 276.308 109.39 272.767 Q107.584 269.202 103.95 269.202 M103.95 265.498 Q109.76 265.498 112.816 270.105 Q115.895 274.688 115.895 283.438 Q115.895 292.165 112.816 296.771 Q109.76 301.354 103.95 301.354 Q98.14 301.354 95.0614 296.771 Q92.0058 292.165 92.0058 283.438 Q92.0058 274.688 95.0614 270.105 Q98.14 265.498 103.95 265.498 Z" fill="#000000" fill-rule="nonzero" fill-opacity="1" /><path clip-path="url(#clip810)" d="M124.112 294.803 L128.996 294.803 L128.996 300.683 L124.112 300.683 L124.112 294.803 Z" fill="#000000" fill-rule="nonzero" fill-opacity="1" /><path clip-path="url(#clip810)" d="M149.76 281.54 Q146.612 281.54 144.76 283.692 Q142.931 285.845 142.931 289.595 Q142.931 293.322 144.76 295.498 Q146.612 297.651 149.76 297.651 Q152.908 297.651 154.737 295.498 Q156.589 293.322 156.589 289.595 Q156.589 285.845 154.737 283.692 Q152.908 281.54 149.76 281.54 M159.042 266.887 L159.042 271.146 Q157.283 270.313 155.478 269.873 Q153.695 269.433 151.936 269.433 Q147.306 269.433 144.853 272.558 Q142.422 275.683 142.075 282.003 Q143.441 279.989 145.501 278.924 Q147.561 277.836 150.038 277.836 Q155.246 277.836 158.255 281.007 Q161.288 284.155 161.288 289.595 Q161.288 294.919 158.14 298.137 Q154.992 301.354 149.76 301.354 Q143.765 301.354 140.594 296.771 Q137.422 292.165 137.422 283.438 Q137.422 275.243 141.311 270.382 Q145.2 265.498 151.751 265.498 Q153.51 265.498 155.293 265.845 Q157.098 266.193 159.042 266.887 Z" fill="#000000" fill-rule="nonzero" fill-opacity="1" /><path clip-path="url(#clip810)" d="M104.297 108.52 Q100.686 108.52 98.8576 112.085 Q97.0521 115.626 97.0521 122.756 Q97.0521 129.863 98.8576 133.427 Q100.686 136.969 104.297 136.969 Q107.932 136.969 109.737 133.427 Q111.566 129.863 111.566 122.756 Q111.566 115.626 109.737 112.085 Q107.932 108.52 104.297 108.52 M104.297 104.816 Q110.108 104.816 113.163 109.423 Q116.242 114.006 116.242 122.756 Q116.242 131.483 113.163 136.089 Q110.108 140.673 104.297 140.673 Q98.4873 140.673 95.4086 136.089 Q92.353 131.483 92.353 122.756 Q92.353 114.006 95.4086 109.423 Q98.4873 104.816 104.297 104.816 Z" fill="#000000" fill-rule="nonzero" fill-opacity="1" /><path clip-path="url(#clip810)" d="M124.459 134.122 L129.344 134.122 L129.344 140.001 L124.459 140.001 L124.459 134.122 Z" fill="#000000" fill-rule="nonzero" fill-opacity="1" /><path clip-path="url(#clip810)" d="M139.668 139.284 L139.668 135.025 Q141.427 135.858 143.232 136.298 Q145.038 136.737 146.774 136.737 Q151.404 136.737 153.834 133.636 Q156.288 130.511 156.635 124.168 Q155.293 126.159 153.232 127.224 Q151.172 128.288 148.672 128.288 Q143.487 128.288 140.455 125.163 Q137.445 122.015 137.445 116.576 Q137.445 111.252 140.594 108.034 Q143.742 104.816 148.973 104.816 Q154.968 104.816 158.117 109.423 Q161.288 114.006 161.288 122.756 Q161.288 130.927 157.399 135.812 Q153.533 140.673 146.982 140.673 Q145.223 140.673 143.418 140.325 Q141.612 139.978 139.668 139.284 M148.973 124.631 Q152.121 124.631 153.95 122.478 Q155.802 120.326 155.802 116.576 Q155.802 112.849 153.95 110.696 Q152.121 108.52 148.973 108.52 Q145.825 108.52 143.973 110.696 Q142.144 112.849 142.144 116.576 Q142.144 120.326 143.973 122.478 Q145.825 124.631 148.973 124.631 Z" fill="#000000" fill-rule="nonzero" fill-opacity="1" /><polyline clip-path="url(#clip812)" style="stroke:#009af9; stroke-linecap:round; stroke-linejoin:round; stroke-width:4; stroke-opacity:1; fill:none" points="223.99,604.634 225.281,604.634 226.572,604.633 227.864,604.633 229.155,604.632 230.447,604.632 231.738,604.631 233.029,604.631 234.321,604.63 235.612,604.629 236.903,604.629 238.195,604.628 239.486,604.628 240.777,604.627 242.069,604.627 243.36,604.626 244.651,604.625 245.943,604.625 247.234,604.624 248.526,604.624 249.817,604.623 251.108,604.622 252.4,604.622 253.691,604.621 254.982,604.621 256.274,604.62 257.565,604.619 258.856,604.619 260.148,604.618 261.439,604.618 262.73,604.617 264.022,604.616 265.313,604.616 266.605,604.615 267.896,604.614 269.187,604.614 270.479,604.613 271.77,604.612 273.061,604.612 274.353,604.611 275.644,604.61 276.935,604.61 278.227,604.609 279.518,604.608 280.809,604.608 282.101,604.607 283.392,604.606 284.683,604.605 285.975,604.605 287.266,604.604 288.558,604.603 289.849,604.603 291.14,604.602 292.432,604.601 293.723,604.6 295.014,604.6 296.306,604.599 297.597,604.598 298.888,604.597 300.18,604.597 301.471,604.596 302.762,604.595 304.054,604.594 305.345,604.593 306.637,604.593 307.928,604.592 309.219,604.591 310.511,604.59 311.802,604.589 313.093,604.589 314.385,604.588 315.676,604.587 316.967,604.586 318.259,604.585 319.55,604.584 320.841,604.584 322.133,604.583 323.424,604.582 324.716,604.581 326.007,604.58 327.298,604.579 328.59,604.578 329.881,604.577 331.172,604.576 332.464,604.576 333.755,604.575 335.046,604.574 336.338,604.573 337.629,604.572 338.92,604.571 340.212,604.57 341.503,604.569 342.794,604.568 344.086,604.567 345.377,604.566 346.669,604.565 347.96,604.564 349.251,604.563 350.543,604.562 351.834,604.561 353.125,604.56 354.417,604.559 355.708,604.558 356.999,604.557 358.291,604.556 359.582,604.555 360.873,604.554 362.165,604.552 363.456,604.551 364.748,604.55 366.039,604.549 367.33,604.548 368.622,604.547 369.913,604.546 371.204,604.545 372.496,604.543 373.787,604.542 375.078,604.541 376.37,604.54 377.661,604.539 378.952,604.538 380.244,604.536 381.535,604.535 382.827,604.534 384.118,604.533 385.409,604.531 386.701,604.53 387.992,604.529 389.283,604.528 390.575,604.526 391.866,604.525 393.157,604.524 394.449,604.522 395.74,604.521 397.031,604.52 398.323,604.518 399.614,604.517 400.905,604.516 402.197,604.514 403.488,604.513 404.78,604.511 406.071,604.51 407.362,604.509 408.654,604.507 409.945,604.506 411.236,604.504 412.528,604.503 413.819,604.501 415.11,604.5 416.402,604.498 417.693,604.497 418.984,604.495 420.276,604.494 421.567,604.492 422.859,604.49 424.15,604.489 425.441,604.487 426.733,604.485 428.024,604.484 429.315,604.482 430.607,604.481 431.898,604.479 433.189,604.477 434.481,604.475 435.772,604.474 437.063,604.472 438.355,604.47 439.646,604.468 440.938,604.467 442.229,604.465 443.52,604.463 444.812,604.461 446.103,604.459 447.394,604.457 448.686,604.455 449.977,604.453 451.268,604.452 452.56,604.45 453.851,604.448 455.142,604.446 456.434,604.444 457.725,604.442 459.016,604.44 460.308,604.437 461.599,604.435 462.891,604.433 464.182,604.431 465.473,604.429 466.765,604.427 468.056,604.425 469.347,604.422 470.639,604.42 471.93,604.418 473.221,604.416 474.513,604.413 475.804,604.411 477.095,604.409 478.387,604.406 479.678,604.404 480.97,604.402 482.261,604.399 483.552,604.397 484.844,604.394 486.135,604.392 487.426,604.389 488.718,604.386 490.009,604.384 491.3,604.381 492.592,604.379 493.883,604.376 495.174,604.373 496.466,604.371 497.757,604.368 499.049,604.365 500.34,604.362 501.631,604.359 502.923,604.356 504.214,604.354 505.505,604.351 506.797,604.348 508.088,604.345 509.379,604.342 510.671,604.339 511.962,604.335 513.253,604.332 514.545,604.329 515.836,604.326 517.127,604.323 518.419,604.319 519.71,604.316 521.002,604.313 522.293,604.309 523.584,604.306 524.876,604.303 526.167,604.299 527.458,604.295 528.75,604.292 530.041,604.288 531.332,604.285 532.624,604.281 533.915,604.277 535.206,604.273 536.498,604.27 537.789,604.266 539.081,604.262 540.372,604.258 541.663,604.254 542.955,604.25 544.246,604.246 545.537,604.241 546.829,604.237 548.12,604.233 549.411,604.229 550.703,604.224 551.994,604.22 553.285,604.215 554.577,604.211 555.868,604.206 557.16,604.202 558.451,604.197 559.742,604.192 561.034,604.187 562.325,604.182 563.616,604.178 564.908,604.173 566.199,604.167 567.49,604.162 568.782,604.157 570.073,604.152 571.364,604.146 572.656,604.141 573.947,604.136 575.238,604.13 576.53,604.124 577.821,604.119 579.113,604.113 580.404,604.107 581.695,604.101 582.987,604.095 584.278,604.089 585.569,604.083 586.861,604.077 588.152,604.07 589.443,604.064 590.735,604.057 592.026,604.051 593.317,604.044 594.609,604.037 595.9,604.03 597.192,604.023 598.483,604.016 599.774,604.009 601.066,604.002 602.357,603.994 603.648,603.987 604.94,603.979 606.231,603.971 607.522,603.963 608.814,603.955 610.105,603.947 611.396,603.939 612.688,603.931 613.979,603.922 615.271,603.914 616.562,603.905 617.853,603.896 619.145,603.887 620.436,603.878 621.727,603.869 623.019,603.859 624.31,603.85 625.601,603.84 626.893,603.83 628.184,603.82 629.475,603.81 630.767,603.799 632.058,603.789 633.349,603.778 634.641,603.767 635.932,603.756 637.224,603.745 638.515,603.733 639.806,603.722 641.098,603.71 642.389,603.698 643.68,603.686 644.972,603.673 646.263,603.66 647.554,603.648 648.846,603.634 650.137,603.621 651.428,603.607 652.72,603.594 654.011,603.58 655.303,603.565 656.594,603.551 657.885,603.536 659.177,603.52 660.468,603.505 661.759,603.489 663.051,603.473 664.342,603.457 665.633,603.44 666.925,603.423 668.216,603.406 669.507,603.388 670.799,603.37 672.09,603.352 673.382,603.333 674.673,603.314 675.964,603.295 677.256,603.275 678.547,603.255 679.838,603.234 681.13,603.213 682.421,603.192 683.712,603.17 685.004,603.147 686.295,603.124 687.586,603.101 688.878,603.077 690.169,603.053 691.46,603.028 692.752,603.002 694.043,602.976 695.335,602.95 696.626,602.922 697.917,602.895 699.209,602.866 700.5,602.837 701.791,602.807 703.083,602.777 704.374,602.745 705.665,602.714 706.957,602.681 708.248,602.647 709.539,602.613 710.831,602.578 712.122,602.542 713.414,602.505 714.705,602.467 715.996,602.428 717.288,602.388 718.579,602.348 719.87,602.306 721.162,602.263 722.453,602.219 723.744,602.173 725.036,602.127 726.327,602.079 727.618,602.03 728.91,601.98 730.201,601.928 731.493,601.875 732.784,601.82 734.075,601.763 735.367,601.706 736.658,601.646 737.949,601.584 739.241,601.521 740.532,601.456 741.823,601.389 743.115,601.32 744.406,601.248 745.697,601.175 746.989,601.099 748.28,601.021 749.571,600.94 750.863,600.856 752.154,600.77 753.446,600.681 754.737,600.589 756.028,600.493 757.32,600.395 758.611,600.293 759.902,600.187 761.194,600.078 762.485,599.965 763.776,599.847 765.068,599.725 766.359,599.599 767.65,599.468 768.942,599.332 770.233,599.19 771.525,599.043 772.816,598.89 774.107,598.731 775.399,598.565 776.69,598.392 777.981,598.213 779.273,598.025 780.564,597.829 781.855,597.625 783.147,597.412 784.438,597.188 785.729,596.955 787.021,596.711 788.312,596.455 789.604,596.187 790.895,595.906 792.186,595.61 793.478,595.3 794.769,594.974 796.06,594.631 797.352,594.27 798.643,593.889 799.934,593.487 801.226,593.063 802.517,592.615 803.808,592.14 805.1,591.637 806.391,591.104 807.682,590.538 808.974,589.937 810.265,589.297 811.557,588.615 812.848,587.888 814.139,587.11 815.431,586.279 816.722,585.388 818.013,584.432 819.305,583.405 820.596,582.299 821.887,581.106 823.179,579.817 824.47,578.422 825.761,576.909 827.053,575.264 828.344,573.473 829.636,571.516 830.927,569.375 832.218,567.026 833.51,564.442 834.801,561.591 836.092,558.437 837.384,554.937 838.675,551.04 839.966,546.688 841.258,541.81 842.549,536.322 843.84,530.125 845.132,523.101 846.423,515.108 847.715,505.977 849.006,495.503 850.297,483.444 851.589,469.511 852.88,453.366 854.171,434.619 855.463,412.834 856.754,387.55 858.045,358.333 859.337,324.867 860.628,287.124 861.919,245.612 863.211,201.717 864.502,158.039 865.793,118.519 867.085,88.0432 868.376,71.3267 869.668,71.3267 870.959,88.0432 872.25,118.519 873.542,158.039 874.833,201.717 876.124,245.612 877.416,287.124 878.707,324.867 879.998,358.333 881.29,387.55 882.581,412.834 883.872,434.619 885.164,453.366 886.455,469.511 887.747,483.444 889.038,495.503 890.329,505.977 891.621,515.108 892.912,523.101 894.203,530.125 895.495,536.322 896.786,541.81 898.077,546.688 899.369,551.04 900.66,554.937 901.951,558.437 903.243,561.591 904.534,564.442 905.826,567.026 907.117,569.375 908.408,571.516 909.7,573.473 910.991,575.264 912.282,576.909 913.574,578.422 914.865,579.817 916.156,581.106 917.448,582.299 918.739,583.405 920.03,584.432 921.322,585.388 922.613,586.279 923.904,587.11 925.196,587.888 926.487,588.615 927.779,589.297 929.07,589.937 930.361,590.538 931.653,591.104 932.944,591.637 934.235,592.14 935.527,592.615 936.818,593.063 938.109,593.487 939.401,593.889 940.692,594.27 941.983,594.631 943.275,594.974 944.566,595.3 945.858,595.61 947.149,595.906 948.44,596.187 949.732,596.455 951.023,596.711 952.314,596.955 953.606,597.188 954.897,597.412 956.188,597.625 957.48,597.829 958.771,598.025 960.062,598.213 961.354,598.392 962.645,598.565 963.937,598.731 965.228,598.89 966.519,599.043 967.811,599.19 969.102,599.332 970.393,599.468 971.685,599.599 972.976,599.725 974.267,599.847 975.559,599.965 976.85,600.078 978.141,600.187 979.433,600.293 980.724,600.395 982.015,600.493 983.307,600.589 984.598,600.681 985.89,600.77 987.181,600.856 988.472,600.94 989.764,601.021 991.055,601.099 992.346,601.175 993.638,601.248 994.929,601.32 996.22,601.389 997.512,601.456 998.803,601.521 1000.09,601.584 1001.39,601.646 1002.68,601.706 1003.97,601.763 1005.26,601.82 1006.55,601.875 1007.84,601.928 1009.13,601.98 1010.43,602.03 1011.72,602.079 1013.01,602.127 1014.3,602.173 1015.59,602.219 1016.88,602.263 1018.17,602.306 1019.46,602.348 1020.76,602.388 1022.05,602.428 1023.34,602.467 1024.63,602.505 1025.92,602.542 1027.21,602.578 1028.5,602.613 1029.8,602.647 1031.09,602.681 1032.38,602.714 1033.67,602.745 1034.96,602.777 1036.25,602.807 1037.54,602.837 1038.84,602.866 1040.13,602.895 1041.42,602.922 1042.71,602.95 1044,602.976 1045.29,603.002 1046.58,603.028 1047.87,603.053 1049.17,603.077 1050.46,603.101 1051.75,603.124 1053.04,603.147 1054.33,603.17 1055.62,603.192 1056.91,603.213 1058.21,603.234 1059.5,603.255 1060.79,603.275 1062.08,603.295 1063.37,603.314 1064.66,603.333 1065.95,603.352 1067.24,603.37 1068.54,603.388 1069.83,603.406 1071.12,603.423 1072.41,603.44 1073.7,603.457 1074.99,603.473 1076.28,603.489 1077.58,603.505 1078.87,603.52 1080.16,603.536 1081.45,603.551 1082.74,603.565 1084.03,603.58 1085.32,603.594 1086.62,603.607 1087.91,603.621 1089.2,603.634 1090.49,603.648 1091.78,603.66 1093.07,603.673 1094.36,603.686 1095.65,603.698 1096.95,603.71 1098.24,603.722 1099.53,603.733 1100.82,603.745 1102.11,603.756 1103.4,603.767 1104.69,603.778 1105.99,603.789 1107.28,603.799 1108.57,603.81 1109.86,603.82 1111.15,603.83 1112.44,603.84 1113.73,603.85 1115.03,603.859 1116.32,603.869 1117.61,603.878 1118.9,603.887 1120.19,603.896 1121.48,603.905 1122.77,603.914 1124.06,603.922 1125.36,603.931 1126.65,603.939 1127.94,603.947 1129.23,603.955 1130.52,603.963 1131.81,603.971 1133.1,603.979 1134.4,603.987 1135.69,603.994 1136.98,604.002 1138.27,604.009 1139.56,604.016 1140.85,604.023 1142.14,604.03 1143.43,604.037 1144.73,604.044 1146.02,604.051 1147.31,604.057 1148.6,604.064 1149.89,604.07 1151.18,604.077 1152.47,604.083 1153.77,604.089 1155.06,604.095 1156.35,604.101 1157.64,604.107 1158.93,604.113 1160.22,604.119 1161.51,604.124 1162.81,604.13 1164.1,604.136 1165.39,604.141 1166.68,604.146 1167.97,604.152 1169.26,604.157 1170.55,604.162 1171.84,604.167 1173.14,604.173 1174.43,604.178 1175.72,604.182 1177.01,604.187 1178.3,604.192 1179.59,604.197 1180.88,604.202 1182.18,604.206 1183.47,604.211 1184.76,604.215 1186.05,604.22 1187.34,604.224 1188.63,604.229 1189.92,604.233 1191.22,604.237 1192.51,604.241 1193.8,604.246 1195.09,604.25 1196.38,604.254 1197.67,604.258 1198.96,604.262 1200.25,604.266 1201.55,604.27 1202.84,604.273 1204.13,604.277 1205.42,604.281 1206.71,604.285 1208,604.288 1209.29,604.292 1210.59,604.295 1211.88,604.299 1213.17,604.303 1214.46,604.306 1215.75,604.309 1217.04,604.313 1218.33,604.316 1219.62,604.319 1220.92,604.323 1222.21,604.326 1223.5,604.329 1224.79,604.332 1226.08,604.335 1227.37,604.339 1228.66,604.342 1229.96,604.345 1231.25,604.348 1232.54,604.351 1233.83,604.354 1235.12,604.356 1236.41,604.359 1237.7,604.362 1239,604.365 1240.29,604.368 1241.58,604.371 1242.87,604.373 1244.16,604.376 1245.45,604.379 1246.74,604.381 1248.03,604.384 1249.33,604.386 1250.62,604.389 1251.91,604.392 1253.2,604.394 1254.49,604.397 1255.78,604.399 1257.07,604.402 1258.37,604.404 1259.66,604.406 1260.95,604.409 1262.24,604.411 1263.53,604.413 1264.82,604.416 1266.11,604.418 1267.41,604.42 1268.7,604.422 1269.99,604.425 1271.28,604.427 1272.57,604.429 1273.86,604.431 1275.15,604.433 1276.44,604.435 1277.74,604.437 1279.03,604.44 1280.32,604.442 1281.61,604.444 1282.9,604.446 1284.19,604.448 1285.48,604.45 1286.78,604.452 1288.07,604.453 1289.36,604.455 1290.65,604.457 1291.94,604.459 1293.23,604.461 1294.52,604.463 1295.81,604.465 1297.11,604.467 1298.4,604.468 1299.69,604.47 1300.98,604.472 1302.27,604.474 1303.56,604.475 1304.85,604.477 1306.15,604.479 1307.44,604.481 1308.73,604.482 1310.02,604.484 1311.31,604.485 1312.6,604.487 1313.89,604.489 1315.19,604.49 1316.48,604.492 1317.77,604.494 1319.06,604.495 1320.35,604.497 1321.64,604.498 1322.93,604.5 1324.22,604.501 1325.52,604.503 1326.81,604.504 1328.1,604.506 1329.39,604.507 1330.68,604.509 1331.97,604.51 1333.26,604.511 1334.56,604.513 1335.85,604.514 1337.14,604.516 1338.43,604.517 1339.72,604.518 1341.01,604.52 1342.3,604.521 1343.6,604.522 1344.89,604.524 1346.18,604.525 1347.47,604.526 1348.76,604.528 1350.05,604.529 1351.34,604.53 1352.63,604.531 1353.93,604.533 1355.22,604.534 1356.51,604.535 1357.8,604.536 1359.09,604.538 1360.38,604.539 1361.67,604.54 1362.97,604.541 1364.26,604.542 1365.55,604.543 1366.84,604.545 1368.13,604.546 1369.42,604.547 1370.71,604.548 1372,604.549 1373.3,604.55 1374.59,604.551 1375.88,604.552 1377.17,604.554 1378.46,604.555 1379.75,604.556 1381.04,604.557 1382.34,604.558 1383.63,604.559 1384.92,604.56 1386.21,604.561 1387.5,604.562 1388.79,604.563 1390.08,604.564 1391.38,604.565 1392.67,604.566 1393.96,604.567 1395.25,604.568 1396.54,604.569 1397.83,604.57 1399.12,604.571 1400.41,604.572 1401.71,604.573 1403,604.574 1404.29,604.575 1405.58,604.576 1406.87,604.576 1408.16,604.577 1409.45,604.578 1410.75,604.579 1412.04,604.58 1413.33,604.581 1414.62,604.582 1415.91,604.583 1417.2,604.584 1418.49,604.584 1419.79,604.585 1421.08,604.586 1422.37,604.587 1423.66,604.588 1424.95,604.589 1426.24,604.589 1427.53,604.59 1428.82,604.591 1430.12,604.592 1431.41,604.593 1432.7,604.593 1433.99,604.594 1435.28,604.595 1436.57,604.596 1437.86,604.597 1439.16,604.597 1440.45,604.598 1441.74,604.599 1443.03,604.6 1444.32,604.6 1445.61,604.601 1446.9,604.602 1448.19,604.603 1449.49,604.603 1450.78,604.604 1452.07,604.605 1453.36,604.605 1454.65,604.606 1455.94,604.607 1457.23,604.608 1458.53,604.608 1459.82,604.609 1461.11,604.61 1462.4,604.61 1463.69,604.611 1464.98,604.612 1466.27,604.612 1467.57,604.613 1468.86,604.614 1470.15,604.614 1471.44,604.615 1472.73,604.616 1474.02,604.616 1475.31,604.617 1476.6,604.618 1477.9,604.618 1479.19,604.619 1480.48,604.619 1481.77,604.62 1483.06,604.621 1484.35,604.621 1485.64,604.622 1486.94,604.622 1488.23,604.623 1489.52,604.624 1490.81,604.624 1492.1,604.625 1493.39,604.625 1494.68,604.626 1495.98,604.627 1497.27,604.627 1498.56,604.628 1499.85,604.628 1501.14,604.629 1502.43,604.629 1503.72,604.63 1505.01,604.631 1506.31,604.631 1507.6,604.632 1508.89,604.632 1510.18,604.633 1511.47,604.633 1512.76,604.634 1514.05,604.634 "/>
<polyline clip-path="url(#clip812)" style="stroke:#e26f46; stroke-linecap:round; stroke-linejoin:round; stroke-width:4; stroke-opacity:1; fill:none" points="223.99,604.634 225.281,604.634 226.572,604.633 227.864,604.633 229.155,604.632 230.447,604.632 231.738,604.631 233.029,604.631 234.321,604.63 235.612,604.629 236.903,604.629 238.195,604.628 239.486,604.628 240.777,604.627 242.069,604.627 243.36,604.626 244.651,604.625 245.943,604.625 247.234,604.624 248.526,604.624 249.817,604.623 251.108,604.622 252.4,604.622 253.691,604.621 254.982,604.621 256.274,604.62 257.565,604.619 258.856,604.619 260.148,604.618 261.439,604.618 262.73,604.617 264.022,604.616 265.313,604.616 266.605,604.615 267.896,604.614 269.187,604.614 270.479,604.613 271.77,604.612 273.061,604.612 274.353,604.611 275.644,604.61 276.935,604.61 278.227,604.609 279.518,604.608 280.809,604.608 282.101,604.607 283.392,604.606 284.683,604.605 285.975,604.605 287.266,604.604 288.558,604.603 289.849,604.603 291.14,604.602 292.432,604.601 293.723,604.6 295.014,604.6 296.306,604.599 297.597,604.598 298.888,604.597 300.18,604.597 301.471,604.596 302.762,604.595 304.054,604.594 305.345,604.593 306.637,604.593 307.928,604.592 309.219,604.591 310.511,604.59 311.802,604.589 313.093,604.589 314.385,604.588 315.676,604.587 316.967,604.586 318.259,604.585 319.55,604.584 320.841,604.584 322.133,604.583 323.424,604.582 324.716,604.581 326.007,604.58 327.298,604.579 328.59,604.578 329.881,604.577 331.172,604.576 332.464,604.576 333.755,604.575 335.046,604.574 336.338,604.573 337.629,604.572 338.92,604.571 340.212,604.57 341.503,604.569 342.794,604.568 344.086,604.567 345.377,604.566 346.669,604.565 347.96,604.564 349.251,604.563 350.543,604.562 351.834,604.561 353.125,604.56 354.417,604.559 355.708,604.558 356.999,604.557 358.291,604.556 359.582,604.555 360.873,604.554 362.165,604.552 363.456,604.551 364.748,604.55 366.039,604.549 367.33,604.548 368.622,604.547 369.913,604.546 371.204,604.545 372.496,604.543 373.787,604.542 375.078,604.541 376.37,604.54 377.661,604.539 378.952,604.538 380.244,604.536 381.535,604.535 382.827,604.534 384.118,604.533 385.409,604.531 386.701,604.53 387.992,604.529 389.283,604.528 390.575,604.526 391.866,604.525 393.157,604.524 394.449,604.522 395.74,604.521 397.031,604.52 398.323,604.518 399.614,604.517 400.905,604.516 402.197,604.514 403.488,604.513 404.78,604.511 406.071,604.51 407.362,604.509 408.654,604.507 409.945,604.506 411.236,604.504 412.528,604.503 413.819,604.501 415.11,604.5 416.402,604.498 417.693,604.497 418.984,604.495 420.276,604.494 421.567,604.492 422.859,604.49 424.15,604.489 425.441,604.487 426.733,604.485 428.024,604.484 429.315,604.482 430.607,604.481 431.898,604.479 433.189,604.477 434.481,604.475 435.772,604.474 437.063,604.472 438.355,604.47 439.646,604.468 440.938,604.467 442.229,604.465 443.52,604.463 444.812,604.461 446.103,604.459 447.394,604.457 448.686,604.455 449.977,604.453 451.268,604.452 452.56,604.45 453.851,604.448 455.142,604.446 456.434,604.444 457.725,604.442 459.016,604.44 460.308,604.437 461.599,604.435 462.891,604.433 464.182,604.431 465.473,604.429 466.765,604.427 468.056,604.425 469.347,604.422 470.639,604.42 471.93,604.418 473.221,604.416 474.513,604.413 475.804,604.411 477.095,604.409 478.387,604.406 479.678,604.404 480.97,604.402 482.261,604.399 483.552,604.397 484.844,604.394 486.135,604.392 487.426,604.389 488.718,604.386 490.009,604.384 491.3,604.381 492.592,604.379 493.883,604.376 495.174,604.373 496.466,604.371 497.757,604.368 499.049,604.365 500.34,604.362 501.631,604.359 502.923,604.356 504.214,604.354 505.505,604.351 506.797,604.348 508.088,604.345 509.379,604.342 510.671,604.339 511.962,604.335 513.253,604.332 514.545,604.329 515.836,604.326 517.127,604.323 518.419,604.319 519.71,604.316 521.002,604.313 522.293,604.309 523.584,604.306 524.876,604.303 526.167,604.299 527.458,604.295 528.75,604.292 530.041,604.288 531.332,604.285 532.624,604.281 533.915,604.277 535.206,604.273 536.498,604.27 537.789,604.266 539.081,604.262 540.372,604.258 541.663,604.254 542.955,604.25 544.246,604.246 545.537,604.241 546.829,604.237 548.12,604.233 549.411,604.229 550.703,604.224 551.994,604.22 553.285,604.215 554.577,604.211 555.868,604.206 557.16,604.202 558.451,604.197 559.742,604.192 561.034,604.187 562.325,604.182 563.616,604.178 564.908,604.173 566.199,604.167 567.49,604.162 568.782,604.157 570.073,604.152 571.364,604.146 572.656,604.141 573.947,604.136 575.238,604.13 576.53,604.124 577.821,604.119 579.113,604.113 580.404,604.107 581.695,604.101 582.987,604.095 584.278,604.089 585.569,604.083 586.861,604.077 588.152,604.07 589.443,604.064 590.735,604.057 592.026,604.051 593.317,604.044 594.609,604.037 595.9,604.03 597.192,604.023 598.483,604.016 599.774,604.009 601.066,604.002 602.357,603.994 603.648,603.987 604.94,603.979 606.231,603.971 607.522,603.963 608.814,603.955 610.105,603.947 611.396,603.939 612.688,603.931 613.979,603.922 615.271,603.914 616.562,603.905 617.853,603.896 619.145,603.887 620.436,603.878 621.727,603.869 623.019,603.859 624.31,603.85 625.601,603.84 626.893,603.83 628.184,603.82 629.475,603.81 630.767,603.799 632.058,603.789 633.349,603.778 634.641,603.767 635.932,603.756 637.224,603.745 638.515,603.733 639.806,603.722 641.098,603.71 642.389,603.698 643.68,603.686 644.972,603.673 646.263,603.66 647.554,603.648 648.846,603.634 650.137,603.621 651.428,603.607 652.72,603.594 654.011,603.58 655.303,603.565 656.594,603.551 657.885,603.536 659.177,603.52 660.468,603.505 661.759,603.489 663.051,603.473 664.342,603.457 665.633,603.44 666.925,603.423 668.216,603.406 669.507,603.388 670.799,603.37 672.09,603.352 673.382,603.333 674.673,603.314 675.964,603.295 677.256,603.275 678.547,603.255 679.838,603.234 681.13,603.213 682.421,603.192 683.712,603.17 685.004,603.147 686.295,603.124 687.586,603.101 688.878,603.077 690.169,603.053 691.46,603.028 692.752,603.002 694.043,602.976 695.335,602.95 696.626,602.922 697.917,602.895 699.209,602.866 700.5,602.837 701.791,602.807 703.083,602.777 704.374,602.745 705.665,602.714 706.957,602.681 708.248,602.647 709.539,602.613 710.831,602.578 712.122,602.542 713.414,602.505 714.705,602.467 715.996,602.428 717.288,602.388 718.579,602.348 719.87,602.306 721.162,602.263 722.453,602.219 723.744,602.173 725.036,602.127 726.327,602.079 727.618,602.03 728.91,601.98 730.201,601.928 731.493,601.875 732.784,601.82 734.075,601.763 735.367,601.706 736.658,601.646 737.949,601.584 739.241,601.521 740.532,601.456 741.823,601.389 743.115,601.32 744.406,601.248 745.697,601.175 746.989,601.099 748.28,601.021 749.571,600.94 750.863,600.856 752.154,600.77 753.446,600.681 754.737,600.589 756.028,600.493 757.32,600.395 758.611,600.293 759.902,600.187 761.194,600.078 762.485,599.965 763.776,599.847 765.068,599.725 766.359,599.599 767.65,599.468 768.942,599.332 770.233,599.19 771.525,599.043 772.816,598.89 774.107,598.731 775.399,598.565 776.69,598.392 777.981,598.213 779.273,598.025 780.564,597.829 781.855,597.625 783.147,597.412 784.438,597.188 785.729,596.955 787.021,596.711 788.312,596.455 789.604,596.187 790.895,595.906 792.186,595.61 793.478,595.3 794.769,594.974 796.06,594.631 797.352,594.27 798.643,593.889 799.934,593.487 801.226,593.063 802.517,592.615 803.808,592.14 805.1,591.637 806.391,591.104 807.682,590.538 808.974,589.937 810.265,589.297 811.557,588.615 812.848,587.888 814.139,587.11 815.431,586.279 816.722,585.388 818.013,584.432 819.305,583.405 820.596,582.299 821.887,581.106 823.179,579.817 824.47,578.422 825.761,576.909 827.053,575.264 828.344,573.472 829.636,571.516 830.927,569.375 832.218,567.026 833.51,564.442 834.801,561.591 836.092,558.437 837.384,554.937 838.675,551.04 839.966,546.688 841.258,541.809 842.549,536.322 843.84,530.125 845.132,523.102 846.423,515.108 847.715,505.977 849.006,495.502 850.297,483.445 851.589,469.51 852.88,453.368 854.171,434.619 855.463,412.834 856.754,387.55 858.045,358.33 859.337,324.877 860.628,287.106 861.919,245.638 863.211,201.68 864.502,158.087 865.793,118.493 867.085,87.9939 868.376,71.4389 869.668,71.2261 870.959,88.0864 872.25,118.533 873.542,157.992 874.833,201.761 876.124,245.586 877.416,287.139 878.707,324.858 879.998,358.337 881.29,387.55 882.581,412.833 883.872,434.62 885.164,453.365 886.455,469.512 887.747,483.442 889.038,495.503 890.329,505.976 891.621,515.109 892.912,523.101 894.203,530.125 895.495,536.321 896.786,541.81 898.077,546.688 899.369,551.041 900.66,554.937 901.951,558.437 903.243,561.591 904.534,564.442 905.826,567.026 907.117,569.375 908.408,571.516 909.7,573.473 910.991,575.264 912.282,576.909 913.574,578.422 914.865,579.817 916.156,581.106 917.448,582.299 918.739,583.405 920.03,584.432 921.322,585.388 922.613,586.279 923.904,587.11 925.196,587.888 926.487,588.615 927.779,589.297 929.07,589.937 930.361,590.538 931.653,591.104 932.944,591.637 934.235,592.14 935.527,592.615 936.818,593.063 938.109,593.487 939.401,593.889 940.692,594.27 941.983,594.631 943.275,594.974 944.566,595.3 945.858,595.61 947.149,595.906 948.44,596.187 949.732,596.455 951.023,596.711 952.314,596.955 953.606,597.188 954.897,597.412 956.188,597.625 957.48,597.829 958.771,598.025 960.062,598.213 961.354,598.392 962.645,598.565 963.937,598.731 965.228,598.89 966.519,599.043 967.811,599.19 969.102,599.332 970.393,599.468 971.685,599.599 972.976,599.725 974.267,599.847 975.559,599.965 976.85,600.078 978.141,600.187 979.433,600.293 980.724,600.395 982.015,600.493 983.307,600.589 984.598,600.681 985.89,600.77 987.181,600.856 988.472,600.94 989.764,601.021 991.055,601.099 992.346,601.175 993.638,601.248 994.929,601.32 996.22,601.389 997.512,601.456 998.803,601.521 1000.09,601.584 1001.39,601.646 1002.68,601.706 1003.97,601.763 1005.26,601.82 1006.55,601.875 1007.84,601.928 1009.13,601.98 1010.43,602.03 1011.72,602.079 1013.01,602.127 1014.3,602.173 1015.59,602.219 1016.88,602.263 1018.17,602.306 1019.46,602.348 1020.76,602.388 1022.05,602.428 1023.34,602.467 1024.63,602.505 1025.92,602.542 1027.21,602.578 1028.5,602.613 1029.8,602.647 1031.09,602.681 1032.38,602.714 1033.67,602.745 1034.96,602.777 1036.25,602.807 1037.54,602.837 1038.84,602.866 1040.13,602.895 1041.42,602.922 1042.71,602.95 1044,602.976 1045.29,603.002 1046.58,603.028 1047.87,603.053 1049.17,603.077 1050.46,603.101 1051.75,603.124 1053.04,603.147 1054.33,603.17 1055.62,603.192 1056.91,603.213 1058.21,603.234 1059.5,603.255 1060.79,603.275 1062.08,603.295 1063.37,603.314 1064.66,603.333 1065.95,603.352 1067.24,603.37 1068.54,603.388 1069.83,603.406 1071.12,603.423 1072.41,603.44 1073.7,603.457 1074.99,603.473 1076.28,603.489 1077.58,603.505 1078.87,603.52 1080.16,603.536 1081.45,603.551 1082.74,603.565 1084.03,603.58 1085.32,603.594 1086.62,603.607 1087.91,603.621 1089.2,603.634 1090.49,603.648 1091.78,603.66 1093.07,603.673 1094.36,603.686 1095.65,603.698 1096.95,603.71 1098.24,603.722 1099.53,603.733 1100.82,603.745 1102.11,603.756 1103.4,603.767 1104.69,603.778 1105.99,603.789 1107.28,603.799 1108.57,603.81 1109.86,603.82 1111.15,603.83 1112.44,603.84 1113.73,603.85 1115.03,603.859 1116.32,603.869 1117.61,603.878 1118.9,603.887 1120.19,603.896 1121.48,603.905 1122.77,603.914 1124.06,603.922 1125.36,603.931 1126.65,603.939 1127.94,603.947 1129.23,603.955 1130.52,603.963 1131.81,603.971 1133.1,603.979 1134.4,603.987 1135.69,603.994 1136.98,604.002 1138.27,604.009 1139.56,604.016 1140.85,604.023 1142.14,604.03 1143.43,604.037 1144.73,604.044 1146.02,604.051 1147.31,604.057 1148.6,604.064 1149.89,604.07 1151.18,604.077 1152.47,604.083 1153.77,604.089 1155.06,604.095 1156.35,604.101 1157.64,604.107 1158.93,604.113 1160.22,604.119 1161.51,604.124 1162.81,604.13 1164.1,604.136 1165.39,604.141 1166.68,604.146 1167.97,604.152 1169.26,604.157 1170.55,604.162 1171.84,604.167 1173.14,604.173 1174.43,604.178 1175.72,604.182 1177.01,604.187 1178.3,604.192 1179.59,604.197 1180.88,604.202 1182.18,604.206 1183.47,604.211 1184.76,604.215 1186.05,604.22 1187.34,604.224 1188.63,604.229 1189.92,604.233 1191.22,604.237 1192.51,604.241 1193.8,604.246 1195.09,604.25 1196.38,604.254 1197.67,604.258 1198.96,604.262 1200.25,604.266 1201.55,604.27 1202.84,604.273 1204.13,604.277 1205.42,604.281 1206.71,604.285 1208,604.288 1209.29,604.292 1210.59,604.295 1211.88,604.299 1213.17,604.303 1214.46,604.306 1215.75,604.309 1217.04,604.313 1218.33,604.316 1219.62,604.319 1220.92,604.323 1222.21,604.326 1223.5,604.329 1224.79,604.332 1226.08,604.335 1227.37,604.339 1228.66,604.342 1229.96,604.345 1231.25,604.348 1232.54,604.351 1233.83,604.354 1235.12,604.356 1236.41,604.359 1237.7,604.362 1239,604.365 1240.29,604.368 1241.58,604.371 1242.87,604.373 1244.16,604.376 1245.45,604.379 1246.74,604.381 1248.03,604.384 1249.33,604.386 1250.62,604.389 1251.91,604.392 1253.2,604.394 1254.49,604.397 1255.78,604.399 1257.07,604.402 1258.37,604.404 1259.66,604.406 1260.95,604.409 1262.24,604.411 1263.53,604.413 1264.82,604.416 1266.11,604.418 1267.41,604.42 1268.7,604.422 1269.99,604.425 1271.28,604.427 1272.57,604.429 1273.86,604.431 1275.15,604.433 1276.44,604.435 1277.74,604.437 1279.03,604.44 1280.32,604.442 1281.61,604.444 1282.9,604.446 1284.19,604.448 1285.48,604.45 1286.78,604.452 1288.07,604.453 1289.36,604.455 1290.65,604.457 1291.94,604.459 1293.23,604.461 1294.52,604.463 1295.81,604.465 1297.11,604.467 1298.4,604.468 1299.69,604.47 1300.98,604.472 1302.27,604.474 1303.56,604.475 1304.85,604.477 1306.15,604.479 1307.44,604.481 1308.73,604.482 1310.02,604.484 1311.31,604.485 1312.6,604.487 1313.89,604.489 1315.19,604.49 1316.48,604.492 1317.77,604.494 1319.06,604.495 1320.35,604.497 1321.64,604.498 1322.93,604.5 1324.22,604.501 1325.52,604.503 1326.81,604.504 1328.1,604.506 1329.39,604.507 1330.68,604.509 1331.97,604.51 1333.26,604.511 1334.56,604.513 1335.85,604.514 1337.14,604.516 1338.43,604.517 1339.72,604.518 1341.01,604.52 1342.3,604.521 1343.6,604.522 1344.89,604.524 1346.18,604.525 1347.47,604.526 1348.76,604.528 1350.05,604.529 1351.34,604.53 1352.63,604.531 1353.93,604.533 1355.22,604.534 1356.51,604.535 1357.8,604.536 1359.09,604.538 1360.38,604.539 1361.67,604.54 1362.97,604.541 1364.26,604.542 1365.55,604.543 1366.84,604.545 1368.13,604.546 1369.42,604.547 1370.71,604.548 1372,604.549 1373.3,604.55 1374.59,604.551 1375.88,604.552 1377.17,604.554 1378.46,604.555 1379.75,604.556 1381.04,604.557 1382.34,604.558 1383.63,604.559 1384.92,604.56 1386.21,604.561 1387.5,604.562 1388.79,604.563 1390.08,604.564 1391.38,604.565 1392.67,604.566 1393.96,604.567 1395.25,604.568 1396.54,604.569 1397.83,604.57 1399.12,604.571 1400.41,604.572 1401.71,604.573 1403,604.574 1404.29,604.575 1405.58,604.576 1406.87,604.576 1408.16,604.577 1409.45,604.578 1410.75,604.579 1412.04,604.58 1413.33,604.581 1414.62,604.582 1415.91,604.583 1417.2,604.584 1418.49,604.584 1419.79,604.585 1421.08,604.586 1422.37,604.587 1423.66,604.588 1424.95,604.589 1426.24,604.589 1427.53,604.59 1428.82,604.591 1430.12,604.592 1431.41,604.593 1432.7,604.593 1433.99,604.594 1435.28,604.595 1436.57,604.596 1437.86,604.597 1439.16,604.597 1440.45,604.598 1441.74,604.599 1443.03,604.6 1444.32,604.6 1445.61,604.601 1446.9,604.602 1448.19,604.603 1449.49,604.603 1450.78,604.604 1452.07,604.605 1453.36,604.605 1454.65,604.606 1455.94,604.607 1457.23,604.608 1458.53,604.608 1459.82,604.609 1461.11,604.61 1462.4,604.61 1463.69,604.611 1464.98,604.612 1466.27,604.612 1467.57,604.613 1468.86,604.614 1470.15,604.614 1471.44,604.615 1472.73,604.616 1474.02,604.616 1475.31,604.617 1476.6,604.618 1477.9,604.618 1479.19,604.619 1480.48,604.619 1481.77,604.62 1483.06,604.621 1484.35,604.621 1485.64,604.622 1486.94,604.622 1488.23,604.623 1489.52,604.624 1490.81,604.624 1492.1,604.625 1493.39,604.625 1494.68,604.626 1495.98,604.627 1497.27,604.627 1498.56,604.628 1499.85,604.628 1501.14,604.629 1502.43,604.629 1503.72,604.63 1505.01,604.631 1506.31,604.631 1507.6,604.632 1508.89,604.632 1510.18,604.633 1511.47,604.633 1512.76,604.766 1514.05,604.766 "/>
<polyline clip-path="url(#clip812)" style="stroke:#3da44d; stroke-linecap:round; stroke-linejoin:round; stroke-width:4; stroke-opacity:1; fill:none" points="223.99,593.254 225.281,593.211 226.572,593.226 227.864,593.229 229.155,593.227 230.447,593.223 231.738,593.216 233.029,593.209 234.321,593.2 235.612,593.191 236.903,593.181 238.195,593.17 239.486,593.16 240.777,593.148 242.069,593.137 243.36,593.125 244.651,593.113 245.943,593.101 247.234,593.088 248.526,593.076 249.817,593.063 251.108,593.05 252.4,593.037 253.691,593.023 254.982,593.01 256.274,592.996 257.565,592.982 258.856,592.968 260.148,592.954 261.439,592.94 262.73,592.925 264.022,592.911 265.313,592.896 266.605,592.881 267.896,592.867 269.187,592.851 270.479,592.836 271.77,592.821 273.061,592.806 274.353,592.79 275.644,592.775 276.935,592.759 278.227,592.743 279.518,592.727 280.809,592.711 282.101,592.695 283.392,592.678 284.683,592.662 285.975,592.645 287.266,592.629 288.558,592.612 289.849,592.595 291.14,592.578 292.432,592.561 293.723,592.544 295.014,592.527 296.306,592.509 297.597,592.492 298.888,592.474 300.18,592.456 301.471,592.438 302.762,592.42 304.054,592.402 305.345,592.384 306.637,592.365 307.928,592.347 309.219,592.328 310.511,592.31 311.802,592.291 313.093,592.272 314.385,592.253 315.676,592.234 316.967,592.214 318.259,592.195 319.55,592.175 320.841,592.156 322.133,592.136 323.424,592.116 324.716,592.096 326.007,592.076 327.298,592.056 328.59,592.035 329.881,592.015 331.172,591.994 332.464,591.973 333.755,591.952 335.046,591.931 336.338,591.91 337.629,591.889 338.92,591.868 340.212,591.846 341.503,591.824 342.794,591.803 344.086,591.781 345.377,591.758 346.669,591.736 347.96,591.714 349.251,591.691 350.543,591.669 351.834,591.646 353.125,591.623 354.417,591.6 355.708,591.577 356.999,591.554 358.291,591.53 359.582,591.507 360.873,591.483 362.165,591.459 363.456,591.435 364.748,591.411 366.039,591.386 367.33,591.362 368.622,591.337 369.913,591.312 371.204,591.287 372.496,591.262 373.787,591.237 375.078,591.212 376.37,591.186 377.661,591.16 378.952,591.134 380.244,591.108 381.535,591.082 382.827,591.056 384.118,591.029 385.409,591.003 386.701,590.976 387.992,590.949 389.283,590.921 390.575,590.894 391.866,590.867 393.157,590.839 394.449,590.811 395.74,590.783 397.031,590.755 398.323,590.726 399.614,590.698 400.905,590.669 402.197,590.64 403.488,590.611 404.78,590.581 406.071,590.552 407.362,590.522 408.654,590.492 409.945,590.462 411.236,590.432 412.528,590.401 413.819,590.371 415.11,590.34 416.402,590.309 417.693,590.277 418.984,590.246 420.276,590.214 421.567,590.182 422.859,590.15 424.15,590.118 425.441,590.085 426.733,590.053 428.024,590.02 429.315,589.987 430.607,589.953 431.898,589.92 433.189,589.886 434.481,589.852 435.772,589.818 437.063,589.783 438.355,589.748 439.646,589.713 440.938,589.678 442.229,589.643 443.52,589.607 444.812,589.571 446.103,589.535 447.394,589.499 448.686,589.462 449.977,589.425 451.268,589.388 452.56,589.351 453.851,589.313 455.142,589.275 456.434,589.237 457.725,589.199 459.016,589.16 460.308,589.121 461.599,589.082 462.891,589.042 464.182,589.002 465.473,588.962 466.765,588.922 468.056,588.882 469.347,588.841 470.639,588.799 471.93,588.758 473.221,588.716 474.513,588.674 475.804,588.632 477.095,588.589 478.387,588.546 479.678,588.503 480.97,588.459 482.261,588.416 483.552,588.371 484.844,588.327 486.135,588.282 487.426,588.237 488.718,588.191 490.009,588.145 491.3,588.099 492.592,588.053 493.883,588.006 495.174,587.959 496.466,587.911 497.757,587.863 499.049,587.815 500.34,587.766 501.631,587.717 502.923,587.668 504.214,587.618 505.505,587.568 506.797,587.518 508.088,587.467 509.379,587.416 510.671,587.364 511.962,587.312 513.253,587.26 514.545,587.207 515.836,587.154 517.127,587.1 518.419,587.046 519.71,586.991 521.002,586.936 522.293,586.881 523.584,586.825 524.876,586.769 526.167,586.712 527.458,586.655 528.75,586.598 530.041,586.54 531.332,586.481 532.624,586.422 533.915,586.363 535.206,586.303 536.498,586.242 537.789,586.181 539.081,586.12 540.372,586.058 541.663,585.995 542.955,585.932 544.246,585.869 545.537,585.805 546.829,585.74 548.12,585.675 549.411,585.61 550.703,585.544 551.994,585.477 553.285,585.409 554.577,585.342 555.868,585.273 557.16,585.204 558.451,585.134 559.742,585.064 561.034,584.993 562.325,584.922 563.616,584.849 564.908,584.777 566.199,584.703 567.49,584.629 568.782,584.555 570.073,584.479 571.364,584.403 572.656,584.326 573.947,584.249 575.238,584.171 576.53,584.092 577.821,584.012 579.113,583.932 580.404,583.851 581.695,583.769 582.987,583.686 584.278,583.603 585.569,583.519 586.861,583.434 588.152,583.348 589.443,583.262 590.735,583.175 592.026,583.086 593.317,582.997 594.609,582.907 595.9,582.817 597.192,582.725 598.483,582.632 599.774,582.539 601.066,582.444 602.357,582.349 603.648,582.253 604.94,582.156 606.231,582.057 607.522,581.958 608.814,581.858 610.105,581.757 611.396,581.654 612.688,581.551 613.979,581.447 615.271,581.341 616.562,581.235 617.853,581.127 619.145,581.018 620.436,580.908 621.727,580.797 623.019,580.685 624.31,580.571 625.601,580.456 626.893,580.34 628.184,580.223 629.475,580.104 630.767,579.985 632.058,579.863 633.349,579.741 634.641,579.617 635.932,579.492 637.224,579.365 638.515,579.237 639.806,579.107 641.098,578.976 642.389,578.843 643.68,578.709 644.972,578.573 646.263,578.436 647.554,578.297 648.846,578.156 650.137,578.014 651.428,577.87 652.72,577.724 654.011,577.577 655.303,577.427 656.594,577.276 657.885,577.123 659.177,576.968 660.468,576.812 661.759,576.653 663.051,576.492 664.342,576.329 665.633,576.164 666.925,575.997 668.216,575.828 669.507,575.656 670.799,575.483 672.09,575.307 673.382,575.128 674.673,574.948 675.964,574.765 677.256,574.579 678.547,574.391 679.838,574.2 681.13,574.007 682.421,573.811 683.712,573.612 685.004,573.41 686.295,573.206 687.586,572.999 688.878,572.788 690.169,572.575 691.46,572.359 692.752,572.139 694.043,571.916 695.335,571.69 696.626,571.46 697.917,571.227 699.209,570.991 700.5,570.751 701.791,570.507 703.083,570.259 704.374,570.007 705.665,569.752 706.957,569.492 708.248,569.229 709.539,568.961 710.831,568.688 712.122,568.411 713.414,568.13 714.705,567.844 715.996,567.553 717.288,567.257 718.579,566.956 719.87,566.65 721.162,566.339 722.453,566.022 723.744,565.7 725.036,565.372 726.327,565.038 727.618,564.697 728.91,564.351 730.201,563.999 731.493,563.639 732.784,563.273 734.075,562.901 735.367,562.521 736.658,562.133 737.949,561.738 739.241,561.336 740.532,560.925 741.823,560.506 743.115,560.079 744.406,559.643 745.697,559.198 746.989,558.744 748.28,558.28 749.571,557.806 750.863,557.322 752.154,556.828 753.446,556.323 754.737,555.806 756.028,555.278 757.32,554.738 758.611,554.186 759.902,553.621 761.194,553.043 762.485,552.451 763.776,551.844 765.068,551.223 766.359,550.587 767.65,549.935 768.942,549.267 770.233,548.582 771.525,547.879 772.816,547.158 774.107,546.418 775.399,545.658 776.69,544.877 777.981,544.075 779.273,543.251 780.564,542.404 781.855,541.532 783.147,540.636 784.438,539.713 785.729,538.762 787.021,537.783 788.312,536.774 789.604,535.734 790.895,534.661 792.186,533.553 793.478,532.41 794.769,531.229 796.06,530.009 797.352,528.747 798.643,527.441 799.934,526.09 801.226,524.69 802.517,523.24 803.808,521.736 805.1,520.176 806.391,518.557 807.682,516.874 808.974,515.125 810.265,513.306 811.557,511.412 812.848,509.44 814.139,507.384 815.431,505.238 816.722,502.999 818.013,500.658 819.305,498.211 820.596,495.649 821.887,492.966 823.179,490.152 824.47,487.2 825.761,484.098 827.053,480.838 828.344,477.407 829.636,473.793 830.927,469.983 832.218,465.963 833.51,461.718 834.801,457.231 836.092,452.485 837.384,447.463 838.675,442.145 839.966,436.514 841.258,430.55 842.549,424.238 843.84,417.563 845.132,410.517 846.423,403.101 847.715,395.327 849.006,387.229 850.297,378.871 851.589,370.365 852.88,361.885 854.171,353.705 855.463,346.24 856.754,340.088 858.045,336.13 859.337,335.537 860.628,339.963 861.919,351.328 863.211,371.949 864.502,403.837 865.793,448.117 867.085,504.388 868.376,569.073 869.668,637.042 870.959,701.925 872.25,757.957 873.542,802.371 874.833,834.247 876.124,854.825 877.416,866.235 878.707,870.626 879.998,870.06 881.29,866.085 882.581,859.94 883.872,852.472 885.164,844.294 886.455,835.813 887.747,827.306 889.038,818.949 890.329,810.851 891.621,803.077 892.912,795.66 894.203,788.615 895.495,781.94 896.786,775.627 898.077,769.664 899.369,764.032 900.66,758.714 901.951,753.692 903.243,748.946 904.534,744.459 905.826,740.213 907.117,736.193 908.408,732.383 909.7,728.77 910.991,725.338 912.282,722.078 913.574,718.976 914.865,716.024 916.156,713.21 917.448,710.526 918.739,707.965 920.03,705.517 921.322,703.176 922.613,700.936 923.904,698.791 925.196,696.734 926.487,694.762 927.779,692.868 929.07,691.048 930.361,689.299 931.653,687.617 932.944,685.997 934.235,684.437 935.527,682.933 936.818,681.482 938.109,680.082 939.401,678.731 940.692,677.425 941.983,676.163 943.275,674.942 944.566,673.761 945.858,672.617 947.149,671.51 948.44,670.436 949.732,669.396 951.023,668.387 952.314,667.407 953.606,666.456 954.897,665.533 956.188,664.636 957.48,663.764 958.771,662.917 960.062,662.092 961.354,661.29 962.645,660.509 963.937,659.749 965.228,659.008 966.519,658.287 967.811,657.584 969.102,656.898 970.393,656.23 971.685,655.577 972.976,654.941 974.267,654.32 975.559,653.713 976.85,653.121 978.141,652.542 979.433,651.977 980.724,651.424 982.015,650.884 983.307,650.355 984.598,649.838 985.89,649.333 987.181,648.838 988.472,648.354 989.764,647.88 991.055,647.415 992.346,646.961 993.638,646.515 994.929,646.079 996.22,645.651 997.512,645.232 998.803,644.821 1000.09,644.418 1001.39,644.022 1002.68,643.635 1003.97,643.254 1005.26,642.881 1006.55,642.514 1007.84,642.155 1009.13,641.802 1010.43,641.455 1011.72,641.114 1013.01,640.78 1014.3,640.451 1015.59,640.128 1016.88,639.811 1018.17,639.499 1019.46,639.193 1020.76,638.891 1022.05,638.595 1023.34,638.304 1024.63,638.017 1025.92,637.735 1027.21,637.458 1028.5,637.185 1029.8,636.916 1031.09,636.652 1032.38,636.392 1033.67,636.136 1034.96,635.884 1036.25,635.635 1037.54,635.391 1038.84,635.15 1040.13,634.913 1041.42,634.679 1042.71,634.449 1044,634.222 1045.29,633.999 1046.58,633.779 1047.87,633.562 1049.17,633.348 1050.46,633.137 1051.75,632.929 1053.04,632.724 1054.33,632.522 1055.62,632.322 1056.91,632.125 1058.21,631.931 1059.5,631.74 1060.79,631.551 1062.08,631.365 1063.37,631.181 1064.66,631 1065.95,630.821 1067.24,630.644 1068.54,630.47 1069.83,630.298 1071.12,630.128 1072.41,629.96 1073.7,629.795 1074.99,629.631 1076.28,629.469 1077.58,629.31 1078.87,629.152 1080.16,628.997 1081.45,628.843 1082.74,628.691 1084.03,628.541 1085.32,628.393 1086.62,628.246 1087.91,628.102 1089.2,627.959 1090.49,627.817 1091.78,627.677 1093.07,627.539 1094.36,627.403 1095.65,627.268 1096.95,627.134 1098.24,627.003 1099.53,626.872 1100.82,626.743 1102.11,626.616 1103.4,626.489 1104.69,626.365 1105.99,626.241 1107.28,626.119 1108.57,625.999 1109.86,625.879 1111.15,625.761 1112.44,625.644 1113.73,625.529 1115.03,625.414 1116.32,625.301 1117.61,625.189 1118.9,625.078 1120.19,624.968 1121.48,624.86 1122.77,624.752 1124.06,624.646 1125.36,624.541 1126.65,624.437 1127.94,624.333 1129.23,624.231 1130.52,624.13 1131.81,624.03 1133.1,623.931 1134.4,623.833 1135.69,623.735 1136.98,623.639 1138.27,623.544 1139.56,623.449 1140.85,623.356 1142.14,623.263 1143.43,623.172 1144.73,623.081 1146.02,622.991 1147.31,622.902 1148.6,622.813 1149.89,622.726 1151.18,622.639 1152.47,622.553 1153.77,622.468 1155.06,622.384 1156.35,622.3 1157.64,622.217 1158.93,622.135 1160.22,622.054 1161.51,621.973 1162.81,621.893 1164.1,621.814 1165.39,621.736 1166.68,621.658 1167.97,621.581 1169.26,621.504 1170.55,621.429 1171.84,621.354 1173.14,621.279 1174.43,621.205 1175.72,621.132 1177.01,621.059 1178.3,620.987 1179.59,620.916 1180.88,620.845 1182.18,620.775 1183.47,620.706 1184.76,620.637 1186.05,620.568 1187.34,620.5 1188.63,620.433 1189.92,620.366 1191.22,620.3 1192.51,620.234 1193.8,620.169 1195.09,620.104 1196.38,620.04 1197.67,619.977 1198.96,619.914 1200.25,619.851 1201.55,619.789 1202.84,619.727 1204.13,619.666 1205.42,619.606 1206.71,619.545 1208,619.486 1209.29,619.426 1210.59,619.368 1211.88,619.309 1213.17,619.251 1214.46,619.194 1215.75,619.137 1217.04,619.08 1218.33,619.024 1219.62,618.968 1220.92,618.913 1222.21,618.858 1223.5,618.804 1224.79,618.75 1226.08,618.696 1227.37,618.643 1228.66,618.59 1229.96,618.537 1231.25,618.485 1232.54,618.433 1233.83,618.382 1235.12,618.331 1236.41,618.28 1237.7,618.23 1239,618.18 1240.29,618.13 1241.58,618.081 1242.87,618.032 1244.16,617.984 1245.45,617.935 1246.74,617.888 1248.03,617.84 1249.33,617.793 1250.62,617.746 1251.91,617.699 1253.2,617.653 1254.49,617.607 1255.78,617.562 1257.07,617.516 1258.37,617.471 1259.66,617.427 1260.95,617.382 1262.24,617.338 1263.53,617.295 1264.82,617.251 1266.11,617.208 1267.41,617.165 1268.7,617.122 1269.99,617.08 1271.28,617.038 1272.57,616.996 1273.86,616.955 1275.15,616.913 1276.44,616.872 1277.74,616.832 1279.03,616.791 1280.32,616.751 1281.61,616.711 1282.9,616.672 1284.19,616.632 1285.48,616.593 1286.78,616.554 1288.07,616.515 1289.36,616.477 1290.65,616.439 1291.94,616.401 1293.23,616.363 1294.52,616.326 1295.81,616.289 1297.11,616.252 1298.4,616.215 1299.69,616.178 1300.98,616.142 1302.27,616.106 1303.56,616.07 1304.85,616.034 1306.15,615.999 1307.44,615.964 1308.73,615.929 1310.02,615.894 1311.31,615.859 1312.6,615.825 1313.89,615.791 1315.19,615.757 1316.48,615.723 1317.77,615.69 1319.06,615.656 1320.35,615.623 1321.64,615.59 1322.93,615.557 1324.22,615.525 1325.52,615.493 1326.81,615.46 1328.1,615.428 1329.39,615.397 1330.68,615.365 1331.97,615.334 1333.26,615.302 1334.56,615.271 1335.85,615.24 1337.14,615.21 1338.43,615.179 1339.72,615.149 1341.01,615.118 1342.3,615.088 1343.6,615.059 1344.89,615.029 1346.18,614.999 1347.47,614.97 1348.76,614.941 1350.05,614.912 1351.34,614.883 1352.63,614.854 1353.93,614.826 1355.22,614.797 1356.51,614.769 1357.8,614.741 1359.09,614.713 1360.38,614.686 1361.67,614.658 1362.97,614.631 1364.26,614.603 1365.55,614.576 1366.84,614.549 1368.13,614.522 1369.42,614.496 1370.71,614.469 1372,614.443 1373.3,614.416 1374.59,614.39 1375.88,614.364 1377.17,614.338 1378.46,614.313 1379.75,614.287 1381.04,614.262 1382.34,614.236 1383.63,614.211 1384.92,614.186 1386.21,614.161 1387.5,614.137 1388.79,614.112 1390.08,614.088 1391.38,614.063 1392.67,614.039 1393.96,614.015 1395.25,613.991 1396.54,613.967 1397.83,613.943 1399.12,613.92 1400.41,613.896 1401.71,613.873 1403,613.85 1404.29,613.827 1405.58,613.804 1406.87,613.781 1408.16,613.758 1409.45,613.736 1410.75,613.713 1412.04,613.691 1413.33,613.668 1414.62,613.646 1415.91,613.624 1417.2,613.602 1418.49,613.581 1419.79,613.559 1421.08,613.537 1422.37,613.516 1423.66,613.495 1424.95,613.473 1426.24,613.452 1427.53,613.431 1428.82,613.41 1430.12,613.389 1431.41,613.369 1432.7,613.348 1433.99,613.328 1435.28,613.307 1436.57,613.287 1437.86,613.267 1439.16,613.247 1440.45,613.227 1441.74,613.207 1443.03,613.188 1444.32,613.168 1445.61,613.149 1446.9,613.129 1448.19,613.11 1449.49,613.091 1450.78,613.072 1452.07,613.053 1453.36,613.034 1454.65,613.015 1455.94,612.996 1457.23,612.978 1458.53,612.96 1459.82,612.941 1461.11,612.923 1462.4,612.905 1463.69,612.887 1464.98,612.869 1466.27,612.851 1467.57,612.834 1468.86,612.816 1470.15,612.799 1471.44,612.781 1472.73,612.764 1474.02,612.747 1475.31,612.73 1476.6,612.713 1477.9,612.697 1479.19,612.68 1480.48,612.664 1481.77,612.648 1483.06,612.631 1484.35,612.616 1485.64,612.6 1486.94,612.584 1488.23,612.569 1489.52,612.553 1490.81,612.538 1492.1,612.523 1493.39,612.509 1494.68,612.494 1495.98,612.48 1497.27,612.466 1498.56,612.453 1499.85,612.44 1501.14,612.427 1502.43,612.415 1503.72,612.404 1505.01,612.394 1506.31,612.385 1507.6,612.377 1508.89,612.373 1510.18,612.373 1511.47,612.386 1512.76,612.339 1514.05,612.352 "/>
<path clip-path="url(#clip810)" d="M1170.64 282.85 L1507.17 282.85 L1507.17 75.4896 L1170.64 75.4896  Z" fill="#ffffff" fill-rule="evenodd" fill-opacity="1"/>
<polyline clip-path="url(#clip810)" style="stroke:#000000; stroke-linecap:round; stroke-linejoin:round; stroke-width:4; stroke-opacity:1; fill:none" points="1170.64,282.85 1507.17,282.85 1507.17,75.4896 1170.64,75.4896 1170.64,282.85 "/>
<polyline clip-path="url(#clip810)" style="stroke:#009af9; stroke-linecap:round; stroke-linejoin:round; stroke-width:4; stroke-opacity:1; fill:none" points="1185.83,127.33 1276.99,127.33 "/>
<path clip-path="url(#clip810)" d="M1298.25 130.628 Q1295.66 130.073 1294.27 128.568 Q1292.88 127.086 1292.88 124.934 Q1292.88 121.67 1295.52 119.841 Q1298.14 118.036 1302.68 118.036 Q1304.43 118.036 1306.4 118.313 Q1308.37 118.591 1310.64 119.147 L1310.64 123.012 Q1308.39 122.341 1306.54 122.04 Q1304.67 121.739 1303.02 121.739 Q1300.27 121.739 1298.67 122.804 Q1297.05 123.869 1297.05 125.35 Q1297.05 126.971 1298.62 128.012 Q1300.18 129.031 1302.86 129.031 L1306.45 129.031 L1306.45 132.549 L1303.02 132.549 Q1299.85 132.549 1298.18 133.73 Q1296.38 135.026 1296.38 137.063 Q1296.38 139.147 1298.32 140.443 Q1300.29 141.739 1303.79 141.739 Q1305.94 141.739 1307.91 141.323 Q1309.87 140.883 1311.52 140.026 L1311.52 143.985 Q1309.43 144.633 1307.49 144.957 Q1305.52 145.281 1303.67 145.281 Q1298.16 145.281 1295.18 143.174 Q1292.19 141.068 1292.19 137.063 Q1292.19 134.563 1293.79 132.874 Q1295.38 131.184 1298.25 130.628 Z" fill="#000000" fill-rule="nonzero" fill-opacity="1" /><path clip-path="url(#clip810)" d="M1320.94 141.971 L1330.75 141.971 L1330.75 144.61 L1316.91 144.61 L1316.91 142.063 Q1317.7 141.346 1319.16 140.049 Q1327.12 132.989 1327.12 130.813 Q1327.12 129.286 1325.92 128.36 Q1324.71 127.411 1322.74 127.411 Q1321.54 127.411 1320.13 127.827 Q1318.72 128.221 1317.05 129.031 L1317.05 126.184 Q1318.83 125.536 1320.36 125.212 Q1321.91 124.887 1323.23 124.887 Q1326.59 124.887 1328.6 126.415 Q1330.61 127.943 1330.61 130.443 Q1330.61 133.661 1322.95 140.235 Q1321.66 141.346 1320.94 141.971 Z" fill="#000000" fill-rule="nonzero" fill-opacity="1" /><polyline clip-path="url(#clip810)" style="stroke:#e26f46; stroke-linecap:round; stroke-linejoin:round; stroke-width:4; stroke-opacity:1; fill:none" points="1185.83,179.17 1276.99,179.17 "/>
<path clip-path="url(#clip810)" d="M1298.25 182.468 Q1295.66 181.913 1294.27 180.408 Q1292.88 178.926 1292.88 176.774 Q1292.88 173.51 1295.52 171.681 Q1298.14 169.876 1302.68 169.876 Q1304.43 169.876 1306.4 170.153 Q1308.37 170.431 1310.64 170.987 L1310.64 174.852 Q1308.39 174.181 1306.54 173.88 Q1304.67 173.579 1303.02 173.579 Q1300.27 173.579 1298.67 174.644 Q1297.05 175.709 1297.05 177.19 Q1297.05 178.811 1298.62 179.852 Q1300.18 180.871 1302.86 180.871 L1306.45 180.871 L1306.45 184.389 L1303.02 184.389 Q1299.85 184.389 1298.18 185.57 Q1296.38 186.866 1296.38 188.903 Q1296.38 190.987 1298.32 192.283 Q1300.29 193.579 1303.79 193.579 Q1305.94 193.579 1307.91 193.163 Q1309.87 192.723 1311.52 191.866 L1311.52 195.825 Q1309.43 196.473 1307.49 196.797 Q1305.52 197.121 1303.67 197.121 Q1298.16 197.121 1295.18 195.014 Q1292.19 192.908 1292.19 188.903 Q1292.19 186.403 1293.79 184.714 Q1295.38 183.024 1298.25 182.468 Z" fill="#000000" fill-rule="nonzero" fill-opacity="1" /><path clip-path="url(#clip810)" d="M1320.94 193.811 L1330.75 193.811 L1330.75 196.45 L1316.91 196.45 L1316.91 193.903 Q1317.7 193.186 1319.16 191.889 Q1327.12 184.829 1327.12 182.653 Q1327.12 181.126 1325.92 180.2 Q1324.71 179.251 1322.74 179.251 Q1321.54 179.251 1320.13 179.667 Q1318.72 180.061 1317.05 180.871 L1317.05 178.024 Q1318.83 177.376 1320.36 177.052 Q1321.91 176.727 1323.23 176.727 Q1326.59 176.727 1328.6 178.255 Q1330.61 179.783 1330.61 182.283 Q1330.61 185.501 1322.95 192.075 Q1321.66 193.186 1320.94 193.811 Z" fill="#000000" fill-rule="nonzero" fill-opacity="1" /><path clip-path="url(#clip810)" d="M1373.46 175.501 Q1375.06 172.63 1377.28 171.265 Q1379.5 169.899 1382.51 169.899 Q1386.56 169.899 1388.76 172.746 Q1390.96 175.57 1390.96 180.801 L1390.96 196.45 L1386.68 196.45 L1386.68 180.94 Q1386.68 177.214 1385.36 175.408 Q1384.04 173.602 1381.33 173.602 Q1378.02 173.602 1376.1 175.802 Q1374.18 178.001 1374.18 181.797 L1374.18 196.45 L1369.9 196.45 L1369.9 180.94 Q1369.9 177.19 1368.58 175.408 Q1367.26 173.602 1364.5 173.602 Q1361.24 173.602 1359.32 175.825 Q1357.4 178.024 1357.4 181.797 L1357.4 196.45 L1353.11 196.45 L1353.11 170.524 L1357.4 170.524 L1357.4 174.552 Q1358.86 172.167 1360.89 171.033 Q1362.93 169.899 1365.73 169.899 Q1368.55 169.899 1370.52 171.334 Q1372.51 172.769 1373.46 175.501 Z" fill="#000000" fill-rule="nonzero" fill-opacity="1" /><path clip-path="url(#clip810)" d="M1409.5 173.51 Q1406.08 173.51 1404.09 176.195 Q1402.1 178.857 1402.1 183.51 Q1402.1 188.163 1404.06 190.848 Q1406.05 193.51 1409.5 193.51 Q1412.91 193.51 1414.9 190.825 Q1416.89 188.139 1416.89 183.51 Q1416.89 178.903 1414.9 176.218 Q1412.91 173.51 1409.5 173.51 M1409.5 169.899 Q1415.06 169.899 1418.23 173.51 Q1421.4 177.121 1421.4 183.51 Q1421.4 189.876 1418.23 193.51 Q1415.06 197.121 1409.5 197.121 Q1403.92 197.121 1400.75 193.51 Q1397.61 189.876 1397.61 183.51 Q1397.61 177.121 1400.75 173.51 Q1403.92 169.899 1409.5 169.899 Z" fill="#000000" fill-rule="nonzero" fill-opacity="1" /><path clip-path="url(#clip810)" d="M1445.52 174.459 L1445.52 160.431 L1449.78 160.431 L1449.78 196.45 L1445.52 196.45 L1445.52 192.561 Q1444.18 194.875 1442.12 196.01 Q1440.08 197.121 1437.21 197.121 Q1432.51 197.121 1429.55 193.371 Q1426.61 189.621 1426.61 183.51 Q1426.61 177.399 1429.55 173.649 Q1432.51 169.899 1437.21 169.899 Q1440.08 169.899 1442.12 171.033 Q1444.18 172.144 1445.52 174.459 M1431.01 183.51 Q1431.01 188.209 1432.93 190.894 Q1434.87 193.556 1438.25 193.556 Q1441.63 193.556 1443.58 190.894 Q1445.52 188.209 1445.52 183.51 Q1445.52 178.811 1443.58 176.149 Q1441.63 173.464 1438.25 173.464 Q1434.87 173.464 1432.93 176.149 Q1431.01 178.811 1431.01 183.51 Z" fill="#000000" fill-rule="nonzero" fill-opacity="1" /><path clip-path="url(#clip810)" d="M1480.73 182.422 L1480.73 184.505 L1461.15 184.505 Q1461.42 188.903 1463.79 191.218 Q1466.17 193.51 1470.41 193.51 Q1472.86 193.51 1475.15 192.908 Q1477.47 192.306 1479.73 191.102 L1479.73 195.13 Q1477.44 196.102 1475.04 196.612 Q1472.63 197.121 1470.15 197.121 Q1463.95 197.121 1460.31 193.51 Q1456.7 189.899 1456.7 183.741 Q1456.7 177.376 1460.13 173.649 Q1463.58 169.899 1469.41 169.899 Q1474.64 169.899 1477.67 173.278 Q1480.73 176.635 1480.73 182.422 M1476.47 181.172 Q1476.42 177.677 1474.5 175.593 Q1472.6 173.51 1469.46 173.51 Q1465.89 173.51 1463.74 175.524 Q1461.61 177.538 1461.29 181.195 L1476.47 181.172 Z" fill="#000000" fill-rule="nonzero" fill-opacity="1" /><path clip-path="url(#clip810)" d="M1487.72 160.431 L1491.98 160.431 L1491.98 196.45 L1487.72 196.45 L1487.72 160.431 Z" fill="#000000" fill-rule="nonzero" fill-opacity="1" /><polyline clip-path="url(#clip810)" style="stroke:#3da44d; stroke-linecap:round; stroke-linejoin:round; stroke-width:4; stroke-opacity:1; fill:none" points="1185.83,231.01 1276.99,231.01 "/>
<path clip-path="url(#clip810)" d="M1298.25 234.308 Q1295.66 233.753 1294.27 232.248 Q1292.88 230.766 1292.88 228.614 Q1292.88 225.35 1295.52 223.521 Q1298.14 221.716 1302.68 221.716 Q1304.43 221.716 1306.4 221.993 Q1308.37 222.271 1310.64 222.827 L1310.64 226.692 Q1308.39 226.021 1306.54 225.72 Q1304.67 225.419 1303.02 225.419 Q1300.27 225.419 1298.67 226.484 Q1297.05 227.549 1297.05 229.03 Q1297.05 230.651 1298.62 231.692 Q1300.18 232.711 1302.86 232.711 L1306.45 232.711 L1306.45 236.229 L1303.02 236.229 Q1299.85 236.229 1298.18 237.41 Q1296.38 238.706 1296.38 240.743 Q1296.38 242.827 1298.32 244.123 Q1300.29 245.419 1303.79 245.419 Q1305.94 245.419 1307.91 245.003 Q1309.87 244.563 1311.52 243.706 L1311.52 247.665 Q1309.43 248.313 1307.49 248.637 Q1305.52 248.961 1303.67 248.961 Q1298.16 248.961 1295.18 246.854 Q1292.19 244.748 1292.19 240.743 Q1292.19 238.243 1293.79 236.554 Q1295.38 234.864 1298.25 234.308 Z" fill="#000000" fill-rule="nonzero" fill-opacity="1" /><path clip-path="url(#clip810)" d="M1318.35 245.743 L1323.07 245.743 L1323.07 231.6 L1317.91 232.549 L1317.91 229.864 L1323.23 228.961 L1326.4 228.961 L1326.4 245.743 L1331.15 245.743 L1331.15 248.29 L1318.35 248.29 L1318.35 245.743 Z" fill="#000000" fill-rule="nonzero" fill-opacity="1" /><path clip-path="url(#clip810)" d="M1373.46 227.341 Q1375.06 224.47 1377.28 223.105 Q1379.5 221.739 1382.51 221.739 Q1386.56 221.739 1388.76 224.586 Q1390.96 227.41 1390.96 232.641 L1390.96 248.29 L1386.68 248.29 L1386.68 232.78 Q1386.68 229.054 1385.36 227.248 Q1384.04 225.442 1381.33 225.442 Q1378.02 225.442 1376.1 227.642 Q1374.18 229.841 1374.18 233.637 L1374.18 248.29 L1369.9 248.29 L1369.9 232.78 Q1369.9 229.03 1368.58 227.248 Q1367.26 225.442 1364.5 225.442 Q1361.24 225.442 1359.32 227.665 Q1357.4 229.864 1357.4 233.637 L1357.4 248.29 L1353.11 248.29 L1353.11 222.364 L1357.4 222.364 L1357.4 226.392 Q1358.86 224.007 1360.89 222.873 Q1362.93 221.739 1365.73 221.739 Q1368.55 221.739 1370.52 223.174 Q1372.51 224.609 1373.46 227.341 Z" fill="#000000" fill-rule="nonzero" fill-opacity="1" /><path clip-path="url(#clip810)" d="M1409.5 225.35 Q1406.08 225.35 1404.09 228.035 Q1402.1 230.697 1402.1 235.35 Q1402.1 240.003 1404.06 242.688 Q1406.05 245.35 1409.5 245.35 Q1412.91 245.35 1414.9 242.665 Q1416.89 239.979 1416.89 235.35 Q1416.89 230.743 1414.9 228.058 Q1412.91 225.35 1409.5 225.35 M1409.5 221.739 Q1415.06 221.739 1418.23 225.35 Q1421.4 228.961 1421.4 235.35 Q1421.4 241.716 1418.23 245.35 Q1415.06 248.961 1409.5 248.961 Q1403.92 248.961 1400.75 245.35 Q1397.61 241.716 1397.61 235.35 Q1397.61 228.961 1400.75 225.35 Q1403.92 221.739 1409.5 221.739 Z" fill="#000000" fill-rule="nonzero" fill-opacity="1" /><path clip-path="url(#clip810)" d="M1445.52 226.299 L1445.52 212.271 L1449.78 212.271 L1449.78 248.29 L1445.52 248.29 L1445.52 244.401 Q1444.18 246.715 1442.12 247.85 Q1440.08 248.961 1437.21 248.961 Q1432.51 248.961 1429.55 245.211 Q1426.61 241.461 1426.61 235.35 Q1426.61 229.239 1429.55 225.489 Q1432.51 221.739 1437.21 221.739 Q1440.08 221.739 1442.12 222.873 Q1444.18 223.984 1445.52 226.299 M1431.01 235.35 Q1431.01 240.049 1432.93 242.734 Q1434.87 245.396 1438.25 245.396 Q1441.63 245.396 1443.58 242.734 Q1445.52 240.049 1445.52 235.35 Q1445.52 230.651 1443.58 227.989 Q1441.63 225.304 1438.25 225.304 Q1434.87 225.304 1432.93 227.989 Q1431.01 230.651 1431.01 235.35 Z" fill="#000000" fill-rule="nonzero" fill-opacity="1" /><path clip-path="url(#clip810)" d="M1480.73 234.262 L1480.73 236.345 L1461.15 236.345 Q1461.42 240.743 1463.79 243.058 Q1466.17 245.35 1470.41 245.35 Q1472.86 245.35 1475.15 244.748 Q1477.47 244.146 1479.73 242.942 L1479.73 246.97 Q1477.44 247.942 1475.04 248.452 Q1472.63 248.961 1470.15 248.961 Q1463.95 248.961 1460.31 245.35 Q1456.7 241.739 1456.7 235.581 Q1456.7 229.216 1460.13 225.489 Q1463.58 221.739 1469.41 221.739 Q1474.64 221.739 1477.67 225.118 Q1480.73 228.475 1480.73 234.262 M1476.47 233.012 Q1476.42 229.517 1474.5 227.433 Q1472.6 225.35 1469.46 225.35 Q1465.89 225.35 1463.74 227.364 Q1461.61 229.378 1461.29 233.035 L1476.47 233.012 Z" fill="#000000" fill-rule="nonzero" fill-opacity="1" /><path clip-path="url(#clip810)" d="M1487.72 212.271 L1491.98 212.271 L1491.98 248.29 L1487.72 248.29 L1487.72 212.271 Z" fill="#000000" fill-rule="nonzero" fill-opacity="1" /></svg>
