<?xml version="1.0" encoding="utf-8"?>
<svg xmlns="http://www.w3.org/2000/svg" xmlns:xlink="http://www.w3.org/1999/xlink" width="400" height="250" viewBox="0 0 1600 1000">
<defs>
  <clipPath id="clip700">
    <rect x="0" y="0" width="1600" height="1000"/>
  </clipPath>
</defs>
<path clip-path="url(#clip700)" d="M0 1000 L1600 1000 L1600 0 L0 0  Z" fill="#ffffff" fill-rule="evenodd" fill-opacity="1"/>
<defs>
  <clipPath id="clip701">
    <rect x="320" y="0" width="1121" height="1000"/>
  </clipPath>
</defs>
<path clip-path="url(#clip700)" d="M185.288 894.608 L1552.76 894.608 L1552.76 47.2441 L185.288 47.2441  Z" fill="#ffffff" fill-rule="evenodd" fill-opacity="1"/>
<defs>
  <clipPath id="clip702">
    <rect x="185" y="47" width="1368" height="848"/>
  </clipPath>
</defs>
<polyline clip-path="url(#clip702)" style="stroke:#000000; stroke-linecap:round; stroke-linejoin:round; stroke-width:2; stroke-opacity:0.1; fill:none" points="223.99,894.608 223.99,47.2441 "/>
<polyline clip-path="url(#clip702)" style="stroke:#000000; stroke-linecap:round; stroke-linejoin:round; stroke-width:2; stroke-opacity:0.1; fill:none" points="546.506,894.608 546.506,47.2441 "/>
<polyline clip-path="url(#clip702)" style="stroke:#000000; stroke-linecap:round; stroke-linejoin:round; stroke-width:2; stroke-opacity:0.1; fill:none" points="869.022,894.608 869.022,47.2441 "/>
<polyline clip-path="url(#clip702)" style="stroke:#000000; stroke-linecap:round; stroke-linejoin:round; stroke-width:2; stroke-opacity:0.1; fill:none" points="1191.54,894.608 1191.54,47.2441 "/>
<polyline clip-path="url(#clip702)" style="stroke:#000000; stroke-linecap:round; stroke-linejoin:round; stroke-width:2; stroke-opacity:0.1; fill:none" points="1514.05,894.608 1514.05,47.2441 "/>
<polyline clip-path="url(#clip702)" style="stroke:#000000; stroke-linecap:round; stroke-linejoin:round; stroke-width:2; stroke-opacity:0.1; fill:none" points="185.288,766.524 1552.76,766.524 "/>
<polyline clip-path="url(#clip702)" style="stroke:#000000; stroke-linecap:round; stroke-linejoin:round; stroke-width:2; stroke-opacity:0.1; fill:none" points="185.288,605.873 1552.76,605.873 "/>
<polyline clip-path="url(#clip702)" style="stroke:#000000; stroke-linecap:round; stroke-linejoin:round; stroke-width:2; stroke-opacity:0.1; fill:none" points="185.288,445.222 1552.76,445.222 "/>
<polyline clip-path="url(#clip702)" style="stroke:#000000; stroke-linecap:round; stroke-linejoin:round; stroke-width:2; stroke-opacity:0.1; fill:none" points="185.288,284.571 1552.76,284.571 "/>
<polyline clip-path="url(#clip702)" style="stroke:#000000; stroke-linecap:round; stroke-linejoin:round; stroke-width:2; stroke-opacity:0.1; fill:none" points="185.288,123.919 1552.76,123.919 "/>
<polyline clip-path="url(#clip700)" style="stroke:#000000; stroke-linecap:round; stroke-linejoin:round; stroke-width:4; stroke-opacity:1; fill:none" points="185.288,894.608 1552.76,894.608 "/>
<polyline clip-path="url(#clip700)" style="stroke:#000000; stroke-linecap:round; stroke-linejoin:round; stroke-width:4; stroke-opacity:1; fill:none" points="223.99,894.608 223.99,875.71 "/>
<polyline clip-path="url(#clip700)" style="stroke:#000000; stroke-linecap:round; stroke-linejoin:round; stroke-width:4; stroke-opacity:1; fill:none" points="546.506,894.608 546.506,875.71 "/>
<polyline clip-path="url(#clip700)" style="stroke:#000000; stroke-linecap:round; stroke-linejoin:round; stroke-width:4; stroke-opacity:1; fill:none" points="869.022,894.608 869.022,875.71 "/>
<polyline clip-path="url(#clip700)" style="stroke:#000000; stroke-linecap:round; stroke-linejoin:round; stroke-width:4; stroke-opacity:1; fill:none" points="1191.54,894.608 1191.54,875.71 "/>
<polyline clip-path="url(#clip700)" style="stroke:#000000; stroke-linecap:round; stroke-linejoin:round; stroke-width:4; stroke-opacity:1; fill:none" points="1514.05,894.608 1514.05,875.71 "/>
<path clip-path="url(#clip700)" d="M194.314 931.464 Q191.166 931.464 189.314 933.617 Q187.485 935.77 187.485 939.52 Q187.485 943.247 189.314 945.423 Q191.166 947.575 194.314 947.575 Q197.462 947.575 199.291 945.423 Q201.143 943.247 201.143 939.52 Q201.143 935.77 199.291 933.617 Q197.462 931.464 194.314 931.464 M203.596 916.812 L203.596 921.071 Q201.837 920.238 200.032 919.798 Q198.249 919.358 196.49 919.358 Q191.86 919.358 189.407 922.483 Q186.976 925.608 186.629 931.927 Q187.995 929.914 190.055 928.849 Q192.115 927.761 194.592 927.761 Q199.8 927.761 202.809 930.932 Q205.842 934.08 205.842 939.52 Q205.842 944.844 202.694 948.062 Q199.545 951.279 194.314 951.279 Q188.319 951.279 185.147 946.696 Q181.976 942.089 181.976 933.363 Q181.976 925.168 185.865 920.307 Q189.754 915.423 196.305 915.423 Q198.064 915.423 199.846 915.77 Q201.652 916.117 203.596 916.812 Z" fill="#000000" fill-rule="nonzero" fill-opacity="1" /><path clip-path="url(#clip700)" d="M223.897 919.127 Q220.286 919.127 218.457 922.691 Q216.652 926.233 216.652 933.363 Q216.652 940.469 218.457 944.034 Q220.286 947.575 223.897 947.575 Q227.531 947.575 229.337 944.034 Q231.166 940.469 231.166 933.363 Q231.166 926.233 229.337 922.691 Q227.531 919.127 223.897 919.127 M223.897 915.423 Q229.707 915.423 232.763 920.029 Q235.842 924.613 235.842 933.363 Q235.842 942.089 232.763 946.696 Q229.707 951.279 223.897 951.279 Q218.087 951.279 215.008 946.696 Q211.953 942.089 211.953 933.363 Q211.953 924.613 215.008 920.029 Q218.087 915.423 223.897 915.423 Z" fill="#000000" fill-rule="nonzero" fill-opacity="1" /><path clip-path="url(#clip700)" d="M254.059 919.127 Q250.448 919.127 248.619 922.691 Q246.814 926.233 246.814 933.363 Q246.814 940.469 248.619 944.034 Q250.448 947.575 254.059 947.575 Q257.693 947.575 259.499 944.034 Q261.328 940.469 261.328 933.363 Q261.328 926.233 259.499 922.691 Q257.693 919.127 254.059 919.127 M254.059 915.423 Q259.869 915.423 262.925 920.029 Q266.003 924.613 266.003 933.363 Q266.003 942.089 262.925 946.696 Q259.869 951.279 254.059 951.279 Q248.249 951.279 245.17 946.696 Q242.115 942.089 242.115 933.363 Q242.115 924.613 245.17 920.029 Q248.249 915.423 254.059 915.423 Z" fill="#000000" fill-rule="nonzero" fill-opacity="1" /><path clip-path="url(#clip700)" d="M516.298 934.196 Q512.964 934.196 511.043 935.978 Q509.145 937.761 509.145 940.886 Q509.145 944.011 511.043 945.793 Q512.964 947.575 516.298 947.575 Q519.631 947.575 521.552 945.793 Q523.474 943.988 523.474 940.886 Q523.474 937.761 521.552 935.978 Q519.654 934.196 516.298 934.196 M511.622 932.205 Q508.613 931.464 506.923 929.404 Q505.256 927.344 505.256 924.381 Q505.256 920.238 508.196 917.83 Q511.159 915.423 516.298 915.423 Q521.46 915.423 524.399 917.83 Q527.339 920.238 527.339 924.381 Q527.339 927.344 525.649 929.404 Q523.983 931.464 520.997 932.205 Q524.376 932.992 526.251 935.284 Q528.149 937.576 528.149 940.886 Q528.149 945.909 525.071 948.594 Q522.015 951.279 516.298 951.279 Q510.58 951.279 507.501 948.594 Q504.446 945.909 504.446 940.886 Q504.446 937.576 506.344 935.284 Q508.242 932.992 511.622 932.205 M509.909 924.821 Q509.909 927.506 511.575 929.011 Q513.265 930.515 516.298 930.515 Q519.307 930.515 520.997 929.011 Q522.71 927.506 522.71 924.821 Q522.71 922.136 520.997 920.631 Q519.307 919.127 516.298 919.127 Q513.265 919.127 511.575 920.631 Q509.909 922.136 509.909 924.821 Z" fill="#000000" fill-rule="nonzero" fill-opacity="1" /><path clip-path="url(#clip700)" d="M546.46 919.127 Q542.848 919.127 541.02 922.691 Q539.214 926.233 539.214 933.363 Q539.214 940.469 541.02 944.034 Q542.848 947.575 546.46 947.575 Q550.094 947.575 551.899 944.034 Q553.728 940.469 553.728 933.363 Q553.728 926.233 551.899 922.691 Q550.094 919.127 546.46 919.127 M546.46 915.423 Q552.27 915.423 555.325 920.029 Q558.404 924.613 558.404 933.363 Q558.404 942.089 555.325 946.696 Q552.27 951.279 546.46 951.279 Q540.649 951.279 537.571 946.696 Q534.515 942.089 534.515 933.363 Q534.515 924.613 537.571 920.029 Q540.649 915.423 546.46 915.423 Z" fill="#000000" fill-rule="nonzero" fill-opacity="1" /><path clip-path="url(#clip700)" d="M576.621 919.127 Q573.01 919.127 571.182 922.691 Q569.376 926.233 569.376 933.363 Q569.376 940.469 571.182 944.034 Q573.01 947.575 576.621 947.575 Q580.256 947.575 582.061 944.034 Q583.89 940.469 583.89 933.363 Q583.89 926.233 582.061 922.691 Q580.256 919.127 576.621 919.127 M576.621 915.423 Q582.432 915.423 585.487 920.029 Q588.566 924.613 588.566 933.363 Q588.566 942.089 585.487 946.696 Q582.432 951.279 576.621 951.279 Q570.811 951.279 567.733 946.696 Q564.677 942.089 564.677 933.363 Q564.677 924.613 567.733 920.029 Q570.811 915.423 576.621 915.423 Z" fill="#000000" fill-rule="nonzero" fill-opacity="1" /><path clip-path="url(#clip700)" d="M813.548 946.673 L821.186 946.673 L821.186 920.307 L812.876 921.974 L812.876 917.715 L821.14 916.048 L825.816 916.048 L825.816 946.673 L833.455 946.673 L833.455 950.608 L813.548 950.608 L813.548 946.673 Z" fill="#000000" fill-rule="nonzero" fill-opacity="1" /><path clip-path="url(#clip700)" d="M852.899 919.127 Q849.288 919.127 847.459 922.691 Q845.654 926.233 845.654 933.363 Q845.654 940.469 847.459 944.034 Q849.288 947.575 852.899 947.575 Q856.534 947.575 858.339 944.034 Q860.168 940.469 860.168 933.363 Q860.168 926.233 858.339 922.691 Q856.534 919.127 852.899 919.127 M852.899 915.423 Q858.709 915.423 861.765 920.029 Q864.844 924.613 864.844 933.363 Q864.844 942.089 861.765 946.696 Q858.709 951.279 852.899 951.279 Q847.089 951.279 844.01 946.696 Q840.955 942.089 840.955 933.363 Q840.955 924.613 844.01 920.029 Q847.089 915.423 852.899 915.423 Z" fill="#000000" fill-rule="nonzero" fill-opacity="1" /><path clip-path="url(#clip700)" d="M883.061 919.127 Q879.45 919.127 877.621 922.691 Q875.816 926.233 875.816 933.363 Q875.816 940.469 877.621 944.034 Q879.45 947.575 883.061 947.575 Q886.695 947.575 888.501 944.034 Q890.33 940.469 890.33 933.363 Q890.33 926.233 888.501 922.691 Q886.695 919.127 883.061 919.127 M883.061 915.423 Q888.871 915.423 891.927 920.029 Q895.006 924.613 895.006 933.363 Q895.006 942.089 891.927 946.696 Q888.871 951.279 883.061 951.279 Q877.251 951.279 874.172 946.696 Q871.117 942.089 871.117 933.363 Q871.117 924.613 874.172 920.029 Q877.251 915.423 883.061 915.423 Z" fill="#000000" fill-rule="nonzero" fill-opacity="1" /><path clip-path="url(#clip700)" d="M913.223 919.127 Q909.612 919.127 907.783 922.691 Q905.978 926.233 905.978 933.363 Q905.978 940.469 907.783 944.034 Q909.612 947.575 913.223 947.575 Q916.857 947.575 918.663 944.034 Q920.492 940.469 920.492 933.363 Q920.492 926.233 918.663 922.691 Q916.857 919.127 913.223 919.127 M913.223 915.423 Q919.033 915.423 922.089 920.029 Q925.167 924.613 925.167 933.363 Q925.167 942.089 922.089 946.696 Q919.033 951.279 913.223 951.279 Q907.413 951.279 904.334 946.696 Q901.279 942.089 901.279 933.363 Q901.279 924.613 904.334 920.029 Q907.413 915.423 913.223 915.423 Z" fill="#000000" fill-rule="nonzero" fill-opacity="1" /><path clip-path="url(#clip700)" d="M1136.06 946.673 L1143.7 946.673 L1143.7 920.307 L1135.39 921.974 L1135.39 917.715 L1143.66 916.048 L1148.33 916.048 L1148.33 946.673 L1155.97 946.673 L1155.97 950.608 L1136.06 950.608 L1136.06 946.673 Z" fill="#000000" fill-rule="nonzero" fill-opacity="1" /><path clip-path="url(#clip700)" d="M1169.44 946.673 L1185.76 946.673 L1185.76 950.608 L1163.82 950.608 L1163.82 946.673 Q1166.48 943.918 1171.06 939.288 Q1175.67 934.636 1176.85 933.293 Q1179.1 930.77 1179.98 929.034 Q1180.88 927.275 1180.88 925.585 Q1180.88 922.83 1178.93 921.094 Q1177.01 919.358 1173.91 919.358 Q1171.71 919.358 1169.26 920.122 Q1166.83 920.886 1164.05 922.437 L1164.05 917.715 Q1166.87 916.58 1169.33 916.002 Q1171.78 915.423 1173.82 915.423 Q1179.19 915.423 1182.38 918.108 Q1185.58 920.793 1185.58 925.284 Q1185.58 927.414 1184.77 929.335 Q1183.98 931.233 1181.87 933.826 Q1181.29 934.497 1178.19 937.714 Q1175.09 940.909 1169.44 946.673 Z" fill="#000000" fill-rule="nonzero" fill-opacity="1" /><path clip-path="url(#clip700)" d="M1205.58 919.127 Q1201.97 919.127 1200.14 922.691 Q1198.33 926.233 1198.33 933.363 Q1198.33 940.469 1200.14 944.034 Q1201.97 947.575 1205.58 947.575 Q1209.21 947.575 1211.02 944.034 Q1212.85 940.469 1212.85 933.363 Q1212.85 926.233 1211.02 922.691 Q1209.21 919.127 1205.58 919.127 M1205.58 915.423 Q1211.39 915.423 1214.44 920.029 Q1217.52 924.613 1217.52 933.363 Q1217.52 942.089 1214.44 946.696 Q1211.39 951.279 1205.58 951.279 Q1199.77 951.279 1196.69 946.696 Q1193.63 942.089 1193.63 933.363 Q1193.63 924.613 1196.69 920.029 Q1199.77 915.423 1205.58 915.423 Z" fill="#000000" fill-rule="nonzero" fill-opacity="1" /><path clip-path="url(#clip700)" d="M1235.74 919.127 Q1232.13 919.127 1230.3 922.691 Q1228.49 926.233 1228.49 933.363 Q1228.49 940.469 1230.3 944.034 Q1232.13 947.575 1235.74 947.575 Q1239.37 947.575 1241.18 944.034 Q1243.01 940.469 1243.01 933.363 Q1243.01 926.233 1241.18 922.691 Q1239.37 919.127 1235.74 919.127 M1235.74 915.423 Q1241.55 915.423 1244.6 920.029 Q1247.68 924.613 1247.68 933.363 Q1247.68 942.089 1244.6 946.696 Q1241.55 951.279 1235.74 951.279 Q1229.93 951.279 1226.85 946.696 Q1223.79 942.089 1223.79 933.363 Q1223.79 924.613 1226.85 920.029 Q1229.93 915.423 1235.74 915.423 Z" fill="#000000" fill-rule="nonzero" fill-opacity="1" /><path clip-path="url(#clip700)" d="M1458.58 946.673 L1466.22 946.673 L1466.22 920.307 L1457.91 921.974 L1457.91 917.715 L1466.17 916.048 L1470.85 916.048 L1470.85 946.673 L1478.49 946.673 L1478.49 950.608 L1458.58 950.608 L1458.58 946.673 Z" fill="#000000" fill-rule="nonzero" fill-opacity="1" /><path clip-path="url(#clip700)" d="M1500.78 920.122 L1488.97 938.571 L1500.78 938.571 L1500.78 920.122 M1499.55 916.048 L1505.43 916.048 L1505.43 938.571 L1510.36 938.571 L1510.36 942.46 L1505.43 942.46 L1505.43 950.608 L1500.78 950.608 L1500.78 942.46 L1485.18 942.46 L1485.18 937.946 L1499.55 916.048 Z" fill="#000000" fill-rule="nonzero" fill-opacity="1" /><path clip-path="url(#clip700)" d="M1528.09 919.127 Q1524.48 919.127 1522.65 922.691 Q1520.85 926.233 1520.85 933.363 Q1520.85 940.469 1522.65 944.034 Q1524.48 947.575 1528.09 947.575 Q1531.73 947.575 1533.53 944.034 Q1535.36 940.469 1535.36 933.363 Q1535.36 926.233 1533.53 922.691 Q1531.73 919.127 1528.09 919.127 M1528.09 915.423 Q1533.9 915.423 1536.96 920.029 Q1540.04 924.613 1540.04 933.363 Q1540.04 942.089 1536.96 946.696 Q1533.9 951.279 1528.09 951.279 Q1522.28 951.279 1519.2 946.696 Q1516.15 942.089 1516.15 933.363 Q1516.15 924.613 1519.2 920.029 Q1522.28 915.423 1528.09 915.423 Z" fill="#000000" fill-rule="nonzero" fill-opacity="1" /><path clip-path="url(#clip700)" d="M1558.26 919.127 Q1554.64 919.127 1552.82 922.691 Q1551.01 926.233 1551.01 933.363 Q1551.01 940.469 1552.82 944.034 Q1554.64 947.575 1558.26 947.575 Q1561.89 947.575 1563.69 944.034 Q1565.52 940.469 1565.52 933.363 Q1565.52 926.233 1563.69 922.691 Q1561.89 919.127 1558.26 919.127 M1558.26 915.423 Q1564.07 915.423 1567.12 920.029 Q1570.2 924.613 1570.2 933.363 Q1570.2 942.089 1567.12 946.696 Q1564.07 951.279 1558.26 951.279 Q1552.44 951.279 1549.37 946.696 Q1546.31 942.089 1546.31 933.363 Q1546.31 924.613 1549.37 920.029 Q1552.44 915.423 1558.26 915.423 Z" fill="#000000" fill-rule="nonzero" fill-opacity="1" /><polyline clip-path="url(#clip700)" style="stroke:#000000; stroke-linecap:round; stroke-linejoin:round; stroke-width:4; stroke-opacity:1; fill:none" points="185.288,894.608 185.288,47.2441 "/>
<polyline clip-path="url(#clip700)" style="stroke:#000000; stroke-linecap:round; stroke-linejoin:round; stroke-width:4; stroke-opacity:1; fill:none" points="185.288,766.524 204.185,766.524 "/>
<polyline clip-path="url(#clip700)" style="stroke:#000000; stroke-linecap:round; stroke-linejoin:round; stroke-width:4; stroke-opacity:1; fill:none" points="185.288,605.873 204.185,605.873 "/>
<polyline clip-path="url(#clip700)" style="stroke:#000000; stroke-linecap:round; stroke-linejoin:round; stroke-width:4; stroke-opacity:1; fill:none" points="185.288,445.222 204.185,445.222 "/>
<polyline clip-path="url(#clip700)" style="stroke:#000000; stroke-linecap:round; stroke-linejoin:round; stroke-width:4; stroke-opacity:1; fill:none" points="185.288,284.571 204.185,284.571 "/>
<polyline clip-path="url(#clip700)" style="stroke:#000000; stroke-linecap:round; stroke-linejoin:round; stroke-width:4; stroke-opacity:1; fill:none" points="185.288,123.919 204.185,123.919 "/>
<path clip-path="url(#clip700)" d="M54.9921 766.976 L84.6679 766.976 L84.6679 770.911 L54.9921 770.911 L54.9921 766.976 Z" fill="#000000" fill-rule="nonzero" fill-opacity="1" /><path clip-path="url(#clip700)" d="M104.76 752.323 Q101.149 752.323 99.3206 755.888 Q97.515 759.429 97.515 766.559 Q97.515 773.665 99.3206 777.23 Q101.149 780.772 104.76 780.772 Q108.395 780.772 110.2 777.23 Q112.029 773.665 112.029 766.559 Q112.029 759.429 110.2 755.888 Q108.395 752.323 104.76 752.323 M104.76 748.619 Q110.571 748.619 113.626 753.226 Q116.705 757.809 116.705 766.559 Q116.705 775.286 113.626 779.892 Q110.571 784.476 104.76 784.476 Q98.9502 784.476 95.8715 779.892 Q92.816 775.286 92.816 766.559 Q92.816 757.809 95.8715 753.226 Q98.9502 748.619 104.76 748.619 Z" fill="#000000" fill-rule="nonzero" fill-opacity="1" /><path clip-path="url(#clip700)" d="M124.922 777.925 L129.807 777.925 L129.807 783.804 L124.922 783.804 L124.922 777.925 Z" fill="#000000" fill-rule="nonzero" fill-opacity="1" /><path clip-path="url(#clip700)" d="M154.158 765.17 Q157.515 765.888 159.39 768.156 Q161.288 770.425 161.288 773.758 Q161.288 778.874 157.769 781.675 Q154.251 784.476 147.769 784.476 Q145.593 784.476 143.279 784.036 Q140.987 783.619 138.533 782.763 L138.533 778.249 Q140.478 779.383 142.793 779.962 Q145.107 780.54 147.631 780.54 Q152.029 780.54 154.32 778.804 Q156.635 777.068 156.635 773.758 Q156.635 770.702 154.482 768.99 Q152.353 767.253 148.533 767.253 L144.506 767.253 L144.506 763.411 L148.718 763.411 Q152.168 763.411 153.996 762.045 Q155.825 760.656 155.825 758.064 Q155.825 755.402 153.927 753.99 Q152.052 752.554 148.533 752.554 Q146.612 752.554 144.413 752.971 Q142.214 753.388 139.575 754.267 L139.575 750.101 Q142.237 749.36 144.552 748.99 Q146.89 748.619 148.95 748.619 Q154.274 748.619 157.376 751.05 Q160.478 753.457 160.478 757.578 Q160.478 760.448 158.834 762.439 Q157.191 764.406 154.158 765.17 Z" fill="#000000" fill-rule="nonzero" fill-opacity="1" /><path clip-path="url(#clip700)" d="M104.112 591.672 Q100.501 591.672 98.6724 595.237 Q96.8669 598.778 96.8669 605.908 Q96.8669 613.014 98.6724 616.579 Q100.501 620.121 104.112 620.121 Q107.746 620.121 109.552 616.579 Q111.381 613.014 111.381 605.908 Q111.381 598.778 109.552 595.237 Q107.746 591.672 104.112 591.672 M104.112 587.968 Q109.922 587.968 112.978 592.574 Q116.057 597.158 116.057 605.908 Q116.057 614.635 112.978 619.241 Q109.922 623.824 104.112 623.824 Q98.3021 623.824 95.2234 619.241 Q92.1679 614.635 92.1679 605.908 Q92.1679 597.158 95.2234 592.574 Q98.3021 587.968 104.112 587.968 Z" fill="#000000" fill-rule="nonzero" fill-opacity="1" /><path clip-path="url(#clip700)" d="M124.274 617.273 L129.158 617.273 L129.158 623.153 L124.274 623.153 L124.274 617.273 Z" fill="#000000" fill-rule="nonzero" fill-opacity="1" /><path clip-path="url(#clip700)" d="M149.343 591.672 Q145.732 591.672 143.904 595.237 Q142.098 598.778 142.098 605.908 Q142.098 613.014 143.904 616.579 Q145.732 620.121 149.343 620.121 Q152.978 620.121 154.783 616.579 Q156.612 613.014 156.612 605.908 Q156.612 598.778 154.783 595.237 Q152.978 591.672 149.343 591.672 M149.343 587.968 Q155.154 587.968 158.209 592.574 Q161.288 597.158 161.288 605.908 Q161.288 614.635 158.209 619.241 Q155.154 623.824 149.343 623.824 Q143.533 623.824 140.455 619.241 Q137.399 614.635 137.399 605.908 Q137.399 597.158 140.455 592.574 Q143.533 587.968 149.343 587.968 Z" fill="#000000" fill-rule="nonzero" fill-opacity="1" /><path clip-path="url(#clip700)" d="M104.76 431.02 Q101.149 431.02 99.3206 434.585 Q97.515 438.127 97.515 445.257 Q97.515 452.363 99.3206 455.928 Q101.149 459.469 104.76 459.469 Q108.395 459.469 110.2 455.928 Q112.029 452.363 112.029 445.257 Q112.029 438.127 110.2 434.585 Q108.395 431.02 104.76 431.02 M104.76 427.317 Q110.571 427.317 113.626 431.923 Q116.705 436.507 116.705 445.257 Q116.705 453.983 113.626 458.59 Q110.571 463.173 104.76 463.173 Q98.9502 463.173 95.8715 458.59 Q92.816 453.983 92.816 445.257 Q92.816 436.507 95.8715 431.923 Q98.9502 427.317 104.76 427.317 Z" fill="#000000" fill-rule="nonzero" fill-opacity="1" /><path clip-path="url(#clip700)" d="M124.922 456.622 L129.807 456.622 L129.807 462.502 L124.922 462.502 L124.922 456.622 Z" fill="#000000" fill-rule="nonzero" fill-opacity="1" /><path clip-path="url(#clip700)" d="M154.158 443.868 Q157.515 444.585 159.39 446.854 Q161.288 449.122 161.288 452.456 Q161.288 457.571 157.769 460.372 Q154.251 463.173 147.769 463.173 Q145.593 463.173 143.279 462.733 Q140.987 462.317 138.533 461.46 L138.533 456.946 Q140.478 458.081 142.793 458.659 Q145.107 459.238 147.631 459.238 Q152.029 459.238 154.32 457.502 Q156.635 455.766 156.635 452.456 Q156.635 449.4 154.482 447.687 Q152.353 445.951 148.533 445.951 L144.506 445.951 L144.506 442.108 L148.718 442.108 Q152.168 442.108 153.996 440.743 Q155.825 439.354 155.825 436.761 Q155.825 434.099 153.927 432.687 Q152.052 431.252 148.533 431.252 Q146.612 431.252 144.413 431.669 Q142.214 432.085 139.575 432.965 L139.575 428.798 Q142.237 428.058 144.552 427.687 Q146.89 427.317 148.95 427.317 Q154.274 427.317 157.376 429.747 Q160.478 432.155 160.478 436.275 Q160.478 439.145 158.834 441.136 Q157.191 443.104 154.158 443.868 Z" fill="#000000" fill-rule="nonzero" fill-opacity="1" /><path clip-path="url(#clip700)" d="M103.95 270.369 Q100.339 270.369 98.5104 273.934 Q96.7049 277.476 96.7049 284.605 Q96.7049 291.712 98.5104 295.277 Q100.339 298.818 103.95 298.818 Q107.584 298.818 109.39 295.277 Q111.219 291.712 111.219 284.605 Q111.219 277.476 109.39 273.934 Q107.584 270.369 103.95 270.369 M103.95 266.666 Q109.76 266.666 112.816 271.272 Q115.895 275.855 115.895 284.605 Q115.895 293.332 112.816 297.939 Q109.76 302.522 103.95 302.522 Q98.14 302.522 95.0614 297.939 Q92.0058 293.332 92.0058 284.605 Q92.0058 275.855 95.0614 271.272 Q98.14 266.666 103.95 266.666 Z" fill="#000000" fill-rule="nonzero" fill-opacity="1" /><path clip-path="url(#clip700)" d="M124.112 295.971 L128.996 295.971 L128.996 301.851 L124.112 301.851 L124.112 295.971 Z" fill="#000000" fill-rule="nonzero" fill-opacity="1" /><path clip-path="url(#clip700)" d="M149.76 282.707 Q146.612 282.707 144.76 284.86 Q142.931 287.013 142.931 290.763 Q142.931 294.49 144.76 296.665 Q146.612 298.818 149.76 298.818 Q152.908 298.818 154.737 296.665 Q156.589 294.49 156.589 290.763 Q156.589 287.013 154.737 284.86 Q152.908 282.707 149.76 282.707 M159.042 268.054 L159.042 272.314 Q157.283 271.48 155.478 271.041 Q153.695 270.601 151.936 270.601 Q147.306 270.601 144.853 273.726 Q142.422 276.851 142.075 283.17 Q143.441 281.156 145.501 280.091 Q147.561 279.003 150.038 279.003 Q155.246 279.003 158.255 282.175 Q161.288 285.323 161.288 290.763 Q161.288 296.087 158.14 299.304 Q154.992 302.522 149.76 302.522 Q143.765 302.522 140.594 297.939 Q137.422 293.332 137.422 284.605 Q137.422 276.411 141.311 271.55 Q145.2 266.666 151.751 266.666 Q153.51 266.666 155.293 267.013 Q157.098 267.36 159.042 268.054 Z" fill="#000000" fill-rule="nonzero" fill-opacity="1" /><path clip-path="url(#clip700)" d="M104.297 109.718 Q100.686 109.718 98.8576 113.283 Q97.0521 116.824 97.0521 123.954 Q97.0521 131.061 98.8576 134.625 Q100.686 138.167 104.297 138.167 Q107.932 138.167 109.737 134.625 Q111.566 131.061 111.566 123.954 Q111.566 116.824 109.737 113.283 Q107.932 109.718 104.297 109.718 M104.297 106.014 Q110.108 106.014 113.163 110.621 Q116.242 115.204 116.242 123.954 Q116.242 132.681 113.163 137.287 Q110.108 141.871 104.297 141.871 Q98.4873 141.871 95.4086 137.287 Q92.353 132.681 92.353 123.954 Q92.353 115.204 95.4086 110.621 Q98.4873 106.014 104.297 106.014 Z" fill="#000000" fill-rule="nonzero" fill-opacity="1" /><path clip-path="url(#clip700)" d="M124.459 135.32 L129.344 135.32 L129.344 141.199 L124.459 141.199 L124.459 135.32 Z" fill="#000000" fill-rule="nonzero" fill-opacity="1" /><path clip-path="url(#clip700)" d="M139.668 140.482 L139.668 136.223 Q141.427 137.056 143.232 137.496 Q145.038 137.935 146.774 137.935 Q151.404 137.935 153.834 134.834 Q156.288 131.709 156.635 125.366 Q155.293 127.357 153.232 128.422 Q151.172 129.486 148.672 129.486 Q143.487 129.486 140.455 126.361 Q137.445 123.213 137.445 117.774 Q137.445 112.45 140.594 109.232 Q143.742 106.014 148.973 106.014 Q154.968 106.014 158.117 110.621 Q161.288 115.204 161.288 123.954 Q161.288 132.125 157.399 137.01 Q153.533 141.871 146.982 141.871 Q145.223 141.871 143.418 141.523 Q141.612 141.176 139.668 140.482 M148.973 125.829 Q152.121 125.829 153.95 123.676 Q155.802 121.524 155.802 117.774 Q155.802 114.047 153.95 111.894 Q152.121 109.718 148.973 109.718 Q145.825 109.718 143.973 111.894 Q142.144 114.047 142.144 117.774 Q142.144 121.524 143.973 123.676 Q145.825 125.829 148.973 125.829 Z" fill="#000000" fill-rule="nonzero" fill-opacity="1" /><polyline clip-path="url(#clip702)" style="stroke:#009af9; stroke-linecap:round; stroke-linejoin:round; stroke-width:4; stroke-opacity:1; fill:none" points="223.99,605.539 225.281,605.537 226.572,605.536 227.864,605.535 229.155,605.533 230.447,605.532 231.738,605.53 233.029,605.529 234.321,605.528 235.612,605.526 236.903,605.525 238.195,605.523 239.486,605.522 240.777,605.52 242.069,605.519 243.36,605.518 244.651,605.516 245.943,605.515 247.234,605.513 248.526,605.512 249.817,605.51 251.108,605.509 252.4,605.507 253.691,605.506 254.982,605.504 256.274,605.502 257.565,605.501 258.856,605.499 260.148,605.498 261.439,605.496 262.73,605.494 264.022,605.493 265.313,605.491 266.605,605.49 267.896,605.488 269.187,605.486 270.479,605.485 271.77,605.483 273.061,605.481 274.353,605.48 275.644,605.478 276.935,605.476 278.227,605.474 279.518,605.473 280.809,605.471 282.101,605.469 283.392,605.467 284.683,605.466 285.975,605.464 287.266,605.462 288.558,605.46 289.849,605.458 291.14,605.456 292.432,605.455 293.723,605.453 295.014,605.451 296.306,605.449 297.597,605.447 298.888,605.445 300.18,605.443 301.471,605.441 302.762,605.439 304.054,605.437 305.345,605.435 306.637,605.433 307.928,605.431 309.219,605.429 310.511,605.427 311.802,605.425 313.093,605.423 314.385,605.421 315.676,605.419 316.967,605.417 318.259,605.414 319.55,605.412 320.841,605.41 322.133,605.408 323.424,605.406 324.716,605.403 326.007,605.401 327.298,605.399 328.59,605.397 329.881,605.394 331.172,605.392 332.464,605.39 333.755,605.387 335.046,605.385 336.338,605.383 337.629,605.38 338.92,605.378 340.212,605.376 341.503,605.373 342.794,605.371 344.086,605.368 345.377,605.366 346.669,605.363 347.96,605.361 349.251,605.358 350.543,605.356 351.834,605.353 353.125,605.35 354.417,605.348 355.708,605.345 356.999,605.342 358.291,605.34 359.582,605.337 360.873,605.334 362.165,605.332 363.456,605.329 364.748,605.326 366.039,605.323 367.33,605.32 368.622,605.317 369.913,605.315 371.204,605.312 372.496,605.309 373.787,605.306 375.078,605.303 376.37,605.3 377.661,605.297 378.952,605.294 380.244,605.291 381.535,605.288 382.827,605.285 384.118,605.281 385.409,605.278 386.701,605.275 387.992,605.272 389.283,605.269 390.575,605.265 391.866,605.262 393.157,605.259 394.449,605.255 395.74,605.252 397.031,605.249 398.323,605.245 399.614,605.242 400.905,605.238 402.197,605.235 403.488,605.231 404.78,605.228 406.071,605.224 407.362,605.22 408.654,605.217 409.945,605.213 411.236,605.209 412.528,605.206 413.819,605.202 415.11,605.198 416.402,605.194 417.693,605.19 418.984,605.186 420.276,605.182 421.567,605.178 422.859,605.174 424.15,605.17 425.441,605.166 426.733,605.162 428.024,605.158 429.315,605.154 430.607,605.15 431.898,605.145 433.189,605.141 434.481,605.137 435.772,605.132 437.063,605.128 438.355,605.123 439.646,605.119 440.938,605.114 442.229,605.11 443.52,605.105 444.812,605.1 446.103,605.096 447.394,605.091 448.686,605.086 449.977,605.081 451.268,605.076 452.56,605.071 453.851,605.066 455.142,605.061 456.434,605.056 457.725,605.051 459.016,605.046 460.308,605.041 461.599,605.035 462.891,605.03 464.182,605.025 465.473,605.019 466.765,605.014 468.056,605.008 469.347,605.003 470.639,604.997 471.93,604.991 473.221,604.986 474.513,604.98 475.804,604.974 477.095,604.968 478.387,604.962 479.678,604.956 480.97,604.95 482.261,604.944 483.552,604.937 484.844,604.931 486.135,604.925 487.426,604.918 488.718,604.912 490.009,604.905 491.3,604.899 492.592,604.892 493.883,604.885 495.174,604.879 496.466,604.872 497.757,604.865 499.049,604.858 500.34,604.851 501.631,604.843 502.923,604.836 504.214,604.829 505.505,604.821 506.797,604.814 508.088,604.806 509.379,604.799 510.671,604.791 511.962,604.783 513.253,604.775 514.545,604.767 515.836,604.759 517.127,604.751 518.419,604.743 519.71,604.734 521.002,604.726 522.293,604.717 523.584,604.709 524.876,604.7 526.167,604.691 527.458,604.682 528.75,604.673 530.041,604.664 531.332,604.655 532.624,604.645 533.915,604.636 535.206,604.626 536.498,604.617 537.789,604.607 539.081,604.597 540.372,604.587 541.663,604.577 542.955,604.566 544.246,604.556 545.537,604.546 546.829,604.535 548.12,604.524 549.411,604.513 550.703,604.502 551.994,604.491 553.285,604.48 554.577,604.468 555.868,604.457 557.16,604.445 558.451,604.433 559.742,604.421 561.034,604.409 562.325,604.397 563.616,604.384 564.908,604.372 566.199,604.359 567.49,604.346 568.782,604.333 570.073,604.319 571.364,604.306 572.656,604.292 573.947,604.278 575.238,604.264 576.53,604.25 577.821,604.236 579.113,604.221 580.404,604.207 581.695,604.192 582.987,604.176 584.278,604.161 585.569,604.145 586.861,604.13 588.152,604.114 589.443,604.097 590.735,604.081 592.026,604.064 593.317,604.047 594.609,604.03 595.9,604.013 597.192,603.995 598.483,603.977 599.774,603.959 601.066,603.941 602.357,603.922 603.648,603.903 604.94,603.884 606.231,603.864 607.522,603.844 608.814,603.824 610.105,603.804 611.396,603.783 612.688,603.762 613.979,603.741 615.271,603.719 616.562,603.697 617.853,603.675 619.145,603.652 620.436,603.629 621.727,603.606 623.019,603.582 624.31,603.558 625.601,603.533 626.893,603.508 628.184,603.483 629.475,603.457 630.767,603.431 632.058,603.405 633.349,603.378 634.641,603.35 635.932,603.322 637.224,603.294 638.515,603.265 639.806,603.236 641.098,603.206 642.389,603.176 643.68,603.145 644.972,603.113 646.263,603.081 647.554,603.049 648.846,603.016 650.137,602.982 651.428,602.948 652.72,602.913 654.011,602.878 655.303,602.842 656.594,602.805 657.885,602.767 659.177,602.729 660.468,602.69 661.759,602.651 663.051,602.611 664.342,602.57 665.633,602.528 666.925,602.485 668.216,602.442 669.507,602.397 670.799,602.352 672.09,602.306 673.382,602.259 674.673,602.212 675.964,602.163 677.256,602.113 678.547,602.062 679.838,602.01 681.13,601.957 682.421,601.903 683.712,601.848 685.004,601.792 686.295,601.735 687.586,601.676 688.878,601.616 690.169,601.555 691.46,601.492 692.752,601.428 694.043,601.363 695.335,601.296 696.626,601.228 697.917,601.158 699.209,601.087 700.5,601.014 701.791,600.94 703.083,600.863 704.374,600.785 705.665,600.705 706.957,600.623 708.248,600.539 709.539,600.454 710.831,600.366 712.122,600.275 713.414,600.183 714.705,600.089 715.996,599.992 717.288,599.892 718.579,599.79 719.87,599.686 721.162,599.578 722.453,599.468 723.744,599.355 725.036,599.239 726.327,599.12 727.618,598.998 728.91,598.872 730.201,598.743 731.493,598.611 732.784,598.474 734.075,598.334 735.367,598.19 736.658,598.041 737.949,597.888 739.241,597.731 740.532,597.569 741.823,597.402 743.115,597.231 744.406,597.053 745.697,596.871 746.989,596.683 748.28,596.489 749.571,596.288 750.863,596.081 752.154,595.868 753.446,595.647 754.737,595.419 756.028,595.184 757.32,594.94 758.611,594.689 759.902,594.428 761.194,594.158 762.485,593.879 763.776,593.59 765.068,593.29 766.359,592.979 767.65,592.656 768.942,592.322 770.233,591.974 771.525,591.614 772.816,591.239 774.107,590.849 775.399,590.444 776.69,590.022 777.981,589.583 779.273,589.126 780.564,588.649 781.855,588.152 783.147,587.633 784.438,587.092 785.729,586.526 787.021,585.935 788.312,585.316 789.604,584.669 790.895,583.991 792.186,583.281 793.478,582.536 794.769,581.754 796.06,580.933 797.352,580.069 798.643,579.162 799.934,578.206 801.226,577.199 802.517,576.137 803.808,575.016 805.1,573.832 806.391,572.58 807.682,571.255 808.974,569.851 810.265,568.363 811.557,566.782 812.848,565.103 814.139,563.316 815.431,561.412 816.722,559.383 818.013,557.216 819.305,554.899 820.596,552.419 821.887,549.761 823.179,546.908 824.47,543.842 825.761,540.542 827.053,536.985 828.344,533.145 829.636,528.994 830.927,524.499 832.218,519.624 833.51,514.329 834.801,508.569 836.092,502.293 837.384,495.444 838.675,487.959 839.966,479.768 841.258,470.792 842.549,460.946 843.84,450.134 845.132,438.255 846.423,425.199 847.715,410.853 849.006,395.101 850.297,377.834 851.589,358.953 852.88,338.389 854.171,316.113 855.463,292.165 856.754,266.68 858.045,239.923 859.337,212.329 860.628,184.529 861.919,157.373 863.211,131.917 864.502,109.373 865.793,91.0049 867.085,77.9857 868.376,71.2261 869.668,71.2261 870.959,77.9857 872.25,91.0049 873.542,109.373 874.833,131.917 876.124,157.373 877.416,184.529 878.707,212.329 879.998,239.923 881.29,266.68 882.581,292.165 883.872,316.113 885.164,338.389 886.455,358.953 887.747,377.834 889.038,395.101 890.329,410.853 891.621,425.199 892.912,438.255 894.203,450.134 895.495,460.946 896.786,470.792 898.077,479.768 899.369,487.959 900.66,495.444 901.951,502.293 903.243,508.569 904.534,514.329 905.826,519.624 907.117,524.499 908.408,528.994 909.7,533.145 910.991,536.985 912.282,540.542 913.574,543.842 914.865,546.908 916.156,549.761 917.448,552.419 918.739,554.899 920.03,557.216 921.322,559.383 922.613,561.412 923.904,563.316 925.196,565.103 926.487,566.782 927.779,568.363 929.07,569.851 930.361,571.255 931.653,572.58 932.944,573.832 934.235,575.016 935.527,576.137 936.818,577.199 938.109,578.206 939.401,579.162 940.692,580.069 941.983,580.933 943.275,581.754 944.566,582.536 945.858,583.281 947.149,583.991 948.44,584.669 949.732,585.316 951.023,585.935 952.314,586.526 953.606,587.092 954.897,587.633 956.188,588.152 957.48,588.649 958.771,589.126 960.062,589.583 961.354,590.022 962.645,590.444 963.937,590.849 965.228,591.239 966.519,591.614 967.811,591.974 969.102,592.322 970.393,592.656 971.685,592.979 972.976,593.29 974.267,593.59 975.559,593.879 976.85,594.158 978.141,594.428 979.433,594.689 980.724,594.94 982.015,595.184 983.307,595.419 984.598,595.647 985.89,595.868 987.181,596.081 988.472,596.288 989.764,596.489 991.055,596.683 992.346,596.871 993.638,597.053 994.929,597.231 996.22,597.402 997.512,597.569 998.803,597.731 1000.09,597.888 1001.39,598.041 1002.68,598.19 1003.97,598.334 1005.26,598.474 1006.55,598.611 1007.84,598.743 1009.13,598.872 1010.43,598.998 1011.72,599.12 1013.01,599.239 1014.3,599.355 1015.59,599.468 1016.88,599.578 1018.17,599.686 1019.46,599.79 1020.76,599.892 1022.05,599.992 1023.34,600.089 1024.63,600.183 1025.92,600.275 1027.21,600.366 1028.5,600.454 1029.8,600.539 1031.09,600.623 1032.38,600.705 1033.67,600.785 1034.96,600.863 1036.25,600.94 1037.54,601.014 1038.84,601.087 1040.13,601.158 1041.42,601.228 1042.71,601.296 1044,601.363 1045.29,601.428 1046.58,601.492 1047.87,601.555 1049.17,601.616 1050.46,601.676 1051.75,601.735 1053.04,601.792 1054.33,601.848 1055.62,601.903 1056.91,601.957 1058.21,602.01 1059.5,602.062 1060.79,602.113 1062.08,602.163 1063.37,602.212 1064.66,602.259 1065.95,602.306 1067.24,602.352 1068.54,602.397 1069.83,602.442 1071.12,602.485 1072.41,602.528 1073.7,602.57 1074.99,602.611 1076.28,602.651 1077.58,602.69 1078.87,602.729 1080.16,602.767 1081.45,602.805 1082.74,602.842 1084.03,602.878 1085.32,602.913 1086.62,602.948 1087.91,602.982 1089.2,603.016 1090.49,603.049 1091.78,603.081 1093.07,603.113 1094.36,603.145 1095.65,603.176 1096.95,603.206 1098.24,603.236 1099.53,603.265 1100.82,603.294 1102.11,603.322 1103.4,603.35 1104.69,603.378 1105.99,603.405 1107.28,603.431 1108.57,603.457 1109.86,603.483 1111.15,603.508 1112.44,603.533 1113.73,603.558 1115.03,603.582 1116.32,603.606 1117.61,603.629 1118.9,603.652 1120.19,603.675 1121.48,603.697 1122.77,603.719 1124.06,603.741 1125.36,603.762 1126.65,603.783 1127.94,603.804 1129.23,603.824 1130.52,603.844 1131.81,603.864 1133.1,603.884 1134.4,603.903 1135.69,603.922 1136.98,603.941 1138.27,603.959 1139.56,603.977 1140.85,603.995 1142.14,604.013 1143.43,604.03 1144.73,604.047 1146.02,604.064 1147.31,604.081 1148.6,604.097 1149.89,604.114 1151.18,604.13 1152.47,604.145 1153.77,604.161 1155.06,604.176 1156.35,604.192 1157.64,604.207 1158.93,604.221 1160.22,604.236 1161.51,604.25 1162.81,604.264 1164.1,604.278 1165.39,604.292 1166.68,604.306 1167.97,604.319 1169.26,604.333 1170.55,604.346 1171.84,604.359 1173.14,604.372 1174.43,604.384 1175.72,604.397 1177.01,604.409 1178.3,604.421 1179.59,604.433 1180.88,604.445 1182.18,604.457 1183.47,604.468 1184.76,604.48 1186.05,604.491 1187.34,604.502 1188.63,604.513 1189.92,604.524 1191.22,604.535 1192.51,604.546 1193.8,604.556 1195.09,604.566 1196.38,604.577 1197.67,604.587 1198.96,604.597 1200.25,604.607 1201.55,604.617 1202.84,604.626 1204.13,604.636 1205.42,604.645 1206.71,604.655 1208,604.664 1209.29,604.673 1210.59,604.682 1211.88,604.691 1213.17,604.7 1214.46,604.709 1215.75,604.717 1217.04,604.726 1218.33,604.734 1219.62,604.743 1220.92,604.751 1222.21,604.759 1223.5,604.767 1224.79,604.775 1226.08,604.783 1227.37,604.791 1228.66,604.799 1229.96,604.806 1231.25,604.814 1232.54,604.821 1233.83,604.829 1235.12,604.836 1236.41,604.843 1237.7,604.851 1239,604.858 1240.29,604.865 1241.58,604.872 1242.87,604.879 1244.16,604.885 1245.45,604.892 1246.74,604.899 1248.03,604.905 1249.33,604.912 1250.62,604.918 1251.91,604.925 1253.2,604.931 1254.49,604.937 1255.78,604.944 1257.07,604.95 1258.37,604.956 1259.66,604.962 1260.95,604.968 1262.24,604.974 1263.53,604.98 1264.82,604.986 1266.11,604.991 1267.41,604.997 1268.7,605.003 1269.99,605.008 1271.28,605.014 1272.57,605.019 1273.86,605.025 1275.15,605.03 1276.44,605.035 1277.74,605.041 1279.03,605.046 1280.32,605.051 1281.61,605.056 1282.9,605.061 1284.19,605.066 1285.48,605.071 1286.78,605.076 1288.07,605.081 1289.36,605.086 1290.65,605.091 1291.94,605.096 1293.23,605.1 1294.52,605.105 1295.81,605.11 1297.11,605.114 1298.4,605.119 1299.69,605.123 1300.98,605.128 1302.27,605.132 1303.56,605.137 1304.85,605.141 1306.15,605.145 1307.44,605.15 1308.73,605.154 1310.02,605.158 1311.31,605.162 1312.6,605.166 1313.89,605.17 1315.19,605.174 1316.48,605.178 1317.77,605.182 1319.06,605.186 1320.35,605.19 1321.64,605.194 1322.93,605.198 1324.22,605.202 1325.52,605.206 1326.81,605.209 1328.1,605.213 1329.39,605.217 1330.68,605.22 1331.97,605.224 1333.26,605.228 1334.56,605.231 1335.85,605.235 1337.14,605.238 1338.43,605.242 1339.72,605.245 1341.01,605.249 1342.3,605.252 1343.6,605.255 1344.89,605.259 1346.18,605.262 1347.47,605.265 1348.76,605.269 1350.05,605.272 1351.34,605.275 1352.63,605.278 1353.93,605.281 1355.22,605.285 1356.51,605.288 1357.8,605.291 1359.09,605.294 1360.38,605.297 1361.67,605.3 1362.97,605.303 1364.26,605.306 1365.55,605.309 1366.84,605.312 1368.13,605.315 1369.42,605.317 1370.71,605.32 1372,605.323 1373.3,605.326 1374.59,605.329 1375.88,605.332 1377.17,605.334 1378.46,605.337 1379.75,605.34 1381.04,605.342 1382.34,605.345 1383.63,605.348 1384.92,605.35 1386.21,605.353 1387.5,605.356 1388.79,605.358 1390.08,605.361 1391.38,605.363 1392.67,605.366 1393.96,605.368 1395.25,605.371 1396.54,605.373 1397.83,605.376 1399.12,605.378 1400.41,605.38 1401.71,605.383 1403,605.385 1404.29,605.387 1405.58,605.39 1406.87,605.392 1408.16,605.394 1409.45,605.397 1410.75,605.399 1412.04,605.401 1413.33,605.403 1414.62,605.406 1415.91,605.408 1417.2,605.41 1418.49,605.412 1419.79,605.414 1421.08,605.417 1422.37,605.419 1423.66,605.421 1424.95,605.423 1426.24,605.425 1427.53,605.427 1428.82,605.429 1430.12,605.431 1431.41,605.433 1432.7,605.435 1433.99,605.437 1435.28,605.439 1436.57,605.441 1437.86,605.443 1439.16,605.445 1440.45,605.447 1441.74,605.449 1443.03,605.451 1444.32,605.453 1445.61,605.455 1446.9,605.456 1448.19,605.458 1449.49,605.46 1450.78,605.462 1452.07,605.464 1453.36,605.466 1454.65,605.467 1455.94,605.469 1457.23,605.471 1458.53,605.473 1459.82,605.474 1461.11,605.476 1462.4,605.478 1463.69,605.48 1464.98,605.481 1466.27,605.483 1467.57,605.485 1468.86,605.486 1470.15,605.488 1471.44,605.49 1472.73,605.491 1474.02,605.493 1475.31,605.494 1476.6,605.496 1477.9,605.498 1479.19,605.499 1480.48,605.501 1481.77,605.502 1483.06,605.504 1484.35,605.506 1485.64,605.507 1486.94,605.509 1488.23,605.51 1489.52,605.512 1490.81,605.513 1492.1,605.515 1493.39,605.516 1494.68,605.518 1495.98,605.519 1497.27,605.52 1498.56,605.522 1499.85,605.523 1501.14,605.525 1502.43,605.526 1503.72,605.528 1505.01,605.529 1506.31,605.53 1507.6,605.532 1508.89,605.533 1510.18,605.535 1511.47,605.536 1512.76,605.537 1514.05,605.539 "/>
<polyline clip-path="url(#clip702)" style="stroke:#e26f46; stroke-linecap:round; stroke-linejoin:round; stroke-width:4; stroke-opacity:1; fill:none" points="223.99,605.873 225.281,605.85 226.572,605.791 227.864,605.71 229.155,605.622 230.447,605.541 231.738,605.482 233.029,605.455 234.321,605.455 235.612,605.474 236.903,605.502 238.195,605.532 239.486,605.554 240.777,605.561 242.069,605.556 243.36,605.543 244.651,605.525 245.943,605.508 247.234,605.495 248.526,605.49 249.817,605.49 251.108,605.495 252.4,605.502 253.691,605.509 254.982,605.514 256.274,605.514 257.565,605.511 258.856,605.506 260.148,605.5 261.439,605.494 262.73,605.489 264.022,605.487 265.313,605.486 266.605,605.486 267.896,605.487 269.187,605.487 270.479,605.487 271.77,605.486 273.061,605.484 274.353,605.482 275.644,605.479 276.935,605.476 278.227,605.473 279.518,605.471 280.809,605.469 282.101,605.468 283.392,605.467 284.683,605.466 285.975,605.465 287.266,605.463 288.558,605.461 289.849,605.459 291.14,605.457 292.432,605.454 293.723,605.452 295.014,605.45 296.306,605.448 297.597,605.447 298.888,605.445 300.18,605.443 301.471,605.441 302.762,605.439 304.054,605.437 305.345,605.435 306.637,605.433 307.928,605.431 309.219,605.429 310.511,605.427 311.802,605.425 313.093,605.423 314.385,605.421 315.676,605.419 316.967,605.417 318.259,605.414 319.55,605.412 320.841,605.41 322.133,605.408 323.424,605.406 324.716,605.403 326.007,605.401 327.298,605.399 328.59,605.397 329.881,605.394 331.172,605.392 332.464,605.39 333.755,605.387 335.046,605.385 336.338,605.383 337.629,605.38 338.92,605.378 340.212,605.376 341.503,605.373 342.794,605.371 344.086,605.368 345.377,605.366 346.669,605.363 347.96,605.361 349.251,605.358 350.543,605.356 351.834,605.353 353.125,605.35 354.417,605.348 355.708,605.345 356.999,605.342 358.291,605.34 359.582,605.337 360.873,605.334 362.165,605.332 363.456,605.329 364.748,605.326 366.039,605.323 367.33,605.32 368.622,605.317 369.913,605.315 371.204,605.312 372.496,605.309 373.787,605.306 375.078,605.303 376.37,605.3 377.661,605.297 378.952,605.294 380.244,605.291 381.535,605.288 382.827,605.285 384.118,605.281 385.409,605.278 386.701,605.275 387.992,605.272 389.283,605.269 390.575,605.265 391.866,605.262 393.157,605.259 394.449,605.255 395.74,605.252 397.031,605.249 398.323,605.245 399.614,605.242 400.905,605.238 402.197,605.235 403.488,605.231 404.78,605.228 406.071,605.224 407.362,605.22 408.654,605.217 409.945,605.213 411.236,605.209 412.528,605.206 413.819,605.202 415.11,605.198 416.402,605.194 417.693,605.19 418.984,605.186 420.276,605.182 421.567,605.178 422.859,605.174 424.15,605.17 425.441,605.166 426.733,605.162 428.024,605.158 429.315,605.154 430.607,605.15 431.898,605.145 433.189,605.141 434.481,605.137 435.772,605.132 437.063,605.128 438.355,605.123 439.646,605.119 440.938,605.114 442.229,605.11 443.52,605.105 444.812,605.1 446.103,605.096 447.394,605.091 448.686,605.086 449.977,605.081 451.268,605.076 452.56,605.071 453.851,605.066 455.142,605.061 456.434,605.056 457.725,605.051 459.016,605.046 460.308,605.041 461.599,605.035 462.891,605.03 464.182,605.025 465.473,605.019 466.765,605.014 468.056,605.008 469.347,605.003 470.639,604.997 471.93,604.991 473.221,604.986 474.513,604.98 475.804,604.974 477.095,604.968 478.387,604.962 479.678,604.956 480.97,604.95 482.261,604.944 483.552,604.937 484.844,604.931 486.135,604.925 487.426,604.918 488.718,604.912 490.009,604.905 491.3,604.899 492.592,604.892 493.883,604.885 495.174,604.879 496.466,604.872 497.757,604.865 499.049,604.858 500.34,604.851 501.631,604.843 502.923,604.836 504.214,604.829 505.505,604.821 506.797,604.814 508.088,604.806 509.379,604.799 510.671,604.791 511.962,604.783 513.253,604.775 514.545,604.767 515.836,604.759 517.127,604.751 518.419,604.743 519.71,604.734 521.002,604.726 522.293,604.717 523.584,604.709 524.876,604.7 526.167,604.691 527.458,604.682 528.75,604.673 530.041,604.664 531.332,604.655 532.624,604.645 533.915,604.636 535.206,604.626 536.498,604.617 537.789,604.607 539.081,604.597 540.372,604.587 541.663,604.577 542.955,604.566 544.246,604.556 545.537,604.546 546.829,604.535 548.12,604.524 549.411,604.513 550.703,604.502 551.994,604.491 553.285,604.48 554.577,604.468 555.868,604.457 557.16,604.445 558.451,604.433 559.742,604.421 561.034,604.409 562.325,604.397 563.616,604.384 564.908,604.372 566.199,604.359 567.49,604.346 568.782,604.333 570.073,604.319 571.364,604.306 572.656,604.292 573.947,604.278 575.238,604.264 576.53,604.25 577.821,604.236 579.113,604.221 580.404,604.207 581.695,604.192 582.987,604.176 584.278,604.161 585.569,604.145 586.861,604.13 588.152,604.114 589.443,604.097 590.735,604.081 592.026,604.064 593.317,604.047 594.609,604.03 595.9,604.013 597.192,603.995 598.483,603.977 599.774,603.959 601.066,603.941 602.357,603.922 603.648,603.903 604.94,603.884 606.231,603.864 607.522,603.844 608.814,603.824 610.105,603.804 611.396,603.783 612.688,603.762 613.979,603.741 615.271,603.719 616.562,603.697 617.853,603.675 619.145,603.652 620.436,603.629 621.727,603.606 623.019,603.582 624.31,603.558 625.601,603.533 626.893,603.508 628.184,603.483 629.475,603.457 630.767,603.431 632.058,603.405 633.349,603.378 634.641,603.35 635.932,603.322 637.224,603.294 638.515,603.265 639.806,603.236 641.098,603.206 642.389,603.176 643.68,603.145 644.972,603.113 646.263,603.081 647.554,603.049 648.846,603.016 650.137,602.982 651.428,602.948 652.72,602.913 654.011,602.878 655.303,602.842 656.594,602.805 657.885,602.767 659.177,602.729 660.468,602.69 661.759,602.651 663.051,602.611 664.342,602.57 665.633,602.528 666.925,602.485 668.216,602.442 669.507,602.397 670.799,602.352 672.09,602.306 673.382,602.259 674.673,602.212 675.964,602.163 677.256,602.113 678.547,602.062 679.838,602.01 681.13,601.957 682.421,601.903 683.712,601.848 685.004,601.792 686.295,601.735 687.586,601.676 688.878,601.616 690.169,601.555 691.46,601.492 692.752,601.428 694.043,601.363 695.335,601.296 696.626,601.228 697.917,601.158 699.209,601.087 700.5,601.014 701.791,600.94 703.083,600.863 704.374,600.785 705.665,600.705 706.957,600.623 708.248,600.539 709.539,600.453 710.831,600.366 712.122,600.275 713.414,600.183 714.705,600.089 715.996,599.992 717.288,599.892 718.579,599.79 719.87,599.686 721.162,599.578 722.453,599.468 723.744,599.355 725.036,599.239 726.327,599.12 727.618,598.998 728.91,598.872 730.201,598.743 731.493,598.611 732.784,598.474 734.075,598.334 735.367,598.19 736.658,598.041 737.949,597.888 739.241,597.731 740.532,597.569 741.823,597.402 743.115,597.231 744.406,597.053 745.697,596.871 746.989,596.683 748.28,596.489 749.571,596.288 750.863,596.081 752.154,595.868 753.446,595.647 754.737,595.419 756.028,595.184 757.32,594.94 758.611,594.688 759.902,594.428 761.194,594.158 762.485,593.879 763.776,593.59 765.068,593.29 766.359,592.979 767.65,592.656 768.942,592.322 770.233,591.974 771.525,591.613 772.816,591.238 774.107,590.849 775.399,590.444 776.69,590.022 777.981,589.584 779.273,589.127 780.564,588.65 781.855,588.152 783.147,587.633 784.438,587.092 785.729,586.525 787.021,585.933 788.312,585.315 789.604,584.668 790.895,583.991 792.186,583.282 793.478,582.538 794.769,581.757 796.06,580.935 797.352,580.072 798.643,579.162 799.934,578.205 801.226,577.196 802.517,576.132 803.808,575.01 805.1,573.827 806.391,572.578 807.682,571.258 808.974,569.858 810.265,568.372 811.557,566.792 812.848,565.11 814.139,563.319 815.431,561.41 816.722,559.373 818.013,557.199 819.305,554.878 820.596,552.4 821.887,549.755 823.179,546.918 824.47,543.867 825.761,540.575 827.053,537.017 828.344,533.17 829.636,529.006 830.927,524.491 832.218,519.591 833.51,514.27 834.801,508.493 836.092,502.225 837.384,495.42 838.675,487.995 839.966,479.856 841.258,470.909 842.549,461.062 843.84,450.22 845.132,438.289 846.423,425.167 847.715,410.752 849.006,394.939 850.297,377.627 851.589,358.713 852.88,338.128 854.171,315.945 855.463,292.27 856.754,267.212 858.045,240.877 859.337,213.372 860.628,185.022 861.919,157.026 863.211,130.799 864.502,107.758 865.793,89.3173 867.085,76.8941 868.376,71.5501 869.668,72.9315 870.959,80.3309 872.25,93.0405 873.542,110.353 874.833,131.56 876.124,155.919 877.416,182.541 878.707,210.502 879.998,238.878 881.29,266.743 882.581,293.174 883.872,317.434 885.164,339.534 886.455,359.673 887.747,378.05 889.038,394.865 890.329,410.315 891.621,424.575 892.912,437.716 894.203,449.785 895.495,460.829 896.786,470.894 898.077,480.027 899.369,488.282 900.66,495.742 901.951,502.5 903.243,508.646 904.534,514.271 905.826,519.468 907.117,524.315 908.408,528.836 909.7,533.044 910.991,536.953 912.282,540.573 913.574,543.918 914.865,547.001 916.156,549.846 917.448,552.478 918.739,554.92 920.03,557.199 921.322,559.339 922.613,561.36 923.904,563.271 925.196,565.074 926.487,566.773 927.779,568.371 929.07,569.873 930.361,571.282 931.653,572.604 932.944,573.849 934.235,575.022 935.527,576.132 936.818,577.186 938.109,578.191 939.401,579.149 940.692,580.061 941.983,580.93 943.275,581.756 944.566,582.542 945.858,583.288 947.149,583.998 948.44,584.674 949.732,585.318 951.023,585.933 952.314,586.522 953.606,587.087 954.897,587.63 956.188,588.15 957.48,588.648 958.771,589.126 960.062,589.585 961.354,590.024 962.645,590.446 963.937,590.851 965.228,591.239 966.519,591.613 967.811,591.973 969.102,592.321 970.393,592.655 971.685,592.978 972.976,593.29 974.267,593.59 975.559,593.879 976.85,594.159 978.141,594.429 979.433,594.689 980.724,594.941 982.015,595.184 983.307,595.419 984.598,595.647 985.89,595.868 987.181,596.081 988.472,596.288 989.764,596.489 991.055,596.683 992.346,596.871 993.638,597.054 994.929,597.231 996.22,597.402 997.512,597.569 998.803,597.731 1000.09,597.888 1001.39,598.041 1002.68,598.19 1003.97,598.334 1005.26,598.474 1006.55,598.611 1007.84,598.743 1009.13,598.872 1010.43,598.998 1011.72,599.12 1013.01,599.239 1014.3,599.355 1015.59,599.468 1016.88,599.578 1018.17,599.686 1019.46,599.79 1020.76,599.892 1022.05,599.992 1023.34,600.089 1024.63,600.183 1025.92,600.276 1027.21,600.366 1028.5,600.453 1029.8,600.539 1031.09,600.623 1032.38,600.705 1033.67,600.785 1034.96,600.863 1036.25,600.94 1037.54,601.014 1038.84,601.087 1040.13,601.158 1041.42,601.228 1042.71,601.296 1044,601.363 1045.29,601.428 1046.58,601.492 1047.87,601.555 1049.17,601.616 1050.46,601.676 1051.75,601.735 1053.04,601.792 1054.33,601.848 1055.62,601.903 1056.91,601.957 1058.21,602.01 1059.5,602.062 1060.79,602.113 1062.08,602.163 1063.37,602.212 1064.66,602.259 1065.95,602.306 1067.24,602.352 1068.54,602.397 1069.83,602.442 1071.12,602.485 1072.41,602.528 1073.7,602.57 1074.99,602.611 1076.28,602.651 1077.58,602.69 1078.87,602.729 1080.16,602.767 1081.45,602.805 1082.74,602.842 1084.03,602.878 1085.32,602.913 1086.62,602.948 1087.91,602.982 1089.2,603.016 1090.49,603.049 1091.78,603.081 1093.07,603.113 1094.36,603.145 1095.65,603.176 1096.95,603.206 1098.24,603.236 1099.53,603.265 1100.82,603.294 1102.11,603.322 1103.4,603.35 1104.69,603.378 1105.99,603.405 1107.28,603.431 1108.57,603.457 1109.86,603.483 1111.15,603.508 1112.44,603.533 1113.73,603.558 1115.03,603.582 1116.32,603.606 1117.61,603.629 1118.9,603.652 1120.19,603.675 1121.48,603.697 1122.77,603.719 1124.06,603.741 1125.36,603.762 1126.65,603.783 1127.94,603.804 1129.23,603.824 1130.52,603.844 1131.81,603.864 1133.1,603.884 1134.4,603.903 1135.69,603.922 1136.98,603.941 1138.27,603.959 1139.56,603.977 1140.85,603.995 1142.14,604.013 1143.43,604.03 1144.73,604.047 1146.02,604.064 1147.31,604.081 1148.6,604.097 1149.89,604.114 1151.18,604.13 1152.47,604.145 1153.77,604.161 1155.06,604.176 1156.35,604.192 1157.64,604.207 1158.93,604.221 1160.22,604.236 1161.51,604.25 1162.81,604.264 1164.1,604.278 1165.39,604.292 1166.68,604.306 1167.97,604.319 1169.26,604.333 1170.55,604.346 1171.84,604.359 1173.14,604.372 1174.43,604.384 1175.72,604.397 1177.01,604.409 1178.3,604.421 1179.59,604.433 1180.88,604.445 1182.18,604.457 1183.47,604.468 1184.76,604.48 1186.05,604.491 1187.34,604.502 1188.63,604.513 1189.92,604.524 1191.22,604.535 1192.51,604.546 1193.8,604.556 1195.09,604.566 1196.38,604.577 1197.67,604.587 1198.96,604.597 1200.25,604.607 1201.55,604.617 1202.84,604.626 1204.13,604.636 1205.42,604.645 1206.71,604.655 1208,604.664 1209.29,604.673 1210.59,604.682 1211.88,604.691 1213.17,604.7 1214.46,604.709 1215.75,604.717 1217.04,604.726 1218.33,604.734 1219.62,604.743 1220.92,604.751 1222.21,604.759 1223.5,604.767 1224.79,604.775 1226.08,604.783 1227.37,604.791 1228.66,604.799 1229.96,604.806 1231.25,604.814 1232.54,604.821 1233.83,604.829 1235.12,604.836 1236.41,604.843 1237.7,604.851 1239,604.858 1240.29,604.865 1241.58,604.872 1242.87,604.879 1244.16,604.885 1245.45,604.892 1246.74,604.899 1248.03,604.905 1249.33,604.912 1250.62,604.918 1251.91,604.925 1253.2,604.931 1254.49,604.937 1255.78,604.944 1257.07,604.95 1258.37,604.956 1259.66,604.962 1260.95,604.968 1262.24,604.974 1263.53,604.98 1264.82,604.986 1266.11,604.991 1267.41,604.997 1268.7,605.003 1269.99,605.008 1271.28,605.014 1272.57,605.019 1273.86,605.025 1275.15,605.03 1276.44,605.035 1277.74,605.041 1279.03,605.046 1280.32,605.051 1281.61,605.056 1282.9,605.061 1284.19,605.066 1285.48,605.071 1286.78,605.076 1288.07,605.081 1289.36,605.086 1290.65,605.091 1291.94,605.096 1293.23,605.1 1294.52,605.105 1295.81,605.11 1297.11,605.114 1298.4,605.119 1299.69,605.123 1300.98,605.128 1302.27,605.132 1303.56,605.137 1304.85,605.141 1306.15,605.145 1307.44,605.15 1308.73,605.154 1310.02,605.158 1311.31,605.162 1312.6,605.166 1313.89,605.17 1315.19,605.174 1316.48,605.178 1317.77,605.182 1319.06,605.186 1320.35,605.19 1321.64,605.194 1322.93,605.198 1324.22,605.202 1325.52,605.206 1326.81,605.209 1328.1,605.213 1329.39,605.217 1330.68,605.22 1331.97,605.224 1333.26,605.228 1334.56,605.231 1335.85,605.235 1337.14,605.238 1338.43,605.242 1339.72,605.245 1341.01,605.249 1342.3,605.252 1343.6,605.255 1344.89,605.259 1346.18,605.262 1347.47,605.265 1348.76,605.269 1350.05,605.272 1351.34,605.275 1352.63,605.278 1353.93,605.281 1355.22,605.285 1356.51,605.288 1357.8,605.291 1359.09,605.294 1360.38,605.297 1361.67,605.3 1362.97,605.303 1364.26,605.306 1365.55,605.309 1366.84,605.312 1368.13,605.315 1369.42,605.317 1370.71,605.32 1372,605.323 1373.3,605.326 1374.59,605.329 1375.88,605.332 1377.17,605.334 1378.46,605.337 1379.75,605.34 1381.04,605.342 1382.34,605.345 1383.63,605.348 1384.92,605.35 1386.21,605.353 1387.5,605.356 1388.79,605.358 1390.08,605.361 1391.38,605.363 1392.67,605.366 1393.96,605.368 1395.25,605.371 1396.54,605.373 1397.83,605.376 1399.12,605.378 1400.41,605.38 1401.71,605.383 1403,605.385 1404.29,605.387 1405.58,605.39 1406.87,605.392 1408.16,605.394 1409.45,605.397 1410.75,605.399 1412.04,605.401 1413.33,605.403 1414.62,605.406 1415.91,605.408 1417.2,605.41 1418.49,605.412 1419.79,605.414 1421.08,605.416 1422.37,605.418 1423.66,605.421 1424.95,605.423 1426.24,605.425 1427.53,605.427 1428.82,605.429 1430.12,605.431 1431.41,605.433 1432.7,605.435 1433.99,605.437 1435.28,605.439 1436.57,605.441 1437.86,605.443 1439.16,605.444 1440.45,605.446 1441.74,605.449 1443.03,605.451 1444.32,605.453 1445.61,605.455 1446.9,605.457 1448.19,605.459 1449.49,605.46 1450.78,605.462 1452.07,605.463 1453.36,605.464 1454.65,605.465 1455.94,605.467 1457.23,605.47 1458.53,605.473 1459.82,605.477 1461.11,605.479 1462.4,605.481 1463.69,605.483 1464.98,605.482 1466.27,605.482 1467.57,605.481 1468.86,605.48 1470.15,605.481 1471.44,605.484 1472.73,605.489 1474.02,605.495 1475.31,605.502 1476.6,605.507 1477.9,605.51 1479.19,605.51 1480.48,605.505 1481.77,605.498 1483.06,605.49 1484.35,605.484 1485.64,605.483 1486.94,605.489 1488.23,605.502 1489.52,605.521 1490.81,605.539 1492.1,605.554 1493.39,605.56 1494.68,605.554 1495.98,605.534 1497.27,605.504 1498.56,605.473 1499.85,605.45 1501.14,605.441 1502.43,605.455 1503.72,605.497 1505.01,605.56 1506.31,605.635 1507.6,605.712 1508.89,605.781 1510.18,605.833 1511.47,605.861 1512.76,605.872 1514.05,605.873 "/>
<polyline clip-path="url(#clip702)" style="stroke:#3da44d; stroke-linecap:round; stroke-linejoin:round; stroke-width:4; stroke-opacity:1; fill:none" points="223.99,588.771 225.281,588.708 226.572,588.643 227.864,588.583 229.155,588.531 230.447,588.492 231.738,588.471 233.029,588.479 234.321,588.497 235.612,588.513 236.903,588.522 238.195,588.521 239.486,588.507 240.777,588.477 242.069,588.444 243.36,588.415 244.651,588.393 245.943,588.377 247.234,588.368 248.526,588.361 249.817,588.351 251.108,588.338 252.4,588.32 253.691,588.296 254.982,588.269 256.274,588.239 257.565,588.21 258.856,588.182 260.148,588.156 261.439,588.132 262.73,588.11 264.022,588.088 265.313,588.066 266.605,588.042 267.896,588.017 269.187,587.991 270.479,587.963 271.77,587.934 273.061,587.905 274.353,587.877 275.644,587.849 276.935,587.822 278.227,587.794 279.518,587.767 280.809,587.74 282.101,587.712 283.392,587.684 284.683,587.655 285.975,587.625 287.266,587.595 288.558,587.565 289.849,587.535 291.14,587.505 292.432,587.475 293.723,587.445 295.014,587.415 296.306,587.384 297.597,587.354 298.888,587.323 300.18,587.291 301.471,587.26 302.762,587.228 304.054,587.196 305.345,587.164 306.637,587.132 307.928,587.099 309.219,587.067 310.511,587.034 311.802,587.001 313.093,586.968 314.385,586.935 315.676,586.901 316.967,586.868 318.259,586.834 319.55,586.8 320.841,586.765 322.133,586.731 323.424,586.696 324.716,586.661 326.007,586.626 327.298,586.591 328.59,586.555 329.881,586.52 331.172,586.484 332.464,586.448 333.755,586.411 335.046,586.375 336.338,586.338 337.629,586.301 338.92,586.264 340.212,586.227 341.503,586.19 342.794,586.152 344.086,586.114 345.377,586.076 346.669,586.037 347.96,585.999 349.251,585.96 350.543,585.921 351.834,585.882 353.125,585.842 354.417,585.803 355.708,585.763 356.999,585.723 358.291,585.683 359.582,585.642 360.873,585.601 362.165,585.56 363.456,585.519 364.748,585.478 366.039,585.436 367.33,585.394 368.622,585.352 369.913,585.31 371.204,585.267 372.496,585.224 373.787,585.181 375.078,585.138 376.37,585.094 377.661,585.05 378.952,585.006 380.244,584.962 381.535,584.917 382.827,584.872 384.118,584.827 385.409,584.782 386.701,584.736 387.992,584.69 389.283,584.644 390.575,584.598 391.866,584.551 393.157,584.504 394.449,584.457 395.74,584.409 397.031,584.362 398.323,584.313 399.614,584.265 400.905,584.217 402.197,584.168 403.488,584.118 404.78,584.069 406.071,584.019 407.362,583.969 408.654,583.919 409.945,583.868 411.236,583.817 412.528,583.766 413.819,583.714 415.11,583.662 416.402,583.61 417.693,583.558 418.984,583.505 420.276,583.452 421.567,583.398 422.859,583.345 424.15,583.29 425.441,583.236 426.733,583.181 428.024,583.126 429.315,583.071 430.607,583.015 431.898,582.959 433.189,582.902 434.481,582.845 435.772,582.788 437.063,582.731 438.355,582.673 439.646,582.615 440.938,582.556 442.229,582.497 443.52,582.438 444.812,582.378 446.103,582.318 447.394,582.257 448.686,582.196 449.977,582.135 451.268,582.074 452.56,582.011 453.851,581.949 455.142,581.886 456.434,581.823 457.725,581.759 459.016,581.695 460.308,581.631 461.599,581.566 462.891,581.5 464.182,581.435 465.473,581.368 466.765,581.302 468.056,581.235 469.347,581.167 470.639,581.099 471.93,581.031 473.221,580.962 474.513,580.892 475.804,580.823 477.095,580.752 478.387,580.682 479.678,580.61 480.97,580.539 482.261,580.466 483.552,580.394 484.844,580.32 486.135,580.247 487.426,580.172 488.718,580.098 490.009,580.022 491.3,579.947 492.592,579.87 493.883,579.793 495.174,579.716 496.466,579.638 497.757,579.559 499.049,579.48 500.34,579.401 501.631,579.32 502.923,579.24 504.214,579.158 505.505,579.076 506.797,578.994 508.088,578.911 509.379,578.827 510.671,578.742 511.962,578.657 513.253,578.572 514.545,578.485 515.836,578.399 517.127,578.311 518.419,578.223 519.71,578.134 521.002,578.044 522.293,577.954 523.584,577.863 524.876,577.772 526.167,577.679 527.458,577.586 528.75,577.493 530.041,577.398 531.332,577.303 532.624,577.207 533.915,577.11 535.206,577.013 536.498,576.915 537.789,576.816 539.081,576.716 540.372,576.615 541.663,576.514 542.955,576.412 544.246,576.309 545.537,576.205 546.829,576.101 548.12,575.995 549.411,575.889 550.703,575.781 551.994,575.673 553.285,575.564 554.577,575.454 555.868,575.344 557.16,575.232 558.451,575.119 559.742,575.006 561.034,574.891 562.325,574.775 563.616,574.659 564.908,574.541 566.199,574.423 567.49,574.303 568.782,574.183 570.073,574.061 571.364,573.938 572.656,573.814 573.947,573.69 575.238,573.564 576.53,573.436 577.821,573.308 579.113,573.179 580.404,573.048 581.695,572.917 582.987,572.784 584.278,572.65 585.569,572.514 586.861,572.378 588.152,572.24 589.443,572.101 590.735,571.96 592.026,571.818 593.317,571.675 594.609,571.531 595.9,571.385 597.192,571.238 598.483,571.089 599.774,570.939 601.066,570.788 602.357,570.635 603.648,570.481 604.94,570.325 606.231,570.167 607.522,570.008 608.814,569.848 610.105,569.686 611.396,569.522 612.688,569.356 613.979,569.189 615.271,569.021 616.562,568.85 617.853,568.678 619.145,568.504 620.436,568.328 621.727,568.15 623.019,567.971 624.31,567.789 625.601,567.606 626.893,567.421 628.184,567.233 629.475,567.044 630.767,566.853 632.058,566.659 633.349,566.464 634.641,566.266 635.932,566.066 637.224,565.864 638.515,565.66 639.806,565.454 641.098,565.245 642.389,565.033 643.68,564.82 644.972,564.604 646.263,564.385 647.554,564.164 648.846,563.94 650.137,563.714 651.428,563.485 652.72,563.254 654.011,563.019 655.303,562.782 656.594,562.542 657.885,562.299 659.177,562.053 660.468,561.804 661.759,561.552 663.051,561.297 664.342,561.039 665.633,560.777 666.925,560.512 668.216,560.244 669.507,559.973 670.799,559.697 672.09,559.419 673.382,559.137 674.673,558.851 675.964,558.561 677.256,558.267 678.547,557.97 679.838,557.668 681.13,557.363 682.421,557.053 683.712,556.739 685.004,556.421 686.295,556.098 687.586,555.771 688.878,555.439 690.169,555.103 691.46,554.761 692.752,554.415 694.043,554.064 695.335,553.708 696.626,553.346 697.917,552.979 699.209,552.607 700.5,552.229 701.791,551.846 703.083,551.456 704.374,551.061 705.665,550.66 706.957,550.252 708.248,549.838 709.539,549.417 710.831,548.99 712.122,548.556 713.414,548.115 714.705,547.667 715.996,547.211 717.288,546.748 718.579,546.277 719.87,545.798 721.162,545.312 722.453,544.817 723.744,544.313 725.036,543.801 726.327,543.279 727.618,542.749 728.91,542.209 730.201,541.66 731.493,541.1 732.784,540.531 734.075,539.95 735.367,539.36 736.658,538.758 737.949,538.144 739.241,537.52 740.532,536.883 741.823,536.233 743.115,535.571 744.406,534.896 745.697,534.208 746.989,533.506 748.28,532.789 749.571,532.058 750.863,531.311 752.154,530.549 753.446,529.771 754.737,528.976 756.028,528.164 757.32,527.335 758.611,526.488 759.902,525.621 761.194,524.735 762.485,523.829 763.776,522.903 765.068,521.954 766.359,520.984 767.65,519.991 768.942,518.974 770.233,517.933 771.525,516.866 772.816,515.773 774.107,514.653 775.399,513.505 776.69,512.327 777.981,511.118 779.273,509.878 780.564,508.605 781.855,507.298 783.147,505.956 784.438,504.578 785.729,503.161 787.021,501.705 788.312,500.209 789.604,498.67 790.895,497.086 792.186,495.454 793.478,493.774 794.769,492.042 796.06,490.258 797.352,488.419 798.643,486.523 799.934,484.568 801.226,482.551 802.517,480.471 803.808,478.323 805.1,476.106 806.391,473.814 807.682,471.442 808.974,468.986 810.265,466.443 811.557,463.812 812.848,461.088 814.139,458.269 815.431,455.351 816.722,452.331 818.013,449.206 819.305,445.971 820.596,442.621 821.887,439.144 823.179,435.529 824.47,431.773 825.761,427.874 827.053,423.832 828.344,419.649 829.636,415.323 830.927,410.855 832.218,406.25 833.51,401.515 834.801,396.659 836.092,391.685 837.384,386.581 838.675,381.344 839.966,375.999 841.258,370.592 842.549,365.185 843.84,359.854 845.132,354.691 846.423,349.806 847.715,345.337 849.006,341.449 850.297,338.345 851.589,336.281 852.88,335.615 854.171,336.732 855.463,339.966 856.754,345.665 858.045,354.237 859.337,366.232 860.628,382.62 861.919,404.262 863.211,431.366 864.502,463.741 865.793,500.823 867.085,541.575 868.376,584.043 869.668,626.213 870.959,666.866 872.25,705.118 873.542,740.282 874.833,771.802 876.124,799.181 877.416,822.051 878.707,840.262 879.998,853.841 881.29,863.004 882.581,868.215 883.872,870.426 885.164,870.626 886.455,869.383 887.747,867.088 889.038,864.025 890.329,860.385 891.621,856.255 892.912,851.683 894.203,846.754 895.495,841.553 896.786,836.167 898.077,830.683 899.369,825.196 900.66,819.791 901.951,814.528 903.243,809.447 904.534,804.571 905.826,799.901 907.117,795.402 908.408,791.031 909.7,786.774 910.991,782.626 912.282,778.589 913.574,774.666 914.865,770.868 916.156,767.206 917.448,763.685 918.739,760.305 920.03,757.064 921.322,753.957 922.613,750.966 923.904,748.076 925.196,745.277 926.487,742.564 927.779,739.934 929.07,737.384 930.361,734.916 931.653,732.53 932.944,730.225 934.235,727.999 935.527,725.851 936.818,723.775 938.109,721.767 939.401,719.819 940.692,717.929 941.983,716.093 943.275,714.309 944.566,712.575 945.858,710.891 947.149,709.256 948.44,707.668 949.732,706.126 951.023,704.629 952.314,703.175 953.606,701.761 954.897,700.384 956.188,699.044 957.48,697.738 958.771,696.465 960.062,695.224 961.354,694.014 962.645,692.835 963.937,691.686 965.228,690.565 966.519,689.472 967.811,688.405 969.102,687.365 970.393,686.348 971.685,685.355 972.976,684.385 974.267,683.437 975.559,682.51 976.85,681.603 978.141,680.717 979.433,679.85 980.724,679.002 982.015,678.173 983.307,677.361 984.598,676.566 985.89,675.788 987.181,675.026 988.472,674.279 989.764,673.548 991.055,672.831 992.346,672.129 993.638,671.44 994.929,670.765 996.22,670.102 997.512,669.453 998.803,668.881 1000.09,668.256 1001.39,667.642 1002.68,667.04 1003.97,666.449 1005.26,665.869 1006.55,665.299 1007.84,664.74 1009.13,664.19 1010.43,663.65 1011.72,663.119 1013.01,662.598 1014.3,662.085 1015.59,661.582 1016.88,661.086 1018.17,660.599 1019.46,660.12 1020.76,659.649 1022.05,659.186 1023.34,658.73 1024.63,658.282 1025.92,657.841 1027.21,657.406 1028.5,656.979 1029.8,656.558 1031.09,656.144 1032.38,655.736 1033.67,655.334 1034.96,654.939 1036.25,654.549 1037.54,654.165 1038.84,653.787 1040.13,653.415 1041.42,653.048 1042.71,652.686 1044,652.329 1045.29,651.978 1046.58,651.632 1047.87,651.29 1049.17,650.953 1050.46,650.621 1051.75,650.294 1053.04,649.971 1054.33,649.652 1055.62,649.338 1056.91,649.028 1058.21,648.722 1059.5,648.421 1060.79,648.123 1062.08,647.829 1063.37,647.539 1064.66,647.253 1065.95,646.97 1067.24,646.691 1068.54,646.416 1069.83,646.144 1071.12,645.876 1072.41,645.611 1073.7,645.349 1074.99,645.09 1076.28,644.835 1077.58,644.583 1078.87,644.334 1080.16,644.087 1081.45,643.844 1082.74,643.604 1084.03,643.366 1085.32,643.132 1086.62,642.9 1087.91,642.67 1089.2,642.444 1090.49,642.22 1091.78,641.999 1093.07,641.78 1094.36,641.563 1095.65,641.349 1096.95,641.138 1098.24,640.929 1099.53,640.722 1100.82,640.517 1102.11,640.315 1103.4,640.115 1104.69,639.917 1105.99,639.721 1107.28,639.527 1108.57,639.336 1109.86,639.146 1111.15,638.958 1112.44,638.773 1113.73,638.589 1115.03,638.407 1116.32,638.228 1117.61,638.05 1118.9,637.873 1120.19,637.699 1121.48,637.526 1122.77,637.355 1124.06,637.186 1125.36,637.019 1126.65,636.853 1127.94,636.689 1129.23,636.526 1130.52,636.366 1131.81,636.206 1133.1,636.048 1134.4,635.892 1135.69,635.737 1136.98,635.584 1138.27,635.432 1139.56,635.282 1140.85,635.133 1142.14,634.986 1143.43,634.839 1144.73,634.695 1146.02,634.551 1147.31,634.409 1148.6,634.268 1149.89,634.129 1151.18,633.991 1152.47,633.854 1153.77,633.718 1155.06,633.583 1156.35,633.45 1157.64,633.318 1158.93,633.187 1160.22,633.057 1161.51,632.929 1162.81,632.801 1164.1,632.675 1165.39,632.549 1166.68,632.425 1167.97,632.302 1169.26,632.18 1170.55,632.059 1171.84,631.939 1173.14,631.82 1174.43,631.702 1175.72,631.585 1177.01,631.469 1178.3,631.354 1179.59,631.24 1180.88,631.127 1182.18,631.015 1183.47,630.904 1184.76,630.793 1186.05,630.684 1187.34,630.575 1188.63,630.468 1189.92,630.361 1191.22,630.255 1192.51,630.15 1193.8,630.046 1195.09,629.942 1196.38,629.84 1197.67,629.738 1198.96,629.637 1200.25,629.537 1201.55,629.437 1202.84,629.339 1204.13,629.241 1205.42,629.144 1206.71,629.047 1208,628.952 1209.29,628.857 1210.59,628.763 1211.88,628.669 1213.17,628.576 1214.46,628.484 1215.75,628.393 1217.04,628.302 1218.33,628.212 1219.62,628.123 1220.92,628.034 1222.21,627.946 1223.5,627.859 1224.79,627.772 1226.08,627.686 1227.37,627.6 1228.66,627.515 1229.96,627.431 1231.25,627.348 1232.54,627.264 1233.83,627.182 1235.12,627.1 1236.41,627.019 1237.7,626.938 1239,626.858 1240.29,626.778 1241.58,626.699 1242.87,626.621 1244.16,626.543 1245.45,626.466 1246.74,626.389 1248.03,626.312 1249.33,626.237 1250.62,626.161 1251.91,626.087 1253.2,626.012 1254.49,625.939 1255.78,625.865 1257.07,625.792 1258.37,625.72 1259.66,625.648 1260.95,625.577 1262.24,625.506 1263.53,625.436 1264.82,625.366 1266.11,625.297 1267.41,625.228 1268.7,625.159 1269.99,625.091 1271.28,625.023 1272.57,624.956 1273.86,624.889 1275.15,624.823 1276.44,624.757 1277.74,624.692 1279.03,624.627 1280.32,624.562 1281.61,624.498 1282.9,624.434 1284.19,624.371 1285.48,624.308 1286.78,624.245 1288.07,624.183 1289.36,624.121 1290.65,624.059 1291.94,623.998 1293.23,623.938 1294.52,623.877 1295.81,623.817 1297.11,623.758 1298.4,623.699 1299.69,623.64 1300.98,623.581 1302.27,623.523 1303.56,623.465 1304.85,623.408 1306.15,623.351 1307.44,623.294 1308.73,623.238 1310.02,623.182 1311.31,623.126 1312.6,623.071 1313.89,623.016 1315.19,622.961 1316.48,622.906 1317.77,622.852 1319.06,622.799 1320.35,622.745 1321.64,622.692 1322.93,622.639 1324.22,622.587 1325.52,622.535 1326.81,622.483 1328.1,622.431 1329.39,622.38 1330.68,622.329 1331.97,622.278 1333.26,622.228 1334.56,622.178 1335.85,622.128 1337.14,622.078 1338.43,622.029 1339.72,621.98 1341.01,621.931 1342.3,621.883 1343.6,621.835 1344.89,621.787 1346.18,621.739 1347.47,621.692 1348.76,621.645 1350.05,621.598 1351.34,621.551 1352.63,621.505 1353.93,621.459 1355.22,621.413 1356.51,621.368 1357.8,621.322 1359.09,621.277 1360.38,621.233 1361.67,621.188 1362.97,621.144 1364.26,621.1 1365.55,621.056 1366.84,621.012 1368.13,620.969 1369.42,620.926 1370.71,620.883 1372,620.84 1373.3,620.798 1374.59,620.756 1375.88,620.714 1377.17,620.672 1378.46,620.631 1379.75,620.59 1381.04,620.549 1382.34,620.508 1383.63,620.467 1384.92,620.427 1386.21,620.387 1387.5,620.347 1388.79,620.307 1390.08,620.268 1391.38,620.228 1392.67,620.189 1393.96,620.15 1395.25,620.112 1396.54,620.073 1397.83,620.035 1399.12,619.997 1400.41,619.959 1401.71,619.921 1403,619.884 1404.29,619.847 1405.58,619.81 1406.87,619.773 1408.16,619.736 1409.45,619.7 1410.75,619.664 1412.04,619.628 1413.33,619.592 1414.62,619.556 1415.91,619.52 1417.2,619.485 1418.49,619.45 1419.79,619.415 1421.08,619.38 1422.37,619.346 1423.66,619.312 1424.95,619.278 1426.24,619.244 1427.53,619.21 1428.82,619.176 1430.12,619.143 1431.41,619.11 1432.7,619.076 1433.99,619.043 1435.28,619.011 1436.57,618.978 1437.86,618.946 1439.16,618.915 1440.45,618.883 1441.74,618.851 1443.03,618.82 1444.32,618.788 1445.61,618.757 1446.9,618.726 1448.19,618.694 1449.49,618.663 1450.78,618.633 1452.07,618.603 1453.36,618.573 1454.65,618.545 1455.94,618.516 1457.23,618.487 1458.53,618.458 1459.82,618.429 1461.11,618.399 1462.4,618.368 1463.69,618.338 1464.98,618.308 1466.27,618.28 1467.57,618.253 1468.86,618.228 1470.15,618.204 1471.44,618.181 1472.73,618.157 1474.02,618.131 1475.31,618.103 1476.6,618.073 1477.9,618.041 1479.19,618.009 1480.48,617.978 1481.77,617.952 1483.06,617.931 1484.35,617.915 1485.64,617.904 1486.94,617.894 1488.23,617.881 1489.52,617.862 1490.81,617.834 1492.1,617.798 1493.39,617.756 1494.68,617.712 1495.98,617.675 1497.27,617.652 1498.56,617.648 1499.85,617.662 1501.14,617.691 1502.43,617.73 1503.72,617.765 1505.01,617.782 1506.31,617.777 1507.6,617.748 1508.89,617.695 1510.18,617.624 1511.47,617.547 1512.76,617.478 1514.05,617.419 "/>
<path clip-path="url(#clip700)" d="M1170.64 282.85 L1507.17 282.85 L1507.17 75.4896 L1170.64 75.4896  Z" fill="#ffffff" fill-rule="evenodd" fill-opacity="1"/>
<polyline clip-path="url(#clip700)" style="stroke:#000000; stroke-linecap:round; stroke-linejoin:round; stroke-width:4; stroke-opacity:1; fill:none" points="1170.64,282.85 1507.17,282.85 1507.17,75.4896 1170.64,75.4896 1170.64,282.85 "/>
<polyline clip-path="url(#clip700)" style="stroke:#009af9; stroke-linecap:round; stroke-linejoin:round; stroke-width:4; stroke-opacity:1; fill:none" points="1185.83,127.33 1276.99,127.33 "/>
<path clip-path="url(#clip700)" d="M1298.25 130.628 Q1295.66 130.073 1294.27 128.568 Q1292.88 127.086 1292.88 124.934 Q1292.88 121.67 1295.52 119.841 Q1298.14 118.036 1302.68 118.036 Q1304.43 118.036 1306.4 118.313 Q1308.37 118.591 1310.64 119.147 L1310.64 123.012 Q1308.39 122.341 1306.54 122.04 Q1304.67 121.739 1303.02 121.739 Q1300.27 121.739 1298.67 122.804 Q1297.05 123.869 1297.05 125.35 Q1297.05 126.971 1298.62 128.012 Q1300.18 129.031 1302.86 129.031 L1306.45 129.031 L1306.45 132.549 L1303.02 132.549 Q1299.85 132.549 1298.18 133.73 Q1296.38 135.026 1296.38 137.063 Q1296.38 139.147 1298.32 140.443 Q1300.29 141.739 1303.79 141.739 Q1305.94 141.739 1307.91 141.323 Q1309.87 140.883 1311.52 140.026 L1311.52 143.985 Q1309.43 144.633 1307.49 144.957 Q1305.52 145.281 1303.67 145.281 Q1298.16 145.281 1295.18 143.174 Q1292.19 141.068 1292.19 137.063 Q1292.19 134.563 1293.79 132.874 Q1295.38 131.184 1298.25 130.628 Z" fill="#000000" fill-rule="nonzero" fill-opacity="1" /><path clip-path="url(#clip700)" d="M1320.94 141.971 L1330.75 141.971 L1330.75 144.61 L1316.91 144.61 L1316.91 142.063 Q1317.7 141.346 1319.16 140.049 Q1327.12 132.989 1327.12 130.813 Q1327.12 129.286 1325.92 128.36 Q1324.71 127.411 1322.74 127.411 Q1321.54 127.411 1320.13 127.827 Q1318.72 128.221 1317.05 129.031 L1317.05 126.184 Q1318.83 125.536 1320.36 125.212 Q1321.91 124.887 1323.23 124.887 Q1326.59 124.887 1328.6 126.415 Q1330.61 127.943 1330.61 130.443 Q1330.61 133.661 1322.95 140.235 Q1321.66 141.346 1320.94 141.971 Z" fill="#000000" fill-rule="nonzero" fill-opacity="1" /><polyline clip-path="url(#clip700)" style="stroke:#e26f46; stroke-linecap:round; stroke-linejoin:round; stroke-width:4; stroke-opacity:1; fill:none" points="1185.83,179.17 1276.99,179.17 "/>
<path clip-path="url(#clip700)" d="M1298.25 182.468 Q1295.66 181.913 1294.27 180.408 Q1292.88 178.926 1292.88 176.774 Q1292.88 173.51 1295.52 171.681 Q1298.14 169.876 1302.68 169.876 Q1304.43 169.876 1306.4 170.153 Q1308.37 170.431 1310.64 170.987 L1310.64 174.852 Q1308.39 174.181 1306.54 173.88 Q1304.67 173.579 1303.02 173.579 Q1300.27 173.579 1298.67 174.644 Q1297.05 175.709 1297.05 177.19 Q1297.05 178.811 1298.62 179.852 Q1300.18 180.871 1302.86 180.871 L1306.45 180.871 L1306.45 184.389 L1303.02 184.389 Q1299.85 184.389 1298.18 185.57 Q1296.38 186.866 1296.38 188.903 Q1296.38 190.987 1298.32 192.283 Q1300.29 193.579 1303.79 193.579 Q1305.94 193.579 1307.91 193.163 Q1309.87 192.723 1311.52 191.866 L1311.52 195.825 Q1309.43 196.473 1307.49 196.797 Q1305.52 197.121 1303.67 197.121 Q1298.16 197.121 1295.18 195.014 Q1292.19 192.908 1292.19 188.903 Q1292.19 186.403 1293.79 184.714 Q1295.38 183.024 1298.25 182.468 Z" fill="#000000" fill-rule="nonzero" fill-opacity="1" /><path clip-path="url(#clip700)" d="M1320.94 193.811 L1330.75 193.811 L1330.75 196.45 L1316.91 196.45 L1316.91 193.903 Q1317.7 193.186 1319.16 191.889 Q1327.12 184.829 1327.12 182.653 Q1327.12 181.126 1325.92 180.2 Q1324.71 179.251 1322.74 179.251 Q1321.54 179.251 1320.13 179.667 Q1318.72 180.061 1317.05 180.871 L1317.05 178.024 Q1318.83 177.376 1320.36 177.052 Q1321.91 176.727 1323.23 176.727 Q1326.59 176.727 1328.6 178.255 Q1330.61 179.783 1330.61 182.283 Q1330.61 185.501 1322.95 192.075 Q1321.66 193.186 1320.94 193.811 Z" fill="#000000" fill-rule="nonzero" fill-opacity="1" /><path clip-path="url(#clip700)" d="M1373.46 175.501 Q1375.06 172.63 1377.28 171.265 Q1379.5 169.899 1382.51 169.899 Q1386.56 169.899 1388.76 172.746 Q1390.96 175.57 1390.96 180.801 L1390.96 196.45 L1386.68 196.45 L1386.68 180.94 Q1386.68 177.214 1385.36 175.408 Q1384.04 173.602 1381.33 173.602 Q1378.02 173.602 1376.1 175.802 Q1374.18 178.001 1374.18 181.797 L1374.18 196.45 L1369.9 196.45 L1369.9 180.94 Q1369.9 177.19 1368.58 175.408 Q1367.26 173.602 1364.5 173.602 Q1361.24 173.602 1359.32 175.825 Q1357.4 178.024 1357.4 181.797 L1357.4 196.45 L1353.11 196.45 L1353.11 170.524 L1357.4 170.524 L1357.4 174.552 Q1358.86 172.167 1360.89 171.033 Q1362.93 169.899 1365.73 169.899 Q1368.55 169.899 1370.52 171.334 Q1372.51 172.769 1373.46 175.501 Z" fill="#000000" fill-rule="nonzero" fill-opacity="1" /><path clip-path="url(#clip700)" d="M1409.5 173.51 Q1406.08 173.51 1404.09 176.195 Q1402.1 178.857 1402.1 183.51 Q1402.1 188.163 1404.06 190.848 Q1406.05 193.51 1409.5 193.51 Q1412.91 193.51 1414.9 190.825 Q1416.89 188.139 1416.89 183.51 Q1416.89 178.903 1414.9 176.218 Q1412.91 173.51 1409.5 173.51 M1409.5 169.899 Q1415.06 169.899 1418.23 173.51 Q1421.4 177.121 1421.4 183.51 Q1421.4 189.876 1418.23 193.51 Q1415.06 197.121 1409.5 197.121 Q1403.92 197.121 1400.75 193.51 Q1397.61 189.876 1397.61 183.51 Q1397.61 177.121 1400.75 173.51 Q1403.92 169.899 1409.5 169.899 Z" fill="#000000" fill-rule="nonzero" fill-opacity="1" /><path clip-path="url(#clip700)" d="M1445.52 174.459 L1445.52 160.431 L1449.78 160.431 L1449.78 196.45 L1445.52 196.45 L1445.52 192.561 Q1444.18 194.875 1442.12 196.01 Q1440.08 197.121 1437.21 197.121 Q1432.51 197.121 1429.55 193.371 Q1426.61 189.621 1426.61 183.51 Q1426.61 177.399 1429.55 173.649 Q1432.51 169.899 1437.21 169.899 Q1440.08 169.899 1442.12 171.033 Q1444.18 172.144 1445.52 174.459 M1431.01 183.51 Q1431.01 188.209 1432.93 190.894 Q1434.87 193.556 1438.25 193.556 Q1441.63 193.556 1443.58 190.894 Q1445.52 188.209 1445.52 183.51 Q1445.52 178.811 1443.58 176.149 Q1441.63 173.464 1438.25 173.464 Q1434.87 173.464 1432.93 176.149 Q1431.01 178.811 1431.01 183.51 Z" fill="#000000" fill-rule="nonzero" fill-opacity="1" /><path clip-path="url(#clip700)" d="M1480.73 182.422 L1480.73 184.505 L1461.15 184.505 Q1461.42 188.903 1463.79 191.218 Q1466.17 193.51 1470.41 193.51 Q1472.86 193.51 1475.15 192.908 Q1477.47 192.306 1479.73 191.102 L1479.73 195.13 Q1477.44 196.102 1475.04 196.612 Q1472.63 197.121 1470.15 197.121 Q1463.95 197.121 1460.31 193.51 Q1456.7 189.899 1456.7 183.741 Q1456.7 177.376 1460.13 173.649 Q1463.58 169.899 1469.41 169.899 Q1474.64 169.899 1477.67 173.278 Q1480.73 176.635 1480.73 182.422 M1476.47 181.172 Q1476.42 177.677 1474.5 175.593 Q1472.6 173.51 1469.46 173.51 Q1465.89 173.51 1463.74 175.524 Q1461.61 177.538 1461.29 181.195 L1476.47 181.172 Z" fill="#000000" fill-rule="nonzero" fill-opacity="1" /><path clip-path="url(#clip700)" d="M1487.72 160.431 L1491.98 160.431 L1491.98 196.45 L1487.72 196.45 L1487.72 160.431 Z" fill="#000000" fill-rule="nonzero" fill-opacity="1" /><polyline clip-path="url(#clip700)" style="stroke:#3da44d; stroke-linecap:round; stroke-linejoin:round; stroke-width:4; stroke-opacity:1; fill:none" points="1185.83,231.01 1276.99,231.01 "/>
<path clip-path="url(#clip700)" d="M1298.25 234.308 Q1295.66 233.753 1294.27 232.248 Q1292.88 230.766 1292.88 228.614 Q1292.88 225.35 1295.52 223.521 Q1298.14 221.716 1302.68 221.716 Q1304.43 221.716 1306.4 221.993 Q1308.37 222.271 1310.64 222.827 L1310.64 226.692 Q1308.39 226.021 1306.54 225.72 Q1304.67 225.419 1303.02 225.419 Q1300.27 225.419 1298.67 226.484 Q1297.05 227.549 1297.05 229.03 Q1297.05 230.651 1298.62 231.692 Q1300.18 232.711 1302.86 232.711 L1306.45 232.711 L1306.45 236.229 L1303.02 236.229 Q1299.85 236.229 1298.18 237.41 Q1296.38 238.706 1296.38 240.743 Q1296.38 242.827 1298.32 244.123 Q1300.29 245.419 1303.79 245.419 Q1305.94 245.419 1307.91 245.003 Q1309.87 244.563 1311.52 243.706 L1311.52 247.665 Q1309.43 248.313 1307.49 248.637 Q1305.52 248.961 1303.67 248.961 Q1298.16 248.961 1295.18 246.854 Q1292.19 244.748 1292.19 240.743 Q1292.19 238.243 1293.79 236.554 Q1295.38 234.864 1298.25 234.308 Z" fill="#000000" fill-rule="nonzero" fill-opacity="1" /><path clip-path="url(#clip700)" d="M1318.35 245.743 L1323.07 245.743 L1323.07 231.6 L1317.91 232.549 L1317.91 229.864 L1323.23 228.961 L1326.4 228.961 L1326.4 245.743 L1331.15 245.743 L1331.15 248.29 L1318.35 248.29 L1318.35 245.743 Z" fill="#000000" fill-rule="nonzero" fill-opacity="1" /><path clip-path="url(#clip700)" d="M1373.46 227.341 Q1375.06 224.47 1377.28 223.105 Q1379.5 221.739 1382.51 221.739 Q1386.56 221.739 1388.76 224.586 Q1390.96 227.41 1390.96 232.641 L1390.96 248.29 L1386.68 248.29 L1386.68 232.78 Q1386.68 229.054 1385.36 227.248 Q1384.04 225.442 1381.33 225.442 Q1378.02 225.442 1376.1 227.642 Q1374.18 229.841 1374.18 233.637 L1374.18 248.29 L1369.9 248.29 L1369.9 232.78 Q1369.9 229.03 1368.58 227.248 Q1367.26 225.442 1364.5 225.442 Q1361.24 225.442 1359.32 227.665 Q1357.4 229.864 1357.4 233.637 L1357.4 248.29 L1353.11 248.29 L1353.11 222.364 L1357.4 222.364 L1357.4 226.392 Q1358.86 224.007 1360.89 222.873 Q1362.93 221.739 1365.73 221.739 Q1368.55 221.739 1370.52 223.174 Q1372.51 224.609 1373.46 227.341 Z" fill="#000000" fill-rule="nonzero" fill-opacity="1" /><path clip-path="url(#clip700)" d="M1409.5 225.35 Q1406.08 225.35 1404.09 228.035 Q1402.1 230.697 1402.1 235.35 Q1402.1 240.003 1404.06 242.688 Q1406.05 245.35 1409.5 245.35 Q1412.91 245.35 1414.9 242.665 Q1416.89 239.979 1416.89 235.35 Q1416.89 230.743 1414.9 228.058 Q1412.91 225.35 1409.5 225.35 M1409.5 221.739 Q1415.06 221.739 1418.23 225.35 Q1421.4 228.961 1421.4 235.35 Q1421.4 241.716 1418.23 245.35 Q1415.06 248.961 1409.5 248.961 Q1403.92 248.961 1400.75 245.35 Q1397.61 241.716 1397.61 235.35 Q1397.61 228.961 1400.75 225.35 Q1403.92 221.739 1409.5 221.739 Z" fill="#000000" fill-rule="nonzero" fill-opacity="1" /><path clip-path="url(#clip700)" d="M1445.52 226.299 L1445.52 212.271 L1449.78 212.271 L1449.78 248.29 L1445.52 248.29 L1445.52 244.401 Q1444.18 246.715 1442.12 247.85 Q1440.08 248.961 1437.21 248.961 Q1432.51 248.961 1429.55 245.211 Q1426.61 241.461 1426.61 235.35 Q1426.61 229.239 1429.55 225.489 Q1432.51 221.739 1437.21 221.739 Q1440.08 221.739 1442.12 222.873 Q1444.18 223.984 1445.52 226.299 M1431.01 235.35 Q1431.01 240.049 1432.93 242.734 Q1434.87 245.396 1438.25 245.396 Q1441.63 245.396 1443.58 242.734 Q1445.52 240.049 1445.52 235.35 Q1445.52 230.651 1443.58 227.989 Q1441.63 225.304 1438.25 225.304 Q1434.87 225.304 1432.93 227.989 Q1431.01 230.651 1431.01 235.35 Z" fill="#000000" fill-rule="nonzero" fill-opacity="1" /><path clip-path="url(#clip700)" d="M1480.73 234.262 L1480.73 236.345 L1461.15 236.345 Q1461.42 240.743 1463.79 243.058 Q1466.17 245.35 1470.41 245.35 Q1472.86 245.35 1475.15 244.748 Q1477.47 244.146 1479.73 242.942 L1479.73 246.97 Q1477.44 247.942 1475.04 248.452 Q1472.63 248.961 1470.15 248.961 Q1463.95 248.961 1460.31 245.35 Q1456.7 241.739 1456.7 235.581 Q1456.7 229.216 1460.13 225.489 Q1463.58 221.739 1469.41 221.739 Q1474.64 221.739 1477.67 225.118 Q1480.73 228.475 1480.73 234.262 M1476.47 233.012 Q1476.42 229.517 1474.5 227.433 Q1472.6 225.35 1469.46 225.35 Q1465.89 225.35 1463.74 227.364 Q1461.61 229.378 1461.29 233.035 L1476.47 233.012 Z" fill="#000000" fill-rule="nonzero" fill-opacity="1" /><path clip-path="url(#clip700)" d="M1487.72 212.271 L1491.98 212.271 L1491.98 248.29 L1487.72 248.29 L1487.72 212.271 Z" fill="#000000" fill-rule="nonzero" fill-opacity="1" /></svg>
