<?xml version="1.0" encoding="utf-8"?>
<svg xmlns="http://www.w3.org/2000/svg" xmlns:xlink="http://www.w3.org/1999/xlink" width="672" height="480" viewBox="0 0 2688 1920">
<defs>
  <clipPath id="clip190">
    <rect x="0" y="0" width="2688" height="1920"/>
  </clipPath>
</defs>
<path clip-path="url(#clip190)" d="M0 1920 L2688 1920 L2688 0 L0 0  Z" fill="#ffffff" fill-rule="evenodd" fill-opacity="1"/>
<defs>
  <clipPath id="clip191">
    <rect x="537" y="0" width="1883" height="1883"/>
  </clipPath>
</defs>
<path clip-path="url(#clip190)" d="M196.168 1800.78 L2640.76 1800.78 L2640.76 47.2441 L196.168 47.2441  Z" fill="#ffffff" fill-rule="evenodd" fill-opacity="1"/>
<defs>
  <clipPath id="clip192">
    <rect x="196" y="47" width="2446" height="1755"/>
  </clipPath>
</defs>
<polyline clip-path="url(#clip192)" style="stroke:#000000; stroke-linecap:round; stroke-linejoin:round; stroke-width:2; stroke-opacity:0.1; fill:none" points="265.354,1800.78 265.354,47.2441 "/>
<polyline clip-path="url(#clip192)" style="stroke:#000000; stroke-linecap:round; stroke-linejoin:round; stroke-width:2; stroke-opacity:0.1; fill:none" points="649.723,1800.78 649.723,47.2441 "/>
<polyline clip-path="url(#clip192)" style="stroke:#000000; stroke-linecap:round; stroke-linejoin:round; stroke-width:2; stroke-opacity:0.1; fill:none" points="1034.09,1800.78 1034.09,47.2441 "/>
<polyline clip-path="url(#clip192)" style="stroke:#000000; stroke-linecap:round; stroke-linejoin:round; stroke-width:2; stroke-opacity:0.1; fill:none" points="1418.46,1800.78 1418.46,47.2441 "/>
<polyline clip-path="url(#clip192)" style="stroke:#000000; stroke-linecap:round; stroke-linejoin:round; stroke-width:2; stroke-opacity:0.1; fill:none" points="1802.83,1800.78 1802.83,47.2441 "/>
<polyline clip-path="url(#clip192)" style="stroke:#000000; stroke-linecap:round; stroke-linejoin:round; stroke-width:2; stroke-opacity:0.1; fill:none" points="2187.2,1800.78 2187.2,47.2441 "/>
<polyline clip-path="url(#clip192)" style="stroke:#000000; stroke-linecap:round; stroke-linejoin:round; stroke-width:2; stroke-opacity:0.1; fill:none" points="2571.57,1800.78 2571.57,47.2441 "/>
<polyline clip-path="url(#clip192)" style="stroke:#000000; stroke-linecap:round; stroke-linejoin:round; stroke-width:2; stroke-opacity:0.1; fill:none" points="196.168,1512.62 2640.76,1512.62 "/>
<polyline clip-path="url(#clip192)" style="stroke:#000000; stroke-linecap:round; stroke-linejoin:round; stroke-width:2; stroke-opacity:0.1; fill:none" points="196.168,1175.54 2640.76,1175.54 "/>
<polyline clip-path="url(#clip192)" style="stroke:#000000; stroke-linecap:round; stroke-linejoin:round; stroke-width:2; stroke-opacity:0.1; fill:none" points="196.168,838.454 2640.76,838.454 "/>
<polyline clip-path="url(#clip192)" style="stroke:#000000; stroke-linecap:round; stroke-linejoin:round; stroke-width:2; stroke-opacity:0.1; fill:none" points="196.168,501.371 2640.76,501.371 "/>
<polyline clip-path="url(#clip192)" style="stroke:#000000; stroke-linecap:round; stroke-linejoin:round; stroke-width:2; stroke-opacity:0.1; fill:none" points="196.168,164.289 2640.76,164.289 "/>
<polyline clip-path="url(#clip190)" style="stroke:#000000; stroke-linecap:round; stroke-linejoin:round; stroke-width:4; stroke-opacity:1; fill:none" points="196.168,1800.78 2640.76,1800.78 "/>
<polyline clip-path="url(#clip190)" style="stroke:#000000; stroke-linecap:round; stroke-linejoin:round; stroke-width:4; stroke-opacity:1; fill:none" points="265.354,1800.78 265.354,1781.88 "/>
<polyline clip-path="url(#clip190)" style="stroke:#000000; stroke-linecap:round; stroke-linejoin:round; stroke-width:4; stroke-opacity:1; fill:none" points="649.723,1800.78 649.723,1781.88 "/>
<polyline clip-path="url(#clip190)" style="stroke:#000000; stroke-linecap:round; stroke-linejoin:round; stroke-width:4; stroke-opacity:1; fill:none" points="1034.09,1800.78 1034.09,1781.88 "/>
<polyline clip-path="url(#clip190)" style="stroke:#000000; stroke-linecap:round; stroke-linejoin:round; stroke-width:4; stroke-opacity:1; fill:none" points="1418.46,1800.78 1418.46,1781.88 "/>
<polyline clip-path="url(#clip190)" style="stroke:#000000; stroke-linecap:round; stroke-linejoin:round; stroke-width:4; stroke-opacity:1; fill:none" points="1802.83,1800.78 1802.83,1781.88 "/>
<polyline clip-path="url(#clip190)" style="stroke:#000000; stroke-linecap:round; stroke-linejoin:round; stroke-width:4; stroke-opacity:1; fill:none" points="2187.2,1800.78 2187.2,1781.88 "/>
<polyline clip-path="url(#clip190)" style="stroke:#000000; stroke-linecap:round; stroke-linejoin:round; stroke-width:4; stroke-opacity:1; fill:none" points="2571.57,1800.78 2571.57,1781.88 "/>
<path clip-path="url(#clip190)" d="M265.354 1834 Q261.743 1834 259.915 1837.57 Q258.109 1841.11 258.109 1848.24 Q258.109 1855.34 259.915 1858.91 Q261.743 1862.45 265.354 1862.45 Q268.989 1862.45 270.794 1858.91 Q272.623 1855.34 272.623 1848.24 Q272.623 1841.11 270.794 1837.57 Q268.989 1834 265.354 1834 M265.354 1830.3 Q271.164 1830.3 274.22 1834.9 Q277.299 1839.49 277.299 1848.24 Q277.299 1856.96 274.22 1861.57 Q271.164 1866.15 265.354 1866.15 Q259.544 1866.15 256.465 1861.57 Q253.41 1856.96 253.41 1848.24 Q253.41 1839.49 256.465 1834.9 Q259.544 1830.3 265.354 1830.3 Z" fill="#000000" fill-rule="nonzero" fill-opacity="1" /><path clip-path="url(#clip190)" d="M640.105 1861.55 L647.744 1861.55 L647.744 1835.18 L639.434 1836.85 L639.434 1832.59 L647.698 1830.92 L652.374 1830.92 L652.374 1861.55 L660.013 1861.55 L660.013 1865.48 L640.105 1865.48 L640.105 1861.55 Z" fill="#000000" fill-rule="nonzero" fill-opacity="1" /><path clip-path="url(#clip190)" d="M1028.75 1861.55 L1045.06 1861.55 L1045.06 1865.48 L1023.12 1865.48 L1023.12 1861.55 Q1025.78 1858.79 1030.37 1854.16 Q1034.97 1849.51 1036.15 1848.17 Q1038.4 1845.65 1039.28 1843.91 Q1040.18 1842.15 1040.18 1840.46 Q1040.18 1837.71 1038.24 1835.97 Q1036.31 1834.23 1033.21 1834.23 Q1031.01 1834.23 1028.56 1835 Q1026.13 1835.76 1023.35 1837.31 L1023.35 1832.59 Q1026.18 1831.46 1028.63 1830.88 Q1031.08 1830.3 1033.12 1830.3 Q1038.49 1830.3 1041.69 1832.98 Q1044.88 1835.67 1044.88 1840.16 Q1044.88 1842.29 1044.07 1844.21 Q1043.28 1846.11 1041.18 1848.7 Q1040.6 1849.37 1037.5 1852.59 Q1034.39 1855.78 1028.75 1861.55 Z" fill="#000000" fill-rule="nonzero" fill-opacity="1" /><path clip-path="url(#clip190)" d="M1422.71 1846.85 Q1426.07 1847.57 1427.94 1849.84 Q1429.84 1852.1 1429.84 1855.44 Q1429.84 1860.55 1426.32 1863.35 Q1422.8 1866.15 1416.32 1866.15 Q1414.14 1866.15 1411.83 1865.71 Q1409.54 1865.3 1407.08 1864.44 L1407.08 1859.93 Q1409.03 1861.06 1411.34 1861.64 Q1413.66 1862.22 1416.18 1862.22 Q1420.58 1862.22 1422.87 1860.48 Q1425.19 1858.75 1425.19 1855.44 Q1425.19 1852.38 1423.03 1850.67 Q1420.9 1848.93 1417.08 1848.93 L1413.06 1848.93 L1413.06 1845.09 L1417.27 1845.09 Q1420.72 1845.09 1422.55 1843.72 Q1424.38 1842.34 1424.38 1839.74 Q1424.38 1837.08 1422.48 1835.67 Q1420.6 1834.23 1417.08 1834.23 Q1415.16 1834.23 1412.96 1834.65 Q1410.77 1835.07 1408.13 1835.95 L1408.13 1831.78 Q1410.79 1831.04 1413.1 1830.67 Q1415.44 1830.3 1417.5 1830.3 Q1422.83 1830.3 1425.93 1832.73 Q1429.03 1835.14 1429.03 1839.26 Q1429.03 1842.13 1427.39 1844.12 Q1425.74 1846.09 1422.71 1846.85 Z" fill="#000000" fill-rule="nonzero" fill-opacity="1" /><path clip-path="url(#clip190)" d="M1805.84 1835 L1794.03 1853.45 L1805.84 1853.45 L1805.84 1835 M1804.61 1830.92 L1810.49 1830.92 L1810.49 1853.45 L1815.42 1853.45 L1815.42 1857.34 L1810.49 1857.34 L1810.49 1865.48 L1805.84 1865.48 L1805.84 1857.34 L1790.24 1857.34 L1790.24 1852.82 L1804.61 1830.92 Z" fill="#000000" fill-rule="nonzero" fill-opacity="1" /><path clip-path="url(#clip190)" d="M2177.48 1830.92 L2195.83 1830.92 L2195.83 1834.86 L2181.76 1834.86 L2181.76 1843.33 Q2182.78 1842.98 2183.8 1842.82 Q2184.82 1842.64 2185.83 1842.64 Q2191.62 1842.64 2195 1845.81 Q2198.38 1848.98 2198.38 1854.4 Q2198.38 1859.97 2194.91 1863.08 Q2191.44 1866.15 2185.12 1866.15 Q2182.94 1866.15 2180.67 1865.78 Q2178.43 1865.41 2176.02 1864.67 L2176.02 1859.97 Q2178.1 1861.11 2180.33 1861.66 Q2182.55 1862.22 2185.02 1862.22 Q2189.03 1862.22 2191.37 1860.11 Q2193.7 1858.01 2193.7 1854.4 Q2193.7 1850.78 2191.37 1848.68 Q2189.03 1846.57 2185.02 1846.57 Q2183.15 1846.57 2181.27 1846.99 Q2179.42 1847.4 2177.48 1848.28 L2177.48 1830.92 Z" fill="#000000" fill-rule="nonzero" fill-opacity="1" /><path clip-path="url(#clip190)" d="M2571.97 1846.34 Q2568.83 1846.34 2566.97 1848.49 Q2565.15 1850.65 2565.15 1854.4 Q2565.15 1858.12 2566.97 1860.3 Q2568.83 1862.45 2571.97 1862.45 Q2575.12 1862.45 2576.95 1860.3 Q2578.8 1858.12 2578.8 1854.4 Q2578.8 1850.65 2576.95 1848.49 Q2575.12 1846.34 2571.97 1846.34 M2581.26 1831.69 L2581.26 1835.95 Q2579.5 1835.11 2577.69 1834.67 Q2575.91 1834.23 2574.15 1834.23 Q2569.52 1834.23 2567.07 1837.36 Q2564.64 1840.48 2564.29 1846.8 Q2565.66 1844.79 2567.72 1843.72 Q2569.78 1842.64 2572.25 1842.64 Q2577.46 1842.64 2580.47 1845.81 Q2583.5 1848.96 2583.5 1854.4 Q2583.5 1859.72 2580.35 1862.94 Q2577.21 1866.15 2571.97 1866.15 Q2565.98 1866.15 2562.81 1861.57 Q2559.64 1856.96 2559.64 1848.24 Q2559.64 1840.04 2563.53 1835.18 Q2567.41 1830.3 2573.97 1830.3 Q2575.72 1830.3 2577.51 1830.65 Q2579.31 1830.99 2581.26 1831.69 Z" fill="#000000" fill-rule="nonzero" fill-opacity="1" /><polyline clip-path="url(#clip190)" style="stroke:#000000; stroke-linecap:round; stroke-linejoin:round; stroke-width:4; stroke-opacity:1; fill:none" points="196.168,1800.78 196.168,47.2441 "/>
<polyline clip-path="url(#clip190)" style="stroke:#000000; stroke-linecap:round; stroke-linejoin:round; stroke-width:4; stroke-opacity:1; fill:none" points="196.168,1512.62 215.065,1512.62 "/>
<polyline clip-path="url(#clip190)" style="stroke:#000000; stroke-linecap:round; stroke-linejoin:round; stroke-width:4; stroke-opacity:1; fill:none" points="196.168,1175.54 215.065,1175.54 "/>
<polyline clip-path="url(#clip190)" style="stroke:#000000; stroke-linecap:round; stroke-linejoin:round; stroke-width:4; stroke-opacity:1; fill:none" points="196.168,838.454 215.065,838.454 "/>
<polyline clip-path="url(#clip190)" style="stroke:#000000; stroke-linecap:round; stroke-linejoin:round; stroke-width:4; stroke-opacity:1; fill:none" points="196.168,501.371 215.065,501.371 "/>
<polyline clip-path="url(#clip190)" style="stroke:#000000; stroke-linecap:round; stroke-linejoin:round; stroke-width:4; stroke-opacity:1; fill:none" points="196.168,164.289 215.065,164.289 "/>
<path clip-path="url(#clip190)" d="M49.5521 1513.07 L79.2279 1513.07 L79.2279 1517 L49.5521 1517 L49.5521 1513.07 Z" fill="#000000" fill-rule="nonzero" fill-opacity="1" /><path clip-path="url(#clip190)" d="M99.3204 1498.42 Q95.7093 1498.42 93.8806 1501.98 Q92.075 1505.52 92.075 1512.65 Q92.075 1519.76 93.8806 1523.32 Q95.7093 1526.87 99.3204 1526.87 Q102.955 1526.87 104.76 1523.32 Q106.589 1519.76 106.589 1512.65 Q106.589 1505.52 104.76 1501.98 Q102.955 1498.42 99.3204 1498.42 M99.3204 1494.71 Q105.131 1494.71 108.186 1499.32 Q111.265 1503.9 111.265 1512.65 Q111.265 1521.38 108.186 1525.99 Q105.131 1530.57 99.3204 1530.57 Q93.5102 1530.57 90.4315 1525.99 Q87.376 1521.38 87.376 1512.65 Q87.376 1503.9 90.4315 1499.32 Q93.5102 1494.71 99.3204 1494.71 Z" fill="#000000" fill-rule="nonzero" fill-opacity="1" /><path clip-path="url(#clip190)" d="M119.482 1524.02 L124.367 1524.02 L124.367 1529.9 L119.482 1529.9 L119.482 1524.02 Z" fill="#000000" fill-rule="nonzero" fill-opacity="1" /><path clip-path="url(#clip190)" d="M148.718 1511.26 Q152.075 1511.98 153.95 1514.25 Q155.848 1516.52 155.848 1519.85 Q155.848 1524.97 152.329 1527.77 Q148.811 1530.57 142.329 1530.57 Q140.153 1530.57 137.839 1530.13 Q135.547 1529.71 133.093 1528.86 L133.093 1524.34 Q135.038 1525.48 137.353 1526.06 Q139.667 1526.63 142.191 1526.63 Q146.589 1526.63 148.88 1524.9 Q151.195 1523.16 151.195 1519.85 Q151.195 1516.8 149.042 1515.08 Q146.913 1513.35 143.093 1513.35 L139.066 1513.35 L139.066 1509.5 L143.278 1509.5 Q146.728 1509.5 148.556 1508.14 Q150.385 1506.75 150.385 1504.16 Q150.385 1501.5 148.487 1500.08 Q146.612 1498.65 143.093 1498.65 Q141.172 1498.65 138.973 1499.07 Q136.774 1499.48 134.135 1500.36 L134.135 1496.19 Q136.797 1495.45 139.112 1495.08 Q141.45 1494.71 143.51 1494.71 Q148.834 1494.71 151.936 1497.14 Q155.038 1499.55 155.038 1503.67 Q155.038 1506.54 153.394 1508.53 Q151.751 1510.5 148.718 1511.26 Z" fill="#000000" fill-rule="nonzero" fill-opacity="1" /><path clip-path="url(#clip190)" d="M98.6722 1161.33 Q95.0611 1161.33 93.2324 1164.9 Q91.4269 1168.44 91.4269 1175.57 Q91.4269 1182.68 93.2324 1186.24 Q95.0611 1189.78 98.6722 1189.78 Q102.306 1189.78 104.112 1186.24 Q105.941 1182.68 105.941 1175.57 Q105.941 1168.44 104.112 1164.9 Q102.306 1161.33 98.6722 1161.33 M98.6722 1157.63 Q104.482 1157.63 107.538 1162.24 Q110.617 1166.82 110.617 1175.57 Q110.617 1184.3 107.538 1188.9 Q104.482 1193.49 98.6722 1193.49 Q92.8621 1193.49 89.7834 1188.9 Q86.7279 1184.3 86.7279 1175.57 Q86.7279 1166.82 89.7834 1162.24 Q92.8621 1157.63 98.6722 1157.63 Z" fill="#000000" fill-rule="nonzero" fill-opacity="1" /><path clip-path="url(#clip190)" d="M118.834 1186.94 L123.718 1186.94 L123.718 1192.82 L118.834 1192.82 L118.834 1186.94 Z" fill="#000000" fill-rule="nonzero" fill-opacity="1" /><path clip-path="url(#clip190)" d="M143.903 1161.33 Q140.292 1161.33 138.464 1164.9 Q136.658 1168.44 136.658 1175.57 Q136.658 1182.68 138.464 1186.24 Q140.292 1189.78 143.903 1189.78 Q147.538 1189.78 149.343 1186.24 Q151.172 1182.68 151.172 1175.57 Q151.172 1168.44 149.343 1164.9 Q147.538 1161.33 143.903 1161.33 M143.903 1157.63 Q149.714 1157.63 152.769 1162.24 Q155.848 1166.82 155.848 1175.57 Q155.848 1184.3 152.769 1188.9 Q149.714 1193.49 143.903 1193.49 Q138.093 1193.49 135.015 1188.9 Q131.959 1184.3 131.959 1175.57 Q131.959 1166.82 135.015 1162.24 Q138.093 1157.63 143.903 1157.63 Z" fill="#000000" fill-rule="nonzero" fill-opacity="1" /><path clip-path="url(#clip190)" d="M99.3204 824.252 Q95.7093 824.252 93.8806 827.817 Q92.075 831.359 92.075 838.488 Q92.075 845.595 93.8806 849.16 Q95.7093 852.701 99.3204 852.701 Q102.955 852.701 104.76 849.16 Q106.589 845.595 106.589 838.488 Q106.589 831.359 104.76 827.817 Q102.955 824.252 99.3204 824.252 M99.3204 820.549 Q105.131 820.549 108.186 825.155 Q111.265 829.738 111.265 838.488 Q111.265 847.215 108.186 851.822 Q105.131 856.405 99.3204 856.405 Q93.5102 856.405 90.4315 851.822 Q87.376 847.215 87.376 838.488 Q87.376 829.738 90.4315 825.155 Q93.5102 820.549 99.3204 820.549 Z" fill="#000000" fill-rule="nonzero" fill-opacity="1" /><path clip-path="url(#clip190)" d="M119.482 849.854 L124.367 849.854 L124.367 855.734 L119.482 855.734 L119.482 849.854 Z" fill="#000000" fill-rule="nonzero" fill-opacity="1" /><path clip-path="url(#clip190)" d="M148.718 837.099 Q152.075 837.817 153.95 840.086 Q155.848 842.354 155.848 845.687 Q155.848 850.803 152.329 853.604 Q148.811 856.405 142.329 856.405 Q140.153 856.405 137.839 855.965 Q135.547 855.548 133.093 854.692 L133.093 850.178 Q135.038 851.312 137.353 851.891 Q139.667 852.47 142.191 852.47 Q146.589 852.47 148.88 850.734 Q151.195 848.998 151.195 845.687 Q151.195 842.632 149.042 840.919 Q146.913 839.183 143.093 839.183 L139.066 839.183 L139.066 835.34 L143.278 835.34 Q146.728 835.34 148.556 833.974 Q150.385 832.586 150.385 829.993 Q150.385 827.331 148.487 825.919 Q146.612 824.484 143.093 824.484 Q141.172 824.484 138.973 824.9 Q136.774 825.317 134.135 826.197 L134.135 822.03 Q136.797 821.289 139.112 820.919 Q141.45 820.549 143.51 820.549 Q148.834 820.549 151.936 822.979 Q155.038 825.387 155.038 829.507 Q155.038 832.377 153.394 834.368 Q151.751 836.336 148.718 837.099 Z" fill="#000000" fill-rule="nonzero" fill-opacity="1" /><path clip-path="url(#clip190)" d="M98.5102 487.17 Q94.8991 487.17 93.0704 490.735 Q91.2649 494.276 91.2649 501.406 Q91.2649 508.512 93.0704 512.077 Q94.8991 515.619 98.5102 515.619 Q102.144 515.619 103.95 512.077 Q105.779 508.512 105.779 501.406 Q105.779 494.276 103.95 490.735 Q102.144 487.17 98.5102 487.17 M98.5102 483.466 Q104.32 483.466 107.376 488.073 Q110.455 492.656 110.455 501.406 Q110.455 510.133 107.376 514.739 Q104.32 519.323 98.5102 519.323 Q92.7 519.323 89.6214 514.739 Q86.5658 510.133 86.5658 501.406 Q86.5658 492.656 89.6214 488.073 Q92.7 483.466 98.5102 483.466 Z" fill="#000000" fill-rule="nonzero" fill-opacity="1" /><path clip-path="url(#clip190)" d="M118.672 512.772 L123.556 512.772 L123.556 518.651 L118.672 518.651 L118.672 512.772 Z" fill="#000000" fill-rule="nonzero" fill-opacity="1" /><path clip-path="url(#clip190)" d="M144.32 499.508 Q141.172 499.508 139.32 501.661 Q137.491 503.813 137.491 507.563 Q137.491 511.29 139.32 513.466 Q141.172 515.619 144.32 515.619 Q147.468 515.619 149.297 513.466 Q151.149 511.29 151.149 507.563 Q151.149 503.813 149.297 501.661 Q147.468 499.508 144.32 499.508 M153.602 484.855 L153.602 489.114 Q151.843 488.281 150.038 487.841 Q148.255 487.401 146.496 487.401 Q141.866 487.401 139.413 490.526 Q136.982 493.651 136.635 499.971 Q138.001 497.957 140.061 496.892 Q142.121 495.804 144.598 495.804 Q149.806 495.804 152.815 498.975 Q155.848 502.124 155.848 507.563 Q155.848 512.887 152.7 516.105 Q149.552 519.323 144.32 519.323 Q138.325 519.323 135.154 514.739 Q131.982 510.133 131.982 501.406 Q131.982 493.212 135.871 488.35 Q139.76 483.466 146.311 483.466 Q148.07 483.466 149.853 483.813 Q151.658 484.161 153.602 484.855 Z" fill="#000000" fill-rule="nonzero" fill-opacity="1" /><path clip-path="url(#clip190)" d="M98.8574 150.088 Q95.2463 150.088 93.4176 153.652 Q91.6121 157.194 91.6121 164.324 Q91.6121 171.43 93.4176 174.995 Q95.2463 178.537 98.8574 178.537 Q102.492 178.537 104.297 174.995 Q106.126 171.43 106.126 164.324 Q106.126 157.194 104.297 153.652 Q102.492 150.088 98.8574 150.088 M98.8574 146.384 Q104.668 146.384 107.723 150.99 Q110.802 155.574 110.802 164.324 Q110.802 173.05 107.723 177.657 Q104.668 182.24 98.8574 182.24 Q93.0473 182.24 89.9686 177.657 Q86.913 173.05 86.913 164.324 Q86.913 155.574 89.9686 150.99 Q93.0473 146.384 98.8574 146.384 Z" fill="#000000" fill-rule="nonzero" fill-opacity="1" /><path clip-path="url(#clip190)" d="M119.019 175.689 L123.904 175.689 L123.904 181.569 L119.019 181.569 L119.019 175.689 Z" fill="#000000" fill-rule="nonzero" fill-opacity="1" /><path clip-path="url(#clip190)" d="M134.228 180.851 L134.228 176.592 Q135.987 177.425 137.792 177.865 Q139.598 178.305 141.334 178.305 Q145.964 178.305 148.394 175.203 Q150.848 172.078 151.195 165.736 Q149.853 167.726 147.792 168.791 Q145.732 169.856 143.232 169.856 Q138.047 169.856 135.015 166.731 Q132.005 163.583 132.005 158.143 Q132.005 152.819 135.154 149.601 Q138.302 146.384 143.533 146.384 Q149.528 146.384 152.677 150.99 Q155.848 155.574 155.848 164.324 Q155.848 172.495 151.959 177.379 Q148.093 182.24 141.542 182.24 Q139.783 182.24 137.978 181.893 Q136.172 181.546 134.228 180.851 M143.533 166.199 Q146.681 166.199 148.51 164.046 Q150.362 161.893 150.362 158.143 Q150.362 154.416 148.51 152.264 Q146.681 150.088 143.533 150.088 Q140.385 150.088 138.533 152.264 Q136.704 154.416 136.704 158.143 Q136.704 161.893 138.533 164.046 Q140.385 166.199 143.533 166.199 Z" fill="#000000" fill-rule="nonzero" fill-opacity="1" /><polyline clip-path="url(#clip192)" style="stroke:#009af9; stroke-linecap:round; stroke-linejoin:round; stroke-width:4; stroke-opacity:1; fill:none" points="265.354,1175.54 288.416,1175.54 311.479,1175.54 334.541,1175.54 357.603,1175.54 380.665,1175.54 403.727,1175.54 426.789,1175.54 449.852,1175.54 472.914,1175.54 495.976,1175.54 519.038,1175.54 542.1,1175.54 565.162,1175.54 588.224,1175.54 611.287,1175.54 634.349,1175.54 657.411,1175.54 680.473,1175.54 703.535,1175.54 726.597,1175.54 749.659,1175.54 772.722,1175.54 795.784,1175.54 818.846,1175.54 841.908,1175.54 864.97,1175.53 888.032,1175.53 911.095,1175.55 934.157,1175.59 957.219,1175.47 980.281,1175.22 1003.34,1175.91 1026.41,1177.35 1049.47,1173.34 1072.53,1156.52 1095.59,1120.91 1118.65,1064.06 1141.72,996.135 1164.78,928.03 1187.84,860.861 1210.9,793.563 1233.96,726.104 1257.03,658.667 1280.09,591.258 1303.15,523.845 1326.21,456.427 1349.28,389.01 1372.34,321.594 1395.4,254.178 1418.46,186.761 1441.52,124.963 1464.59,96.8724 1487.65,124.963 1510.71,186.761 1533.77,254.178 1556.83,321.594 1579.9,389.01 1602.96,456.427 1626.02,523.845 1649.08,591.258 1672.15,658.667 1695.21,726.104 1718.27,793.563 1741.33,860.861 1764.39,928.03 1787.46,996.135 1810.52,1064.06 1833.58,1120.91 1856.64,1156.52 1879.7,1173.34 1902.77,1177.35 1925.83,1175.91 1948.89,1175.22 1971.95,1175.47 1995.02,1175.59 2018.08,1175.55 2041.14,1175.53 2064.2,1175.53 2087.26,1175.54 2110.33,1175.54 2133.39,1175.54 2156.45,1175.54 2179.51,1175.54 2202.58,1175.54 2225.64,1175.54 2248.7,1175.54 2271.76,1175.54 2294.82,1175.54 2317.89,1175.54 2340.95,1175.54 2364.01,1175.54 2387.07,1175.54 2410.13,1175.54 2433.2,1175.54 2456.26,1175.54 2479.32,1175.54 2502.38,1175.54 2525.45,1175.54 2548.51,1175.54 2571.57,1175.54 "/>
<polyline clip-path="url(#clip192)" style="stroke:#e26f46; stroke-linecap:round; stroke-linejoin:round; stroke-width:4; stroke-opacity:1; fill:none" points="265.354,941.906 288.416,941.812 311.479,941.527 334.541,941.05 357.603,940.379 380.665,939.511 403.727,938.439 426.789,937.16 449.852,935.665 472.914,933.946 495.976,931.992 519.038,929.793 542.1,927.333 565.162,924.598 588.224,921.569 611.287,918.225 634.349,914.541 657.411,910.489 680.473,906.035 703.535,901.142 726.597,895.764 749.659,889.847 772.722,883.328 795.784,876.132 818.846,868.165 841.908,859.312 864.97,849.433 888.032,838.361 911.095,825.863 934.157,811.551 957.219,795.012 980.281,776.08 1003.34,753.681 1026.41,723.406 1049.47,681.782 1072.53,630.82 1095.59,576.277 1118.65,529.995 1141.72,501.64 1164.78,488.014 1187.84,483.1 1210.9,485.463 1233.96,494.936 1257.03,511.285 1280.09,534.444 1303.15,564.654 1326.21,602.43 1349.28,648.607 1372.34,704.53 1395.4,772.489 1418.46,857.092 1441.52,971.064 1464.59,1117.92 1487.65,1264.77 1510.71,1378.71 1533.77,1463.25 1556.83,1531.14 1579.9,1586.96 1602.96,1633.02 1626.02,1670.65 1649.08,1700.7 1672.15,1723.67 1695.21,1739.81 1718.27,1749.05 1741.33,1751.15 1764.39,1745.96 1787.46,1732.03 1810.52,1703.34 1833.58,1656.71 1856.64,1601.78 1879.7,1550.42 1902.77,1508.36 1925.83,1477.63 1948.89,1454.75 1971.95,1435.3 1995.02,1418.22 2018.08,1403.34 2041.14,1390.24 2064.2,1378.53 2087.26,1367.99 2110.33,1358.44 2133.39,1349.74 2156.45,1341.78 2179.51,1334.46 2202.58,1327.7 2225.64,1321.45 2248.7,1315.64 2271.76,1310.22 2294.82,1305.17 2317.89,1300.44 2340.95,1296 2364.01,1291.83 2387.07,1287.9 2410.13,1284.19 2433.2,1280.69 2456.26,1277.38 2479.32,1274.24 2502.38,1271.26 2525.45,1268.43 2548.51,1265.74 2571.57,1263.17 "/>
<path clip-path="url(#clip190)" d="M2115.02 261.215 L2559.27 261.215 L2559.27 105.695 L2115.02 105.695  Z" fill="#ffffff" fill-rule="evenodd" fill-opacity="1"/>
<polyline clip-path="url(#clip190)" style="stroke:#000000; stroke-linecap:round; stroke-linejoin:round; stroke-width:4; stroke-opacity:1; fill:none" points="2115.02,261.215 2559.27,261.215 2559.27,105.695 2115.02,105.695 2115.02,261.215 "/>
<polyline clip-path="url(#clip190)" style="stroke:#009af9; stroke-linecap:round; stroke-linejoin:round; stroke-width:4; stroke-opacity:1; fill:none" points="2142.18,157.535 2305.15,157.535 "/>
<path clip-path="url(#clip190)" d="M2338.38 160.834 Q2335.79 160.278 2334.4 158.774 Q2333.01 157.292 2333.01 155.139 Q2333.01 151.876 2335.65 150.047 Q2338.27 148.241 2342.8 148.241 Q2344.56 148.241 2346.53 148.519 Q2348.5 148.797 2350.77 149.352 L2350.77 153.218 Q2348.52 152.547 2346.67 152.246 Q2344.79 151.945 2343.15 151.945 Q2340.4 151.945 2338.8 153.01 Q2337.18 154.075 2337.18 155.556 Q2337.18 157.176 2338.75 158.218 Q2340.3 159.237 2342.99 159.237 L2346.58 159.237 L2346.58 162.755 L2343.15 162.755 Q2339.98 162.755 2338.31 163.936 Q2336.51 165.232 2336.51 167.269 Q2336.51 169.352 2338.45 170.649 Q2340.42 171.945 2343.91 171.945 Q2346.07 171.945 2348.03 171.528 Q2350 171.088 2351.65 170.232 L2351.65 174.19 Q2349.56 174.838 2347.62 175.162 Q2345.65 175.487 2343.8 175.487 Q2338.29 175.487 2335.3 173.38 Q2332.32 171.274 2332.32 167.269 Q2332.32 164.769 2333.91 163.079 Q2335.51 161.389 2338.38 160.834 Z" fill="#000000" fill-rule="nonzero" fill-opacity="1" /><path clip-path="url(#clip190)" d="M2361.07 172.176 L2370.88 172.176 L2370.88 174.815 L2357.04 174.815 L2357.04 172.269 Q2357.83 171.551 2359.28 170.255 Q2367.25 163.195 2367.25 161.019 Q2367.25 159.491 2366.04 158.565 Q2364.84 157.616 2362.87 157.616 Q2361.67 157.616 2360.26 158.033 Q2358.84 158.426 2357.18 159.237 L2357.18 156.389 Q2358.96 155.741 2360.49 155.417 Q2362.04 155.093 2363.36 155.093 Q2366.71 155.093 2368.73 156.621 Q2370.74 158.149 2370.74 160.649 Q2370.74 163.866 2363.08 170.44 Q2361.78 171.551 2361.07 172.176 Z" fill="#000000" fill-rule="nonzero" fill-opacity="1" /><path clip-path="url(#clip190)" d="M2413.59 153.866 Q2415.19 150.996 2417.41 149.63 Q2419.63 148.264 2422.64 148.264 Q2426.69 148.264 2428.89 151.112 Q2431.09 153.936 2431.09 159.167 L2431.09 174.815 L2426.81 174.815 L2426.81 159.306 Q2426.81 155.579 2425.49 153.774 Q2424.17 151.968 2421.46 151.968 Q2418.15 151.968 2416.23 154.167 Q2414.31 156.366 2414.31 160.163 L2414.31 174.815 L2410.02 174.815 L2410.02 159.306 Q2410.02 155.556 2408.71 153.774 Q2407.39 151.968 2404.63 151.968 Q2401.37 151.968 2399.45 154.19 Q2397.52 156.389 2397.52 160.163 L2397.52 174.815 L2393.24 174.815 L2393.24 148.889 L2397.52 148.889 L2397.52 152.917 Q2398.98 150.533 2401.02 149.399 Q2403.06 148.264 2405.86 148.264 Q2408.68 148.264 2410.65 149.7 Q2412.64 151.135 2413.59 153.866 Z" fill="#000000" fill-rule="nonzero" fill-opacity="1" /><path clip-path="url(#clip190)" d="M2449.63 151.876 Q2446.21 151.876 2444.21 154.561 Q2442.22 157.223 2442.22 161.876 Q2442.22 166.528 2444.19 169.213 Q2446.18 171.875 2449.63 171.875 Q2453.03 171.875 2455.02 169.19 Q2457.02 166.505 2457.02 161.876 Q2457.02 157.269 2455.02 154.584 Q2453.03 151.876 2449.63 151.876 M2449.63 148.264 Q2455.19 148.264 2458.36 151.876 Q2461.53 155.487 2461.53 161.876 Q2461.53 168.241 2458.36 171.875 Q2455.19 175.487 2449.63 175.487 Q2444.05 175.487 2440.88 171.875 Q2437.73 168.241 2437.73 161.876 Q2437.73 155.487 2440.88 151.876 Q2444.05 148.264 2449.63 148.264 Z" fill="#000000" fill-rule="nonzero" fill-opacity="1" /><path clip-path="url(#clip190)" d="M2485.65 152.825 L2485.65 138.797 L2489.91 138.797 L2489.91 174.815 L2485.65 174.815 L2485.65 170.926 Q2484.31 173.241 2482.25 174.375 Q2480.21 175.487 2477.34 175.487 Q2472.64 175.487 2469.68 171.737 Q2466.74 167.987 2466.74 161.876 Q2466.74 155.764 2469.68 152.014 Q2472.64 148.264 2477.34 148.264 Q2480.21 148.264 2482.25 149.399 Q2484.31 150.51 2485.65 152.825 M2471.14 161.876 Q2471.14 166.575 2473.06 169.26 Q2475 171.922 2478.38 171.922 Q2481.76 171.922 2483.71 169.26 Q2485.65 166.575 2485.65 161.876 Q2485.65 157.176 2483.71 154.514 Q2481.76 151.829 2478.38 151.829 Q2475 151.829 2473.06 154.514 Q2471.14 157.176 2471.14 161.876 Z" fill="#000000" fill-rule="nonzero" fill-opacity="1" /><path clip-path="url(#clip190)" d="M2520.86 160.788 L2520.86 162.871 L2501.27 162.871 Q2501.55 167.269 2503.91 169.584 Q2506.3 171.875 2510.53 171.875 Q2512.99 171.875 2515.28 171.274 Q2517.59 170.672 2519.86 169.468 L2519.86 173.496 Q2517.57 174.468 2515.16 174.977 Q2512.76 175.487 2510.28 175.487 Q2504.08 175.487 2500.44 171.875 Q2496.83 168.264 2496.83 162.107 Q2496.83 155.741 2500.26 152.014 Q2503.7 148.264 2509.54 148.264 Q2514.77 148.264 2517.8 151.644 Q2520.86 155.001 2520.86 160.788 M2516.6 159.538 Q2516.55 156.042 2514.63 153.959 Q2512.73 151.876 2509.58 151.876 Q2506.02 151.876 2503.87 153.889 Q2501.74 155.903 2501.41 159.561 L2516.6 159.538 Z" fill="#000000" fill-rule="nonzero" fill-opacity="1" /><path clip-path="url(#clip190)" d="M2527.85 138.797 L2532.11 138.797 L2532.11 174.815 L2527.85 174.815 L2527.85 138.797 Z" fill="#000000" fill-rule="nonzero" fill-opacity="1" /><polyline clip-path="url(#clip190)" style="stroke:#e26f46; stroke-linecap:round; stroke-linejoin:round; stroke-width:4; stroke-opacity:1; fill:none" points="2142.18,209.375 2305.15,209.375 "/>
<path clip-path="url(#clip190)" d="M2338.38 212.674 Q2335.79 212.118 2334.4 210.614 Q2333.01 209.132 2333.01 206.979 Q2333.01 203.716 2335.65 201.887 Q2338.27 200.081 2342.8 200.081 Q2344.56 200.081 2346.53 200.359 Q2348.5 200.637 2350.77 201.192 L2350.77 205.058 Q2348.52 204.387 2346.67 204.086 Q2344.79 203.785 2343.15 203.785 Q2340.4 203.785 2338.8 204.85 Q2337.18 205.915 2337.18 207.396 Q2337.18 209.016 2338.75 210.058 Q2340.3 211.077 2342.99 211.077 L2346.58 211.077 L2346.58 214.595 L2343.15 214.595 Q2339.98 214.595 2338.31 215.776 Q2336.51 217.072 2336.51 219.109 Q2336.51 221.192 2338.45 222.489 Q2340.42 223.785 2343.91 223.785 Q2346.07 223.785 2348.03 223.368 Q2350 222.928 2351.65 222.072 L2351.65 226.03 Q2349.56 226.678 2347.62 227.002 Q2345.65 227.327 2343.8 227.327 Q2338.29 227.327 2335.3 225.22 Q2332.32 223.114 2332.32 219.109 Q2332.32 216.609 2333.91 214.919 Q2335.51 213.229 2338.38 212.674 Z" fill="#000000" fill-rule="nonzero" fill-opacity="1" /><path clip-path="url(#clip190)" d="M2358.47 224.109 L2363.2 224.109 L2363.2 209.966 L2358.03 210.915 L2358.03 208.229 L2363.36 207.327 L2366.53 207.327 L2366.53 224.109 L2371.28 224.109 L2371.28 226.655 L2358.47 226.655 L2358.47 224.109 Z" fill="#000000" fill-rule="nonzero" fill-opacity="1" /><path clip-path="url(#clip190)" d="M2413.59 205.706 Q2415.19 202.836 2417.41 201.47 Q2419.63 200.104 2422.64 200.104 Q2426.69 200.104 2428.89 202.952 Q2431.09 205.776 2431.09 211.007 L2431.09 226.655 L2426.81 226.655 L2426.81 211.146 Q2426.81 207.419 2425.49 205.614 Q2424.17 203.808 2421.46 203.808 Q2418.15 203.808 2416.23 206.007 Q2414.31 208.206 2414.31 212.003 L2414.31 226.655 L2410.02 226.655 L2410.02 211.146 Q2410.02 207.396 2408.71 205.614 Q2407.39 203.808 2404.63 203.808 Q2401.37 203.808 2399.45 206.03 Q2397.52 208.229 2397.52 212.003 L2397.52 226.655 L2393.24 226.655 L2393.24 200.729 L2397.52 200.729 L2397.52 204.757 Q2398.98 202.373 2401.02 201.239 Q2403.06 200.104 2405.86 200.104 Q2408.68 200.104 2410.65 201.54 Q2412.64 202.975 2413.59 205.706 Z" fill="#000000" fill-rule="nonzero" fill-opacity="1" /><path clip-path="url(#clip190)" d="M2449.63 203.716 Q2446.21 203.716 2444.21 206.401 Q2442.22 209.063 2442.22 213.716 Q2442.22 218.368 2444.19 221.053 Q2446.18 223.715 2449.63 223.715 Q2453.03 223.715 2455.02 221.03 Q2457.02 218.345 2457.02 213.716 Q2457.02 209.109 2455.02 206.424 Q2453.03 203.716 2449.63 203.716 M2449.63 200.104 Q2455.19 200.104 2458.36 203.716 Q2461.53 207.327 2461.53 213.716 Q2461.53 220.081 2458.36 223.715 Q2455.19 227.327 2449.63 227.327 Q2444.05 227.327 2440.88 223.715 Q2437.73 220.081 2437.73 213.716 Q2437.73 207.327 2440.88 203.716 Q2444.05 200.104 2449.63 200.104 Z" fill="#000000" fill-rule="nonzero" fill-opacity="1" /><path clip-path="url(#clip190)" d="M2485.65 204.665 L2485.65 190.637 L2489.91 190.637 L2489.91 226.655 L2485.65 226.655 L2485.65 222.766 Q2484.31 225.081 2482.25 226.215 Q2480.21 227.327 2477.34 227.327 Q2472.64 227.327 2469.68 223.577 Q2466.74 219.827 2466.74 213.716 Q2466.74 207.604 2469.68 203.854 Q2472.64 200.104 2477.34 200.104 Q2480.21 200.104 2482.25 201.239 Q2484.31 202.35 2485.65 204.665 M2471.14 213.716 Q2471.14 218.415 2473.06 221.1 Q2475 223.762 2478.38 223.762 Q2481.76 223.762 2483.71 221.1 Q2485.65 218.415 2485.65 213.716 Q2485.65 209.016 2483.71 206.354 Q2481.76 203.669 2478.38 203.669 Q2475 203.669 2473.06 206.354 Q2471.14 209.016 2471.14 213.716 Z" fill="#000000" fill-rule="nonzero" fill-opacity="1" /><path clip-path="url(#clip190)" d="M2520.86 212.628 L2520.86 214.711 L2501.27 214.711 Q2501.55 219.109 2503.91 221.424 Q2506.3 223.715 2510.53 223.715 Q2512.99 223.715 2515.28 223.114 Q2517.59 222.512 2519.86 221.308 L2519.86 225.336 Q2517.57 226.308 2515.16 226.817 Q2512.76 227.327 2510.28 227.327 Q2504.08 227.327 2500.44 223.715 Q2496.83 220.104 2496.83 213.947 Q2496.83 207.581 2500.26 203.854 Q2503.7 200.104 2509.54 200.104 Q2514.77 200.104 2517.8 203.484 Q2520.86 206.841 2520.86 212.628 M2516.6 211.378 Q2516.55 207.882 2514.63 205.799 Q2512.73 203.716 2509.58 203.716 Q2506.02 203.716 2503.87 205.729 Q2501.74 207.743 2501.41 211.401 L2516.6 211.378 Z" fill="#000000" fill-rule="nonzero" fill-opacity="1" /><path clip-path="url(#clip190)" d="M2527.85 190.637 L2532.11 190.637 L2532.11 226.655 L2527.85 226.655 L2527.85 190.637 Z" fill="#000000" fill-rule="nonzero" fill-opacity="1" /></svg>
