<?xml version="1.0" encoding="utf-8"?>
<svg xmlns="http://www.w3.org/2000/svg" xmlns:xlink="http://www.w3.org/1999/xlink" width="400" height="250" viewBox="0 0 1600 1000">
<defs>
  <clipPath id="clip990">
    <rect x="0" y="0" width="1600" height="1000"/>
  </clipPath>
</defs>
<path clip-path="url(#clip990)" d="M0 1000 L1600 1000 L1600 0 L0 0  Z" fill="#ffffff" fill-rule="evenodd" fill-opacity="1"/>
<defs>
  <clipPath id="clip991">
    <rect x="320" y="0" width="1121" height="1000"/>
  </clipPath>
</defs>
<path clip-path="url(#clip990)" d="M185.288 894.608 L1552.76 894.608 L1552.76 47.2441 L185.288 47.2441  Z" fill="#ffffff" fill-rule="evenodd" fill-opacity="1"/>
<defs>
  <clipPath id="clip992">
    <rect x="185" y="47" width="1368" height="848"/>
  </clipPath>
</defs>
<polyline clip-path="url(#clip992)" style="stroke:#000000; stroke-linecap:round; stroke-linejoin:round; stroke-width:2; stroke-opacity:0.1; fill:none" points="361.371,894.608 361.371,47.2441 "/>
<polyline clip-path="url(#clip992)" style="stroke:#000000; stroke-linecap:round; stroke-linejoin:round; stroke-width:2; stroke-opacity:0.1; fill:none" points="615.196,894.608 615.196,47.2441 "/>
<polyline clip-path="url(#clip992)" style="stroke:#000000; stroke-linecap:round; stroke-linejoin:round; stroke-width:2; stroke-opacity:0.1; fill:none" points="869.022,894.608 869.022,47.2441 "/>
<polyline clip-path="url(#clip992)" style="stroke:#000000; stroke-linecap:round; stroke-linejoin:round; stroke-width:2; stroke-opacity:0.1; fill:none" points="1122.85,894.608 1122.85,47.2441 "/>
<polyline clip-path="url(#clip992)" style="stroke:#000000; stroke-linecap:round; stroke-linejoin:round; stroke-width:2; stroke-opacity:0.1; fill:none" points="1376.67,894.608 1376.67,47.2441 "/>
<polyline clip-path="url(#clip992)" style="stroke:#000000; stroke-linecap:round; stroke-linejoin:round; stroke-width:2; stroke-opacity:0.1; fill:none" points="185.288,765.268 1552.76,765.268 "/>
<polyline clip-path="url(#clip992)" style="stroke:#000000; stroke-linecap:round; stroke-linejoin:round; stroke-width:2; stroke-opacity:0.1; fill:none" points="185.288,605.084 1552.76,605.084 "/>
<polyline clip-path="url(#clip992)" style="stroke:#000000; stroke-linecap:round; stroke-linejoin:round; stroke-width:2; stroke-opacity:0.1; fill:none" points="185.288,444.901 1552.76,444.901 "/>
<polyline clip-path="url(#clip992)" style="stroke:#000000; stroke-linecap:round; stroke-linejoin:round; stroke-width:2; stroke-opacity:0.1; fill:none" points="185.288,284.718 1552.76,284.718 "/>
<polyline clip-path="url(#clip992)" style="stroke:#000000; stroke-linecap:round; stroke-linejoin:round; stroke-width:2; stroke-opacity:0.1; fill:none" points="185.288,124.534 1552.76,124.534 "/>
<polyline clip-path="url(#clip990)" style="stroke:#000000; stroke-linecap:round; stroke-linejoin:round; stroke-width:4; stroke-opacity:1; fill:none" points="185.288,894.608 1552.76,894.608 "/>
<polyline clip-path="url(#clip990)" style="stroke:#000000; stroke-linecap:round; stroke-linejoin:round; stroke-width:4; stroke-opacity:1; fill:none" points="361.371,894.608 361.371,875.71 "/>
<polyline clip-path="url(#clip990)" style="stroke:#000000; stroke-linecap:round; stroke-linejoin:round; stroke-width:4; stroke-opacity:1; fill:none" points="615.196,894.608 615.196,875.71 "/>
<polyline clip-path="url(#clip990)" style="stroke:#000000; stroke-linecap:round; stroke-linejoin:round; stroke-width:4; stroke-opacity:1; fill:none" points="869.022,894.608 869.022,875.71 "/>
<polyline clip-path="url(#clip990)" style="stroke:#000000; stroke-linecap:round; stroke-linejoin:round; stroke-width:4; stroke-opacity:1; fill:none" points="1122.85,894.608 1122.85,875.71 "/>
<polyline clip-path="url(#clip990)" style="stroke:#000000; stroke-linecap:round; stroke-linejoin:round; stroke-width:4; stroke-opacity:1; fill:none" points="1376.67,894.608 1376.67,875.71 "/>
<path clip-path="url(#clip990)" d="M321.417 949.89 L321.417 945.631 Q323.176 946.464 324.982 946.904 Q326.787 947.344 328.524 947.344 Q333.153 947.344 335.584 944.242 Q338.037 941.117 338.385 934.775 Q337.042 936.765 334.982 937.83 Q332.922 938.895 330.422 938.895 Q325.237 938.895 322.204 935.77 Q319.195 932.622 319.195 927.182 Q319.195 921.858 322.343 918.64 Q325.491 915.423 330.723 915.423 Q336.718 915.423 339.866 920.029 Q343.037 924.613 343.037 933.363 Q343.037 941.534 339.149 946.418 Q335.283 951.279 328.732 951.279 Q326.973 951.279 325.167 950.932 Q323.362 950.585 321.417 949.89 M330.723 935.238 Q333.871 935.238 335.699 933.085 Q337.551 930.932 337.551 927.182 Q337.551 923.455 335.699 921.302 Q333.871 919.127 330.723 919.127 Q327.574 919.127 325.723 921.302 Q323.894 923.455 323.894 927.182 Q323.894 930.932 325.723 933.085 Q327.574 935.238 330.723 935.238 Z" fill="#000000" fill-rule="nonzero" fill-opacity="1" /><path clip-path="url(#clip990)" d="M361.44 919.127 Q357.829 919.127 356 922.691 Q354.195 926.233 354.195 933.363 Q354.195 940.469 356 944.034 Q357.829 947.575 361.44 947.575 Q365.074 947.575 366.88 944.034 Q368.709 940.469 368.709 933.363 Q368.709 926.233 366.88 922.691 Q365.074 919.127 361.44 919.127 M361.44 915.423 Q367.25 915.423 370.306 920.029 Q373.384 924.613 373.384 933.363 Q373.384 942.089 370.306 946.696 Q367.25 951.279 361.44 951.279 Q355.63 951.279 352.551 946.696 Q349.496 942.089 349.496 933.363 Q349.496 924.613 352.551 920.029 Q355.63 915.423 361.44 915.423 Z" fill="#000000" fill-rule="nonzero" fill-opacity="1" /><path clip-path="url(#clip990)" d="M391.602 919.127 Q387.991 919.127 386.162 922.691 Q384.357 926.233 384.357 933.363 Q384.357 940.469 386.162 944.034 Q387.991 947.575 391.602 947.575 Q395.236 947.575 397.042 944.034 Q398.87 940.469 398.87 933.363 Q398.87 926.233 397.042 922.691 Q395.236 919.127 391.602 919.127 M391.602 915.423 Q397.412 915.423 400.468 920.029 Q403.546 924.613 403.546 933.363 Q403.546 942.089 400.468 946.696 Q397.412 951.279 391.602 951.279 Q385.792 951.279 382.713 946.696 Q379.658 942.089 379.658 933.363 Q379.658 924.613 382.713 920.029 Q385.792 915.423 391.602 915.423 Z" fill="#000000" fill-rule="nonzero" fill-opacity="1" /><path clip-path="url(#clip990)" d="M575.243 949.89 L575.243 945.631 Q577.002 946.464 578.808 946.904 Q580.613 947.344 582.349 947.344 Q586.979 947.344 589.409 944.242 Q591.863 941.117 592.21 934.775 Q590.868 936.765 588.807 937.83 Q586.747 938.895 584.247 938.895 Q579.062 938.895 576.03 935.77 Q573.021 932.622 573.021 927.182 Q573.021 921.858 576.169 918.64 Q579.317 915.423 584.548 915.423 Q590.544 915.423 593.692 920.029 Q596.863 924.613 596.863 933.363 Q596.863 941.534 592.974 946.418 Q589.108 951.279 582.558 951.279 Q580.798 951.279 578.993 950.932 Q577.187 950.585 575.243 949.89 M584.548 935.238 Q587.696 935.238 589.525 933.085 Q591.377 930.932 591.377 927.182 Q591.377 923.455 589.525 921.302 Q587.696 919.127 584.548 919.127 Q581.4 919.127 579.548 921.302 Q577.72 923.455 577.72 927.182 Q577.72 930.932 579.548 933.085 Q581.4 935.238 584.548 935.238 Z" fill="#000000" fill-rule="nonzero" fill-opacity="1" /><path clip-path="url(#clip990)" d="M605.312 916.048 L623.668 916.048 L623.668 919.983 L609.594 919.983 L609.594 928.455 Q610.613 928.108 611.631 927.946 Q612.65 927.761 613.668 927.761 Q619.455 927.761 622.835 930.932 Q626.215 934.103 626.215 939.52 Q626.215 945.099 622.742 948.2 Q619.27 951.279 612.951 951.279 Q610.775 951.279 608.506 950.909 Q606.261 950.538 603.854 949.798 L603.854 945.099 Q605.937 946.233 608.159 946.788 Q610.381 947.344 612.858 947.344 Q616.863 947.344 619.201 945.238 Q621.539 943.131 621.539 939.52 Q621.539 935.909 619.201 933.802 Q616.863 931.696 612.858 931.696 Q610.983 931.696 609.108 932.113 Q607.256 932.529 605.312 933.409 L605.312 916.048 Z" fill="#000000" fill-rule="nonzero" fill-opacity="1" /><path clip-path="url(#clip990)" d="M645.428 919.127 Q641.816 919.127 639.988 922.691 Q638.182 926.233 638.182 933.363 Q638.182 940.469 639.988 944.034 Q641.816 947.575 645.428 947.575 Q649.062 947.575 650.867 944.034 Q652.696 940.469 652.696 933.363 Q652.696 926.233 650.867 922.691 Q649.062 919.127 645.428 919.127 M645.428 915.423 Q651.238 915.423 654.293 920.029 Q657.372 924.613 657.372 933.363 Q657.372 942.089 654.293 946.696 Q651.238 951.279 645.428 951.279 Q639.617 951.279 636.539 946.696 Q633.483 942.089 633.483 933.363 Q633.483 924.613 636.539 920.029 Q639.617 915.423 645.428 915.423 Z" fill="#000000" fill-rule="nonzero" fill-opacity="1" /><path clip-path="url(#clip990)" d="M813.548 946.673 L821.186 946.673 L821.186 920.307 L812.876 921.974 L812.876 917.715 L821.14 916.048 L825.816 916.048 L825.816 946.673 L833.455 946.673 L833.455 950.608 L813.548 950.608 L813.548 946.673 Z" fill="#000000" fill-rule="nonzero" fill-opacity="1" /><path clip-path="url(#clip990)" d="M852.899 919.127 Q849.288 919.127 847.459 922.691 Q845.654 926.233 845.654 933.363 Q845.654 940.469 847.459 944.034 Q849.288 947.575 852.899 947.575 Q856.534 947.575 858.339 944.034 Q860.168 940.469 860.168 933.363 Q860.168 926.233 858.339 922.691 Q856.534 919.127 852.899 919.127 M852.899 915.423 Q858.709 915.423 861.765 920.029 Q864.844 924.613 864.844 933.363 Q864.844 942.089 861.765 946.696 Q858.709 951.279 852.899 951.279 Q847.089 951.279 844.01 946.696 Q840.955 942.089 840.955 933.363 Q840.955 924.613 844.01 920.029 Q847.089 915.423 852.899 915.423 Z" fill="#000000" fill-rule="nonzero" fill-opacity="1" /><path clip-path="url(#clip990)" d="M883.061 919.127 Q879.45 919.127 877.621 922.691 Q875.816 926.233 875.816 933.363 Q875.816 940.469 877.621 944.034 Q879.45 947.575 883.061 947.575 Q886.695 947.575 888.501 944.034 Q890.33 940.469 890.33 933.363 Q890.33 926.233 888.501 922.691 Q886.695 919.127 883.061 919.127 M883.061 915.423 Q888.871 915.423 891.927 920.029 Q895.006 924.613 895.006 933.363 Q895.006 942.089 891.927 946.696 Q888.871 951.279 883.061 951.279 Q877.251 951.279 874.172 946.696 Q871.117 942.089 871.117 933.363 Q871.117 924.613 874.172 920.029 Q877.251 915.423 883.061 915.423 Z" fill="#000000" fill-rule="nonzero" fill-opacity="1" /><path clip-path="url(#clip990)" d="M913.223 919.127 Q909.612 919.127 907.783 922.691 Q905.978 926.233 905.978 933.363 Q905.978 940.469 907.783 944.034 Q909.612 947.575 913.223 947.575 Q916.857 947.575 918.663 944.034 Q920.492 940.469 920.492 933.363 Q920.492 926.233 918.663 922.691 Q916.857 919.127 913.223 919.127 M913.223 915.423 Q919.033 915.423 922.089 920.029 Q925.167 924.613 925.167 933.363 Q925.167 942.089 922.089 946.696 Q919.033 951.279 913.223 951.279 Q907.413 951.279 904.334 946.696 Q901.279 942.089 901.279 933.363 Q901.279 924.613 904.334 920.029 Q907.413 915.423 913.223 915.423 Z" fill="#000000" fill-rule="nonzero" fill-opacity="1" /><path clip-path="url(#clip990)" d="M1067.37 946.673 L1075.01 946.673 L1075.01 920.307 L1066.7 921.974 L1066.7 917.715 L1074.97 916.048 L1079.64 916.048 L1079.64 946.673 L1087.28 946.673 L1087.28 950.608 L1067.37 950.608 L1067.37 946.673 Z" fill="#000000" fill-rule="nonzero" fill-opacity="1" /><path clip-path="url(#clip990)" d="M1106.72 919.127 Q1103.11 919.127 1101.29 922.691 Q1099.48 926.233 1099.48 933.363 Q1099.48 940.469 1101.29 944.034 Q1103.11 947.575 1106.72 947.575 Q1110.36 947.575 1112.16 944.034 Q1113.99 940.469 1113.99 933.363 Q1113.99 926.233 1112.16 922.691 Q1110.36 919.127 1106.72 919.127 M1106.72 915.423 Q1112.54 915.423 1115.59 920.029 Q1118.67 924.613 1118.67 933.363 Q1118.67 942.089 1115.59 946.696 Q1112.54 951.279 1106.72 951.279 Q1100.91 951.279 1097.84 946.696 Q1094.78 942.089 1094.78 933.363 Q1094.78 924.613 1097.84 920.029 Q1100.91 915.423 1106.72 915.423 Z" fill="#000000" fill-rule="nonzero" fill-opacity="1" /><path clip-path="url(#clip990)" d="M1126.93 916.048 L1145.29 916.048 L1145.29 919.983 L1131.22 919.983 L1131.22 928.455 Q1132.23 928.108 1133.25 927.946 Q1134.27 927.761 1135.29 927.761 Q1141.08 927.761 1144.46 930.932 Q1147.84 934.103 1147.84 939.52 Q1147.84 945.099 1144.36 948.2 Q1140.89 951.279 1134.57 951.279 Q1132.4 951.279 1130.13 950.909 Q1127.88 950.538 1125.47 949.798 L1125.47 945.099 Q1127.56 946.233 1129.78 946.788 Q1132 947.344 1134.48 947.344 Q1138.48 947.344 1140.82 945.238 Q1143.16 943.131 1143.16 939.52 Q1143.16 935.909 1140.82 933.802 Q1138.48 931.696 1134.48 931.696 Q1132.6 931.696 1130.73 932.113 Q1128.88 932.529 1126.93 933.409 L1126.93 916.048 Z" fill="#000000" fill-rule="nonzero" fill-opacity="1" /><path clip-path="url(#clip990)" d="M1167.05 919.127 Q1163.44 919.127 1161.61 922.691 Q1159.8 926.233 1159.8 933.363 Q1159.8 940.469 1161.61 944.034 Q1163.44 947.575 1167.05 947.575 Q1170.68 947.575 1172.49 944.034 Q1174.32 940.469 1174.32 933.363 Q1174.32 926.233 1172.49 922.691 Q1170.68 919.127 1167.05 919.127 M1167.05 915.423 Q1172.86 915.423 1175.91 920.029 Q1178.99 924.613 1178.99 933.363 Q1178.99 942.089 1175.91 946.696 Q1172.86 951.279 1167.05 951.279 Q1161.24 951.279 1158.16 946.696 Q1155.1 942.089 1155.1 933.363 Q1155.1 924.613 1158.16 920.029 Q1161.24 915.423 1167.05 915.423 Z" fill="#000000" fill-rule="nonzero" fill-opacity="1" /><path clip-path="url(#clip990)" d="M1321.2 946.673 L1328.84 946.673 L1328.84 920.307 L1320.53 921.974 L1320.53 917.715 L1328.79 916.048 L1333.47 916.048 L1333.47 946.673 L1341.11 946.673 L1341.11 950.608 L1321.2 950.608 L1321.2 946.673 Z" fill="#000000" fill-rule="nonzero" fill-opacity="1" /><path clip-path="url(#clip990)" d="M1351.36 946.673 L1359 946.673 L1359 920.307 L1350.69 921.974 L1350.69 917.715 L1358.95 916.048 L1363.63 916.048 L1363.63 946.673 L1371.27 946.673 L1371.27 950.608 L1351.36 950.608 L1351.36 946.673 Z" fill="#000000" fill-rule="nonzero" fill-opacity="1" /><path clip-path="url(#clip990)" d="M1390.71 919.127 Q1387.1 919.127 1385.27 922.691 Q1383.47 926.233 1383.47 933.363 Q1383.47 940.469 1385.27 944.034 Q1387.1 947.575 1390.71 947.575 Q1394.35 947.575 1396.15 944.034 Q1397.98 940.469 1397.98 933.363 Q1397.98 926.233 1396.15 922.691 Q1394.35 919.127 1390.71 919.127 M1390.71 915.423 Q1396.52 915.423 1399.58 920.029 Q1402.66 924.613 1402.66 933.363 Q1402.66 942.089 1399.58 946.696 Q1396.52 951.279 1390.71 951.279 Q1384.9 951.279 1381.82 946.696 Q1378.77 942.089 1378.77 933.363 Q1378.77 924.613 1381.82 920.029 Q1384.9 915.423 1390.71 915.423 Z" fill="#000000" fill-rule="nonzero" fill-opacity="1" /><path clip-path="url(#clip990)" d="M1420.87 919.127 Q1417.26 919.127 1415.43 922.691 Q1413.63 926.233 1413.63 933.363 Q1413.63 940.469 1415.43 944.034 Q1417.26 947.575 1420.87 947.575 Q1424.51 947.575 1426.31 944.034 Q1428.14 940.469 1428.14 933.363 Q1428.14 926.233 1426.31 922.691 Q1424.51 919.127 1420.87 919.127 M1420.87 915.423 Q1426.68 915.423 1429.74 920.029 Q1432.82 924.613 1432.82 933.363 Q1432.82 942.089 1429.74 946.696 Q1426.68 951.279 1420.87 951.279 Q1415.06 951.279 1411.99 946.696 Q1408.93 942.089 1408.93 933.363 Q1408.93 924.613 1411.99 920.029 Q1415.06 915.423 1420.87 915.423 Z" fill="#000000" fill-rule="nonzero" fill-opacity="1" /><polyline clip-path="url(#clip990)" style="stroke:#000000; stroke-linecap:round; stroke-linejoin:round; stroke-width:4; stroke-opacity:1; fill:none" points="185.288,894.608 185.288,47.2441 "/>
<polyline clip-path="url(#clip990)" style="stroke:#000000; stroke-linecap:round; stroke-linejoin:round; stroke-width:4; stroke-opacity:1; fill:none" points="185.288,765.268 204.185,765.268 "/>
<polyline clip-path="url(#clip990)" style="stroke:#000000; stroke-linecap:round; stroke-linejoin:round; stroke-width:4; stroke-opacity:1; fill:none" points="185.288,605.084 204.185,605.084 "/>
<polyline clip-path="url(#clip990)" style="stroke:#000000; stroke-linecap:round; stroke-linejoin:round; stroke-width:4; stroke-opacity:1; fill:none" points="185.288,444.901 204.185,444.901 "/>
<polyline clip-path="url(#clip990)" style="stroke:#000000; stroke-linecap:round; stroke-linejoin:round; stroke-width:4; stroke-opacity:1; fill:none" points="185.288,284.718 204.185,284.718 "/>
<polyline clip-path="url(#clip990)" style="stroke:#000000; stroke-linecap:round; stroke-linejoin:round; stroke-width:4; stroke-opacity:1; fill:none" points="185.288,124.534 204.185,124.534 "/>
<path clip-path="url(#clip990)" d="M54.9921 765.719 L84.6679 765.719 L84.6679 769.654 L54.9921 769.654 L54.9921 765.719 Z" fill="#000000" fill-rule="nonzero" fill-opacity="1" /><path clip-path="url(#clip990)" d="M104.76 751.066 Q101.149 751.066 99.3206 754.631 Q97.515 758.173 97.515 765.302 Q97.515 772.409 99.3206 775.974 Q101.149 779.515 104.76 779.515 Q108.395 779.515 110.2 775.974 Q112.029 772.409 112.029 765.302 Q112.029 758.173 110.2 754.631 Q108.395 751.066 104.76 751.066 M104.76 747.363 Q110.571 747.363 113.626 751.969 Q116.705 756.552 116.705 765.302 Q116.705 774.029 113.626 778.636 Q110.571 783.219 104.76 783.219 Q98.9502 783.219 95.8715 778.636 Q92.816 774.029 92.816 765.302 Q92.816 756.552 95.8715 751.969 Q98.9502 747.363 104.76 747.363 Z" fill="#000000" fill-rule="nonzero" fill-opacity="1" /><path clip-path="url(#clip990)" d="M124.922 776.668 L129.807 776.668 L129.807 782.548 L124.922 782.548 L124.922 776.668 Z" fill="#000000" fill-rule="nonzero" fill-opacity="1" /><path clip-path="url(#clip990)" d="M154.158 763.914 Q157.515 764.631 159.39 766.9 Q161.288 769.168 161.288 772.501 Q161.288 777.617 157.769 780.418 Q154.251 783.219 147.769 783.219 Q145.593 783.219 143.279 782.779 Q140.987 782.363 138.533 781.506 L138.533 776.992 Q140.478 778.126 142.793 778.705 Q145.107 779.284 147.631 779.284 Q152.029 779.284 154.32 777.548 Q156.635 775.812 156.635 772.501 Q156.635 769.446 154.482 767.733 Q152.353 765.997 148.533 765.997 L144.506 765.997 L144.506 762.154 L148.718 762.154 Q152.168 762.154 153.996 760.789 Q155.825 759.4 155.825 756.807 Q155.825 754.145 153.927 752.733 Q152.052 751.298 148.533 751.298 Q146.612 751.298 144.413 751.715 Q142.214 752.131 139.575 753.011 L139.575 748.844 Q142.237 748.103 144.552 747.733 Q146.89 747.363 148.95 747.363 Q154.274 747.363 157.376 749.793 Q160.478 752.201 160.478 756.321 Q160.478 759.191 158.834 761.182 Q157.191 763.15 154.158 763.914 Z" fill="#000000" fill-rule="nonzero" fill-opacity="1" /><path clip-path="url(#clip990)" d="M104.112 590.883 Q100.501 590.883 98.6724 594.448 Q96.8669 597.989 96.8669 605.119 Q96.8669 612.225 98.6724 615.79 Q100.501 619.332 104.112 619.332 Q107.746 619.332 109.552 615.79 Q111.381 612.225 111.381 605.119 Q111.381 597.989 109.552 594.448 Q107.746 590.883 104.112 590.883 M104.112 587.179 Q109.922 587.179 112.978 591.786 Q116.057 596.369 116.057 605.119 Q116.057 613.846 112.978 618.452 Q109.922 623.036 104.112 623.036 Q98.3021 623.036 95.2234 618.452 Q92.1679 613.846 92.1679 605.119 Q92.1679 596.369 95.2234 591.786 Q98.3021 587.179 104.112 587.179 Z" fill="#000000" fill-rule="nonzero" fill-opacity="1" /><path clip-path="url(#clip990)" d="M124.274 616.485 L129.158 616.485 L129.158 622.364 L124.274 622.364 L124.274 616.485 Z" fill="#000000" fill-rule="nonzero" fill-opacity="1" /><path clip-path="url(#clip990)" d="M149.343 590.883 Q145.732 590.883 143.904 594.448 Q142.098 597.989 142.098 605.119 Q142.098 612.225 143.904 615.79 Q145.732 619.332 149.343 619.332 Q152.978 619.332 154.783 615.79 Q156.612 612.225 156.612 605.119 Q156.612 597.989 154.783 594.448 Q152.978 590.883 149.343 590.883 M149.343 587.179 Q155.154 587.179 158.209 591.786 Q161.288 596.369 161.288 605.119 Q161.288 613.846 158.209 618.452 Q155.154 623.036 149.343 623.036 Q143.533 623.036 140.455 618.452 Q137.399 613.846 137.399 605.119 Q137.399 596.369 140.455 591.786 Q143.533 587.179 149.343 587.179 Z" fill="#000000" fill-rule="nonzero" fill-opacity="1" /><path clip-path="url(#clip990)" d="M104.76 430.7 Q101.149 430.7 99.3206 434.264 Q97.515 437.806 97.515 444.936 Q97.515 452.042 99.3206 455.607 Q101.149 459.149 104.76 459.149 Q108.395 459.149 110.2 455.607 Q112.029 452.042 112.029 444.936 Q112.029 437.806 110.2 434.264 Q108.395 430.7 104.76 430.7 M104.76 426.996 Q110.571 426.996 113.626 431.602 Q116.705 436.186 116.705 444.936 Q116.705 453.662 113.626 458.269 Q110.571 462.852 104.76 462.852 Q98.9502 462.852 95.8715 458.269 Q92.816 453.662 92.816 444.936 Q92.816 436.186 95.8715 431.602 Q98.9502 426.996 104.76 426.996 Z" fill="#000000" fill-rule="nonzero" fill-opacity="1" /><path clip-path="url(#clip990)" d="M124.922 456.301 L129.807 456.301 L129.807 462.181 L124.922 462.181 L124.922 456.301 Z" fill="#000000" fill-rule="nonzero" fill-opacity="1" /><path clip-path="url(#clip990)" d="M154.158 443.547 Q157.515 444.264 159.39 446.533 Q161.288 448.801 161.288 452.135 Q161.288 457.25 157.769 460.051 Q154.251 462.852 147.769 462.852 Q145.593 462.852 143.279 462.412 Q140.987 461.996 138.533 461.139 L138.533 456.625 Q140.478 457.76 142.793 458.338 Q145.107 458.917 147.631 458.917 Q152.029 458.917 154.32 457.181 Q156.635 455.445 156.635 452.135 Q156.635 449.079 154.482 447.366 Q152.353 445.63 148.533 445.63 L144.506 445.63 L144.506 441.788 L148.718 441.788 Q152.168 441.788 153.996 440.422 Q155.825 439.033 155.825 436.44 Q155.825 433.778 153.927 432.366 Q152.052 430.931 148.533 430.931 Q146.612 430.931 144.413 431.348 Q142.214 431.764 139.575 432.644 L139.575 428.477 Q142.237 427.737 144.552 427.366 Q146.89 426.996 148.95 426.996 Q154.274 426.996 157.376 429.426 Q160.478 431.834 160.478 435.954 Q160.478 438.825 158.834 440.815 Q157.191 442.783 154.158 443.547 Z" fill="#000000" fill-rule="nonzero" fill-opacity="1" /><path clip-path="url(#clip990)" d="M103.95 270.516 Q100.339 270.516 98.5104 274.081 Q96.7049 277.623 96.7049 284.752 Q96.7049 291.859 98.5104 295.424 Q100.339 298.965 103.95 298.965 Q107.584 298.965 109.39 295.424 Q111.219 291.859 111.219 284.752 Q111.219 277.623 109.39 274.081 Q107.584 270.516 103.95 270.516 M103.95 266.813 Q109.76 266.813 112.816 271.419 Q115.895 276.002 115.895 284.752 Q115.895 293.479 112.816 298.086 Q109.76 302.669 103.95 302.669 Q98.14 302.669 95.0614 298.086 Q92.0058 293.479 92.0058 284.752 Q92.0058 276.002 95.0614 271.419 Q98.14 266.813 103.95 266.813 Z" fill="#000000" fill-rule="nonzero" fill-opacity="1" /><path clip-path="url(#clip990)" d="M124.112 296.118 L128.996 296.118 L128.996 301.998 L124.112 301.998 L124.112 296.118 Z" fill="#000000" fill-rule="nonzero" fill-opacity="1" /><path clip-path="url(#clip990)" d="M149.76 282.854 Q146.612 282.854 144.76 285.007 Q142.931 287.16 142.931 290.91 Q142.931 294.636 144.76 296.812 Q146.612 298.965 149.76 298.965 Q152.908 298.965 154.737 296.812 Q156.589 294.636 156.589 290.91 Q156.589 287.16 154.737 285.007 Q152.908 282.854 149.76 282.854 M159.042 268.201 L159.042 272.461 Q157.283 271.627 155.478 271.188 Q153.695 270.748 151.936 270.748 Q147.306 270.748 144.853 273.873 Q142.422 276.998 142.075 283.317 Q143.441 281.303 145.501 280.238 Q147.561 279.15 150.038 279.15 Q155.246 279.15 158.255 282.322 Q161.288 285.47 161.288 290.91 Q161.288 296.234 158.14 299.451 Q154.992 302.669 149.76 302.669 Q143.765 302.669 140.594 298.086 Q137.422 293.479 137.422 284.752 Q137.422 276.558 141.311 271.697 Q145.2 266.813 151.751 266.813 Q153.51 266.813 155.293 267.16 Q157.098 267.507 159.042 268.201 Z" fill="#000000" fill-rule="nonzero" fill-opacity="1" /><path clip-path="url(#clip990)" d="M104.297 110.333 Q100.686 110.333 98.8576 113.898 Q97.0521 117.439 97.0521 124.569 Q97.0521 131.675 98.8576 135.24 Q100.686 138.782 104.297 138.782 Q107.932 138.782 109.737 135.24 Q111.566 131.675 111.566 124.569 Q111.566 117.439 109.737 113.898 Q107.932 110.333 104.297 110.333 M104.297 106.629 Q110.108 106.629 113.163 111.236 Q116.242 115.819 116.242 124.569 Q116.242 133.296 113.163 137.902 Q110.108 142.485 104.297 142.485 Q98.4873 142.485 95.4086 137.902 Q92.353 133.296 92.353 124.569 Q92.353 115.819 95.4086 111.236 Q98.4873 106.629 104.297 106.629 Z" fill="#000000" fill-rule="nonzero" fill-opacity="1" /><path clip-path="url(#clip990)" d="M124.459 135.935 L129.344 135.935 L129.344 141.814 L124.459 141.814 L124.459 135.935 Z" fill="#000000" fill-rule="nonzero" fill-opacity="1" /><path clip-path="url(#clip990)" d="M139.668 141.097 L139.668 136.837 Q141.427 137.671 143.232 138.111 Q145.038 138.55 146.774 138.55 Q151.404 138.55 153.834 135.448 Q156.288 132.323 156.635 125.981 Q155.293 127.972 153.232 129.036 Q151.172 130.101 148.672 130.101 Q143.487 130.101 140.455 126.976 Q137.445 123.828 137.445 118.388 Q137.445 113.064 140.594 109.847 Q143.742 106.629 148.973 106.629 Q154.968 106.629 158.117 111.236 Q161.288 115.819 161.288 124.569 Q161.288 132.74 157.399 137.624 Q153.533 142.485 146.982 142.485 Q145.223 142.485 143.418 142.138 Q141.612 141.791 139.668 141.097 M148.973 126.444 Q152.121 126.444 153.95 124.291 Q155.802 122.138 155.802 118.388 Q155.802 114.662 153.95 112.509 Q152.121 110.333 148.973 110.333 Q145.825 110.333 143.973 112.509 Q142.144 114.662 142.144 118.388 Q142.144 122.138 143.973 124.291 Q145.825 126.444 148.973 126.444 Z" fill="#000000" fill-rule="nonzero" fill-opacity="1" /><polyline clip-path="url(#clip992)" style="stroke:#1f77b4; stroke-linecap:round; stroke-linejoin:round; stroke-width:4; stroke-opacity:1; fill:none" points="223.99,601.797 225.281,601.784 226.572,601.771 227.864,601.758 229.155,601.745 230.447,601.731 231.738,601.718 233.029,601.704 234.321,601.69 235.612,601.677 236.903,601.663 238.195,601.649 239.486,601.635 240.777,601.621 242.069,601.606 243.36,601.592 244.651,601.578 245.943,601.563 247.234,601.549 248.526,601.534 249.817,601.519 251.108,601.505 252.4,601.49 253.691,601.475 254.982,601.46 256.274,601.444 257.565,601.429 258.856,601.414 260.148,601.398 261.439,601.383 262.73,601.367 264.022,601.351 265.313,601.335 266.605,601.319 267.896,601.303 269.187,601.287 270.479,601.271 271.77,601.254 273.061,601.238 274.353,601.221 275.644,601.205 276.935,601.188 278.227,601.171 279.518,601.154 280.809,601.137 282.101,601.119 283.392,601.102 284.683,601.085 285.975,601.067 287.266,601.049 288.558,601.031 289.849,601.013 291.14,600.995 292.432,600.977 293.723,600.959 295.014,600.94 296.306,600.922 297.597,600.903 298.888,600.884 300.18,600.865 301.471,600.846 302.762,600.827 304.054,600.808 305.345,600.788 306.637,600.769 307.928,600.749 309.219,600.729 310.511,600.709 311.802,600.689 313.093,600.669 314.385,600.648 315.676,600.628 316.967,600.607 318.259,600.586 319.55,600.565 320.841,600.544 322.133,600.523 323.424,600.501 324.716,600.48 326.007,600.458 327.298,600.436 328.59,600.414 329.881,600.392 331.172,600.37 332.464,600.347 333.755,600.324 335.046,600.302 336.338,600.279 337.629,600.255 338.92,600.232 340.212,600.209 341.503,600.185 342.794,600.161 344.086,600.137 345.377,600.113 346.669,600.088 347.96,600.064 349.251,600.039 350.543,600.014 351.834,599.989 353.125,599.964 354.417,599.938 355.708,599.913 356.999,599.887 358.291,599.861 359.582,599.834 360.873,599.808 362.165,599.781 363.456,599.754 364.748,599.727 366.039,599.7 367.33,599.673 368.622,599.645 369.913,599.617 371.204,599.589 372.496,599.561 373.787,599.532 375.078,599.503 376.37,599.474 377.661,599.445 378.952,599.416 380.244,599.386 381.535,599.356 382.827,599.326 384.118,599.296 385.409,599.265 386.701,599.234 387.992,599.203 389.283,599.172 390.575,599.14 391.866,599.108 393.157,599.076 394.449,599.044 395.74,599.011 397.031,598.978 398.323,598.945 399.614,598.912 400.905,598.878 402.197,598.844 403.488,598.81 404.78,598.775 406.071,598.74 407.362,598.705 408.654,598.67 409.945,598.634 411.236,598.598 412.528,598.562 413.819,598.525 415.11,598.488 416.402,598.451 417.693,598.413 418.984,598.376 420.276,598.337 421.567,598.299 422.859,598.26 424.15,598.221 425.441,598.181 426.733,598.142 428.024,598.101 429.315,598.061 430.607,598.02 431.898,597.979 433.189,597.937 434.481,597.895 435.772,597.853 437.063,597.81 438.355,597.767 439.646,597.724 440.938,597.68 442.229,597.635 443.52,597.591 444.812,597.546 446.103,597.5 447.394,597.454 448.686,597.408 449.977,597.361 451.268,597.314 452.56,597.267 453.851,597.219 455.142,597.17 456.434,597.121 457.725,597.072 459.016,597.022 460.308,596.972 461.599,596.921 462.891,596.87 464.182,596.819 465.473,596.766 466.765,596.714 468.056,596.661 469.347,596.607 470.639,596.553 471.93,596.498 473.221,596.443 474.513,596.387 475.804,596.331 477.095,596.274 478.387,596.217 479.678,596.159 480.97,596.1 482.261,596.041 483.552,595.981 484.844,595.921 486.135,595.86 487.426,595.799 488.718,595.737 490.009,595.674 491.3,595.611 492.592,595.547 493.883,595.482 495.174,595.417 496.466,595.351 497.757,595.285 499.049,595.217 500.34,595.149 501.631,595.081 502.923,595.011 504.214,594.941 505.505,594.87 506.797,594.799 508.088,594.727 509.379,594.654 510.671,594.58 511.962,594.505 513.253,594.43 514.545,594.353 515.836,594.276 517.127,594.199 518.419,594.12 519.71,594.04 521.002,593.96 522.293,593.879 523.584,593.797 524.876,593.713 526.167,593.63 527.458,593.545 528.75,593.459 530.041,593.372 531.332,593.284 532.624,593.195 533.915,593.106 535.206,593.015 536.498,592.923 537.789,592.83 539.081,592.736 540.372,592.641 541.663,592.545 542.955,592.448 544.246,592.35 545.537,592.251 546.829,592.15 548.12,592.048 549.411,591.945 550.703,591.841 551.994,591.736 553.285,591.629 554.577,591.521 555.868,591.412 557.16,591.301 558.451,591.189 559.742,591.076 561.034,590.962 562.325,590.846 563.616,590.728 564.908,590.609 566.199,590.489 567.49,590.367 568.782,590.244 570.073,590.119 571.364,589.993 572.656,589.864 573.947,589.735 575.238,589.603 576.53,589.47 577.821,589.336 579.113,589.199 580.404,589.061 581.695,588.921 582.987,588.779 584.278,588.636 585.569,588.49 586.861,588.343 588.152,588.193 589.443,588.042 590.735,587.888 592.026,587.733 593.317,587.575 594.609,587.416 595.9,587.254 597.192,587.09 598.483,586.923 599.774,586.755 601.066,586.584 602.357,586.41 603.648,586.235 604.94,586.056 606.231,585.876 607.522,585.692 608.814,585.507 610.105,585.318 611.396,585.127 612.688,584.933 613.979,584.736 615.271,584.536 616.562,584.334 617.853,584.128 619.145,583.92 620.436,583.708 621.727,583.493 623.019,583.275 624.31,583.054 625.601,582.83 626.893,582.602 628.184,582.37 629.475,582.135 630.767,581.896 632.058,581.654 633.349,581.408 634.641,581.158 635.932,580.904 637.224,580.647 638.515,580.385 639.806,580.119 641.098,579.848 642.389,579.574 643.68,579.295 644.972,579.011 646.263,578.723 647.554,578.43 648.846,578.132 650.137,577.83 651.428,577.522 652.72,577.209 654.011,576.891 655.303,576.567 656.594,576.238 657.885,575.904 659.177,575.564 660.468,575.217 661.759,574.865 663.051,574.507 664.342,574.142 665.633,573.771 666.925,573.393 668.216,573.009 669.507,572.618 670.799,572.22 672.09,571.814 673.382,571.401 674.673,570.981 675.964,570.553 677.256,570.117 678.547,569.672 679.838,569.22 681.13,568.759 682.421,568.289 683.712,567.81 685.004,567.323 686.295,566.825 687.586,566.319 688.878,565.802 690.169,565.275 691.46,564.738 692.752,564.19 694.043,563.631 695.335,563.061 696.626,562.48 697.917,561.886 699.209,561.281 700.5,560.663 701.791,560.032 703.083,559.389 704.374,558.732 705.665,558.061 706.957,557.375 708.248,556.676 709.539,555.961 710.831,555.231 712.122,554.485 713.414,553.723 714.705,552.944 715.996,552.148 717.288,551.334 718.579,550.502 719.87,549.651 721.162,548.781 722.453,547.892 723.744,546.982 725.036,546.05 726.327,545.098 727.618,544.123 728.91,543.125 730.201,542.103 731.493,541.058 732.784,539.987 734.075,538.89 735.367,537.767 736.658,536.616 737.949,535.437 739.241,534.229 740.532,532.991 741.823,531.722 743.115,530.421 744.406,529.087 745.697,527.719 746.989,526.315 748.28,524.876 749.571,523.399 750.863,521.884 752.154,520.328 753.446,518.732 754.737,517.093 756.028,515.41 757.32,513.681 758.611,511.906 759.902,510.082 761.194,508.208 762.485,506.283 763.776,504.304 765.068,502.27 766.359,500.178 767.65,498.028 768.942,495.816 770.233,493.541 771.525,491.201 772.816,488.794 774.107,486.317 775.399,483.767 776.69,481.143 777.981,478.442 779.273,475.661 780.564,472.798 781.855,469.849 783.147,466.813 784.438,463.685 785.729,460.464 787.021,457.145 788.312,453.725 789.604,450.203 790.895,446.573 792.186,442.833 793.478,438.978 794.769,435.007 796.06,430.914 797.352,426.697 798.643,422.352 799.934,417.874 801.226,413.261 802.517,408.509 803.808,403.613 805.1,398.571 806.391,393.378 807.682,388.032 808.974,382.529 810.265,376.866 811.557,371.041 812.848,365.049 814.139,358.89 815.431,352.561 816.722,346.061 818.013,339.389 819.305,332.544 820.596,325.527 821.887,318.338 823.179,310.979 824.47,303.453 825.761,295.765 827.053,287.918 828.344,279.919 829.636,271.775 830.927,263.496 832.218,255.093 833.51,246.578 834.801,237.964 836.092,229.27 837.384,220.512 838.675,211.712 839.966,202.892 841.258,194.078 842.549,185.296 843.84,176.576 845.132,167.95 846.423,159.451 847.715,151.115 849.006,142.979 850.297,135.083 851.589,127.466 852.88,120.168 854.171,113.231 855.463,106.695 856.754,100.601 858.045,94.9877 859.337,89.8919 860.628,85.3489 861.919,81.3907 863.211,78.0458 864.502,75.3389 865.793,73.2904 867.085,71.916 868.376,71.2261 869.668,71.2261 870.959,71.916 872.25,73.2904 873.542,75.3389 874.833,78.0458 876.124,81.3907 877.416,85.3489 878.707,89.8919 879.998,94.9877 881.29,100.601 882.581,106.695 883.872,113.231 885.164,120.168 886.455,127.466 887.747,135.083 889.038,142.979 890.329,151.115 891.621,159.451 892.912,167.95 894.203,176.576 895.495,185.296 896.786,194.078 898.077,202.892 899.369,211.712 900.66,220.512 901.951,229.27 903.243,237.964 904.534,246.578 905.826,255.093 907.117,263.496 908.408,271.775 909.7,279.919 910.991,287.918 912.282,295.765 913.574,303.453 914.865,310.979 916.156,318.338 917.448,325.527 918.739,332.544 920.03,339.389 921.322,346.061 922.613,352.561 923.904,358.89 925.196,365.049 926.487,371.041 927.779,376.866 929.07,382.529 930.361,388.032 931.653,393.378 932.944,398.571 934.235,403.613 935.527,408.509 936.818,413.261 938.109,417.874 939.401,422.352 940.692,426.697 941.983,430.914 943.275,435.007 944.566,438.978 945.858,442.833 947.149,446.573 948.44,450.203 949.732,453.725 951.023,457.145 952.314,460.464 953.606,463.685 954.897,466.813 956.188,469.849 957.48,472.798 958.771,475.661 960.062,478.442 961.354,481.143 962.645,483.767 963.937,486.317 965.228,488.794 966.519,491.201 967.811,493.541 969.102,495.816 970.393,498.028 971.685,500.178 972.976,502.27 974.267,504.304 975.559,506.283 976.85,508.208 978.141,510.082 979.433,511.906 980.724,513.681 982.015,515.41 983.307,517.093 984.598,518.732 985.89,520.328 987.181,521.884 988.472,523.399 989.764,524.876 991.055,526.315 992.346,527.719 993.638,529.087 994.929,530.421 996.22,531.722 997.512,532.991 998.803,534.229 1000.09,535.437 1001.39,536.616 1002.68,537.767 1003.97,538.89 1005.26,539.987 1006.55,541.058 1007.84,542.103 1009.13,543.125 1010.43,544.123 1011.72,545.098 1013.01,546.05 1014.3,546.982 1015.59,547.892 1016.88,548.781 1018.17,549.651 1019.46,550.502 1020.76,551.334 1022.05,552.148 1023.34,552.944 1024.63,553.723 1025.92,554.485 1027.21,555.231 1028.5,555.961 1029.8,556.676 1031.09,557.375 1032.38,558.061 1033.67,558.732 1034.96,559.389 1036.25,560.032 1037.54,560.663 1038.84,561.281 1040.13,561.886 1041.42,562.48 1042.71,563.061 1044,563.631 1045.29,564.19 1046.58,564.738 1047.87,565.275 1049.17,565.802 1050.46,566.319 1051.75,566.825 1053.04,567.323 1054.33,567.81 1055.62,568.289 1056.91,568.759 1058.21,569.22 1059.5,569.672 1060.79,570.117 1062.08,570.553 1063.37,570.981 1064.66,571.401 1065.95,571.814 1067.24,572.22 1068.54,572.618 1069.83,573.009 1071.12,573.393 1072.41,573.771 1073.7,574.142 1074.99,574.507 1076.28,574.865 1077.58,575.217 1078.87,575.564 1080.16,575.904 1081.45,576.238 1082.74,576.567 1084.03,576.891 1085.32,577.209 1086.62,577.522 1087.91,577.83 1089.2,578.132 1090.49,578.43 1091.78,578.723 1093.07,579.011 1094.36,579.295 1095.65,579.574 1096.95,579.848 1098.24,580.119 1099.53,580.385 1100.82,580.647 1102.11,580.904 1103.4,581.158 1104.69,581.408 1105.99,581.654 1107.28,581.896 1108.57,582.135 1109.86,582.37 1111.15,582.602 1112.44,582.83 1113.73,583.054 1115.03,583.275 1116.32,583.493 1117.61,583.708 1118.9,583.92 1120.19,584.128 1121.48,584.334 1122.77,584.536 1124.06,584.736 1125.36,584.933 1126.65,585.127 1127.94,585.318 1129.23,585.507 1130.52,585.692 1131.81,585.876 1133.1,586.056 1134.4,586.235 1135.69,586.41 1136.98,586.584 1138.27,586.755 1139.56,586.923 1140.85,587.09 1142.14,587.254 1143.43,587.416 1144.73,587.575 1146.02,587.733 1147.31,587.888 1148.6,588.042 1149.89,588.193 1151.18,588.343 1152.47,588.49 1153.77,588.636 1155.06,588.779 1156.35,588.921 1157.64,589.061 1158.93,589.199 1160.22,589.336 1161.51,589.47 1162.81,589.603 1164.1,589.735 1165.39,589.864 1166.68,589.993 1167.97,590.119 1169.26,590.244 1170.55,590.367 1171.84,590.489 1173.14,590.609 1174.43,590.728 1175.72,590.846 1177.01,590.962 1178.3,591.076 1179.59,591.189 1180.88,591.301 1182.18,591.412 1183.47,591.521 1184.76,591.629 1186.05,591.736 1187.34,591.841 1188.63,591.945 1189.92,592.048 1191.22,592.15 1192.51,592.251 1193.8,592.35 1195.09,592.448 1196.38,592.545 1197.67,592.641 1198.96,592.736 1200.25,592.83 1201.55,592.923 1202.84,593.015 1204.13,593.106 1205.42,593.195 1206.71,593.284 1208,593.372 1209.29,593.459 1210.59,593.545 1211.88,593.63 1213.17,593.713 1214.46,593.797 1215.75,593.879 1217.04,593.96 1218.33,594.04 1219.62,594.12 1220.92,594.199 1222.21,594.276 1223.5,594.353 1224.79,594.43 1226.08,594.505 1227.37,594.58 1228.66,594.654 1229.96,594.727 1231.25,594.799 1232.54,594.87 1233.83,594.941 1235.12,595.011 1236.41,595.081 1237.7,595.149 1239,595.217 1240.29,595.285 1241.58,595.351 1242.87,595.417 1244.16,595.482 1245.45,595.547 1246.74,595.611 1248.03,595.674 1249.33,595.737 1250.62,595.799 1251.91,595.86 1253.2,595.921 1254.49,595.981 1255.78,596.041 1257.07,596.1 1258.37,596.159 1259.66,596.217 1260.95,596.274 1262.24,596.331 1263.53,596.387 1264.82,596.443 1266.11,596.498 1267.41,596.553 1268.7,596.607 1269.99,596.661 1271.28,596.714 1272.57,596.766 1273.86,596.819 1275.15,596.87 1276.44,596.921 1277.74,596.972 1279.03,597.022 1280.32,597.072 1281.61,597.121 1282.9,597.17 1284.19,597.219 1285.48,597.267 1286.78,597.314 1288.07,597.361 1289.36,597.408 1290.65,597.454 1291.94,597.5 1293.23,597.546 1294.52,597.591 1295.81,597.635 1297.11,597.68 1298.4,597.724 1299.69,597.767 1300.98,597.81 1302.27,597.853 1303.56,597.895 1304.85,597.937 1306.15,597.979 1307.44,598.02 1308.73,598.061 1310.02,598.101 1311.31,598.142 1312.6,598.181 1313.89,598.221 1315.19,598.26 1316.48,598.299 1317.77,598.337 1319.06,598.376 1320.35,598.413 1321.64,598.451 1322.93,598.488 1324.22,598.525 1325.52,598.562 1326.81,598.598 1328.1,598.634 1329.39,598.67 1330.68,598.705 1331.97,598.74 1333.26,598.775 1334.56,598.81 1335.85,598.844 1337.14,598.878 1338.43,598.912 1339.72,598.945 1341.01,598.978 1342.3,599.011 1343.6,599.044 1344.89,599.076 1346.18,599.108 1347.47,599.14 1348.76,599.172 1350.05,599.203 1351.34,599.234 1352.63,599.265 1353.93,599.296 1355.22,599.326 1356.51,599.356 1357.8,599.386 1359.09,599.416 1360.38,599.445 1361.67,599.474 1362.97,599.503 1364.26,599.532 1365.55,599.561 1366.84,599.589 1368.13,599.617 1369.42,599.645 1370.71,599.673 1372,599.7 1373.3,599.727 1374.59,599.754 1375.88,599.781 1377.17,599.808 1378.46,599.834 1379.75,599.861 1381.04,599.887 1382.34,599.913 1383.63,599.938 1384.92,599.964 1386.21,599.989 1387.5,600.014 1388.79,600.039 1390.08,600.064 1391.38,600.088 1392.67,600.113 1393.96,600.137 1395.25,600.161 1396.54,600.185 1397.83,600.209 1399.12,600.232 1400.41,600.255 1401.71,600.279 1403,600.302 1404.29,600.324 1405.58,600.347 1406.87,600.37 1408.16,600.392 1409.45,600.414 1410.75,600.436 1412.04,600.458 1413.33,600.48 1414.62,600.501 1415.91,600.523 1417.2,600.544 1418.49,600.565 1419.79,600.586 1421.08,600.607 1422.37,600.628 1423.66,600.648 1424.95,600.669 1426.24,600.689 1427.53,600.709 1428.82,600.729 1430.12,600.749 1431.41,600.769 1432.7,600.788 1433.99,600.808 1435.28,600.827 1436.57,600.846 1437.86,600.865 1439.16,600.884 1440.45,600.903 1441.74,600.922 1443.03,600.94 1444.32,600.959 1445.61,600.977 1446.9,600.995 1448.19,601.013 1449.49,601.031 1450.78,601.049 1452.07,601.067 1453.36,601.085 1454.65,601.102 1455.94,601.119 1457.23,601.137 1458.53,601.154 1459.82,601.171 1461.11,601.188 1462.4,601.205 1463.69,601.221 1464.98,601.238 1466.27,601.254 1467.57,601.271 1468.86,601.287 1470.15,601.303 1471.44,601.319 1472.73,601.335 1474.02,601.351 1475.31,601.367 1476.6,601.383 1477.9,601.398 1479.19,601.414 1480.48,601.429 1481.77,601.444 1483.06,601.46 1484.35,601.475 1485.64,601.49 1486.94,601.505 1488.23,601.519 1489.52,601.534 1490.81,601.549 1492.1,601.563 1493.39,601.578 1494.68,601.592 1495.98,601.606 1497.27,601.621 1498.56,601.635 1499.85,601.649 1501.14,601.663 1502.43,601.677 1503.72,601.69 1505.01,601.704 1506.31,601.718 1507.6,601.731 1508.89,601.745 1510.18,601.758 1511.47,601.771 1512.76,601.784 1514.05,601.797 "/>
<polyline clip-path="url(#clip992)" style="stroke:#e26f46; stroke-linecap:round; stroke-linejoin:round; stroke-width:4; stroke-opacity:1; fill:none" points="223.99,565.06 225.281,564.983 226.572,564.904 227.864,564.826 229.155,564.747 230.447,564.668 231.738,564.588 233.029,564.508 234.321,564.428 235.612,564.347 236.903,564.266 238.195,564.185 239.486,564.103 240.777,564.021 242.069,563.939 243.36,563.856 244.651,563.773 245.943,563.689 247.234,563.605 248.526,563.521 249.817,563.436 251.108,563.351 252.4,563.266 253.691,563.18 254.982,563.094 256.274,563.007 257.565,562.92 258.856,562.833 260.148,562.745 261.439,562.657 262.73,562.568 264.022,562.479 265.313,562.39 266.605,562.3 267.896,562.21 269.187,562.119 270.479,562.028 271.77,561.937 273.061,561.845 274.353,561.752 275.644,561.66 276.935,561.566 278.227,561.473 279.518,561.379 280.809,561.284 282.101,561.189 283.392,561.093 284.683,560.998 285.975,560.901 287.266,560.804 288.558,560.707 289.849,560.609 291.14,560.511 292.432,560.412 293.723,560.313 295.014,560.213 296.306,560.113 297.597,560.012 298.888,559.911 300.18,559.809 301.471,559.707 302.762,559.604 304.054,559.501 305.345,559.397 306.637,559.293 307.928,559.188 309.219,559.083 310.511,558.977 311.802,558.871 313.093,558.764 314.385,558.656 315.676,558.548 316.967,558.44 318.259,558.331 319.55,558.221 320.841,558.111 322.133,558 323.424,557.888 324.716,557.776 326.007,557.664 327.298,557.551 328.59,557.437 329.881,557.322 331.172,557.207 332.464,557.092 333.755,556.975 335.046,556.859 336.338,556.741 337.629,556.623 338.92,556.504 340.212,556.385 341.503,556.265 342.794,556.144 344.086,556.023 345.377,555.901 346.669,555.778 347.96,555.655 349.251,555.531 350.543,555.406 351.834,555.28 353.125,555.154 354.417,555.027 355.708,554.9 356.999,554.772 358.291,554.643 359.582,554.513 360.873,554.382 362.165,554.251 363.456,554.119 364.748,553.986 366.039,553.853 367.33,553.718 368.622,553.583 369.913,553.447 371.204,553.311 372.496,553.173 373.787,553.035 375.078,552.896 376.37,552.756 377.661,552.615 378.952,552.474 380.244,552.331 381.535,552.188 382.827,552.044 384.118,551.899 385.409,551.753 386.701,551.606 387.992,551.458 389.283,551.309 390.575,551.16 391.866,551.009 393.157,550.858 394.449,550.705 395.74,550.552 397.031,550.398 398.323,550.242 399.614,550.086 400.905,549.929 402.197,549.771 403.488,549.611 404.78,549.451 406.071,549.29 407.362,549.127 408.654,548.964 409.945,548.799 411.236,548.633 412.528,548.467 413.819,548.299 415.11,548.13 416.402,547.96 417.693,547.788 418.984,547.616 420.276,547.442 421.567,547.268 422.859,547.092 424.15,546.914 425.441,546.736 426.733,546.556 428.024,546.375 429.315,546.193 430.607,546.01 431.898,545.825 433.189,545.639 434.481,545.452 435.772,545.263 437.063,545.073 438.355,544.881 439.646,544.688 440.938,544.494 442.229,544.298 443.52,544.101 444.812,543.902 446.103,543.702 447.394,543.501 448.686,543.297 449.977,543.093 451.268,542.886 452.56,542.679 453.851,542.469 455.142,542.258 456.434,542.045 457.725,541.831 459.016,541.615 460.308,541.397 461.599,541.177 462.891,540.956 464.182,540.733 465.473,540.508 466.765,540.281 468.056,540.053 469.347,539.822 470.639,539.59 471.93,539.355 473.221,539.119 474.513,538.88 475.804,538.64 477.095,538.397 478.387,538.153 479.678,537.906 480.97,537.657 482.261,537.406 483.552,537.152 484.844,536.897 486.135,536.639 487.426,536.378 488.718,536.115 490.009,535.85 491.3,535.582 492.592,535.312 493.883,535.039 495.174,534.763 496.466,534.485 497.757,534.204 499.049,533.92 500.34,533.634 501.631,533.344 502.923,533.052 504.214,532.756 505.505,532.458 506.797,532.156 508.088,531.851 509.379,531.542 510.671,531.23 511.962,530.915 513.253,530.596 514.545,530.274 515.836,529.947 517.127,529.617 518.419,529.283 519.71,528.945 521.002,528.602 522.293,528.255 523.584,527.903 524.876,527.547 526.167,527.185 527.458,526.818 528.75,526.445 530.041,526.066 531.332,525.682 532.624,525.291 533.915,524.893 535.206,524.49 536.498,524.08 537.789,523.663 539.081,523.24 540.372,522.811 541.663,522.374 542.955,521.931 544.246,521.482 545.537,521.025 546.829,520.562 548.12,520.092 549.411,519.616 550.703,519.133 551.994,518.643 553.285,518.147 554.577,517.644 555.868,517.135 557.16,516.619 558.451,516.097 559.742,515.569 561.034,515.034 562.325,514.494 563.616,513.947 564.908,513.395 566.199,512.837 567.49,512.274 568.782,511.705 570.073,511.131 571.364,510.552 572.656,509.968 573.947,509.379 575.238,508.785 576.53,508.188 577.821,507.586 579.113,506.981 580.404,506.372 581.695,505.761 582.987,505.146 584.278,504.529 585.569,503.91 586.861,503.289 588.152,502.668 589.443,502.047 590.735,501.426 592.026,500.807 593.317,500.189 594.609,499.573 595.9,498.96 597.192,498.349 598.483,497.741 599.774,497.136 601.066,496.535 602.357,495.937 603.648,495.343 604.94,494.753 606.231,494.167 607.522,493.585 608.814,493.007 610.105,492.434 611.396,491.865 612.688,491.301 613.979,490.741 615.271,490.185 616.562,489.635 617.853,489.088 619.145,488.546 620.436,488.009 621.727,487.476 623.019,486.948 624.31,486.423 625.601,485.903 626.893,485.387 628.184,484.875 629.475,484.367 630.767,483.863 632.058,483.362 633.349,482.864 634.641,482.369 635.932,481.878 637.224,481.389 638.515,480.902 639.806,480.417 641.098,479.934 642.389,479.452 643.68,478.971 644.972,478.491 646.263,478.011 647.554,477.53 648.846,477.048 650.137,476.564 651.428,476.077 652.72,475.586 654.011,475.09 655.303,474.589 656.594,474.081 657.885,473.567 659.177,473.046 660.468,472.517 661.759,471.981 663.051,471.436 664.342,470.883 665.633,470.321 666.925,469.749 668.216,469.169 669.507,468.578 670.799,467.978 672.09,467.368 673.382,466.747 674.673,466.116 675.964,465.474 677.256,464.821 678.547,464.157 679.838,463.482 681.13,462.796 682.421,462.098 683.712,461.388 685.004,460.667 686.295,459.934 687.586,459.19 688.878,458.433 690.169,457.664 691.46,456.883 692.752,456.09 694.043,455.285 695.335,454.467 696.626,453.637 697.917,452.794 699.209,451.939 700.5,451.072 701.791,450.192 703.083,449.299 704.374,448.394 705.665,447.476 706.957,446.545 708.248,445.601 709.539,444.645 710.831,443.676 712.122,442.694 713.414,441.698 714.705,440.69 715.996,439.669 717.288,438.634 718.579,437.586 719.87,436.524 721.162,435.448 722.453,434.359 723.744,433.256 725.036,432.139 726.327,431.008 727.618,429.863 728.91,428.703 730.201,427.529 731.493,426.34 732.784,425.137 734.075,423.919 735.367,422.687 736.658,421.439 737.949,420.176 739.241,418.899 740.532,417.606 741.823,416.298 743.115,414.975 744.406,413.637 745.697,412.283 746.989,410.915 748.28,409.531 749.571,408.132 750.863,406.717 752.154,405.288 753.446,403.843 754.737,402.384 756.028,400.91 757.32,399.421 758.611,397.918 759.902,396.401 761.194,394.87 762.485,393.325 763.776,391.767 765.068,390.197 766.359,388.614 767.65,387.019 768.942,385.413 770.233,383.796 771.525,382.17 772.816,380.534 774.107,378.89 775.399,377.239 776.69,375.581 777.981,373.919 779.273,372.253 780.564,370.584 781.855,368.915 783.147,367.246 784.438,365.58 785.729,363.919 787.021,362.264 788.312,360.618 789.604,358.984 790.895,357.365 792.186,355.763 793.478,354.182 794.769,352.624 796.06,351.095 797.352,349.598 798.643,348.137 799.934,346.718 801.226,345.345 802.517,344.024 803.808,342.761 805.1,341.562 806.391,340.434 807.682,339.385 808.974,338.422 810.265,337.554 811.557,336.789 812.848,336.138 814.139,335.61 815.431,335.216 816.722,334.967 818.013,334.876 819.305,334.955 820.596,335.218 821.887,335.678 823.179,336.351 824.47,337.251 825.761,338.396 827.053,339.8 828.344,341.482 829.636,343.459 830.927,345.749 832.218,348.369 833.51,351.338 834.801,354.675 836.092,358.397 837.384,362.522 838.675,367.067 839.966,372.048 841.258,377.481 842.549,383.38 843.84,389.756 845.132,396.619 846.423,403.978 847.715,411.838 849.006,420.201 850.297,429.066 851.589,438.428 852.88,448.28 854.171,458.609 855.463,469.397 856.754,480.625 858.045,492.266 859.337,504.292 860.628,516.669 861.919,529.359 863.211,542.32 864.502,555.508 865.793,568.875 867.085,582.373 868.376,595.949 869.668,609.552 870.959,623.128 872.25,636.626 873.542,649.993 874.833,663.181 876.124,676.143 877.416,688.832 878.707,701.209 879.998,713.235 881.29,724.876 882.581,736.104 883.872,746.893 885.164,757.221 886.455,767.073 887.747,776.435 889.038,785.3 890.329,793.663 891.621,801.523 892.912,808.882 894.203,815.746 895.495,822.122 896.786,828.02 898.077,833.453 899.369,838.434 900.66,842.979 901.951,847.104 903.243,850.826 904.534,854.163 905.826,857.132 907.117,859.753 908.408,862.042 909.7,864.019 910.991,865.701 912.282,867.106 913.574,868.25 914.865,869.151 916.156,869.824 917.448,870.284 918.739,870.547 920.03,870.626 921.322,870.535 922.613,870.286 923.904,869.892 925.196,869.364 926.487,868.712 927.779,867.948 929.07,867.08 930.361,866.117 931.653,865.067 932.944,863.94 934.235,862.741 935.527,861.478 936.818,860.157 938.109,858.784 939.401,857.365 940.692,855.904 941.983,854.407 943.275,852.878 944.566,851.321 945.858,849.739 947.149,848.137 948.44,846.518 949.732,844.884 951.023,843.239 952.314,841.584 953.606,839.923 954.897,838.257 956.188,836.588 957.48,834.919 958.771,833.25 960.062,831.584 961.354,829.922 962.645,828.264 963.937,826.613 965.228,824.969 966.519,823.334 967.811,821.707 969.102,820.091 970.393,818.485 971.685,816.89 972.976,815.307 974.267,813.737 975.559,812.179 976.85,810.634 978.141,809.103 979.433,807.586 980.724,806.083 982.015,804.594 983.307,803.121 984.598,801.661 985.89,800.217 987.181,798.788 988.472,797.373 989.764,795.974 991.055,794.59 992.346,793.222 993.638,791.868 994.929,790.53 996.22,789.207 997.512,787.899 998.803,786.607 1000.09,785.329 1001.39,784.067 1002.68,782.82 1003.97,781.587 1005.26,780.369 1006.55,779.166 1007.84,777.978 1009.13,776.804 1010.43,775.645 1011.72,774.499 1013.01,773.368 1014.3,772.252 1015.59,771.149 1016.88,770.06 1018.17,768.985 1019.46,767.923 1020.76,766.875 1022.05,765.841 1023.34,764.819 1024.63,763.811 1025.92,762.817 1027.21,761.835 1028.5,760.866 1029.8,759.91 1031.09,758.967 1032.38,758.036 1033.67,757.119 1034.96,756.214 1036.25,755.321 1037.54,754.442 1038.84,753.575 1040.13,752.72 1041.42,751.878 1042.71,751.049 1044,750.232 1045.29,749.427 1046.58,748.635 1047.87,747.854 1049.17,747.086 1050.46,746.33 1051.75,745.586 1053.04,744.854 1054.33,744.134 1055.62,743.425 1056.91,742.728 1058.21,742.043 1059.5,741.368 1060.79,740.705 1062.08,740.053 1063.37,739.412 1064.66,738.782 1065.95,738.162 1067.24,737.552 1068.54,736.953 1069.83,736.363 1071.12,735.783 1072.41,735.213 1073.7,734.652 1074.99,734.099 1076.28,733.555 1077.58,733.019 1078.87,732.491 1080.16,731.97 1081.45,731.457 1082.74,730.949 1084.03,730.448 1085.32,729.952 1086.62,729.461 1087.91,728.974 1089.2,728.49 1090.49,728.007 1091.78,727.525 1093.07,727.044 1094.36,726.562 1095.65,726.08 1096.95,725.597 1098.24,725.113 1099.53,724.626 1100.82,724.138 1102.11,723.647 1103.4,723.154 1104.69,722.658 1105.99,722.158 1107.28,721.655 1108.57,721.149 1109.86,720.639 1111.15,720.125 1112.44,719.606 1113.73,719.084 1115.03,718.558 1116.32,718.027 1117.61,717.492 1118.9,716.952 1120.19,716.408 1121.48,715.86 1122.77,715.306 1124.06,714.749 1125.36,714.187 1126.65,713.62 1127.94,713.049 1129.23,712.473 1130.52,711.893 1131.81,711.309 1133.1,710.72 1134.4,710.128 1135.69,709.532 1136.98,708.932 1138.27,708.329 1139.56,707.722 1140.85,707.112 1142.14,706.499 1143.43,705.884 1144.73,705.266 1146.02,704.646 1147.31,704.025 1148.6,703.403 1149.89,702.78 1151.18,702.158 1152.47,701.536 1153.77,700.916 1155.06,700.298 1156.35,699.683 1157.64,699.071 1158.93,698.461 1160.22,697.856 1161.51,697.254 1162.81,696.656 1164.1,696.062 1165.39,695.473 1166.68,694.889 1167.97,694.31 1169.26,693.736 1170.55,693.167 1171.84,692.604 1173.14,692.046 1174.43,691.494 1175.72,690.948 1177.01,690.408 1178.3,689.874 1179.59,689.346 1180.88,688.824 1182.18,688.309 1183.47,687.8 1184.76,687.298 1186.05,686.802 1187.34,686.313 1188.63,685.83 1189.92,685.355 1191.22,684.885 1192.51,684.423 1193.8,683.967 1195.09,683.518 1196.38,683.076 1197.67,682.641 1198.96,682.212 1200.25,681.789 1201.55,681.374 1202.84,680.964 1204.13,680.562 1205.42,680.165 1206.71,679.775 1208,679.391 1209.29,679.013 1210.59,678.641 1211.88,678.274 1213.17,677.913 1214.46,677.557 1215.75,677.206 1217.04,676.859 1218.33,676.517 1219.62,676.179 1220.92,675.845 1222.21,675.515 1223.5,675.189 1224.79,674.867 1226.08,674.549 1227.37,674.234 1228.66,673.922 1229.96,673.614 1231.25,673.309 1232.54,673.007 1233.83,672.709 1235.12,672.414 1236.41,672.121 1237.7,671.832 1239,671.546 1240.29,671.262 1241.58,670.981 1242.87,670.703 1244.16,670.428 1245.45,670.155 1246.74,669.885 1248.03,669.617 1249.33,669.352 1250.62,669.089 1251.91,668.829 1253.2,668.571 1254.49,668.316 1255.78,668.062 1257.07,667.811 1258.37,667.562 1259.66,667.316 1260.95,667.071 1262.24,666.829 1263.53,666.588 1264.82,666.35 1266.11,666.114 1267.41,665.879 1268.7,665.647 1269.99,665.416 1271.28,665.188 1272.57,664.961 1273.86,664.736 1275.15,664.513 1276.44,664.292 1277.74,664.072 1279.03,663.855 1280.32,663.639 1281.61,663.424 1282.9,663.212 1284.19,663.001 1285.48,662.791 1286.78,662.583 1288.07,662.377 1289.36,662.172 1290.65,661.969 1291.94,661.768 1293.23,661.568 1294.52,661.369 1295.81,661.172 1297.11,660.976 1298.4,660.782 1299.69,660.589 1300.98,660.398 1302.27,660.207 1303.56,660.019 1304.85,659.831 1306.15,659.645 1307.44,659.461 1308.73,659.277 1310.02,659.095 1311.31,658.914 1312.6,658.734 1313.89,658.556 1315.19,658.379 1316.48,658.203 1317.77,658.028 1319.06,657.854 1320.35,657.682 1321.64,657.511 1322.93,657.341 1324.22,657.172 1325.52,657.004 1326.81,656.837 1328.1,656.671 1329.39,656.507 1330.68,656.343 1331.97,656.181 1333.26,656.02 1334.56,655.859 1335.85,655.7 1337.14,655.542 1338.43,655.384 1339.72,655.228 1341.01,655.073 1342.3,654.918 1343.6,654.765 1344.89,654.613 1346.18,654.461 1347.47,654.311 1348.76,654.161 1350.05,654.012 1351.34,653.865 1352.63,653.718 1353.93,653.572 1355.22,653.427 1356.51,653.283 1357.8,653.139 1359.09,652.997 1360.38,652.855 1361.67,652.714 1362.97,652.574 1364.26,652.435 1365.55,652.297 1366.84,652.159 1368.13,652.023 1369.42,651.887 1370.71,651.752 1372,651.617 1373.3,651.484 1374.59,651.351 1375.88,651.219 1377.17,651.088 1378.46,650.957 1379.75,650.828 1381.04,650.698 1382.34,650.57 1383.63,650.443 1384.92,650.316 1386.21,650.189 1387.5,650.064 1388.79,649.939 1390.08,649.815 1391.38,649.692 1392.67,649.569 1393.96,649.447 1395.25,649.325 1396.54,649.205 1397.83,649.085 1399.12,648.965 1400.41,648.846 1401.71,648.728 1403,648.611 1404.29,648.494 1405.58,648.378 1406.87,648.262 1408.16,648.147 1409.45,648.033 1410.75,647.919 1412.04,647.805 1413.33,647.693 1414.62,647.581 1415.91,647.469 1417.2,647.358 1418.49,647.248 1419.79,647.138 1421.08,647.029 1422.37,646.921 1423.66,646.812 1424.95,646.705 1426.24,646.598 1427.53,646.491 1428.82,646.386 1430.12,646.28 1431.41,646.175 1432.7,646.071 1433.99,645.967 1435.28,645.864 1436.57,645.761 1437.86,645.659 1439.16,645.557 1440.45,645.456 1441.74,645.355 1443.03,645.255 1444.32,645.155 1445.61,645.056 1446.9,644.957 1448.19,644.859 1449.49,644.761 1450.78,644.664 1452.07,644.567 1453.36,644.47 1454.65,644.374 1455.94,644.279 1457.23,644.184 1458.53,644.089 1459.82,643.995 1461.11,643.901 1462.4,643.808 1463.69,643.715 1464.98,643.623 1466.27,643.531 1467.57,643.439 1468.86,643.348 1470.15,643.257 1471.44,643.167 1472.73,643.077 1474.02,642.988 1475.31,642.899 1476.6,642.81 1477.9,642.722 1479.19,642.634 1480.48,642.546 1481.77,642.459 1483.06,642.373 1484.35,642.287 1485.64,642.201 1486.94,642.115 1488.23,642.03 1489.52,641.945 1490.81,641.861 1492.1,641.777 1493.39,641.693 1494.68,641.61 1495.98,641.527 1497.27,641.445 1498.56,641.363 1499.85,641.281 1501.14,641.2 1502.43,641.119 1503.72,641.038 1505.01,640.957 1506.31,640.877 1507.6,640.798 1508.89,640.718 1510.18,640.64 1511.47,640.561 1512.76,640.483 1514.05,640.405 "/>
<polyline clip-path="url(#clip992)" style="stroke:#3da44d; stroke-linecap:round; stroke-linejoin:round; stroke-width:4; stroke-opacity:1; fill:none" stroke-dasharray="16, 10" points="223.99,605.084 225.281,605.084 226.572,605.084 227.864,605.084 229.155,605.084 230.447,605.084 231.738,605.084 233.029,605.084 234.321,605.084 235.612,605.084 236.903,605.084 238.195,605.084 239.486,605.084 240.777,605.084 242.069,605.084 243.36,605.084 244.651,605.084 245.943,605.084 247.234,605.084 248.526,605.084 249.817,605.084 251.108,605.084 252.4,605.084 253.691,605.084 254.982,605.084 256.274,605.084 257.565,605.084 258.856,605.084 260.148,605.084 261.439,605.084 262.73,605.084 264.022,605.084 265.313,605.084 266.605,605.084 267.896,605.084 269.187,605.084 270.479,605.084 271.77,605.084 273.061,605.084 274.353,605.084 275.644,605.084 276.935,605.084 278.227,605.084 279.518,605.084 280.809,605.084 282.101,605.084 283.392,605.084 284.683,605.084 285.975,605.084 287.266,605.084 288.558,605.084 289.849,605.084 291.14,605.084 292.432,605.084 293.723,605.084 295.014,605.084 296.306,605.084 297.597,605.084 298.888,605.084 300.18,605.084 301.471,605.084 302.762,605.084 304.054,605.084 305.345,605.084 306.637,605.084 307.928,605.084 309.219,605.084 310.511,605.084 311.802,605.084 313.093,605.084 314.385,605.084 315.676,605.084 316.967,605.084 318.259,605.084 319.55,605.084 320.841,605.084 322.133,605.084 323.424,605.084 324.716,605.084 326.007,605.084 327.298,605.084 328.59,605.084 329.881,605.084 331.172,605.084 332.464,605.084 333.755,605.084 335.046,605.084 336.338,605.084 337.629,605.084 338.92,605.084 340.212,605.084 341.503,605.084 342.794,605.084 344.086,605.084 345.377,605.084 346.669,605.084 347.96,605.084 349.251,605.084 350.543,605.084 351.834,605.084 353.125,605.084 354.417,605.084 355.708,605.084 356.999,605.084 358.291,605.084 359.582,605.084 360.873,605.084 362.165,605.084 363.456,605.084 364.748,605.084 366.039,605.084 367.33,605.084 368.622,605.084 369.913,605.084 371.204,605.084 372.496,605.084 373.787,605.084 375.078,605.084 376.37,605.084 377.661,605.084 378.952,605.084 380.244,605.084 381.535,605.084 382.827,605.084 384.118,605.084 385.409,605.084 386.701,605.084 387.992,605.084 389.283,605.084 390.575,605.084 391.866,605.084 393.157,605.084 394.449,605.084 395.74,605.084 397.031,605.084 398.323,605.084 399.614,605.084 400.905,605.084 402.197,605.084 403.488,605.084 404.78,605.084 406.071,605.084 407.362,605.084 408.654,605.084 409.945,605.084 411.236,605.084 412.528,605.084 413.819,605.084 415.11,605.084 416.402,605.084 417.693,605.084 418.984,605.084 420.276,605.084 421.567,605.084 422.859,605.084 424.15,605.084 425.441,605.084 426.733,605.084 428.024,605.084 429.315,605.084 430.607,605.084 431.898,605.084 433.189,605.084 434.481,605.084 435.772,605.084 437.063,605.084 438.355,605.084 439.646,605.084 440.938,605.084 442.229,605.084 443.52,605.084 444.812,605.084 446.103,605.084 447.394,605.084 448.686,605.084 449.977,605.084 451.268,605.084 452.56,605.084 453.851,605.084 455.142,605.084 456.434,605.084 457.725,605.084 459.016,605.084 460.308,605.084 461.599,605.084 462.891,605.084 464.182,605.084 465.473,605.084 466.765,605.084 468.056,605.084 469.347,605.084 470.639,605.084 471.93,605.084 473.221,605.084 474.513,605.084 475.804,605.084 477.095,605.084 478.387,605.084 479.678,605.084 480.97,605.084 482.261,605.084 483.552,605.084 484.844,605.084 486.135,605.084 487.426,605.084 488.718,605.084 490.009,605.084 491.3,605.084 492.592,605.084 493.883,605.084 495.174,605.084 496.466,605.084 497.757,605.084 499.049,605.084 500.34,605.084 501.631,605.084 502.923,605.084 504.214,605.084 505.505,605.084 506.797,605.084 508.088,605.084 509.379,605.084 510.671,605.084 511.962,605.084 513.253,605.084 514.545,605.084 515.836,605.084 517.127,605.084 518.419,605.084 519.71,605.084 521.002,605.084 522.293,605.084 523.584,605.084 524.876,605.084 526.167,605.084 527.458,605.084 528.75,605.083 530.041,605.082 531.332,605.08 532.624,605.077 533.915,605.072 535.206,605.065 536.498,605.057 537.789,605.047 539.081,605.034 540.372,605.019 541.663,605.001 542.955,604.98 544.246,604.956 545.537,604.928 546.829,604.896 548.12,604.861 549.411,604.821 550.703,604.777 551.994,604.728 553.285,604.674 554.577,604.615 555.868,604.55 557.16,604.48 558.451,604.404 559.742,604.322 561.034,604.233 562.325,604.138 563.616,604.036 564.908,603.927 566.199,603.811 567.49,603.687 568.782,603.555 570.073,603.416 571.364,603.268 572.656,603.111 573.947,602.946 575.238,602.772 576.53,602.589 577.821,602.396 579.113,602.194 580.404,601.981 581.695,601.759 582.987,601.526 584.278,601.282 585.569,601.028 586.861,600.762 588.152,600.486 589.443,600.197 590.735,599.898 592.026,599.588 593.317,599.268 594.609,598.937 595.9,598.597 597.192,598.247 598.483,597.889 599.774,597.521 601.066,597.145 602.357,596.761 603.648,596.369 604.94,595.969 606.231,595.562 607.522,595.148 608.814,594.728 610.105,594.301 611.396,593.869 612.688,593.431 613.979,592.987 615.271,592.539 616.562,592.086 617.853,591.628 619.145,591.167 620.436,590.702 621.727,590.233 623.019,589.762 624.31,589.287 625.601,588.811 626.893,588.332 628.184,587.851 629.475,587.369 630.767,586.886 632.058,586.402 633.349,585.918 634.641,585.433 635.932,584.949 637.224,584.465 638.515,583.981 639.806,583.499 641.098,583.018 642.389,582.539 643.68,582.062 644.972,581.588 646.263,581.116 647.554,580.647 648.846,580.182 650.137,579.72 651.428,579.262 652.72,578.807 654.011,578.356 655.303,577.908 656.594,577.462 657.885,577.017 659.177,576.575 660.468,576.133 661.759,575.692 663.051,575.251 664.342,574.81 665.633,574.369 666.925,573.926 668.216,573.482 669.507,573.036 670.799,572.588 672.09,572.137 673.382,571.682 674.673,571.224 675.964,570.763 677.256,570.296 678.547,569.825 679.838,569.349 681.13,568.867 682.421,568.378 683.712,567.884 685.004,567.382 686.295,566.873 687.586,566.356 688.878,565.831 690.169,565.297 691.46,564.754 692.752,564.201 694.043,563.639 695.335,563.066 696.626,562.482 697.917,561.888 699.209,561.281 700.5,560.663 701.791,560.032 703.083,559.388 704.374,558.731 705.665,558.06 706.957,557.375 708.248,556.676 709.539,555.961 710.831,555.231 712.122,554.485 713.414,553.723 714.705,552.944 715.996,552.148 717.288,551.334 718.579,550.502 719.87,549.651 721.162,548.781 722.453,547.892 723.744,546.982 725.036,546.05 726.327,545.098 727.618,544.123 728.91,543.125 730.201,542.103 731.493,541.058 732.784,539.987 734.075,538.89 735.367,537.767 736.658,536.616 737.949,535.437 739.241,534.229 740.532,532.991 741.823,531.722 743.115,530.421 744.406,529.087 745.697,527.719 746.989,526.315 748.28,524.876 749.571,523.399 750.863,521.884 752.154,520.328 753.446,518.732 754.737,517.093 756.028,515.41 757.32,513.681 758.611,511.906 759.902,510.082 761.194,508.208 762.485,506.283 763.776,504.304 765.068,502.27 766.359,500.178 767.65,498.028 768.942,495.816 770.233,493.541 771.525,491.201 772.816,488.794 774.107,486.317 775.399,483.767 776.69,481.143 777.981,478.442 779.273,475.661 780.564,472.798 781.855,469.849 783.147,466.813 784.438,463.685 785.729,460.464 787.021,457.145 788.312,453.725 789.604,450.203 790.895,446.573 792.186,442.833 793.478,438.978 794.769,435.007 796.06,430.914 797.352,426.697 798.643,422.352 799.934,417.874 801.226,413.261 802.517,408.509 803.808,403.613 805.1,398.571 806.391,393.378 807.682,388.032 808.974,382.529 810.265,376.866 811.557,371.041 812.848,365.049 814.139,358.89 815.431,352.561 816.722,346.061 818.013,339.389 819.305,332.544 820.596,325.527 821.887,318.338 823.179,310.979 824.47,303.453 825.761,295.765 827.053,287.918 828.344,279.919 829.636,271.775 830.927,263.496 832.218,255.093 833.51,246.578 834.801,237.964 836.092,229.27 837.384,220.512 838.675,211.712 839.966,202.892 841.258,194.078 842.549,185.296 843.84,176.576 845.132,167.95 846.423,159.451 847.715,151.115 849.006,142.979 850.297,135.083 851.589,127.466 852.88,120.168 854.171,113.231 855.463,106.695 856.754,100.601 858.045,94.9877 859.337,89.8919 860.628,85.3489 861.919,81.3907 863.211,78.0458 864.502,75.3389 865.793,73.2904 867.085,71.916 868.376,71.2261 869.668,71.2261 870.959,71.916 872.25,73.2904 873.542,75.3389 874.833,78.0458 876.124,81.3907 877.416,85.3489 878.707,89.8919 879.998,94.9877 881.29,100.601 882.581,106.695 883.872,113.231 885.164,120.168 886.455,127.466 887.747,135.083 889.038,142.979 890.329,151.115 891.621,159.451 892.912,167.95 894.203,176.576 895.495,185.296 896.786,194.078 898.077,202.892 899.369,211.712 900.66,220.512 901.951,229.27 903.243,237.964 904.534,246.578 905.826,255.093 907.117,263.496 908.408,271.775 909.7,279.919 910.991,287.918 912.282,295.765 913.574,303.453 914.865,310.979 916.156,318.338 917.448,325.527 918.739,332.544 920.03,339.389 921.322,346.061 922.613,352.561 923.904,358.89 925.196,365.049 926.487,371.041 927.779,376.866 929.07,382.529 930.361,388.032 931.653,393.378 932.944,398.571 934.235,403.613 935.527,408.509 936.818,413.261 938.109,417.874 939.401,422.352 940.692,426.697 941.983,430.914 943.275,435.007 944.566,438.978 945.858,442.833 947.149,446.573 948.44,450.203 949.732,453.725 951.023,457.145 952.314,460.464 953.606,463.685 954.897,466.813 956.188,469.849 957.48,472.798 958.771,475.661 960.062,478.442 961.354,481.143 962.645,483.767 963.937,486.317 965.228,488.794 966.519,491.201 967.811,493.541 969.102,495.816 970.393,498.028 971.685,500.178 972.976,502.27 974.267,504.304 975.559,506.283 976.85,508.208 978.141,510.082 979.433,511.906 980.724,513.681 982.015,515.41 983.307,517.093 984.598,518.732 985.89,520.328 987.181,521.884 988.472,523.399 989.764,524.876 991.055,526.315 992.346,527.719 993.638,529.087 994.929,530.421 996.22,531.722 997.512,532.991 998.803,534.229 1000.09,535.437 1001.39,536.616 1002.68,537.767 1003.97,538.89 1005.26,539.987 1006.55,541.058 1007.84,542.103 1009.13,543.125 1010.43,544.123 1011.72,545.098 1013.01,546.05 1014.3,546.982 1015.59,547.892 1016.88,548.781 1018.17,549.651 1019.46,550.502 1020.76,551.334 1022.05,552.148 1023.34,552.944 1024.63,553.723 1025.92,554.485 1027.21,555.231 1028.5,555.961 1029.8,556.676 1031.09,557.375 1032.38,558.06 1033.67,558.731 1034.96,559.388 1036.25,560.032 1037.54,560.663 1038.84,561.281 1040.13,561.888 1041.42,562.483 1042.71,563.066 1044,563.639 1045.29,564.202 1046.58,564.754 1047.87,565.298 1049.17,565.832 1050.46,566.357 1051.75,566.875 1053.04,567.384 1054.33,567.886 1055.62,568.382 1056.91,568.87 1058.21,569.353 1059.5,569.83 1060.79,570.302 1062.08,570.769 1063.37,571.232 1064.66,571.69 1065.95,572.145 1067.24,572.597 1068.54,573.047 1069.83,573.494 1071.12,573.939 1072.41,574.383 1073.7,574.826 1074.99,575.269 1076.28,575.711 1077.58,576.154 1078.87,576.597 1080.16,577.041 1081.45,577.488 1082.74,577.936 1084.03,578.386 1085.32,578.84 1086.62,579.296 1087.91,579.757 1089.2,580.221 1090.49,580.689 1091.78,581.16 1093.07,581.634 1094.36,582.11 1095.65,582.589 1096.95,583.07 1098.24,583.553 1099.53,584.037 1100.82,584.522 1102.11,585.008 1103.4,585.494 1104.69,585.98 1105.99,586.466 1107.28,586.951 1108.57,587.435 1109.86,587.918 1111.15,588.4 1112.44,588.88 1113.73,589.357 1115.03,589.832 1116.32,590.304 1117.61,590.774 1118.9,591.239 1120.19,591.701 1121.48,592.159 1122.77,592.612 1124.06,593.061 1125.36,593.504 1126.65,593.942 1127.94,594.374 1129.23,594.801 1130.52,595.221 1131.81,595.634 1133.1,596.04 1134.4,596.439 1135.69,596.831 1136.98,597.214 1138.27,597.589 1139.56,597.956 1140.85,598.314 1142.14,598.662 1143.43,599.001 1144.73,599.33 1146.02,599.649 1147.31,599.957 1148.6,600.254 1149.89,600.541 1151.18,600.816 1152.47,601.079 1153.77,601.332 1155.06,601.573 1156.35,601.804 1157.64,602.025 1158.93,602.235 1160.22,602.436 1161.51,602.627 1162.81,602.809 1164.1,602.981 1165.39,603.145 1166.68,603.299 1167.97,603.446 1169.26,603.584 1170.55,603.714 1171.84,603.836 1173.14,603.951 1174.43,604.059 1175.72,604.159 1177.01,604.253 1178.3,604.34 1179.59,604.421 1180.88,604.496 1182.18,604.565 1183.47,604.628 1184.76,604.686 1186.05,604.739 1187.34,604.787 1188.63,604.83 1189.92,604.869 1191.22,604.904 1192.51,604.934 1193.8,604.962 1195.09,604.985 1196.38,605.005 1197.67,605.023 1198.96,605.037 1200.25,605.05 1201.55,605.059 1202.84,605.067 1204.13,605.073 1205.42,605.077 1206.71,605.081 1208,605.083 1209.29,605.084 1210.59,605.084 1211.88,605.084 1213.17,605.084 1214.46,605.084 1215.75,605.084 1217.04,605.084 1218.33,605.084 1219.62,605.084 1220.92,605.084 1222.21,605.084 1223.5,605.084 1224.79,605.084 1226.08,605.084 1227.37,605.084 1228.66,605.084 1229.96,605.084 1231.25,605.084 1232.54,605.084 1233.83,605.084 1235.12,605.084 1236.41,605.084 1237.7,605.084 1239,605.084 1240.29,605.084 1241.58,605.084 1242.87,605.084 1244.16,605.084 1245.45,605.084 1246.74,605.084 1248.03,605.084 1249.33,605.084 1250.62,605.084 1251.91,605.084 1253.2,605.084 1254.49,605.084 1255.78,605.084 1257.07,605.084 1258.37,605.084 1259.66,605.084 1260.95,605.084 1262.24,605.084 1263.53,605.084 1264.82,605.084 1266.11,605.084 1267.41,605.084 1268.7,605.084 1269.99,605.084 1271.28,605.084 1272.57,605.084 1273.86,605.084 1275.15,605.084 1276.44,605.084 1277.74,605.084 1279.03,605.084 1280.32,605.084 1281.61,605.084 1282.9,605.084 1284.19,605.084 1285.48,605.084 1286.78,605.084 1288.07,605.084 1289.36,605.084 1290.65,605.084 1291.94,605.084 1293.23,605.084 1294.52,605.084 1295.81,605.084 1297.11,605.084 1298.4,605.084 1299.69,605.084 1300.98,605.084 1302.27,605.084 1303.56,605.084 1304.85,605.084 1306.15,605.084 1307.44,605.084 1308.73,605.084 1310.02,605.084 1311.31,605.084 1312.6,605.084 1313.89,605.084 1315.19,605.084 1316.48,605.084 1317.77,605.084 1319.06,605.084 1320.35,605.084 1321.64,605.084 1322.93,605.084 1324.22,605.084 1325.52,605.084 1326.81,605.084 1328.1,605.084 1329.39,605.084 1330.68,605.084 1331.97,605.084 1333.26,605.084 1334.56,605.084 1335.85,605.084 1337.14,605.084 1338.43,605.084 1339.72,605.084 1341.01,605.084 1342.3,605.084 1343.6,605.084 1344.89,605.084 1346.18,605.084 1347.47,605.084 1348.76,605.084 1350.05,605.084 1351.34,605.084 1352.63,605.084 1353.93,605.084 1355.22,605.084 1356.51,605.084 1357.8,605.084 1359.09,605.084 1360.38,605.084 1361.67,605.084 1362.97,605.084 1364.26,605.084 1365.55,605.084 1366.84,605.084 1368.13,605.084 1369.42,605.084 1370.71,605.084 1372,605.084 1373.3,605.084 1374.59,605.084 1375.88,605.084 1377.17,605.084 1378.46,605.084 1379.75,605.084 1381.04,605.084 1382.34,605.084 1383.63,605.084 1384.92,605.084 1386.21,605.084 1387.5,605.084 1388.79,605.084 1390.08,605.084 1391.38,605.084 1392.67,605.084 1393.96,605.084 1395.25,605.084 1396.54,605.084 1397.83,605.084 1399.12,605.084 1400.41,605.084 1401.71,605.084 1403,605.084 1404.29,605.084 1405.58,605.084 1406.87,605.084 1408.16,605.084 1409.45,605.084 1410.75,605.084 1412.04,605.084 1413.33,605.084 1414.62,605.084 1415.91,605.084 1417.2,605.084 1418.49,605.084 1419.79,605.084 1421.08,605.084 1422.37,605.084 1423.66,605.084 1424.95,605.084 1426.24,605.084 1427.53,605.084 1428.82,605.084 1430.12,605.084 1431.41,605.084 1432.7,605.084 1433.99,605.084 1435.28,605.084 1436.57,605.084 1437.86,605.084 1439.16,605.084 1440.45,605.084 1441.74,605.084 1443.03,605.084 1444.32,605.084 1445.61,605.084 1446.9,605.084 1448.19,605.084 1449.49,605.084 1450.78,605.084 1452.07,605.084 1453.36,605.084 1454.65,605.084 1455.94,605.084 1457.23,605.084 1458.53,605.084 1459.82,605.084 1461.11,605.084 1462.4,605.084 1463.69,605.084 1464.98,605.084 1466.27,605.084 1467.57,605.084 1468.86,605.084 1470.15,605.084 1471.44,605.084 1472.73,605.084 1474.02,605.084 1475.31,605.084 1476.6,605.084 1477.9,605.084 1479.19,605.084 1480.48,605.084 1481.77,605.084 1483.06,605.084 1484.35,605.084 1485.64,605.084 1486.94,605.084 1488.23,605.084 1489.52,605.084 1490.81,605.084 1492.1,605.084 1493.39,605.084 1494.68,605.084 1495.98,605.084 1497.27,605.084 1498.56,605.084 1499.85,605.084 1501.14,605.084 1502.43,605.084 1503.72,605.084 1505.01,605.084 1506.31,605.084 1507.6,605.084 1508.89,605.084 1510.18,605.084 1511.47,605.084 1512.76,605.084 1514.05,605.084 "/>
<polyline clip-path="url(#clip992)" style="stroke:#c271d2; stroke-linecap:round; stroke-linejoin:round; stroke-width:4; stroke-opacity:1; fill:none" stroke-dasharray="2, 4" points="-1182.18,605.084 2920.22,605.084 "/>
<path clip-path="url(#clip990)" d="M1094.57 282.85 L1507.17 282.85 L1507.17 75.4896 L1094.57 75.4896  Z" fill="#ffffff" fill-rule="evenodd" fill-opacity="1"/>
<polyline clip-path="url(#clip990)" style="stroke:#000000; stroke-linecap:round; stroke-linejoin:round; stroke-width:4; stroke-opacity:1; fill:none" points="1094.57,282.85 1507.17,282.85 1507.17,75.4896 1094.57,75.4896 1094.57,282.85 "/>
<polyline clip-path="url(#clip990)" style="stroke:#1f77b4; stroke-linecap:round; stroke-linejoin:round; stroke-width:4; stroke-opacity:1; fill:none" points="1109.77,127.33 1200.93,127.33 "/>
<path clip-path="url(#clip990)" d="M1222.19 130.628 Q1219.6 130.073 1218.21 128.568 Q1216.82 127.086 1216.82 124.934 Q1216.82 121.67 1219.46 119.841 Q1222.07 118.036 1226.61 118.036 Q1228.37 118.036 1230.34 118.313 Q1232.31 118.591 1234.57 119.147 L1234.57 123.012 Q1232.33 122.341 1230.48 122.04 Q1228.6 121.739 1226.96 121.739 Q1224.2 121.739 1222.61 122.804 Q1220.99 123.869 1220.99 125.35 Q1220.99 126.971 1222.56 128.012 Q1224.11 129.031 1226.8 129.031 L1230.38 129.031 L1230.38 132.549 L1226.96 132.549 Q1223.79 132.549 1222.12 133.73 Q1220.31 135.026 1220.31 137.063 Q1220.31 139.147 1222.26 140.443 Q1224.23 141.739 1227.72 141.739 Q1229.87 141.739 1231.84 141.323 Q1233.81 140.883 1235.45 140.026 L1235.45 143.985 Q1233.37 144.633 1231.43 144.957 Q1229.46 145.281 1227.61 145.281 Q1222.1 145.281 1219.11 143.174 Q1216.12 141.068 1216.12 137.063 Q1216.12 134.563 1217.72 132.874 Q1219.32 131.184 1222.19 130.628 Z" fill="#000000" fill-rule="nonzero" fill-opacity="1" /><path clip-path="url(#clip990)" d="M1244.87 141.971 L1254.69 141.971 L1254.69 144.61 L1240.85 144.61 L1240.85 142.063 Q1241.63 141.346 1243.09 140.049 Q1251.05 132.989 1251.05 130.813 Q1251.05 129.286 1249.85 128.36 Q1248.65 127.411 1246.68 127.411 Q1245.48 127.411 1244.06 127.827 Q1242.65 128.221 1240.99 129.031 L1240.99 126.184 Q1242.77 125.536 1244.3 125.212 Q1245.85 124.887 1247.17 124.887 Q1250.52 124.887 1252.54 126.415 Q1254.55 127.943 1254.55 130.443 Q1254.55 133.661 1246.89 140.235 Q1245.59 141.346 1244.87 141.971 Z" fill="#000000" fill-rule="nonzero" fill-opacity="1" /><path clip-path="url(#clip990)" d="M1287.44 108.638 Q1284.34 113.962 1282.84 119.17 Q1281.33 124.378 1281.33 129.725 Q1281.33 135.073 1282.84 140.327 Q1284.36 145.559 1287.44 150.86 L1283.74 150.86 Q1280.27 145.42 1278.53 140.165 Q1276.82 134.911 1276.82 129.725 Q1276.82 124.563 1278.53 119.332 Q1280.24 114.1 1283.74 108.638 L1287.44 108.638 Z" fill="#000000" fill-rule="nonzero" fill-opacity="1" /><path clip-path="url(#clip990)" d="M1296.45 143.892 L1296.45 139.633 Q1298.21 140.466 1300.01 140.906 Q1301.82 141.346 1303.55 141.346 Q1308.18 141.346 1310.61 138.244 Q1313.07 135.119 1313.42 128.776 Q1312.07 130.767 1310.01 131.832 Q1307.95 132.897 1305.45 132.897 Q1300.27 132.897 1297.24 129.772 Q1294.23 126.624 1294.23 121.184 Q1294.23 115.86 1297.37 112.642 Q1300.52 109.425 1305.75 109.425 Q1311.75 109.425 1314.9 114.031 Q1318.07 118.614 1318.07 127.364 Q1318.07 135.536 1314.18 140.42 Q1310.31 145.281 1303.76 145.281 Q1302 145.281 1300.2 144.934 Q1298.39 144.586 1296.45 143.892 M1305.75 129.239 Q1308.9 129.239 1310.73 127.086 Q1312.58 124.934 1312.58 121.184 Q1312.58 117.457 1310.73 115.304 Q1308.9 113.128 1305.75 113.128 Q1302.61 113.128 1300.75 115.304 Q1298.93 117.457 1298.93 121.184 Q1298.93 124.934 1300.75 127.086 Q1302.61 129.239 1305.75 129.239 Z" fill="#000000" fill-rule="nonzero" fill-opacity="1" /><path clip-path="url(#clip990)" d="M1326.52 110.05 L1344.87 110.05 L1344.87 113.985 L1330.8 113.985 L1330.8 122.457 Q1331.82 122.11 1332.84 121.948 Q1333.86 121.762 1334.87 121.762 Q1340.66 121.762 1344.04 124.934 Q1347.42 128.105 1347.42 133.522 Q1347.42 139.1 1343.95 142.202 Q1340.48 145.281 1334.16 145.281 Q1331.98 145.281 1329.71 144.91 Q1327.47 144.54 1325.06 143.799 L1325.06 139.1 Q1327.14 140.235 1329.36 140.79 Q1331.59 141.346 1334.06 141.346 Q1338.07 141.346 1340.41 139.239 Q1342.74 137.133 1342.74 133.522 Q1342.74 129.911 1340.41 127.804 Q1338.07 125.698 1334.06 125.698 Q1332.19 125.698 1330.31 126.114 Q1328.46 126.531 1326.52 127.411 L1326.52 110.05 Z" fill="#000000" fill-rule="nonzero" fill-opacity="1" /><path clip-path="url(#clip990)" d="M1386.03 129.401 Q1384.02 129.401 1382.86 131.114 Q1381.73 132.827 1381.73 135.883 Q1381.73 138.892 1382.86 140.628 Q1384.02 142.341 1386.03 142.341 Q1388 142.341 1389.13 140.628 Q1390.29 138.892 1390.29 135.883 Q1390.29 132.85 1389.13 131.137 Q1388 129.401 1386.03 129.401 M1386.03 126.462 Q1389.69 126.462 1391.84 129.008 Q1393.99 131.554 1393.99 135.883 Q1393.99 140.211 1391.82 142.758 Q1389.67 145.281 1386.03 145.281 Q1382.33 145.281 1380.17 142.758 Q1378.02 140.211 1378.02 135.883 Q1378.02 131.531 1380.17 129.008 Q1382.35 126.462 1386.03 126.462 M1362.14 112.364 Q1360.15 112.364 1358.99 114.1 Q1357.86 115.813 1357.86 118.823 Q1357.86 121.878 1358.99 123.591 Q1360.13 125.304 1362.14 125.304 Q1364.16 125.304 1365.29 123.591 Q1366.45 121.878 1366.45 118.823 Q1366.45 115.837 1365.29 114.1 Q1364.13 112.364 1362.14 112.364 M1383.04 109.425 L1386.75 109.425 L1365.13 145.281 L1361.42 145.281 L1383.04 109.425 M1362.14 109.425 Q1365.8 109.425 1367.98 111.971 Q1370.15 114.494 1370.15 118.823 Q1370.15 123.198 1367.98 125.721 Q1365.82 128.244 1362.14 128.244 Q1358.46 128.244 1356.31 125.721 Q1354.18 123.174 1354.18 118.823 Q1354.18 114.517 1356.33 111.971 Q1358.48 109.425 1362.14 109.425 Z" fill="#000000" fill-rule="nonzero" fill-opacity="1" /><path clip-path="url(#clip990)" d="M1400.41 108.638 L1404.11 108.638 Q1407.58 114.1 1409.29 119.332 Q1411.03 124.563 1411.03 129.725 Q1411.03 134.911 1409.29 140.165 Q1407.58 145.42 1404.11 150.86 L1400.41 150.86 Q1403.48 145.559 1404.99 140.327 Q1406.52 135.073 1406.52 129.725 Q1406.52 124.378 1404.99 119.17 Q1403.48 113.962 1400.41 108.638 Z" fill="#000000" fill-rule="nonzero" fill-opacity="1" /><polyline clip-path="url(#clip990)" style="stroke:#e26f46; stroke-linecap:round; stroke-linejoin:round; stroke-width:4; stroke-opacity:1; fill:none" points="1109.77,179.17 1200.93,179.17 "/>
<path clip-path="url(#clip990)" d="M1222.19 182.468 Q1219.6 181.913 1218.21 180.408 Q1216.82 178.926 1216.82 176.774 Q1216.82 173.51 1219.46 171.681 Q1222.07 169.876 1226.61 169.876 Q1228.37 169.876 1230.34 170.153 Q1232.31 170.431 1234.57 170.987 L1234.57 174.852 Q1232.33 174.181 1230.48 173.88 Q1228.6 173.579 1226.96 173.579 Q1224.2 173.579 1222.61 174.644 Q1220.99 175.709 1220.99 177.19 Q1220.99 178.811 1222.56 179.852 Q1224.11 180.871 1226.8 180.871 L1230.38 180.871 L1230.38 184.389 L1226.96 184.389 Q1223.79 184.389 1222.12 185.57 Q1220.31 186.866 1220.31 188.903 Q1220.31 190.987 1222.26 192.283 Q1224.23 193.579 1227.72 193.579 Q1229.87 193.579 1231.84 193.163 Q1233.81 192.723 1235.45 191.866 L1235.45 195.825 Q1233.37 196.473 1231.43 196.797 Q1229.46 197.121 1227.61 197.121 Q1222.1 197.121 1219.11 195.014 Q1216.12 192.908 1216.12 188.903 Q1216.12 186.403 1217.72 184.714 Q1219.32 183.024 1222.19 182.468 Z" fill="#000000" fill-rule="nonzero" fill-opacity="1" /><path clip-path="url(#clip990)" d="M1242.28 193.903 L1247 193.903 L1247 179.76 L1241.84 180.709 L1241.84 178.024 L1247.17 177.121 L1250.34 177.121 L1250.34 193.903 L1255.08 193.903 L1255.08 196.45 L1242.28 196.45 L1242.28 193.903 Z" fill="#000000" fill-rule="nonzero" fill-opacity="1" /><path clip-path="url(#clip990)" d="M1299.39 182.422 L1299.39 184.505 L1279.8 184.505 Q1280.08 188.903 1282.44 191.218 Q1284.83 193.51 1289.06 193.51 Q1291.52 193.51 1293.81 192.908 Q1296.12 192.306 1298.39 191.102 L1298.39 195.13 Q1296.1 196.102 1293.69 196.612 Q1291.29 197.121 1288.81 197.121 Q1282.61 197.121 1278.97 193.51 Q1275.36 189.899 1275.36 183.741 Q1275.36 177.376 1278.79 173.649 Q1282.24 169.899 1288.07 169.899 Q1293.3 169.899 1296.33 173.278 Q1299.39 176.635 1299.39 182.422 M1295.13 181.172 Q1295.08 177.677 1293.16 175.593 Q1291.26 173.51 1288.11 173.51 Q1284.55 173.51 1282.4 175.524 Q1280.27 177.538 1279.94 181.195 L1295.13 181.172 Z" fill="#000000" fill-rule="nonzero" fill-opacity="1" /><path clip-path="url(#clip990)" d="M1327.1 170.524 L1317.72 183.139 L1327.58 196.45 L1322.56 196.45 L1315.01 186.264 L1307.47 196.45 L1302.44 196.45 L1312.51 182.885 L1303.3 170.524 L1308.32 170.524 L1315.2 179.76 L1322.07 170.524 L1327.1 170.524 Z" fill="#000000" fill-rule="nonzero" fill-opacity="1" /><path clip-path="url(#clip990)" d="M1337.81 163.163 L1337.81 170.524 L1346.59 170.524 L1346.59 173.834 L1337.81 173.834 L1337.81 187.908 Q1337.81 191.079 1338.67 191.982 Q1339.55 192.885 1342.21 192.885 L1346.59 192.885 L1346.59 196.45 L1342.21 196.45 Q1337.28 196.45 1335.41 194.621 Q1333.53 192.769 1333.53 187.908 L1333.53 173.834 L1330.41 173.834 L1330.41 170.524 L1333.53 170.524 L1333.53 163.163 L1337.81 163.163 Z" fill="#000000" fill-rule="nonzero" fill-opacity="1" /><path clip-path="url(#clip990)" d="M1374.36 182.422 L1374.36 184.505 L1354.78 184.505 Q1355.06 188.903 1357.42 191.218 Q1359.8 193.51 1364.04 193.51 Q1366.49 193.51 1368.79 192.908 Q1371.1 192.306 1373.37 191.102 L1373.37 195.13 Q1371.08 196.102 1368.67 196.612 Q1366.26 197.121 1363.79 197.121 Q1357.58 197.121 1353.95 193.51 Q1350.34 189.899 1350.34 183.741 Q1350.34 177.376 1353.76 173.649 Q1357.21 169.899 1363.05 169.899 Q1368.28 169.899 1371.31 173.278 Q1374.36 176.635 1374.36 182.422 M1370.11 181.172 Q1370.06 177.677 1368.14 175.593 Q1366.24 173.51 1363.09 173.51 Q1359.53 173.51 1357.37 175.524 Q1355.24 177.538 1354.92 181.195 L1370.11 181.172 Z" fill="#000000" fill-rule="nonzero" fill-opacity="1" /><path clip-path="url(#clip990)" d="M1402.91 180.801 L1402.91 196.45 L1398.65 196.45 L1398.65 180.94 Q1398.65 177.26 1397.21 175.431 Q1395.78 173.602 1392.91 173.602 Q1389.46 173.602 1387.47 175.802 Q1385.48 178.001 1385.48 181.797 L1385.48 196.45 L1381.19 196.45 L1381.19 170.524 L1385.48 170.524 L1385.48 174.552 Q1387 172.214 1389.06 171.056 Q1391.15 169.899 1393.86 169.899 Q1398.32 169.899 1400.61 172.677 Q1402.91 175.431 1402.91 180.801 Z" fill="#000000" fill-rule="nonzero" fill-opacity="1" /><path clip-path="url(#clip990)" d="M1428.46 174.459 L1428.46 160.431 L1432.72 160.431 L1432.72 196.45 L1428.46 196.45 L1428.46 192.561 Q1427.12 194.875 1425.06 196.01 Q1423.02 197.121 1420.15 197.121 Q1415.45 197.121 1412.49 193.371 Q1409.55 189.621 1409.55 183.51 Q1409.55 177.399 1412.49 173.649 Q1415.45 169.899 1420.15 169.899 Q1423.02 169.899 1425.06 171.033 Q1427.12 172.144 1428.46 174.459 M1413.95 183.51 Q1413.95 188.209 1415.87 190.894 Q1417.81 193.556 1421.19 193.556 Q1424.57 193.556 1426.52 190.894 Q1428.46 188.209 1428.46 183.51 Q1428.46 178.811 1426.52 176.149 Q1424.57 173.464 1421.19 173.464 Q1417.81 173.464 1415.87 176.149 Q1413.95 178.811 1413.95 183.51 Z" fill="#000000" fill-rule="nonzero" fill-opacity="1" /><path clip-path="url(#clip990)" d="M1463.67 182.422 L1463.67 184.505 L1444.09 184.505 Q1444.36 188.903 1446.73 191.218 Q1449.11 193.51 1453.35 193.51 Q1455.8 193.51 1458.09 192.908 Q1460.41 192.306 1462.67 191.102 L1462.67 195.13 Q1460.38 196.102 1457.98 196.612 Q1455.57 197.121 1453.09 197.121 Q1446.89 197.121 1443.25 193.51 Q1439.64 189.899 1439.64 183.741 Q1439.64 177.376 1443.07 173.649 Q1446.52 169.899 1452.35 169.899 Q1457.58 169.899 1460.61 173.278 Q1463.67 176.635 1463.67 182.422 M1459.41 181.172 Q1459.36 177.677 1457.44 175.593 Q1455.54 173.51 1452.4 173.51 Q1448.83 173.51 1446.68 175.524 Q1444.55 177.538 1444.23 181.195 L1459.41 181.172 Z" fill="#000000" fill-rule="nonzero" fill-opacity="1" /><path clip-path="url(#clip990)" d="M1487.72 174.459 L1487.72 160.431 L1491.98 160.431 L1491.98 196.45 L1487.72 196.45 L1487.72 192.561 Q1486.38 194.875 1484.32 196.01 Q1482.28 197.121 1479.41 197.121 Q1474.71 197.121 1471.75 193.371 Q1468.81 189.621 1468.81 183.51 Q1468.81 177.399 1471.75 173.649 Q1474.71 169.899 1479.41 169.899 Q1482.28 169.899 1484.32 171.033 Q1486.38 172.144 1487.72 174.459 M1473.21 183.51 Q1473.21 188.209 1475.13 190.894 Q1477.07 193.556 1480.45 193.556 Q1483.83 193.556 1485.78 190.894 Q1487.72 188.209 1487.72 183.51 Q1487.72 178.811 1485.78 176.149 Q1483.83 173.464 1480.45 173.464 Q1477.07 173.464 1475.13 176.149 Q1473.21 178.811 1473.21 183.51 Z" fill="#000000" fill-rule="nonzero" fill-opacity="1" /><polyline clip-path="url(#clip990)" style="stroke:#3da44d; stroke-linecap:round; stroke-linejoin:round; stroke-width:4; stroke-opacity:1; fill:none" stroke-dasharray="16, 10" points="1109.77,231.01 1200.93,231.01 "/>
<path clip-path="url(#clip990)" d="M1222.19 234.308 Q1219.6 233.753 1218.21 232.248 Q1216.82 230.766 1216.82 228.614 Q1216.82 225.35 1219.46 223.521 Q1222.07 221.716 1226.61 221.716 Q1228.37 221.716 1230.34 221.993 Q1232.31 222.271 1234.57 222.827 L1234.57 226.692 Q1232.33 226.021 1230.48 225.72 Q1228.6 225.419 1226.96 225.419 Q1224.2 225.419 1222.61 226.484 Q1220.99 227.549 1220.99 229.03 Q1220.99 230.651 1222.56 231.692 Q1224.11 232.711 1226.8 232.711 L1230.38 232.711 L1230.38 236.229 L1226.96 236.229 Q1223.79 236.229 1222.12 237.41 Q1220.31 238.706 1220.31 240.743 Q1220.31 242.827 1222.26 244.123 Q1224.23 245.419 1227.72 245.419 Q1229.87 245.419 1231.84 245.003 Q1233.81 244.563 1235.45 243.706 L1235.45 247.665 Q1233.37 248.313 1231.43 248.637 Q1229.46 248.961 1227.61 248.961 Q1222.1 248.961 1219.11 246.854 Q1216.12 244.748 1216.12 240.743 Q1216.12 238.243 1217.72 236.554 Q1219.32 234.864 1222.19 234.308 Z" fill="#000000" fill-rule="nonzero" fill-opacity="1" /><path clip-path="url(#clip990)" d="M1244.87 245.651 L1254.69 245.651 L1254.69 248.29 L1240.85 248.29 L1240.85 245.743 Q1241.63 245.026 1243.09 243.729 Q1251.05 236.669 1251.05 234.493 Q1251.05 232.966 1249.85 232.04 Q1248.65 231.091 1246.68 231.091 Q1245.48 231.091 1244.06 231.507 Q1242.65 231.901 1240.99 232.711 L1240.99 229.864 Q1242.77 229.216 1244.3 228.892 Q1245.85 228.567 1247.17 228.567 Q1250.52 228.567 1252.54 230.095 Q1254.55 231.623 1254.55 234.123 Q1254.55 237.341 1246.89 243.915 Q1245.59 245.026 1244.87 245.651 Z" fill="#000000" fill-rule="nonzero" fill-opacity="1" /><path clip-path="url(#clip990)" d="M1299.39 234.262 L1299.39 236.345 L1279.8 236.345 Q1280.08 240.743 1282.44 243.058 Q1284.83 245.35 1289.06 245.35 Q1291.52 245.35 1293.81 244.748 Q1296.12 244.146 1298.39 242.942 L1298.39 246.97 Q1296.1 247.942 1293.69 248.452 Q1291.29 248.961 1288.81 248.961 Q1282.61 248.961 1278.97 245.35 Q1275.36 241.739 1275.36 235.581 Q1275.36 229.216 1278.79 225.489 Q1282.24 221.739 1288.07 221.739 Q1293.3 221.739 1296.33 225.118 Q1299.39 228.475 1299.39 234.262 M1295.13 233.012 Q1295.08 229.517 1293.16 227.433 Q1291.26 225.35 1288.11 225.35 Q1284.55 225.35 1282.4 227.364 Q1280.27 229.378 1279.94 233.035 L1295.13 233.012 Z" fill="#000000" fill-rule="nonzero" fill-opacity="1" /><path clip-path="url(#clip990)" d="M1327.1 222.364 L1317.72 234.979 L1327.58 248.29 L1322.56 248.29 L1315.01 238.104 L1307.47 248.29 L1302.44 248.29 L1312.51 234.725 L1303.3 222.364 L1308.32 222.364 L1315.2 231.6 L1322.07 222.364 L1327.1 222.364 Z" fill="#000000" fill-rule="nonzero" fill-opacity="1" /><path clip-path="url(#clip990)" d="M1337.81 215.003 L1337.81 222.364 L1346.59 222.364 L1346.59 225.674 L1337.81 225.674 L1337.81 239.748 Q1337.81 242.919 1338.67 243.822 Q1339.55 244.725 1342.21 244.725 L1346.59 244.725 L1346.59 248.29 L1342.21 248.29 Q1337.28 248.29 1335.41 246.461 Q1333.53 244.609 1333.53 239.748 L1333.53 225.674 L1330.41 225.674 L1330.41 222.364 L1333.53 222.364 L1333.53 215.003 L1337.81 215.003 Z" fill="#000000" fill-rule="nonzero" fill-opacity="1" /><path clip-path="url(#clip990)" d="M1374.36 234.262 L1374.36 236.345 L1354.78 236.345 Q1355.06 240.743 1357.42 243.058 Q1359.8 245.35 1364.04 245.35 Q1366.49 245.35 1368.79 244.748 Q1371.1 244.146 1373.37 242.942 L1373.37 246.97 Q1371.08 247.942 1368.67 248.452 Q1366.26 248.961 1363.79 248.961 Q1357.58 248.961 1353.95 245.35 Q1350.34 241.739 1350.34 235.581 Q1350.34 229.216 1353.76 225.489 Q1357.21 221.739 1363.05 221.739 Q1368.28 221.739 1371.31 225.118 Q1374.36 228.475 1374.36 234.262 M1370.11 233.012 Q1370.06 229.517 1368.14 227.433 Q1366.24 225.35 1363.09 225.35 Q1359.53 225.35 1357.37 227.364 Q1355.24 229.378 1354.92 233.035 L1370.11 233.012 Z" fill="#000000" fill-rule="nonzero" fill-opacity="1" /><path clip-path="url(#clip990)" d="M1402.91 232.641 L1402.91 248.29 L1398.65 248.29 L1398.65 232.78 Q1398.65 229.1 1397.21 227.271 Q1395.78 225.442 1392.91 225.442 Q1389.46 225.442 1387.47 227.642 Q1385.48 229.841 1385.48 233.637 L1385.48 248.29 L1381.19 248.29 L1381.19 222.364 L1385.48 222.364 L1385.48 226.392 Q1387 224.054 1389.06 222.896 Q1391.15 221.739 1393.86 221.739 Q1398.32 221.739 1400.61 224.517 Q1402.91 227.271 1402.91 232.641 Z" fill="#000000" fill-rule="nonzero" fill-opacity="1" /><path clip-path="url(#clip990)" d="M1428.46 226.299 L1428.46 212.271 L1432.72 212.271 L1432.72 248.29 L1428.46 248.29 L1428.46 244.401 Q1427.12 246.715 1425.06 247.85 Q1423.02 248.961 1420.15 248.961 Q1415.45 248.961 1412.49 245.211 Q1409.55 241.461 1409.55 235.35 Q1409.55 229.239 1412.49 225.489 Q1415.45 221.739 1420.15 221.739 Q1423.02 221.739 1425.06 222.873 Q1427.12 223.984 1428.46 226.299 M1413.95 235.35 Q1413.95 240.049 1415.87 242.734 Q1417.81 245.396 1421.19 245.396 Q1424.57 245.396 1426.52 242.734 Q1428.46 240.049 1428.46 235.35 Q1428.46 230.651 1426.52 227.989 Q1424.57 225.304 1421.19 225.304 Q1417.81 225.304 1415.87 227.989 Q1413.95 230.651 1413.95 235.35 Z" fill="#000000" fill-rule="nonzero" fill-opacity="1" /><path clip-path="url(#clip990)" d="M1463.67 234.262 L1463.67 236.345 L1444.09 236.345 Q1444.36 240.743 1446.73 243.058 Q1449.11 245.35 1453.35 245.35 Q1455.8 245.35 1458.09 244.748 Q1460.41 244.146 1462.67 242.942 L1462.67 246.97 Q1460.38 247.942 1457.98 248.452 Q1455.57 248.961 1453.09 248.961 Q1446.89 248.961 1443.25 245.35 Q1439.64 241.739 1439.64 235.581 Q1439.64 229.216 1443.07 225.489 Q1446.52 221.739 1452.35 221.739 Q1457.58 221.739 1460.61 225.118 Q1463.67 228.475 1463.67 234.262 M1459.41 233.012 Q1459.36 229.517 1457.44 227.433 Q1455.54 225.35 1452.4 225.35 Q1448.83 225.35 1446.68 227.364 Q1444.55 229.378 1444.23 233.035 L1459.41 233.012 Z" fill="#000000" fill-rule="nonzero" fill-opacity="1" /><path clip-path="url(#clip990)" d="M1487.72 226.299 L1487.72 212.271 L1491.98 212.271 L1491.98 248.29 L1487.72 248.29 L1487.72 244.401 Q1486.38 246.715 1484.32 247.85 Q1482.28 248.961 1479.41 248.961 Q1474.71 248.961 1471.75 245.211 Q1468.81 241.461 1468.81 235.35 Q1468.81 229.239 1471.75 225.489 Q1474.71 221.739 1479.41 221.739 Q1482.28 221.739 1484.32 222.873 Q1486.38 223.984 1487.72 226.299 M1473.21 235.35 Q1473.21 240.049 1475.13 242.734 Q1477.07 245.396 1480.45 245.396 Q1483.83 245.396 1485.78 242.734 Q1487.72 240.049 1487.72 235.35 Q1487.72 230.651 1485.78 227.989 Q1483.83 225.304 1480.45 225.304 Q1477.07 225.304 1475.13 227.989 Q1473.21 230.651 1473.21 235.35 Z" fill="#000000" fill-rule="nonzero" fill-opacity="1" /></svg>
