<?xml version="1.0" encoding="utf-8"?>
<svg xmlns="http://www.w3.org/2000/svg" xmlns:xlink="http://www.w3.org/1999/xlink" width="400" height="250" viewBox="0 0 1600 1000">
<defs>
  <clipPath id="clip580">
    <rect x="0" y="0" width="1600" height="1000"/>
  </clipPath>
</defs>
<path clip-path="url(#clip580)" d="M0 1000 L1600 1000 L1600 0 L0 0  Z" fill="#ffffff" fill-rule="evenodd" fill-opacity="1"/>
<defs>
  <clipPath id="clip581">
    <rect x="320" y="0" width="1121" height="1000"/>
  </clipPath>
</defs>
<path clip-path="url(#clip580)" d="M178.274 894.608 L1552.76 894.608 L1552.76 47.2441 L178.274 47.2441  Z" fill="#ffffff" fill-rule="evenodd" fill-opacity="1"/>
<defs>
  <clipPath id="clip582">
    <rect x="178" y="47" width="1375" height="848"/>
  </clipPath>
</defs>
<polyline clip-path="url(#clip582)" style="stroke:#000000; stroke-linecap:round; stroke-linejoin:round; stroke-width:2; stroke-opacity:0.1; fill:none" points="217.174,894.608 217.174,47.2441 "/>
<polyline clip-path="url(#clip582)" style="stroke:#000000; stroke-linecap:round; stroke-linejoin:round; stroke-width:2; stroke-opacity:0.1; fill:none" points="433.288,894.608 433.288,47.2441 "/>
<polyline clip-path="url(#clip582)" style="stroke:#000000; stroke-linecap:round; stroke-linejoin:round; stroke-width:2; stroke-opacity:0.1; fill:none" points="649.401,894.608 649.401,47.2441 "/>
<polyline clip-path="url(#clip582)" style="stroke:#000000; stroke-linecap:round; stroke-linejoin:round; stroke-width:2; stroke-opacity:0.1; fill:none" points="865.515,894.608 865.515,47.2441 "/>
<polyline clip-path="url(#clip582)" style="stroke:#000000; stroke-linecap:round; stroke-linejoin:round; stroke-width:2; stroke-opacity:0.1; fill:none" points="1081.63,894.608 1081.63,47.2441 "/>
<polyline clip-path="url(#clip582)" style="stroke:#000000; stroke-linecap:round; stroke-linejoin:round; stroke-width:2; stroke-opacity:0.1; fill:none" points="1297.74,894.608 1297.74,47.2441 "/>
<polyline clip-path="url(#clip582)" style="stroke:#000000; stroke-linecap:round; stroke-linejoin:round; stroke-width:2; stroke-opacity:0.1; fill:none" points="1513.86,894.608 1513.86,47.2441 "/>
<polyline clip-path="url(#clip582)" style="stroke:#000000; stroke-linecap:round; stroke-linejoin:round; stroke-width:2; stroke-opacity:0.1; fill:none" points="178.274,870.626 1552.76,870.626 "/>
<polyline clip-path="url(#clip582)" style="stroke:#000000; stroke-linecap:round; stroke-linejoin:round; stroke-width:2; stroke-opacity:0.1; fill:none" points="178.274,670.776 1552.76,670.776 "/>
<polyline clip-path="url(#clip582)" style="stroke:#000000; stroke-linecap:round; stroke-linejoin:round; stroke-width:2; stroke-opacity:0.1; fill:none" points="178.274,470.926 1552.76,470.926 "/>
<polyline clip-path="url(#clip582)" style="stroke:#000000; stroke-linecap:round; stroke-linejoin:round; stroke-width:2; stroke-opacity:0.1; fill:none" points="178.274,271.076 1552.76,271.076 "/>
<polyline clip-path="url(#clip582)" style="stroke:#000000; stroke-linecap:round; stroke-linejoin:round; stroke-width:2; stroke-opacity:0.1; fill:none" points="178.274,71.2261 1552.76,71.2261 "/>
<polyline clip-path="url(#clip580)" style="stroke:#000000; stroke-linecap:round; stroke-linejoin:round; stroke-width:4; stroke-opacity:1; fill:none" points="178.274,894.608 1552.76,894.608 "/>
<polyline clip-path="url(#clip580)" style="stroke:#000000; stroke-linecap:round; stroke-linejoin:round; stroke-width:4; stroke-opacity:1; fill:none" points="217.174,894.608 217.174,875.71 "/>
<polyline clip-path="url(#clip580)" style="stroke:#000000; stroke-linecap:round; stroke-linejoin:round; stroke-width:4; stroke-opacity:1; fill:none" points="433.288,894.608 433.288,875.71 "/>
<polyline clip-path="url(#clip580)" style="stroke:#000000; stroke-linecap:round; stroke-linejoin:round; stroke-width:4; stroke-opacity:1; fill:none" points="649.401,894.608 649.401,875.71 "/>
<polyline clip-path="url(#clip580)" style="stroke:#000000; stroke-linecap:round; stroke-linejoin:round; stroke-width:4; stroke-opacity:1; fill:none" points="865.515,894.608 865.515,875.71 "/>
<polyline clip-path="url(#clip580)" style="stroke:#000000; stroke-linecap:round; stroke-linejoin:round; stroke-width:4; stroke-opacity:1; fill:none" points="1081.63,894.608 1081.63,875.71 "/>
<polyline clip-path="url(#clip580)" style="stroke:#000000; stroke-linecap:round; stroke-linejoin:round; stroke-width:4; stroke-opacity:1; fill:none" points="1297.74,894.608 1297.74,875.71 "/>
<polyline clip-path="url(#clip580)" style="stroke:#000000; stroke-linecap:round; stroke-linejoin:round; stroke-width:4; stroke-opacity:1; fill:none" points="1513.86,894.608 1513.86,875.71 "/>
<path clip-path="url(#clip580)" d="M217.174 919.127 Q213.563 919.127 211.735 922.691 Q209.929 926.233 209.929 933.363 Q209.929 940.469 211.735 944.034 Q213.563 947.575 217.174 947.575 Q220.809 947.575 222.614 944.034 Q224.443 940.469 224.443 933.363 Q224.443 926.233 222.614 922.691 Q220.809 919.127 217.174 919.127 M217.174 915.423 Q222.985 915.423 226.04 920.029 Q229.119 924.613 229.119 933.363 Q229.119 942.089 226.04 946.696 Q222.985 951.279 217.174 951.279 Q211.364 951.279 208.286 946.696 Q205.23 942.089 205.23 933.363 Q205.23 924.613 208.286 920.029 Q211.364 915.423 217.174 915.423 Z" fill="#000000" fill-rule="nonzero" fill-opacity="1" /><path clip-path="url(#clip580)" d="M423.67 946.673 L431.309 946.673 L431.309 920.307 L422.999 921.974 L422.999 917.715 L431.262 916.048 L435.938 916.048 L435.938 946.673 L443.577 946.673 L443.577 950.608 L423.67 950.608 L423.67 946.673 Z" fill="#000000" fill-rule="nonzero" fill-opacity="1" /><path clip-path="url(#clip580)" d="M644.054 946.673 L660.374 946.673 L660.374 950.608 L638.429 950.608 L638.429 946.673 Q641.091 943.918 645.675 939.288 Q650.281 934.636 651.462 933.293 Q653.707 930.77 654.587 929.034 Q655.489 927.275 655.489 925.585 Q655.489 922.83 653.545 921.094 Q651.624 919.358 648.522 919.358 Q646.323 919.358 643.869 920.122 Q641.439 920.886 638.661 922.437 L638.661 917.715 Q641.485 916.58 643.939 916.002 Q646.392 915.423 648.429 915.423 Q653.8 915.423 656.994 918.108 Q660.188 920.793 660.188 925.284 Q660.188 927.414 659.378 929.335 Q658.591 931.233 656.485 933.826 Q655.906 934.497 652.804 937.714 Q649.702 940.909 644.054 946.673 Z" fill="#000000" fill-rule="nonzero" fill-opacity="1" /><path clip-path="url(#clip580)" d="M869.763 931.974 Q873.119 932.691 874.994 934.96 Q876.892 937.228 876.892 940.562 Q876.892 945.677 873.374 948.478 Q869.855 951.279 863.374 951.279 Q861.198 951.279 858.883 950.839 Q856.591 950.423 854.138 949.566 L854.138 945.052 Q856.082 946.187 858.397 946.765 Q860.712 947.344 863.235 947.344 Q867.633 947.344 869.925 945.608 Q872.239 943.872 872.239 940.562 Q872.239 937.506 870.087 935.793 Q867.957 934.057 864.138 934.057 L860.11 934.057 L860.11 930.214 L864.323 930.214 Q867.772 930.214 869.601 928.849 Q871.429 927.46 871.429 924.867 Q871.429 922.205 869.531 920.793 Q867.656 919.358 864.138 919.358 Q862.216 919.358 860.017 919.775 Q857.818 920.191 855.179 921.071 L855.179 916.904 Q857.841 916.164 860.156 915.793 Q862.494 915.423 864.554 915.423 Q869.878 915.423 872.98 917.853 Q876.082 920.261 876.082 924.381 Q876.082 927.252 874.439 929.242 Q872.795 931.21 869.763 931.974 Z" fill="#000000" fill-rule="nonzero" fill-opacity="1" /><path clip-path="url(#clip580)" d="M1084.64 920.122 L1072.83 938.571 L1084.64 938.571 L1084.64 920.122 M1083.41 916.048 L1089.29 916.048 L1089.29 938.571 L1094.22 938.571 L1094.22 942.46 L1089.29 942.46 L1089.29 950.608 L1084.64 950.608 L1084.64 942.46 L1069.04 942.46 L1069.04 937.946 L1083.41 916.048 Z" fill="#000000" fill-rule="nonzero" fill-opacity="1" /><path clip-path="url(#clip580)" d="M1288.02 916.048 L1306.38 916.048 L1306.38 919.983 L1292.3 919.983 L1292.3 928.455 Q1293.32 928.108 1294.34 927.946 Q1295.36 927.761 1296.38 927.761 Q1302.16 927.761 1305.54 930.932 Q1308.92 934.103 1308.92 939.52 Q1308.92 945.099 1305.45 948.2 Q1301.98 951.279 1295.66 951.279 Q1293.48 951.279 1291.21 950.909 Q1288.97 950.538 1286.56 949.798 L1286.56 945.099 Q1288.64 946.233 1290.87 946.788 Q1293.09 947.344 1295.57 947.344 Q1299.57 947.344 1301.91 945.238 Q1304.25 943.131 1304.25 939.52 Q1304.25 935.909 1301.91 933.802 Q1299.57 931.696 1295.57 931.696 Q1293.69 931.696 1291.82 932.113 Q1289.96 932.529 1288.02 933.409 L1288.02 916.048 Z" fill="#000000" fill-rule="nonzero" fill-opacity="1" /><path clip-path="url(#clip580)" d="M1514.26 931.464 Q1511.11 931.464 1509.26 933.617 Q1507.43 935.77 1507.43 939.52 Q1507.43 943.247 1509.26 945.423 Q1511.11 947.575 1514.26 947.575 Q1517.41 947.575 1519.24 945.423 Q1521.09 943.247 1521.09 939.52 Q1521.09 935.77 1519.24 933.617 Q1517.41 931.464 1514.26 931.464 M1523.54 916.812 L1523.54 921.071 Q1521.78 920.238 1519.98 919.798 Q1518.2 919.358 1516.44 919.358 Q1511.81 919.358 1509.35 922.483 Q1506.92 925.608 1506.58 931.927 Q1507.94 929.914 1510 928.849 Q1512.06 927.761 1514.54 927.761 Q1519.75 927.761 1522.76 930.932 Q1525.79 934.08 1525.79 939.52 Q1525.79 944.844 1522.64 948.062 Q1519.49 951.279 1514.26 951.279 Q1508.27 951.279 1505.09 946.696 Q1501.92 942.089 1501.92 933.363 Q1501.92 925.168 1505.81 920.307 Q1509.7 915.423 1516.25 915.423 Q1518.01 915.423 1519.79 915.77 Q1521.6 916.117 1523.54 916.812 Z" fill="#000000" fill-rule="nonzero" fill-opacity="1" /><polyline clip-path="url(#clip580)" style="stroke:#000000; stroke-linecap:round; stroke-linejoin:round; stroke-width:4; stroke-opacity:1; fill:none" points="178.274,894.608 178.274,47.2441 "/>
<polyline clip-path="url(#clip580)" style="stroke:#000000; stroke-linecap:round; stroke-linejoin:round; stroke-width:4; stroke-opacity:1; fill:none" points="178.274,870.626 197.172,870.626 "/>
<polyline clip-path="url(#clip580)" style="stroke:#000000; stroke-linecap:round; stroke-linejoin:round; stroke-width:4; stroke-opacity:1; fill:none" points="178.274,670.776 197.172,670.776 "/>
<polyline clip-path="url(#clip580)" style="stroke:#000000; stroke-linecap:round; stroke-linejoin:round; stroke-width:4; stroke-opacity:1; fill:none" points="178.274,470.926 197.172,470.926 "/>
<polyline clip-path="url(#clip580)" style="stroke:#000000; stroke-linecap:round; stroke-linejoin:round; stroke-width:4; stroke-opacity:1; fill:none" points="178.274,271.076 197.172,271.076 "/>
<polyline clip-path="url(#clip580)" style="stroke:#000000; stroke-linecap:round; stroke-linejoin:round; stroke-width:4; stroke-opacity:1; fill:none" points="178.274,71.2261 197.172,71.2261 "/>
<path clip-path="url(#clip580)" d="M66.9365 856.425 Q63.3254 856.425 61.4967 859.989 Q59.6912 863.531 59.6912 870.661 Q59.6912 877.767 61.4967 881.332 Q63.3254 884.873 66.9365 884.873 Q70.5707 884.873 72.3763 881.332 Q74.205 877.767 74.205 870.661 Q74.205 863.531 72.3763 859.989 Q70.5707 856.425 66.9365 856.425 M66.9365 852.721 Q72.7467 852.721 75.8022 857.327 Q78.8809 861.911 78.8809 870.661 Q78.8809 879.387 75.8022 883.994 Q72.7467 888.577 66.9365 888.577 Q61.1264 888.577 58.0477 883.994 Q54.9921 879.387 54.9921 870.661 Q54.9921 861.911 58.0477 857.327 Q61.1264 852.721 66.9365 852.721 Z" fill="#000000" fill-rule="nonzero" fill-opacity="1" /><path clip-path="url(#clip580)" d="M87.0984 882.026 L91.9827 882.026 L91.9827 887.906 L87.0984 887.906 L87.0984 882.026 Z" fill="#000000" fill-rule="nonzero" fill-opacity="1" /><path clip-path="url(#clip580)" d="M112.168 856.425 Q108.557 856.425 106.728 859.989 Q104.922 863.531 104.922 870.661 Q104.922 877.767 106.728 881.332 Q108.557 884.873 112.168 884.873 Q115.802 884.873 117.608 881.332 Q119.436 877.767 119.436 870.661 Q119.436 863.531 117.608 859.989 Q115.802 856.425 112.168 856.425 M112.168 852.721 Q117.978 852.721 121.033 857.327 Q124.112 861.911 124.112 870.661 Q124.112 879.387 121.033 883.994 Q117.978 888.577 112.168 888.577 Q106.358 888.577 103.279 883.994 Q100.223 879.387 100.223 870.661 Q100.223 861.911 103.279 857.327 Q106.358 852.721 112.168 852.721 Z" fill="#000000" fill-rule="nonzero" fill-opacity="1" /><path clip-path="url(#clip580)" d="M142.33 856.425 Q138.719 856.425 136.89 859.989 Q135.084 863.531 135.084 870.661 Q135.084 877.767 136.89 881.332 Q138.719 884.873 142.33 884.873 Q145.964 884.873 147.769 881.332 Q149.598 877.767 149.598 870.661 Q149.598 863.531 147.769 859.989 Q145.964 856.425 142.33 856.425 M142.33 852.721 Q148.14 852.721 151.195 857.327 Q154.274 861.911 154.274 870.661 Q154.274 879.387 151.195 883.994 Q148.14 888.577 142.33 888.577 Q136.519 888.577 133.441 883.994 Q130.385 879.387 130.385 870.661 Q130.385 861.911 133.441 857.327 Q136.519 852.721 142.33 852.721 Z" fill="#000000" fill-rule="nonzero" fill-opacity="1" /><path clip-path="url(#clip580)" d="M67.9319 656.575 Q64.3208 656.575 62.4921 660.139 Q60.6865 663.681 60.6865 670.811 Q60.6865 677.917 62.4921 681.482 Q64.3208 685.024 67.9319 685.024 Q71.5661 685.024 73.3717 681.482 Q75.2004 677.917 75.2004 670.811 Q75.2004 663.681 73.3717 660.139 Q71.5661 656.575 67.9319 656.575 M67.9319 652.871 Q73.742 652.871 76.7976 657.477 Q79.8763 662.061 79.8763 670.811 Q79.8763 679.537 76.7976 684.144 Q73.742 688.727 67.9319 688.727 Q62.1217 688.727 59.043 684.144 Q55.9875 679.537 55.9875 670.811 Q55.9875 662.061 59.043 657.477 Q62.1217 652.871 67.9319 652.871 Z" fill="#000000" fill-rule="nonzero" fill-opacity="1" /><path clip-path="url(#clip580)" d="M88.0938 682.176 L92.978 682.176 L92.978 688.056 L88.0938 688.056 L88.0938 682.176 Z" fill="#000000" fill-rule="nonzero" fill-opacity="1" /><path clip-path="url(#clip580)" d="M107.191 684.121 L123.51 684.121 L123.51 688.056 L101.566 688.056 L101.566 684.121 Q104.228 681.366 108.811 676.737 Q113.418 672.084 114.598 670.741 Q116.844 668.218 117.723 666.482 Q118.626 664.723 118.626 663.033 Q118.626 660.278 116.682 658.542 Q114.76 656.806 111.658 656.806 Q109.459 656.806 107.006 657.57 Q104.575 658.334 101.797 659.885 L101.797 655.163 Q104.621 654.028 107.075 653.45 Q109.529 652.871 111.566 652.871 Q116.936 652.871 120.131 655.556 Q123.325 658.241 123.325 662.732 Q123.325 664.862 122.515 666.783 Q121.728 668.681 119.621 671.274 Q119.043 671.945 115.941 675.162 Q112.839 678.357 107.191 684.121 Z" fill="#000000" fill-rule="nonzero" fill-opacity="1" /><path clip-path="url(#clip580)" d="M133.371 653.496 L151.728 653.496 L151.728 657.431 L137.654 657.431 L137.654 665.903 Q138.672 665.556 139.691 665.394 Q140.709 665.209 141.728 665.209 Q147.515 665.209 150.894 668.38 Q154.274 671.551 154.274 676.968 Q154.274 682.547 150.802 685.649 Q147.33 688.727 141.01 688.727 Q138.834 688.727 136.566 688.357 Q134.32 687.986 131.913 687.246 L131.913 682.547 Q133.996 683.681 136.219 684.237 Q138.441 684.792 140.918 684.792 Q144.922 684.792 147.26 682.686 Q149.598 680.579 149.598 676.968 Q149.598 673.357 147.26 671.25 Q144.922 669.144 140.918 669.144 Q139.043 669.144 137.168 669.561 Q135.316 669.977 133.371 670.857 L133.371 653.496 Z" fill="#000000" fill-rule="nonzero" fill-opacity="1" /><path clip-path="url(#clip580)" d="M66.9365 456.725 Q63.3254 456.725 61.4967 460.289 Q59.6912 463.831 59.6912 470.961 Q59.6912 478.067 61.4967 481.632 Q63.3254 485.174 66.9365 485.174 Q70.5707 485.174 72.3763 481.632 Q74.205 478.067 74.205 470.961 Q74.205 463.831 72.3763 460.289 Q70.5707 456.725 66.9365 456.725 M66.9365 453.021 Q72.7467 453.021 75.8022 457.627 Q78.8809 462.211 78.8809 470.961 Q78.8809 479.688 75.8022 484.294 Q72.7467 488.877 66.9365 488.877 Q61.1264 488.877 58.0477 484.294 Q54.9921 479.688 54.9921 470.961 Q54.9921 462.211 58.0477 457.627 Q61.1264 453.021 66.9365 453.021 Z" fill="#000000" fill-rule="nonzero" fill-opacity="1" /><path clip-path="url(#clip580)" d="M87.0984 482.326 L91.9827 482.326 L91.9827 488.206 L87.0984 488.206 L87.0984 482.326 Z" fill="#000000" fill-rule="nonzero" fill-opacity="1" /><path clip-path="url(#clip580)" d="M102.214 453.646 L120.57 453.646 L120.57 457.581 L106.496 457.581 L106.496 466.053 Q107.515 465.706 108.534 465.544 Q109.552 465.359 110.571 465.359 Q116.358 465.359 119.737 468.53 Q123.117 471.701 123.117 477.118 Q123.117 482.697 119.645 485.799 Q116.172 488.877 109.853 488.877 Q107.677 488.877 105.409 488.507 Q103.163 488.137 100.756 487.396 L100.756 482.697 Q102.839 483.831 105.061 484.387 Q107.284 484.942 109.76 484.942 Q113.765 484.942 116.103 482.836 Q118.441 480.729 118.441 477.118 Q118.441 473.507 116.103 471.401 Q113.765 469.294 109.76 469.294 Q107.885 469.294 106.01 469.711 Q104.159 470.127 102.214 471.007 L102.214 453.646 Z" fill="#000000" fill-rule="nonzero" fill-opacity="1" /><path clip-path="url(#clip580)" d="M142.33 456.725 Q138.719 456.725 136.89 460.289 Q135.084 463.831 135.084 470.961 Q135.084 478.067 136.89 481.632 Q138.719 485.174 142.33 485.174 Q145.964 485.174 147.769 481.632 Q149.598 478.067 149.598 470.961 Q149.598 463.831 147.769 460.289 Q145.964 456.725 142.33 456.725 M142.33 453.021 Q148.14 453.021 151.195 457.627 Q154.274 462.211 154.274 470.961 Q154.274 479.688 151.195 484.294 Q148.14 488.877 142.33 488.877 Q136.519 488.877 133.441 484.294 Q130.385 479.688 130.385 470.961 Q130.385 462.211 133.441 457.627 Q136.519 453.021 142.33 453.021 Z" fill="#000000" fill-rule="nonzero" fill-opacity="1" /><path clip-path="url(#clip580)" d="M67.9319 256.875 Q64.3208 256.875 62.4921 260.44 Q60.6865 263.981 60.6865 271.111 Q60.6865 278.217 62.4921 281.782 Q64.3208 285.324 67.9319 285.324 Q71.5661 285.324 73.3717 281.782 Q75.2004 278.217 75.2004 271.111 Q75.2004 263.981 73.3717 260.44 Q71.5661 256.875 67.9319 256.875 M67.9319 253.171 Q73.742 253.171 76.7976 257.777 Q79.8763 262.361 79.8763 271.111 Q79.8763 279.838 76.7976 284.444 Q73.742 289.027 67.9319 289.027 Q62.1217 289.027 59.043 284.444 Q55.9875 279.838 55.9875 271.111 Q55.9875 262.361 59.043 257.777 Q62.1217 253.171 67.9319 253.171 Z" fill="#000000" fill-rule="nonzero" fill-opacity="1" /><path clip-path="url(#clip580)" d="M88.0938 282.476 L92.978 282.476 L92.978 288.356 L88.0938 288.356 L88.0938 282.476 Z" fill="#000000" fill-rule="nonzero" fill-opacity="1" /><path clip-path="url(#clip580)" d="M101.983 253.796 L124.205 253.796 L124.205 255.787 L111.658 288.356 L106.774 288.356 L118.58 257.731 L101.983 257.731 L101.983 253.796 Z" fill="#000000" fill-rule="nonzero" fill-opacity="1" /><path clip-path="url(#clip580)" d="M133.371 253.796 L151.728 253.796 L151.728 257.731 L137.654 257.731 L137.654 266.203 Q138.672 265.856 139.691 265.694 Q140.709 265.509 141.728 265.509 Q147.515 265.509 150.894 268.68 Q154.274 271.851 154.274 277.268 Q154.274 282.847 150.802 285.949 Q147.33 289.027 141.01 289.027 Q138.834 289.027 136.566 288.657 Q134.32 288.287 131.913 287.546 L131.913 282.847 Q133.996 283.981 136.219 284.537 Q138.441 285.092 140.918 285.092 Q144.922 285.092 147.26 282.986 Q149.598 280.879 149.598 277.268 Q149.598 273.657 147.26 271.551 Q144.922 269.444 140.918 269.444 Q139.043 269.444 137.168 269.861 Q135.316 270.277 133.371 271.157 L133.371 253.796 Z" fill="#000000" fill-rule="nonzero" fill-opacity="1" /><path clip-path="url(#clip580)" d="M57.7467 84.5709 L65.3856 84.5709 L65.3856 58.2053 L57.0754 59.872 L57.0754 55.6127 L65.3393 53.9461 L70.0152 53.9461 L70.0152 84.5709 L77.654 84.5709 L77.654 88.5061 L57.7467 88.5061 L57.7467 84.5709 Z" fill="#000000" fill-rule="nonzero" fill-opacity="1" /><path clip-path="url(#clip580)" d="M87.0984 82.6265 L91.9827 82.6265 L91.9827 88.5061 L87.0984 88.5061 L87.0984 82.6265 Z" fill="#000000" fill-rule="nonzero" fill-opacity="1" /><path clip-path="url(#clip580)" d="M112.168 57.0248 Q108.557 57.0248 106.728 60.5896 Q104.922 64.1312 104.922 71.2608 Q104.922 78.3673 106.728 81.932 Q108.557 85.4737 112.168 85.4737 Q115.802 85.4737 117.608 81.932 Q119.436 78.3673 119.436 71.2608 Q119.436 64.1312 117.608 60.5896 Q115.802 57.0248 112.168 57.0248 M112.168 53.3211 Q117.978 53.3211 121.033 57.9275 Q124.112 62.5109 124.112 71.2608 Q124.112 79.9876 121.033 84.5941 Q117.978 89.1774 112.168 89.1774 Q106.358 89.1774 103.279 84.5941 Q100.223 79.9876 100.223 71.2608 Q100.223 62.5109 103.279 57.9275 Q106.358 53.3211 112.168 53.3211 Z" fill="#000000" fill-rule="nonzero" fill-opacity="1" /><path clip-path="url(#clip580)" d="M142.33 57.0248 Q138.719 57.0248 136.89 60.5896 Q135.084 64.1312 135.084 71.2608 Q135.084 78.3673 136.89 81.932 Q138.719 85.4737 142.33 85.4737 Q145.964 85.4737 147.769 81.932 Q149.598 78.3673 149.598 71.2608 Q149.598 64.1312 147.769 60.5896 Q145.964 57.0248 142.33 57.0248 M142.33 53.3211 Q148.14 53.3211 151.195 57.9275 Q154.274 62.5109 154.274 71.2608 Q154.274 79.9876 151.195 84.5941 Q148.14 89.1774 142.33 89.1774 Q136.519 89.1774 133.441 84.5941 Q130.385 79.9876 130.385 71.2608 Q130.385 62.5109 133.441 57.9275 Q136.519 53.3211 142.33 53.3211 Z" fill="#000000" fill-rule="nonzero" fill-opacity="1" /><polyline clip-path="url(#clip582)" style="stroke:#009af9; stroke-linecap:round; stroke-linejoin:round; stroke-width:4; stroke-opacity:1; fill:none" points="217.174,870.626 230.141,470.926 243.108,71.2261 256.075,470.926 269.042,870.626 282.008,870.626 294.975,870.626 307.942,870.626 320.909,870.626 333.876,870.626 346.843,870.626 359.809,870.626 372.776,870.626 385.743,870.626 398.71,870.626 411.677,870.626 424.643,870.626 437.61,870.626 450.577,870.626 463.544,870.626 476.511,870.626 489.477,870.626 502.444,870.626 515.411,870.626 528.378,870.626 541.345,870.626 554.312,870.626 567.278,870.626 580.245,870.626 593.212,870.626 606.179,870.626 619.146,870.626 632.112,870.626 645.079,870.626 658.046,870.626 671.013,870.626 683.98,870.626 696.946,870.626 709.913,870.626 722.88,870.626 735.847,870.626 748.814,870.626 761.78,870.626 774.747,870.626 787.714,870.626 800.681,870.626 813.648,870.626 826.615,870.626 839.581,870.626 852.548,870.626 865.515,870.626 878.482,870.626 891.449,870.626 904.415,870.626 917.382,870.626 930.349,870.626 943.316,870.626 956.283,870.626 969.249,870.626 982.216,870.626 995.183,870.626 1008.15,870.626 1021.12,870.626 1034.08,870.626 1047.05,870.626 1060.02,870.626 1072.98,870.626 1085.95,870.626 1098.92,870.626 1111.88,870.626 1124.85,870.626 1137.82,870.626 1150.78,870.626 1163.75,870.626 1176.72,870.626 1189.69,870.626 1202.65,870.626 1215.62,870.626 1228.59,870.626 1241.55,870.626 1254.52,870.626 1267.49,870.626 1280.45,870.626 1293.42,870.626 1306.39,870.626 1319.35,870.626 1332.32,870.626 1345.29,870.626 1358.25,870.626 1371.22,870.626 1384.19,870.626 1397.15,870.626 1410.12,870.626 1423.09,870.626 1436.05,870.626 1449.02,870.626 1461.99,870.626 1474.96,870.626 1487.92,870.626 1500.89,870.626 1513.86,870.626 "/>
<polyline clip-path="url(#clip582)" style="stroke:#e26f46; stroke-linecap:round; stroke-linejoin:round; stroke-width:4; stroke-opacity:1; fill:none" points="217.174,870.626 230.141,870.626 243.108,870.626 256.075,470.926 269.042,71.2261 282.008,470.926 294.975,870.626 307.942,870.626 320.909,870.626 333.876,870.626 346.843,870.626 359.809,870.626 372.776,870.626 385.743,870.626 398.71,870.626 411.677,870.626 424.643,870.626 437.61,870.626 450.577,870.626 463.544,870.626 476.511,870.626 489.477,870.626 502.444,870.626 515.411,870.626 528.378,870.626 541.345,870.626 554.312,870.626 567.278,870.626 580.245,870.626 593.212,870.626 606.179,870.626 619.146,870.626 632.112,870.626 645.079,870.626 658.046,870.626 671.013,870.626 683.98,870.626 696.946,870.626 709.913,870.626 722.88,870.626 735.847,870.626 748.814,870.626 761.78,870.626 774.747,870.626 787.714,870.626 800.681,870.626 813.648,870.626 826.615,870.626 839.581,870.626 852.548,870.626 865.515,870.626 878.482,870.626 891.449,870.626 904.415,870.626 917.382,870.626 930.349,870.626 943.316,870.626 956.283,870.626 969.249,870.626 982.216,870.626 995.183,870.626 1008.15,870.626 1021.12,870.626 1034.08,870.626 1047.05,870.626 1060.02,870.626 1072.98,870.626 1085.95,870.626 1098.92,870.626 1111.88,870.626 1124.85,870.626 1137.82,870.626 1150.78,870.626 1163.75,870.626 1176.72,870.626 1189.69,870.626 1202.65,870.626 1215.62,870.626 1228.59,870.626 1241.55,870.626 1254.52,870.626 1267.49,870.626 1280.45,870.626 1293.42,870.626 1306.39,870.626 1319.35,870.626 1332.32,870.626 1345.29,870.626 1358.25,870.626 1371.22,870.626 1384.19,870.626 1397.15,870.626 1410.12,870.626 1423.09,870.626 1436.05,870.626 1449.02,870.626 1461.99,870.626 1474.96,870.626 1487.92,870.626 1500.89,870.626 1513.86,870.626 "/>
<polyline clip-path="url(#clip582)" style="stroke:#3da44d; stroke-linecap:round; stroke-linejoin:round; stroke-width:4; stroke-opacity:1; fill:none" points="217.174,870.626 230.141,870.626 243.108,870.626 256.075,870.626 269.042,870.626 282.008,470.926 294.975,71.2261 307.942,470.926 320.909,870.626 333.876,870.626 346.843,870.626 359.809,870.626 372.776,870.626 385.743,870.626 398.71,870.626 411.677,870.626 424.643,870.626 437.61,870.626 450.577,870.626 463.544,870.626 476.511,870.626 489.477,870.626 502.444,870.626 515.411,870.626 528.378,870.626 541.345,870.626 554.312,870.626 567.278,870.626 580.245,870.626 593.212,870.626 606.179,870.626 619.146,870.626 632.112,870.626 645.079,870.626 658.046,870.626 671.013,870.626 683.98,870.626 696.946,870.626 709.913,870.626 722.88,870.626 735.847,870.626 748.814,870.626 761.78,870.626 774.747,870.626 787.714,870.626 800.681,870.626 813.648,870.626 826.615,870.626 839.581,870.626 852.548,870.626 865.515,870.626 878.482,870.626 891.449,870.626 904.415,870.626 917.382,870.626 930.349,870.626 943.316,870.626 956.283,870.626 969.249,870.626 982.216,870.626 995.183,870.626 1008.15,870.626 1021.12,870.626 1034.08,870.626 1047.05,870.626 1060.02,870.626 1072.98,870.626 1085.95,870.626 1098.92,870.626 1111.88,870.626 1124.85,870.626 1137.82,870.626 1150.78,870.626 1163.75,870.626 1176.72,870.626 1189.69,870.626 1202.65,870.626 1215.62,870.626 1228.59,870.626 1241.55,870.626 1254.52,870.626 1267.49,870.626 1280.45,870.626 1293.42,870.626 1306.39,870.626 1319.35,870.626 1332.32,870.626 1345.29,870.626 1358.25,870.626 1371.22,870.626 1384.19,870.626 1397.15,870.626 1410.12,870.626 1423.09,870.626 1436.05,870.626 1449.02,870.626 1461.99,870.626 1474.96,870.626 1487.92,870.626 1500.89,870.626 1513.86,870.626 "/>
<polyline clip-path="url(#clip582)" style="stroke:#c271d2; stroke-linecap:round; stroke-linejoin:round; stroke-width:4; stroke-opacity:1; fill:none" points="217.174,870.626 230.141,870.626 243.108,870.626 256.075,870.626 269.042,870.626 282.008,870.626 294.975,870.626 307.942,470.926 320.909,71.2261 333.876,470.926 346.843,870.626 359.809,870.626 372.776,870.626 385.743,870.626 398.71,870.626 411.677,870.626 424.643,870.626 437.61,870.626 450.577,870.626 463.544,870.626 476.511,870.626 489.477,870.626 502.444,870.626 515.411,870.626 528.378,870.626 541.345,870.626 554.312,870.626 567.278,870.626 580.245,870.626 593.212,870.626 606.179,870.626 619.146,870.626 632.112,870.626 645.079,870.626 658.046,870.626 671.013,870.626 683.98,870.626 696.946,870.626 709.913,870.626 722.88,870.626 735.847,870.626 748.814,870.626 761.78,870.626 774.747,870.626 787.714,870.626 800.681,870.626 813.648,870.626 826.615,870.626 839.581,870.626 852.548,870.626 865.515,870.626 878.482,870.626 891.449,870.626 904.415,870.626 917.382,870.626 930.349,870.626 943.316,870.626 956.283,870.626 969.249,870.626 982.216,870.626 995.183,870.626 1008.15,870.626 1021.12,870.626 1034.08,870.626 1047.05,870.626 1060.02,870.626 1072.98,870.626 1085.95,870.626 1098.92,870.626 1111.88,870.626 1124.85,870.626 1137.82,870.626 1150.78,870.626 1163.75,870.626 1176.72,870.626 1189.69,870.626 1202.65,870.626 1215.62,870.626 1228.59,870.626 1241.55,870.626 1254.52,870.626 1267.49,870.626 1280.45,870.626 1293.42,870.626 1306.39,870.626 1319.35,870.626 1332.32,870.626 1345.29,870.626 1358.25,870.626 1371.22,870.626 1384.19,870.626 1397.15,870.626 1410.12,870.626 1423.09,870.626 1436.05,870.626 1449.02,870.626 1461.99,870.626 1474.96,870.626 1487.92,870.626 1500.89,870.626 1513.86,870.626 "/>
<polyline clip-path="url(#clip582)" style="stroke:#ac8d18; stroke-linecap:round; stroke-linejoin:round; stroke-width:4; stroke-opacity:1; fill:none" points="217.174,870.626 230.141,870.626 243.108,870.626 256.075,870.626 269.042,870.626 282.008,870.626 294.975,870.626 307.942,870.626 320.909,870.626 333.876,470.926 346.843,71.2261 359.809,470.926 372.776,870.626 385.743,870.626 398.71,870.626 411.677,870.626 424.643,870.626 437.61,870.626 450.577,870.626 463.544,870.626 476.511,870.626 489.477,870.626 502.444,870.626 515.411,870.626 528.378,870.626 541.345,870.626 554.312,870.626 567.278,870.626 580.245,870.626 593.212,870.626 606.179,870.626 619.146,870.626 632.112,870.626 645.079,870.626 658.046,870.626 671.013,870.626 683.98,870.626 696.946,870.626 709.913,870.626 722.88,870.626 735.847,870.626 748.814,870.626 761.78,870.626 774.747,870.626 787.714,870.626 800.681,870.626 813.648,870.626 826.615,870.626 839.581,870.626 852.548,870.626 865.515,870.626 878.482,870.626 891.449,870.626 904.415,870.626 917.382,870.626 930.349,870.626 943.316,870.626 956.283,870.626 969.249,870.626 982.216,870.626 995.183,870.626 1008.15,870.626 1021.12,870.626 1034.08,870.626 1047.05,870.626 1060.02,870.626 1072.98,870.626 1085.95,870.626 1098.92,870.626 1111.88,870.626 1124.85,870.626 1137.82,870.626 1150.78,870.626 1163.75,870.626 1176.72,870.626 1189.69,870.626 1202.65,870.626 1215.62,870.626 1228.59,870.626 1241.55,870.626 1254.52,870.626 1267.49,870.626 1280.45,870.626 1293.42,870.626 1306.39,870.626 1319.35,870.626 1332.32,870.626 1345.29,870.626 1358.25,870.626 1371.22,870.626 1384.19,870.626 1397.15,870.626 1410.12,870.626 1423.09,870.626 1436.05,870.626 1449.02,870.626 1461.99,870.626 1474.96,870.626 1487.92,870.626 1500.89,870.626 1513.86,870.626 "/>
</svg>
