<?xml version="1.0" encoding="utf-8"?>
<svg xmlns="http://www.w3.org/2000/svg" xmlns:xlink="http://www.w3.org/1999/xlink" width="672" height="480" viewBox="0 0 2688 1920">
<defs>
  <clipPath id="clip360">
    <rect x="0" y="0" width="2688" height="1920"/>
  </clipPath>
</defs>
<path clip-path="url(#clip360)" d="M0 1920 L2688 1920 L2688 0 L0 0  Z" fill="#ffffff" fill-rule="evenodd" fill-opacity="1"/>
<defs>
  <clipPath id="clip361">
    <rect x="537" y="0" width="1883" height="1883"/>
  </clipPath>
</defs>
<path clip-path="url(#clip360)" d="M196.168 1800.78 L2640.76 1800.78 L2640.76 47.2441 L196.168 47.2441  Z" fill="#ffffff" fill-rule="evenodd" fill-opacity="1"/>
<defs>
  <clipPath id="clip362">
    <rect x="196" y="47" width="2446" height="1755"/>
  </clipPath>
</defs>
<polyline clip-path="url(#clip362)" style="stroke:#000000; stroke-linecap:round; stroke-linejoin:round; stroke-width:2; stroke-opacity:0.1; fill:none" points="265.354,1800.78 265.354,47.2441 "/>
<polyline clip-path="url(#clip362)" style="stroke:#000000; stroke-linecap:round; stroke-linejoin:round; stroke-width:2; stroke-opacity:0.1; fill:none" points="649.723,1800.78 649.723,47.2441 "/>
<polyline clip-path="url(#clip362)" style="stroke:#000000; stroke-linecap:round; stroke-linejoin:round; stroke-width:2; stroke-opacity:0.1; fill:none" points="1034.09,1800.78 1034.09,47.2441 "/>
<polyline clip-path="url(#clip362)" style="stroke:#000000; stroke-linecap:round; stroke-linejoin:round; stroke-width:2; stroke-opacity:0.1; fill:none" points="1418.46,1800.78 1418.46,47.2441 "/>
<polyline clip-path="url(#clip362)" style="stroke:#000000; stroke-linecap:round; stroke-linejoin:round; stroke-width:2; stroke-opacity:0.1; fill:none" points="1802.83,1800.78 1802.83,47.2441 "/>
<polyline clip-path="url(#clip362)" style="stroke:#000000; stroke-linecap:round; stroke-linejoin:round; stroke-width:2; stroke-opacity:0.1; fill:none" points="2187.2,1800.78 2187.2,47.2441 "/>
<polyline clip-path="url(#clip362)" style="stroke:#000000; stroke-linecap:round; stroke-linejoin:round; stroke-width:2; stroke-opacity:0.1; fill:none" points="2571.57,1800.78 2571.57,47.2441 "/>
<polyline clip-path="url(#clip362)" style="stroke:#000000; stroke-linecap:round; stroke-linejoin:round; stroke-width:2; stroke-opacity:0.1; fill:none" points="196.168,1518.45 2640.76,1518.45 "/>
<polyline clip-path="url(#clip362)" style="stroke:#000000; stroke-linecap:round; stroke-linejoin:round; stroke-width:2; stroke-opacity:0.1; fill:none" points="196.168,1190.39 2640.76,1190.39 "/>
<polyline clip-path="url(#clip362)" style="stroke:#000000; stroke-linecap:round; stroke-linejoin:round; stroke-width:2; stroke-opacity:0.1; fill:none" points="196.168,862.338 2640.76,862.338 "/>
<polyline clip-path="url(#clip362)" style="stroke:#000000; stroke-linecap:round; stroke-linejoin:round; stroke-width:2; stroke-opacity:0.1; fill:none" points="196.168,534.281 2640.76,534.281 "/>
<polyline clip-path="url(#clip362)" style="stroke:#000000; stroke-linecap:round; stroke-linejoin:round; stroke-width:2; stroke-opacity:0.1; fill:none" points="196.168,206.225 2640.76,206.225 "/>
<polyline clip-path="url(#clip360)" style="stroke:#000000; stroke-linecap:round; stroke-linejoin:round; stroke-width:4; stroke-opacity:1; fill:none" points="196.168,1800.78 2640.76,1800.78 "/>
<polyline clip-path="url(#clip360)" style="stroke:#000000; stroke-linecap:round; stroke-linejoin:round; stroke-width:4; stroke-opacity:1; fill:none" points="265.354,1800.78 265.354,1781.88 "/>
<polyline clip-path="url(#clip360)" style="stroke:#000000; stroke-linecap:round; stroke-linejoin:round; stroke-width:4; stroke-opacity:1; fill:none" points="649.723,1800.78 649.723,1781.88 "/>
<polyline clip-path="url(#clip360)" style="stroke:#000000; stroke-linecap:round; stroke-linejoin:round; stroke-width:4; stroke-opacity:1; fill:none" points="1034.09,1800.78 1034.09,1781.88 "/>
<polyline clip-path="url(#clip360)" style="stroke:#000000; stroke-linecap:round; stroke-linejoin:round; stroke-width:4; stroke-opacity:1; fill:none" points="1418.46,1800.78 1418.46,1781.88 "/>
<polyline clip-path="url(#clip360)" style="stroke:#000000; stroke-linecap:round; stroke-linejoin:round; stroke-width:4; stroke-opacity:1; fill:none" points="1802.83,1800.78 1802.83,1781.88 "/>
<polyline clip-path="url(#clip360)" style="stroke:#000000; stroke-linecap:round; stroke-linejoin:round; stroke-width:4; stroke-opacity:1; fill:none" points="2187.2,1800.78 2187.2,1781.88 "/>
<polyline clip-path="url(#clip360)" style="stroke:#000000; stroke-linecap:round; stroke-linejoin:round; stroke-width:4; stroke-opacity:1; fill:none" points="2571.57,1800.78 2571.57,1781.88 "/>
<path clip-path="url(#clip360)" d="M265.354 1834 Q261.743 1834 259.915 1837.57 Q258.109 1841.11 258.109 1848.24 Q258.109 1855.34 259.915 1858.91 Q261.743 1862.45 265.354 1862.45 Q268.989 1862.45 270.794 1858.91 Q272.623 1855.34 272.623 1848.24 Q272.623 1841.11 270.794 1837.57 Q268.989 1834 265.354 1834 M265.354 1830.3 Q271.164 1830.3 274.22 1834.9 Q277.299 1839.49 277.299 1848.24 Q277.299 1856.96 274.22 1861.57 Q271.164 1866.15 265.354 1866.15 Q259.544 1866.15 256.465 1861.57 Q253.41 1856.96 253.41 1848.24 Q253.41 1839.49 256.465 1834.9 Q259.544 1830.3 265.354 1830.3 Z" fill="#000000" fill-rule="nonzero" fill-opacity="1" /><path clip-path="url(#clip360)" d="M640.105 1861.55 L647.744 1861.55 L647.744 1835.18 L639.434 1836.85 L639.434 1832.59 L647.698 1830.92 L652.374 1830.92 L652.374 1861.55 L660.013 1861.55 L660.013 1865.48 L640.105 1865.48 L640.105 1861.55 Z" fill="#000000" fill-rule="nonzero" fill-opacity="1" /><path clip-path="url(#clip360)" d="M1028.75 1861.55 L1045.06 1861.55 L1045.06 1865.48 L1023.12 1865.48 L1023.12 1861.55 Q1025.78 1858.79 1030.37 1854.16 Q1034.97 1849.51 1036.15 1848.17 Q1038.4 1845.65 1039.28 1843.91 Q1040.18 1842.15 1040.18 1840.46 Q1040.18 1837.71 1038.24 1835.97 Q1036.31 1834.23 1033.21 1834.23 Q1031.01 1834.23 1028.56 1835 Q1026.13 1835.76 1023.35 1837.31 L1023.35 1832.59 Q1026.18 1831.46 1028.63 1830.88 Q1031.08 1830.3 1033.12 1830.3 Q1038.49 1830.3 1041.69 1832.98 Q1044.88 1835.67 1044.88 1840.16 Q1044.88 1842.29 1044.07 1844.21 Q1043.28 1846.11 1041.18 1848.7 Q1040.6 1849.37 1037.5 1852.59 Q1034.39 1855.78 1028.75 1861.55 Z" fill="#000000" fill-rule="nonzero" fill-opacity="1" /><path clip-path="url(#clip360)" d="M1422.71 1846.85 Q1426.07 1847.57 1427.94 1849.84 Q1429.84 1852.1 1429.84 1855.44 Q1429.84 1860.55 1426.32 1863.35 Q1422.8 1866.15 1416.32 1866.15 Q1414.14 1866.15 1411.83 1865.71 Q1409.54 1865.3 1407.08 1864.44 L1407.08 1859.93 Q1409.03 1861.06 1411.34 1861.64 Q1413.66 1862.22 1416.18 1862.22 Q1420.58 1862.22 1422.87 1860.48 Q1425.19 1858.75 1425.19 1855.44 Q1425.19 1852.38 1423.03 1850.67 Q1420.9 1848.93 1417.08 1848.93 L1413.06 1848.93 L1413.06 1845.09 L1417.27 1845.09 Q1420.72 1845.09 1422.55 1843.72 Q1424.38 1842.34 1424.38 1839.74 Q1424.38 1837.08 1422.48 1835.67 Q1420.6 1834.23 1417.08 1834.23 Q1415.16 1834.23 1412.96 1834.65 Q1410.77 1835.07 1408.13 1835.95 L1408.13 1831.78 Q1410.79 1831.04 1413.1 1830.67 Q1415.44 1830.3 1417.5 1830.3 Q1422.83 1830.3 1425.93 1832.73 Q1429.03 1835.14 1429.03 1839.26 Q1429.03 1842.13 1427.39 1844.12 Q1425.74 1846.09 1422.71 1846.85 Z" fill="#000000" fill-rule="nonzero" fill-opacity="1" /><path clip-path="url(#clip360)" d="M1805.84 1835 L1794.03 1853.45 L1805.84 1853.45 L1805.84 1835 M1804.61 1830.92 L1810.49 1830.92 L1810.49 1853.45 L1815.42 1853.45 L1815.42 1857.34 L1810.49 1857.34 L1810.49 1865.48 L1805.84 1865.48 L1805.84 1857.34 L1790.24 1857.34 L1790.24 1852.82 L1804.61 1830.92 Z" fill="#000000" fill-rule="nonzero" fill-opacity="1" /><path clip-path="url(#clip360)" d="M2177.48 1830.92 L2195.83 1830.92 L2195.83 1834.86 L2181.76 1834.86 L2181.76 1843.33 Q2182.78 1842.98 2183.8 1842.82 Q2184.82 1842.64 2185.83 1842.64 Q2191.62 1842.64 2195 1845.81 Q2198.38 1848.98 2198.38 1854.4 Q2198.38 1859.97 2194.91 1863.08 Q2191.44 1866.15 2185.12 1866.15 Q2182.94 1866.15 2180.67 1865.78 Q2178.43 1865.41 2176.02 1864.67 L2176.02 1859.97 Q2178.1 1861.11 2180.33 1861.66 Q2182.55 1862.22 2185.02 1862.22 Q2189.03 1862.22 2191.37 1860.11 Q2193.7 1858.01 2193.7 1854.4 Q2193.7 1850.78 2191.37 1848.68 Q2189.03 1846.57 2185.02 1846.57 Q2183.15 1846.57 2181.27 1846.99 Q2179.42 1847.4 2177.48 1848.28 L2177.48 1830.92 Z" fill="#000000" fill-rule="nonzero" fill-opacity="1" /><path clip-path="url(#clip360)" d="M2571.97 1846.34 Q2568.83 1846.34 2566.97 1848.49 Q2565.15 1850.65 2565.15 1854.4 Q2565.15 1858.12 2566.97 1860.3 Q2568.83 1862.45 2571.97 1862.45 Q2575.12 1862.45 2576.95 1860.3 Q2578.8 1858.12 2578.8 1854.4 Q2578.8 1850.65 2576.95 1848.49 Q2575.12 1846.34 2571.97 1846.34 M2581.26 1831.69 L2581.26 1835.95 Q2579.5 1835.11 2577.69 1834.67 Q2575.91 1834.23 2574.15 1834.23 Q2569.52 1834.23 2567.07 1837.36 Q2564.64 1840.48 2564.29 1846.8 Q2565.66 1844.79 2567.72 1843.72 Q2569.78 1842.64 2572.25 1842.64 Q2577.46 1842.64 2580.47 1845.81 Q2583.5 1848.96 2583.5 1854.4 Q2583.5 1859.72 2580.35 1862.94 Q2577.21 1866.15 2571.97 1866.15 Q2565.98 1866.15 2562.81 1861.57 Q2559.64 1856.96 2559.64 1848.24 Q2559.64 1840.04 2563.53 1835.18 Q2567.41 1830.3 2573.97 1830.3 Q2575.72 1830.3 2577.51 1830.65 Q2579.31 1830.99 2581.26 1831.69 Z" fill="#000000" fill-rule="nonzero" fill-opacity="1" /><polyline clip-path="url(#clip360)" style="stroke:#000000; stroke-linecap:round; stroke-linejoin:round; stroke-width:4; stroke-opacity:1; fill:none" points="196.168,1800.78 196.168,47.2441 "/>
<polyline clip-path="url(#clip360)" style="stroke:#000000; stroke-linecap:round; stroke-linejoin:round; stroke-width:4; stroke-opacity:1; fill:none" points="196.168,1518.45 215.065,1518.45 "/>
<polyline clip-path="url(#clip360)" style="stroke:#000000; stroke-linecap:round; stroke-linejoin:round; stroke-width:4; stroke-opacity:1; fill:none" points="196.168,1190.39 215.065,1190.39 "/>
<polyline clip-path="url(#clip360)" style="stroke:#000000; stroke-linecap:round; stroke-linejoin:round; stroke-width:4; stroke-opacity:1; fill:none" points="196.168,862.338 215.065,862.338 "/>
<polyline clip-path="url(#clip360)" style="stroke:#000000; stroke-linecap:round; stroke-linejoin:round; stroke-width:4; stroke-opacity:1; fill:none" points="196.168,534.281 215.065,534.281 "/>
<polyline clip-path="url(#clip360)" style="stroke:#000000; stroke-linecap:round; stroke-linejoin:round; stroke-width:4; stroke-opacity:1; fill:none" points="196.168,206.225 215.065,206.225 "/>
<path clip-path="url(#clip360)" d="M49.5521 1518.9 L79.2279 1518.9 L79.2279 1522.84 L49.5521 1522.84 L49.5521 1518.9 Z" fill="#000000" fill-rule="nonzero" fill-opacity="1" /><path clip-path="url(#clip360)" d="M99.3204 1504.25 Q95.7093 1504.25 93.8806 1507.81 Q92.075 1511.36 92.075 1518.49 Q92.075 1525.59 93.8806 1529.16 Q95.7093 1532.7 99.3204 1532.7 Q102.955 1532.7 104.76 1529.16 Q106.589 1525.59 106.589 1518.49 Q106.589 1511.36 104.76 1507.81 Q102.955 1504.25 99.3204 1504.25 M99.3204 1500.55 Q105.131 1500.55 108.186 1505.15 Q111.265 1509.74 111.265 1518.49 Q111.265 1527.21 108.186 1531.82 Q105.131 1536.4 99.3204 1536.4 Q93.5102 1536.4 90.4315 1531.82 Q87.376 1527.21 87.376 1518.49 Q87.376 1509.74 90.4315 1505.15 Q93.5102 1500.55 99.3204 1500.55 Z" fill="#000000" fill-rule="nonzero" fill-opacity="1" /><path clip-path="url(#clip360)" d="M119.482 1529.85 L124.367 1529.85 L124.367 1535.73 L119.482 1535.73 L119.482 1529.85 Z" fill="#000000" fill-rule="nonzero" fill-opacity="1" /><path clip-path="url(#clip360)" d="M148.718 1517.1 Q152.075 1517.81 153.95 1520.08 Q155.848 1522.35 155.848 1525.68 Q155.848 1530.8 152.329 1533.6 Q148.811 1536.4 142.329 1536.4 Q140.153 1536.4 137.839 1535.96 Q135.547 1535.55 133.093 1534.69 L133.093 1530.18 Q135.038 1531.31 137.353 1531.89 Q139.667 1532.47 142.191 1532.47 Q146.589 1532.47 148.88 1530.73 Q151.195 1528.99 151.195 1525.68 Q151.195 1522.63 149.042 1520.92 Q146.913 1519.18 143.093 1519.18 L139.066 1519.18 L139.066 1515.34 L143.278 1515.34 Q146.728 1515.34 148.556 1513.97 Q150.385 1512.58 150.385 1509.99 Q150.385 1507.33 148.487 1505.92 Q146.612 1504.48 143.093 1504.48 Q141.172 1504.48 138.973 1504.9 Q136.774 1505.31 134.135 1506.19 L134.135 1502.03 Q136.797 1501.29 139.112 1500.92 Q141.45 1500.55 143.51 1500.55 Q148.834 1500.55 151.936 1502.98 Q155.038 1505.38 155.038 1509.5 Q155.038 1512.37 153.394 1514.37 Q151.751 1516.33 148.718 1517.1 Z" fill="#000000" fill-rule="nonzero" fill-opacity="1" /><path clip-path="url(#clip360)" d="M98.6722 1176.19 Q95.0611 1176.19 93.2324 1179.76 Q91.4269 1183.3 91.4269 1190.43 Q91.4269 1197.54 93.2324 1201.1 Q95.0611 1204.64 98.6722 1204.64 Q102.306 1204.64 104.112 1201.1 Q105.941 1197.54 105.941 1190.43 Q105.941 1183.3 104.112 1179.76 Q102.306 1176.19 98.6722 1176.19 M98.6722 1172.49 Q104.482 1172.49 107.538 1177.1 Q110.617 1181.68 110.617 1190.43 Q110.617 1199.16 107.538 1203.76 Q104.482 1208.35 98.6722 1208.35 Q92.8621 1208.35 89.7834 1203.76 Q86.7279 1199.16 86.7279 1190.43 Q86.7279 1181.68 89.7834 1177.1 Q92.8621 1172.49 98.6722 1172.49 Z" fill="#000000" fill-rule="nonzero" fill-opacity="1" /><path clip-path="url(#clip360)" d="M118.834 1201.79 L123.718 1201.79 L123.718 1207.67 L118.834 1207.67 L118.834 1201.79 Z" fill="#000000" fill-rule="nonzero" fill-opacity="1" /><path clip-path="url(#clip360)" d="M143.903 1176.19 Q140.292 1176.19 138.464 1179.76 Q136.658 1183.3 136.658 1190.43 Q136.658 1197.54 138.464 1201.1 Q140.292 1204.64 143.903 1204.64 Q147.538 1204.64 149.343 1201.1 Q151.172 1197.54 151.172 1190.43 Q151.172 1183.3 149.343 1179.76 Q147.538 1176.19 143.903 1176.19 M143.903 1172.49 Q149.714 1172.49 152.769 1177.1 Q155.848 1181.68 155.848 1190.43 Q155.848 1199.16 152.769 1203.76 Q149.714 1208.35 143.903 1208.35 Q138.093 1208.35 135.015 1203.76 Q131.959 1199.16 131.959 1190.43 Q131.959 1181.68 135.015 1177.1 Q138.093 1172.49 143.903 1172.49 Z" fill="#000000" fill-rule="nonzero" fill-opacity="1" /><path clip-path="url(#clip360)" d="M99.3204 848.136 Q95.7093 848.136 93.8806 851.701 Q92.075 855.243 92.075 862.372 Q92.075 869.479 93.8806 873.044 Q95.7093 876.585 99.3204 876.585 Q102.955 876.585 104.76 873.044 Q106.589 869.479 106.589 862.372 Q106.589 855.243 104.76 851.701 Q102.955 848.136 99.3204 848.136 M99.3204 844.433 Q105.131 844.433 108.186 849.039 Q111.265 853.622 111.265 862.372 Q111.265 871.099 108.186 875.706 Q105.131 880.289 99.3204 880.289 Q93.5102 880.289 90.4315 875.706 Q87.376 871.099 87.376 862.372 Q87.376 853.622 90.4315 849.039 Q93.5102 844.433 99.3204 844.433 Z" fill="#000000" fill-rule="nonzero" fill-opacity="1" /><path clip-path="url(#clip360)" d="M119.482 873.738 L124.367 873.738 L124.367 879.618 L119.482 879.618 L119.482 873.738 Z" fill="#000000" fill-rule="nonzero" fill-opacity="1" /><path clip-path="url(#clip360)" d="M148.718 860.983 Q152.075 861.701 153.95 863.97 Q155.848 866.238 155.848 869.571 Q155.848 874.687 152.329 877.488 Q148.811 880.289 142.329 880.289 Q140.153 880.289 137.839 879.849 Q135.547 879.432 133.093 878.576 L133.093 874.062 Q135.038 875.196 137.353 875.775 Q139.667 876.354 142.191 876.354 Q146.589 876.354 148.88 874.618 Q151.195 872.882 151.195 869.571 Q151.195 866.516 149.042 864.803 Q146.913 863.067 143.093 863.067 L139.066 863.067 L139.066 859.224 L143.278 859.224 Q146.728 859.224 148.556 857.858 Q150.385 856.47 150.385 853.877 Q150.385 851.215 148.487 849.803 Q146.612 848.368 143.093 848.368 Q141.172 848.368 138.973 848.784 Q136.774 849.201 134.135 850.081 L134.135 845.914 Q136.797 845.173 139.112 844.803 Q141.45 844.433 143.51 844.433 Q148.834 844.433 151.936 846.863 Q155.038 849.271 155.038 853.391 Q155.038 856.261 153.394 858.252 Q151.751 860.22 148.718 860.983 Z" fill="#000000" fill-rule="nonzero" fill-opacity="1" /><path clip-path="url(#clip360)" d="M98.5102 520.08 Q94.8991 520.08 93.0704 523.645 Q91.2649 527.186 91.2649 534.316 Q91.2649 541.422 93.0704 544.987 Q94.8991 548.529 98.5102 548.529 Q102.144 548.529 103.95 544.987 Q105.779 541.422 105.779 534.316 Q105.779 527.186 103.95 523.645 Q102.144 520.08 98.5102 520.08 M98.5102 516.376 Q104.32 516.376 107.376 520.983 Q110.455 525.566 110.455 534.316 Q110.455 543.043 107.376 547.649 Q104.32 552.232 98.5102 552.232 Q92.7 552.232 89.6214 547.649 Q86.5658 543.043 86.5658 534.316 Q86.5658 525.566 89.6214 520.983 Q92.7 516.376 98.5102 516.376 Z" fill="#000000" fill-rule="nonzero" fill-opacity="1" /><path clip-path="url(#clip360)" d="M118.672 545.682 L123.556 545.682 L123.556 551.561 L118.672 551.561 L118.672 545.682 Z" fill="#000000" fill-rule="nonzero" fill-opacity="1" /><path clip-path="url(#clip360)" d="M144.32 532.418 Q141.172 532.418 139.32 534.57 Q137.491 536.723 137.491 540.473 Q137.491 544.2 139.32 546.376 Q141.172 548.529 144.32 548.529 Q147.468 548.529 149.297 546.376 Q151.149 544.2 151.149 540.473 Q151.149 536.723 149.297 534.57 Q147.468 532.418 144.32 532.418 M153.602 517.765 L153.602 522.024 Q151.843 521.191 150.038 520.751 Q148.255 520.311 146.496 520.311 Q141.866 520.311 139.413 523.436 Q136.982 526.561 136.635 532.881 Q138.001 530.867 140.061 529.802 Q142.121 528.714 144.598 528.714 Q149.806 528.714 152.815 531.885 Q155.848 535.033 155.848 540.473 Q155.848 545.797 152.7 549.015 Q149.552 552.232 144.32 552.232 Q138.325 552.232 135.154 547.649 Q131.982 543.043 131.982 534.316 Q131.982 526.121 135.871 521.26 Q139.76 516.376 146.311 516.376 Q148.07 516.376 149.853 516.723 Q151.658 517.071 153.602 517.765 Z" fill="#000000" fill-rule="nonzero" fill-opacity="1" /><path clip-path="url(#clip360)" d="M98.8574 192.023 Q95.2463 192.023 93.4176 195.588 Q91.6121 199.13 91.6121 206.259 Q91.6121 213.366 93.4176 216.931 Q95.2463 220.472 98.8574 220.472 Q102.492 220.472 104.297 216.931 Q106.126 213.366 106.126 206.259 Q106.126 199.13 104.297 195.588 Q102.492 192.023 98.8574 192.023 M98.8574 188.32 Q104.668 188.32 107.723 192.926 Q110.802 197.509 110.802 206.259 Q110.802 214.986 107.723 219.593 Q104.668 224.176 98.8574 224.176 Q93.0473 224.176 89.9686 219.593 Q86.913 214.986 86.913 206.259 Q86.913 197.509 89.9686 192.926 Q93.0473 188.32 98.8574 188.32 Z" fill="#000000" fill-rule="nonzero" fill-opacity="1" /><path clip-path="url(#clip360)" d="M119.019 217.625 L123.904 217.625 L123.904 223.505 L119.019 223.505 L119.019 217.625 Z" fill="#000000" fill-rule="nonzero" fill-opacity="1" /><path clip-path="url(#clip360)" d="M134.228 222.787 L134.228 218.528 Q135.987 219.361 137.792 219.801 Q139.598 220.241 141.334 220.241 Q145.964 220.241 148.394 217.139 Q150.848 214.014 151.195 207.671 Q149.853 209.662 147.792 210.727 Q145.732 211.792 143.232 211.792 Q138.047 211.792 135.015 208.667 Q132.005 205.519 132.005 200.079 Q132.005 194.755 135.154 191.537 Q138.302 188.32 143.533 188.32 Q149.528 188.32 152.677 192.926 Q155.848 197.509 155.848 206.259 Q155.848 214.431 151.959 219.315 Q148.093 224.176 141.542 224.176 Q139.783 224.176 137.978 223.829 Q136.172 223.481 134.228 222.787 M143.533 208.134 Q146.681 208.134 148.51 205.982 Q150.362 203.829 150.362 200.079 Q150.362 196.352 148.51 194.199 Q146.681 192.023 143.533 192.023 Q140.385 192.023 138.533 194.199 Q136.704 196.352 136.704 200.079 Q136.704 203.829 138.533 205.982 Q140.385 208.134 143.533 208.134 Z" fill="#000000" fill-rule="nonzero" fill-opacity="1" /><polyline clip-path="url(#clip362)" style="stroke:#009af9; stroke-linecap:round; stroke-linejoin:round; stroke-width:4; stroke-opacity:1; fill:none" points="265.354,1190.39 288.416,1190.39 311.479,1190.39 334.541,1190.39 357.603,1190.39 380.665,1190.39 403.727,1190.39 426.789,1190.39 449.852,1190.39 472.914,1190.39 495.976,1190.39 519.038,1190.39 542.1,1190.39 565.162,1190.39 588.224,1190.39 611.287,1190.39 634.349,1190.39 657.411,1190.39 680.473,1190.39 703.535,1190.39 726.597,1190.39 749.659,1190.39 772.722,1190.39 795.784,1190.39 818.846,1190.39 841.908,1190.39 864.97,1190.39 888.032,1190.39 911.095,1190.39 934.157,1190.39 957.219,1190.39 980.281,1190.39 1003.34,1190.39 1026.41,1190.39 1049.47,1146.65 1072.53,1081.04 1095.59,1015.43 1118.65,949.819 1141.72,884.208 1164.78,818.597 1187.84,752.985 1210.9,687.374 1233.96,621.763 1257.03,556.152 1280.09,490.54 1303.15,424.929 1326.21,359.318 1349.28,293.706 1372.34,228.095 1395.4,162.484 1418.46,96.8724 1441.52,162.484 1464.59,228.095 1487.65,293.706 1510.71,359.318 1533.77,424.929 1556.83,490.54 1579.9,556.152 1602.96,621.763 1626.02,687.374 1649.08,752.985 1672.15,818.597 1695.21,884.208 1718.27,949.819 1741.33,1015.43 1764.39,1081.04 1787.46,1146.65 1810.52,1190.39 1833.58,1190.39 1856.64,1190.39 1879.7,1190.39 1902.77,1190.39 1925.83,1190.39 1948.89,1190.39 1971.95,1190.39 1995.02,1190.39 2018.08,1190.39 2041.14,1190.39 2064.2,1190.39 2087.26,1190.39 2110.33,1190.39 2133.39,1190.39 2156.45,1190.39 2179.51,1190.39 2202.58,1190.39 2225.64,1190.39 2248.7,1190.39 2271.76,1190.39 2294.82,1190.39 2317.89,1190.39 2340.95,1190.39 2364.01,1190.39 2387.07,1190.39 2410.13,1190.39 2433.2,1190.39 2456.26,1190.39 2479.32,1190.39 2502.38,1190.39 2525.45,1190.39 2548.51,1190.39 2571.57,1190.39 "/>
<polyline clip-path="url(#clip362)" style="stroke:#e26f46; stroke-linecap:round; stroke-linejoin:round; stroke-width:4; stroke-opacity:1; fill:none" points="265.354,1190.39 288.416,1190.39 311.479,1190.39 334.541,1190.39 357.603,1190.39 380.665,1190.39 403.727,1190.39 426.789,1190.39 449.852,1190.39 472.914,1190.39 495.976,1190.39 519.038,1190.39 542.1,1190.39 565.162,1190.39 588.224,1190.39 611.287,1190.39 634.349,1190.39 657.411,1190.39 680.473,1190.39 703.535,1190.39 726.597,1190.39 749.659,1190.39 772.722,1190.39 795.784,1190.4 818.846,1190.4 841.908,1190.38 864.97,1190.36 888.032,1190.47 911.095,1190.58 934.157,1189.94 957.219,1189.3 980.281,1193.05 1003.34,1196.8 1026.41,1174.93 1049.47,1153.06 1072.53,1083.7 1095.59,1014.33 1118.65,949.364 1141.72,884.397 1164.78,818.675 1187.84,752.953 1210.9,687.361 1233.96,621.768 1257.03,556.154 1280.09,490.539 1303.15,424.929 1326.21,359.318 1349.28,293.706 1372.34,228.095 1395.4,162.484 1418.46,96.8725 1441.52,162.484 1464.59,228.095 1487.65,293.706 1510.71,359.318 1533.77,424.929 1556.83,490.539 1579.9,556.154 1602.96,621.768 1626.02,687.361 1649.08,752.953 1672.15,818.675 1695.21,884.397 1718.27,949.364 1741.33,1014.33 1764.39,1083.7 1787.46,1153.06 1810.52,1174.93 1833.58,1196.8 1856.64,1193.05 1879.7,1189.3 1902.77,1189.94 1925.83,1190.58 1948.89,1190.47 1971.95,1190.36 1995.02,1190.38 2018.08,1190.4 2041.14,1190.4 2064.2,1190.39 2087.26,1190.39 2110.33,1190.39 2133.39,1190.39 2156.45,1190.39 2179.51,1190.39 2202.58,1190.39 2225.64,1190.39 2248.7,1190.39 2271.76,1190.39 2294.82,1190.39 2317.89,1190.39 2340.95,1190.39 2364.01,1190.39 2387.07,1190.39 2410.13,1190.39 2433.2,1190.39 2456.26,1190.39 2479.32,1190.39 2502.38,1190.39 2525.45,1190.39 2548.51,1190.39 2571.57,1190.39 "/>
<polyline clip-path="url(#clip362)" style="stroke:#3da44d; stroke-linecap:round; stroke-linejoin:round; stroke-width:4; stroke-opacity:1; fill:none" points="265.354,953.633 288.416,953.528 311.479,953.214 334.541,952.688 357.603,951.947 380.665,950.987 403.727,949.802 426.789,948.386 449.852,946.728 472.914,944.82 495.976,942.648 519.038,940.197 542.1,937.451 565.162,934.39 588.224,930.991 611.287,927.227 634.349,923.067 657.411,918.473 680.473,913.403 703.535,907.806 726.597,901.62 749.659,894.775 772.722,887.182 795.784,878.731 818.846,869.282 841.908,858.68 864.97,846.745 888.032,833.103 911.095,817.139 934.157,798.784 957.219,778.46 980.281,751.869 1003.34,708.811 1026.41,659.18 1049.47,601.715 1072.53,550.83 1095.59,527.395 1118.65,515.893 1141.72,511.226 1164.78,513.617 1187.84,523.026 1210.9,539.019 1233.96,561.529 1257.03,590.827 1280.09,627.392 1303.15,671.979 1326.21,725.793 1349.28,790.788 1372.34,870.431 1395.4,972.225 1418.46,1132.06 1441.52,1291.89 1464.59,1393.64 1487.65,1473.23 1510.71,1538.14 1533.77,1591.84 1556.83,1636.3 1579.9,1672.71 1602.96,1701.82 1626.02,1724.13 1649.08,1739.89 1672.15,1749.04 1695.21,1751.15 1718.27,1746.18 1741.33,1734.34 1764.39,1710.54 1787.46,1659.27 1810.52,1601.38 1833.58,1551.31 1856.64,1507.77 1879.7,1480.68 1902.77,1459.82 1925.83,1440.89 1948.89,1424.33 1971.95,1410.06 1995.02,1397.46 2018.08,1386.15 2041.14,1375.97 2064.2,1366.74 2087.26,1358.33 2110.33,1350.64 2133.39,1343.56 2156.45,1337.02 2179.51,1330.97 2202.58,1325.35 2225.64,1320.11 2248.7,1315.22 2271.76,1310.64 2294.82,1306.35 2317.89,1302.32 2340.95,1298.52 2364.01,1294.93 2387.07,1291.54 2410.13,1288.34 2433.2,1285.3 2456.26,1282.42 2479.32,1279.69 2502.38,1277.08 2525.45,1274.61 2548.51,1272.24 2571.57,1269.99 "/>
<path clip-path="url(#clip360)" d="M2115.02 313.055 L2559.27 313.055 L2559.27 105.695 L2115.02 105.695  Z" fill="#ffffff" fill-rule="evenodd" fill-opacity="1"/>
<polyline clip-path="url(#clip360)" style="stroke:#000000; stroke-linecap:round; stroke-linejoin:round; stroke-width:4; stroke-opacity:1; fill:none" points="2115.02,313.055 2559.27,313.055 2559.27,105.695 2115.02,105.695 2115.02,313.055 "/>
<polyline clip-path="url(#clip360)" style="stroke:#009af9; stroke-linecap:round; stroke-linejoin:round; stroke-width:4; stroke-opacity:1; fill:none" points="2142.18,157.535 2305.15,157.535 "/>
<path clip-path="url(#clip360)" d="M2338.38 160.834 Q2335.79 160.278 2334.4 158.774 Q2333.01 157.292 2333.01 155.139 Q2333.01 151.876 2335.65 150.047 Q2338.27 148.241 2342.8 148.241 Q2344.56 148.241 2346.53 148.519 Q2348.5 148.797 2350.77 149.352 L2350.77 153.218 Q2348.52 152.547 2346.67 152.246 Q2344.79 151.945 2343.15 151.945 Q2340.4 151.945 2338.8 153.01 Q2337.18 154.075 2337.18 155.556 Q2337.18 157.176 2338.75 158.218 Q2340.3 159.237 2342.99 159.237 L2346.58 159.237 L2346.58 162.755 L2343.15 162.755 Q2339.98 162.755 2338.31 163.936 Q2336.51 165.232 2336.51 167.269 Q2336.51 169.352 2338.45 170.649 Q2340.42 171.945 2343.91 171.945 Q2346.07 171.945 2348.03 171.528 Q2350 171.088 2351.65 170.232 L2351.65 174.19 Q2349.56 174.838 2347.62 175.162 Q2345.65 175.487 2343.8 175.487 Q2338.29 175.487 2335.3 173.38 Q2332.32 171.274 2332.32 167.269 Q2332.32 164.769 2333.91 163.079 Q2335.51 161.389 2338.38 160.834 Z" fill="#000000" fill-rule="nonzero" fill-opacity="1" /><path clip-path="url(#clip360)" d="M2361.07 172.176 L2370.88 172.176 L2370.88 174.815 L2357.04 174.815 L2357.04 172.269 Q2357.83 171.551 2359.28 170.255 Q2367.25 163.195 2367.25 161.019 Q2367.25 159.491 2366.04 158.565 Q2364.84 157.616 2362.87 157.616 Q2361.67 157.616 2360.26 158.033 Q2358.84 158.426 2357.18 159.237 L2357.18 156.389 Q2358.96 155.741 2360.49 155.417 Q2362.04 155.093 2363.36 155.093 Q2366.71 155.093 2368.73 156.621 Q2370.74 158.149 2370.74 160.649 Q2370.74 163.866 2363.08 170.44 Q2361.78 171.551 2361.07 172.176 Z" fill="#000000" fill-rule="nonzero" fill-opacity="1" /><polyline clip-path="url(#clip360)" style="stroke:#e26f46; stroke-linecap:round; stroke-linejoin:round; stroke-width:4; stroke-opacity:1; fill:none" points="2142.18,209.375 2305.15,209.375 "/>
<path clip-path="url(#clip360)" d="M2338.38 212.674 Q2335.79 212.118 2334.4 210.614 Q2333.01 209.132 2333.01 206.979 Q2333.01 203.716 2335.65 201.887 Q2338.27 200.081 2342.8 200.081 Q2344.56 200.081 2346.53 200.359 Q2348.5 200.637 2350.77 201.192 L2350.77 205.058 Q2348.52 204.387 2346.67 204.086 Q2344.79 203.785 2343.15 203.785 Q2340.4 203.785 2338.8 204.85 Q2337.18 205.915 2337.18 207.396 Q2337.18 209.016 2338.75 210.058 Q2340.3 211.077 2342.99 211.077 L2346.58 211.077 L2346.58 214.595 L2343.15 214.595 Q2339.98 214.595 2338.31 215.776 Q2336.51 217.072 2336.51 219.109 Q2336.51 221.192 2338.45 222.489 Q2340.42 223.785 2343.91 223.785 Q2346.07 223.785 2348.03 223.368 Q2350 222.928 2351.65 222.072 L2351.65 226.03 Q2349.56 226.678 2347.62 227.002 Q2345.65 227.327 2343.8 227.327 Q2338.29 227.327 2335.3 225.22 Q2332.32 223.114 2332.32 219.109 Q2332.32 216.609 2333.91 214.919 Q2335.51 213.229 2338.38 212.674 Z" fill="#000000" fill-rule="nonzero" fill-opacity="1" /><path clip-path="url(#clip360)" d="M2361.07 224.016 L2370.88 224.016 L2370.88 226.655 L2357.04 226.655 L2357.04 224.109 Q2357.83 223.391 2359.28 222.095 Q2367.25 215.035 2367.25 212.859 Q2367.25 211.331 2366.04 210.405 Q2364.84 209.456 2362.87 209.456 Q2361.67 209.456 2360.26 209.873 Q2358.84 210.266 2357.18 211.077 L2357.18 208.229 Q2358.96 207.581 2360.49 207.257 Q2362.04 206.933 2363.36 206.933 Q2366.71 206.933 2368.73 208.461 Q2370.74 209.989 2370.74 212.489 Q2370.74 215.706 2363.08 222.28 Q2361.78 223.391 2361.07 224.016 Z" fill="#000000" fill-rule="nonzero" fill-opacity="1" /><path clip-path="url(#clip360)" d="M2413.59 205.706 Q2415.19 202.836 2417.41 201.47 Q2419.63 200.104 2422.64 200.104 Q2426.69 200.104 2428.89 202.952 Q2431.09 205.776 2431.09 211.007 L2431.09 226.655 L2426.81 226.655 L2426.81 211.146 Q2426.81 207.419 2425.49 205.614 Q2424.17 203.808 2421.46 203.808 Q2418.15 203.808 2416.23 206.007 Q2414.31 208.206 2414.31 212.003 L2414.31 226.655 L2410.02 226.655 L2410.02 211.146 Q2410.02 207.396 2408.71 205.614 Q2407.39 203.808 2404.63 203.808 Q2401.37 203.808 2399.45 206.03 Q2397.52 208.229 2397.52 212.003 L2397.52 226.655 L2393.24 226.655 L2393.24 200.729 L2397.52 200.729 L2397.52 204.757 Q2398.98 202.373 2401.02 201.239 Q2403.06 200.104 2405.86 200.104 Q2408.68 200.104 2410.65 201.54 Q2412.64 202.975 2413.59 205.706 Z" fill="#000000" fill-rule="nonzero" fill-opacity="1" /><path clip-path="url(#clip360)" d="M2449.63 203.716 Q2446.21 203.716 2444.21 206.401 Q2442.22 209.063 2442.22 213.716 Q2442.22 218.368 2444.19 221.053 Q2446.18 223.715 2449.63 223.715 Q2453.03 223.715 2455.02 221.03 Q2457.02 218.345 2457.02 213.716 Q2457.02 209.109 2455.02 206.424 Q2453.03 203.716 2449.63 203.716 M2449.63 200.104 Q2455.19 200.104 2458.36 203.716 Q2461.53 207.327 2461.53 213.716 Q2461.53 220.081 2458.36 223.715 Q2455.19 227.327 2449.63 227.327 Q2444.05 227.327 2440.88 223.715 Q2437.73 220.081 2437.73 213.716 Q2437.73 207.327 2440.88 203.716 Q2444.05 200.104 2449.63 200.104 Z" fill="#000000" fill-rule="nonzero" fill-opacity="1" /><path clip-path="url(#clip360)" d="M2485.65 204.665 L2485.65 190.637 L2489.91 190.637 L2489.91 226.655 L2485.65 226.655 L2485.65 222.766 Q2484.31 225.081 2482.25 226.215 Q2480.21 227.327 2477.34 227.327 Q2472.64 227.327 2469.68 223.577 Q2466.74 219.827 2466.74 213.716 Q2466.74 207.604 2469.68 203.854 Q2472.64 200.104 2477.34 200.104 Q2480.21 200.104 2482.25 201.239 Q2484.31 202.35 2485.65 204.665 M2471.14 213.716 Q2471.14 218.415 2473.06 221.1 Q2475 223.762 2478.38 223.762 Q2481.76 223.762 2483.71 221.1 Q2485.65 218.415 2485.65 213.716 Q2485.65 209.016 2483.71 206.354 Q2481.76 203.669 2478.38 203.669 Q2475 203.669 2473.06 206.354 Q2471.14 209.016 2471.14 213.716 Z" fill="#000000" fill-rule="nonzero" fill-opacity="1" /><path clip-path="url(#clip360)" d="M2520.86 212.628 L2520.86 214.711 L2501.27 214.711 Q2501.55 219.109 2503.91 221.424 Q2506.3 223.715 2510.53 223.715 Q2512.99 223.715 2515.28 223.114 Q2517.59 222.512 2519.86 221.308 L2519.86 225.336 Q2517.57 226.308 2515.16 226.817 Q2512.76 227.327 2510.28 227.327 Q2504.08 227.327 2500.44 223.715 Q2496.83 220.104 2496.83 213.947 Q2496.83 207.581 2500.26 203.854 Q2503.7 200.104 2509.54 200.104 Q2514.77 200.104 2517.8 203.484 Q2520.86 206.841 2520.86 212.628 M2516.6 211.378 Q2516.55 207.882 2514.63 205.799 Q2512.73 203.716 2509.58 203.716 Q2506.02 203.716 2503.87 205.729 Q2501.74 207.743 2501.41 211.401 L2516.6 211.378 Z" fill="#000000" fill-rule="nonzero" fill-opacity="1" /><path clip-path="url(#clip360)" d="M2527.85 190.637 L2532.11 190.637 L2532.11 226.655 L2527.85 226.655 L2527.85 190.637 Z" fill="#000000" fill-rule="nonzero" fill-opacity="1" /><polyline clip-path="url(#clip360)" style="stroke:#3da44d; stroke-linecap:round; stroke-linejoin:round; stroke-width:4; stroke-opacity:1; fill:none" points="2142.18,261.215 2305.15,261.215 "/>
<path clip-path="url(#clip360)" d="M2338.38 264.514 Q2335.79 263.958 2334.4 262.454 Q2333.01 260.972 2333.01 258.819 Q2333.01 255.556 2335.65 253.727 Q2338.27 251.921 2342.8 251.921 Q2344.56 251.921 2346.53 252.199 Q2348.5 252.477 2350.77 253.032 L2350.77 256.898 Q2348.52 256.227 2346.67 255.926 Q2344.79 255.625 2343.15 255.625 Q2340.4 255.625 2338.8 256.69 Q2337.18 257.755 2337.18 259.236 Q2337.18 260.856 2338.75 261.898 Q2340.3 262.917 2342.99 262.917 L2346.58 262.917 L2346.58 266.435 L2343.15 266.435 Q2339.98 266.435 2338.31 267.616 Q2336.51 268.912 2336.51 270.949 Q2336.51 273.032 2338.45 274.329 Q2340.42 275.625 2343.91 275.625 Q2346.07 275.625 2348.03 275.208 Q2350 274.768 2351.65 273.912 L2351.65 277.87 Q2349.56 278.518 2347.62 278.842 Q2345.65 279.167 2343.8 279.167 Q2338.29 279.167 2335.3 277.06 Q2332.32 274.954 2332.32 270.949 Q2332.32 268.449 2333.91 266.759 Q2335.51 265.069 2338.38 264.514 Z" fill="#000000" fill-rule="nonzero" fill-opacity="1" /><path clip-path="url(#clip360)" d="M2358.47 275.949 L2363.2 275.949 L2363.2 261.806 L2358.03 262.755 L2358.03 260.069 L2363.36 259.167 L2366.53 259.167 L2366.53 275.949 L2371.28 275.949 L2371.28 278.495 L2358.47 278.495 L2358.47 275.949 Z" fill="#000000" fill-rule="nonzero" fill-opacity="1" /><path clip-path="url(#clip360)" d="M2413.59 257.546 Q2415.19 254.676 2417.41 253.31 Q2419.63 251.944 2422.64 251.944 Q2426.69 251.944 2428.89 254.792 Q2431.09 257.616 2431.09 262.847 L2431.09 278.495 L2426.81 278.495 L2426.81 262.986 Q2426.81 259.259 2425.49 257.454 Q2424.17 255.648 2421.46 255.648 Q2418.15 255.648 2416.23 257.847 Q2414.31 260.046 2414.31 263.843 L2414.31 278.495 L2410.02 278.495 L2410.02 262.986 Q2410.02 259.236 2408.71 257.454 Q2407.39 255.648 2404.63 255.648 Q2401.37 255.648 2399.45 257.87 Q2397.52 260.069 2397.52 263.843 L2397.52 278.495 L2393.24 278.495 L2393.24 252.569 L2397.52 252.569 L2397.52 256.597 Q2398.98 254.213 2401.02 253.079 Q2403.06 251.944 2405.86 251.944 Q2408.68 251.944 2410.65 253.38 Q2412.64 254.815 2413.59 257.546 Z" fill="#000000" fill-rule="nonzero" fill-opacity="1" /><path clip-path="url(#clip360)" d="M2449.63 255.556 Q2446.21 255.556 2444.21 258.241 Q2442.22 260.903 2442.22 265.556 Q2442.22 270.208 2444.19 272.893 Q2446.18 275.555 2449.63 275.555 Q2453.03 275.555 2455.02 272.87 Q2457.02 270.185 2457.02 265.556 Q2457.02 260.949 2455.02 258.264 Q2453.03 255.556 2449.63 255.556 M2449.63 251.944 Q2455.19 251.944 2458.36 255.556 Q2461.53 259.167 2461.53 265.556 Q2461.53 271.921 2458.36 275.555 Q2455.19 279.167 2449.63 279.167 Q2444.05 279.167 2440.88 275.555 Q2437.73 271.921 2437.73 265.556 Q2437.73 259.167 2440.88 255.556 Q2444.05 251.944 2449.63 251.944 Z" fill="#000000" fill-rule="nonzero" fill-opacity="1" /><path clip-path="url(#clip360)" d="M2485.65 256.505 L2485.65 242.477 L2489.91 242.477 L2489.91 278.495 L2485.65 278.495 L2485.65 274.606 Q2484.31 276.921 2482.25 278.055 Q2480.21 279.167 2477.34 279.167 Q2472.64 279.167 2469.68 275.417 Q2466.74 271.667 2466.74 265.556 Q2466.74 259.444 2469.68 255.694 Q2472.64 251.944 2477.34 251.944 Q2480.21 251.944 2482.25 253.079 Q2484.31 254.19 2485.65 256.505 M2471.14 265.556 Q2471.14 270.255 2473.06 272.94 Q2475 275.602 2478.38 275.602 Q2481.76 275.602 2483.71 272.94 Q2485.65 270.255 2485.65 265.556 Q2485.65 260.856 2483.71 258.194 Q2481.76 255.509 2478.38 255.509 Q2475 255.509 2473.06 258.194 Q2471.14 260.856 2471.14 265.556 Z" fill="#000000" fill-rule="nonzero" fill-opacity="1" /><path clip-path="url(#clip360)" d="M2520.86 264.468 L2520.86 266.551 L2501.27 266.551 Q2501.55 270.949 2503.91 273.264 Q2506.3 275.555 2510.53 275.555 Q2512.99 275.555 2515.28 274.954 Q2517.59 274.352 2519.86 273.148 L2519.86 277.176 Q2517.57 278.148 2515.16 278.657 Q2512.76 279.167 2510.28 279.167 Q2504.08 279.167 2500.44 275.555 Q2496.83 271.944 2496.83 265.787 Q2496.83 259.421 2500.26 255.694 Q2503.7 251.944 2509.54 251.944 Q2514.77 251.944 2517.8 255.324 Q2520.86 258.681 2520.86 264.468 M2516.6 263.218 Q2516.55 259.722 2514.63 257.639 Q2512.73 255.556 2509.58 255.556 Q2506.02 255.556 2503.87 257.569 Q2501.74 259.583 2501.41 263.241 L2516.6 263.218 Z" fill="#000000" fill-rule="nonzero" fill-opacity="1" /><path clip-path="url(#clip360)" d="M2527.85 242.477 L2532.11 242.477 L2532.11 278.495 L2527.85 278.495 L2527.85 242.477 Z" fill="#000000" fill-rule="nonzero" fill-opacity="1" /></svg>
