<?xml version="1.0" encoding="utf-8"?>
<svg xmlns="http://www.w3.org/2000/svg" xmlns:xlink="http://www.w3.org/1999/xlink" width="400" height="250" viewBox="0 0 1600 1000">
<defs>
  <clipPath id="clip690">
    <rect x="0" y="0" width="1600" height="1000"/>
  </clipPath>
</defs>
<path clip-path="url(#clip690)" d="M0 1000 L1600 1000 L1600 0 L0 0  Z" fill="#ffffff" fill-rule="evenodd" fill-opacity="1"/>
<defs>
  <clipPath id="clip691">
    <rect x="185" y="47" width="1368" height="848"/>
  </clipPath>
</defs>
<path clip-path="url(#clip690)" d="M185.288 894.608 L1552.76 894.608 L1552.76 47.2441 L185.288 47.2441  Z" fill="#ffffff" fill-rule="evenodd" fill-opacity="1"/>
<polyline clip-path="url(#clip691)" style="stroke:#000000; stroke-linecap:round; stroke-linejoin:round; stroke-width:2; stroke-opacity:0.1; fill:none" points="361.371,894.608 361.371,47.2441 "/>
<polyline clip-path="url(#clip691)" style="stroke:#000000; stroke-linecap:round; stroke-linejoin:round; stroke-width:2; stroke-opacity:0.1; fill:none" points="615.196,894.608 615.196,47.2441 "/>
<polyline clip-path="url(#clip691)" style="stroke:#000000; stroke-linecap:round; stroke-linejoin:round; stroke-width:2; stroke-opacity:0.1; fill:none" points="869.022,894.608 869.022,47.2441 "/>
<polyline clip-path="url(#clip691)" style="stroke:#000000; stroke-linecap:round; stroke-linejoin:round; stroke-width:2; stroke-opacity:0.1; fill:none" points="1122.85,894.608 1122.85,47.2441 "/>
<polyline clip-path="url(#clip691)" style="stroke:#000000; stroke-linecap:round; stroke-linejoin:round; stroke-width:2; stroke-opacity:0.1; fill:none" points="1376.67,894.608 1376.67,47.2441 "/>
<polyline clip-path="url(#clip691)" style="stroke:#000000; stroke-linecap:round; stroke-linejoin:round; stroke-width:2; stroke-opacity:0.1; fill:none" points="185.288,765.79 1552.76,765.79 "/>
<polyline clip-path="url(#clip691)" style="stroke:#000000; stroke-linecap:round; stroke-linejoin:round; stroke-width:2; stroke-opacity:0.1; fill:none" points="185.288,605.486 1552.76,605.486 "/>
<polyline clip-path="url(#clip691)" style="stroke:#000000; stroke-linecap:round; stroke-linejoin:round; stroke-width:2; stroke-opacity:0.1; fill:none" points="185.288,445.182 1552.76,445.182 "/>
<polyline clip-path="url(#clip691)" style="stroke:#000000; stroke-linecap:round; stroke-linejoin:round; stroke-width:2; stroke-opacity:0.1; fill:none" points="185.288,284.878 1552.76,284.878 "/>
<polyline clip-path="url(#clip691)" style="stroke:#000000; stroke-linecap:round; stroke-linejoin:round; stroke-width:2; stroke-opacity:0.1; fill:none" points="185.288,124.574 1552.76,124.574 "/>
<polyline clip-path="url(#clip690)" style="stroke:#000000; stroke-linecap:round; stroke-linejoin:round; stroke-width:4; stroke-opacity:1; fill:none" points="185.288,894.608 1552.76,894.608 "/>
<polyline clip-path="url(#clip690)" style="stroke:#000000; stroke-linecap:round; stroke-linejoin:round; stroke-width:4; stroke-opacity:1; fill:none" points="361.371,894.608 361.371,875.71 "/>
<polyline clip-path="url(#clip690)" style="stroke:#000000; stroke-linecap:round; stroke-linejoin:round; stroke-width:4; stroke-opacity:1; fill:none" points="615.196,894.608 615.196,875.71 "/>
<polyline clip-path="url(#clip690)" style="stroke:#000000; stroke-linecap:round; stroke-linejoin:round; stroke-width:4; stroke-opacity:1; fill:none" points="869.022,894.608 869.022,875.71 "/>
<polyline clip-path="url(#clip690)" style="stroke:#000000; stroke-linecap:round; stroke-linejoin:round; stroke-width:4; stroke-opacity:1; fill:none" points="1122.85,894.608 1122.85,875.71 "/>
<polyline clip-path="url(#clip690)" style="stroke:#000000; stroke-linecap:round; stroke-linejoin:round; stroke-width:4; stroke-opacity:1; fill:none" points="1376.67,894.608 1376.67,875.71 "/>
<path clip-path="url(#clip690)" d="M321.417 949.89 L321.417 945.631 Q323.176 946.464 324.982 946.904 Q326.787 947.344 328.524 947.344 Q333.153 947.344 335.584 944.242 Q338.037 941.117 338.385 934.775 Q337.042 936.765 334.982 937.83 Q332.922 938.895 330.422 938.895 Q325.237 938.895 322.204 935.77 Q319.195 932.622 319.195 927.182 Q319.195 921.858 322.343 918.64 Q325.491 915.423 330.723 915.423 Q336.718 915.423 339.866 920.029 Q343.037 924.613 343.037 933.363 Q343.037 941.534 339.149 946.418 Q335.283 951.279 328.732 951.279 Q326.973 951.279 325.167 950.932 Q323.362 950.585 321.417 949.89 M330.723 935.238 Q333.871 935.238 335.699 933.085 Q337.551 930.932 337.551 927.182 Q337.551 923.455 335.699 921.302 Q333.871 919.127 330.723 919.127 Q327.574 919.127 325.723 921.302 Q323.894 923.455 323.894 927.182 Q323.894 930.932 325.723 933.085 Q327.574 935.238 330.723 935.238 Z" fill="#000000" fill-rule="nonzero" fill-opacity="1" /><path clip-path="url(#clip690)" d="M361.44 919.127 Q357.829 919.127 356 922.691 Q354.195 926.233 354.195 933.363 Q354.195 940.469 356 944.034 Q357.829 947.575 361.44 947.575 Q365.074 947.575 366.88 944.034 Q368.709 940.469 368.709 933.363 Q368.709 926.233 366.88 922.691 Q365.074 919.127 361.44 919.127 M361.44 915.423 Q367.25 915.423 370.306 920.029 Q373.384 924.613 373.384 933.363 Q373.384 942.089 370.306 946.696 Q367.25 951.279 361.44 951.279 Q355.63 951.279 352.551 946.696 Q349.496 942.089 349.496 933.363 Q349.496 924.613 352.551 920.029 Q355.63 915.423 361.44 915.423 Z" fill="#000000" fill-rule="nonzero" fill-opacity="1" /><path clip-path="url(#clip690)" d="M391.602 919.127 Q387.991 919.127 386.162 922.691 Q384.357 926.233 384.357 933.363 Q384.357 940.469 386.162 944.034 Q387.991 947.575 391.602 947.575 Q395.236 947.575 397.042 944.034 Q398.87 940.469 398.87 933.363 Q398.87 926.233 397.042 922.691 Q395.236 919.127 391.602 919.127 M391.602 915.423 Q397.412 915.423 400.468 920.029 Q403.546 924.613 403.546 933.363 Q403.546 942.089 400.468 946.696 Q397.412 951.279 391.602 951.279 Q385.792 951.279 382.713 946.696 Q379.658 942.089 379.658 933.363 Q379.658 924.613 382.713 920.029 Q385.792 915.423 391.602 915.423 Z" fill="#000000" fill-rule="nonzero" fill-opacity="1" /><path clip-path="url(#clip690)" d="M575.243 949.89 L575.243 945.631 Q577.002 946.464 578.808 946.904 Q580.613 947.344 582.349 947.344 Q586.979 947.344 589.409 944.242 Q591.863 941.117 592.21 934.775 Q590.868 936.765 588.807 937.83 Q586.747 938.895 584.247 938.895 Q579.062 938.895 576.03 935.77 Q573.021 932.622 573.021 927.182 Q573.021 921.858 576.169 918.64 Q579.317 915.423 584.548 915.423 Q590.544 915.423 593.692 920.029 Q596.863 924.613 596.863 933.363 Q596.863 941.534 592.974 946.418 Q589.108 951.279 582.558 951.279 Q580.798 951.279 578.993 950.932 Q577.187 950.585 575.243 949.89 M584.548 935.238 Q587.696 935.238 589.525 933.085 Q591.377 930.932 591.377 927.182 Q591.377 923.455 589.525 921.302 Q587.696 919.127 584.548 919.127 Q581.4 919.127 579.548 921.302 Q577.72 923.455 577.72 927.182 Q577.72 930.932 579.548 933.085 Q581.4 935.238 584.548 935.238 Z" fill="#000000" fill-rule="nonzero" fill-opacity="1" /><path clip-path="url(#clip690)" d="M605.312 916.048 L623.668 916.048 L623.668 919.983 L609.594 919.983 L609.594 928.455 Q610.613 928.108 611.631 927.946 Q612.65 927.761 613.668 927.761 Q619.455 927.761 622.835 930.932 Q626.215 934.103 626.215 939.52 Q626.215 945.099 622.742 948.2 Q619.27 951.279 612.951 951.279 Q610.775 951.279 608.506 950.909 Q606.261 950.538 603.854 949.798 L603.854 945.099 Q605.937 946.233 608.159 946.788 Q610.381 947.344 612.858 947.344 Q616.863 947.344 619.201 945.238 Q621.539 943.131 621.539 939.52 Q621.539 935.909 619.201 933.802 Q616.863 931.696 612.858 931.696 Q610.983 931.696 609.108 932.113 Q607.256 932.529 605.312 933.409 L605.312 916.048 Z" fill="#000000" fill-rule="nonzero" fill-opacity="1" /><path clip-path="url(#clip690)" d="M645.428 919.127 Q641.816 919.127 639.988 922.691 Q638.182 926.233 638.182 933.363 Q638.182 940.469 639.988 944.034 Q641.816 947.575 645.428 947.575 Q649.062 947.575 650.867 944.034 Q652.696 940.469 652.696 933.363 Q652.696 926.233 650.867 922.691 Q649.062 919.127 645.428 919.127 M645.428 915.423 Q651.238 915.423 654.293 920.029 Q657.372 924.613 657.372 933.363 Q657.372 942.089 654.293 946.696 Q651.238 951.279 645.428 951.279 Q639.617 951.279 636.539 946.696 Q633.483 942.089 633.483 933.363 Q633.483 924.613 636.539 920.029 Q639.617 915.423 645.428 915.423 Z" fill="#000000" fill-rule="nonzero" fill-opacity="1" /><path clip-path="url(#clip690)" d="M813.548 946.673 L821.186 946.673 L821.186 920.307 L812.876 921.974 L812.876 917.715 L821.14 916.048 L825.816 916.048 L825.816 946.673 L833.455 946.673 L833.455 950.608 L813.548 950.608 L813.548 946.673 Z" fill="#000000" fill-rule="nonzero" fill-opacity="1" /><path clip-path="url(#clip690)" d="M852.899 919.127 Q849.288 919.127 847.459 922.691 Q845.654 926.233 845.654 933.363 Q845.654 940.469 847.459 944.034 Q849.288 947.575 852.899 947.575 Q856.534 947.575 858.339 944.034 Q860.168 940.469 860.168 933.363 Q860.168 926.233 858.339 922.691 Q856.534 919.127 852.899 919.127 M852.899 915.423 Q858.709 915.423 861.765 920.029 Q864.844 924.613 864.844 933.363 Q864.844 942.089 861.765 946.696 Q858.709 951.279 852.899 951.279 Q847.089 951.279 844.01 946.696 Q840.955 942.089 840.955 933.363 Q840.955 924.613 844.01 920.029 Q847.089 915.423 852.899 915.423 Z" fill="#000000" fill-rule="nonzero" fill-opacity="1" /><path clip-path="url(#clip690)" d="M883.061 919.127 Q879.45 919.127 877.621 922.691 Q875.816 926.233 875.816 933.363 Q875.816 940.469 877.621 944.034 Q879.45 947.575 883.061 947.575 Q886.695 947.575 888.501 944.034 Q890.33 940.469 890.33 933.363 Q890.33 926.233 888.501 922.691 Q886.695 919.127 883.061 919.127 M883.061 915.423 Q888.871 915.423 891.927 920.029 Q895.006 924.613 895.006 933.363 Q895.006 942.089 891.927 946.696 Q888.871 951.279 883.061 951.279 Q877.251 951.279 874.172 946.696 Q871.117 942.089 871.117 933.363 Q871.117 924.613 874.172 920.029 Q877.251 915.423 883.061 915.423 Z" fill="#000000" fill-rule="nonzero" fill-opacity="1" /><path clip-path="url(#clip690)" d="M913.223 919.127 Q909.612 919.127 907.783 922.691 Q905.978 926.233 905.978 933.363 Q905.978 940.469 907.783 944.034 Q909.612 947.575 913.223 947.575 Q916.857 947.575 918.663 944.034 Q920.492 940.469 920.492 933.363 Q920.492 926.233 918.663 922.691 Q916.857 919.127 913.223 919.127 M913.223 915.423 Q919.033 915.423 922.089 920.029 Q925.167 924.613 925.167 933.363 Q925.167 942.089 922.089 946.696 Q919.033 951.279 913.223 951.279 Q907.413 951.279 904.334 946.696 Q901.279 942.089 901.279 933.363 Q901.279 924.613 904.334 920.029 Q907.413 915.423 913.223 915.423 Z" fill="#000000" fill-rule="nonzero" fill-opacity="1" /><path clip-path="url(#clip690)" d="M1067.37 946.673 L1075.01 946.673 L1075.01 920.307 L1066.7 921.974 L1066.7 917.715 L1074.97 916.048 L1079.64 916.048 L1079.64 946.673 L1087.28 946.673 L1087.28 950.608 L1067.37 950.608 L1067.37 946.673 Z" fill="#000000" fill-rule="nonzero" fill-opacity="1" /><path clip-path="url(#clip690)" d="M1106.72 919.127 Q1103.11 919.127 1101.29 922.691 Q1099.48 926.233 1099.48 933.363 Q1099.48 940.469 1101.29 944.034 Q1103.11 947.575 1106.72 947.575 Q1110.36 947.575 1112.16 944.034 Q1113.99 940.469 1113.99 933.363 Q1113.99 926.233 1112.16 922.691 Q1110.36 919.127 1106.72 919.127 M1106.72 915.423 Q1112.54 915.423 1115.59 920.029 Q1118.67 924.613 1118.67 933.363 Q1118.67 942.089 1115.59 946.696 Q1112.54 951.279 1106.72 951.279 Q1100.91 951.279 1097.84 946.696 Q1094.78 942.089 1094.78 933.363 Q1094.78 924.613 1097.84 920.029 Q1100.91 915.423 1106.72 915.423 Z" fill="#000000" fill-rule="nonzero" fill-opacity="1" /><path clip-path="url(#clip690)" d="M1126.93 916.048 L1145.29 916.048 L1145.29 919.983 L1131.22 919.983 L1131.22 928.455 Q1132.23 928.108 1133.25 927.946 Q1134.27 927.761 1135.29 927.761 Q1141.08 927.761 1144.46 930.932 Q1147.84 934.103 1147.84 939.52 Q1147.84 945.099 1144.36 948.2 Q1140.89 951.279 1134.57 951.279 Q1132.4 951.279 1130.13 950.909 Q1127.88 950.538 1125.47 949.798 L1125.47 945.099 Q1127.56 946.233 1129.78 946.788 Q1132 947.344 1134.48 947.344 Q1138.48 947.344 1140.82 945.238 Q1143.16 943.131 1143.16 939.52 Q1143.16 935.909 1140.82 933.802 Q1138.48 931.696 1134.48 931.696 Q1132.6 931.696 1130.73 932.113 Q1128.88 932.529 1126.93 933.409 L1126.93 916.048 Z" fill="#000000" fill-rule="nonzero" fill-opacity="1" /><path clip-path="url(#clip690)" d="M1167.05 919.127 Q1163.44 919.127 1161.61 922.691 Q1159.8 926.233 1159.8 933.363 Q1159.8 940.469 1161.61 944.034 Q1163.44 947.575 1167.05 947.575 Q1170.68 947.575 1172.49 944.034 Q1174.32 940.469 1174.32 933.363 Q1174.32 926.233 1172.49 922.691 Q1170.68 919.127 1167.05 919.127 M1167.05 915.423 Q1172.86 915.423 1175.91 920.029 Q1178.99 924.613 1178.99 933.363 Q1178.99 942.089 1175.91 946.696 Q1172.86 951.279 1167.05 951.279 Q1161.24 951.279 1158.16 946.696 Q1155.1 942.089 1155.1 933.363 Q1155.1 924.613 1158.16 920.029 Q1161.24 915.423 1167.05 915.423 Z" fill="#000000" fill-rule="nonzero" fill-opacity="1" /><path clip-path="url(#clip690)" d="M1321.2 946.673 L1328.84 946.673 L1328.84 920.307 L1320.53 921.974 L1320.53 917.715 L1328.79 916.048 L1333.47 916.048 L1333.47 946.673 L1341.11 946.673 L1341.11 950.608 L1321.2 950.608 L1321.2 946.673 Z" fill="#000000" fill-rule="nonzero" fill-opacity="1" /><path clip-path="url(#clip690)" d="M1351.36 946.673 L1359 946.673 L1359 920.307 L1350.69 921.974 L1350.69 917.715 L1358.95 916.048 L1363.63 916.048 L1363.63 946.673 L1371.27 946.673 L1371.27 950.608 L1351.36 950.608 L1351.36 946.673 Z" fill="#000000" fill-rule="nonzero" fill-opacity="1" /><path clip-path="url(#clip690)" d="M1390.71 919.127 Q1387.1 919.127 1385.27 922.691 Q1383.47 926.233 1383.47 933.363 Q1383.47 940.469 1385.27 944.034 Q1387.1 947.575 1390.71 947.575 Q1394.35 947.575 1396.15 944.034 Q1397.98 940.469 1397.98 933.363 Q1397.98 926.233 1396.15 922.691 Q1394.35 919.127 1390.71 919.127 M1390.71 915.423 Q1396.52 915.423 1399.58 920.029 Q1402.66 924.613 1402.66 933.363 Q1402.66 942.089 1399.58 946.696 Q1396.52 951.279 1390.71 951.279 Q1384.9 951.279 1381.82 946.696 Q1378.77 942.089 1378.77 933.363 Q1378.77 924.613 1381.82 920.029 Q1384.9 915.423 1390.71 915.423 Z" fill="#000000" fill-rule="nonzero" fill-opacity="1" /><path clip-path="url(#clip690)" d="M1420.87 919.127 Q1417.26 919.127 1415.43 922.691 Q1413.63 926.233 1413.63 933.363 Q1413.63 940.469 1415.43 944.034 Q1417.26 947.575 1420.87 947.575 Q1424.51 947.575 1426.31 944.034 Q1428.14 940.469 1428.14 933.363 Q1428.14 926.233 1426.31 922.691 Q1424.51 919.127 1420.87 919.127 M1420.87 915.423 Q1426.68 915.423 1429.74 920.029 Q1432.82 924.613 1432.82 933.363 Q1432.82 942.089 1429.74 946.696 Q1426.68 951.279 1420.87 951.279 Q1415.06 951.279 1411.99 946.696 Q1408.93 942.089 1408.93 933.363 Q1408.93 924.613 1411.99 920.029 Q1415.06 915.423 1420.87 915.423 Z" fill="#000000" fill-rule="nonzero" fill-opacity="1" /><polyline clip-path="url(#clip690)" style="stroke:#000000; stroke-linecap:round; stroke-linejoin:round; stroke-width:4; stroke-opacity:1; fill:none" points="185.288,894.608 185.288,47.2441 "/>
<polyline clip-path="url(#clip690)" style="stroke:#000000; stroke-linecap:round; stroke-linejoin:round; stroke-width:4; stroke-opacity:1; fill:none" points="185.288,765.79 204.185,765.79 "/>
<polyline clip-path="url(#clip690)" style="stroke:#000000; stroke-linecap:round; stroke-linejoin:round; stroke-width:4; stroke-opacity:1; fill:none" points="185.288,605.486 204.185,605.486 "/>
<polyline clip-path="url(#clip690)" style="stroke:#000000; stroke-linecap:round; stroke-linejoin:round; stroke-width:4; stroke-opacity:1; fill:none" points="185.288,445.182 204.185,445.182 "/>
<polyline clip-path="url(#clip690)" style="stroke:#000000; stroke-linecap:round; stroke-linejoin:round; stroke-width:4; stroke-opacity:1; fill:none" points="185.288,284.878 204.185,284.878 "/>
<polyline clip-path="url(#clip690)" style="stroke:#000000; stroke-linecap:round; stroke-linejoin:round; stroke-width:4; stroke-opacity:1; fill:none" points="185.288,124.574 204.185,124.574 "/>
<path clip-path="url(#clip690)" d="M54.9921 766.241 L84.6679 766.241 L84.6679 770.176 L54.9921 770.176 L54.9921 766.241 Z" fill="#000000" fill-rule="nonzero" fill-opacity="1" /><path clip-path="url(#clip690)" d="M104.76 751.588 Q101.149 751.588 99.3206 755.153 Q97.515 758.695 97.515 765.824 Q97.515 772.931 99.3206 776.496 Q101.149 780.037 104.76 780.037 Q108.395 780.037 110.2 776.496 Q112.029 772.931 112.029 765.824 Q112.029 758.695 110.2 755.153 Q108.395 751.588 104.76 751.588 M104.76 747.885 Q110.571 747.885 113.626 752.491 Q116.705 757.074 116.705 765.824 Q116.705 774.551 113.626 779.158 Q110.571 783.741 104.76 783.741 Q98.9502 783.741 95.8715 779.158 Q92.816 774.551 92.816 765.824 Q92.816 757.074 95.8715 752.491 Q98.9502 747.885 104.76 747.885 Z" fill="#000000" fill-rule="nonzero" fill-opacity="1" /><path clip-path="url(#clip690)" d="M124.922 777.19 L129.807 777.19 L129.807 783.07 L124.922 783.07 L124.922 777.19 Z" fill="#000000" fill-rule="nonzero" fill-opacity="1" /><path clip-path="url(#clip690)" d="M154.158 764.435 Q157.515 765.153 159.39 767.422 Q161.288 769.69 161.288 773.023 Q161.288 778.139 157.769 780.94 Q154.251 783.741 147.769 783.741 Q145.593 783.741 143.279 783.301 Q140.987 782.884 138.533 782.028 L138.533 777.514 Q140.478 778.648 142.793 779.227 Q145.107 779.806 147.631 779.806 Q152.029 779.806 154.32 778.07 Q156.635 776.334 156.635 773.023 Q156.635 769.968 154.482 768.255 Q152.353 766.519 148.533 766.519 L144.506 766.519 L144.506 762.676 L148.718 762.676 Q152.168 762.676 153.996 761.311 Q155.825 759.922 155.825 757.329 Q155.825 754.667 153.927 753.255 Q152.052 751.82 148.533 751.82 Q146.612 751.82 144.413 752.236 Q142.214 752.653 139.575 753.533 L139.575 749.366 Q142.237 748.625 144.552 748.255 Q146.89 747.885 148.95 747.885 Q154.274 747.885 157.376 750.315 Q160.478 752.723 160.478 756.843 Q160.478 759.713 158.834 761.704 Q157.191 763.672 154.158 764.435 Z" fill="#000000" fill-rule="nonzero" fill-opacity="1" /><path clip-path="url(#clip690)" d="M104.112 591.284 Q100.501 591.284 98.6724 594.849 Q96.8669 598.391 96.8669 605.521 Q96.8669 612.627 98.6724 616.192 Q100.501 619.733 104.112 619.733 Q107.746 619.733 109.552 616.192 Q111.381 612.627 111.381 605.521 Q111.381 598.391 109.552 594.849 Q107.746 591.284 104.112 591.284 M104.112 587.581 Q109.922 587.581 112.978 592.187 Q116.057 596.771 116.057 605.521 Q116.057 614.247 112.978 618.854 Q109.922 623.437 104.112 623.437 Q98.3021 623.437 95.2234 618.854 Q92.1679 614.247 92.1679 605.521 Q92.1679 596.771 95.2234 592.187 Q98.3021 587.581 104.112 587.581 Z" fill="#000000" fill-rule="nonzero" fill-opacity="1" /><path clip-path="url(#clip690)" d="M124.274 616.886 L129.158 616.886 L129.158 622.766 L124.274 622.766 L124.274 616.886 Z" fill="#000000" fill-rule="nonzero" fill-opacity="1" /><path clip-path="url(#clip690)" d="M149.343 591.284 Q145.732 591.284 143.904 594.849 Q142.098 598.391 142.098 605.521 Q142.098 612.627 143.904 616.192 Q145.732 619.733 149.343 619.733 Q152.978 619.733 154.783 616.192 Q156.612 612.627 156.612 605.521 Q156.612 598.391 154.783 594.849 Q152.978 591.284 149.343 591.284 M149.343 587.581 Q155.154 587.581 158.209 592.187 Q161.288 596.771 161.288 605.521 Q161.288 614.247 158.209 618.854 Q155.154 623.437 149.343 623.437 Q143.533 623.437 140.455 618.854 Q137.399 614.247 137.399 605.521 Q137.399 596.771 140.455 592.187 Q143.533 587.581 149.343 587.581 Z" fill="#000000" fill-rule="nonzero" fill-opacity="1" /><path clip-path="url(#clip690)" d="M104.76 430.981 Q101.149 430.981 99.3206 434.545 Q97.515 438.087 97.515 445.217 Q97.515 452.323 99.3206 455.888 Q101.149 459.43 104.76 459.43 Q108.395 459.43 110.2 455.888 Q112.029 452.323 112.029 445.217 Q112.029 438.087 110.2 434.545 Q108.395 430.981 104.76 430.981 M104.76 427.277 Q110.571 427.277 113.626 431.883 Q116.705 436.467 116.705 445.217 Q116.705 453.943 113.626 458.55 Q110.571 463.133 104.76 463.133 Q98.9502 463.133 95.8715 458.55 Q92.816 453.943 92.816 445.217 Q92.816 436.467 95.8715 431.883 Q98.9502 427.277 104.76 427.277 Z" fill="#000000" fill-rule="nonzero" fill-opacity="1" /><path clip-path="url(#clip690)" d="M124.922 456.582 L129.807 456.582 L129.807 462.462 L124.922 462.462 L124.922 456.582 Z" fill="#000000" fill-rule="nonzero" fill-opacity="1" /><path clip-path="url(#clip690)" d="M154.158 443.828 Q157.515 444.545 159.39 446.814 Q161.288 449.082 161.288 452.416 Q161.288 457.531 157.769 460.332 Q154.251 463.133 147.769 463.133 Q145.593 463.133 143.279 462.693 Q140.987 462.277 138.533 461.42 L138.533 456.906 Q140.478 458.041 142.793 458.619 Q145.107 459.198 147.631 459.198 Q152.029 459.198 154.32 457.462 Q156.635 455.726 156.635 452.416 Q156.635 449.36 154.482 447.647 Q152.353 445.911 148.533 445.911 L144.506 445.911 L144.506 442.069 L148.718 442.069 Q152.168 442.069 153.996 440.703 Q155.825 439.314 155.825 436.721 Q155.825 434.059 153.927 432.647 Q152.052 431.212 148.533 431.212 Q146.612 431.212 144.413 431.629 Q142.214 432.045 139.575 432.925 L139.575 428.758 Q142.237 428.018 144.552 427.647 Q146.89 427.277 148.95 427.277 Q154.274 427.277 157.376 429.708 Q160.478 432.115 160.478 436.235 Q160.478 439.106 158.834 441.096 Q157.191 443.064 154.158 443.828 Z" fill="#000000" fill-rule="nonzero" fill-opacity="1" /><path clip-path="url(#clip690)" d="M103.95 270.677 Q100.339 270.677 98.5104 274.242 Q96.7049 277.783 96.7049 284.913 Q96.7049 292.019 98.5104 295.584 Q100.339 299.126 103.95 299.126 Q107.584 299.126 109.39 295.584 Q111.219 292.019 111.219 284.913 Q111.219 277.783 109.39 274.242 Q107.584 270.677 103.95 270.677 M103.95 266.973 Q109.76 266.973 112.816 271.58 Q115.895 276.163 115.895 284.913 Q115.895 293.64 112.816 298.246 Q109.76 302.829 103.95 302.829 Q98.14 302.829 95.0614 298.246 Q92.0058 293.64 92.0058 284.913 Q92.0058 276.163 95.0614 271.58 Q98.14 266.973 103.95 266.973 Z" fill="#000000" fill-rule="nonzero" fill-opacity="1" /><path clip-path="url(#clip690)" d="M124.112 296.279 L128.996 296.279 L128.996 302.158 L124.112 302.158 L124.112 296.279 Z" fill="#000000" fill-rule="nonzero" fill-opacity="1" /><path clip-path="url(#clip690)" d="M149.76 283.015 Q146.612 283.015 144.76 285.167 Q142.931 287.32 142.931 291.07 Q142.931 294.797 144.76 296.973 Q146.612 299.126 149.76 299.126 Q152.908 299.126 154.737 296.973 Q156.589 294.797 156.589 291.07 Q156.589 287.32 154.737 285.167 Q152.908 283.015 149.76 283.015 M159.042 268.362 L159.042 272.621 Q157.283 271.788 155.478 271.348 Q153.695 270.908 151.936 270.908 Q147.306 270.908 144.853 274.033 Q142.422 277.158 142.075 283.478 Q143.441 281.464 145.501 280.399 Q147.561 279.311 150.038 279.311 Q155.246 279.311 158.255 282.482 Q161.288 285.63 161.288 291.07 Q161.288 296.394 158.14 299.612 Q154.992 302.829 149.76 302.829 Q143.765 302.829 140.594 298.246 Q137.422 293.64 137.422 284.913 Q137.422 276.718 141.311 271.857 Q145.2 266.973 151.751 266.973 Q153.51 266.973 155.293 267.32 Q157.098 267.668 159.042 268.362 Z" fill="#000000" fill-rule="nonzero" fill-opacity="1" /><path clip-path="url(#clip690)" d="M104.297 110.373 Q100.686 110.373 98.8576 113.938 Q97.0521 117.479 97.0521 124.609 Q97.0521 131.715 98.8576 135.28 Q100.686 138.822 104.297 138.822 Q107.932 138.822 109.737 135.28 Q111.566 131.715 111.566 124.609 Q111.566 117.479 109.737 113.938 Q107.932 110.373 104.297 110.373 M104.297 106.669 Q110.108 106.669 113.163 111.276 Q116.242 115.859 116.242 124.609 Q116.242 133.336 113.163 137.942 Q110.108 142.526 104.297 142.526 Q98.4873 142.526 95.4086 137.942 Q92.353 133.336 92.353 124.609 Q92.353 115.859 95.4086 111.276 Q98.4873 106.669 104.297 106.669 Z" fill="#000000" fill-rule="nonzero" fill-opacity="1" /><path clip-path="url(#clip690)" d="M124.459 135.975 L129.344 135.975 L129.344 141.854 L124.459 141.854 L124.459 135.975 Z" fill="#000000" fill-rule="nonzero" fill-opacity="1" /><path clip-path="url(#clip690)" d="M139.668 141.137 L139.668 136.877 Q141.427 137.711 143.232 138.151 Q145.038 138.59 146.774 138.59 Q151.404 138.59 153.834 135.489 Q156.288 132.364 156.635 126.021 Q155.293 128.012 153.232 129.077 Q151.172 130.141 148.672 130.141 Q143.487 130.141 140.455 127.016 Q137.445 123.868 137.445 118.428 Q137.445 113.104 140.594 109.887 Q143.742 106.669 148.973 106.669 Q154.968 106.669 158.117 111.276 Q161.288 115.859 161.288 124.609 Q161.288 132.78 157.399 137.664 Q153.533 142.526 146.982 142.526 Q145.223 142.526 143.418 142.178 Q141.612 141.831 139.668 141.137 M148.973 126.484 Q152.121 126.484 153.95 124.331 Q155.802 122.178 155.802 118.428 Q155.802 114.702 153.95 112.549 Q152.121 110.373 148.973 110.373 Q145.825 110.373 143.973 112.549 Q142.144 114.702 142.144 118.428 Q142.144 122.178 143.973 124.331 Q145.825 126.484 148.973 126.484 Z" fill="#000000" fill-rule="nonzero" fill-opacity="1" /><polyline clip-path="url(#clip691)" style="stroke:#1f77b4; stroke-linecap:round; stroke-linejoin:round; stroke-width:4; stroke-opacity:1; fill:none" points="223.99,602.196 225.281,602.183 226.572,602.17 227.864,602.157 229.155,602.143 230.447,602.13 231.738,602.117 233.029,602.103 234.321,602.089 235.612,602.075 236.903,602.062 238.195,602.048 239.486,602.034 240.777,602.019 242.069,602.005 243.36,601.991 244.651,601.977 245.943,601.962 247.234,601.948 248.526,601.933 249.817,601.918 251.108,601.903 252.4,601.888 253.691,601.873 254.982,601.858 256.274,601.843 257.565,601.828 258.856,601.812 260.148,601.797 261.439,601.781 262.73,601.766 264.022,601.75 265.313,601.734 266.605,601.718 267.896,601.702 269.187,601.686 270.479,601.669 271.77,601.653 273.061,601.637 274.353,601.62 275.644,601.603 276.935,601.586 278.227,601.569 279.518,601.552 280.809,601.535 282.101,601.518 283.392,601.501 284.683,601.483 285.975,601.465 287.266,601.448 288.558,601.43 289.849,601.412 291.14,601.394 292.432,601.376 293.723,601.357 295.014,601.339 296.306,601.32 297.597,601.302 298.888,601.283 300.18,601.264 301.471,601.245 302.762,601.225 304.054,601.206 305.345,601.187 306.637,601.167 307.928,601.147 309.219,601.127 310.511,601.107 311.802,601.087 313.093,601.067 314.385,601.047 315.676,601.026 316.967,601.005 318.259,600.984 319.55,600.963 320.841,600.942 322.133,600.921 323.424,600.899 324.716,600.878 326.007,600.856 327.298,600.834 328.59,600.812 329.881,600.79 331.172,600.768 332.464,600.745 333.755,600.722 335.046,600.699 336.338,600.676 337.629,600.653 338.92,600.63 340.212,600.606 341.503,600.583 342.794,600.559 344.086,600.535 345.377,600.511 346.669,600.486 347.96,600.462 349.251,600.437 350.543,600.412 351.834,600.387 353.125,600.361 354.417,600.336 355.708,600.31 356.999,600.284 358.291,600.258 359.582,600.232 360.873,600.206 362.165,600.179 363.456,600.152 364.748,600.125 366.039,600.098 367.33,600.07 368.622,600.042 369.913,600.014 371.204,599.986 372.496,599.958 373.787,599.929 375.078,599.901 376.37,599.872 377.661,599.842 378.952,599.813 380.244,599.783 381.535,599.753 382.827,599.723 384.118,599.693 385.409,599.662 386.701,599.631 387.992,599.6 389.283,599.569 390.575,599.537 391.866,599.505 393.157,599.473 394.449,599.441 395.74,599.408 397.031,599.375 398.323,599.342 399.614,599.308 400.905,599.275 402.197,599.241 403.488,599.206 404.78,599.172 406.071,599.137 407.362,599.102 408.654,599.066 409.945,599.031 411.236,598.995 412.528,598.958 413.819,598.922 415.11,598.885 416.402,598.848 417.693,598.81 418.984,598.772 420.276,598.734 421.567,598.695 422.859,598.656 424.15,598.617 425.441,598.578 426.733,598.538 428.024,598.498 429.315,598.457 430.607,598.416 431.898,598.375 433.189,598.333 434.481,598.291 435.772,598.249 437.063,598.206 438.355,598.163 439.646,598.12 440.938,598.076 442.229,598.031 443.52,597.987 444.812,597.942 446.103,597.896 447.394,597.85 448.686,597.804 449.977,597.757 451.268,597.71 452.56,597.662 453.851,597.614 455.142,597.566 456.434,597.517 457.725,597.468 459.016,597.418 460.308,597.368 461.599,597.317 462.891,597.266 464.182,597.214 465.473,597.162 466.765,597.109 468.056,597.056 469.347,597.002 470.639,596.948 471.93,596.893 473.221,596.838 474.513,596.782 475.804,596.726 477.095,596.669 478.387,596.611 479.678,596.553 480.97,596.495 482.261,596.436 483.552,596.376 484.844,596.316 486.135,596.255 487.426,596.193 488.718,596.131 490.009,596.069 491.3,596.005 492.592,595.941 493.883,595.877 495.174,595.811 496.466,595.745 497.757,595.679 499.049,595.611 500.34,595.543 501.631,595.475 502.923,595.405 504.214,595.335 505.505,595.264 506.797,595.193 508.088,595.12 509.379,595.047 510.671,594.973 511.962,594.899 513.253,594.823 514.545,594.747 515.836,594.67 517.127,594.592 518.419,594.513 519.71,594.434 521.002,594.353 522.293,594.272 523.584,594.19 524.876,594.106 526.167,594.022 527.458,593.937 528.75,593.852 530.041,593.765 531.332,593.677 532.624,593.588 533.915,593.498 535.206,593.407 536.498,593.316 537.789,593.223 539.081,593.129 540.372,593.034 541.663,592.937 542.955,592.84 544.246,592.742 545.537,592.642 546.829,592.542 548.12,592.44 549.411,592.337 550.703,592.233 551.994,592.127 553.285,592.02 554.577,591.912 555.868,591.803 557.16,591.692 558.451,591.581 559.742,591.467 561.034,591.353 562.325,591.236 563.616,591.119 564.908,591 566.199,590.88 567.49,590.758 568.782,590.634 570.073,590.509 571.364,590.383 572.656,590.254 573.947,590.125 575.238,589.993 576.53,589.86 577.821,589.725 579.113,589.589 580.404,589.451 581.695,589.311 582.987,589.169 584.278,589.025 585.569,588.879 586.861,588.732 588.152,588.582 589.443,588.431 590.735,588.277 592.026,588.121 593.317,587.964 594.609,587.804 595.9,587.642 597.192,587.478 598.483,587.311 599.774,587.142 601.066,586.971 602.357,586.798 603.648,586.622 604.94,586.444 606.231,586.263 607.522,586.079 608.814,585.893 610.105,585.705 611.396,585.513 612.688,585.319 613.979,585.122 615.271,584.922 616.562,584.72 617.853,584.514 619.145,584.305 620.436,584.094 621.727,583.879 623.019,583.66 624.31,583.439 625.601,583.214 626.893,582.986 628.184,582.754 629.475,582.519 630.767,582.281 632.058,582.038 633.349,581.792 634.641,581.542 635.932,581.288 637.224,581.03 638.515,580.768 639.806,580.501 641.098,580.231 642.389,579.956 643.68,579.677 644.972,579.393 646.263,579.105 647.554,578.811 648.846,578.513 650.137,578.211 651.428,577.903 652.72,577.59 654.011,577.271 655.303,576.947 656.594,576.618 657.885,576.283 659.177,575.943 660.468,575.596 661.759,575.244 663.051,574.885 664.342,574.52 665.633,574.149 666.925,573.771 668.216,573.387 669.507,572.995 670.799,572.596 672.09,572.191 673.382,571.777 674.673,571.357 675.964,570.928 677.256,570.492 678.547,570.047 679.838,569.594 681.13,569.133 682.421,568.663 683.712,568.184 685.004,567.696 686.295,567.198 687.586,566.691 688.878,566.174 690.169,565.646 691.46,565.109 692.752,564.561 694.043,564.001 695.335,563.431 696.626,562.849 697.917,562.255 699.209,561.649 700.5,561.031 701.791,560.4 703.083,559.756 704.374,559.098 705.665,558.427 706.957,557.741 708.248,557.041 709.539,556.326 710.831,555.595 712.122,554.848 713.414,554.086 714.705,553.306 715.996,552.51 717.288,551.695 718.579,550.863 719.87,550.011 721.162,549.141 722.453,548.25 723.744,547.339 725.036,546.408 726.327,545.454 727.618,544.478 728.91,543.48 730.201,542.457 731.493,541.411 732.784,540.339 734.075,539.242 735.367,538.118 736.658,536.966 737.949,535.786 739.241,534.577 740.532,533.338 741.823,532.068 743.115,530.766 744.406,529.431 745.697,528.062 746.989,526.658 748.28,525.217 749.571,523.739 750.863,522.223 752.154,520.666 753.446,519.068 754.737,517.428 756.028,515.744 757.32,514.014 758.611,512.237 759.902,510.412 761.194,508.537 762.485,506.61 763.776,504.63 765.068,502.594 766.359,500.501 767.65,498.349 768.942,496.135 770.233,493.859 771.525,491.517 772.816,489.108 774.107,486.629 775.399,484.078 776.69,481.452 777.981,478.748 779.273,475.965 780.564,473.1 781.855,470.149 783.147,467.11 784.438,463.98 785.729,460.756 787.021,457.435 788.312,454.013 789.604,450.488 790.895,446.855 792.186,443.112 793.478,439.255 794.769,435.281 796.06,431.185 797.352,426.965 798.643,422.616 799.934,418.135 801.226,413.518 802.517,408.762 803.808,403.863 805.1,398.817 806.391,393.621 807.682,388.27 808.974,382.763 810.265,377.096 811.557,371.266 812.848,365.27 814.139,359.107 815.431,352.773 816.722,346.268 818.013,339.591 819.305,332.741 820.596,325.718 821.887,318.523 823.179,311.159 824.47,303.628 825.761,295.933 827.053,288.081 828.344,280.076 829.636,271.926 830.927,263.641 832.218,255.231 833.51,246.709 834.801,238.09 836.092,229.389 837.384,220.624 838.675,211.818 839.966,202.991 841.258,194.17 842.549,185.382 843.84,176.655 845.132,168.022 846.423,159.517 847.715,151.175 849.006,143.033 850.297,135.131 851.589,127.508 852.88,120.205 854.171,113.263 855.463,106.722 856.754,100.623 858.045,95.0055 859.337,89.906 860.628,85.3595 861.919,81.3983 863.211,78.0509 864.502,75.342 865.793,73.292 867.085,71.9165 868.376,71.2261 869.668,71.2261 870.959,71.9165 872.25,73.292 873.542,75.342 874.833,78.0509 876.124,81.3983 877.416,85.3595 878.707,89.906 879.998,95.0055 881.29,100.623 882.581,106.722 883.872,113.263 885.164,120.205 886.455,127.508 887.747,135.131 889.038,143.033 890.329,151.175 891.621,159.517 892.912,168.022 894.203,176.655 895.495,185.382 896.786,194.17 898.077,202.991 899.369,211.818 900.66,220.624 901.951,229.389 903.243,238.09 904.534,246.709 905.826,255.231 907.117,263.641 908.408,271.926 909.7,280.076 910.991,288.081 912.282,295.933 913.574,303.628 914.865,311.159 916.156,318.523 917.448,325.718 918.739,332.741 920.03,339.591 921.322,346.268 922.613,352.773 923.904,359.107 925.196,365.27 926.487,371.266 927.779,377.096 929.07,382.763 930.361,388.27 931.653,393.621 932.944,398.817 934.235,403.863 935.527,408.762 936.818,413.518 938.109,418.135 939.401,422.616 940.692,426.965 941.983,431.185 943.275,435.281 944.566,439.255 945.858,443.112 947.149,446.855 948.44,450.488 949.732,454.013 951.023,457.435 952.314,460.756 953.606,463.98 954.897,467.11 956.188,470.149 957.48,473.1 958.771,475.965 960.062,478.748 961.354,481.452 962.645,484.078 963.937,486.629 965.228,489.108 966.519,491.517 967.811,493.859 969.102,496.135 970.393,498.349 971.685,500.501 972.976,502.594 974.267,504.63 975.559,506.61 976.85,508.537 978.141,510.412 979.433,512.237 980.724,514.014 982.015,515.744 983.307,517.428 984.598,519.068 985.89,520.666 987.181,522.223 988.472,523.739 989.764,525.217 991.055,526.658 992.346,528.062 993.638,529.431 994.929,530.766 996.22,532.068 997.512,533.338 998.803,534.577 1000.09,535.786 1001.39,536.966 1002.68,538.118 1003.97,539.242 1005.26,540.339 1006.55,541.411 1007.84,542.457 1009.13,543.48 1010.43,544.478 1011.72,545.454 1013.01,546.408 1014.3,547.339 1015.59,548.25 1016.88,549.141 1018.17,550.011 1019.46,550.863 1020.76,551.695 1022.05,552.51 1023.34,553.306 1024.63,554.086 1025.92,554.848 1027.21,555.595 1028.5,556.326 1029.8,557.041 1031.09,557.741 1032.38,558.427 1033.67,559.098 1034.96,559.756 1036.25,560.4 1037.54,561.031 1038.84,561.649 1040.13,562.255 1041.42,562.849 1042.71,563.431 1044,564.001 1045.29,564.561 1046.58,565.109 1047.87,565.646 1049.17,566.174 1050.46,566.691 1051.75,567.198 1053.04,567.696 1054.33,568.184 1055.62,568.663 1056.91,569.133 1058.21,569.594 1059.5,570.047 1060.79,570.492 1062.08,570.928 1063.37,571.357 1064.66,571.777 1065.95,572.191 1067.24,572.596 1068.54,572.995 1069.83,573.387 1071.12,573.771 1072.41,574.149 1073.7,574.52 1074.99,574.885 1076.28,575.244 1077.58,575.596 1078.87,575.943 1080.16,576.283 1081.45,576.618 1082.74,576.947 1084.03,577.271 1085.32,577.59 1086.62,577.903 1087.91,578.211 1089.2,578.513 1090.49,578.811 1091.78,579.105 1093.07,579.393 1094.36,579.677 1095.65,579.956 1096.95,580.231 1098.24,580.501 1099.53,580.768 1100.82,581.03 1102.11,581.288 1103.4,581.542 1104.69,581.792 1105.99,582.038 1107.28,582.281 1108.57,582.519 1109.86,582.754 1111.15,582.986 1112.44,583.214 1113.73,583.439 1115.03,583.66 1116.32,583.879 1117.61,584.094 1118.9,584.305 1120.19,584.514 1121.48,584.72 1122.77,584.922 1124.06,585.122 1125.36,585.319 1126.65,585.513 1127.94,585.705 1129.23,585.893 1130.52,586.079 1131.81,586.263 1133.1,586.444 1134.4,586.622 1135.69,586.798 1136.98,586.971 1138.27,587.142 1139.56,587.311 1140.85,587.478 1142.14,587.642 1143.43,587.804 1144.73,587.964 1146.02,588.121 1147.31,588.277 1148.6,588.431 1149.89,588.582 1151.18,588.732 1152.47,588.879 1153.77,589.025 1155.06,589.169 1156.35,589.311 1157.64,589.451 1158.93,589.589 1160.22,589.725 1161.51,589.86 1162.81,589.993 1164.1,590.125 1165.39,590.254 1166.68,590.383 1167.97,590.509 1169.26,590.634 1170.55,590.758 1171.84,590.88 1173.14,591 1174.43,591.119 1175.72,591.236 1177.01,591.353 1178.3,591.467 1179.59,591.581 1180.88,591.692 1182.18,591.803 1183.47,591.912 1184.76,592.02 1186.05,592.127 1187.34,592.233 1188.63,592.337 1189.92,592.44 1191.22,592.542 1192.51,592.642 1193.8,592.742 1195.09,592.84 1196.38,592.937 1197.67,593.034 1198.96,593.129 1200.25,593.223 1201.55,593.316 1202.84,593.407 1204.13,593.498 1205.42,593.588 1206.71,593.677 1208,593.765 1209.29,593.852 1210.59,593.937 1211.88,594.022 1213.17,594.106 1214.46,594.19 1215.75,594.272 1217.04,594.353 1218.33,594.434 1219.62,594.513 1220.92,594.592 1222.21,594.67 1223.5,594.747 1224.79,594.823 1226.08,594.899 1227.37,594.973 1228.66,595.047 1229.96,595.12 1231.25,595.193 1232.54,595.264 1233.83,595.335 1235.12,595.405 1236.41,595.475 1237.7,595.543 1239,595.611 1240.29,595.679 1241.58,595.745 1242.87,595.811 1244.16,595.877 1245.45,595.941 1246.74,596.005 1248.03,596.069 1249.33,596.131 1250.62,596.193 1251.91,596.255 1253.2,596.316 1254.49,596.376 1255.78,596.436 1257.07,596.495 1258.37,596.553 1259.66,596.611 1260.95,596.669 1262.24,596.726 1263.53,596.782 1264.82,596.838 1266.11,596.893 1267.41,596.948 1268.7,597.002 1269.99,597.056 1271.28,597.109 1272.57,597.162 1273.86,597.214 1275.15,597.266 1276.44,597.317 1277.74,597.368 1279.03,597.418 1280.32,597.468 1281.61,597.517 1282.9,597.566 1284.19,597.614 1285.48,597.662 1286.78,597.71 1288.07,597.757 1289.36,597.804 1290.65,597.85 1291.94,597.896 1293.23,597.942 1294.52,597.987 1295.81,598.031 1297.11,598.076 1298.4,598.12 1299.69,598.163 1300.98,598.206 1302.27,598.249 1303.56,598.291 1304.85,598.333 1306.15,598.375 1307.44,598.416 1308.73,598.457 1310.02,598.498 1311.31,598.538 1312.6,598.578 1313.89,598.617 1315.19,598.656 1316.48,598.695 1317.77,598.734 1319.06,598.772 1320.35,598.81 1321.64,598.848 1322.93,598.885 1324.22,598.922 1325.52,598.958 1326.81,598.995 1328.1,599.031 1329.39,599.066 1330.68,599.102 1331.97,599.137 1333.26,599.172 1334.56,599.206 1335.85,599.241 1337.14,599.275 1338.43,599.308 1339.72,599.342 1341.01,599.375 1342.3,599.408 1343.6,599.441 1344.89,599.473 1346.18,599.505 1347.47,599.537 1348.76,599.569 1350.05,599.6 1351.34,599.631 1352.63,599.662 1353.93,599.693 1355.22,599.723 1356.51,599.753 1357.8,599.783 1359.09,599.813 1360.38,599.842 1361.67,599.872 1362.97,599.901 1364.26,599.929 1365.55,599.958 1366.84,599.986 1368.13,600.014 1369.42,600.042 1370.71,600.07 1372,600.098 1373.3,600.125 1374.59,600.152 1375.88,600.179 1377.17,600.206 1378.46,600.232 1379.75,600.258 1381.04,600.284 1382.34,600.31 1383.63,600.336 1384.92,600.361 1386.21,600.387 1387.5,600.412 1388.79,600.437 1390.08,600.462 1391.38,600.486 1392.67,600.511 1393.96,600.535 1395.25,600.559 1396.54,600.583 1397.83,600.606 1399.12,600.63 1400.41,600.653 1401.71,600.676 1403,600.699 1404.29,600.722 1405.58,600.745 1406.87,600.768 1408.16,600.79 1409.45,600.812 1410.75,600.834 1412.04,600.856 1413.33,600.878 1414.62,600.899 1415.91,600.921 1417.2,600.942 1418.49,600.963 1419.79,600.984 1421.08,601.005 1422.37,601.026 1423.66,601.047 1424.95,601.067 1426.24,601.087 1427.53,601.107 1428.82,601.127 1430.12,601.147 1431.41,601.167 1432.7,601.187 1433.99,601.206 1435.28,601.225 1436.57,601.245 1437.86,601.264 1439.16,601.283 1440.45,601.302 1441.74,601.32 1443.03,601.339 1444.32,601.357 1445.61,601.376 1446.9,601.394 1448.19,601.412 1449.49,601.43 1450.78,601.448 1452.07,601.465 1453.36,601.483 1454.65,601.501 1455.94,601.518 1457.23,601.535 1458.53,601.552 1459.82,601.569 1461.11,601.586 1462.4,601.603 1463.69,601.62 1464.98,601.637 1466.27,601.653 1467.57,601.669 1468.86,601.686 1470.15,601.702 1471.44,601.718 1472.73,601.734 1474.02,601.75 1475.31,601.766 1476.6,601.781 1477.9,601.797 1479.19,601.812 1480.48,601.828 1481.77,601.843 1483.06,601.858 1484.35,601.873 1485.64,601.888 1486.94,601.903 1488.23,601.918 1489.52,601.933 1490.81,601.948 1492.1,601.962 1493.39,601.977 1494.68,601.991 1495.98,602.005 1497.27,602.019 1498.56,602.034 1499.85,602.048 1501.14,602.062 1502.43,602.075 1503.72,602.089 1505.01,602.103 1506.31,602.117 1507.6,602.13 1508.89,602.143 1510.18,602.157 1511.47,602.17 1512.76,602.183 1514.05,602.196 "/>
<polyline clip-path="url(#clip691)" style="stroke:#e26f46; stroke-linecap:round; stroke-linejoin:round; stroke-width:4; stroke-opacity:1; fill:none" points="223.99,563.883 225.281,563.8 226.572,563.718 227.864,563.634 229.155,563.551 230.447,563.467 231.738,563.383 233.029,563.298 234.321,563.213 235.612,563.127 236.903,563.042 238.195,562.955 239.486,562.869 240.777,562.782 242.069,562.694 243.36,562.606 244.651,562.518 245.943,562.43 247.234,562.34 248.526,562.251 249.817,562.161 251.108,562.071 252.4,561.98 253.691,561.889 254.982,561.797 256.274,561.705 257.565,561.613 258.856,561.52 260.148,561.427 261.439,561.333 262.73,561.239 264.022,561.144 265.313,561.049 266.605,560.953 267.896,560.857 269.187,560.761 270.479,560.664 271.77,560.566 273.061,560.468 274.353,560.37 275.644,560.271 276.935,560.172 278.227,560.072 279.518,559.971 280.809,559.871 282.101,559.769 283.392,559.667 284.683,559.565 285.975,559.462 287.266,559.359 288.558,559.255 289.849,559.15 291.14,559.045 292.432,558.939 293.723,558.833 295.014,558.727 296.306,558.619 297.597,558.512 298.888,558.403 300.18,558.294 301.471,558.185 302.762,558.075 304.054,557.964 305.345,557.853 306.637,557.741 307.928,557.629 309.219,557.516 310.511,557.402 311.802,557.288 313.093,557.173 314.385,557.058 315.676,556.942 316.967,556.825 318.259,556.708 319.55,556.59 320.841,556.471 322.133,556.352 323.424,556.232 324.716,556.111 326.007,555.99 327.298,555.868 328.59,555.745 329.881,555.621 331.172,555.497 332.464,555.372 333.755,555.247 335.046,555.121 336.338,554.994 337.629,554.866 338.92,554.738 340.212,554.608 341.503,554.478 342.794,554.348 344.086,554.216 345.377,554.084 346.669,553.951 347.96,553.817 349.251,553.682 350.543,553.547 351.834,553.41 353.125,553.273 354.417,553.135 355.708,552.996 356.999,552.857 358.291,552.716 359.582,552.575 360.873,552.432 362.165,552.289 363.456,552.145 364.748,552 366.039,551.854 367.33,551.707 368.622,551.559 369.913,551.41 371.204,551.26 372.496,551.11 373.787,550.958 375.078,550.805 376.37,550.651 377.661,550.497 378.952,550.341 380.244,550.184 381.535,550.026 382.827,549.867 384.118,549.707 385.409,549.545 386.701,549.383 387.992,549.219 389.283,549.055 390.575,548.889 391.866,548.722 393.157,548.554 394.449,548.384 395.74,548.214 397.031,548.042 398.323,547.868 399.614,547.694 400.905,547.518 402.197,547.341 403.488,547.163 404.78,546.983 406.071,546.802 407.362,546.619 408.654,546.435 409.945,546.249 411.236,546.062 412.528,545.874 413.819,545.684 415.11,545.492 416.402,545.299 417.693,545.104 418.984,544.908 420.276,544.71 421.567,544.51 422.859,544.308 424.15,544.105 425.441,543.899 426.733,543.692 428.024,543.483 429.315,543.272 430.607,543.059 431.898,542.843 433.189,542.626 434.481,542.406 435.772,542.184 437.063,541.959 438.355,541.732 439.646,541.502 440.938,541.27 442.229,541.035 443.52,540.798 444.812,540.557 446.103,540.315 447.394,540.069 448.686,539.821 449.977,539.57 451.268,539.316 452.56,539.059 453.851,538.8 455.142,538.538 456.434,538.273 457.725,538.005 459.016,537.734 460.308,537.461 461.599,537.184 462.891,536.905 464.182,536.623 465.473,536.338 466.765,536.05 468.056,535.76 469.347,535.466 470.639,535.17 471.93,534.871 473.221,534.569 474.513,534.265 475.804,533.957 477.095,533.647 478.387,533.334 479.678,533.019 480.97,532.7 482.261,532.379 483.552,532.055 484.844,531.729 486.135,531.4 487.426,531.068 488.718,530.734 490.009,530.398 491.3,530.058 492.592,529.717 493.883,529.372 495.174,529.026 496.466,528.677 497.757,528.325 499.049,527.972 500.34,527.616 501.631,527.258 502.923,526.898 504.214,526.536 505.505,526.171 506.797,525.805 508.088,525.437 509.379,525.067 510.671,524.695 511.962,524.321 513.253,523.946 514.545,523.569 515.836,523.191 517.127,522.811 518.419,522.43 519.71,522.048 521.002,521.665 522.293,521.281 523.584,520.896 524.876,520.511 526.167,520.125 527.458,519.739 528.75,519.353 530.041,518.967 531.332,518.581 532.624,518.196 533.915,517.811 535.206,517.427 536.498,517.044 537.789,516.661 539.081,516.28 540.372,515.899 541.663,515.519 542.955,515.14 544.246,514.763 545.537,514.386 546.829,514.011 548.12,513.636 549.411,513.263 550.703,512.892 551.994,512.521 553.285,512.152 554.577,511.784 555.868,511.417 557.16,511.052 558.451,510.688 559.742,510.325 561.034,509.964 562.325,509.604 563.616,509.245 564.908,508.888 566.199,508.531 567.49,508.177 568.782,507.823 570.073,507.47 571.364,507.119 572.656,506.769 573.947,506.42 575.238,506.072 576.53,505.724 577.821,505.378 579.113,505.033 580.404,504.689 581.695,504.345 582.987,504.003 584.278,503.66 585.569,503.319 586.861,502.978 588.152,502.637 589.443,502.297 590.735,501.957 592.026,501.617 593.317,501.277 594.609,500.937 595.9,500.597 597.192,500.257 598.483,499.916 599.774,499.575 601.066,499.233 602.357,498.89 603.648,498.546 604.94,498.201 606.231,497.855 607.522,497.507 608.814,497.158 610.105,496.806 611.396,496.453 612.688,496.097 613.979,495.738 615.271,495.377 616.562,495.012 617.853,494.644 619.145,494.272 620.436,493.895 621.727,493.513 623.019,493.126 624.31,492.733 625.601,492.334 626.893,491.928 628.184,491.515 629.475,491.096 630.767,490.67 632.058,490.236 633.349,489.795 634.641,489.347 635.932,488.89 637.224,488.426 638.515,487.953 639.806,487.472 641.098,486.983 642.389,486.485 643.68,485.979 644.972,485.464 646.263,484.94 647.554,484.407 648.846,483.865 650.137,483.314 651.428,482.754 652.72,482.185 654.011,481.606 655.303,481.018 656.594,480.421 657.885,479.814 659.177,479.197 660.468,478.571 661.759,477.935 663.051,477.289 664.342,476.634 665.633,475.969 666.925,475.294 668.216,474.609 669.507,473.915 670.799,473.21 672.09,472.496 673.382,471.771 674.673,471.037 675.964,470.293 677.256,469.538 678.547,468.774 679.838,468 681.13,467.215 682.421,466.421 683.712,465.617 685.004,464.802 686.295,463.977 687.586,463.143 688.878,462.298 690.169,461.443 691.46,460.578 692.752,459.703 694.043,458.818 695.335,457.922 696.626,457.017 697.917,456.101 699.209,455.175 700.5,454.239 701.791,453.292 703.083,452.335 704.374,451.368 705.665,450.39 706.957,449.402 708.248,448.403 709.539,447.394 710.831,446.373 712.122,445.342 713.414,444.299 714.705,443.245 715.996,442.179 717.288,441.101 718.579,440.011 719.87,438.908 721.162,437.793 722.453,436.665 723.744,435.524 725.036,434.37 726.327,433.203 727.618,432.022 728.91,430.828 730.201,429.62 731.493,428.398 732.784,427.162 734.075,425.913 735.367,424.649 736.658,423.37 737.949,422.078 739.241,420.771 740.532,419.449 741.823,418.112 743.115,416.761 744.406,415.396 745.697,414.015 746.989,412.619 748.28,411.209 749.571,409.784 750.863,408.344 752.154,406.89 753.446,405.42 754.737,403.937 756.028,402.439 757.32,400.926 758.611,399.4 759.902,397.859 761.194,396.305 762.485,394.738 763.776,393.158 765.068,391.565 766.359,389.961 767.65,388.345 768.942,386.717 770.233,385.08 771.525,383.432 772.816,381.776 774.107,380.112 775.399,378.441 776.69,376.763 777.981,375.081 779.273,373.396 780.564,371.708 781.855,370.019 783.147,368.332 784.438,366.647 785.729,364.967 787.021,363.294 788.312,361.63 789.604,359.978 790.895,358.341 792.186,356.721 793.478,355.122 794.769,353.548 796.06,352.001 797.352,350.487 798.643,349.009 799.934,347.573 801.226,346.184 802.517,344.846 803.808,343.567 805.1,342.352 806.391,341.208 807.682,340.143 808.974,339.165 810.265,338.281 811.557,337.501 812.848,336.835 814.139,336.292 815.431,335.883 816.722,335.62 818.013,335.514 819.305,335.579 820.596,335.828 821.887,336.275 823.179,336.934 824.47,337.822 825.761,338.953 827.053,340.345 828.344,342.015 829.636,343.979 830.927,346.257 832.218,348.866 833.51,351.824 834.801,355.15 836.092,358.861 837.384,362.976 838.675,367.511 839.966,372.483 841.258,377.907 842.549,383.797 843.84,390.165 845.132,397.02 846.423,404.372 847.715,412.225 849.006,420.581 850.297,429.44 851.589,438.797 852.88,448.643 854.171,458.966 855.463,469.75 856.754,480.973 858.045,492.611 859.337,504.633 860.628,517.006 861.919,529.693 863.211,542.651 864.502,555.836 865.793,569.201 867.085,582.696 868.376,596.27 869.668,609.87 870.959,623.444 872.25,636.939 873.542,650.304 874.833,663.489 876.124,676.447 877.416,689.134 878.707,701.507 879.998,713.529 881.29,725.167 882.581,736.39 883.872,747.174 885.164,757.497 886.455,767.344 887.747,776.7 889.038,785.559 890.329,793.915 891.621,801.768 892.912,809.12 894.203,815.976 895.495,822.343 896.786,828.233 898.077,833.657 899.369,838.629 900.66,843.164 901.951,847.279 903.243,850.99 904.534,854.316 905.826,857.274 907.117,859.883 908.408,862.161 909.7,864.125 910.991,865.795 912.282,867.187 913.574,868.318 914.865,869.206 916.156,869.865 917.448,870.312 918.739,870.561 920.03,870.626 921.322,870.52 922.613,870.257 923.904,869.848 925.196,869.305 926.487,868.639 927.779,867.859 929.07,866.975 930.361,865.997 931.653,864.932 932.944,863.788 934.235,862.573 935.527,861.294 936.818,859.956 938.109,858.567 939.401,857.131 940.692,855.653 941.983,854.139 943.275,852.592 944.566,851.018 945.858,849.419 947.149,847.799 948.44,846.162 949.732,844.51 951.023,842.846 952.314,841.173 953.606,839.493 954.897,837.808 956.188,836.121 957.48,834.432 958.771,832.744 960.062,831.058 961.354,829.376 962.645,827.699 963.937,826.028 965.228,824.363 966.519,822.707 967.811,821.06 969.102,819.422 970.393,817.795 971.685,816.179 972.976,814.574 974.267,812.981 975.559,811.401 976.85,809.834 978.141,808.28 979.433,806.74 980.724,805.213 982.015,803.701 983.307,802.203 984.598,800.719 985.89,799.25 987.181,797.795 988.472,796.355 989.764,794.93 991.055,793.52 992.346,792.124 993.638,790.743 994.929,789.377 996.22,788.026 997.512,786.69 998.803,785.368 1000.09,784.061 1001.39,782.768 1002.68,781.49 1003.97,780.226 1005.26,778.976 1006.55,777.74 1007.84,776.519 1009.13,775.311 1010.43,774.116 1011.72,772.936 1013.01,771.768 1014.3,770.614 1015.59,769.473 1016.88,768.345 1018.17,767.229 1019.46,766.127 1020.76,765.036 1022.05,763.958 1023.34,762.892 1024.63,761.837 1025.92,760.795 1027.21,759.763 1028.5,758.742 1029.8,757.732 1031.09,756.733 1032.38,755.745 1033.67,754.767 1034.96,753.799 1036.25,752.842 1037.54,751.895 1038.84,750.959 1040.13,750.033 1041.42,749.117 1042.71,748.211 1044,747.315 1045.29,746.43 1046.58,745.555 1047.87,744.69 1049.17,743.835 1050.46,742.99 1051.75,742.155 1053.04,741.331 1054.33,740.516 1055.62,739.712 1056.91,738.918 1058.21,738.134 1059.5,737.359 1060.79,736.595 1062.08,735.841 1063.37,735.097 1064.66,734.363 1065.95,733.639 1067.24,732.925 1068.54,732.221 1069.83,731.527 1071.12,730.843 1072.41,730.168 1073.7,729.504 1074.99,728.849 1076.28,728.204 1077.58,727.569 1078.87,726.943 1080.16,726.327 1081.45,725.721 1082.74,725.124 1084.03,724.537 1085.32,723.959 1086.62,723.391 1087.91,722.831 1089.2,722.281 1090.49,721.74 1091.78,721.208 1093.07,720.685 1094.36,720.171 1095.65,719.666 1096.95,719.169 1098.24,718.681 1099.53,718.201 1100.82,717.729 1102.11,717.266 1103.4,716.81 1104.69,716.362 1105.99,715.922 1107.28,715.49 1108.57,715.064 1109.86,714.646 1111.15,714.234 1112.44,713.83 1113.73,713.431 1115.03,713.039 1116.32,712.652 1117.61,712.271 1118.9,711.895 1120.19,711.523 1121.48,711.155 1122.77,710.791 1124.06,710.43 1125.36,710.071 1126.65,709.716 1127.94,709.362 1129.23,709.011 1130.52,708.661 1131.81,708.313 1133.1,707.967 1134.4,707.622 1135.69,707.278 1136.98,706.935 1138.27,706.593 1139.56,706.251 1140.85,705.91 1142.14,705.569 1143.43,705.229 1144.73,704.888 1146.02,704.548 1147.31,704.208 1148.6,703.867 1149.89,703.526 1151.18,703.185 1152.47,702.844 1153.77,702.501 1155.06,702.159 1156.35,701.815 1157.64,701.471 1158.93,701.126 1160.22,700.78 1161.51,700.433 1162.81,700.086 1164.1,699.737 1165.39,699.387 1166.68,699.036 1167.97,698.684 1169.26,698.33 1170.55,697.976 1171.84,697.62 1173.14,697.263 1174.43,696.905 1175.72,696.545 1177.01,696.184 1178.3,695.822 1179.59,695.458 1180.88,695.093 1182.18,694.727 1183.47,694.36 1184.76,693.991 1186.05,693.621 1187.34,693.249 1188.63,692.876 1189.92,692.502 1191.22,692.127 1192.51,691.751 1193.8,691.373 1195.09,690.995 1196.38,690.615 1197.67,690.234 1198.96,689.852 1200.25,689.47 1201.55,689.086 1202.84,688.702 1204.13,688.317 1205.42,687.932 1206.71,687.546 1208,687.159 1209.29,686.773 1210.59,686.386 1211.88,685.999 1213.17,685.612 1214.46,685.226 1215.75,684.841 1217.04,684.456 1218.33,684.072 1219.62,683.69 1220.92,683.308 1222.21,682.928 1223.5,682.55 1224.79,682.173 1226.08,681.797 1227.37,681.423 1228.66,681.051 1229.96,680.68 1231.25,680.312 1232.54,679.945 1233.83,679.581 1235.12,679.218 1236.41,678.858 1237.7,678.5 1239,678.144 1240.29,677.79 1241.58,677.439 1242.87,677.089 1244.16,676.743 1245.45,676.398 1246.74,676.057 1248.03,675.717 1249.33,675.381 1250.62,675.046 1251.91,674.715 1253.2,674.386 1254.49,674.059 1255.78,673.735 1257.07,673.414 1258.37,673.096 1259.66,672.78 1260.95,672.468 1262.24,672.157 1263.53,671.85 1264.82,671.546 1266.11,671.244 1267.41,670.945 1268.7,670.649 1269.99,670.355 1271.28,670.065 1272.57,669.777 1273.86,669.493 1275.15,669.211 1276.44,668.932 1277.74,668.656 1279.03,668.382 1280.32,668.112 1281.61,667.844 1282.9,667.579 1284.19,667.317 1285.48,667.058 1286.78,666.802 1288.07,666.548 1289.36,666.297 1290.65,666.049 1291.94,665.804 1293.23,665.561 1294.52,665.321 1295.81,665.084 1297.11,664.849 1298.4,664.617 1299.69,664.387 1300.98,664.16 1302.27,663.936 1303.56,663.714 1304.85,663.494 1306.15,663.277 1307.44,663.062 1308.73,662.849 1310.02,662.638 1311.31,662.429 1312.6,662.222 1313.89,662.016 1315.19,661.813 1316.48,661.611 1317.77,661.412 1319.06,661.213 1320.35,661.017 1321.64,660.822 1322.93,660.629 1324.22,660.438 1325.52,660.248 1326.81,660.059 1328.1,659.872 1329.39,659.687 1330.68,659.503 1331.97,659.32 1333.26,659.139 1334.56,658.959 1335.85,658.781 1337.14,658.604 1338.43,658.428 1339.72,658.253 1341.01,658.08 1342.3,657.908 1343.6,657.738 1344.89,657.568 1346.18,657.4 1347.47,657.233 1348.76,657.067 1350.05,656.902 1351.34,656.739 1352.63,656.576 1353.93,656.415 1355.22,656.255 1356.51,656.096 1357.8,655.938 1359.09,655.781 1360.38,655.625 1361.67,655.47 1362.97,655.317 1364.26,655.164 1365.55,655.012 1366.84,654.861 1368.13,654.711 1369.42,654.563 1370.71,654.415 1372,654.268 1373.3,654.122 1374.59,653.977 1375.88,653.832 1377.17,653.689 1378.46,653.547 1379.75,653.405 1381.04,653.265 1382.34,653.125 1383.63,652.986 1384.92,652.848 1386.21,652.711 1387.5,652.575 1388.79,652.439 1390.08,652.304 1391.38,652.17 1392.67,652.037 1393.96,651.905 1395.25,651.773 1396.54,651.643 1397.83,651.513 1399.12,651.383 1400.41,651.255 1401.71,651.127 1403,651 1404.29,650.874 1405.58,650.748 1406.87,650.623 1408.16,650.499 1409.45,650.376 1410.75,650.253 1412.04,650.131 1413.33,650.01 1414.62,649.889 1415.91,649.769 1417.2,649.65 1418.49,649.531 1419.79,649.413 1421.08,649.295 1422.37,649.179 1423.66,649.062 1424.95,648.947 1426.24,648.832 1427.53,648.718 1428.82,648.604 1430.12,648.491 1431.41,648.379 1432.7,648.267 1433.99,648.156 1435.28,648.045 1436.57,647.935 1437.86,647.825 1439.16,647.716 1440.45,647.608 1441.74,647.5 1443.03,647.393 1444.32,647.286 1445.61,647.18 1446.9,647.074 1448.19,646.969 1449.49,646.865 1450.78,646.761 1452.07,646.657 1453.36,646.554 1454.65,646.452 1455.94,646.35 1457.23,646.248 1458.53,646.147 1459.82,646.047 1461.11,645.947 1462.4,645.848 1463.69,645.749 1464.98,645.65 1466.27,645.552 1467.57,645.455 1468.86,645.358 1470.15,645.261 1471.44,645.165 1472.73,645.069 1474.02,644.974 1475.31,644.879 1476.6,644.785 1477.9,644.691 1479.19,644.598 1480.48,644.505 1481.77,644.412 1483.06,644.32 1484.35,644.229 1485.64,644.137 1486.94,644.047 1488.23,643.956 1489.52,643.866 1490.81,643.777 1492.1,643.688 1493.39,643.599 1494.68,643.511 1495.98,643.423 1497.27,643.335 1498.56,643.248 1499.85,643.162 1501.14,643.075 1502.43,642.989 1503.72,642.904 1505.01,642.819 1506.31,642.734 1507.6,642.65 1508.89,642.566 1510.18,642.482 1511.47,642.399 1512.76,642.316 1514.05,642.233 "/>
<polyline clip-path="url(#clip691)" style="stroke:#3da44d; stroke-linecap:round; stroke-linejoin:round; stroke-width:4; stroke-opacity:1; fill:none" stroke-dasharray="16, 10" points="223.99,605.486 225.281,605.486 226.572,605.486 227.864,605.486 229.155,605.486 230.447,605.486 231.738,605.486 233.029,605.486 234.321,605.486 235.612,605.486 236.903,605.486 238.195,605.486 239.486,605.486 240.777,605.486 242.069,605.486 243.36,605.486 244.651,605.486 245.943,605.486 247.234,605.486 248.526,605.486 249.817,605.486 251.108,605.486 252.4,605.486 253.691,605.486 254.982,605.486 256.274,605.486 257.565,605.486 258.856,605.486 260.148,605.486 261.439,605.486 262.73,605.486 264.022,605.486 265.313,605.486 266.605,605.486 267.896,605.486 269.187,605.486 270.479,605.486 271.77,605.486 273.061,605.486 274.353,605.486 275.644,605.486 276.935,605.486 278.227,605.486 279.518,605.486 280.809,605.486 282.101,605.486 283.392,605.486 284.683,605.486 285.975,605.486 287.266,605.486 288.558,605.486 289.849,605.486 291.14,605.486 292.432,605.486 293.723,605.486 295.014,605.486 296.306,605.486 297.597,605.486 298.888,605.486 300.18,605.486 301.471,605.486 302.762,605.486 304.054,605.486 305.345,605.486 306.637,605.486 307.928,605.486 309.219,605.486 310.511,605.486 311.802,605.486 313.093,605.486 314.385,605.486 315.676,605.486 316.967,605.486 318.259,605.486 319.55,605.486 320.841,605.486 322.133,605.486 323.424,605.486 324.716,605.486 326.007,605.486 327.298,605.486 328.59,605.486 329.881,605.486 331.172,605.486 332.464,605.486 333.755,605.486 335.046,605.486 336.338,605.486 337.629,605.486 338.92,605.486 340.212,605.486 341.503,605.486 342.794,605.486 344.086,605.486 345.377,605.486 346.669,605.486 347.96,605.486 349.251,605.486 350.543,605.486 351.834,605.486 353.125,605.486 354.417,605.486 355.708,605.486 356.999,605.486 358.291,605.486 359.582,605.486 360.873,605.486 362.165,605.486 363.456,605.486 364.748,605.486 366.039,605.486 367.33,605.486 368.622,605.486 369.913,605.486 371.204,605.486 372.496,605.486 373.787,605.486 375.078,605.486 376.37,605.486 377.661,605.486 378.952,605.486 380.244,605.486 381.535,605.486 382.827,605.486 384.118,605.486 385.409,605.486 386.701,605.486 387.992,605.486 389.283,605.486 390.575,605.486 391.866,605.486 393.157,605.486 394.449,605.486 395.74,605.486 397.031,605.486 398.323,605.486 399.614,605.486 400.905,605.486 402.197,605.486 403.488,605.486 404.78,605.486 406.071,605.486 407.362,605.486 408.654,605.486 409.945,605.486 411.236,605.486 412.528,605.486 413.819,605.486 415.11,605.486 416.402,605.486 417.693,605.486 418.984,605.486 420.276,605.486 421.567,605.486 422.859,605.486 424.15,605.486 425.441,605.486 426.733,605.486 428.024,605.486 429.315,605.486 430.607,605.486 431.898,605.486 433.189,605.486 434.481,605.486 435.772,605.485 437.063,605.485 438.355,605.484 439.646,605.483 440.938,605.481 442.229,605.479 443.52,605.477 444.812,605.473 446.103,605.47 447.394,605.465 448.686,605.46 449.977,605.453 451.268,605.446 452.56,605.438 453.851,605.429 455.142,605.418 456.434,605.407 457.725,605.394 459.016,605.38 460.308,605.364 461.599,605.347 462.891,605.329 464.182,605.309 465.473,605.287 466.765,605.264 468.056,605.238 469.347,605.211 470.639,605.183 471.93,605.152 473.221,605.119 474.513,605.084 475.804,605.047 477.095,605.008 478.387,604.966 479.678,604.922 480.97,604.876 482.261,604.827 483.552,604.775 484.844,604.722 486.135,604.665 487.426,604.606 488.718,604.543 490.009,604.478 491.3,604.411 492.592,604.34 493.883,604.266 495.174,604.189 496.466,604.108 497.757,604.025 499.049,603.938 500.34,603.848 501.631,603.754 502.923,603.657 504.214,603.557 505.505,603.452 506.797,603.344 508.088,603.233 509.379,603.117 510.671,602.998 511.962,602.874 513.253,602.747 514.545,602.615 515.836,602.48 517.127,602.34 518.419,602.196 519.71,602.047 521.002,601.895 522.293,601.737 523.584,601.576 524.876,601.409 526.167,601.238 527.458,601.062 528.75,600.882 530.041,600.698 531.332,600.509 532.624,600.316 533.915,600.119 535.206,599.918 536.498,599.713 537.789,599.504 539.081,599.291 540.372,599.075 541.663,598.856 542.955,598.633 544.246,598.406 545.537,598.177 546.829,597.944 548.12,597.708 549.411,597.469 550.703,597.228 551.994,596.984 553.285,596.737 554.577,596.487 555.868,596.235 557.16,595.981 558.451,595.725 559.742,595.466 561.034,595.205 562.325,594.943 563.616,594.678 564.908,594.412 566.199,594.144 567.49,593.875 568.782,593.604 570.073,593.332 571.364,593.058 572.656,592.783 573.947,592.508 575.238,592.231 576.53,591.953 577.821,591.675 579.113,591.396 580.404,591.116 581.695,590.836 582.987,590.555 584.278,590.274 585.569,589.993 586.861,589.712 588.152,589.431 589.443,589.15 590.735,588.869 592.026,588.588 593.317,588.308 594.609,588.028 595.9,587.749 597.192,587.471 598.483,587.193 599.774,586.916 601.066,586.64 602.357,586.366 603.648,586.092 604.94,585.82 606.231,585.549 607.522,585.279 608.814,585.011 610.105,584.745 611.396,584.48 612.688,584.218 613.979,583.957 615.271,583.698 616.562,583.442 617.853,583.188 619.145,582.936 620.436,582.686 621.727,582.438 623.019,582.193 624.31,581.949 625.601,581.706 626.893,581.465 628.184,581.224 629.475,580.983 630.767,580.744 632.058,580.504 633.349,580.264 634.641,580.023 635.932,579.782 637.224,579.539 638.515,579.296 639.806,579.05 641.098,578.804 642.389,578.555 643.68,578.303 644.972,578.049 646.263,577.793 647.554,577.533 648.846,577.27 650.137,577.003 651.428,576.732 652.72,576.458 654.011,576.179 655.303,575.895 656.594,575.606 657.885,575.312 659.177,575.013 660.468,574.708 661.759,574.397 663.051,574.08 664.342,573.756 665.633,573.426 666.925,573.089 668.216,572.744 669.507,572.392 670.799,572.032 672.09,571.664 673.382,571.288 674.673,570.903 675.964,570.509 677.256,570.106 678.547,569.694 679.838,569.273 681.13,568.841 682.421,568.4 683.712,567.947 685.004,567.485 686.295,567.011 687.586,566.526 688.878,566.03 690.169,565.522 691.46,565.003 692.752,564.471 694.043,563.926 695.335,563.369 696.626,562.799 697.917,562.215 699.209,561.618 700.5,561.008 701.791,560.383 703.083,559.744 704.374,559.09 705.665,558.422 706.957,557.738 708.248,557.04 709.539,556.325 710.831,555.595 712.122,554.848 713.414,554.086 714.705,553.306 715.996,552.51 717.288,551.695 718.579,550.863 719.87,550.011 721.162,549.141 722.453,548.25 723.744,547.339 725.036,546.408 726.327,545.454 727.618,544.478 728.91,543.48 730.201,542.457 731.493,541.411 732.784,540.339 734.075,539.242 735.367,538.118 736.658,536.966 737.949,535.786 739.241,534.577 740.532,533.338 741.823,532.068 743.115,530.766 744.406,529.431 745.697,528.062 746.989,526.658 748.28,525.217 749.571,523.739 750.863,522.223 752.154,520.666 753.446,519.068 754.737,517.428 756.028,515.744 757.32,514.014 758.611,512.237 759.902,510.412 761.194,508.537 762.485,506.61 763.776,504.63 765.068,502.594 766.359,500.501 767.65,498.349 768.942,496.135 770.233,493.859 771.525,491.517 772.816,489.108 774.107,486.629 775.399,484.078 776.69,481.452 777.981,478.748 779.273,475.965 780.564,473.1 781.855,470.149 783.147,467.11 784.438,463.98 785.729,460.756 787.021,457.435 788.312,454.013 789.604,450.488 790.895,446.855 792.186,443.112 793.478,439.255 794.769,435.281 796.06,431.185 797.352,426.965 798.643,422.616 799.934,418.135 801.226,413.518 802.517,408.762 803.808,403.863 805.1,398.817 806.391,393.621 807.682,388.27 808.974,382.763 810.265,377.096 811.557,371.266 812.848,365.27 814.139,359.107 815.431,352.773 816.722,346.268 818.013,339.591 819.305,332.741 820.596,325.718 821.887,318.523 823.179,311.159 824.47,303.628 825.761,295.933 827.053,288.081 828.344,280.076 829.636,271.926 830.927,263.641 832.218,255.231 833.51,246.709 834.801,238.09 836.092,229.389 837.384,220.624 838.675,211.818 839.966,202.991 841.258,194.17 842.549,185.382 843.84,176.655 845.132,168.022 846.423,159.517 847.715,151.175 849.006,143.033 850.297,135.131 851.589,127.508 852.88,120.205 854.171,113.263 855.463,106.722 856.754,100.623 858.045,95.0055 859.337,89.906 860.628,85.3595 861.919,81.3983 863.211,78.0509 864.502,75.342 865.793,73.292 867.085,71.9165 868.376,71.2261 869.668,71.2261 870.959,71.9165 872.25,73.292 873.542,75.342 874.833,78.0509 876.124,81.3983 877.416,85.3595 878.707,89.906 879.998,95.0055 881.29,100.623 882.581,106.722 883.872,113.263 885.164,120.205 886.455,127.508 887.747,135.131 889.038,143.033 890.329,151.175 891.621,159.517 892.912,168.022 894.203,176.655 895.495,185.382 896.786,194.17 898.077,202.991 899.369,211.818 900.66,220.624 901.951,229.389 903.243,238.09 904.534,246.709 905.826,255.231 907.117,263.641 908.408,271.926 909.7,280.076 910.991,288.081 912.282,295.933 913.574,303.628 914.865,311.159 916.156,318.523 917.448,325.718 918.739,332.741 920.03,339.591 921.322,346.268 922.613,352.773 923.904,359.107 925.196,365.27 926.487,371.266 927.779,377.096 929.07,382.763 930.361,388.27 931.653,393.621 932.944,398.817 934.235,403.863 935.527,408.762 936.818,413.518 938.109,418.135 939.401,422.616 940.692,426.965 941.983,431.185 943.275,435.281 944.566,439.255 945.858,443.112 947.149,446.855 948.44,450.488 949.732,454.013 951.023,457.435 952.314,460.756 953.606,463.98 954.897,467.11 956.188,470.149 957.48,473.1 958.771,475.965 960.062,478.748 961.354,481.452 962.645,484.078 963.937,486.629 965.228,489.108 966.519,491.517 967.811,493.859 969.102,496.135 970.393,498.349 971.685,500.501 972.976,502.594 974.267,504.63 975.559,506.61 976.85,508.537 978.141,510.412 979.433,512.237 980.724,514.014 982.015,515.744 983.307,517.428 984.598,519.068 985.89,520.666 987.181,522.223 988.472,523.739 989.764,525.217 991.055,526.658 992.346,528.062 993.638,529.431 994.929,530.766 996.22,532.068 997.512,533.338 998.803,534.577 1000.09,535.786 1001.39,536.966 1002.68,538.118 1003.97,539.242 1005.26,540.339 1006.55,541.411 1007.84,542.457 1009.13,543.48 1010.43,544.478 1011.72,545.454 1013.01,546.408 1014.3,547.339 1015.59,548.25 1016.88,549.141 1018.17,550.011 1019.46,550.863 1020.76,551.695 1022.05,552.51 1023.34,553.306 1024.63,554.086 1025.92,554.848 1027.21,555.595 1028.5,556.325 1029.8,557.039 1031.09,557.738 1032.38,558.421 1033.67,559.089 1034.96,559.743 1036.25,560.382 1037.54,561.006 1038.84,561.616 1040.13,562.213 1041.42,562.796 1042.71,563.366 1044,563.923 1045.29,564.467 1046.58,564.998 1047.87,565.517 1049.17,566.025 1050.46,566.521 1051.75,567.005 1053.04,567.478 1054.33,567.94 1055.62,568.391 1056.91,568.833 1058.21,569.264 1059.5,569.685 1060.79,570.096 1062.08,570.498 1063.37,570.892 1064.66,571.276 1065.95,571.652 1067.24,572.019 1068.54,572.378 1069.83,572.73 1071.12,573.074 1072.41,573.411 1073.7,573.741 1074.99,574.064 1076.28,574.381 1077.58,574.692 1078.87,574.996 1080.16,575.295 1081.45,575.589 1082.74,575.877 1084.03,576.161 1085.32,576.44 1086.62,576.714 1087.91,576.985 1089.2,577.251 1090.49,577.515 1091.78,577.774 1093.07,578.031 1094.36,578.285 1095.65,578.536 1096.95,578.785 1098.24,579.033 1099.53,579.278 1100.82,579.522 1102.11,579.765 1103.4,580.006 1104.69,580.247 1105.99,580.488 1107.28,580.729 1108.57,580.969 1109.86,581.21 1111.15,581.452 1112.44,581.694 1113.73,581.938 1115.03,582.183 1116.32,582.429 1117.61,582.678 1118.9,582.929 1120.19,583.182 1121.48,583.437 1122.77,583.695 1124.06,583.955 1125.36,584.217 1126.65,584.481 1127.94,584.746 1129.23,585.014 1130.52,585.283 1131.81,585.554 1133.1,585.826 1134.4,586.099 1135.69,586.374 1136.98,586.649 1138.27,586.926 1139.56,587.204 1140.85,587.483 1142.14,587.762 1143.43,588.042 1144.73,588.323 1146.02,588.604 1147.31,588.886 1148.6,589.167 1149.89,589.449 1151.18,589.731 1152.47,590.013 1153.77,590.295 1155.06,590.577 1156.35,590.858 1157.64,591.139 1158.93,591.42 1160.22,591.699 1161.51,591.978 1162.81,592.257 1164.1,592.534 1165.39,592.81 1166.68,593.086 1167.97,593.36 1169.26,593.633 1170.55,593.904 1171.84,594.174 1173.14,594.442 1174.43,594.709 1175.72,594.974 1177.01,595.237 1178.3,595.498 1179.59,595.756 1180.88,596.013 1182.18,596.268 1183.47,596.52 1184.76,596.769 1186.05,597.016 1187.34,597.261 1188.63,597.502 1189.92,597.741 1191.22,597.977 1192.51,598.209 1193.8,598.439 1195.09,598.665 1196.38,598.888 1197.67,599.108 1198.96,599.324 1200.25,599.536 1201.55,599.745 1202.84,599.949 1204.13,600.15 1205.42,600.347 1206.71,600.539 1208,600.728 1209.29,600.912 1210.59,601.091 1211.88,601.267 1213.17,601.437 1214.46,601.603 1215.75,601.764 1217.04,601.921 1218.33,602.073 1219.62,602.221 1220.92,602.364 1222.21,602.504 1223.5,602.639 1224.79,602.77 1226.08,602.896 1227.37,603.019 1228.66,603.138 1229.96,603.253 1231.25,603.364 1232.54,603.472 1233.83,603.575 1235.12,603.675 1236.41,603.772 1237.7,603.865 1239,603.955 1240.29,604.041 1241.58,604.124 1242.87,604.204 1244.16,604.28 1245.45,604.354 1246.74,604.424 1248.03,604.491 1249.33,604.556 1250.62,604.617 1251.91,604.676 1253.2,604.732 1254.49,604.786 1255.78,604.837 1257.07,604.885 1258.37,604.931 1259.66,604.975 1260.95,605.016 1262.24,605.055 1263.53,605.091 1264.82,605.126 1266.11,605.158 1267.41,605.189 1268.7,605.217 1269.99,605.244 1271.28,605.269 1272.57,605.292 1273.86,605.313 1275.15,605.333 1276.44,605.351 1277.74,605.368 1279.03,605.383 1280.32,605.397 1281.61,605.409 1282.9,605.421 1284.19,605.431 1285.48,605.44 1286.78,605.448 1288.07,605.455 1289.36,605.461 1290.65,605.466 1291.94,605.471 1293.23,605.474 1294.52,605.477 1295.81,605.48 1297.11,605.482 1298.4,605.483 1299.69,605.484 1300.98,605.485 1302.27,605.485 1303.56,605.486 1304.85,605.486 1306.15,605.486 1307.44,605.486 1308.73,605.486 1310.02,605.486 1311.31,605.486 1312.6,605.486 1313.89,605.486 1315.19,605.486 1316.48,605.486 1317.77,605.486 1319.06,605.486 1320.35,605.486 1321.64,605.486 1322.93,605.486 1324.22,605.486 1325.52,605.486 1326.81,605.486 1328.1,605.486 1329.39,605.486 1330.68,605.486 1331.97,605.486 1333.26,605.486 1334.56,605.486 1335.85,605.486 1337.14,605.486 1338.43,605.486 1339.72,605.486 1341.01,605.486 1342.3,605.486 1343.6,605.486 1344.89,605.486 1346.18,605.486 1347.47,605.486 1348.76,605.486 1350.05,605.486 1351.34,605.486 1352.63,605.486 1353.93,605.486 1355.22,605.486 1356.51,605.486 1357.8,605.486 1359.09,605.486 1360.38,605.486 1361.67,605.486 1362.97,605.486 1364.26,605.486 1365.55,605.486 1366.84,605.486 1368.13,605.486 1369.42,605.486 1370.71,605.486 1372,605.486 1373.3,605.486 1374.59,605.486 1375.88,605.486 1377.17,605.486 1378.46,605.486 1379.75,605.486 1381.04,605.486 1382.34,605.486 1383.63,605.486 1384.92,605.486 1386.21,605.486 1387.5,605.486 1388.79,605.486 1390.08,605.486 1391.38,605.486 1392.67,605.486 1393.96,605.486 1395.25,605.486 1396.54,605.486 1397.83,605.486 1399.12,605.486 1400.41,605.486 1401.71,605.486 1403,605.486 1404.29,605.486 1405.58,605.486 1406.87,605.486 1408.16,605.486 1409.45,605.486 1410.75,605.486 1412.04,605.486 1413.33,605.486 1414.62,605.486 1415.91,605.486 1417.2,605.486 1418.49,605.486 1419.79,605.486 1421.08,605.486 1422.37,605.486 1423.66,605.486 1424.95,605.486 1426.24,605.486 1427.53,605.486 1428.82,605.486 1430.12,605.486 1431.41,605.486 1432.7,605.486 1433.99,605.486 1435.28,605.486 1436.57,605.486 1437.86,605.486 1439.16,605.486 1440.45,605.486 1441.74,605.486 1443.03,605.486 1444.32,605.486 1445.61,605.486 1446.9,605.486 1448.19,605.486 1449.49,605.486 1450.78,605.486 1452.07,605.486 1453.36,605.486 1454.65,605.486 1455.94,605.486 1457.23,605.486 1458.53,605.486 1459.82,605.486 1461.11,605.486 1462.4,605.486 1463.69,605.486 1464.98,605.486 1466.27,605.486 1467.57,605.486 1468.86,605.486 1470.15,605.486 1471.44,605.486 1472.73,605.486 1474.02,605.486 1475.31,605.486 1476.6,605.486 1477.9,605.486 1479.19,605.486 1480.48,605.486 1481.77,605.486 1483.06,605.486 1484.35,605.486 1485.64,605.486 1486.94,605.486 1488.23,605.486 1489.52,605.486 1490.81,605.486 1492.1,605.486 1493.39,605.486 1494.68,605.486 1495.98,605.486 1497.27,605.486 1498.56,605.486 1499.85,605.486 1501.14,605.486 1502.43,605.486 1503.72,605.486 1505.01,605.486 1506.31,605.486 1507.6,605.486 1508.89,605.486 1510.18,605.486 1511.47,605.486 1512.76,605.486 1514.05,605.486 "/>
<polyline clip-path="url(#clip691)" style="stroke:#c271d2; stroke-linecap:round; stroke-linejoin:round; stroke-width:4; stroke-opacity:1; fill:none" stroke-dasharray="2, 4" points="-1182.18,605.486 2920.22,605.486 "/>
<path clip-path="url(#clip690)" d="M1094.57 282.85 L1507.17 282.85 L1507.17 75.4896 L1094.57 75.4896  Z" fill="#ffffff" fill-rule="evenodd" fill-opacity="1"/>
<polyline clip-path="url(#clip690)" style="stroke:#000000; stroke-linecap:round; stroke-linejoin:round; stroke-width:4; stroke-opacity:1; fill:none" points="1094.57,282.85 1507.17,282.85 1507.17,75.4896 1094.57,75.4896 1094.57,282.85 "/>
<polyline clip-path="url(#clip690)" style="stroke:#1f77b4; stroke-linecap:round; stroke-linejoin:round; stroke-width:4; stroke-opacity:1; fill:none" points="1109.77,127.33 1200.93,127.33 "/>
<path clip-path="url(#clip690)" d="M1222.19 130.628 Q1219.6 130.073 1218.21 128.568 Q1216.82 127.086 1216.82 124.934 Q1216.82 121.67 1219.46 119.841 Q1222.07 118.036 1226.61 118.036 Q1228.37 118.036 1230.34 118.313 Q1232.31 118.591 1234.57 119.147 L1234.57 123.012 Q1232.33 122.341 1230.48 122.04 Q1228.6 121.739 1226.96 121.739 Q1224.2 121.739 1222.61 122.804 Q1220.99 123.869 1220.99 125.35 Q1220.99 126.971 1222.56 128.012 Q1224.11 129.031 1226.8 129.031 L1230.38 129.031 L1230.38 132.549 L1226.96 132.549 Q1223.79 132.549 1222.12 133.73 Q1220.31 135.026 1220.31 137.063 Q1220.31 139.147 1222.26 140.443 Q1224.23 141.739 1227.72 141.739 Q1229.87 141.739 1231.84 141.323 Q1233.81 140.883 1235.45 140.026 L1235.45 143.985 Q1233.37 144.633 1231.43 144.957 Q1229.46 145.281 1227.61 145.281 Q1222.1 145.281 1219.11 143.174 Q1216.12 141.068 1216.12 137.063 Q1216.12 134.563 1217.72 132.874 Q1219.32 131.184 1222.19 130.628 Z" fill="#000000" fill-rule="nonzero" fill-opacity="1" /><path clip-path="url(#clip690)" d="M1244.87 141.971 L1254.69 141.971 L1254.69 144.61 L1240.85 144.61 L1240.85 142.063 Q1241.63 141.346 1243.09 140.049 Q1251.05 132.989 1251.05 130.813 Q1251.05 129.286 1249.85 128.36 Q1248.65 127.411 1246.68 127.411 Q1245.48 127.411 1244.06 127.827 Q1242.65 128.221 1240.99 129.031 L1240.99 126.184 Q1242.77 125.536 1244.3 125.212 Q1245.85 124.887 1247.17 124.887 Q1250.52 124.887 1252.54 126.415 Q1254.55 127.943 1254.55 130.443 Q1254.55 133.661 1246.89 140.235 Q1245.59 141.346 1244.87 141.971 Z" fill="#000000" fill-rule="nonzero" fill-opacity="1" /><path clip-path="url(#clip690)" d="M1287.44 108.638 Q1284.34 113.962 1282.84 119.17 Q1281.33 124.378 1281.33 129.725 Q1281.33 135.073 1282.84 140.327 Q1284.36 145.559 1287.44 150.86 L1283.74 150.86 Q1280.27 145.42 1278.53 140.165 Q1276.82 134.911 1276.82 129.725 Q1276.82 124.563 1278.53 119.332 Q1280.24 114.1 1283.74 108.638 L1287.44 108.638 Z" fill="#000000" fill-rule="nonzero" fill-opacity="1" /><path clip-path="url(#clip690)" d="M1296.45 143.892 L1296.45 139.633 Q1298.21 140.466 1300.01 140.906 Q1301.82 141.346 1303.55 141.346 Q1308.18 141.346 1310.61 138.244 Q1313.07 135.119 1313.42 128.776 Q1312.07 130.767 1310.01 131.832 Q1307.95 132.897 1305.45 132.897 Q1300.27 132.897 1297.24 129.772 Q1294.23 126.624 1294.23 121.184 Q1294.23 115.86 1297.37 112.642 Q1300.52 109.425 1305.75 109.425 Q1311.75 109.425 1314.9 114.031 Q1318.07 118.614 1318.07 127.364 Q1318.07 135.536 1314.18 140.42 Q1310.31 145.281 1303.76 145.281 Q1302 145.281 1300.2 144.934 Q1298.39 144.586 1296.45 143.892 M1305.75 129.239 Q1308.9 129.239 1310.73 127.086 Q1312.58 124.934 1312.58 121.184 Q1312.58 117.457 1310.73 115.304 Q1308.9 113.128 1305.75 113.128 Q1302.61 113.128 1300.75 115.304 Q1298.93 117.457 1298.93 121.184 Q1298.93 124.934 1300.75 127.086 Q1302.61 129.239 1305.75 129.239 Z" fill="#000000" fill-rule="nonzero" fill-opacity="1" /><path clip-path="url(#clip690)" d="M1326.52 110.05 L1344.87 110.05 L1344.87 113.985 L1330.8 113.985 L1330.8 122.457 Q1331.82 122.11 1332.84 121.948 Q1333.86 121.762 1334.87 121.762 Q1340.66 121.762 1344.04 124.934 Q1347.42 128.105 1347.42 133.522 Q1347.42 139.1 1343.95 142.202 Q1340.48 145.281 1334.16 145.281 Q1331.98 145.281 1329.71 144.91 Q1327.47 144.54 1325.06 143.799 L1325.06 139.1 Q1327.14 140.235 1329.36 140.79 Q1331.59 141.346 1334.06 141.346 Q1338.07 141.346 1340.41 139.239 Q1342.74 137.133 1342.74 133.522 Q1342.74 129.911 1340.41 127.804 Q1338.07 125.698 1334.06 125.698 Q1332.19 125.698 1330.31 126.114 Q1328.46 126.531 1326.52 127.411 L1326.52 110.05 Z" fill="#000000" fill-rule="nonzero" fill-opacity="1" /><path clip-path="url(#clip690)" d="M1386.03 129.401 Q1384.02 129.401 1382.86 131.114 Q1381.73 132.827 1381.73 135.883 Q1381.73 138.892 1382.86 140.628 Q1384.02 142.341 1386.03 142.341 Q1388 142.341 1389.13 140.628 Q1390.29 138.892 1390.29 135.883 Q1390.29 132.85 1389.13 131.137 Q1388 129.401 1386.03 129.401 M1386.03 126.462 Q1389.69 126.462 1391.84 129.008 Q1393.99 131.554 1393.99 135.883 Q1393.99 140.211 1391.82 142.758 Q1389.67 145.281 1386.03 145.281 Q1382.33 145.281 1380.17 142.758 Q1378.02 140.211 1378.02 135.883 Q1378.02 131.531 1380.17 129.008 Q1382.35 126.462 1386.03 126.462 M1362.14 112.364 Q1360.15 112.364 1358.99 114.1 Q1357.86 115.813 1357.86 118.823 Q1357.86 121.878 1358.99 123.591 Q1360.13 125.304 1362.14 125.304 Q1364.16 125.304 1365.29 123.591 Q1366.45 121.878 1366.45 118.823 Q1366.45 115.837 1365.29 114.1 Q1364.13 112.364 1362.14 112.364 M1383.04 109.425 L1386.75 109.425 L1365.13 145.281 L1361.42 145.281 L1383.04 109.425 M1362.14 109.425 Q1365.8 109.425 1367.98 111.971 Q1370.15 114.494 1370.15 118.823 Q1370.15 123.198 1367.98 125.721 Q1365.82 128.244 1362.14 128.244 Q1358.46 128.244 1356.31 125.721 Q1354.18 123.174 1354.18 118.823 Q1354.18 114.517 1356.33 111.971 Q1358.48 109.425 1362.14 109.425 Z" fill="#000000" fill-rule="nonzero" fill-opacity="1" /><path clip-path="url(#clip690)" d="M1400.41 108.638 L1404.11 108.638 Q1407.58 114.1 1409.29 119.332 Q1411.03 124.563 1411.03 129.725 Q1411.03 134.911 1409.29 140.165 Q1407.58 145.42 1404.11 150.86 L1400.41 150.86 Q1403.48 145.559 1404.99 140.327 Q1406.52 135.073 1406.52 129.725 Q1406.52 124.378 1404.99 119.17 Q1403.48 113.962 1400.41 108.638 Z" fill="#000000" fill-rule="nonzero" fill-opacity="1" /><polyline clip-path="url(#clip690)" style="stroke:#e26f46; stroke-linecap:round; stroke-linejoin:round; stroke-width:4; stroke-opacity:1; fill:none" points="1109.77,179.17 1200.93,179.17 "/>
<path clip-path="url(#clip690)" d="M1222.19 182.468 Q1219.6 181.913 1218.21 180.408 Q1216.82 178.926 1216.82 176.774 Q1216.82 173.51 1219.46 171.681 Q1222.07 169.876 1226.61 169.876 Q1228.37 169.876 1230.34 170.153 Q1232.31 170.431 1234.57 170.987 L1234.57 174.852 Q1232.33 174.181 1230.48 173.88 Q1228.6 173.579 1226.96 173.579 Q1224.2 173.579 1222.61 174.644 Q1220.99 175.709 1220.99 177.19 Q1220.99 178.811 1222.56 179.852 Q1224.11 180.871 1226.8 180.871 L1230.38 180.871 L1230.38 184.389 L1226.96 184.389 Q1223.79 184.389 1222.12 185.57 Q1220.31 186.866 1220.31 188.903 Q1220.31 190.987 1222.26 192.283 Q1224.23 193.579 1227.72 193.579 Q1229.87 193.579 1231.84 193.163 Q1233.81 192.723 1235.45 191.866 L1235.45 195.825 Q1233.37 196.473 1231.43 196.797 Q1229.46 197.121 1227.61 197.121 Q1222.1 197.121 1219.11 195.014 Q1216.12 192.908 1216.12 188.903 Q1216.12 186.403 1217.72 184.714 Q1219.32 183.024 1222.19 182.468 Z" fill="#000000" fill-rule="nonzero" fill-opacity="1" /><path clip-path="url(#clip690)" d="M1242.28 193.903 L1247 193.903 L1247 179.76 L1241.84 180.709 L1241.84 178.024 L1247.17 177.121 L1250.34 177.121 L1250.34 193.903 L1255.08 193.903 L1255.08 196.45 L1242.28 196.45 L1242.28 193.903 Z" fill="#000000" fill-rule="nonzero" fill-opacity="1" /><path clip-path="url(#clip690)" d="M1299.39 182.422 L1299.39 184.505 L1279.8 184.505 Q1280.08 188.903 1282.44 191.218 Q1284.83 193.51 1289.06 193.51 Q1291.52 193.51 1293.81 192.908 Q1296.12 192.306 1298.39 191.102 L1298.39 195.13 Q1296.1 196.102 1293.69 196.612 Q1291.29 197.121 1288.81 197.121 Q1282.61 197.121 1278.97 193.51 Q1275.36 189.899 1275.36 183.741 Q1275.36 177.376 1278.79 173.649 Q1282.24 169.899 1288.07 169.899 Q1293.3 169.899 1296.33 173.278 Q1299.39 176.635 1299.39 182.422 M1295.13 181.172 Q1295.08 177.677 1293.16 175.593 Q1291.26 173.51 1288.11 173.51 Q1284.55 173.51 1282.4 175.524 Q1280.27 177.538 1279.94 181.195 L1295.13 181.172 Z" fill="#000000" fill-rule="nonzero" fill-opacity="1" /><path clip-path="url(#clip690)" d="M1327.1 170.524 L1317.72 183.139 L1327.58 196.45 L1322.56 196.45 L1315.01 186.264 L1307.47 196.45 L1302.44 196.45 L1312.51 182.885 L1303.3 170.524 L1308.32 170.524 L1315.2 179.76 L1322.07 170.524 L1327.1 170.524 Z" fill="#000000" fill-rule="nonzero" fill-opacity="1" /><path clip-path="url(#clip690)" d="M1337.81 163.163 L1337.81 170.524 L1346.59 170.524 L1346.59 173.834 L1337.81 173.834 L1337.81 187.908 Q1337.81 191.079 1338.67 191.982 Q1339.55 192.885 1342.21 192.885 L1346.59 192.885 L1346.59 196.45 L1342.21 196.45 Q1337.28 196.45 1335.41 194.621 Q1333.53 192.769 1333.53 187.908 L1333.53 173.834 L1330.41 173.834 L1330.41 170.524 L1333.53 170.524 L1333.53 163.163 L1337.81 163.163 Z" fill="#000000" fill-rule="nonzero" fill-opacity="1" /><path clip-path="url(#clip690)" d="M1374.36 182.422 L1374.36 184.505 L1354.78 184.505 Q1355.06 188.903 1357.42 191.218 Q1359.8 193.51 1364.04 193.51 Q1366.49 193.51 1368.79 192.908 Q1371.1 192.306 1373.37 191.102 L1373.37 195.13 Q1371.08 196.102 1368.67 196.612 Q1366.26 197.121 1363.79 197.121 Q1357.58 197.121 1353.95 193.51 Q1350.34 189.899 1350.34 183.741 Q1350.34 177.376 1353.76 173.649 Q1357.21 169.899 1363.05 169.899 Q1368.28 169.899 1371.31 173.278 Q1374.36 176.635 1374.36 182.422 M1370.11 181.172 Q1370.06 177.677 1368.14 175.593 Q1366.24 173.51 1363.09 173.51 Q1359.53 173.51 1357.37 175.524 Q1355.24 177.538 1354.92 181.195 L1370.11 181.172 Z" fill="#000000" fill-rule="nonzero" fill-opacity="1" /><path clip-path="url(#clip690)" d="M1402.91 180.801 L1402.91 196.45 L1398.65 196.45 L1398.65 180.94 Q1398.65 177.26 1397.21 175.431 Q1395.78 173.602 1392.91 173.602 Q1389.46 173.602 1387.47 175.802 Q1385.48 178.001 1385.48 181.797 L1385.48 196.45 L1381.19 196.45 L1381.19 170.524 L1385.48 170.524 L1385.48 174.552 Q1387 172.214 1389.06 171.056 Q1391.15 169.899 1393.86 169.899 Q1398.32 169.899 1400.61 172.677 Q1402.91 175.431 1402.91 180.801 Z" fill="#000000" fill-rule="nonzero" fill-opacity="1" /><path clip-path="url(#clip690)" d="M1428.46 174.459 L1428.46 160.431 L1432.72 160.431 L1432.72 196.45 L1428.46 196.45 L1428.46 192.561 Q1427.12 194.875 1425.06 196.01 Q1423.02 197.121 1420.15 197.121 Q1415.45 197.121 1412.49 193.371 Q1409.55 189.621 1409.55 183.51 Q1409.55 177.399 1412.49 173.649 Q1415.45 169.899 1420.15 169.899 Q1423.02 169.899 1425.06 171.033 Q1427.12 172.144 1428.46 174.459 M1413.95 183.51 Q1413.95 188.209 1415.87 190.894 Q1417.81 193.556 1421.19 193.556 Q1424.57 193.556 1426.52 190.894 Q1428.46 188.209 1428.46 183.51 Q1428.46 178.811 1426.52 176.149 Q1424.57 173.464 1421.19 173.464 Q1417.81 173.464 1415.87 176.149 Q1413.95 178.811 1413.95 183.51 Z" fill="#000000" fill-rule="nonzero" fill-opacity="1" /><path clip-path="url(#clip690)" d="M1463.67 182.422 L1463.67 184.505 L1444.09 184.505 Q1444.36 188.903 1446.73 191.218 Q1449.11 193.51 1453.35 193.51 Q1455.8 193.51 1458.09 192.908 Q1460.41 192.306 1462.67 191.102 L1462.67 195.13 Q1460.38 196.102 1457.98 196.612 Q1455.57 197.121 1453.09 197.121 Q1446.89 197.121 1443.25 193.51 Q1439.64 189.899 1439.64 183.741 Q1439.64 177.376 1443.07 173.649 Q1446.52 169.899 1452.35 169.899 Q1457.58 169.899 1460.61 173.278 Q1463.67 176.635 1463.67 182.422 M1459.41 181.172 Q1459.36 177.677 1457.44 175.593 Q1455.54 173.51 1452.4 173.51 Q1448.83 173.51 1446.68 175.524 Q1444.55 177.538 1444.23 181.195 L1459.41 181.172 Z" fill="#000000" fill-rule="nonzero" fill-opacity="1" /><path clip-path="url(#clip690)" d="M1487.72 174.459 L1487.72 160.431 L1491.98 160.431 L1491.98 196.45 L1487.72 196.45 L1487.72 192.561 Q1486.38 194.875 1484.32 196.01 Q1482.28 197.121 1479.41 197.121 Q1474.71 197.121 1471.75 193.371 Q1468.81 189.621 1468.81 183.51 Q1468.81 177.399 1471.75 173.649 Q1474.71 169.899 1479.41 169.899 Q1482.28 169.899 1484.32 171.033 Q1486.38 172.144 1487.72 174.459 M1473.21 183.51 Q1473.21 188.209 1475.13 190.894 Q1477.07 193.556 1480.45 193.556 Q1483.83 193.556 1485.78 190.894 Q1487.72 188.209 1487.72 183.51 Q1487.72 178.811 1485.78 176.149 Q1483.83 173.464 1480.45 173.464 Q1477.07 173.464 1475.13 176.149 Q1473.21 178.811 1473.21 183.51 Z" fill="#000000" fill-rule="nonzero" fill-opacity="1" /><polyline clip-path="url(#clip690)" style="stroke:#3da44d; stroke-linecap:round; stroke-linejoin:round; stroke-width:4; stroke-opacity:1; fill:none" stroke-dasharray="16, 10" points="1109.77,231.01 1200.93,231.01 "/>
<path clip-path="url(#clip690)" d="M1222.19 234.308 Q1219.6 233.753 1218.21 232.248 Q1216.82 230.766 1216.82 228.614 Q1216.82 225.35 1219.46 223.521 Q1222.07 221.716 1226.61 221.716 Q1228.37 221.716 1230.34 221.993 Q1232.31 222.271 1234.57 222.827 L1234.57 226.692 Q1232.33 226.021 1230.48 225.72 Q1228.6 225.419 1226.96 225.419 Q1224.2 225.419 1222.61 226.484 Q1220.99 227.549 1220.99 229.03 Q1220.99 230.651 1222.56 231.692 Q1224.11 232.711 1226.8 232.711 L1230.38 232.711 L1230.38 236.229 L1226.96 236.229 Q1223.79 236.229 1222.12 237.41 Q1220.31 238.706 1220.31 240.743 Q1220.31 242.827 1222.26 244.123 Q1224.23 245.419 1227.72 245.419 Q1229.87 245.419 1231.84 245.003 Q1233.81 244.563 1235.45 243.706 L1235.45 247.665 Q1233.37 248.313 1231.43 248.637 Q1229.46 248.961 1227.61 248.961 Q1222.1 248.961 1219.11 246.854 Q1216.12 244.748 1216.12 240.743 Q1216.12 238.243 1217.72 236.554 Q1219.32 234.864 1222.19 234.308 Z" fill="#000000" fill-rule="nonzero" fill-opacity="1" /><path clip-path="url(#clip690)" d="M1244.87 245.651 L1254.69 245.651 L1254.69 248.29 L1240.85 248.29 L1240.85 245.743 Q1241.63 245.026 1243.09 243.729 Q1251.05 236.669 1251.05 234.493 Q1251.05 232.966 1249.85 232.04 Q1248.65 231.091 1246.68 231.091 Q1245.48 231.091 1244.06 231.507 Q1242.65 231.901 1240.99 232.711 L1240.99 229.864 Q1242.77 229.216 1244.3 228.892 Q1245.85 228.567 1247.17 228.567 Q1250.52 228.567 1252.54 230.095 Q1254.55 231.623 1254.55 234.123 Q1254.55 237.341 1246.89 243.915 Q1245.59 245.026 1244.87 245.651 Z" fill="#000000" fill-rule="nonzero" fill-opacity="1" /><path clip-path="url(#clip690)" d="M1299.39 234.262 L1299.39 236.345 L1279.8 236.345 Q1280.08 240.743 1282.44 243.058 Q1284.83 245.35 1289.06 245.35 Q1291.52 245.35 1293.81 244.748 Q1296.12 244.146 1298.39 242.942 L1298.39 246.97 Q1296.1 247.942 1293.69 248.452 Q1291.29 248.961 1288.81 248.961 Q1282.61 248.961 1278.97 245.35 Q1275.36 241.739 1275.36 235.581 Q1275.36 229.216 1278.79 225.489 Q1282.24 221.739 1288.07 221.739 Q1293.3 221.739 1296.33 225.118 Q1299.39 228.475 1299.39 234.262 M1295.13 233.012 Q1295.08 229.517 1293.16 227.433 Q1291.26 225.35 1288.11 225.35 Q1284.55 225.35 1282.4 227.364 Q1280.27 229.378 1279.94 233.035 L1295.13 233.012 Z" fill="#000000" fill-rule="nonzero" fill-opacity="1" /><path clip-path="url(#clip690)" d="M1327.1 222.364 L1317.72 234.979 L1327.58 248.29 L1322.56 248.29 L1315.01 238.104 L1307.47 248.29 L1302.44 248.29 L1312.51 234.725 L1303.3 222.364 L1308.32 222.364 L1315.2 231.6 L1322.07 222.364 L1327.1 222.364 Z" fill="#000000" fill-rule="nonzero" fill-opacity="1" /><path clip-path="url(#clip690)" d="M1337.81 215.003 L1337.81 222.364 L1346.59 222.364 L1346.59 225.674 L1337.81 225.674 L1337.81 239.748 Q1337.81 242.919 1338.67 243.822 Q1339.55 244.725 1342.21 244.725 L1346.59 244.725 L1346.59 248.29 L1342.21 248.29 Q1337.28 248.29 1335.41 246.461 Q1333.53 244.609 1333.53 239.748 L1333.53 225.674 L1330.41 225.674 L1330.41 222.364 L1333.53 222.364 L1333.53 215.003 L1337.81 215.003 Z" fill="#000000" fill-rule="nonzero" fill-opacity="1" /><path clip-path="url(#clip690)" d="M1374.36 234.262 L1374.36 236.345 L1354.78 236.345 Q1355.06 240.743 1357.42 243.058 Q1359.8 245.35 1364.04 245.35 Q1366.49 245.35 1368.79 244.748 Q1371.1 244.146 1373.37 242.942 L1373.37 246.97 Q1371.08 247.942 1368.67 248.452 Q1366.26 248.961 1363.79 248.961 Q1357.58 248.961 1353.95 245.35 Q1350.34 241.739 1350.34 235.581 Q1350.34 229.216 1353.76 225.489 Q1357.21 221.739 1363.05 221.739 Q1368.28 221.739 1371.31 225.118 Q1374.36 228.475 1374.36 234.262 M1370.11 233.012 Q1370.06 229.517 1368.14 227.433 Q1366.24 225.35 1363.09 225.35 Q1359.53 225.35 1357.37 227.364 Q1355.24 229.378 1354.92 233.035 L1370.11 233.012 Z" fill="#000000" fill-rule="nonzero" fill-opacity="1" /><path clip-path="url(#clip690)" d="M1402.91 232.641 L1402.91 248.29 L1398.65 248.29 L1398.65 232.78 Q1398.65 229.1 1397.21 227.271 Q1395.78 225.442 1392.91 225.442 Q1389.46 225.442 1387.47 227.642 Q1385.48 229.841 1385.48 233.637 L1385.48 248.29 L1381.19 248.29 L1381.19 222.364 L1385.48 222.364 L1385.48 226.392 Q1387 224.054 1389.06 222.896 Q1391.15 221.739 1393.86 221.739 Q1398.32 221.739 1400.61 224.517 Q1402.91 227.271 1402.91 232.641 Z" fill="#000000" fill-rule="nonzero" fill-opacity="1" /><path clip-path="url(#clip690)" d="M1428.46 226.299 L1428.46 212.271 L1432.72 212.271 L1432.72 248.29 L1428.46 248.29 L1428.46 244.401 Q1427.12 246.715 1425.06 247.85 Q1423.02 248.961 1420.15 248.961 Q1415.45 248.961 1412.49 245.211 Q1409.55 241.461 1409.55 235.35 Q1409.55 229.239 1412.49 225.489 Q1415.45 221.739 1420.15 221.739 Q1423.02 221.739 1425.06 222.873 Q1427.12 223.984 1428.46 226.299 M1413.95 235.35 Q1413.95 240.049 1415.87 242.734 Q1417.81 245.396 1421.19 245.396 Q1424.57 245.396 1426.52 242.734 Q1428.46 240.049 1428.46 235.35 Q1428.46 230.651 1426.52 227.989 Q1424.57 225.304 1421.19 225.304 Q1417.81 225.304 1415.87 227.989 Q1413.95 230.651 1413.95 235.35 Z" fill="#000000" fill-rule="nonzero" fill-opacity="1" /><path clip-path="url(#clip690)" d="M1463.67 234.262 L1463.67 236.345 L1444.09 236.345 Q1444.36 240.743 1446.73 243.058 Q1449.11 245.35 1453.35 245.35 Q1455.8 245.35 1458.09 244.748 Q1460.41 244.146 1462.67 242.942 L1462.67 246.97 Q1460.38 247.942 1457.98 248.452 Q1455.57 248.961 1453.09 248.961 Q1446.89 248.961 1443.25 245.35 Q1439.64 241.739 1439.64 235.581 Q1439.64 229.216 1443.07 225.489 Q1446.52 221.739 1452.35 221.739 Q1457.58 221.739 1460.61 225.118 Q1463.67 228.475 1463.67 234.262 M1459.41 233.012 Q1459.36 229.517 1457.44 227.433 Q1455.54 225.35 1452.4 225.35 Q1448.83 225.35 1446.68 227.364 Q1444.55 229.378 1444.23 233.035 L1459.41 233.012 Z" fill="#000000" fill-rule="nonzero" fill-opacity="1" /><path clip-path="url(#clip690)" d="M1487.72 226.299 L1487.72 212.271 L1491.98 212.271 L1491.98 248.29 L1487.72 248.29 L1487.72 244.401 Q1486.38 246.715 1484.32 247.85 Q1482.28 248.961 1479.41 248.961 Q1474.71 248.961 1471.75 245.211 Q1468.81 241.461 1468.81 235.35 Q1468.81 229.239 1471.75 225.489 Q1474.71 221.739 1479.41 221.739 Q1482.28 221.739 1484.32 222.873 Q1486.38 223.984 1487.72 226.299 M1473.21 235.35 Q1473.21 240.049 1475.13 242.734 Q1477.07 245.396 1480.45 245.396 Q1483.83 245.396 1485.78 242.734 Q1487.72 240.049 1487.72 235.35 Q1487.72 230.651 1485.78 227.989 Q1483.83 225.304 1480.45 225.304 Q1477.07 225.304 1475.13 227.989 Q1473.21 230.651 1473.21 235.35 Z" fill="#000000" fill-rule="nonzero" fill-opacity="1" /></svg>
