<?xml version="1.0" encoding="utf-8"?>
<svg xmlns="http://www.w3.org/2000/svg" xmlns:xlink="http://www.w3.org/1999/xlink" width="400" height="250" viewBox="0 0 1600 1000">
<defs>
  <clipPath id="clip570">
    <rect x="0" y="0" width="1600" height="1000"/>
  </clipPath>
</defs>
<path clip-path="url(#clip570)" d="M0 1000 L1600 1000 L1600 0 L0 0  Z" fill="#ffffff" fill-rule="evenodd" fill-opacity="1"/>
<defs>
  <clipPath id="clip571">
    <rect x="185" y="47" width="1368" height="848"/>
  </clipPath>
</defs>
<path clip-path="url(#clip570)" d="M185.288 894.608 L1552.76 894.608 L1552.76 47.2441 L185.288 47.2441  Z" fill="#ffffff" fill-rule="evenodd" fill-opacity="1"/>
<polyline clip-path="url(#clip571)" style="stroke:#000000; stroke-linecap:round; stroke-linejoin:round; stroke-width:2; stroke-opacity:0.1; fill:none" points="223.99,894.608 223.99,47.2441 "/>
<polyline clip-path="url(#clip571)" style="stroke:#000000; stroke-linecap:round; stroke-linejoin:round; stroke-width:2; stroke-opacity:0.1; fill:none" points="439,894.608 439,47.2441 "/>
<polyline clip-path="url(#clip571)" style="stroke:#000000; stroke-linecap:round; stroke-linejoin:round; stroke-width:2; stroke-opacity:0.1; fill:none" points="654.011,894.608 654.011,47.2441 "/>
<polyline clip-path="url(#clip571)" style="stroke:#000000; stroke-linecap:round; stroke-linejoin:round; stroke-width:2; stroke-opacity:0.1; fill:none" points="869.022,894.608 869.022,47.2441 "/>
<polyline clip-path="url(#clip571)" style="stroke:#000000; stroke-linecap:round; stroke-linejoin:round; stroke-width:2; stroke-opacity:0.1; fill:none" points="1084.03,894.608 1084.03,47.2441 "/>
<polyline clip-path="url(#clip571)" style="stroke:#000000; stroke-linecap:round; stroke-linejoin:round; stroke-width:2; stroke-opacity:0.1; fill:none" points="1299.04,894.608 1299.04,47.2441 "/>
<polyline clip-path="url(#clip571)" style="stroke:#000000; stroke-linecap:round; stroke-linejoin:round; stroke-width:2; stroke-opacity:0.1; fill:none" points="1514.05,894.608 1514.05,47.2441 "/>
<polyline clip-path="url(#clip571)" style="stroke:#000000; stroke-linecap:round; stroke-linejoin:round; stroke-width:2; stroke-opacity:0.1; fill:none" points="185.288,758.178 1552.76,758.178 "/>
<polyline clip-path="url(#clip571)" style="stroke:#000000; stroke-linecap:round; stroke-linejoin:round; stroke-width:2; stroke-opacity:0.1; fill:none" points="185.288,599.65 1552.76,599.65 "/>
<polyline clip-path="url(#clip571)" style="stroke:#000000; stroke-linecap:round; stroke-linejoin:round; stroke-width:2; stroke-opacity:0.1; fill:none" points="185.288,441.123 1552.76,441.123 "/>
<polyline clip-path="url(#clip571)" style="stroke:#000000; stroke-linecap:round; stroke-linejoin:round; stroke-width:2; stroke-opacity:0.1; fill:none" points="185.288,282.596 1552.76,282.596 "/>
<polyline clip-path="url(#clip571)" style="stroke:#000000; stroke-linecap:round; stroke-linejoin:round; stroke-width:2; stroke-opacity:0.1; fill:none" points="185.288,124.069 1552.76,124.069 "/>
<polyline clip-path="url(#clip570)" style="stroke:#000000; stroke-linecap:round; stroke-linejoin:round; stroke-width:4; stroke-opacity:1; fill:none" points="185.288,894.608 1552.76,894.608 "/>
<polyline clip-path="url(#clip570)" style="stroke:#000000; stroke-linecap:round; stroke-linejoin:round; stroke-width:4; stroke-opacity:1; fill:none" points="223.99,894.608 223.99,875.71 "/>
<polyline clip-path="url(#clip570)" style="stroke:#000000; stroke-linecap:round; stroke-linejoin:round; stroke-width:4; stroke-opacity:1; fill:none" points="439,894.608 439,875.71 "/>
<polyline clip-path="url(#clip570)" style="stroke:#000000; stroke-linecap:round; stroke-linejoin:round; stroke-width:4; stroke-opacity:1; fill:none" points="654.011,894.608 654.011,875.71 "/>
<polyline clip-path="url(#clip570)" style="stroke:#000000; stroke-linecap:round; stroke-linejoin:round; stroke-width:4; stroke-opacity:1; fill:none" points="869.022,894.608 869.022,875.71 "/>
<polyline clip-path="url(#clip570)" style="stroke:#000000; stroke-linecap:round; stroke-linejoin:round; stroke-width:4; stroke-opacity:1; fill:none" points="1084.03,894.608 1084.03,875.71 "/>
<polyline clip-path="url(#clip570)" style="stroke:#000000; stroke-linecap:round; stroke-linejoin:round; stroke-width:4; stroke-opacity:1; fill:none" points="1299.04,894.608 1299.04,875.71 "/>
<polyline clip-path="url(#clip570)" style="stroke:#000000; stroke-linecap:round; stroke-linejoin:round; stroke-width:4; stroke-opacity:1; fill:none" points="1514.05,894.608 1514.05,875.71 "/>
<path clip-path="url(#clip570)" d="M223.99 919.127 Q220.379 919.127 218.55 922.691 Q216.744 926.233 216.744 933.363 Q216.744 940.469 218.55 944.034 Q220.379 947.575 223.99 947.575 Q227.624 947.575 229.43 944.034 Q231.258 940.469 231.258 933.363 Q231.258 926.233 229.43 922.691 Q227.624 919.127 223.99 919.127 M223.99 915.423 Q229.8 915.423 232.855 920.029 Q235.934 924.613 235.934 933.363 Q235.934 942.089 232.855 946.696 Q229.8 951.279 223.99 951.279 Q218.18 951.279 215.101 946.696 Q212.045 942.089 212.045 933.363 Q212.045 924.613 215.101 920.029 Q218.18 915.423 223.99 915.423 Z" fill="#000000" fill-rule="nonzero" fill-opacity="1" /><path clip-path="url(#clip570)" d="M429.382 946.673 L437.021 946.673 L437.021 920.307 L428.711 921.974 L428.711 917.715 L436.975 916.048 L441.651 916.048 L441.651 946.673 L449.29 946.673 L449.29 950.608 L429.382 950.608 L429.382 946.673 Z" fill="#000000" fill-rule="nonzero" fill-opacity="1" /><path clip-path="url(#clip570)" d="M648.664 946.673 L664.983 946.673 L664.983 950.608 L643.039 950.608 L643.039 946.673 Q645.701 943.918 650.284 939.288 Q654.891 934.636 656.071 933.293 Q658.317 930.77 659.196 929.034 Q660.099 927.275 660.099 925.585 Q660.099 922.83 658.155 921.094 Q656.233 919.358 653.132 919.358 Q650.932 919.358 648.479 920.122 Q646.048 920.886 643.27 922.437 L643.27 917.715 Q646.095 916.58 648.548 916.002 Q651.002 915.423 653.039 915.423 Q658.409 915.423 661.604 918.108 Q664.798 920.793 664.798 925.284 Q664.798 927.414 663.988 929.335 Q663.201 931.233 661.094 933.826 Q660.516 934.497 657.414 937.714 Q654.312 940.909 648.664 946.673 Z" fill="#000000" fill-rule="nonzero" fill-opacity="1" /><path clip-path="url(#clip570)" d="M873.27 931.974 Q876.626 932.691 878.501 934.96 Q880.399 937.228 880.399 940.562 Q880.399 945.677 876.881 948.478 Q873.362 951.279 866.881 951.279 Q864.705 951.279 862.39 950.839 Q860.098 950.423 857.645 949.566 L857.645 945.052 Q859.589 946.187 861.904 946.765 Q864.219 947.344 866.742 947.344 Q871.14 947.344 873.432 945.608 Q875.746 943.872 875.746 940.562 Q875.746 937.506 873.594 935.793 Q871.464 934.057 867.645 934.057 L863.617 934.057 L863.617 930.214 L867.83 930.214 Q871.279 930.214 873.108 928.849 Q874.936 927.46 874.936 924.867 Q874.936 922.205 873.038 920.793 Q871.163 919.358 867.645 919.358 Q865.723 919.358 863.524 919.775 Q861.325 920.191 858.686 921.071 L858.686 916.904 Q861.348 916.164 863.663 915.793 Q866.001 915.423 868.061 915.423 Q873.385 915.423 876.487 917.853 Q879.589 920.261 879.589 924.381 Q879.589 927.252 877.945 929.242 Q876.302 931.21 873.27 931.974 Z" fill="#000000" fill-rule="nonzero" fill-opacity="1" /><path clip-path="url(#clip570)" d="M1087.04 920.122 L1075.24 938.571 L1087.04 938.571 L1087.04 920.122 M1085.81 916.048 L1091.69 916.048 L1091.69 938.571 L1096.63 938.571 L1096.63 942.46 L1091.69 942.46 L1091.69 950.608 L1087.04 950.608 L1087.04 942.46 L1071.44 942.46 L1071.44 937.946 L1085.81 916.048 Z" fill="#000000" fill-rule="nonzero" fill-opacity="1" /><path clip-path="url(#clip570)" d="M1289.32 916.048 L1307.68 916.048 L1307.68 919.983 L1293.6 919.983 L1293.6 928.455 Q1294.62 928.108 1295.64 927.946 Q1296.66 927.761 1297.68 927.761 Q1303.46 927.761 1306.84 930.932 Q1310.22 934.103 1310.22 939.52 Q1310.22 945.099 1306.75 948.2 Q1303.28 951.279 1296.96 951.279 Q1294.78 951.279 1292.52 950.909 Q1290.27 950.538 1287.86 949.798 L1287.86 945.099 Q1289.95 946.233 1292.17 946.788 Q1294.39 947.344 1296.87 947.344 Q1300.87 947.344 1303.21 945.238 Q1305.55 943.131 1305.55 939.52 Q1305.55 935.909 1303.21 933.802 Q1300.87 931.696 1296.87 931.696 Q1294.99 931.696 1293.12 932.113 Q1291.27 932.529 1289.32 933.409 L1289.32 916.048 Z" fill="#000000" fill-rule="nonzero" fill-opacity="1" /><path clip-path="url(#clip570)" d="M1514.46 931.464 Q1511.31 931.464 1509.46 933.617 Q1507.63 935.77 1507.63 939.52 Q1507.63 943.247 1509.46 945.423 Q1511.31 947.575 1514.46 947.575 Q1517.61 947.575 1519.44 945.423 Q1521.29 943.247 1521.29 939.52 Q1521.29 935.77 1519.44 933.617 Q1517.61 931.464 1514.46 931.464 M1523.74 916.812 L1523.74 921.071 Q1521.98 920.238 1520.18 919.798 Q1518.39 919.358 1516.63 919.358 Q1512.01 919.358 1509.55 922.483 Q1507.12 925.608 1506.77 931.927 Q1508.14 929.914 1510.2 928.849 Q1512.26 927.761 1514.74 927.761 Q1519.95 927.761 1522.95 930.932 Q1525.99 934.08 1525.99 939.52 Q1525.99 944.844 1522.84 948.062 Q1519.69 951.279 1514.46 951.279 Q1508.46 951.279 1505.29 946.696 Q1502.12 942.089 1502.12 933.363 Q1502.12 925.168 1506.01 920.307 Q1509.9 915.423 1516.45 915.423 Q1518.21 915.423 1519.99 915.77 Q1521.8 916.117 1523.74 916.812 Z" fill="#000000" fill-rule="nonzero" fill-opacity="1" /><polyline clip-path="url(#clip570)" style="stroke:#000000; stroke-linecap:round; stroke-linejoin:round; stroke-width:4; stroke-opacity:1; fill:none" points="185.288,894.608 185.288,47.2441 "/>
<polyline clip-path="url(#clip570)" style="stroke:#000000; stroke-linecap:round; stroke-linejoin:round; stroke-width:4; stroke-opacity:1; fill:none" points="185.288,758.178 204.185,758.178 "/>
<polyline clip-path="url(#clip570)" style="stroke:#000000; stroke-linecap:round; stroke-linejoin:round; stroke-width:4; stroke-opacity:1; fill:none" points="185.288,599.65 204.185,599.65 "/>
<polyline clip-path="url(#clip570)" style="stroke:#000000; stroke-linecap:round; stroke-linejoin:round; stroke-width:4; stroke-opacity:1; fill:none" points="185.288,441.123 204.185,441.123 "/>
<polyline clip-path="url(#clip570)" style="stroke:#000000; stroke-linecap:round; stroke-linejoin:round; stroke-width:4; stroke-opacity:1; fill:none" points="185.288,282.596 204.185,282.596 "/>
<polyline clip-path="url(#clip570)" style="stroke:#000000; stroke-linecap:round; stroke-linejoin:round; stroke-width:4; stroke-opacity:1; fill:none" points="185.288,124.069 204.185,124.069 "/>
<path clip-path="url(#clip570)" d="M54.9921 758.629 L84.6679 758.629 L84.6679 762.564 L54.9921 762.564 L54.9921 758.629 Z" fill="#000000" fill-rule="nonzero" fill-opacity="1" /><path clip-path="url(#clip570)" d="M104.76 743.976 Q101.149 743.976 99.3206 747.541 Q97.515 751.083 97.515 758.212 Q97.515 765.319 99.3206 768.884 Q101.149 772.425 104.76 772.425 Q108.395 772.425 110.2 768.884 Q112.029 765.319 112.029 758.212 Q112.029 751.083 110.2 747.541 Q108.395 743.976 104.76 743.976 M104.76 740.273 Q110.571 740.273 113.626 744.879 Q116.705 749.462 116.705 758.212 Q116.705 766.939 113.626 771.546 Q110.571 776.129 104.76 776.129 Q98.9502 776.129 95.8715 771.546 Q92.816 766.939 92.816 758.212 Q92.816 749.462 95.8715 744.879 Q98.9502 740.273 104.76 740.273 Z" fill="#000000" fill-rule="nonzero" fill-opacity="1" /><path clip-path="url(#clip570)" d="M124.922 769.578 L129.807 769.578 L129.807 775.458 L124.922 775.458 L124.922 769.578 Z" fill="#000000" fill-rule="nonzero" fill-opacity="1" /><path clip-path="url(#clip570)" d="M154.158 756.824 Q157.515 757.541 159.39 759.81 Q161.288 762.078 161.288 765.411 Q161.288 770.527 157.769 773.328 Q154.251 776.129 147.769 776.129 Q145.593 776.129 143.279 775.689 Q140.987 775.273 138.533 774.416 L138.533 769.902 Q140.478 771.036 142.793 771.615 Q145.107 772.194 147.631 772.194 Q152.029 772.194 154.32 770.458 Q156.635 768.722 156.635 765.411 Q156.635 762.356 154.482 760.643 Q152.353 758.907 148.533 758.907 L144.506 758.907 L144.506 755.064 L148.718 755.064 Q152.168 755.064 153.996 753.699 Q155.825 752.31 155.825 749.717 Q155.825 747.055 153.927 745.643 Q152.052 744.208 148.533 744.208 Q146.612 744.208 144.413 744.625 Q142.214 745.041 139.575 745.921 L139.575 741.754 Q142.237 741.013 144.552 740.643 Q146.89 740.273 148.95 740.273 Q154.274 740.273 157.376 742.703 Q160.478 745.111 160.478 749.231 Q160.478 752.101 158.834 754.092 Q157.191 756.06 154.158 756.824 Z" fill="#000000" fill-rule="nonzero" fill-opacity="1" /><path clip-path="url(#clip570)" d="M104.112 585.449 Q100.501 585.449 98.6724 589.014 Q96.8669 592.556 96.8669 599.685 Q96.8669 606.792 98.6724 610.356 Q100.501 613.898 104.112 613.898 Q107.746 613.898 109.552 610.356 Q111.381 606.792 111.381 599.685 Q111.381 592.556 109.552 589.014 Q107.746 585.449 104.112 585.449 M104.112 581.745 Q109.922 581.745 112.978 586.352 Q116.057 590.935 116.057 599.685 Q116.057 608.412 112.978 613.018 Q109.922 617.602 104.112 617.602 Q98.3021 617.602 95.2234 613.018 Q92.1679 608.412 92.1679 599.685 Q92.1679 590.935 95.2234 586.352 Q98.3021 581.745 104.112 581.745 Z" fill="#000000" fill-rule="nonzero" fill-opacity="1" /><path clip-path="url(#clip570)" d="M124.274 611.051 L129.158 611.051 L129.158 616.93 L124.274 616.93 L124.274 611.051 Z" fill="#000000" fill-rule="nonzero" fill-opacity="1" /><path clip-path="url(#clip570)" d="M149.343 585.449 Q145.732 585.449 143.904 589.014 Q142.098 592.556 142.098 599.685 Q142.098 606.792 143.904 610.356 Q145.732 613.898 149.343 613.898 Q152.978 613.898 154.783 610.356 Q156.612 606.792 156.612 599.685 Q156.612 592.556 154.783 589.014 Q152.978 585.449 149.343 585.449 M149.343 581.745 Q155.154 581.745 158.209 586.352 Q161.288 590.935 161.288 599.685 Q161.288 608.412 158.209 613.018 Q155.154 617.602 149.343 617.602 Q143.533 617.602 140.455 613.018 Q137.399 608.412 137.399 599.685 Q137.399 590.935 140.455 586.352 Q143.533 581.745 149.343 581.745 Z" fill="#000000" fill-rule="nonzero" fill-opacity="1" /><path clip-path="url(#clip570)" d="M104.76 426.922 Q101.149 426.922 99.3206 430.487 Q97.515 434.028 97.515 441.158 Q97.515 448.264 99.3206 451.829 Q101.149 455.371 104.76 455.371 Q108.395 455.371 110.2 451.829 Q112.029 448.264 112.029 441.158 Q112.029 434.028 110.2 430.487 Q108.395 426.922 104.76 426.922 M104.76 423.218 Q110.571 423.218 113.626 427.825 Q116.705 432.408 116.705 441.158 Q116.705 449.885 113.626 454.491 Q110.571 459.074 104.76 459.074 Q98.9502 459.074 95.8715 454.491 Q92.816 449.885 92.816 441.158 Q92.816 432.408 95.8715 427.825 Q98.9502 423.218 104.76 423.218 Z" fill="#000000" fill-rule="nonzero" fill-opacity="1" /><path clip-path="url(#clip570)" d="M124.922 452.524 L129.807 452.524 L129.807 458.403 L124.922 458.403 L124.922 452.524 Z" fill="#000000" fill-rule="nonzero" fill-opacity="1" /><path clip-path="url(#clip570)" d="M154.158 439.769 Q157.515 440.487 159.39 442.755 Q161.288 445.024 161.288 448.357 Q161.288 453.473 157.769 456.274 Q154.251 459.074 147.769 459.074 Q145.593 459.074 143.279 458.635 Q140.987 458.218 138.533 457.361 L138.533 452.848 Q140.478 453.982 142.793 454.561 Q145.107 455.139 147.631 455.139 Q152.029 455.139 154.32 453.403 Q156.635 451.667 156.635 448.357 Q156.635 445.301 154.482 443.588 Q152.353 441.852 148.533 441.852 L144.506 441.852 L144.506 438.01 L148.718 438.01 Q152.168 438.01 153.996 436.644 Q155.825 435.255 155.825 432.663 Q155.825 430 153.927 428.588 Q152.052 427.153 148.533 427.153 Q146.612 427.153 144.413 427.57 Q142.214 427.987 139.575 428.866 L139.575 424.7 Q142.237 423.959 144.552 423.588 Q146.89 423.218 148.95 423.218 Q154.274 423.218 157.376 425.649 Q160.478 428.056 160.478 432.176 Q160.478 435.047 158.834 437.037 Q157.191 439.005 154.158 439.769 Z" fill="#000000" fill-rule="nonzero" fill-opacity="1" /><path clip-path="url(#clip570)" d="M103.95 268.395 Q100.339 268.395 98.5104 271.959 Q96.7049 275.501 96.7049 282.631 Q96.7049 289.737 98.5104 293.302 Q100.339 296.843 103.95 296.843 Q107.584 296.843 109.39 293.302 Q111.219 289.737 111.219 282.631 Q111.219 275.501 109.39 271.959 Q107.584 268.395 103.95 268.395 M103.95 264.691 Q109.76 264.691 112.816 269.297 Q115.895 273.881 115.895 282.631 Q115.895 291.357 112.816 295.964 Q109.76 300.547 103.95 300.547 Q98.14 300.547 95.0614 295.964 Q92.0058 291.357 92.0058 282.631 Q92.0058 273.881 95.0614 269.297 Q98.14 264.691 103.95 264.691 Z" fill="#000000" fill-rule="nonzero" fill-opacity="1" /><path clip-path="url(#clip570)" d="M124.112 293.996 L128.996 293.996 L128.996 299.876 L124.112 299.876 L124.112 293.996 Z" fill="#000000" fill-rule="nonzero" fill-opacity="1" /><path clip-path="url(#clip570)" d="M149.76 280.732 Q146.612 280.732 144.76 282.885 Q142.931 285.038 142.931 288.788 Q142.931 292.515 144.76 294.691 Q146.612 296.843 149.76 296.843 Q152.908 296.843 154.737 294.691 Q156.589 292.515 156.589 288.788 Q156.589 285.038 154.737 282.885 Q152.908 280.732 149.76 280.732 M159.042 266.08 L159.042 270.339 Q157.283 269.506 155.478 269.066 Q153.695 268.626 151.936 268.626 Q147.306 268.626 144.853 271.751 Q142.422 274.876 142.075 281.195 Q143.441 279.181 145.501 278.117 Q147.561 277.029 150.038 277.029 Q155.246 277.029 158.255 280.2 Q161.288 283.348 161.288 288.788 Q161.288 294.112 158.14 297.33 Q154.992 300.547 149.76 300.547 Q143.765 300.547 140.594 295.964 Q137.422 291.357 137.422 282.631 Q137.422 274.436 141.311 269.575 Q145.2 264.691 151.751 264.691 Q153.51 264.691 155.293 265.038 Q157.098 265.385 159.042 266.08 Z" fill="#000000" fill-rule="nonzero" fill-opacity="1" /><path clip-path="url(#clip570)" d="M104.297 109.867 Q100.686 109.867 98.8576 113.432 Q97.0521 116.974 97.0521 124.103 Q97.0521 131.21 98.8576 134.774 Q100.686 138.316 104.297 138.316 Q107.932 138.316 109.737 134.774 Q111.566 131.21 111.566 124.103 Q111.566 116.974 109.737 113.432 Q107.932 109.867 104.297 109.867 M104.297 106.164 Q110.108 106.164 113.163 110.77 Q116.242 115.353 116.242 124.103 Q116.242 132.83 113.163 137.437 Q110.108 142.02 104.297 142.02 Q98.4873 142.02 95.4086 137.437 Q92.353 132.83 92.353 124.103 Q92.353 115.353 95.4086 110.77 Q98.4873 106.164 104.297 106.164 Z" fill="#000000" fill-rule="nonzero" fill-opacity="1" /><path clip-path="url(#clip570)" d="M124.459 135.469 L129.344 135.469 L129.344 141.349 L124.459 141.349 L124.459 135.469 Z" fill="#000000" fill-rule="nonzero" fill-opacity="1" /><path clip-path="url(#clip570)" d="M139.668 140.631 L139.668 136.372 Q141.427 137.205 143.232 137.645 Q145.038 138.085 146.774 138.085 Q151.404 138.085 153.834 134.983 Q156.288 131.858 156.635 125.515 Q155.293 127.506 153.232 128.571 Q151.172 129.636 148.672 129.636 Q143.487 129.636 140.455 126.511 Q137.445 123.363 137.445 117.923 Q137.445 112.599 140.594 109.381 Q143.742 106.164 148.973 106.164 Q154.968 106.164 158.117 110.77 Q161.288 115.353 161.288 124.103 Q161.288 132.274 157.399 137.159 Q153.533 142.02 146.982 142.02 Q145.223 142.02 143.418 141.673 Q141.612 141.325 139.668 140.631 M148.973 125.978 Q152.121 125.978 153.95 123.825 Q155.802 121.673 155.802 117.923 Q155.802 114.196 153.95 112.043 Q152.121 109.867 148.973 109.867 Q145.825 109.867 143.973 112.043 Q142.144 114.196 142.144 117.923 Q142.144 121.673 143.973 123.825 Q145.825 125.978 148.973 125.978 Z" fill="#000000" fill-rule="nonzero" fill-opacity="1" /><polyline clip-path="url(#clip571)" style="stroke:#009af9; stroke-linecap:round; stroke-linejoin:round; stroke-width:4; stroke-opacity:1; fill:none" points="223.99,599.65 236.89,599.65 249.791,599.65 262.692,599.65 275.592,599.65 288.493,599.65 301.394,599.65 314.294,599.65 327.195,599.65 340.096,599.65 352.996,599.65 365.897,599.65 378.797,599.65 391.698,599.65 404.599,599.65 417.499,599.65 430.4,599.65 443.301,599.65 456.201,599.65 469.102,599.65 482.003,599.65 494.903,599.65 507.804,599.65 520.705,599.65 533.605,599.65 546.506,599.65 559.406,599.65 572.307,599.65 585.208,599.65 598.108,599.65 611.009,599.65 623.91,599.65 636.81,599.65 649.711,599.65 662.612,578.513 675.512,546.808 688.413,515.103 701.314,483.397 714.214,451.692 727.115,419.986 740.015,388.281 752.916,356.575 765.817,324.87 778.717,293.164 791.618,261.459 804.519,229.753 817.419,198.048 830.32,166.342 843.221,134.637 856.121,102.932 869.022,71.2261 881.923,102.932 894.823,134.637 907.724,166.342 920.624,198.048 933.525,229.753 946.426,261.459 959.326,293.164 972.227,324.87 985.128,356.575 998.028,388.281 1010.93,419.986 1023.83,451.692 1036.73,483.397 1049.63,515.103 1062.53,546.808 1075.43,578.513 1088.33,599.65 1101.23,599.65 1114.13,599.65 1127.03,599.65 1139.94,599.65 1152.84,599.65 1165.74,599.65 1178.64,599.65 1191.54,599.65 1204.44,599.65 1217.34,599.65 1230.24,599.65 1243.14,599.65 1256.04,599.65 1268.94,599.65 1281.84,599.65 1294.74,599.65 1307.64,599.65 1320.54,599.65 1333.44,599.65 1346.35,599.65 1359.25,599.65 1372.15,599.65 1385.05,599.65 1397.95,599.65 1410.85,599.65 1423.75,599.65 1436.65,599.65 1449.55,599.65 1462.45,599.65 1475.35,599.65 1488.25,599.65 1501.15,599.65 1514.05,599.65 "/>
<polyline clip-path="url(#clip571)" style="stroke:#e26f46; stroke-linecap:round; stroke-linejoin:round; stroke-width:4; stroke-opacity:1; fill:none" points="223.99,599.65 236.89,599.65 249.791,599.65 262.692,599.65 275.592,599.65 288.493,599.65 301.394,599.65 314.294,599.65 327.195,599.65 340.096,599.65 352.996,599.65 365.897,599.65 378.797,599.65 391.698,599.65 404.599,599.65 417.499,599.65 430.4,599.65 443.301,599.65 456.201,599.65 469.102,599.65 482.003,599.651 494.903,599.65 507.804,599.65 520.705,599.652 533.605,599.653 546.506,599.644 559.406,599.635 572.307,599.688 585.208,599.742 598.108,599.43 611.009,599.119 623.91,600.933 636.81,602.746 649.711,592.177 662.612,581.609 675.512,548.09 688.413,514.571 701.314,483.177 714.214,451.783 727.115,420.024 740.015,388.265 752.916,356.569 765.817,324.872 778.717,293.165 791.618,261.458 804.519,229.753 817.419,198.048 830.32,166.343 843.221,134.637 856.121,102.932 869.022,71.2261 881.923,102.932 894.823,134.637 907.724,166.343 920.624,198.048 933.525,229.753 946.426,261.458 959.326,293.165 972.227,324.872 985.128,356.569 998.028,388.265 1010.93,420.024 1023.83,451.783 1036.73,483.177 1049.63,514.571 1062.53,548.09 1075.43,581.609 1088.33,592.177 1101.23,602.746 1114.13,600.933 1127.03,599.119 1139.94,599.43 1152.84,599.742 1165.74,599.688 1178.64,599.635 1191.54,599.644 1204.44,599.653 1217.34,599.652 1230.24,599.65 1243.14,599.65 1256.04,599.651 1268.94,599.65 1281.84,599.65 1294.74,599.65 1307.64,599.65 1320.54,599.65 1333.44,599.65 1346.35,599.65 1359.25,599.65 1372.15,599.65 1385.05,599.65 1397.95,599.65 1410.85,599.65 1423.75,599.65 1436.65,599.65 1449.55,599.65 1462.45,599.65 1475.35,599.65 1488.25,599.65 1501.15,599.65 1514.05,599.65 "/>
<polyline clip-path="url(#clip571)" style="stroke:#3da44d; stroke-linecap:round; stroke-linejoin:round; stroke-width:4; stroke-opacity:1; fill:none" points="223.99,485.24 236.89,485.189 249.791,485.037 262.692,484.783 275.592,484.425 288.493,483.961 301.394,483.389 314.294,482.704 327.195,481.903 340.096,480.981 352.996,479.931 365.897,478.747 378.797,477.42 391.698,475.941 404.599,474.299 417.499,472.48 430.4,470.469 443.301,468.249 456.201,465.799 469.102,463.095 482.003,460.106 494.903,456.798 507.804,453.129 520.705,449.045 533.605,444.479 546.506,439.356 559.406,433.588 572.307,426.996 585.208,419.282 598.108,410.412 611.009,400.591 623.91,387.741 636.81,366.934 649.711,342.951 662.612,315.182 675.512,290.593 688.413,279.268 701.314,273.71 714.214,271.455 727.115,272.61 740.015,277.157 752.916,284.885 765.817,295.763 778.717,309.921 791.618,327.59 804.519,349.136 817.419,375.14 830.32,406.548 843.221,445.034 856.121,494.224 869.022,571.462 881.923,648.695 894.823,697.867 907.724,736.325 920.624,767.692 933.525,793.644 946.426,815.126 959.326,832.72 972.227,846.79 985.128,857.568 998.028,865.184 1010.93,869.607 1023.83,870.626 1036.73,868.222 1049.63,862.502 1062.53,851.002 1075.43,826.224 1088.33,798.254 1101.23,774.055 1114.13,753.018 1127.03,739.924 1139.94,729.844 1152.84,720.7 1165.74,712.697 1178.64,705.799 1191.54,699.709 1204.44,694.247 1217.34,689.325 1230.24,684.867 1243.14,680.805 1256.04,677.084 1268.94,673.663 1281.84,670.505 1294.74,667.581 1307.64,664.865 1320.54,662.334 1333.44,659.971 1346.35,657.759 1359.25,655.684 1372.15,653.734 1385.05,651.898 1397.95,650.166 1410.85,648.529 1423.75,646.981 1436.65,645.514 1449.55,644.122 1462.45,642.799 1475.35,641.542 1488.25,640.344 1501.15,639.202 1514.05,638.113 "/>
<path clip-path="url(#clip570)" d="M1170.64 282.85 L1507.17 282.85 L1507.17 75.4896 L1170.64 75.4896  Z" fill="#ffffff" fill-rule="evenodd" fill-opacity="1"/>
<polyline clip-path="url(#clip570)" style="stroke:#000000; stroke-linecap:round; stroke-linejoin:round; stroke-width:4; stroke-opacity:1; fill:none" points="1170.64,282.85 1507.17,282.85 1507.17,75.4896 1170.64,75.4896 1170.64,282.85 "/>
<polyline clip-path="url(#clip570)" style="stroke:#009af9; stroke-linecap:round; stroke-linejoin:round; stroke-width:4; stroke-opacity:1; fill:none" points="1185.83,127.33 1276.99,127.33 "/>
<path clip-path="url(#clip570)" d="M1298.25 130.628 Q1295.66 130.073 1294.27 128.568 Q1292.88 127.086 1292.88 124.934 Q1292.88 121.67 1295.52 119.841 Q1298.14 118.036 1302.68 118.036 Q1304.43 118.036 1306.4 118.313 Q1308.37 118.591 1310.64 119.147 L1310.64 123.012 Q1308.39 122.341 1306.54 122.04 Q1304.67 121.739 1303.02 121.739 Q1300.27 121.739 1298.67 122.804 Q1297.05 123.869 1297.05 125.35 Q1297.05 126.971 1298.62 128.012 Q1300.18 129.031 1302.86 129.031 L1306.45 129.031 L1306.45 132.549 L1303.02 132.549 Q1299.85 132.549 1298.18 133.73 Q1296.38 135.026 1296.38 137.063 Q1296.38 139.147 1298.32 140.443 Q1300.29 141.739 1303.79 141.739 Q1305.94 141.739 1307.91 141.323 Q1309.87 140.883 1311.52 140.026 L1311.52 143.985 Q1309.43 144.633 1307.49 144.957 Q1305.52 145.281 1303.67 145.281 Q1298.16 145.281 1295.18 143.174 Q1292.19 141.068 1292.19 137.063 Q1292.19 134.563 1293.79 132.874 Q1295.38 131.184 1298.25 130.628 Z" fill="#000000" fill-rule="nonzero" fill-opacity="1" /><path clip-path="url(#clip570)" d="M1320.94 141.971 L1330.75 141.971 L1330.75 144.61 L1316.91 144.61 L1316.91 142.063 Q1317.7 141.346 1319.16 140.049 Q1327.12 132.989 1327.12 130.813 Q1327.12 129.286 1325.92 128.36 Q1324.71 127.411 1322.74 127.411 Q1321.54 127.411 1320.13 127.827 Q1318.72 128.221 1317.05 129.031 L1317.05 126.184 Q1318.83 125.536 1320.36 125.212 Q1321.91 124.887 1323.23 124.887 Q1326.59 124.887 1328.6 126.415 Q1330.61 127.943 1330.61 130.443 Q1330.61 133.661 1322.95 140.235 Q1321.66 141.346 1320.94 141.971 Z" fill="#000000" fill-rule="nonzero" fill-opacity="1" /><polyline clip-path="url(#clip570)" style="stroke:#e26f46; stroke-linecap:round; stroke-linejoin:round; stroke-width:4; stroke-opacity:1; fill:none" points="1185.83,179.17 1276.99,179.17 "/>
<path clip-path="url(#clip570)" d="M1298.25 182.468 Q1295.66 181.913 1294.27 180.408 Q1292.88 178.926 1292.88 176.774 Q1292.88 173.51 1295.52 171.681 Q1298.14 169.876 1302.68 169.876 Q1304.43 169.876 1306.4 170.153 Q1308.37 170.431 1310.64 170.987 L1310.64 174.852 Q1308.39 174.181 1306.54 173.88 Q1304.67 173.579 1303.02 173.579 Q1300.27 173.579 1298.67 174.644 Q1297.05 175.709 1297.05 177.19 Q1297.05 178.811 1298.62 179.852 Q1300.18 180.871 1302.86 180.871 L1306.45 180.871 L1306.45 184.389 L1303.02 184.389 Q1299.85 184.389 1298.18 185.57 Q1296.38 186.866 1296.38 188.903 Q1296.38 190.987 1298.32 192.283 Q1300.29 193.579 1303.79 193.579 Q1305.94 193.579 1307.91 193.163 Q1309.87 192.723 1311.52 191.866 L1311.52 195.825 Q1309.43 196.473 1307.49 196.797 Q1305.52 197.121 1303.67 197.121 Q1298.16 197.121 1295.18 195.014 Q1292.19 192.908 1292.19 188.903 Q1292.19 186.403 1293.79 184.714 Q1295.38 183.024 1298.25 182.468 Z" fill="#000000" fill-rule="nonzero" fill-opacity="1" /><path clip-path="url(#clip570)" d="M1320.94 193.811 L1330.75 193.811 L1330.75 196.45 L1316.91 196.45 L1316.91 193.903 Q1317.7 193.186 1319.16 191.889 Q1327.12 184.829 1327.12 182.653 Q1327.12 181.126 1325.92 180.2 Q1324.71 179.251 1322.74 179.251 Q1321.54 179.251 1320.13 179.667 Q1318.72 180.061 1317.05 180.871 L1317.05 178.024 Q1318.83 177.376 1320.36 177.052 Q1321.91 176.727 1323.23 176.727 Q1326.59 176.727 1328.6 178.255 Q1330.61 179.783 1330.61 182.283 Q1330.61 185.501 1322.95 192.075 Q1321.66 193.186 1320.94 193.811 Z" fill="#000000" fill-rule="nonzero" fill-opacity="1" /><path clip-path="url(#clip570)" d="M1373.46 175.501 Q1375.06 172.63 1377.28 171.265 Q1379.5 169.899 1382.51 169.899 Q1386.56 169.899 1388.76 172.746 Q1390.96 175.57 1390.96 180.801 L1390.96 196.45 L1386.68 196.45 L1386.68 180.94 Q1386.68 177.214 1385.36 175.408 Q1384.04 173.602 1381.33 173.602 Q1378.02 173.602 1376.1 175.802 Q1374.18 178.001 1374.18 181.797 L1374.18 196.45 L1369.9 196.45 L1369.9 180.94 Q1369.9 177.19 1368.58 175.408 Q1367.26 173.602 1364.5 173.602 Q1361.24 173.602 1359.32 175.825 Q1357.4 178.024 1357.4 181.797 L1357.4 196.45 L1353.11 196.45 L1353.11 170.524 L1357.4 170.524 L1357.4 174.552 Q1358.86 172.167 1360.89 171.033 Q1362.93 169.899 1365.73 169.899 Q1368.55 169.899 1370.52 171.334 Q1372.51 172.769 1373.46 175.501 Z" fill="#000000" fill-rule="nonzero" fill-opacity="1" /><path clip-path="url(#clip570)" d="M1409.5 173.51 Q1406.08 173.51 1404.09 176.195 Q1402.1 178.857 1402.1 183.51 Q1402.1 188.163 1404.06 190.848 Q1406.05 193.51 1409.5 193.51 Q1412.91 193.51 1414.9 190.825 Q1416.89 188.139 1416.89 183.51 Q1416.89 178.903 1414.9 176.218 Q1412.91 173.51 1409.5 173.51 M1409.5 169.899 Q1415.06 169.899 1418.23 173.51 Q1421.4 177.121 1421.4 183.51 Q1421.4 189.876 1418.23 193.51 Q1415.06 197.121 1409.5 197.121 Q1403.92 197.121 1400.75 193.51 Q1397.61 189.876 1397.61 183.51 Q1397.61 177.121 1400.75 173.51 Q1403.92 169.899 1409.5 169.899 Z" fill="#000000" fill-rule="nonzero" fill-opacity="1" /><path clip-path="url(#clip570)" d="M1445.52 174.459 L1445.52 160.431 L1449.78 160.431 L1449.78 196.45 L1445.52 196.45 L1445.52 192.561 Q1444.18 194.875 1442.12 196.01 Q1440.08 197.121 1437.21 197.121 Q1432.51 197.121 1429.55 193.371 Q1426.61 189.621 1426.61 183.51 Q1426.61 177.399 1429.55 173.649 Q1432.51 169.899 1437.21 169.899 Q1440.08 169.899 1442.12 171.033 Q1444.18 172.144 1445.52 174.459 M1431.01 183.51 Q1431.01 188.209 1432.93 190.894 Q1434.87 193.556 1438.25 193.556 Q1441.63 193.556 1443.58 190.894 Q1445.52 188.209 1445.52 183.51 Q1445.52 178.811 1443.58 176.149 Q1441.63 173.464 1438.25 173.464 Q1434.87 173.464 1432.93 176.149 Q1431.01 178.811 1431.01 183.51 Z" fill="#000000" fill-rule="nonzero" fill-opacity="1" /><path clip-path="url(#clip570)" d="M1480.73 182.422 L1480.73 184.505 L1461.15 184.505 Q1461.42 188.903 1463.79 191.218 Q1466.17 193.51 1470.41 193.51 Q1472.86 193.51 1475.15 192.908 Q1477.47 192.306 1479.73 191.102 L1479.73 195.13 Q1477.44 196.102 1475.04 196.612 Q1472.63 197.121 1470.15 197.121 Q1463.95 197.121 1460.31 193.51 Q1456.7 189.899 1456.7 183.741 Q1456.7 177.376 1460.13 173.649 Q1463.58 169.899 1469.41 169.899 Q1474.64 169.899 1477.67 173.278 Q1480.73 176.635 1480.73 182.422 M1476.47 181.172 Q1476.42 177.677 1474.5 175.593 Q1472.6 173.51 1469.46 173.51 Q1465.89 173.51 1463.74 175.524 Q1461.61 177.538 1461.29 181.195 L1476.47 181.172 Z" fill="#000000" fill-rule="nonzero" fill-opacity="1" /><path clip-path="url(#clip570)" d="M1487.72 160.431 L1491.98 160.431 L1491.98 196.45 L1487.72 196.45 L1487.72 160.431 Z" fill="#000000" fill-rule="nonzero" fill-opacity="1" /><polyline clip-path="url(#clip570)" style="stroke:#3da44d; stroke-linecap:round; stroke-linejoin:round; stroke-width:4; stroke-opacity:1; fill:none" points="1185.83,231.01 1276.99,231.01 "/>
<path clip-path="url(#clip570)" d="M1298.25 234.308 Q1295.66 233.753 1294.27 232.248 Q1292.88 230.766 1292.88 228.614 Q1292.88 225.35 1295.52 223.521 Q1298.14 221.716 1302.68 221.716 Q1304.43 221.716 1306.4 221.993 Q1308.37 222.271 1310.64 222.827 L1310.64 226.692 Q1308.39 226.021 1306.54 225.72 Q1304.67 225.419 1303.02 225.419 Q1300.27 225.419 1298.67 226.484 Q1297.05 227.549 1297.05 229.03 Q1297.05 230.651 1298.62 231.692 Q1300.18 232.711 1302.86 232.711 L1306.45 232.711 L1306.45 236.229 L1303.02 236.229 Q1299.85 236.229 1298.18 237.41 Q1296.38 238.706 1296.38 240.743 Q1296.38 242.827 1298.32 244.123 Q1300.29 245.419 1303.79 245.419 Q1305.94 245.419 1307.91 245.003 Q1309.87 244.563 1311.52 243.706 L1311.52 247.665 Q1309.43 248.313 1307.49 248.637 Q1305.52 248.961 1303.67 248.961 Q1298.16 248.961 1295.18 246.854 Q1292.19 244.748 1292.19 240.743 Q1292.19 238.243 1293.79 236.554 Q1295.38 234.864 1298.25 234.308 Z" fill="#000000" fill-rule="nonzero" fill-opacity="1" /><path clip-path="url(#clip570)" d="M1318.35 245.743 L1323.07 245.743 L1323.07 231.6 L1317.91 232.549 L1317.91 229.864 L1323.23 228.961 L1326.4 228.961 L1326.4 245.743 L1331.15 245.743 L1331.15 248.29 L1318.35 248.29 L1318.35 245.743 Z" fill="#000000" fill-rule="nonzero" fill-opacity="1" /><path clip-path="url(#clip570)" d="M1373.46 227.341 Q1375.06 224.47 1377.28 223.105 Q1379.5 221.739 1382.51 221.739 Q1386.56 221.739 1388.76 224.586 Q1390.96 227.41 1390.96 232.641 L1390.96 248.29 L1386.68 248.29 L1386.68 232.78 Q1386.68 229.054 1385.36 227.248 Q1384.04 225.442 1381.33 225.442 Q1378.02 225.442 1376.1 227.642 Q1374.18 229.841 1374.18 233.637 L1374.18 248.29 L1369.9 248.29 L1369.9 232.78 Q1369.9 229.03 1368.58 227.248 Q1367.26 225.442 1364.5 225.442 Q1361.24 225.442 1359.32 227.665 Q1357.4 229.864 1357.4 233.637 L1357.4 248.29 L1353.11 248.29 L1353.11 222.364 L1357.4 222.364 L1357.4 226.392 Q1358.86 224.007 1360.89 222.873 Q1362.93 221.739 1365.73 221.739 Q1368.55 221.739 1370.52 223.174 Q1372.51 224.609 1373.46 227.341 Z" fill="#000000" fill-rule="nonzero" fill-opacity="1" /><path clip-path="url(#clip570)" d="M1409.5 225.35 Q1406.08 225.35 1404.09 228.035 Q1402.1 230.697 1402.1 235.35 Q1402.1 240.003 1404.06 242.688 Q1406.05 245.35 1409.5 245.35 Q1412.91 245.35 1414.9 242.665 Q1416.89 239.979 1416.89 235.35 Q1416.89 230.743 1414.9 228.058 Q1412.91 225.35 1409.5 225.35 M1409.5 221.739 Q1415.06 221.739 1418.23 225.35 Q1421.4 228.961 1421.4 235.35 Q1421.4 241.716 1418.23 245.35 Q1415.06 248.961 1409.5 248.961 Q1403.92 248.961 1400.75 245.35 Q1397.61 241.716 1397.61 235.35 Q1397.61 228.961 1400.75 225.35 Q1403.92 221.739 1409.5 221.739 Z" fill="#000000" fill-rule="nonzero" fill-opacity="1" /><path clip-path="url(#clip570)" d="M1445.52 226.299 L1445.52 212.271 L1449.78 212.271 L1449.78 248.29 L1445.52 248.29 L1445.52 244.401 Q1444.18 246.715 1442.12 247.85 Q1440.08 248.961 1437.21 248.961 Q1432.51 248.961 1429.55 245.211 Q1426.61 241.461 1426.61 235.35 Q1426.61 229.239 1429.55 225.489 Q1432.51 221.739 1437.21 221.739 Q1440.08 221.739 1442.12 222.873 Q1444.18 223.984 1445.52 226.299 M1431.01 235.35 Q1431.01 240.049 1432.93 242.734 Q1434.87 245.396 1438.25 245.396 Q1441.63 245.396 1443.58 242.734 Q1445.52 240.049 1445.52 235.35 Q1445.52 230.651 1443.58 227.989 Q1441.63 225.304 1438.25 225.304 Q1434.87 225.304 1432.93 227.989 Q1431.01 230.651 1431.01 235.35 Z" fill="#000000" fill-rule="nonzero" fill-opacity="1" /><path clip-path="url(#clip570)" d="M1480.73 234.262 L1480.73 236.345 L1461.15 236.345 Q1461.42 240.743 1463.79 243.058 Q1466.17 245.35 1470.41 245.35 Q1472.86 245.35 1475.15 244.748 Q1477.47 244.146 1479.73 242.942 L1479.73 246.97 Q1477.44 247.942 1475.04 248.452 Q1472.63 248.961 1470.15 248.961 Q1463.95 248.961 1460.31 245.35 Q1456.7 241.739 1456.7 235.581 Q1456.7 229.216 1460.13 225.489 Q1463.58 221.739 1469.41 221.739 Q1474.64 221.739 1477.67 225.118 Q1480.73 228.475 1480.73 234.262 M1476.47 233.012 Q1476.42 229.517 1474.5 227.433 Q1472.6 225.35 1469.46 225.35 Q1465.89 225.35 1463.74 227.364 Q1461.61 229.378 1461.29 233.035 L1476.47 233.012 Z" fill="#000000" fill-rule="nonzero" fill-opacity="1" /><path clip-path="url(#clip570)" d="M1487.72 212.271 L1491.98 212.271 L1491.98 248.29 L1487.72 248.29 L1487.72 212.271 Z" fill="#000000" fill-rule="nonzero" fill-opacity="1" /></svg>
