<?xml version="1.0" encoding="utf-8"?>
<svg xmlns="http://www.w3.org/2000/svg" xmlns:xlink="http://www.w3.org/1999/xlink" width="400" height="500" viewBox="0 0 1600 2000">
<defs>
  <clipPath id="clip690">
    <rect x="0" y="0" width="1600" height="2000"/>
  </clipPath>
</defs>
<path clip-path="url(#clip690)" d="M0 2000 L1600 2000 L1600 0 L0 0  Z" fill="#ffffff" fill-rule="evenodd" fill-opacity="1"/>
<defs>
  <clipPath id="clip691">
    <rect x="400" y="200" width="1401" height="1401"/>
  </clipPath>
</defs>
<path clip-path="url(#clip690)" d="M251.964 865.168 L1552.76 865.168 L1552.76 47.2441 L251.964 47.2441  Z" fill="#ffffff" fill-rule="evenodd" fill-opacity="1"/>
<defs>
  <clipPath id="clip692">
    <rect x="251" y="47" width="1302" height="819"/>
  </clipPath>
</defs>
<polyline clip-path="url(#clip692)" style="stroke:#000000; stroke-linecap:round; stroke-linejoin:round; stroke-width:2; stroke-opacity:0.1; fill:none" points="288.779,865.168 288.779,47.2441 "/>
<polyline clip-path="url(#clip692)" style="stroke:#000000; stroke-linecap:round; stroke-linejoin:round; stroke-width:2; stroke-opacity:0.1; fill:none" points="493.306,865.168 493.306,47.2441 "/>
<polyline clip-path="url(#clip692)" style="stroke:#000000; stroke-linecap:round; stroke-linejoin:round; stroke-width:2; stroke-opacity:0.1; fill:none" points="697.833,865.168 697.833,47.2441 "/>
<polyline clip-path="url(#clip692)" style="stroke:#000000; stroke-linecap:round; stroke-linejoin:round; stroke-width:2; stroke-opacity:0.1; fill:none" points="902.36,865.168 902.36,47.2441 "/>
<polyline clip-path="url(#clip692)" style="stroke:#000000; stroke-linecap:round; stroke-linejoin:round; stroke-width:2; stroke-opacity:0.1; fill:none" points="1106.89,865.168 1106.89,47.2441 "/>
<polyline clip-path="url(#clip692)" style="stroke:#000000; stroke-linecap:round; stroke-linejoin:round; stroke-width:2; stroke-opacity:0.1; fill:none" points="1311.41,865.168 1311.41,47.2441 "/>
<polyline clip-path="url(#clip692)" style="stroke:#000000; stroke-linecap:round; stroke-linejoin:round; stroke-width:2; stroke-opacity:0.1; fill:none" points="1515.94,865.168 1515.94,47.2441 "/>
<polyline clip-path="url(#clip692)" style="stroke:#000000; stroke-linecap:round; stroke-linejoin:round; stroke-width:2; stroke-opacity:0.1; fill:none" points="251.964,842.019 1552.76,842.019 "/>
<polyline clip-path="url(#clip692)" style="stroke:#000000; stroke-linecap:round; stroke-linejoin:round; stroke-width:2; stroke-opacity:0.1; fill:none" points="251.964,649.113 1552.76,649.113 "/>
<polyline clip-path="url(#clip692)" style="stroke:#000000; stroke-linecap:round; stroke-linejoin:round; stroke-width:2; stroke-opacity:0.1; fill:none" points="251.964,456.206 1552.76,456.206 "/>
<polyline clip-path="url(#clip692)" style="stroke:#000000; stroke-linecap:round; stroke-linejoin:round; stroke-width:2; stroke-opacity:0.1; fill:none" points="251.964,263.299 1552.76,263.299 "/>
<polyline clip-path="url(#clip692)" style="stroke:#000000; stroke-linecap:round; stroke-linejoin:round; stroke-width:2; stroke-opacity:0.1; fill:none" points="251.964,70.3929 1552.76,70.3929 "/>
<polyline clip-path="url(#clip690)" style="stroke:#000000; stroke-linecap:round; stroke-linejoin:round; stroke-width:4; stroke-opacity:1; fill:none" points="251.964,865.168 1552.76,865.168 "/>
<polyline clip-path="url(#clip690)" style="stroke:#000000; stroke-linecap:round; stroke-linejoin:round; stroke-width:4; stroke-opacity:1; fill:none" points="288.779,865.168 288.779,846.27 "/>
<polyline clip-path="url(#clip690)" style="stroke:#000000; stroke-linecap:round; stroke-linejoin:round; stroke-width:4; stroke-opacity:1; fill:none" points="493.306,865.168 493.306,846.27 "/>
<polyline clip-path="url(#clip690)" style="stroke:#000000; stroke-linecap:round; stroke-linejoin:round; stroke-width:4; stroke-opacity:1; fill:none" points="697.833,865.168 697.833,846.27 "/>
<polyline clip-path="url(#clip690)" style="stroke:#000000; stroke-linecap:round; stroke-linejoin:round; stroke-width:4; stroke-opacity:1; fill:none" points="902.36,865.168 902.36,846.27 "/>
<polyline clip-path="url(#clip690)" style="stroke:#000000; stroke-linecap:round; stroke-linejoin:round; stroke-width:4; stroke-opacity:1; fill:none" points="1106.89,865.168 1106.89,846.27 "/>
<polyline clip-path="url(#clip690)" style="stroke:#000000; stroke-linecap:round; stroke-linejoin:round; stroke-width:4; stroke-opacity:1; fill:none" points="1311.41,865.168 1311.41,846.27 "/>
<polyline clip-path="url(#clip690)" style="stroke:#000000; stroke-linecap:round; stroke-linejoin:round; stroke-width:4; stroke-opacity:1; fill:none" points="1515.94,865.168 1515.94,846.27 "/>
<path clip-path="url(#clip690)" d="M288.779 892.887 Q285.168 892.887 283.339 896.451 Q281.534 899.993 281.534 907.123 Q281.534 914.229 283.339 917.794 Q285.168 921.335 288.779 921.335 Q292.413 921.335 294.219 917.794 Q296.047 914.229 296.047 907.123 Q296.047 899.993 294.219 896.451 Q292.413 892.887 288.779 892.887 M288.779 889.183 Q294.589 889.183 297.645 893.789 Q300.723 898.373 300.723 907.123 Q300.723 915.849 297.645 920.456 Q294.589 925.039 288.779 925.039 Q282.969 925.039 279.89 920.456 Q276.835 915.849 276.835 907.123 Q276.835 898.373 279.89 893.789 Q282.969 889.183 288.779 889.183 Z" fill="#000000" fill-rule="nonzero" fill-opacity="1" /><path clip-path="url(#clip690)" d="M483.688 920.433 L491.327 920.433 L491.327 894.067 L483.017 895.734 L483.017 891.475 L491.281 889.808 L495.956 889.808 L495.956 920.433 L503.595 920.433 L503.595 924.368 L483.688 924.368 L483.688 920.433 Z" fill="#000000" fill-rule="nonzero" fill-opacity="1" /><path clip-path="url(#clip690)" d="M692.486 920.433 L708.805 920.433 L708.805 924.368 L686.861 924.368 L686.861 920.433 Q689.523 917.678 694.106 913.048 Q698.713 908.396 699.893 907.053 Q702.139 904.53 703.018 902.794 Q703.921 901.035 703.921 899.345 Q703.921 896.59 701.977 894.854 Q700.055 893.118 696.953 893.118 Q694.754 893.118 692.301 893.882 Q689.87 894.646 687.092 896.197 L687.092 891.475 Q689.916 890.34 692.37 889.762 Q694.824 889.183 696.861 889.183 Q702.231 889.183 705.426 891.868 Q708.62 894.553 708.62 899.044 Q708.62 901.174 707.81 903.095 Q707.023 904.993 704.916 907.586 Q704.338 908.257 701.236 911.474 Q698.134 914.669 692.486 920.433 Z" fill="#000000" fill-rule="nonzero" fill-opacity="1" /><path clip-path="url(#clip690)" d="M906.608 905.734 Q909.964 906.451 911.839 908.72 Q913.737 910.988 913.737 914.322 Q913.737 919.437 910.219 922.238 Q906.7 925.039 900.219 925.039 Q898.043 925.039 895.728 924.599 Q893.436 924.183 890.983 923.326 L890.983 918.812 Q892.927 919.947 895.242 920.525 Q897.557 921.104 900.08 921.104 Q904.478 921.104 906.77 919.368 Q909.085 917.632 909.085 914.322 Q909.085 911.266 906.932 909.553 Q904.802 907.817 900.983 907.817 L896.955 907.817 L896.955 903.974 L901.168 903.974 Q904.617 903.974 906.446 902.609 Q908.274 901.22 908.274 898.627 Q908.274 895.965 906.376 894.553 Q904.501 893.118 900.983 893.118 Q899.061 893.118 896.862 893.535 Q894.663 893.951 892.024 894.831 L892.024 890.664 Q894.686 889.924 897.001 889.553 Q899.339 889.183 901.399 889.183 Q906.723 889.183 909.825 891.613 Q912.927 894.021 912.927 898.141 Q912.927 901.012 911.284 903.002 Q909.64 904.97 906.608 905.734 Z" fill="#000000" fill-rule="nonzero" fill-opacity="1" /><path clip-path="url(#clip690)" d="M1109.9 893.882 L1098.09 912.331 L1109.9 912.331 L1109.9 893.882 M1108.67 889.808 L1114.55 889.808 L1114.55 912.331 L1119.48 912.331 L1119.48 916.22 L1114.55 916.22 L1114.55 924.368 L1109.9 924.368 L1109.9 916.22 L1094.29 916.22 L1094.29 911.706 L1108.67 889.808 Z" fill="#000000" fill-rule="nonzero" fill-opacity="1" /><path clip-path="url(#clip690)" d="M1301.69 889.808 L1320.05 889.808 L1320.05 893.743 L1305.97 893.743 L1305.97 902.215 Q1306.99 901.868 1308.01 901.706 Q1309.03 901.521 1310.05 901.521 Q1315.84 901.521 1319.21 904.692 Q1322.59 907.863 1322.59 913.28 Q1322.59 918.859 1319.12 921.96 Q1315.65 925.039 1309.33 925.039 Q1307.15 925.039 1304.89 924.669 Q1302.64 924.298 1300.23 923.558 L1300.23 918.859 Q1302.32 919.993 1304.54 920.548 Q1306.76 921.104 1309.24 921.104 Q1313.24 921.104 1315.58 918.998 Q1317.92 916.891 1317.92 913.28 Q1317.92 909.669 1315.58 907.562 Q1313.24 905.456 1309.24 905.456 Q1307.36 905.456 1305.49 905.873 Q1303.64 906.289 1301.69 907.169 L1301.69 889.808 Z" fill="#000000" fill-rule="nonzero" fill-opacity="1" /><path clip-path="url(#clip690)" d="M1516.35 905.224 Q1513.2 905.224 1511.35 907.377 Q1509.52 909.53 1509.52 913.28 Q1509.52 917.007 1511.35 919.183 Q1513.2 921.335 1516.35 921.335 Q1519.49 921.335 1521.32 919.183 Q1523.17 917.007 1523.17 913.28 Q1523.17 909.53 1521.32 907.377 Q1519.49 905.224 1516.35 905.224 M1525.63 890.572 L1525.63 894.831 Q1523.87 893.998 1522.06 893.558 Q1520.28 893.118 1518.52 893.118 Q1513.89 893.118 1511.44 896.243 Q1509.01 899.368 1508.66 905.687 Q1510.03 903.674 1512.09 902.609 Q1514.15 901.521 1516.62 901.521 Q1521.83 901.521 1524.84 904.692 Q1527.87 907.84 1527.87 913.28 Q1527.87 918.604 1524.73 921.822 Q1521.58 925.039 1516.35 925.039 Q1510.35 925.039 1507.18 920.456 Q1504.01 915.849 1504.01 907.123 Q1504.01 898.928 1507.9 894.067 Q1511.79 889.183 1518.34 889.183 Q1520.1 889.183 1521.88 889.53 Q1523.68 889.877 1525.63 890.572 Z" fill="#000000" fill-rule="nonzero" fill-opacity="1" /><polyline clip-path="url(#clip690)" style="stroke:#000000; stroke-linecap:round; stroke-linejoin:round; stroke-width:4; stroke-opacity:1; fill:none" points="251.964,865.168 251.964,47.2441 "/>
<polyline clip-path="url(#clip690)" style="stroke:#000000; stroke-linecap:round; stroke-linejoin:round; stroke-width:4; stroke-opacity:1; fill:none" points="251.964,842.019 270.862,842.019 "/>
<polyline clip-path="url(#clip690)" style="stroke:#000000; stroke-linecap:round; stroke-linejoin:round; stroke-width:4; stroke-opacity:1; fill:none" points="251.964,649.113 270.862,649.113 "/>
<polyline clip-path="url(#clip690)" style="stroke:#000000; stroke-linecap:round; stroke-linejoin:round; stroke-width:4; stroke-opacity:1; fill:none" points="251.964,456.206 270.862,456.206 "/>
<polyline clip-path="url(#clip690)" style="stroke:#000000; stroke-linecap:round; stroke-linejoin:round; stroke-width:4; stroke-opacity:1; fill:none" points="251.964,263.299 270.862,263.299 "/>
<polyline clip-path="url(#clip690)" style="stroke:#000000; stroke-linecap:round; stroke-linejoin:round; stroke-width:4; stroke-opacity:1; fill:none" points="251.964,70.3929 270.862,70.3929 "/>
<path clip-path="url(#clip690)" d="M134.627 827.818 Q131.016 827.818 129.187 831.383 Q127.381 834.924 127.381 842.054 Q127.381 849.16 129.187 852.725 Q131.016 856.267 134.627 856.267 Q138.261 856.267 140.066 852.725 Q141.895 849.16 141.895 842.054 Q141.895 834.924 140.066 831.383 Q138.261 827.818 134.627 827.818 M134.627 824.114 Q140.437 824.114 143.492 828.721 Q146.571 833.304 146.571 842.054 Q146.571 850.781 143.492 855.387 Q140.437 859.97 134.627 859.97 Q128.816 859.97 125.738 855.387 Q122.682 850.781 122.682 842.054 Q122.682 833.304 125.738 828.721 Q128.816 824.114 134.627 824.114 Z" fill="#000000" fill-rule="nonzero" fill-opacity="1" /><path clip-path="url(#clip690)" d="M154.789 853.419 L159.673 853.419 L159.673 859.299 L154.789 859.299 L154.789 853.419 Z" fill="#000000" fill-rule="nonzero" fill-opacity="1" /><path clip-path="url(#clip690)" d="M179.858 827.818 Q176.247 827.818 174.418 831.383 Q172.613 834.924 172.613 842.054 Q172.613 849.16 174.418 852.725 Q176.247 856.267 179.858 856.267 Q183.492 856.267 185.298 852.725 Q187.126 849.16 187.126 842.054 Q187.126 834.924 185.298 831.383 Q183.492 827.818 179.858 827.818 M179.858 824.114 Q185.668 824.114 188.724 828.721 Q191.802 833.304 191.802 842.054 Q191.802 850.781 188.724 855.387 Q185.668 859.97 179.858 859.97 Q174.048 859.97 170.969 855.387 Q167.914 850.781 167.914 842.054 Q167.914 833.304 170.969 828.721 Q174.048 824.114 179.858 824.114 Z" fill="#000000" fill-rule="nonzero" fill-opacity="1" /><path clip-path="url(#clip690)" d="M210.02 827.818 Q206.409 827.818 204.58 831.383 Q202.774 834.924 202.774 842.054 Q202.774 849.16 204.58 852.725 Q206.409 856.267 210.02 856.267 Q213.654 856.267 215.46 852.725 Q217.288 849.16 217.288 842.054 Q217.288 834.924 215.46 831.383 Q213.654 827.818 210.02 827.818 M210.02 824.114 Q215.83 824.114 218.885 828.721 Q221.964 833.304 221.964 842.054 Q221.964 850.781 218.885 855.387 Q215.83 859.97 210.02 859.97 Q204.21 859.97 201.131 855.387 Q198.075 850.781 198.075 842.054 Q198.075 833.304 201.131 828.721 Q204.21 824.114 210.02 824.114 Z" fill="#000000" fill-rule="nonzero" fill-opacity="1" /><path clip-path="url(#clip690)" d="M135.622 634.911 Q132.011 634.911 130.182 638.476 Q128.377 642.018 128.377 649.147 Q128.377 656.254 130.182 659.818 Q132.011 663.36 135.622 663.36 Q139.256 663.36 141.062 659.818 Q142.89 656.254 142.89 649.147 Q142.89 642.018 141.062 638.476 Q139.256 634.911 135.622 634.911 M135.622 631.208 Q141.432 631.208 144.488 635.814 Q147.566 640.397 147.566 649.147 Q147.566 657.874 144.488 662.481 Q141.432 667.064 135.622 667.064 Q129.812 667.064 126.733 662.481 Q123.678 657.874 123.678 649.147 Q123.678 640.397 126.733 635.814 Q129.812 631.208 135.622 631.208 Z" fill="#000000" fill-rule="nonzero" fill-opacity="1" /><path clip-path="url(#clip690)" d="M155.784 660.513 L160.668 660.513 L160.668 666.393 L155.784 666.393 L155.784 660.513 Z" fill="#000000" fill-rule="nonzero" fill-opacity="1" /><path clip-path="url(#clip690)" d="M174.881 662.457 L191.2 662.457 L191.2 666.393 L169.256 666.393 L169.256 662.457 Q171.918 659.703 176.501 655.073 Q181.108 650.42 182.288 649.078 Q184.534 646.555 185.413 644.819 Q186.316 643.059 186.316 641.37 Q186.316 638.615 184.372 636.879 Q182.45 635.143 179.349 635.143 Q177.15 635.143 174.696 635.907 Q172.265 636.67 169.488 638.221 L169.488 633.499 Q172.312 632.365 174.765 631.786 Q177.219 631.208 179.256 631.208 Q184.626 631.208 187.821 633.893 Q191.015 636.578 191.015 641.069 Q191.015 643.198 190.205 645.12 Q189.418 647.018 187.312 649.61 Q186.733 650.282 183.631 653.499 Q180.529 656.694 174.881 662.457 Z" fill="#000000" fill-rule="nonzero" fill-opacity="1" /><path clip-path="url(#clip690)" d="M201.061 631.833 L219.418 631.833 L219.418 635.768 L205.344 635.768 L205.344 644.24 Q206.362 643.893 207.381 643.731 Q208.399 643.545 209.418 643.545 Q215.205 643.545 218.585 646.717 Q221.964 649.888 221.964 655.305 Q221.964 660.883 218.492 663.985 Q215.02 667.064 208.7 667.064 Q206.524 667.064 204.256 666.693 Q202.011 666.323 199.603 665.582 L199.603 660.883 Q201.686 662.018 203.909 662.573 Q206.131 663.129 208.608 663.129 Q212.612 663.129 214.95 661.022 Q217.288 658.916 217.288 655.305 Q217.288 651.694 214.95 649.587 Q212.612 647.481 208.608 647.481 Q206.733 647.481 204.858 647.897 Q203.006 648.314 201.061 649.194 L201.061 631.833 Z" fill="#000000" fill-rule="nonzero" fill-opacity="1" /><path clip-path="url(#clip690)" d="M134.627 442.005 Q131.016 442.005 129.187 445.569 Q127.381 449.111 127.381 456.241 Q127.381 463.347 129.187 466.912 Q131.016 470.454 134.627 470.454 Q138.261 470.454 140.066 466.912 Q141.895 463.347 141.895 456.241 Q141.895 449.111 140.066 445.569 Q138.261 442.005 134.627 442.005 M134.627 438.301 Q140.437 438.301 143.492 442.907 Q146.571 447.491 146.571 456.241 Q146.571 464.968 143.492 469.574 Q140.437 474.157 134.627 474.157 Q128.816 474.157 125.738 469.574 Q122.682 464.968 122.682 456.241 Q122.682 447.491 125.738 442.907 Q128.816 438.301 134.627 438.301 Z" fill="#000000" fill-rule="nonzero" fill-opacity="1" /><path clip-path="url(#clip690)" d="M154.789 467.606 L159.673 467.606 L159.673 473.486 L154.789 473.486 L154.789 467.606 Z" fill="#000000" fill-rule="nonzero" fill-opacity="1" /><path clip-path="url(#clip690)" d="M169.904 438.926 L188.261 438.926 L188.261 442.861 L174.187 442.861 L174.187 451.333 Q175.205 450.986 176.224 450.824 Q177.242 450.639 178.261 450.639 Q184.048 450.639 187.427 453.81 Q190.807 456.981 190.807 462.398 Q190.807 467.977 187.335 471.079 Q183.862 474.157 177.543 474.157 Q175.367 474.157 173.099 473.787 Q170.853 473.417 168.446 472.676 L168.446 467.977 Q170.529 469.111 172.751 469.667 Q174.974 470.222 177.45 470.222 Q181.455 470.222 183.793 468.116 Q186.131 466.009 186.131 462.398 Q186.131 458.787 183.793 456.681 Q181.455 454.574 177.45 454.574 Q175.576 454.574 173.701 454.991 Q171.849 455.407 169.904 456.287 L169.904 438.926 Z" fill="#000000" fill-rule="nonzero" fill-opacity="1" /><path clip-path="url(#clip690)" d="M210.02 442.005 Q206.409 442.005 204.58 445.569 Q202.774 449.111 202.774 456.241 Q202.774 463.347 204.58 466.912 Q206.409 470.454 210.02 470.454 Q213.654 470.454 215.46 466.912 Q217.288 463.347 217.288 456.241 Q217.288 449.111 215.46 445.569 Q213.654 442.005 210.02 442.005 M210.02 438.301 Q215.83 438.301 218.885 442.907 Q221.964 447.491 221.964 456.241 Q221.964 464.968 218.885 469.574 Q215.83 474.157 210.02 474.157 Q204.21 474.157 201.131 469.574 Q198.075 464.968 198.075 456.241 Q198.075 447.491 201.131 442.907 Q204.21 438.301 210.02 438.301 Z" fill="#000000" fill-rule="nonzero" fill-opacity="1" /><path clip-path="url(#clip690)" d="M135.622 249.098 Q132.011 249.098 130.182 252.663 Q128.377 256.205 128.377 263.334 Q128.377 270.441 130.182 274.005 Q132.011 277.547 135.622 277.547 Q139.256 277.547 141.062 274.005 Q142.89 270.441 142.89 263.334 Q142.89 256.205 141.062 252.663 Q139.256 249.098 135.622 249.098 M135.622 245.394 Q141.432 245.394 144.488 250.001 Q147.566 254.584 147.566 263.334 Q147.566 272.061 144.488 276.667 Q141.432 281.251 135.622 281.251 Q129.812 281.251 126.733 276.667 Q123.678 272.061 123.678 263.334 Q123.678 254.584 126.733 250.001 Q129.812 245.394 135.622 245.394 Z" fill="#000000" fill-rule="nonzero" fill-opacity="1" /><path clip-path="url(#clip690)" d="M155.784 274.7 L160.668 274.7 L160.668 280.579 L155.784 280.579 L155.784 274.7 Z" fill="#000000" fill-rule="nonzero" fill-opacity="1" /><path clip-path="url(#clip690)" d="M169.673 246.019 L191.895 246.019 L191.895 248.01 L179.349 280.579 L174.464 280.579 L186.27 249.955 L169.673 249.955 L169.673 246.019 Z" fill="#000000" fill-rule="nonzero" fill-opacity="1" /><path clip-path="url(#clip690)" d="M201.061 246.019 L219.418 246.019 L219.418 249.955 L205.344 249.955 L205.344 258.427 Q206.362 258.08 207.381 257.918 Q208.399 257.732 209.418 257.732 Q215.205 257.732 218.585 260.904 Q221.964 264.075 221.964 269.492 Q221.964 275.07 218.492 278.172 Q215.02 281.251 208.7 281.251 Q206.524 281.251 204.256 280.88 Q202.011 280.51 199.603 279.769 L199.603 275.07 Q201.686 276.204 203.909 276.76 Q206.131 277.316 208.608 277.316 Q212.612 277.316 214.95 275.209 Q217.288 273.103 217.288 269.492 Q217.288 265.88 214.95 263.774 Q212.612 261.667 208.608 261.667 Q206.733 261.667 204.858 262.084 Q203.006 262.501 201.061 263.38 L201.061 246.019 Z" fill="#000000" fill-rule="nonzero" fill-opacity="1" /><path clip-path="url(#clip690)" d="M125.437 83.7377 L133.076 83.7377 L133.076 57.3721 L124.766 59.0388 L124.766 54.7795 L133.029 53.1129 L137.705 53.1129 L137.705 83.7377 L145.344 83.7377 L145.344 87.6729 L125.437 87.6729 L125.437 83.7377 Z" fill="#000000" fill-rule="nonzero" fill-opacity="1" /><path clip-path="url(#clip690)" d="M154.789 81.7933 L159.673 81.7933 L159.673 87.6729 L154.789 87.6729 L154.789 81.7933 Z" fill="#000000" fill-rule="nonzero" fill-opacity="1" /><path clip-path="url(#clip690)" d="M179.858 56.1916 Q176.247 56.1916 174.418 59.7564 Q172.613 63.298 172.613 70.4276 Q172.613 77.534 174.418 81.0988 Q176.247 84.6405 179.858 84.6405 Q183.492 84.6405 185.298 81.0988 Q187.126 77.534 187.126 70.4276 Q187.126 63.298 185.298 59.7564 Q183.492 56.1916 179.858 56.1916 M179.858 52.4879 Q185.668 52.4879 188.724 57.0943 Q191.802 61.6776 191.802 70.4276 Q191.802 79.1544 188.724 83.7609 Q185.668 88.3442 179.858 88.3442 Q174.048 88.3442 170.969 83.7609 Q167.914 79.1544 167.914 70.4276 Q167.914 61.6776 170.969 57.0943 Q174.048 52.4879 179.858 52.4879 Z" fill="#000000" fill-rule="nonzero" fill-opacity="1" /><path clip-path="url(#clip690)" d="M210.02 56.1916 Q206.409 56.1916 204.58 59.7564 Q202.774 63.298 202.774 70.4276 Q202.774 77.534 204.58 81.0988 Q206.409 84.6405 210.02 84.6405 Q213.654 84.6405 215.46 81.0988 Q217.288 77.534 217.288 70.4276 Q217.288 63.298 215.46 59.7564 Q213.654 56.1916 210.02 56.1916 M210.02 52.4879 Q215.83 52.4879 218.885 57.0943 Q221.964 61.6776 221.964 70.4276 Q221.964 79.1544 218.885 83.7609 Q215.83 88.3442 210.02 88.3442 Q204.21 88.3442 201.131 83.7609 Q198.075 79.1544 198.075 70.4276 Q198.075 61.6776 201.131 57.0943 Q204.21 52.4879 210.02 52.4879 Z" fill="#000000" fill-rule="nonzero" fill-opacity="1" /><path clip-path="url(#clip690)" d="M55.7325 510.856 L73.1427 510.856 L73.1427 500.543 Q73.1427 495.355 71.0102 492.872 Q68.8459 490.358 64.4217 490.358 Q59.9657 490.358 57.865 492.872 Q55.7325 495.355 55.7325 500.543 L55.7325 510.856 M36.1898 510.856 L50.5126 510.856 L50.5126 501.339 Q50.5126 496.628 48.7621 494.337 Q46.9797 492.013 43.3512 492.013 Q39.7546 492.013 37.9722 494.337 Q36.1898 496.628 36.1898 501.339 L36.1898 510.856 M30.9063 517.285 L30.9063 500.861 Q30.9063 493.509 33.9618 489.53 Q37.0173 485.552 42.651 485.552 Q47.0115 485.552 49.5896 487.589 Q52.1677 489.626 52.8043 493.573 Q53.8228 488.83 57.0693 486.22 Q60.284 483.579 65.1219 483.579 Q71.4876 483.579 74.957 487.907 Q78.4263 492.236 78.4263 500.225 L78.4263 517.285 L30.9063 517.285 Z" fill="#000000" fill-rule="nonzero" fill-opacity="1" /><path clip-path="url(#clip690)" d="M28.9647 458.752 Q36.2853 463.017 43.4467 465.086 Q50.6081 467.155 57.9605 467.155 Q65.3129 467.155 72.538 465.086 Q79.7312 462.985 87.02 458.752 L87.02 463.845 Q79.5403 468.619 72.3152 471.006 Q65.0901 473.362 57.9605 473.362 Q50.8628 473.362 43.6695 471.006 Q36.4763 468.651 28.9647 463.845 L28.9647 458.752 Z" fill="#000000" fill-rule="nonzero" fill-opacity="1" /><path clip-path="url(#clip690)" d="M42.7783 417.757 L60.1249 430.648 L78.4263 417.089 L78.4263 423.996 L64.4217 434.372 L78.4263 444.748 L78.4263 451.655 L59.7747 437.809 L42.7783 450.477 L42.7783 443.57 L55.4779 434.117 L42.7783 424.664 L42.7783 417.757 Z" fill="#000000" fill-rule="nonzero" fill-opacity="1" /><path clip-path="url(#clip690)" d="M28.9647 409.736 L28.9647 404.644 Q36.4763 399.869 43.6695 397.514 Q50.8628 395.127 57.9605 395.127 Q65.0901 395.127 72.3152 397.514 Q79.5403 399.869 87.02 404.644 L87.02 409.736 Q79.7312 405.503 72.538 403.434 Q65.3129 401.334 57.9605 401.334 Q50.6081 401.334 43.4467 403.434 Q36.2853 405.503 28.9647 409.736 Z" fill="#000000" fill-rule="nonzero" fill-opacity="1" /><polyline clip-path="url(#clip692)" style="stroke:#009af9; stroke-linecap:round; stroke-linejoin:round; stroke-width:4; stroke-opacity:1; fill:none" points="288.779,70.3929 301.051,456.206 313.322,842.019 325.594,842.019 337.865,842.019 350.137,842.019 362.409,842.019 374.68,842.019 386.952,842.019 399.224,842.019 411.495,842.019 423.767,842.019 436.038,842.019 448.31,842.019 460.582,842.019 472.853,842.019 485.125,842.019 497.397,842.019 509.668,842.019 521.94,842.019 534.211,842.019 546.483,842.019 558.755,842.019 571.026,842.019 583.298,842.019 595.57,842.019 607.841,842.019 620.113,842.019 632.384,842.019 644.656,842.019 656.928,842.019 669.199,842.019 681.471,842.019 693.742,842.019 706.014,842.019 718.286,842.019 730.557,842.019 742.829,842.019 755.101,842.019 767.372,842.019 779.644,842.019 791.915,842.019 804.187,842.019 816.459,842.019 828.73,842.019 841.002,842.019 853.274,842.019 865.545,842.019 877.817,842.019 890.088,842.019 902.36,842.019 914.632,842.019 926.903,842.019 939.175,842.019 951.447,842.019 963.718,842.019 975.99,842.019 988.261,842.019 1000.53,842.019 1012.8,842.019 1025.08,842.019 1037.35,842.019 1049.62,842.019 1061.89,842.019 1074.16,842.019 1086.43,842.019 1098.71,842.019 1110.98,842.019 1123.25,842.019 1135.52,842.019 1147.79,842.019 1160.06,842.019 1172.34,842.019 1184.61,842.019 1196.88,842.019 1209.15,842.019 1221.42,842.019 1233.69,842.019 1245.97,842.019 1258.24,842.019 1270.51,842.019 1282.78,842.019 1295.05,842.019 1307.32,842.019 1319.6,842.019 1331.87,842.019 1344.14,842.019 1356.41,842.019 1368.68,842.019 1380.95,842.019 1393.22,842.019 1405.5,842.019 1417.77,842.019 1430.04,842.019 1442.31,842.019 1454.58,842.019 1466.85,842.019 1479.13,842.019 1491.4,842.019 1503.67,842.019 1515.94,842.019 "/>
<polyline clip-path="url(#clip692)" style="stroke:#e26f46; stroke-linecap:round; stroke-linejoin:round; stroke-width:4; stroke-opacity:1; fill:none" points="288.779,842.019 301.051,456.206 313.322,70.3929 325.594,456.206 337.865,842.019 350.137,842.019 362.409,842.019 374.68,842.019 386.952,842.019 399.224,842.019 411.495,842.019 423.767,842.019 436.038,842.019 448.31,842.019 460.582,842.019 472.853,842.019 485.125,842.019 497.397,842.019 509.668,842.019 521.94,842.019 534.211,842.019 546.483,842.019 558.755,842.019 571.026,842.019 583.298,842.019 595.57,842.019 607.841,842.019 620.113,842.019 632.384,842.019 644.656,842.019 656.928,842.019 669.199,842.019 681.471,842.019 693.742,842.019 706.014,842.019 718.286,842.019 730.557,842.019 742.829,842.019 755.101,842.019 767.372,842.019 779.644,842.019 791.915,842.019 804.187,842.019 816.459,842.019 828.73,842.019 841.002,842.019 853.274,842.019 865.545,842.019 877.817,842.019 890.088,842.019 902.36,842.019 914.632,842.019 926.903,842.019 939.175,842.019 951.447,842.019 963.718,842.019 975.99,842.019 988.261,842.019 1000.53,842.019 1012.8,842.019 1025.08,842.019 1037.35,842.019 1049.62,842.019 1061.89,842.019 1074.16,842.019 1086.43,842.019 1098.71,842.019 1110.98,842.019 1123.25,842.019 1135.52,842.019 1147.79,842.019 1160.06,842.019 1172.34,842.019 1184.61,842.019 1196.88,842.019 1209.15,842.019 1221.42,842.019 1233.69,842.019 1245.97,842.019 1258.24,842.019 1270.51,842.019 1282.78,842.019 1295.05,842.019 1307.32,842.019 1319.6,842.019 1331.87,842.019 1344.14,842.019 1356.41,842.019 1368.68,842.019 1380.95,842.019 1393.22,842.019 1405.5,842.019 1417.77,842.019 1430.04,842.019 1442.31,842.019 1454.58,842.019 1466.85,842.019 1479.13,842.019 1491.4,842.019 1503.67,842.019 1515.94,842.019 "/>
<polyline clip-path="url(#clip692)" style="stroke:#3da44d; stroke-linecap:round; stroke-linejoin:round; stroke-width:4; stroke-opacity:1; fill:none" points="288.779,842.019 301.051,842.019 313.322,842.019 325.594,456.206 337.865,70.3929 350.137,456.206 362.409,842.019 374.68,842.019 386.952,842.019 399.224,842.019 411.495,842.019 423.767,842.019 436.038,842.019 448.31,842.019 460.582,842.019 472.853,842.019 485.125,842.019 497.397,842.019 509.668,842.019 521.94,842.019 534.211,842.019 546.483,842.019 558.755,842.019 571.026,842.019 583.298,842.019 595.57,842.019 607.841,842.019 620.113,842.019 632.384,842.019 644.656,842.019 656.928,842.019 669.199,842.019 681.471,842.019 693.742,842.019 706.014,842.019 718.286,842.019 730.557,842.019 742.829,842.019 755.101,842.019 767.372,842.019 779.644,842.019 791.915,842.019 804.187,842.019 816.459,842.019 828.73,842.019 841.002,842.019 853.274,842.019 865.545,842.019 877.817,842.019 890.088,842.019 902.36,842.019 914.632,842.019 926.903,842.019 939.175,842.019 951.447,842.019 963.718,842.019 975.99,842.019 988.261,842.019 1000.53,842.019 1012.8,842.019 1025.08,842.019 1037.35,842.019 1049.62,842.019 1061.89,842.019 1074.16,842.019 1086.43,842.019 1098.71,842.019 1110.98,842.019 1123.25,842.019 1135.52,842.019 1147.79,842.019 1160.06,842.019 1172.34,842.019 1184.61,842.019 1196.88,842.019 1209.15,842.019 1221.42,842.019 1233.69,842.019 1245.97,842.019 1258.24,842.019 1270.51,842.019 1282.78,842.019 1295.05,842.019 1307.32,842.019 1319.6,842.019 1331.87,842.019 1344.14,842.019 1356.41,842.019 1368.68,842.019 1380.95,842.019 1393.22,842.019 1405.5,842.019 1417.77,842.019 1430.04,842.019 1442.31,842.019 1454.58,842.019 1466.85,842.019 1479.13,842.019 1491.4,842.019 1503.67,842.019 1515.94,842.019 "/>
<polyline clip-path="url(#clip692)" style="stroke:#c271d2; stroke-linecap:round; stroke-linejoin:round; stroke-width:4; stroke-opacity:1; fill:none" points="288.779,842.019 301.051,842.019 313.322,842.019 325.594,842.019 337.865,842.019 350.137,456.206 362.409,70.3929 374.68,456.206 386.952,842.019 399.224,842.019 411.495,842.019 423.767,842.019 436.038,842.019 448.31,842.019 460.582,842.019 472.853,842.019 485.125,842.019 497.397,842.019 509.668,842.019 521.94,842.019 534.211,842.019 546.483,842.019 558.755,842.019 571.026,842.019 583.298,842.019 595.57,842.019 607.841,842.019 620.113,842.019 632.384,842.019 644.656,842.019 656.928,842.019 669.199,842.019 681.471,842.019 693.742,842.019 706.014,842.019 718.286,842.019 730.557,842.019 742.829,842.019 755.101,842.019 767.372,842.019 779.644,842.019 791.915,842.019 804.187,842.019 816.459,842.019 828.73,842.019 841.002,842.019 853.274,842.019 865.545,842.019 877.817,842.019 890.088,842.019 902.36,842.019 914.632,842.019 926.903,842.019 939.175,842.019 951.447,842.019 963.718,842.019 975.99,842.019 988.261,842.019 1000.53,842.019 1012.8,842.019 1025.08,842.019 1037.35,842.019 1049.62,842.019 1061.89,842.019 1074.16,842.019 1086.43,842.019 1098.71,842.019 1110.98,842.019 1123.25,842.019 1135.52,842.019 1147.79,842.019 1160.06,842.019 1172.34,842.019 1184.61,842.019 1196.88,842.019 1209.15,842.019 1221.42,842.019 1233.69,842.019 1245.97,842.019 1258.24,842.019 1270.51,842.019 1282.78,842.019 1295.05,842.019 1307.32,842.019 1319.6,842.019 1331.87,842.019 1344.14,842.019 1356.41,842.019 1368.68,842.019 1380.95,842.019 1393.22,842.019 1405.5,842.019 1417.77,842.019 1430.04,842.019 1442.31,842.019 1454.58,842.019 1466.85,842.019 1479.13,842.019 1491.4,842.019 1503.67,842.019 1515.94,842.019 "/>
<polyline clip-path="url(#clip692)" style="stroke:#ac8d18; stroke-linecap:round; stroke-linejoin:round; stroke-width:4; stroke-opacity:1; fill:none" points="288.779,842.019 301.051,842.019 313.322,842.019 325.594,842.019 337.865,842.019 350.137,842.019 362.409,842.019 374.68,456.206 386.952,70.3929 399.224,456.206 411.495,842.019 423.767,842.019 436.038,842.019 448.31,842.019 460.582,842.019 472.853,842.019 485.125,842.019 497.397,842.019 509.668,842.019 521.94,842.019 534.211,842.019 546.483,842.019 558.755,842.019 571.026,842.019 583.298,842.019 595.57,842.019 607.841,842.019 620.113,842.019 632.384,842.019 644.656,842.019 656.928,842.019 669.199,842.019 681.471,842.019 693.742,842.019 706.014,842.019 718.286,842.019 730.557,842.019 742.829,842.019 755.101,842.019 767.372,842.019 779.644,842.019 791.915,842.019 804.187,842.019 816.459,842.019 828.73,842.019 841.002,842.019 853.274,842.019 865.545,842.019 877.817,842.019 890.088,842.019 902.36,842.019 914.632,842.019 926.903,842.019 939.175,842.019 951.447,842.019 963.718,842.019 975.99,842.019 988.261,842.019 1000.53,842.019 1012.8,842.019 1025.08,842.019 1037.35,842.019 1049.62,842.019 1061.89,842.019 1074.16,842.019 1086.43,842.019 1098.71,842.019 1110.98,842.019 1123.25,842.019 1135.52,842.019 1147.79,842.019 1160.06,842.019 1172.34,842.019 1184.61,842.019 1196.88,842.019 1209.15,842.019 1221.42,842.019 1233.69,842.019 1245.97,842.019 1258.24,842.019 1270.51,842.019 1282.78,842.019 1295.05,842.019 1307.32,842.019 1319.6,842.019 1331.87,842.019 1344.14,842.019 1356.41,842.019 1368.68,842.019 1380.95,842.019 1393.22,842.019 1405.5,842.019 1417.77,842.019 1430.04,842.019 1442.31,842.019 1454.58,842.019 1466.85,842.019 1479.13,842.019 1491.4,842.019 1503.67,842.019 1515.94,842.019 "/>
<path clip-path="url(#clip690)" d="M251.964 1865.17 L1552.76 1865.17 L1552.76 1047.24 L251.964 1047.24  Z" fill="#ffffff" fill-rule="evenodd" fill-opacity="1"/>
<defs>
  <clipPath id="clip693">
    <rect x="251" y="1047" width="1302" height="819"/>
  </clipPath>
</defs>
<polyline clip-path="url(#clip693)" style="stroke:#000000; stroke-linecap:round; stroke-linejoin:round; stroke-width:2; stroke-opacity:0.1; fill:none" points="288.779,1865.17 288.779,1047.24 "/>
<polyline clip-path="url(#clip693)" style="stroke:#000000; stroke-linecap:round; stroke-linejoin:round; stroke-width:2; stroke-opacity:0.1; fill:none" points="493.306,1865.17 493.306,1047.24 "/>
<polyline clip-path="url(#clip693)" style="stroke:#000000; stroke-linecap:round; stroke-linejoin:round; stroke-width:2; stroke-opacity:0.1; fill:none" points="697.833,1865.17 697.833,1047.24 "/>
<polyline clip-path="url(#clip693)" style="stroke:#000000; stroke-linecap:round; stroke-linejoin:round; stroke-width:2; stroke-opacity:0.1; fill:none" points="902.36,1865.17 902.36,1047.24 "/>
<polyline clip-path="url(#clip693)" style="stroke:#000000; stroke-linecap:round; stroke-linejoin:round; stroke-width:2; stroke-opacity:0.1; fill:none" points="1106.89,1865.17 1106.89,1047.24 "/>
<polyline clip-path="url(#clip693)" style="stroke:#000000; stroke-linecap:round; stroke-linejoin:round; stroke-width:2; stroke-opacity:0.1; fill:none" points="1311.41,1865.17 1311.41,1047.24 "/>
<polyline clip-path="url(#clip693)" style="stroke:#000000; stroke-linecap:round; stroke-linejoin:round; stroke-width:2; stroke-opacity:0.1; fill:none" points="1515.94,1865.17 1515.94,1047.24 "/>
<polyline clip-path="url(#clip693)" style="stroke:#000000; stroke-linecap:round; stroke-linejoin:round; stroke-width:2; stroke-opacity:0.1; fill:none" points="251.964,1792.99 1552.76,1792.99 "/>
<polyline clip-path="url(#clip693)" style="stroke:#000000; stroke-linecap:round; stroke-linejoin:round; stroke-width:2; stroke-opacity:0.1; fill:none" points="251.964,1680.31 1552.76,1680.31 "/>
<polyline clip-path="url(#clip693)" style="stroke:#000000; stroke-linecap:round; stroke-linejoin:round; stroke-width:2; stroke-opacity:0.1; fill:none" points="251.964,1567.63 1552.76,1567.63 "/>
<polyline clip-path="url(#clip693)" style="stroke:#000000; stroke-linecap:round; stroke-linejoin:round; stroke-width:2; stroke-opacity:0.1; fill:none" points="251.964,1454.95 1552.76,1454.95 "/>
<polyline clip-path="url(#clip693)" style="stroke:#000000; stroke-linecap:round; stroke-linejoin:round; stroke-width:2; stroke-opacity:0.1; fill:none" points="251.964,1342.26 1552.76,1342.26 "/>
<polyline clip-path="url(#clip693)" style="stroke:#000000; stroke-linecap:round; stroke-linejoin:round; stroke-width:2; stroke-opacity:0.1; fill:none" points="251.964,1229.58 1552.76,1229.58 "/>
<polyline clip-path="url(#clip693)" style="stroke:#000000; stroke-linecap:round; stroke-linejoin:round; stroke-width:2; stroke-opacity:0.1; fill:none" points="251.964,1116.9 1552.76,1116.9 "/>
<polyline clip-path="url(#clip690)" style="stroke:#000000; stroke-linecap:round; stroke-linejoin:round; stroke-width:4; stroke-opacity:1; fill:none" points="251.964,1865.17 1552.76,1865.17 "/>
<polyline clip-path="url(#clip690)" style="stroke:#000000; stroke-linecap:round; stroke-linejoin:round; stroke-width:4; stroke-opacity:1; fill:none" points="288.779,1865.17 288.779,1846.27 "/>
<polyline clip-path="url(#clip690)" style="stroke:#000000; stroke-linecap:round; stroke-linejoin:round; stroke-width:4; stroke-opacity:1; fill:none" points="493.306,1865.17 493.306,1846.27 "/>
<polyline clip-path="url(#clip690)" style="stroke:#000000; stroke-linecap:round; stroke-linejoin:round; stroke-width:4; stroke-opacity:1; fill:none" points="697.833,1865.17 697.833,1846.27 "/>
<polyline clip-path="url(#clip690)" style="stroke:#000000; stroke-linecap:round; stroke-linejoin:round; stroke-width:4; stroke-opacity:1; fill:none" points="902.36,1865.17 902.36,1846.27 "/>
<polyline clip-path="url(#clip690)" style="stroke:#000000; stroke-linecap:round; stroke-linejoin:round; stroke-width:4; stroke-opacity:1; fill:none" points="1106.89,1865.17 1106.89,1846.27 "/>
<polyline clip-path="url(#clip690)" style="stroke:#000000; stroke-linecap:round; stroke-linejoin:round; stroke-width:4; stroke-opacity:1; fill:none" points="1311.41,1865.17 1311.41,1846.27 "/>
<polyline clip-path="url(#clip690)" style="stroke:#000000; stroke-linecap:round; stroke-linejoin:round; stroke-width:4; stroke-opacity:1; fill:none" points="1515.94,1865.17 1515.94,1846.27 "/>
<path clip-path="url(#clip690)" d="M288.779 1892.89 Q285.168 1892.89 283.339 1896.45 Q281.534 1899.99 281.534 1907.12 Q281.534 1914.23 283.339 1917.79 Q285.168 1921.34 288.779 1921.34 Q292.413 1921.34 294.219 1917.79 Q296.047 1914.23 296.047 1907.12 Q296.047 1899.99 294.219 1896.45 Q292.413 1892.89 288.779 1892.89 M288.779 1889.18 Q294.589 1889.18 297.645 1893.79 Q300.723 1898.37 300.723 1907.12 Q300.723 1915.85 297.645 1920.46 Q294.589 1925.04 288.779 1925.04 Q282.969 1925.04 279.89 1920.46 Q276.835 1915.85 276.835 1907.12 Q276.835 1898.37 279.89 1893.79 Q282.969 1889.18 288.779 1889.18 Z" fill="#000000" fill-rule="nonzero" fill-opacity="1" /><path clip-path="url(#clip690)" d="M483.688 1920.43 L491.327 1920.43 L491.327 1894.07 L483.017 1895.73 L483.017 1891.47 L491.281 1889.81 L495.956 1889.81 L495.956 1920.43 L503.595 1920.43 L503.595 1924.37 L483.688 1924.37 L483.688 1920.43 Z" fill="#000000" fill-rule="nonzero" fill-opacity="1" /><path clip-path="url(#clip690)" d="M692.486 1920.43 L708.805 1920.43 L708.805 1924.37 L686.861 1924.37 L686.861 1920.43 Q689.523 1917.68 694.106 1913.05 Q698.713 1908.4 699.893 1907.05 Q702.139 1904.53 703.018 1902.79 Q703.921 1901.03 703.921 1899.34 Q703.921 1896.59 701.977 1894.85 Q700.055 1893.12 696.953 1893.12 Q694.754 1893.12 692.301 1893.88 Q689.87 1894.65 687.092 1896.2 L687.092 1891.47 Q689.916 1890.34 692.37 1889.76 Q694.824 1889.18 696.861 1889.18 Q702.231 1889.18 705.426 1891.87 Q708.62 1894.55 708.62 1899.04 Q708.62 1901.17 707.81 1903.09 Q707.023 1904.99 704.916 1907.59 Q704.338 1908.26 701.236 1911.47 Q698.134 1914.67 692.486 1920.43 Z" fill="#000000" fill-rule="nonzero" fill-opacity="1" /><path clip-path="url(#clip690)" d="M906.608 1905.73 Q909.964 1906.45 911.839 1908.72 Q913.737 1910.99 913.737 1914.32 Q913.737 1919.44 910.219 1922.24 Q906.7 1925.04 900.219 1925.04 Q898.043 1925.04 895.728 1924.6 Q893.436 1924.18 890.983 1923.33 L890.983 1918.81 Q892.927 1919.95 895.242 1920.53 Q897.557 1921.1 900.08 1921.1 Q904.478 1921.1 906.77 1919.37 Q909.085 1917.63 909.085 1914.32 Q909.085 1911.27 906.932 1909.55 Q904.802 1907.82 900.983 1907.82 L896.955 1907.82 L896.955 1903.97 L901.168 1903.97 Q904.617 1903.97 906.446 1902.61 Q908.274 1901.22 908.274 1898.63 Q908.274 1895.97 906.376 1894.55 Q904.501 1893.12 900.983 1893.12 Q899.061 1893.12 896.862 1893.53 Q894.663 1893.95 892.024 1894.83 L892.024 1890.66 Q894.686 1889.92 897.001 1889.55 Q899.339 1889.18 901.399 1889.18 Q906.723 1889.18 909.825 1891.61 Q912.927 1894.02 912.927 1898.14 Q912.927 1901.01 911.284 1903 Q909.64 1904.97 906.608 1905.73 Z" fill="#000000" fill-rule="nonzero" fill-opacity="1" /><path clip-path="url(#clip690)" d="M1109.9 1893.88 L1098.09 1912.33 L1109.9 1912.33 L1109.9 1893.88 M1108.67 1889.81 L1114.55 1889.81 L1114.55 1912.33 L1119.48 1912.33 L1119.48 1916.22 L1114.55 1916.22 L1114.55 1924.37 L1109.9 1924.37 L1109.9 1916.22 L1094.29 1916.22 L1094.29 1911.71 L1108.67 1889.81 Z" fill="#000000" fill-rule="nonzero" fill-opacity="1" /><path clip-path="url(#clip690)" d="M1301.69 1889.81 L1320.05 1889.81 L1320.05 1893.74 L1305.97 1893.74 L1305.97 1902.22 Q1306.99 1901.87 1308.01 1901.71 Q1309.03 1901.52 1310.05 1901.52 Q1315.84 1901.52 1319.21 1904.69 Q1322.59 1907.86 1322.59 1913.28 Q1322.59 1918.86 1319.12 1921.96 Q1315.65 1925.04 1309.33 1925.04 Q1307.15 1925.04 1304.89 1924.67 Q1302.64 1924.3 1300.23 1923.56 L1300.23 1918.86 Q1302.32 1919.99 1304.54 1920.55 Q1306.76 1921.1 1309.24 1921.1 Q1313.24 1921.1 1315.58 1919 Q1317.92 1916.89 1317.92 1913.28 Q1317.92 1909.67 1315.58 1907.56 Q1313.24 1905.46 1309.24 1905.46 Q1307.36 1905.46 1305.49 1905.87 Q1303.64 1906.29 1301.69 1907.17 L1301.69 1889.81 Z" fill="#000000" fill-rule="nonzero" fill-opacity="1" /><path clip-path="url(#clip690)" d="M1516.35 1905.22 Q1513.2 1905.22 1511.35 1907.38 Q1509.52 1909.53 1509.52 1913.28 Q1509.52 1917.01 1511.35 1919.18 Q1513.2 1921.34 1516.35 1921.34 Q1519.49 1921.34 1521.32 1919.18 Q1523.17 1917.01 1523.17 1913.28 Q1523.17 1909.53 1521.32 1907.38 Q1519.49 1905.22 1516.35 1905.22 M1525.63 1890.57 L1525.63 1894.83 Q1523.87 1894 1522.06 1893.56 Q1520.28 1893.12 1518.52 1893.12 Q1513.89 1893.12 1511.44 1896.24 Q1509.01 1899.37 1508.66 1905.69 Q1510.03 1903.67 1512.09 1902.61 Q1514.15 1901.52 1516.62 1901.52 Q1521.83 1901.52 1524.84 1904.69 Q1527.87 1907.84 1527.87 1913.28 Q1527.87 1918.6 1524.73 1921.82 Q1521.58 1925.04 1516.35 1925.04 Q1510.35 1925.04 1507.18 1920.46 Q1504.01 1915.85 1504.01 1907.12 Q1504.01 1898.93 1507.9 1894.07 Q1511.79 1889.18 1518.34 1889.18 Q1520.1 1889.18 1521.88 1889.53 Q1523.68 1889.88 1525.63 1890.57 Z" fill="#000000" fill-rule="nonzero" fill-opacity="1" /><polyline clip-path="url(#clip690)" style="stroke:#000000; stroke-linecap:round; stroke-linejoin:round; stroke-width:4; stroke-opacity:1; fill:none" points="251.964,1865.17 251.964,1047.24 "/>
<polyline clip-path="url(#clip690)" style="stroke:#000000; stroke-linecap:round; stroke-linejoin:round; stroke-width:4; stroke-opacity:1; fill:none" points="251.964,1792.99 270.862,1792.99 "/>
<polyline clip-path="url(#clip690)" style="stroke:#000000; stroke-linecap:round; stroke-linejoin:round; stroke-width:4; stroke-opacity:1; fill:none" points="251.964,1680.31 270.862,1680.31 "/>
<polyline clip-path="url(#clip690)" style="stroke:#000000; stroke-linecap:round; stroke-linejoin:round; stroke-width:4; stroke-opacity:1; fill:none" points="251.964,1567.63 270.862,1567.63 "/>
<polyline clip-path="url(#clip690)" style="stroke:#000000; stroke-linecap:round; stroke-linejoin:round; stroke-width:4; stroke-opacity:1; fill:none" points="251.964,1454.95 270.862,1454.95 "/>
<polyline clip-path="url(#clip690)" style="stroke:#000000; stroke-linecap:round; stroke-linejoin:round; stroke-width:4; stroke-opacity:1; fill:none" points="251.964,1342.26 270.862,1342.26 "/>
<polyline clip-path="url(#clip690)" style="stroke:#000000; stroke-linecap:round; stroke-linejoin:round; stroke-width:4; stroke-opacity:1; fill:none" points="251.964,1229.58 270.862,1229.58 "/>
<polyline clip-path="url(#clip690)" style="stroke:#000000; stroke-linecap:round; stroke-linejoin:round; stroke-width:4; stroke-opacity:1; fill:none" points="251.964,1116.9 270.862,1116.9 "/>
<path clip-path="url(#clip690)" d="M114.534 1793.45 L144.21 1793.45 L144.21 1797.38 L114.534 1797.38 L114.534 1793.45 Z" fill="#000000" fill-rule="nonzero" fill-opacity="1" /><path clip-path="url(#clip690)" d="M164.302 1778.79 Q160.691 1778.79 158.863 1782.36 Q157.057 1785.9 157.057 1793.03 Q157.057 1800.14 158.863 1803.7 Q160.691 1807.24 164.302 1807.24 Q167.937 1807.24 169.742 1803.7 Q171.571 1800.14 171.571 1793.03 Q171.571 1785.9 169.742 1782.36 Q167.937 1778.79 164.302 1778.79 M164.302 1775.09 Q170.113 1775.09 173.168 1779.7 Q176.247 1784.28 176.247 1793.03 Q176.247 1801.76 173.168 1806.36 Q170.113 1810.95 164.302 1810.95 Q158.492 1810.95 155.414 1806.36 Q152.358 1801.76 152.358 1793.03 Q152.358 1784.28 155.414 1779.7 Q158.492 1775.09 164.302 1775.09 Z" fill="#000000" fill-rule="nonzero" fill-opacity="1" /><path clip-path="url(#clip690)" d="M184.464 1804.39 L189.349 1804.39 L189.349 1810.27 L184.464 1810.27 L184.464 1804.39 Z" fill="#000000" fill-rule="nonzero" fill-opacity="1" /><path clip-path="url(#clip690)" d="M212.381 1779.79 L200.575 1798.24 L212.381 1798.24 L212.381 1779.79 M211.154 1775.71 L217.034 1775.71 L217.034 1798.24 L221.964 1798.24 L221.964 1802.13 L217.034 1802.13 L217.034 1810.27 L212.381 1810.27 L212.381 1802.13 L196.779 1802.13 L196.779 1797.61 L211.154 1775.71 Z" fill="#000000" fill-rule="nonzero" fill-opacity="1" /><path clip-path="url(#clip690)" d="M116.617 1680.76 L146.293 1680.76 L146.293 1684.7 L116.617 1684.7 L116.617 1680.76 Z" fill="#000000" fill-rule="nonzero" fill-opacity="1" /><path clip-path="url(#clip690)" d="M166.386 1666.11 Q162.775 1666.11 160.946 1669.68 Q159.14 1673.22 159.14 1680.35 Q159.14 1687.45 160.946 1691.02 Q162.775 1694.56 166.386 1694.56 Q170.02 1694.56 171.826 1691.02 Q173.654 1687.45 173.654 1680.35 Q173.654 1673.22 171.826 1669.68 Q170.02 1666.11 166.386 1666.11 M166.386 1662.41 Q172.196 1662.41 175.251 1667.01 Q178.33 1671.6 178.33 1680.35 Q178.33 1689.07 175.251 1693.68 Q172.196 1698.26 166.386 1698.26 Q160.576 1698.26 157.497 1693.68 Q154.441 1689.07 154.441 1680.35 Q154.441 1671.6 157.497 1667.01 Q160.576 1662.41 166.386 1662.41 Z" fill="#000000" fill-rule="nonzero" fill-opacity="1" /><path clip-path="url(#clip690)" d="M186.548 1691.71 L191.432 1691.71 L191.432 1697.59 L186.548 1697.59 L186.548 1691.71 Z" fill="#000000" fill-rule="nonzero" fill-opacity="1" /><path clip-path="url(#clip690)" d="M205.645 1693.66 L221.964 1693.66 L221.964 1697.59 L200.02 1697.59 L200.02 1693.66 Q202.682 1690.9 207.265 1686.27 Q211.872 1681.62 213.052 1680.28 Q215.298 1677.75 216.177 1676.02 Q217.08 1674.26 217.08 1672.57 Q217.08 1669.81 215.135 1668.08 Q213.214 1666.34 210.112 1666.34 Q207.913 1666.34 205.46 1667.11 Q203.029 1667.87 200.251 1669.42 L200.251 1664.7 Q203.075 1663.56 205.529 1662.99 Q207.983 1662.41 210.02 1662.41 Q215.39 1662.41 218.585 1665.09 Q221.779 1667.78 221.779 1672.27 Q221.779 1674.4 220.969 1676.32 Q220.182 1678.22 218.075 1680.81 Q217.497 1681.48 214.395 1684.7 Q211.293 1687.89 205.645 1693.66 Z" fill="#000000" fill-rule="nonzero" fill-opacity="1" /><path clip-path="url(#clip690)" d="M164.789 1553.43 Q161.177 1553.43 159.349 1556.99 Q157.543 1560.53 157.543 1567.66 Q157.543 1574.77 159.349 1578.34 Q161.177 1581.88 164.789 1581.88 Q168.423 1581.88 170.228 1578.34 Q172.057 1574.77 172.057 1567.66 Q172.057 1560.53 170.228 1556.99 Q168.423 1553.43 164.789 1553.43 M164.789 1549.72 Q170.599 1549.72 173.654 1554.33 Q176.733 1558.91 176.733 1567.66 Q176.733 1576.39 173.654 1581 Q170.599 1585.58 164.789 1585.58 Q158.978 1585.58 155.9 1581 Q152.844 1576.39 152.844 1567.66 Q152.844 1558.91 155.9 1554.33 Q158.978 1549.72 164.789 1549.72 Z" fill="#000000" fill-rule="nonzero" fill-opacity="1" /><path clip-path="url(#clip690)" d="M184.95 1579.03 L189.835 1579.03 L189.835 1584.91 L184.95 1584.91 L184.95 1579.03 Z" fill="#000000" fill-rule="nonzero" fill-opacity="1" /><path clip-path="url(#clip690)" d="M210.02 1553.43 Q206.409 1553.43 204.58 1556.99 Q202.774 1560.53 202.774 1567.66 Q202.774 1574.77 204.58 1578.34 Q206.409 1581.88 210.02 1581.88 Q213.654 1581.88 215.46 1578.34 Q217.288 1574.77 217.288 1567.66 Q217.288 1560.53 215.46 1556.99 Q213.654 1553.43 210.02 1553.43 M210.02 1549.72 Q215.83 1549.72 218.885 1554.33 Q221.964 1558.91 221.964 1567.66 Q221.964 1576.39 218.885 1581 Q215.83 1585.58 210.02 1585.58 Q204.21 1585.58 201.131 1581 Q198.075 1576.39 198.075 1567.66 Q198.075 1558.91 201.131 1554.33 Q204.21 1549.72 210.02 1549.72 Z" fill="#000000" fill-rule="nonzero" fill-opacity="1" /><path clip-path="url(#clip690)" d="M166.386 1440.75 Q162.775 1440.75 160.946 1444.31 Q159.14 1447.85 159.14 1454.98 Q159.14 1462.09 160.946 1465.65 Q162.775 1469.19 166.386 1469.19 Q170.02 1469.19 171.826 1465.65 Q173.654 1462.09 173.654 1454.98 Q173.654 1447.85 171.826 1444.31 Q170.02 1440.75 166.386 1440.75 M166.386 1437.04 Q172.196 1437.04 175.251 1441.65 Q178.33 1446.23 178.33 1454.98 Q178.33 1463.71 175.251 1468.31 Q172.196 1472.9 166.386 1472.9 Q160.576 1472.9 157.497 1468.31 Q154.441 1463.71 154.441 1454.98 Q154.441 1446.23 157.497 1441.65 Q160.576 1437.04 166.386 1437.04 Z" fill="#000000" fill-rule="nonzero" fill-opacity="1" /><path clip-path="url(#clip690)" d="M186.548 1466.35 L191.432 1466.35 L191.432 1472.23 L186.548 1472.23 L186.548 1466.35 Z" fill="#000000" fill-rule="nonzero" fill-opacity="1" /><path clip-path="url(#clip690)" d="M205.645 1468.29 L221.964 1468.29 L221.964 1472.23 L200.02 1472.23 L200.02 1468.29 Q202.682 1465.54 207.265 1460.91 Q211.872 1456.25 213.052 1454.91 Q215.298 1452.39 216.177 1450.65 Q217.08 1448.89 217.08 1447.2 Q217.08 1444.45 215.135 1442.71 Q213.214 1440.98 210.112 1440.98 Q207.913 1440.98 205.46 1441.74 Q203.029 1442.5 200.251 1444.06 L200.251 1439.33 Q203.075 1438.2 205.529 1437.62 Q207.983 1437.04 210.02 1437.04 Q215.39 1437.04 218.585 1439.73 Q221.779 1442.41 221.779 1446.9 Q221.779 1449.03 220.969 1450.95 Q220.182 1452.85 218.075 1455.44 Q217.497 1456.12 214.395 1459.33 Q211.293 1462.53 205.645 1468.29 Z" fill="#000000" fill-rule="nonzero" fill-opacity="1" /><path clip-path="url(#clip690)" d="M164.302 1328.06 Q160.691 1328.06 158.863 1331.63 Q157.057 1335.17 157.057 1342.3 Q157.057 1349.4 158.863 1352.97 Q160.691 1356.51 164.302 1356.51 Q167.937 1356.51 169.742 1352.97 Q171.571 1349.4 171.571 1342.3 Q171.571 1335.17 169.742 1331.63 Q167.937 1328.06 164.302 1328.06 M164.302 1324.36 Q170.113 1324.36 173.168 1328.97 Q176.247 1333.55 176.247 1342.3 Q176.247 1351.03 173.168 1355.63 Q170.113 1360.22 164.302 1360.22 Q158.492 1360.22 155.414 1355.63 Q152.358 1351.03 152.358 1342.3 Q152.358 1333.55 155.414 1328.97 Q158.492 1324.36 164.302 1324.36 Z" fill="#000000" fill-rule="nonzero" fill-opacity="1" /><path clip-path="url(#clip690)" d="M184.464 1353.66 L189.349 1353.66 L189.349 1359.54 L184.464 1359.54 L184.464 1353.66 Z" fill="#000000" fill-rule="nonzero" fill-opacity="1" /><path clip-path="url(#clip690)" d="M212.381 1329.06 L200.575 1347.51 L212.381 1347.51 L212.381 1329.06 M211.154 1324.98 L217.034 1324.98 L217.034 1347.51 L221.964 1347.51 L221.964 1351.4 L217.034 1351.4 L217.034 1359.54 L212.381 1359.54 L212.381 1351.4 L196.779 1351.4 L196.779 1346.88 L211.154 1324.98 Z" fill="#000000" fill-rule="nonzero" fill-opacity="1" /><path clip-path="url(#clip690)" d="M164.626 1215.38 Q161.015 1215.38 159.187 1218.94 Q157.381 1222.49 157.381 1229.62 Q157.381 1236.72 159.187 1240.29 Q161.015 1243.83 164.626 1243.83 Q168.261 1243.83 170.066 1240.29 Q171.895 1236.72 171.895 1229.62 Q171.895 1222.49 170.066 1218.94 Q168.261 1215.38 164.626 1215.38 M164.626 1211.68 Q170.437 1211.68 173.492 1216.28 Q176.571 1220.87 176.571 1229.62 Q176.571 1238.34 173.492 1242.95 Q170.437 1247.53 164.626 1247.53 Q158.816 1247.53 155.738 1242.95 Q152.682 1238.34 152.682 1229.62 Q152.682 1220.87 155.738 1216.28 Q158.816 1211.68 164.626 1211.68 Z" fill="#000000" fill-rule="nonzero" fill-opacity="1" /><path clip-path="url(#clip690)" d="M184.788 1240.98 L189.673 1240.98 L189.673 1246.86 L184.788 1246.86 L184.788 1240.98 Z" fill="#000000" fill-rule="nonzero" fill-opacity="1" /><path clip-path="url(#clip690)" d="M210.436 1227.72 Q207.288 1227.72 205.436 1229.87 Q203.608 1232.02 203.608 1235.77 Q203.608 1239.5 205.436 1241.68 Q207.288 1243.83 210.436 1243.83 Q213.585 1243.83 215.413 1241.68 Q217.265 1239.5 217.265 1235.77 Q217.265 1232.02 215.413 1229.87 Q213.585 1227.72 210.436 1227.72 M219.719 1213.06 L219.719 1217.32 Q217.96 1216.49 216.154 1216.05 Q214.372 1215.61 212.612 1215.61 Q207.983 1215.61 205.529 1218.74 Q203.099 1221.86 202.751 1228.18 Q204.117 1226.17 206.177 1225.1 Q208.237 1224.01 210.714 1224.01 Q215.923 1224.01 218.932 1227.19 Q221.964 1230.33 221.964 1235.77 Q221.964 1241.1 218.816 1244.31 Q215.668 1247.53 210.436 1247.53 Q204.441 1247.53 201.27 1242.95 Q198.099 1238.34 198.099 1229.62 Q198.099 1221.42 201.987 1216.56 Q205.876 1211.68 212.427 1211.68 Q214.186 1211.68 215.969 1212.02 Q217.774 1212.37 219.719 1213.06 Z" fill="#000000" fill-rule="nonzero" fill-opacity="1" /><path clip-path="url(#clip690)" d="M164.881 1102.7 Q161.27 1102.7 159.441 1106.26 Q157.636 1109.8 157.636 1116.93 Q157.636 1124.04 159.441 1127.6 Q161.27 1131.15 164.881 1131.15 Q168.515 1131.15 170.321 1127.6 Q172.15 1124.04 172.15 1116.93 Q172.15 1109.8 170.321 1106.26 Q168.515 1102.7 164.881 1102.7 M164.881 1098.99 Q170.691 1098.99 173.747 1103.6 Q176.825 1108.18 176.825 1116.93 Q176.825 1125.66 173.747 1130.27 Q170.691 1134.85 164.881 1134.85 Q159.071 1134.85 155.992 1130.27 Q152.937 1125.66 152.937 1116.93 Q152.937 1108.18 155.992 1103.6 Q159.071 1098.99 164.881 1098.99 Z" fill="#000000" fill-rule="nonzero" fill-opacity="1" /><path clip-path="url(#clip690)" d="M185.043 1128.3 L189.927 1128.3 L189.927 1134.18 L185.043 1134.18 L185.043 1128.3 Z" fill="#000000" fill-rule="nonzero" fill-opacity="1" /><path clip-path="url(#clip690)" d="M210.112 1117.77 Q206.779 1117.77 204.858 1119.55 Q202.96 1121.33 202.96 1124.46 Q202.96 1127.58 204.858 1129.36 Q206.779 1131.15 210.112 1131.15 Q213.446 1131.15 215.367 1129.36 Q217.288 1127.56 217.288 1124.46 Q217.288 1121.33 215.367 1119.55 Q213.469 1117.77 210.112 1117.77 M205.436 1115.78 Q202.427 1115.03 200.737 1112.97 Q199.071 1110.91 199.071 1107.95 Q199.071 1103.81 202.011 1101.4 Q204.973 1098.99 210.112 1098.99 Q215.274 1098.99 218.214 1101.4 Q221.154 1103.81 221.154 1107.95 Q221.154 1110.91 219.464 1112.97 Q217.797 1115.03 214.811 1115.78 Q218.191 1116.56 220.066 1118.85 Q221.964 1121.15 221.964 1124.46 Q221.964 1129.48 218.885 1132.16 Q215.83 1134.85 210.112 1134.85 Q204.395 1134.85 201.316 1132.16 Q198.261 1129.48 198.261 1124.46 Q198.261 1121.15 200.159 1118.85 Q202.057 1116.56 205.436 1115.78 M203.723 1108.39 Q203.723 1111.08 205.39 1112.58 Q207.08 1114.09 210.112 1114.09 Q213.122 1114.09 214.811 1112.58 Q216.524 1111.08 216.524 1108.39 Q216.524 1105.71 214.811 1104.2 Q213.122 1102.7 210.112 1102.7 Q207.08 1102.7 205.39 1104.2 Q203.723 1105.71 203.723 1108.39 Z" fill="#000000" fill-rule="nonzero" fill-opacity="1" /><path clip-path="url(#clip690)" d="M20.753 1497.09 L33.8981 1497.09 Q33.8981 1490.76 38.7679 1486.52 Q43.7332 1482.16 52.486 1482.16 Q61.2389 1482.16 66.2041 1486.52 Q71.0739 1490.76 71.0739 1497.09 L83.8371 1497.09 L83.8371 1502.91 L71.0739 1502.91 Q71.0739 1509.25 66.2041 1513.51 Q61.2389 1517.84 52.486 1517.84 Q43.7332 1517.84 38.7679 1513.51 Q33.8981 1509.25 33.8981 1502.91 L20.753 1502.91 L20.753 1497.09 M65.854 1497.09 Q65.854 1493.49 62.5757 1491.04 Q58.9154 1488.37 52.486 1488.34 Q46.1203 1488.31 42.3964 1491.04 Q39.118 1493.49 39.118 1497.09 L65.854 1497.09 M65.854 1502.91 L39.118 1502.91 Q39.118 1506.51 42.3964 1508.93 Q46.1203 1511.7 52.486 1511.67 Q58.9154 1511.64 62.5757 1508.93 Q65.854 1506.51 65.854 1502.91 Z" fill="#000000" fill-rule="nonzero" fill-opacity="1" /><path clip-path="url(#clip690)" d="M20.8166 1458.2 Q28.1372 1462.46 35.2986 1464.53 Q42.46 1466.6 49.8124 1466.6 Q57.1648 1466.6 64.3899 1464.53 Q71.5831 1462.43 78.8719 1458.2 L78.8719 1463.29 Q71.3922 1468.06 64.1671 1470.45 Q56.942 1472.8 49.8124 1472.8 Q42.7147 1472.8 35.5214 1470.45 Q28.3282 1468.09 20.8166 1463.29 L20.8166 1458.2 Z" fill="#000000" fill-rule="nonzero" fill-opacity="1" /><path clip-path="url(#clip690)" d="M34.6302 1417.2 L51.9768 1430.09 L70.2782 1416.53 L70.2782 1423.44 L56.2736 1433.81 L70.2782 1444.19 L70.2782 1451.1 L51.6266 1437.25 L34.6302 1449.92 L34.6302 1443.01 L47.3298 1433.56 L34.6302 1424.11 L34.6302 1417.2 Z" fill="#000000" fill-rule="nonzero" fill-opacity="1" /><path clip-path="url(#clip690)" d="M20.8166 1409.18 L20.8166 1404.09 Q28.3282 1399.31 35.5214 1396.96 Q42.7147 1394.57 49.8124 1394.57 Q56.942 1394.57 64.1671 1396.96 Q71.3922 1399.31 78.8719 1404.09 L78.8719 1409.18 Q71.5831 1404.95 64.3899 1402.88 Q57.1648 1400.78 49.8124 1400.78 Q42.46 1400.78 35.2986 1402.88 Q28.1372 1404.95 20.8166 1409.18 Z" fill="#000000" fill-rule="nonzero" fill-opacity="1" /><polyline clip-path="url(#clip693)" style="stroke:#009af9; stroke-linecap:round; stroke-linejoin:round; stroke-width:4; stroke-opacity:1; fill:none" points="288.779,1567.63 301.051,1272.09 313.322,1319.01 325.594,1240.09 337.865,1225.17 350.137,1219.01 362.409,1215.83 374.68,1213.95 386.952,1212.76 399.224,1211.95 411.495,1211.37 423.767,1210.95 436.038,1210.62 448.31,1210.37 460.582,1210.18 472.853,1210.02 485.125,1209.89 497.397,1209.78 509.668,1209.69 521.94,1209.61 534.211,1209.55 546.483,1209.49 558.755,1209.44 571.026,1209.4 583.298,1209.36 595.57,1209.33 607.841,1209.3 620.113,1209.28 632.384,1209.25 644.656,1209.23 656.928,1209.22 669.199,1209.2 681.471,1209.18 693.742,1209.17 706.014,1209.16 718.286,1209.14 730.557,1209.13 742.829,1209.12 755.101,1209.11 767.372,1209.11 779.644,1209.1 791.915,1209.09 804.187,1209.08 816.459,1209.08 828.73,1209.07 841.002,1209.07 853.274,1209.06 865.545,1209.06 877.817,1209.05 890.088,1209.05 902.36,1209.04 914.632,1209.04 926.903,1209.04 939.175,1209.03 951.447,1209.03 963.718,1209.03 975.99,1209.03 988.261,1209.02 1000.53,1209.02 1012.8,1209.02 1025.08,1209.02 1037.35,1209.01 1049.62,1209.01 1061.89,1209.01 1074.16,1209.01 1086.43,1209.01 1098.71,1209 1110.98,1209 1123.25,1209 1135.52,1209 1147.79,1209 1160.06,1209 1172.34,1209 1184.61,1208.99 1196.88,1208.99 1209.15,1208.99 1221.42,1208.99 1233.69,1208.99 1245.97,1208.99 1258.24,1208.99 1270.51,1208.99 1282.78,1208.99 1295.05,1208.98 1307.32,1208.98 1319.6,1208.98 1331.87,1208.98 1344.14,1208.98 1356.41,1208.98 1368.68,1208.98 1380.95,1208.98 1393.22,1208.98 1405.5,1208.98 1417.77,1208.98 1430.04,1208.98 1442.31,1208.98 1454.58,1208.98 1466.85,1208.97 1479.13,1208.97 1491.4,1208.97 1503.67,1208.97 1515.94,1208.97 "/>
<polyline clip-path="url(#clip693)" style="stroke:#e26f46; stroke-linecap:round; stroke-linejoin:round; stroke-width:4; stroke-opacity:1; fill:none" points="288.779,1070.39 301.051,1141.58 313.322,1473.79 325.594,1789.38 337.865,1755.31 350.137,1646.18 362.409,1616.15 374.68,1601.22 386.952,1592.46 399.224,1586.8 411.495,1582.91 423.767,1580.12 436.038,1578.03 448.31,1576.44 460.582,1575.18 472.853,1574.18 485.125,1573.37 497.397,1572.7 509.668,1572.14 521.94,1571.67 534.211,1571.27 546.483,1570.93 558.755,1570.63 571.026,1570.37 583.298,1570.15 595.57,1569.95 607.841,1569.77 620.113,1569.61 632.384,1569.47 644.656,1569.35 656.928,1569.23 669.199,1569.13 681.471,1569.04 693.742,1568.95 706.014,1568.88 718.286,1568.81 730.557,1568.74 742.829,1568.68 755.101,1568.63 767.372,1568.58 779.644,1568.53 791.915,1568.49 804.187,1568.45 816.459,1568.41 828.73,1568.37 841.002,1568.34 853.274,1568.31 865.545,1568.28 877.817,1568.25 890.088,1568.23 902.36,1568.2 914.632,1568.18 926.903,1568.16 939.175,1568.14 951.447,1568.12 963.718,1568.1 975.99,1568.09 988.261,1568.07 1000.53,1568.06 1012.8,1568.04 1025.08,1568.03 1037.35,1568.02 1049.62,1568 1061.89,1567.99 1074.16,1567.98 1086.43,1567.97 1098.71,1567.96 1110.98,1567.95 1123.25,1567.94 1135.52,1567.93 1147.79,1567.92 1160.06,1567.91 1172.34,1567.91 1184.61,1567.9 1196.88,1567.89 1209.15,1567.88 1221.42,1567.88 1233.69,1567.87 1245.97,1567.87 1258.24,1567.86 1270.51,1567.85 1282.78,1567.85 1295.05,1567.84 1307.32,1567.84 1319.6,1567.83 1331.87,1567.83 1344.14,1567.82 1356.41,1567.82 1368.68,1567.81 1380.95,1567.81 1393.22,1567.81 1405.5,1567.8 1417.77,1567.8 1430.04,1567.8 1442.31,1567.79 1454.58,1567.79 1466.85,1567.78 1479.13,1567.78 1491.4,1567.78 1503.67,1567.78 1515.94,1567.77 "/>
<polyline clip-path="url(#clip693)" style="stroke:#3da44d; stroke-linecap:round; stroke-linejoin:round; stroke-width:4; stroke-opacity:1; fill:none" points="288.779,1379.95 301.051,1363.33 313.322,1258.07 325.594,1220.13 337.865,1522.31 350.137,1822.98 362.409,1780.14 374.68,1665.36 386.952,1631.44 399.224,1613.71 411.495,1602.86 423.767,1595.61 436.038,1590.47 448.31,1586.67 460.582,1583.77 472.853,1581.51 485.125,1579.7 497.397,1578.22 509.668,1577.01 521.94,1576 534.211,1575.14 546.483,1574.41 558.755,1573.79 571.026,1573.25 583.298,1572.77 595.57,1572.36 607.841,1571.99 620.113,1571.67 632.384,1571.38 644.656,1571.12 656.928,1570.88 669.199,1570.67 681.471,1570.48 693.742,1570.31 706.014,1570.15 718.286,1570.01 730.557,1569.87 742.829,1569.75 755.101,1569.64 767.372,1569.54 779.644,1569.44 791.915,1569.35 804.187,1569.27 816.459,1569.2 828.73,1569.13 841.002,1569.06 853.274,1569 865.545,1568.94 877.817,1568.88 890.088,1568.83 902.36,1568.79 914.632,1568.74 926.903,1568.7 939.175,1568.66 951.447,1568.62 963.718,1568.58 975.99,1568.55 988.261,1568.52 1000.53,1568.49 1012.8,1568.46 1025.08,1568.43 1037.35,1568.4 1049.62,1568.38 1061.89,1568.36 1074.16,1568.33 1086.43,1568.31 1098.71,1568.29 1110.98,1568.27 1123.25,1568.25 1135.52,1568.23 1147.79,1568.22 1160.06,1568.2 1172.34,1568.18 1184.61,1568.17 1196.88,1568.15 1209.15,1568.14 1221.42,1568.13 1233.69,1568.11 1245.97,1568.1 1258.24,1568.09 1270.51,1568.08 1282.78,1568.07 1295.05,1568.06 1307.32,1568.05 1319.6,1568.04 1331.87,1568.03 1344.14,1568.02 1356.41,1568.01 1368.68,1568 1380.95,1567.99 1393.22,1567.98 1405.5,1567.98 1417.77,1567.97 1430.04,1567.96 1442.31,1567.95 1454.58,1567.95 1466.85,1567.94 1479.13,1567.93 1491.4,1567.93 1503.67,1567.92 1515.94,1567.92 "/>
<polyline clip-path="url(#clip693)" style="stroke:#c271d2; stroke-linecap:round; stroke-linejoin:round; stroke-width:4; stroke-opacity:1; fill:none" points="288.779,1445.75 301.051,1441.89 313.322,1428.48 325.594,1396.92 337.865,1282.9 350.137,1239.3 362.409,1537.6 374.68,1835.47 386.952,1790.54 399.224,1674.16 411.495,1638.99 423.767,1620.26 436.038,1608.6 448.31,1600.68 460.582,1594.98 472.853,1590.71 485.125,1587.41 497.397,1584.8 509.668,1582.7 521.94,1580.97 534.211,1579.53 546.483,1578.32 558.755,1577.28 571.026,1576.4 583.298,1575.63 595.57,1574.96 607.841,1574.38 620.113,1573.86 632.384,1573.4 644.656,1572.99 656.928,1572.62 669.199,1572.29 681.471,1571.99 693.742,1571.72 706.014,1571.48 718.286,1571.26 730.557,1571.05 742.829,1570.86 755.101,1570.69 767.372,1570.53 779.644,1570.38 791.915,1570.25 804.187,1570.12 816.459,1570.01 828.73,1569.9 841.002,1569.8 853.274,1569.7 865.545,1569.61 877.817,1569.53 890.088,1569.45 902.36,1569.38 914.632,1569.31 926.903,1569.24 939.175,1569.18 951.447,1569.12 963.718,1569.07 975.99,1569.02 988.261,1568.97 1000.53,1568.92 1012.8,1568.88 1025.08,1568.84 1037.35,1568.8 1049.62,1568.76 1061.89,1568.72 1074.16,1568.69 1086.43,1568.66 1098.71,1568.63 1110.98,1568.6 1123.25,1568.57 1135.52,1568.54 1147.79,1568.51 1160.06,1568.49 1172.34,1568.47 1184.61,1568.44 1196.88,1568.42 1209.15,1568.4 1221.42,1568.38 1233.69,1568.36 1245.97,1568.34 1258.24,1568.32 1270.51,1568.31 1282.78,1568.29 1295.05,1568.27 1307.32,1568.26 1319.6,1568.24 1331.87,1568.23 1344.14,1568.21 1356.41,1568.2 1368.68,1568.19 1380.95,1568.18 1393.22,1568.16 1405.5,1568.15 1417.77,1568.14 1430.04,1568.13 1442.31,1568.12 1454.58,1568.11 1466.85,1568.1 1479.13,1568.09 1491.4,1568.08 1503.67,1568.07 1515.94,1568.06 "/>
<polyline clip-path="url(#clip693)" style="stroke:#ac8d18; stroke-linecap:round; stroke-linejoin:round; stroke-width:4; stroke-opacity:1; fill:none" points="288.779,1477 301.051,1475.48 313.322,1470.58 325.594,1461.06 337.865,1443.76 350.137,1409.41 362.409,1293.3 374.68,1248.11 386.952,1545.15 399.224,1842.02 411.495,1796.28 423.767,1679.23 436.038,1643.5 448.31,1624.31 460.582,1612.24 472.853,1603.98 485.125,1597.98 497.397,1593.45 509.668,1589.93 521.94,1587.12 534.211,1584.84 546.483,1582.95 558.755,1581.37 571.026,1580.03 583.298,1578.89 595.57,1577.9 607.841,1577.04 620.113,1576.29 632.384,1575.62 644.656,1575.04 656.928,1574.51 669.199,1574.04 681.471,1573.62 693.742,1573.24 706.014,1572.89 718.286,1572.58 730.557,1572.3 742.829,1572.03 755.101,1571.79 767.372,1571.57 779.644,1571.37 791.915,1571.18 804.187,1571.01 816.459,1570.85 828.73,1570.7 841.002,1570.56 853.274,1570.43 865.545,1570.31 877.817,1570.19 890.088,1570.09 902.36,1569.99 914.632,1569.89 926.903,1569.8 939.175,1569.72 951.447,1569.64 963.718,1569.57 975.99,1569.5 988.261,1569.43 1000.53,1569.37 1012.8,1569.31 1025.08,1569.25 1037.35,1569.2 1049.62,1569.15 1061.89,1569.1 1074.16,1569.05 1086.43,1569.01 1098.71,1568.97 1110.98,1568.93 1123.25,1568.89 1135.52,1568.85 1147.79,1568.82 1160.06,1568.78 1172.34,1568.75 1184.61,1568.72 1196.88,1568.69 1209.15,1568.66 1221.42,1568.63 1233.69,1568.61 1245.97,1568.58 1258.24,1568.56 1270.51,1568.54 1282.78,1568.51 1295.05,1568.49 1307.32,1568.47 1319.6,1568.45 1331.87,1568.43 1344.14,1568.41 1356.41,1568.39 1368.68,1568.38 1380.95,1568.36 1393.22,1568.34 1405.5,1568.33 1417.77,1568.31 1430.04,1568.3 1442.31,1568.28 1454.58,1568.27 1466.85,1568.26 1479.13,1568.24 1491.4,1568.23 1503.67,1568.22 1515.94,1568.21 "/>
</svg>
