<?xml version="1.0" encoding="utf-8"?>
<svg xmlns="http://www.w3.org/2000/svg" xmlns:xlink="http://www.w3.org/1999/xlink" width="672" height="480" viewBox="0 0 2688 1920">
<defs>
  <clipPath id="clip300">
    <rect x="0" y="0" width="2688" height="1920"/>
  </clipPath>
</defs>
<path clip-path="url(#clip300)" d="M0 1920 L2688 1920 L2688 0 L0 0  Z" fill="#ffffff" fill-rule="evenodd" fill-opacity="1"/>
<defs>
  <clipPath id="clip301">
    <rect x="189" y="47" width="2453" height="1755"/>
  </clipPath>
</defs>
<path clip-path="url(#clip300)" d="M189.154 1800.78 L2640.76 1800.78 L2640.76 47.2441 L189.154 47.2441  Z" fill="#ffffff" fill-rule="evenodd" fill-opacity="1"/>
<polyline clip-path="url(#clip301)" style="stroke:#000000; stroke-linecap:round; stroke-linejoin:round; stroke-width:2; stroke-opacity:0.1; fill:none" points="199.236,1800.78 199.236,47.2441 "/>
<polyline clip-path="url(#clip301)" style="stroke:#000000; stroke-linecap:round; stroke-linejoin:round; stroke-width:2; stroke-opacity:0.1; fill:none" points="792.269,1800.78 792.269,47.2441 "/>
<polyline clip-path="url(#clip301)" style="stroke:#000000; stroke-linecap:round; stroke-linejoin:round; stroke-width:2; stroke-opacity:0.1; fill:none" points="1385.3,1800.78 1385.3,47.2441 "/>
<polyline clip-path="url(#clip301)" style="stroke:#000000; stroke-linecap:round; stroke-linejoin:round; stroke-width:2; stroke-opacity:0.1; fill:none" points="1978.34,1800.78 1978.34,47.2441 "/>
<polyline clip-path="url(#clip301)" style="stroke:#000000; stroke-linecap:round; stroke-linejoin:round; stroke-width:2; stroke-opacity:0.1; fill:none" points="2571.37,1800.78 2571.37,47.2441 "/>
<polyline clip-path="url(#clip301)" style="stroke:#000000; stroke-linecap:round; stroke-linejoin:round; stroke-width:2; stroke-opacity:0.1; fill:none" points="189.154,1751.15 2640.76,1751.15 "/>
<polyline clip-path="url(#clip301)" style="stroke:#000000; stroke-linecap:round; stroke-linejoin:round; stroke-width:2; stroke-opacity:0.1; fill:none" points="189.154,1254.87 2640.76,1254.87 "/>
<polyline clip-path="url(#clip301)" style="stroke:#000000; stroke-linecap:round; stroke-linejoin:round; stroke-width:2; stroke-opacity:0.1; fill:none" points="189.154,758.584 2640.76,758.584 "/>
<polyline clip-path="url(#clip301)" style="stroke:#000000; stroke-linecap:round; stroke-linejoin:round; stroke-width:2; stroke-opacity:0.1; fill:none" points="189.154,262.3 2640.76,262.3 "/>
<polyline clip-path="url(#clip300)" style="stroke:#000000; stroke-linecap:round; stroke-linejoin:round; stroke-width:4; stroke-opacity:1; fill:none" points="189.154,1800.78 2640.76,1800.78 "/>
<polyline clip-path="url(#clip300)" style="stroke:#000000; stroke-linecap:round; stroke-linejoin:round; stroke-width:4; stroke-opacity:1; fill:none" points="199.236,1800.78 199.236,1781.88 "/>
<polyline clip-path="url(#clip300)" style="stroke:#000000; stroke-linecap:round; stroke-linejoin:round; stroke-width:4; stroke-opacity:1; fill:none" points="792.269,1800.78 792.269,1781.88 "/>
<polyline clip-path="url(#clip300)" style="stroke:#000000; stroke-linecap:round; stroke-linejoin:round; stroke-width:4; stroke-opacity:1; fill:none" points="1385.3,1800.78 1385.3,1781.88 "/>
<polyline clip-path="url(#clip300)" style="stroke:#000000; stroke-linecap:round; stroke-linejoin:round; stroke-width:4; stroke-opacity:1; fill:none" points="1978.34,1800.78 1978.34,1781.88 "/>
<polyline clip-path="url(#clip300)" style="stroke:#000000; stroke-linecap:round; stroke-linejoin:round; stroke-width:4; stroke-opacity:1; fill:none" points="2571.37,1800.78 2571.37,1781.88 "/>
<path clip-path="url(#clip300)" d="M199.236 1834 Q195.624 1834 193.796 1837.57 Q191.99 1841.11 191.99 1848.24 Q191.99 1855.34 193.796 1858.91 Q195.624 1862.45 199.236 1862.45 Q202.87 1862.45 204.675 1858.91 Q206.504 1855.34 206.504 1848.24 Q206.504 1841.11 204.675 1837.57 Q202.87 1834 199.236 1834 M199.236 1830.3 Q205.046 1830.3 208.101 1834.9 Q211.18 1839.49 211.18 1848.24 Q211.18 1856.96 208.101 1861.57 Q205.046 1866.15 199.236 1866.15 Q193.425 1866.15 190.347 1861.57 Q187.291 1856.96 187.291 1848.24 Q187.291 1839.49 190.347 1834.9 Q193.425 1830.3 199.236 1830.3 Z" fill="#000000" fill-rule="nonzero" fill-opacity="1" /><path clip-path="url(#clip300)" d="M766.957 1861.55 L774.596 1861.55 L774.596 1835.18 L766.286 1836.85 L766.286 1832.59 L774.55 1830.92 L779.226 1830.92 L779.226 1861.55 L786.864 1861.55 L786.864 1865.48 L766.957 1865.48 L766.957 1861.55 Z" fill="#000000" fill-rule="nonzero" fill-opacity="1" /><path clip-path="url(#clip300)" d="M806.309 1834 Q802.698 1834 800.869 1837.57 Q799.063 1841.11 799.063 1848.24 Q799.063 1855.34 800.869 1858.91 Q802.698 1862.45 806.309 1862.45 Q809.943 1862.45 811.748 1858.91 Q813.577 1855.34 813.577 1848.24 Q813.577 1841.11 811.748 1837.57 Q809.943 1834 806.309 1834 M806.309 1830.3 Q812.119 1830.3 815.174 1834.9 Q818.253 1839.49 818.253 1848.24 Q818.253 1856.96 815.174 1861.57 Q812.119 1866.15 806.309 1866.15 Q800.499 1866.15 797.42 1861.57 Q794.364 1856.96 794.364 1848.24 Q794.364 1839.49 797.42 1834.9 Q800.499 1830.3 806.309 1830.3 Z" fill="#000000" fill-rule="nonzero" fill-opacity="1" /><path clip-path="url(#clip300)" d="M1364.08 1861.55 L1380.4 1861.55 L1380.4 1865.48 L1358.45 1865.48 L1358.45 1861.55 Q1361.11 1858.79 1365.7 1854.16 Q1370.3 1849.51 1371.48 1848.17 Q1373.73 1845.65 1374.61 1843.91 Q1375.51 1842.15 1375.51 1840.46 Q1375.51 1837.71 1373.57 1835.97 Q1371.65 1834.23 1368.54 1834.23 Q1366.35 1834.23 1363.89 1835 Q1361.46 1835.76 1358.68 1837.31 L1358.68 1832.59 Q1361.51 1831.46 1363.96 1830.88 Q1366.41 1830.3 1368.45 1830.3 Q1373.82 1830.3 1377.02 1832.98 Q1380.21 1835.67 1380.21 1840.16 Q1380.21 1842.29 1379.4 1844.21 Q1378.61 1846.11 1376.51 1848.7 Q1375.93 1849.37 1372.83 1852.59 Q1369.72 1855.78 1364.08 1861.55 Z" fill="#000000" fill-rule="nonzero" fill-opacity="1" /><path clip-path="url(#clip300)" d="M1400.21 1834 Q1396.6 1834 1394.77 1837.57 Q1392.97 1841.11 1392.97 1848.24 Q1392.97 1855.34 1394.77 1858.91 Q1396.6 1862.45 1400.21 1862.45 Q1403.84 1862.45 1405.65 1858.91 Q1407.48 1855.34 1407.48 1848.24 Q1407.48 1841.11 1405.65 1837.57 Q1403.84 1834 1400.21 1834 M1400.21 1830.3 Q1406.02 1830.3 1409.08 1834.9 Q1412.15 1839.49 1412.15 1848.24 Q1412.15 1856.96 1409.08 1861.57 Q1406.02 1866.15 1400.21 1866.15 Q1394.4 1866.15 1391.32 1861.57 Q1388.27 1856.96 1388.27 1848.24 Q1388.27 1839.49 1391.32 1834.9 Q1394.4 1830.3 1400.21 1830.3 Z" fill="#000000" fill-rule="nonzero" fill-opacity="1" /><path clip-path="url(#clip300)" d="M1967.18 1846.85 Q1970.54 1847.57 1972.41 1849.84 Q1974.31 1852.1 1974.31 1855.44 Q1974.31 1860.55 1970.79 1863.35 Q1967.27 1866.15 1960.79 1866.15 Q1958.61 1866.15 1956.3 1865.71 Q1954.01 1865.3 1951.55 1864.44 L1951.55 1859.93 Q1953.5 1861.06 1955.81 1861.64 Q1958.13 1862.22 1960.65 1862.22 Q1965.05 1862.22 1967.34 1860.48 Q1969.66 1858.75 1969.66 1855.44 Q1969.66 1852.38 1967.5 1850.67 Q1965.37 1848.93 1961.55 1848.93 L1957.53 1848.93 L1957.53 1845.09 L1961.74 1845.09 Q1965.19 1845.09 1967.02 1843.72 Q1968.85 1842.34 1968.85 1839.74 Q1968.85 1837.08 1966.95 1835.67 Q1965.07 1834.23 1961.55 1834.23 Q1959.63 1834.23 1957.43 1834.65 Q1955.24 1835.07 1952.6 1835.95 L1952.6 1831.78 Q1955.26 1831.04 1957.57 1830.67 Q1959.91 1830.3 1961.97 1830.3 Q1967.3 1830.3 1970.4 1832.73 Q1973.5 1835.14 1973.5 1839.26 Q1973.5 1842.13 1971.86 1844.12 Q1970.21 1846.09 1967.18 1846.85 Z" fill="#000000" fill-rule="nonzero" fill-opacity="1" /><path clip-path="url(#clip300)" d="M1993.17 1834 Q1989.56 1834 1987.74 1837.57 Q1985.93 1841.11 1985.93 1848.24 Q1985.93 1855.34 1987.74 1858.91 Q1989.56 1862.45 1993.17 1862.45 Q1996.81 1862.45 1998.61 1858.91 Q2000.44 1855.34 2000.44 1848.24 Q2000.44 1841.11 1998.61 1837.57 Q1996.81 1834 1993.17 1834 M1993.17 1830.3 Q1998.99 1830.3 2002.04 1834.9 Q2005.12 1839.49 2005.12 1848.24 Q2005.12 1856.96 2002.04 1861.57 Q1998.99 1866.15 1993.17 1866.15 Q1987.36 1866.15 1984.29 1861.57 Q1981.23 1856.96 1981.23 1848.24 Q1981.23 1839.49 1984.29 1834.9 Q1987.36 1830.3 1993.17 1830.3 Z" fill="#000000" fill-rule="nonzero" fill-opacity="1" /><path clip-path="url(#clip300)" d="M2559.54 1835 L2547.74 1853.45 L2559.54 1853.45 L2559.54 1835 M2558.32 1830.92 L2564.2 1830.92 L2564.2 1853.45 L2569.13 1853.45 L2569.13 1857.34 L2564.2 1857.34 L2564.2 1865.48 L2559.54 1865.48 L2559.54 1857.34 L2543.94 1857.34 L2543.94 1852.82 L2558.32 1830.92 Z" fill="#000000" fill-rule="nonzero" fill-opacity="1" /><path clip-path="url(#clip300)" d="M2586.86 1834 Q2583.25 1834 2581.42 1837.57 Q2579.61 1841.11 2579.61 1848.24 Q2579.61 1855.34 2581.42 1858.91 Q2583.25 1862.45 2586.86 1862.45 Q2590.49 1862.45 2592.3 1858.91 Q2594.13 1855.34 2594.13 1848.24 Q2594.13 1841.11 2592.3 1837.57 Q2590.49 1834 2586.86 1834 M2586.86 1830.3 Q2592.67 1830.3 2595.72 1834.9 Q2598.8 1839.49 2598.8 1848.24 Q2598.8 1856.96 2595.72 1861.57 Q2592.67 1866.15 2586.86 1866.15 Q2581.05 1866.15 2577.97 1861.57 Q2574.91 1856.96 2574.91 1848.24 Q2574.91 1839.49 2577.97 1834.9 Q2581.05 1830.3 2586.86 1830.3 Z" fill="#000000" fill-rule="nonzero" fill-opacity="1" /><polyline clip-path="url(#clip300)" style="stroke:#000000; stroke-linecap:round; stroke-linejoin:round; stroke-width:4; stroke-opacity:1; fill:none" points="189.154,1800.78 189.154,47.2441 "/>
<polyline clip-path="url(#clip300)" style="stroke:#000000; stroke-linecap:round; stroke-linejoin:round; stroke-width:4; stroke-opacity:1; fill:none" points="189.154,1751.15 208.052,1751.15 "/>
<polyline clip-path="url(#clip300)" style="stroke:#000000; stroke-linecap:round; stroke-linejoin:round; stroke-width:4; stroke-opacity:1; fill:none" points="189.154,1254.87 208.052,1254.87 "/>
<polyline clip-path="url(#clip300)" style="stroke:#000000; stroke-linecap:round; stroke-linejoin:round; stroke-width:4; stroke-opacity:1; fill:none" points="189.154,758.584 208.052,758.584 "/>
<polyline clip-path="url(#clip300)" style="stroke:#000000; stroke-linecap:round; stroke-linejoin:round; stroke-width:4; stroke-opacity:1; fill:none" points="189.154,262.3 208.052,262.3 "/>
<path clip-path="url(#clip300)" d="M61.4965 1736.95 Q57.8854 1736.95 56.0567 1740.51 Q54.2512 1744.06 54.2512 1751.19 Q54.2512 1758.29 56.0567 1761.86 Q57.8854 1765.4 61.4965 1765.4 Q65.1307 1765.4 66.9363 1761.86 Q68.765 1758.29 68.765 1751.19 Q68.765 1744.06 66.9363 1740.51 Q65.1307 1736.95 61.4965 1736.95 M61.4965 1733.25 Q67.3067 1733.25 70.3622 1737.85 Q73.4409 1742.44 73.4409 1751.19 Q73.4409 1759.91 70.3622 1764.52 Q67.3067 1769.1 61.4965 1769.1 Q55.6864 1769.1 52.6077 1764.52 Q49.5521 1759.91 49.5521 1751.19 Q49.5521 1742.44 52.6077 1737.85 Q55.6864 1733.25 61.4965 1733.25 Z" fill="#000000" fill-rule="nonzero" fill-opacity="1" /><path clip-path="url(#clip300)" d="M81.6584 1762.55 L86.5427 1762.55 L86.5427 1768.43 L81.6584 1768.43 L81.6584 1762.55 Z" fill="#000000" fill-rule="nonzero" fill-opacity="1" /><path clip-path="url(#clip300)" d="M106.728 1736.95 Q103.117 1736.95 101.288 1740.51 Q99.4824 1744.06 99.4824 1751.19 Q99.4824 1758.29 101.288 1761.86 Q103.117 1765.4 106.728 1765.4 Q110.362 1765.4 112.168 1761.86 Q113.996 1758.29 113.996 1751.19 Q113.996 1744.06 112.168 1740.51 Q110.362 1736.95 106.728 1736.95 M106.728 1733.25 Q112.538 1733.25 115.593 1737.85 Q118.672 1742.44 118.672 1751.19 Q118.672 1759.91 115.593 1764.52 Q112.538 1769.1 106.728 1769.1 Q100.918 1769.1 97.8389 1764.52 Q94.7834 1759.91 94.7834 1751.19 Q94.7834 1742.44 97.8389 1737.85 Q100.918 1733.25 106.728 1733.25 Z" fill="#000000" fill-rule="nonzero" fill-opacity="1" /><path clip-path="url(#clip300)" d="M136.89 1736.95 Q133.279 1736.95 131.45 1740.51 Q129.644 1744.06 129.644 1751.19 Q129.644 1758.29 131.45 1761.86 Q133.279 1765.4 136.89 1765.4 Q140.524 1765.4 142.329 1761.86 Q144.158 1758.29 144.158 1751.19 Q144.158 1744.06 142.329 1740.51 Q140.524 1736.95 136.89 1736.95 M136.89 1733.25 Q142.7 1733.25 145.755 1737.85 Q148.834 1742.44 148.834 1751.19 Q148.834 1759.91 145.755 1764.52 Q142.7 1769.1 136.89 1769.1 Q131.079 1769.1 128.001 1764.52 Q124.945 1759.91 124.945 1751.19 Q124.945 1742.44 128.001 1737.85 Q131.079 1733.25 136.89 1733.25 Z" fill="#000000" fill-rule="nonzero" fill-opacity="1" /><path clip-path="url(#clip300)" d="M62.4919 1240.67 Q58.8808 1240.67 57.0521 1244.23 Q55.2465 1247.77 55.2465 1254.9 Q55.2465 1262.01 57.0521 1265.57 Q58.8808 1269.12 62.4919 1269.12 Q66.1261 1269.12 67.9317 1265.57 Q69.7604 1262.01 69.7604 1254.9 Q69.7604 1247.77 67.9317 1244.23 Q66.1261 1240.67 62.4919 1240.67 M62.4919 1236.96 Q68.302 1236.96 71.3576 1241.57 Q74.4363 1246.15 74.4363 1254.9 Q74.4363 1263.63 71.3576 1268.24 Q68.302 1272.82 62.4919 1272.82 Q56.6817 1272.82 53.603 1268.24 Q50.5475 1263.63 50.5475 1254.9 Q50.5475 1246.15 53.603 1241.57 Q56.6817 1236.96 62.4919 1236.96 Z" fill="#000000" fill-rule="nonzero" fill-opacity="1" /><path clip-path="url(#clip300)" d="M82.6538 1266.27 L87.538 1266.27 L87.538 1272.15 L82.6538 1272.15 L82.6538 1266.27 Z" fill="#000000" fill-rule="nonzero" fill-opacity="1" /><path clip-path="url(#clip300)" d="M107.723 1240.67 Q104.112 1240.67 102.283 1244.23 Q100.478 1247.77 100.478 1254.9 Q100.478 1262.01 102.283 1265.57 Q104.112 1269.12 107.723 1269.12 Q111.357 1269.12 113.163 1265.57 Q114.992 1262.01 114.992 1254.9 Q114.992 1247.77 113.163 1244.23 Q111.357 1240.67 107.723 1240.67 M107.723 1236.96 Q113.533 1236.96 116.589 1241.57 Q119.667 1246.15 119.667 1254.9 Q119.667 1263.63 116.589 1268.24 Q113.533 1272.82 107.723 1272.82 Q101.913 1272.82 98.8343 1268.24 Q95.7787 1263.63 95.7787 1254.9 Q95.7787 1246.15 98.8343 1241.57 Q101.913 1236.96 107.723 1236.96 Z" fill="#000000" fill-rule="nonzero" fill-opacity="1" /><path clip-path="url(#clip300)" d="M127.931 1237.59 L146.288 1237.59 L146.288 1241.52 L132.214 1241.52 L132.214 1249.99 Q133.232 1249.65 134.251 1249.49 Q135.269 1249.3 136.288 1249.3 Q142.075 1249.3 145.454 1252.47 Q148.834 1255.64 148.834 1261.06 Q148.834 1266.64 145.362 1269.74 Q141.89 1272.82 135.57 1272.82 Q133.394 1272.82 131.126 1272.45 Q128.88 1272.08 126.473 1271.34 L126.473 1266.64 Q128.556 1267.77 130.779 1268.33 Q133.001 1268.88 135.478 1268.88 Q139.482 1268.88 141.82 1266.78 Q144.158 1264.67 144.158 1261.06 Q144.158 1257.45 141.82 1255.34 Q139.482 1253.24 135.478 1253.24 Q133.603 1253.24 131.728 1253.65 Q129.876 1254.07 127.931 1254.95 L127.931 1237.59 Z" fill="#000000" fill-rule="nonzero" fill-opacity="1" /><path clip-path="url(#clip300)" d="M61.4965 744.383 Q57.8854 744.383 56.0567 747.947 Q54.2512 751.489 54.2512 758.619 Q54.2512 765.725 56.0567 769.29 Q57.8854 772.831 61.4965 772.831 Q65.1307 772.831 66.9363 769.29 Q68.765 765.725 68.765 758.619 Q68.765 751.489 66.9363 747.947 Q65.1307 744.383 61.4965 744.383 M61.4965 740.679 Q67.3067 740.679 70.3622 745.285 Q73.4409 749.869 73.4409 758.619 Q73.4409 767.345 70.3622 771.952 Q67.3067 776.535 61.4965 776.535 Q55.6864 776.535 52.6077 771.952 Q49.5521 767.345 49.5521 758.619 Q49.5521 749.869 52.6077 745.285 Q55.6864 740.679 61.4965 740.679 Z" fill="#000000" fill-rule="nonzero" fill-opacity="1" /><path clip-path="url(#clip300)" d="M81.6584 769.984 L86.5427 769.984 L86.5427 775.864 L81.6584 775.864 L81.6584 769.984 Z" fill="#000000" fill-rule="nonzero" fill-opacity="1" /><path clip-path="url(#clip300)" d="M97.538 771.929 L105.177 771.929 L105.177 745.563 L96.8667 747.23 L96.8667 742.971 L105.131 741.304 L109.806 741.304 L109.806 771.929 L117.445 771.929 L117.445 775.864 L97.538 775.864 L97.538 771.929 Z" fill="#000000" fill-rule="nonzero" fill-opacity="1" /><path clip-path="url(#clip300)" d="M136.89 744.383 Q133.279 744.383 131.45 747.947 Q129.644 751.489 129.644 758.619 Q129.644 765.725 131.45 769.29 Q133.279 772.831 136.89 772.831 Q140.524 772.831 142.329 769.29 Q144.158 765.725 144.158 758.619 Q144.158 751.489 142.329 747.947 Q140.524 744.383 136.89 744.383 M136.89 740.679 Q142.7 740.679 145.755 745.285 Q148.834 749.869 148.834 758.619 Q148.834 767.345 145.755 771.952 Q142.7 776.535 136.89 776.535 Q131.079 776.535 128.001 771.952 Q124.945 767.345 124.945 758.619 Q124.945 749.869 128.001 745.285 Q131.079 740.679 136.89 740.679 Z" fill="#000000" fill-rule="nonzero" fill-opacity="1" /><path clip-path="url(#clip300)" d="M62.4919 248.099 Q58.8808 248.099 57.0521 251.664 Q55.2465 255.205 55.2465 262.335 Q55.2465 269.441 57.0521 273.006 Q58.8808 276.548 62.4919 276.548 Q66.1261 276.548 67.9317 273.006 Q69.7604 269.441 69.7604 262.335 Q69.7604 255.205 67.9317 251.664 Q66.1261 248.099 62.4919 248.099 M62.4919 244.395 Q68.302 244.395 71.3576 249.002 Q74.4363 253.585 74.4363 262.335 Q74.4363 271.062 71.3576 275.668 Q68.302 280.252 62.4919 280.252 Q56.6817 280.252 53.603 275.668 Q50.5475 271.062 50.5475 262.335 Q50.5475 253.585 53.603 249.002 Q56.6817 244.395 62.4919 244.395 Z" fill="#000000" fill-rule="nonzero" fill-opacity="1" /><path clip-path="url(#clip300)" d="M82.6538 273.701 L87.538 273.701 L87.538 279.58 L82.6538 279.58 L82.6538 273.701 Z" fill="#000000" fill-rule="nonzero" fill-opacity="1" /><path clip-path="url(#clip300)" d="M98.5333 275.645 L106.172 275.645 L106.172 249.28 L97.8621 250.946 L97.8621 246.687 L106.126 245.02 L110.802 245.02 L110.802 275.645 L118.441 275.645 L118.441 279.58 L98.5333 279.58 L98.5333 275.645 Z" fill="#000000" fill-rule="nonzero" fill-opacity="1" /><path clip-path="url(#clip300)" d="M127.931 245.02 L146.288 245.02 L146.288 248.955 L132.214 248.955 L132.214 257.428 Q133.232 257.08 134.251 256.918 Q135.269 256.733 136.288 256.733 Q142.075 256.733 145.454 259.904 Q148.834 263.076 148.834 268.492 Q148.834 274.071 145.362 277.173 Q141.89 280.252 135.57 280.252 Q133.394 280.252 131.126 279.881 Q128.88 279.511 126.473 278.77 L126.473 274.071 Q128.556 275.205 130.779 275.761 Q133.001 276.316 135.478 276.316 Q139.482 276.316 141.82 274.21 Q144.158 272.103 144.158 268.492 Q144.158 264.881 141.82 262.775 Q139.482 260.668 135.478 260.668 Q133.603 260.668 131.728 261.085 Q129.876 261.502 127.931 262.381 L127.931 245.02 Z" fill="#000000" fill-rule="nonzero" fill-opacity="1" /><polyline clip-path="url(#clip301)" style="stroke:#009af9; stroke-linecap:round; stroke-linejoin:round; stroke-width:4; stroke-opacity:1; fill:none" points="258.539,1751.15 317.842,1751.15 377.146,1751.15 436.449,1751.15 495.752,1751.15 555.056,1751.15 614.359,1751.15 673.663,1751.15 732.966,1751.15 792.269,1751.15 851.573,1751.15 910.876,1751.15 970.18,1751.15 1029.48,1751.15 1088.79,1751.15 1148.09,1751.15 1207.39,1751.15 1266.7,1751.15 1326,1751.15 1385.3,1751.15 1444.61,1751.15 1503.91,1751.15 1563.21,1751.15 1622.52,1751.15 1681.82,1751.15 1741.12,1751.15 1800.43,1751.15 1859.73,1751.15 1919.03,1751.15 1978.34,1751.15 2037.64,1751.15 2096.94,1751.15 2156.25,1751.15 2215.55,1751.15 2274.85,1751.15 2334.16,1751.15 2393.46,1751.15 2452.76,1751.15 2512.07,1751.15 2571.37,96.8724 "/>
</svg>
