<?xml version="1.0" encoding="utf-8"?>
<svg xmlns="http://www.w3.org/2000/svg" xmlns:xlink="http://www.w3.org/1999/xlink" width="400" height="250" viewBox="0 0 1600 1000">
<defs>
  <clipPath id="clip310">
    <rect x="0" y="0" width="1600" height="1000"/>
  </clipPath>
</defs>
<path clip-path="url(#clip310)" d="M0 1000 L1600 1000 L1600 0 L0 0  Z" fill="#ffffff" fill-rule="evenodd" fill-opacity="1"/>
<defs>
  <clipPath id="clip311">
    <rect x="148" y="47" width="1405" height="848"/>
  </clipPath>
</defs>
<path clip-path="url(#clip310)" d="M148.598 894.608 L1552.76 894.608 L1552.76 47.2441 L148.598 47.2441  Z" fill="#ffffff" fill-rule="evenodd" fill-opacity="1"/>
<polyline clip-path="url(#clip311)" style="stroke:#000000; stroke-linecap:round; stroke-linejoin:round; stroke-width:2; stroke-opacity:0.1; fill:none" points="154.372,894.608 154.372,47.2441 "/>
<polyline clip-path="url(#clip311)" style="stroke:#000000; stroke-linecap:round; stroke-linejoin:round; stroke-width:2; stroke-opacity:0.1; fill:none" points="494.033,894.608 494.033,47.2441 "/>
<polyline clip-path="url(#clip311)" style="stroke:#000000; stroke-linecap:round; stroke-linejoin:round; stroke-width:2; stroke-opacity:0.1; fill:none" points="833.694,894.608 833.694,47.2441 "/>
<polyline clip-path="url(#clip311)" style="stroke:#000000; stroke-linecap:round; stroke-linejoin:round; stroke-width:2; stroke-opacity:0.1; fill:none" points="1173.35,894.608 1173.35,47.2441 "/>
<polyline clip-path="url(#clip311)" style="stroke:#000000; stroke-linecap:round; stroke-linejoin:round; stroke-width:2; stroke-opacity:0.1; fill:none" points="1513.02,894.608 1513.02,47.2441 "/>
<polyline clip-path="url(#clip311)" style="stroke:#000000; stroke-linecap:round; stroke-linejoin:round; stroke-width:2; stroke-opacity:0.1; fill:none" points="148.598,870.626 1552.76,870.626 "/>
<polyline clip-path="url(#clip311)" style="stroke:#000000; stroke-linecap:round; stroke-linejoin:round; stroke-width:2; stroke-opacity:0.1; fill:none" points="148.598,705.918 1552.76,705.918 "/>
<polyline clip-path="url(#clip311)" style="stroke:#000000; stroke-linecap:round; stroke-linejoin:round; stroke-width:2; stroke-opacity:0.1; fill:none" points="148.598,541.209 1552.76,541.209 "/>
<polyline clip-path="url(#clip311)" style="stroke:#000000; stroke-linecap:round; stroke-linejoin:round; stroke-width:2; stroke-opacity:0.1; fill:none" points="148.598,376.501 1552.76,376.501 "/>
<polyline clip-path="url(#clip311)" style="stroke:#000000; stroke-linecap:round; stroke-linejoin:round; stroke-width:2; stroke-opacity:0.1; fill:none" points="148.598,211.793 1552.76,211.793 "/>
<polyline clip-path="url(#clip310)" style="stroke:#000000; stroke-linecap:round; stroke-linejoin:round; stroke-width:4; stroke-opacity:1; fill:none" points="148.598,894.608 1552.76,894.608 "/>
<polyline clip-path="url(#clip310)" style="stroke:#000000; stroke-linecap:round; stroke-linejoin:round; stroke-width:4; stroke-opacity:1; fill:none" points="154.372,894.608 154.372,875.71 "/>
<polyline clip-path="url(#clip310)" style="stroke:#000000; stroke-linecap:round; stroke-linejoin:round; stroke-width:4; stroke-opacity:1; fill:none" points="494.033,894.608 494.033,875.71 "/>
<polyline clip-path="url(#clip310)" style="stroke:#000000; stroke-linecap:round; stroke-linejoin:round; stroke-width:4; stroke-opacity:1; fill:none" points="833.694,894.608 833.694,875.71 "/>
<polyline clip-path="url(#clip310)" style="stroke:#000000; stroke-linecap:round; stroke-linejoin:round; stroke-width:4; stroke-opacity:1; fill:none" points="1173.35,894.608 1173.35,875.71 "/>
<polyline clip-path="url(#clip310)" style="stroke:#000000; stroke-linecap:round; stroke-linejoin:round; stroke-width:4; stroke-opacity:1; fill:none" points="1513.02,894.608 1513.02,875.71 "/>
<path clip-path="url(#clip310)" d="M154.372 919.127 Q150.761 919.127 148.933 922.691 Q147.127 926.233 147.127 933.363 Q147.127 940.469 148.933 944.034 Q150.761 947.575 154.372 947.575 Q158.007 947.575 159.812 944.034 Q161.641 940.469 161.641 933.363 Q161.641 926.233 159.812 922.691 Q158.007 919.127 154.372 919.127 M154.372 915.423 Q160.183 915.423 163.238 920.029 Q166.317 924.613 166.317 933.363 Q166.317 942.089 163.238 946.696 Q160.183 951.279 154.372 951.279 Q148.562 951.279 145.484 946.696 Q142.428 942.089 142.428 933.363 Q142.428 924.613 145.484 920.029 Q148.562 915.423 154.372 915.423 Z" fill="#000000" fill-rule="nonzero" fill-opacity="1" /><path clip-path="url(#clip310)" d="M468.721 946.673 L476.36 946.673 L476.36 920.307 L468.05 921.974 L468.05 917.715 L476.313 916.048 L480.989 916.048 L480.989 946.673 L488.628 946.673 L488.628 950.608 L468.721 950.608 L468.721 946.673 Z" fill="#000000" fill-rule="nonzero" fill-opacity="1" /><path clip-path="url(#clip310)" d="M508.073 919.127 Q504.461 919.127 502.633 922.691 Q500.827 926.233 500.827 933.363 Q500.827 940.469 502.633 944.034 Q504.461 947.575 508.073 947.575 Q511.707 947.575 513.512 944.034 Q515.341 940.469 515.341 933.363 Q515.341 926.233 513.512 922.691 Q511.707 919.127 508.073 919.127 M508.073 915.423 Q513.883 915.423 516.938 920.029 Q520.017 924.613 520.017 933.363 Q520.017 942.089 516.938 946.696 Q513.883 951.279 508.073 951.279 Q502.262 951.279 499.184 946.696 Q496.128 942.089 496.128 933.363 Q496.128 924.613 499.184 920.029 Q502.262 915.423 508.073 915.423 Z" fill="#000000" fill-rule="nonzero" fill-opacity="1" /><path clip-path="url(#clip310)" d="M812.467 946.673 L828.787 946.673 L828.787 950.608 L806.842 950.608 L806.842 946.673 Q809.504 943.918 814.088 939.288 Q818.694 934.636 819.875 933.293 Q822.12 930.77 823 929.034 Q823.902 927.275 823.902 925.585 Q823.902 922.83 821.958 921.094 Q820.037 919.358 816.935 919.358 Q814.736 919.358 812.282 920.122 Q809.852 920.886 807.074 922.437 L807.074 917.715 Q809.898 916.58 812.352 916.002 Q814.805 915.423 816.842 915.423 Q822.213 915.423 825.407 918.108 Q828.601 920.793 828.601 925.284 Q828.601 927.414 827.791 929.335 Q827.004 931.233 824.898 933.826 Q824.319 934.497 821.217 937.714 Q818.115 940.909 812.467 946.673 Z" fill="#000000" fill-rule="nonzero" fill-opacity="1" /><path clip-path="url(#clip310)" d="M848.601 919.127 Q844.99 919.127 843.162 922.691 Q841.356 926.233 841.356 933.363 Q841.356 940.469 843.162 944.034 Q844.99 947.575 848.601 947.575 Q852.236 947.575 854.041 944.034 Q855.87 940.469 855.87 933.363 Q855.87 926.233 854.041 922.691 Q852.236 919.127 848.601 919.127 M848.601 915.423 Q854.412 915.423 857.467 920.029 Q860.546 924.613 860.546 933.363 Q860.546 942.089 857.467 946.696 Q854.412 951.279 848.601 951.279 Q842.791 951.279 839.713 946.696 Q836.657 942.089 836.657 933.363 Q836.657 924.613 839.713 920.029 Q842.791 915.423 848.601 915.423 Z" fill="#000000" fill-rule="nonzero" fill-opacity="1" /><path clip-path="url(#clip310)" d="M1162.2 931.974 Q1165.55 932.691 1167.43 934.96 Q1169.33 937.228 1169.33 940.562 Q1169.33 945.677 1165.81 948.478 Q1162.29 951.279 1155.81 951.279 Q1153.63 951.279 1151.32 950.839 Q1149.03 950.423 1146.57 949.566 L1146.57 945.052 Q1148.52 946.187 1150.83 946.765 Q1153.15 947.344 1155.67 947.344 Q1160.07 947.344 1162.36 945.608 Q1164.67 943.872 1164.67 940.562 Q1164.67 937.506 1162.52 935.793 Q1160.39 934.057 1156.57 934.057 L1152.54 934.057 L1152.54 930.214 L1156.76 930.214 Q1160.21 930.214 1162.04 928.849 Q1163.86 927.46 1163.86 924.867 Q1163.86 922.205 1161.97 920.793 Q1160.09 919.358 1156.57 919.358 Q1154.65 919.358 1152.45 919.775 Q1150.25 920.191 1147.61 921.071 L1147.61 916.904 Q1150.28 916.164 1152.59 915.793 Q1154.93 915.423 1156.99 915.423 Q1162.31 915.423 1165.42 917.853 Q1168.52 920.261 1168.52 924.381 Q1168.52 927.252 1166.87 929.242 Q1165.23 931.21 1162.2 931.974 Z" fill="#000000" fill-rule="nonzero" fill-opacity="1" /><path clip-path="url(#clip310)" d="M1188.19 919.127 Q1184.58 919.127 1182.75 922.691 Q1180.95 926.233 1180.95 933.363 Q1180.95 940.469 1182.75 944.034 Q1184.58 947.575 1188.19 947.575 Q1191.83 947.575 1193.63 944.034 Q1195.46 940.469 1195.46 933.363 Q1195.46 926.233 1193.63 922.691 Q1191.83 919.127 1188.19 919.127 M1188.19 915.423 Q1194 915.423 1197.06 920.029 Q1200.14 924.613 1200.14 933.363 Q1200.14 942.089 1197.06 946.696 Q1194 951.279 1188.19 951.279 Q1182.38 951.279 1179.3 946.696 Q1176.25 942.089 1176.25 933.363 Q1176.25 924.613 1179.3 920.029 Q1182.38 915.423 1188.19 915.423 Z" fill="#000000" fill-rule="nonzero" fill-opacity="1" /><path clip-path="url(#clip310)" d="M1501.19 920.122 L1489.38 938.571 L1501.19 938.571 L1501.19 920.122 M1499.96 916.048 L1505.84 916.048 L1505.84 938.571 L1510.77 938.571 L1510.77 942.46 L1505.84 942.46 L1505.84 950.608 L1501.19 950.608 L1501.19 942.46 L1485.59 942.46 L1485.59 937.946 L1499.96 916.048 Z" fill="#000000" fill-rule="nonzero" fill-opacity="1" /><path clip-path="url(#clip310)" d="M1528.5 919.127 Q1524.89 919.127 1523.06 922.691 Q1521.26 926.233 1521.26 933.363 Q1521.26 940.469 1523.06 944.034 Q1524.89 947.575 1528.5 947.575 Q1532.14 947.575 1533.94 944.034 Q1535.77 940.469 1535.77 933.363 Q1535.77 926.233 1533.94 922.691 Q1532.14 919.127 1528.5 919.127 M1528.5 915.423 Q1534.31 915.423 1537.37 920.029 Q1540.45 924.613 1540.45 933.363 Q1540.45 942.089 1537.37 946.696 Q1534.31 951.279 1528.5 951.279 Q1522.69 951.279 1519.61 946.696 Q1516.56 942.089 1516.56 933.363 Q1516.56 924.613 1519.61 920.029 Q1522.69 915.423 1528.5 915.423 Z" fill="#000000" fill-rule="nonzero" fill-opacity="1" /><polyline clip-path="url(#clip310)" style="stroke:#000000; stroke-linecap:round; stroke-linejoin:round; stroke-width:4; stroke-opacity:1; fill:none" points="148.598,894.608 148.598,47.2441 "/>
<polyline clip-path="url(#clip310)" style="stroke:#000000; stroke-linecap:round; stroke-linejoin:round; stroke-width:4; stroke-opacity:1; fill:none" points="148.598,870.626 167.496,870.626 "/>
<polyline clip-path="url(#clip310)" style="stroke:#000000; stroke-linecap:round; stroke-linejoin:round; stroke-width:4; stroke-opacity:1; fill:none" points="148.598,705.918 167.496,705.918 "/>
<polyline clip-path="url(#clip310)" style="stroke:#000000; stroke-linecap:round; stroke-linejoin:round; stroke-width:4; stroke-opacity:1; fill:none" points="148.598,541.209 167.496,541.209 "/>
<polyline clip-path="url(#clip310)" style="stroke:#000000; stroke-linecap:round; stroke-linejoin:round; stroke-width:4; stroke-opacity:1; fill:none" points="148.598,376.501 167.496,376.501 "/>
<polyline clip-path="url(#clip310)" style="stroke:#000000; stroke-linecap:round; stroke-linejoin:round; stroke-width:4; stroke-opacity:1; fill:none" points="148.598,211.793 167.496,211.793 "/>
<path clip-path="url(#clip310)" d="M67.4226 856.425 Q63.8115 856.425 61.9828 859.989 Q60.1773 863.531 60.1773 870.661 Q60.1773 877.767 61.9828 881.332 Q63.8115 884.873 67.4226 884.873 Q71.0569 884.873 72.8624 881.332 Q74.6911 877.767 74.6911 870.661 Q74.6911 863.531 72.8624 859.989 Q71.0569 856.425 67.4226 856.425 M67.4226 852.721 Q73.2328 852.721 76.2883 857.327 Q79.367 861.911 79.367 870.661 Q79.367 879.387 76.2883 883.994 Q73.2328 888.577 67.4226 888.577 Q61.6125 888.577 58.5338 883.994 Q55.4782 879.387 55.4782 870.661 Q55.4782 861.911 58.5338 857.327 Q61.6125 852.721 67.4226 852.721 Z" fill="#000000" fill-rule="nonzero" fill-opacity="1" /><path clip-path="url(#clip310)" d="M87.5845 882.026 L92.4688 882.026 L92.4688 887.906 L87.5845 887.906 L87.5845 882.026 Z" fill="#000000" fill-rule="nonzero" fill-opacity="1" /><path clip-path="url(#clip310)" d="M112.654 856.425 Q109.043 856.425 107.214 859.989 Q105.409 863.531 105.409 870.661 Q105.409 877.767 107.214 881.332 Q109.043 884.873 112.654 884.873 Q116.288 884.873 118.094 881.332 Q119.922 877.767 119.922 870.661 Q119.922 863.531 118.094 859.989 Q116.288 856.425 112.654 856.425 M112.654 852.721 Q118.464 852.721 121.52 857.327 Q124.598 861.911 124.598 870.661 Q124.598 879.387 121.52 883.994 Q118.464 888.577 112.654 888.577 Q106.844 888.577 103.765 883.994 Q100.709 879.387 100.709 870.661 Q100.709 861.911 103.765 857.327 Q106.844 852.721 112.654 852.721 Z" fill="#000000" fill-rule="nonzero" fill-opacity="1" /><path clip-path="url(#clip310)" d="M69.0198 691.716 Q65.4087 691.716 63.58 695.281 Q61.7745 698.823 61.7745 705.952 Q61.7745 713.059 63.58 716.624 Q65.4087 720.165 69.0198 720.165 Q72.6541 720.165 74.4596 716.624 Q76.2883 713.059 76.2883 705.952 Q76.2883 698.823 74.4596 695.281 Q72.6541 691.716 69.0198 691.716 M69.0198 688.013 Q74.83 688.013 77.8855 692.619 Q80.9642 697.202 80.9642 705.952 Q80.9642 714.679 77.8855 719.286 Q74.83 723.869 69.0198 723.869 Q63.2097 723.869 60.131 719.286 Q57.0754 714.679 57.0754 705.952 Q57.0754 697.202 60.131 692.619 Q63.2097 688.013 69.0198 688.013 Z" fill="#000000" fill-rule="nonzero" fill-opacity="1" /><path clip-path="url(#clip310)" d="M89.1818 717.318 L94.066 717.318 L94.066 723.198 L89.1818 723.198 L89.1818 717.318 Z" fill="#000000" fill-rule="nonzero" fill-opacity="1" /><path clip-path="url(#clip310)" d="M108.279 719.262 L124.598 719.262 L124.598 723.198 L102.654 723.198 L102.654 719.262 Q105.316 716.508 109.899 711.878 Q114.506 707.225 115.686 705.883 Q117.932 703.36 118.811 701.624 Q119.714 699.864 119.714 698.175 Q119.714 695.42 117.77 693.684 Q115.848 691.948 112.746 691.948 Q110.547 691.948 108.094 692.712 Q105.663 693.475 102.885 695.026 L102.885 690.304 Q105.709 689.17 108.163 688.591 Q110.617 688.013 112.654 688.013 Q118.024 688.013 121.219 690.698 Q124.413 693.383 124.413 697.874 Q124.413 700.003 123.603 701.925 Q122.816 703.823 120.709 706.415 Q120.131 707.087 117.029 710.304 Q113.927 713.499 108.279 719.262 Z" fill="#000000" fill-rule="nonzero" fill-opacity="1" /><path clip-path="url(#clip310)" d="M66.9365 527.008 Q63.3254 527.008 61.4967 530.573 Q59.6912 534.114 59.6912 541.244 Q59.6912 548.35 61.4967 551.915 Q63.3254 555.457 66.9365 555.457 Q70.5707 555.457 72.3763 551.915 Q74.205 548.35 74.205 541.244 Q74.205 534.114 72.3763 530.573 Q70.5707 527.008 66.9365 527.008 M66.9365 523.304 Q72.7467 523.304 75.8022 527.911 Q78.8809 532.494 78.8809 541.244 Q78.8809 549.971 75.8022 554.577 Q72.7467 559.161 66.9365 559.161 Q61.1264 559.161 58.0477 554.577 Q54.9921 549.971 54.9921 541.244 Q54.9921 532.494 58.0477 527.911 Q61.1264 523.304 66.9365 523.304 Z" fill="#000000" fill-rule="nonzero" fill-opacity="1" /><path clip-path="url(#clip310)" d="M87.0984 552.61 L91.9827 552.61 L91.9827 558.489 L87.0984 558.489 L87.0984 552.61 Z" fill="#000000" fill-rule="nonzero" fill-opacity="1" /><path clip-path="url(#clip310)" d="M115.015 528.003 L103.209 546.452 L115.015 546.452 L115.015 528.003 M113.788 523.929 L119.668 523.929 L119.668 546.452 L124.598 546.452 L124.598 550.341 L119.668 550.341 L119.668 558.489 L115.015 558.489 L115.015 550.341 L99.4132 550.341 L99.4132 545.827 L113.788 523.929 Z" fill="#000000" fill-rule="nonzero" fill-opacity="1" /><path clip-path="url(#clip310)" d="M67.2606 362.3 Q63.6495 362.3 61.8208 365.864 Q60.0152 369.406 60.0152 376.536 Q60.0152 383.642 61.8208 387.207 Q63.6495 390.748 67.2606 390.748 Q70.8948 390.748 72.7004 387.207 Q74.5291 383.642 74.5291 376.536 Q74.5291 369.406 72.7004 365.864 Q70.8948 362.3 67.2606 362.3 M67.2606 358.596 Q73.0707 358.596 76.1263 363.202 Q79.205 367.786 79.205 376.536 Q79.205 385.262 76.1263 389.869 Q73.0707 394.452 67.2606 394.452 Q61.4504 394.452 58.3717 389.869 Q55.3162 385.262 55.3162 376.536 Q55.3162 367.786 58.3717 363.202 Q61.4504 358.596 67.2606 358.596 Z" fill="#000000" fill-rule="nonzero" fill-opacity="1" /><path clip-path="url(#clip310)" d="M87.4225 387.901 L92.3067 387.901 L92.3067 393.781 L87.4225 393.781 L87.4225 387.901 Z" fill="#000000" fill-rule="nonzero" fill-opacity="1" /><path clip-path="url(#clip310)" d="M113.071 374.637 Q109.922 374.637 108.071 376.79 Q106.242 378.943 106.242 382.693 Q106.242 386.42 108.071 388.596 Q109.922 390.748 113.071 390.748 Q116.219 390.748 118.047 388.596 Q119.899 386.42 119.899 382.693 Q119.899 378.943 118.047 376.79 Q116.219 374.637 113.071 374.637 M122.353 359.985 L122.353 364.244 Q120.594 363.411 118.788 362.971 Q117.006 362.531 115.246 362.531 Q110.617 362.531 108.163 365.656 Q105.733 368.781 105.385 375.1 Q106.751 373.087 108.811 372.022 Q110.871 370.934 113.348 370.934 Q118.557 370.934 121.566 374.105 Q124.598 377.253 124.598 382.693 Q124.598 388.017 121.45 391.235 Q118.302 394.452 113.071 394.452 Q107.075 394.452 103.904 389.869 Q100.733 385.262 100.733 376.536 Q100.733 368.341 104.621 363.48 Q108.51 358.596 115.061 358.596 Q116.82 358.596 118.603 358.943 Q120.408 359.29 122.353 359.985 Z" fill="#000000" fill-rule="nonzero" fill-opacity="1" /><path clip-path="url(#clip310)" d="M67.5152 197.591 Q63.9041 197.591 62.0754 201.156 Q60.2699 204.698 60.2699 211.827 Q60.2699 218.934 62.0754 222.499 Q63.9041 226.04 67.5152 226.04 Q71.1494 226.04 72.955 222.499 Q74.7837 218.934 74.7837 211.827 Q74.7837 204.698 72.955 201.156 Q71.1494 197.591 67.5152 197.591 M67.5152 193.888 Q73.3254 193.888 76.3809 198.494 Q79.4596 203.077 79.4596 211.827 Q79.4596 220.554 76.3809 225.161 Q73.3254 229.744 67.5152 229.744 Q61.7051 229.744 58.6264 225.161 Q55.5708 220.554 55.5708 211.827 Q55.5708 203.077 58.6264 198.494 Q61.7051 193.888 67.5152 193.888 Z" fill="#000000" fill-rule="nonzero" fill-opacity="1" /><path clip-path="url(#clip310)" d="M87.6771 223.193 L92.5614 223.193 L92.5614 229.073 L87.6771 229.073 L87.6771 223.193 Z" fill="#000000" fill-rule="nonzero" fill-opacity="1" /><path clip-path="url(#clip310)" d="M112.746 212.661 Q109.413 212.661 107.492 214.443 Q105.594 216.225 105.594 219.35 Q105.594 222.475 107.492 224.258 Q109.413 226.04 112.746 226.04 Q116.08 226.04 118.001 224.258 Q119.922 222.452 119.922 219.35 Q119.922 216.225 118.001 214.443 Q116.103 212.661 112.746 212.661 M108.071 210.67 Q105.061 209.929 103.371 207.869 Q101.705 205.809 101.705 202.846 Q101.705 198.702 104.645 196.295 Q107.608 193.888 112.746 193.888 Q117.908 193.888 120.848 196.295 Q123.788 198.702 123.788 202.846 Q123.788 205.809 122.098 207.869 Q120.432 209.929 117.445 210.67 Q120.825 211.457 122.7 213.749 Q124.598 216.04 124.598 219.35 Q124.598 224.373 121.52 227.059 Q118.464 229.744 112.746 229.744 Q107.029 229.744 103.95 227.059 Q100.895 224.373 100.895 219.35 Q100.895 216.04 102.793 213.749 Q104.691 211.457 108.071 210.67 M106.358 203.286 Q106.358 205.971 108.024 207.475 Q109.714 208.98 112.746 208.98 Q115.756 208.98 117.445 207.475 Q119.158 205.971 119.158 203.286 Q119.158 200.6 117.445 199.096 Q115.756 197.591 112.746 197.591 Q109.714 197.591 108.024 199.096 Q106.358 200.6 106.358 203.286 Z" fill="#000000" fill-rule="nonzero" fill-opacity="1" /><polyline clip-path="url(#clip311)" style="stroke:#009af9; stroke-linecap:round; stroke-linejoin:round; stroke-width:4; stroke-opacity:1; fill:none" stroke-dasharray="16, 10" points="188.339,870.585 222.305,870.621 256.271,870.626 290.237,870.626 324.203,870.626 358.169,870.626 392.135,870.626 426.101,870.626 460.067,870.626 494.033,870.626 527.999,870.626 561.965,870.626 595.931,870.626 629.898,870.626 663.864,870.626 697.83,870.626 731.796,870.626 765.762,870.626 799.728,870.626 833.694,870.626 867.66,870.626 901.626,870.626 935.592,870.626 969.558,870.626 1003.52,870.626 1037.49,870.626 1071.46,870.626 1105.42,870.626 1139.39,870.626 1173.35,870.626 1207.32,870.626 1241.29,870.626 1275.25,870.626 1309.22,870.626 1343.19,870.626 1377.15,870.626 1411.12,870.626 1445.08,870.626 1479.05,870.626 1513.02,870.626 "/>
<polyline clip-path="url(#clip311)" style="stroke:#e26f46; stroke-linecap:round; stroke-linejoin:round; stroke-width:4; stroke-opacity:1; fill:none" stroke-dasharray="16, 10" points="188.339,846.525 222.305,858.295 256.271,866.892 290.237,870.229 324.203,870.626 358.169,870.626 392.135,870.626 426.101,870.626 460.067,870.626 494.033,870.626 527.999,870.626 561.965,870.626 595.931,870.626 629.898,870.626 663.864,870.626 697.83,870.626 731.796,870.626 765.762,870.626 799.728,870.626 833.694,870.626 867.66,870.626 901.626,870.626 935.592,870.626 969.558,870.626 1003.52,870.626 1037.49,870.626 1071.46,870.626 1105.42,870.626 1139.39,870.626 1173.35,870.626 1207.32,870.626 1241.29,870.626 1275.25,870.626 1309.22,870.626 1343.19,870.626 1377.15,870.626 1411.12,870.626 1445.08,870.626 1479.05,870.626 1513.02,870.626 "/>
<polyline clip-path="url(#clip311)" style="stroke:#3da44d; stroke-linecap:round; stroke-linejoin:round; stroke-width:4; stroke-opacity:1; fill:none" stroke-dasharray="16, 10" points="188.339,71.2261 222.305,77.9308 256.271,198.9 290.237,482.992 324.203,753.421 358.169,859.258 392.135,870.626 426.101,870.626 460.067,870.626 494.033,870.626 527.999,870.626 561.965,870.626 595.931,870.626 629.898,870.626 663.864,870.626 697.83,870.626 731.796,870.626 765.762,870.626 799.728,870.626 833.694,870.626 867.66,870.626 901.626,870.626 935.592,870.626 969.558,870.626 1003.52,870.626 1037.49,870.626 1071.46,870.626 1105.42,870.626 1139.39,870.626 1173.35,870.626 1207.32,870.626 1241.29,870.626 1275.25,870.626 1309.22,870.626 1343.19,870.626 1377.15,870.626 1411.12,870.626 1445.08,870.626 1479.05,870.626 1513.02,870.626 "/>
<polyline clip-path="url(#clip311)" style="stroke:#c271d2; stroke-linecap:round; stroke-linejoin:round; stroke-width:4; stroke-opacity:1; fill:none" stroke-dasharray="16, 10" points="188.339,870.626 222.305,852.115 256.271,722.547 290.237,456.543 324.203,323.708 358.169,509.744 392.135,762.67 426.101,861.148 460.067,870.626 494.033,870.626 527.999,870.626 561.965,870.626 595.931,870.626 629.898,870.626 663.864,870.626 697.83,870.626 731.796,870.626 765.762,870.626 799.728,870.626 833.694,870.626 867.66,870.626 901.626,870.626 935.592,870.626 969.558,870.626 1003.52,870.626 1037.49,870.626 1071.46,870.626 1105.42,870.626 1139.39,870.626 1173.35,870.626 1207.32,870.626 1241.29,870.626 1275.25,870.626 1309.22,870.626 1343.19,870.626 1377.15,870.626 1411.12,870.626 1445.08,870.626 1479.05,870.626 1513.02,870.626 "/>
<polyline clip-path="url(#clip311)" style="stroke:#ac8d18; stroke-linecap:round; stroke-linejoin:round; stroke-width:4; stroke-opacity:1; fill:none" stroke-dasharray="16, 10" points="188.339,870.626 222.305,870.626 256.271,870.624 290.237,849.197 324.203,711.225 358.169,443.972 392.135,326.284 426.101,523.565 460.067,771.418 494.033,862.817 527.999,870.626 561.965,870.626 595.931,870.626 629.898,870.626 663.864,870.626 697.83,870.626 731.796,870.626 765.762,870.626 799.728,870.626 833.694,870.626 867.66,870.626 901.626,870.626 935.592,870.626 969.558,870.626 1003.52,870.626 1037.49,870.626 1071.46,870.626 1105.42,870.626 1139.39,870.626 1173.35,870.626 1207.32,870.626 1241.29,870.626 1275.25,870.626 1309.22,870.626 1343.19,870.626 1377.15,870.626 1411.12,870.626 1445.08,870.626 1479.05,870.626 1513.02,870.626 "/>
<polyline clip-path="url(#clip311)" style="stroke:#00a9ad; stroke-linecap:round; stroke-linejoin:round; stroke-width:4; stroke-opacity:1; fill:none" stroke-dasharray="16, 10" points="188.339,870.626 222.305,870.626 256.271,870.626 290.237,870.626 324.203,870.607 358.169,845.988 392.135,699.445 426.101,431.776 460.067,329.817 494.033,537.511 527.999,779.681 561.965,864.277 595.931,870.626 629.898,870.626 663.864,870.626 697.83,870.626 731.796,870.626 765.762,870.626 799.728,870.626 833.694,870.626 867.66,870.626 901.626,870.626 935.592,870.626 969.558,870.626 1003.52,870.626 1037.49,870.626 1071.46,870.626 1105.42,870.626 1139.39,870.626 1173.35,870.626 1207.32,870.626 1241.29,870.626 1275.25,870.626 1309.22,870.626 1343.19,870.626 1377.15,870.626 1411.12,870.626 1445.08,870.626 1479.05,870.626 1513.02,870.626 "/>
<polyline clip-path="url(#clip311)" style="stroke:#ed5d92; stroke-linecap:round; stroke-linejoin:round; stroke-width:4; stroke-opacity:1; fill:none" stroke-dasharray="16, 10" points="188.339,870.626 222.305,870.626 256.271,870.626 290.237,870.626 324.203,870.626 358.169,870.626 392.135,870.563 426.101,842.473 460.067,687.249 494.033,419.996 527.999,334.267 561.965,551.54 595.931,787.472 629.898,865.542 663.864,870.626 697.83,870.626 731.796,870.626 765.762,870.626 799.728,870.626 833.694,870.626 867.66,870.626 901.626,870.626 935.592,870.626 969.558,870.626 1003.52,870.626 1037.49,870.626 1071.46,870.626 1105.42,870.626 1139.39,870.626 1173.35,870.626 1207.32,870.626 1241.29,870.626 1275.25,870.626 1309.22,870.626 1343.19,870.626 1377.15,870.626 1411.12,870.626 1445.08,870.626 1479.05,870.626 1513.02,870.626 "/>
<polyline clip-path="url(#clip311)" style="stroke:#c68125; stroke-linecap:round; stroke-linejoin:round; stroke-width:4; stroke-opacity:1; fill:none" stroke-dasharray="16, 10" points="188.339,870.626 222.305,870.626 256.271,870.626 290.237,870.626 324.203,870.626 358.169,870.626 392.135,870.626 426.101,870.626 460.067,870.478 494.033,838.639 527.999,674.677 561.965,408.674 595.931,339.591 629.898,565.61 663.864,794.805 697.83,866.627 731.796,870.626 765.762,870.626 799.728,870.626 833.694,870.626 867.66,870.626 901.626,870.626 935.592,870.626 969.558,870.626 1003.52,870.626 1037.49,870.626 1071.46,870.626 1105.42,870.626 1139.39,870.626 1173.35,870.626 1207.32,870.626 1241.29,870.626 1275.25,870.626 1309.22,870.626 1343.19,870.626 1377.15,870.626 1411.12,870.626 1445.08,870.626 1479.05,870.626 1513.02,870.626 "/>
<polyline clip-path="url(#clip311)" style="stroke:#00a98d; stroke-linecap:round; stroke-linejoin:round; stroke-width:4; stroke-opacity:1; fill:none" stroke-dasharray="16, 10" points="188.339,870.626 222.305,870.626 256.271,870.626 290.237,870.626 324.203,870.626 358.169,870.626 392.135,870.626 426.101,870.626 460.067,870.626 494.033,870.626 527.999,870.337 561.965,834.472 595.931,661.773 629.898,397.852 663.864,345.748 697.83,579.681 731.796,801.693 765.762,867.546 799.728,870.626 833.694,870.626 867.66,870.626 901.626,870.626 935.592,870.626 969.558,870.626 1003.52,870.626 1037.49,870.626 1071.46,870.626 1105.42,870.626 1139.39,870.626 1173.35,870.626 1207.32,870.626 1241.29,870.626 1275.25,870.626 1309.22,870.626 1343.19,870.626 1377.15,870.626 1411.12,870.626 1445.08,870.626 1479.05,870.626 1513.02,870.626 "/>
<polyline clip-path="url(#clip311)" style="stroke:#8e971d; stroke-linecap:round; stroke-linejoin:round; stroke-width:4; stroke-opacity:1; fill:none" stroke-dasharray="16, 10" points="188.339,870.626 222.305,870.626 256.271,870.626 290.237,870.626 324.203,870.626 358.169,870.626 392.135,870.626 426.101,870.626 460.067,870.626 494.033,870.626 527.999,870.626 561.965,870.626 595.931,870.126 629.898,829.957 663.864,648.577 697.83,387.571 731.796,352.697 765.762,593.71 799.728,808.151 833.694,868.312 867.66,870.626 901.626,870.626 935.592,870.626 969.558,870.626 1003.52,870.626 1037.49,870.626 1071.46,870.626 1105.42,870.626 1139.39,870.626 1173.35,870.626 1207.32,870.626 1241.29,870.626 1275.25,870.626 1309.22,870.626 1343.19,870.626 1377.15,870.626 1411.12,870.626 1445.08,870.626 1479.05,870.626 1513.02,870.626 "/>
<polyline clip-path="url(#clip311)" style="stroke:#00a8cb; stroke-linecap:round; stroke-linejoin:round; stroke-width:4; stroke-opacity:1; fill:none" stroke-dasharray="16, 10" points="188.339,870.626 222.305,870.626 256.271,870.626 290.237,870.626 324.203,870.626 358.169,870.626 392.135,870.626 426.101,870.626 460.067,870.626 494.033,870.626 527.999,870.626 561.965,870.626 595.931,870.626 629.898,870.626 663.864,869.832 697.83,825.082 731.796,635.131 765.762,377.874 799.728,360.395 833.694,607.656 867.66,814.193 901.626,868.939 935.592,870.626 969.558,870.626 1003.52,870.626 1037.49,870.626 1071.46,870.626 1105.42,870.626 1139.39,870.626 1173.35,870.626 1207.32,870.626 1241.29,870.626 1275.25,870.626 1309.22,870.626 1343.19,870.626 1377.15,870.626 1411.12,870.626 1445.08,870.626 1479.05,870.626 1513.02,870.626 "/>
<polyline clip-path="url(#clip311)" style="stroke:#9b7fe8; stroke-linecap:round; stroke-linejoin:round; stroke-width:4; stroke-opacity:1; fill:none" stroke-dasharray="16, 10" points="188.339,870.626 222.305,870.626 256.271,870.626 290.237,870.626 324.203,870.626 358.169,870.626 392.135,870.626 426.101,870.626 460.067,870.626 494.033,870.626 527.999,870.626 561.965,870.626 595.931,870.626 629.898,870.626 663.864,870.626 697.83,870.626 731.796,869.441 765.762,819.832 799.728,621.477 833.694,368.801 867.66,368.801 901.626,621.477 935.592,819.832 969.558,869.441 1003.52,870.626 1037.49,870.626 1071.46,870.626 1105.42,870.626 1139.39,870.626 1173.35,870.626 1207.32,870.626 1241.29,870.626 1275.25,870.626 1309.22,870.626 1343.19,870.626 1377.15,870.626 1411.12,870.626 1445.08,870.626 1479.05,870.626 1513.02,870.626 "/>
<polyline clip-path="url(#clip311)" style="stroke:#608cf6; stroke-linecap:round; stroke-linejoin:round; stroke-width:4; stroke-opacity:1; fill:none" stroke-dasharray="16, 10" points="188.339,870.626 222.305,870.626 256.271,870.626 290.237,870.626 324.203,870.626 358.169,870.626 392.135,870.626 426.101,870.626 460.067,870.626 494.033,870.626 527.999,870.626 561.965,870.626 595.931,870.626 629.898,870.626 663.864,870.626 697.83,870.626 731.796,870.626 765.762,870.626 799.728,868.939 833.694,814.193 867.66,607.656 901.626,360.395 935.592,377.874 969.558,635.131 1003.52,825.082 1037.49,869.832 1071.46,870.626 1105.42,870.626 1139.39,870.626 1173.35,870.626 1207.32,870.626 1241.29,870.626 1275.25,870.626 1309.22,870.626 1343.19,870.626 1377.15,870.626 1411.12,870.626 1445.08,870.626 1479.05,870.626 1513.02,870.626 "/>
<polyline clip-path="url(#clip311)" style="stroke:#f05f73; stroke-linecap:round; stroke-linejoin:round; stroke-width:4; stroke-opacity:1; fill:none" stroke-dasharray="16, 10" points="188.339,870.626 222.305,870.626 256.271,870.626 290.237,870.626 324.203,870.626 358.169,870.626 392.135,870.626 426.101,870.626 460.067,870.626 494.033,870.626 527.999,870.626 561.965,870.626 595.931,870.626 629.898,870.626 663.864,870.626 697.83,870.626 731.796,870.626 765.762,870.626 799.728,870.626 833.694,870.626 867.66,868.312 901.626,808.151 935.592,593.71 969.558,352.697 1003.52,387.571 1037.49,648.577 1071.46,829.957 1105.42,870.126 1139.39,870.626 1173.35,870.626 1207.32,870.626 1241.29,870.626 1275.25,870.626 1309.22,870.626 1343.19,870.626 1377.15,870.626 1411.12,870.626 1445.08,870.626 1479.05,870.626 1513.02,870.626 "/>
<polyline clip-path="url(#clip311)" style="stroke:#dd64b5; stroke-linecap:round; stroke-linejoin:round; stroke-width:4; stroke-opacity:1; fill:none" stroke-dasharray="16, 10" points="188.339,870.626 222.305,870.626 256.271,870.626 290.237,870.626 324.203,870.626 358.169,870.626 392.135,870.626 426.101,870.626 460.067,870.626 494.033,870.626 527.999,870.626 561.965,870.626 595.931,870.626 629.898,870.626 663.864,870.626 697.83,870.626 731.796,870.626 765.762,870.626 799.728,870.626 833.694,870.626 867.66,870.626 901.626,870.626 935.592,867.546 969.558,801.693 1003.52,579.681 1037.49,345.748 1071.46,397.852 1105.42,661.773 1139.39,834.472 1173.35,870.337 1207.32,870.626 1241.29,870.626 1275.25,870.626 1309.22,870.626 1343.19,870.626 1377.15,870.626 1411.12,870.626 1445.08,870.626 1479.05,870.626 1513.02,870.626 "/>
<polyline clip-path="url(#clip311)" style="stroke:#6b9e32; stroke-linecap:round; stroke-linejoin:round; stroke-width:4; stroke-opacity:1; fill:none" stroke-dasharray="16, 10" points="188.339,870.626 222.305,870.626 256.271,870.626 290.237,870.626 324.203,870.626 358.169,870.626 392.135,870.626 426.101,870.626 460.067,870.626 494.033,870.626 527.999,870.626 561.965,870.626 595.931,870.626 629.898,870.626 663.864,870.626 697.83,870.626 731.796,870.626 765.762,870.626 799.728,870.626 833.694,870.626 867.66,870.626 901.626,870.626 935.592,870.626 969.558,870.626 1003.52,866.627 1037.49,794.805 1071.46,565.61 1105.42,339.591 1139.39,408.674 1173.35,674.677 1207.32,838.639 1241.29,870.478 1275.25,870.626 1309.22,870.626 1343.19,870.626 1377.15,870.626 1411.12,870.626 1445.08,870.626 1479.05,870.626 1513.02,870.626 "/>
<polyline clip-path="url(#clip311)" style="stroke:#009af9; stroke-linecap:round; stroke-linejoin:round; stroke-width:4; stroke-opacity:1; fill:none" stroke-dasharray="16, 10" points="188.339,870.626 222.305,870.626 256.271,870.626 290.237,870.626 324.203,870.626 358.169,870.626 392.135,870.626 426.101,870.626 460.067,870.626 494.033,870.626 527.999,870.626 561.965,870.626 595.931,870.626 629.898,870.626 663.864,870.626 697.83,870.626 731.796,870.626 765.762,870.626 799.728,870.626 833.694,870.626 867.66,870.626 901.626,870.626 935.592,870.626 969.558,870.626 1003.52,870.626 1037.49,870.626 1071.46,865.542 1105.42,787.472 1139.39,551.54 1173.35,334.267 1207.32,419.996 1241.29,687.249 1275.25,842.473 1309.22,870.563 1343.19,870.626 1377.15,870.626 1411.12,870.626 1445.08,870.626 1479.05,870.626 1513.02,870.626 "/>
<polyline clip-path="url(#clip311)" style="stroke:#e26f46; stroke-linecap:round; stroke-linejoin:round; stroke-width:4; stroke-opacity:1; fill:none" stroke-dasharray="16, 10" points="188.339,870.626 222.305,870.626 256.271,870.626 290.237,870.626 324.203,870.626 358.169,870.626 392.135,870.626 426.101,870.626 460.067,870.626 494.033,870.626 527.999,870.626 561.965,870.626 595.931,870.626 629.898,870.626 663.864,870.626 697.83,870.626 731.796,870.626 765.762,870.626 799.728,870.626 833.694,870.626 867.66,870.626 901.626,870.626 935.592,870.626 969.558,870.626 1003.52,870.626 1037.49,870.626 1071.46,870.626 1105.42,870.626 1139.39,864.277 1173.35,779.681 1207.32,537.511 1241.29,329.817 1275.25,431.776 1309.22,699.445 1343.19,845.988 1377.15,870.607 1411.12,870.626 1445.08,870.626 1479.05,870.626 1513.02,870.626 "/>
<polyline clip-path="url(#clip311)" style="stroke:#3da44d; stroke-linecap:round; stroke-linejoin:round; stroke-width:4; stroke-opacity:1; fill:none" stroke-dasharray="16, 10" points="188.339,870.626 222.305,870.626 256.271,870.626 290.237,870.626 324.203,870.626 358.169,870.626 392.135,870.626 426.101,870.626 460.067,870.626 494.033,870.626 527.999,870.626 561.965,870.626 595.931,870.626 629.898,870.626 663.864,870.626 697.83,870.626 731.796,870.626 765.762,870.626 799.728,870.626 833.694,870.626 867.66,870.626 901.626,870.626 935.592,870.626 969.558,870.626 1003.52,870.626 1037.49,870.626 1071.46,870.626 1105.42,870.626 1139.39,870.626 1173.35,870.626 1207.32,862.817 1241.29,771.418 1275.25,523.565 1309.22,326.284 1343.19,443.972 1377.15,711.225 1411.12,849.197 1445.08,870.624 1479.05,870.626 1513.02,870.626 "/>
<polyline clip-path="url(#clip311)" style="stroke:#c271d2; stroke-linecap:round; stroke-linejoin:round; stroke-width:4; stroke-opacity:1; fill:none" stroke-dasharray="16, 10" points="188.339,870.626 222.305,870.626 256.271,870.626 290.237,870.626 324.203,870.626 358.169,870.626 392.135,870.626 426.101,870.626 460.067,870.626 494.033,870.626 527.999,870.626 561.965,870.626 595.931,870.626 629.898,870.626 663.864,870.626 697.83,870.626 731.796,870.626 765.762,870.626 799.728,870.626 833.694,870.626 867.66,870.626 901.626,870.626 935.592,870.626 969.558,870.626 1003.52,870.626 1037.49,870.626 1071.46,870.626 1105.42,870.626 1139.39,870.626 1173.35,870.626 1207.32,870.626 1241.29,870.626 1275.25,861.148 1309.22,762.67 1343.19,509.744 1377.15,323.708 1411.12,456.543 1445.08,722.547 1479.05,852.115 1513.02,870.626 "/>
<polyline clip-path="url(#clip311)" style="stroke:#ac8d18; stroke-linecap:round; stroke-linejoin:round; stroke-width:4; stroke-opacity:1; fill:none" stroke-dasharray="16, 10" points="188.339,870.626 222.305,870.626 256.271,870.626 290.237,870.626 324.203,870.626 358.169,870.626 392.135,870.626 426.101,870.626 460.067,870.626 494.033,870.626 527.999,870.626 561.965,870.626 595.931,870.626 629.898,870.626 663.864,870.626 697.83,870.626 731.796,870.626 765.762,870.626 799.728,870.626 833.694,870.626 867.66,870.626 901.626,870.626 935.592,870.626 969.558,870.626 1003.52,870.626 1037.49,870.626 1071.46,870.626 1105.42,870.626 1139.39,870.626 1173.35,870.626 1207.32,870.626 1241.29,870.626 1275.25,870.626 1309.22,870.626 1343.19,859.258 1377.15,753.421 1411.12,482.992 1445.08,198.9 1479.05,77.9308 1513.02,71.2261 "/>
<polyline clip-path="url(#clip311)" style="stroke:#00a9ad; stroke-linecap:round; stroke-linejoin:round; stroke-width:4; stroke-opacity:1; fill:none" stroke-dasharray="16, 10" points="188.339,870.626 222.305,870.626 256.271,870.626 290.237,870.626 324.203,870.626 358.169,870.626 392.135,870.626 426.101,870.626 460.067,870.626 494.033,870.626 527.999,870.626 561.965,870.626 595.931,870.626 629.898,870.626 663.864,870.626 697.83,870.626 731.796,870.626 765.762,870.626 799.728,870.626 833.694,870.626 867.66,870.626 901.626,870.626 935.592,870.626 969.558,870.626 1003.52,870.626 1037.49,870.626 1071.46,870.626 1105.42,870.626 1139.39,870.626 1173.35,870.626 1207.32,870.626 1241.29,870.626 1275.25,870.626 1309.22,870.626 1343.19,870.626 1377.15,870.626 1411.12,870.229 1445.08,866.892 1479.05,858.295 1513.02,846.525 "/>
<polyline clip-path="url(#clip311)" style="stroke:#ed5d92; stroke-linecap:round; stroke-linejoin:round; stroke-width:4; stroke-opacity:1; fill:none" stroke-dasharray="16, 10" points="188.339,870.626 222.305,870.626 256.271,870.626 290.237,870.626 324.203,870.626 358.169,870.626 392.135,870.626 426.101,870.626 460.067,870.626 494.033,870.626 527.999,870.626 561.965,870.626 595.931,870.626 629.898,870.626 663.864,870.626 697.83,870.626 731.796,870.626 765.762,870.626 799.728,870.626 833.694,870.626 867.66,870.626 901.626,870.626 935.592,870.626 969.558,870.626 1003.52,870.626 1037.49,870.626 1071.46,870.626 1105.42,870.626 1139.39,870.626 1173.35,870.626 1207.32,870.626 1241.29,870.626 1275.25,870.626 1309.22,870.626 1343.19,870.626 1377.15,870.626 1411.12,870.626 1445.08,870.626 1479.05,870.621 1513.02,870.585 "/>
<polyline clip-path="url(#clip311)" style="stroke:#c68125; stroke-linecap:round; stroke-linejoin:round; stroke-width:4; stroke-opacity:1; fill:none" points="188.339,870.585 222.305,870.621 256.271,870.626 290.237,870.626 324.203,870.626 358.169,870.626 392.135,870.626 426.101,870.626 460.067,870.626 494.033,870.626 527.999,870.626 561.965,870.626 595.931,870.626 629.898,870.626 663.864,870.626 697.83,870.626 731.796,870.626 765.762,870.626 799.728,870.626 833.694,870.626 867.66,870.626 901.626,870.626 935.592,870.626 969.558,870.626 1003.52,870.626 1037.49,870.626 1071.46,870.626 1105.42,870.626 1139.39,870.626 1173.35,870.626 1207.32,870.626 1241.29,870.626 1275.25,870.626 1309.22,870.626 1343.19,870.626 1377.15,870.626 1411.12,870.626 1445.08,870.626 1479.05,870.626 1513.02,870.626 "/>
<polyline clip-path="url(#clip311)" style="stroke:#00a98d; stroke-linecap:round; stroke-linejoin:round; stroke-width:4; stroke-opacity:1; fill:none" points="188.339,846.525 222.305,858.295 256.271,866.892 290.237,870.229 324.203,870.626 358.169,870.626 392.135,870.626 426.101,870.626 460.067,870.626 494.033,870.626 527.999,870.626 561.965,870.626 595.931,870.626 629.898,870.626 663.864,870.626 697.83,870.626 731.796,870.626 765.762,870.626 799.728,870.626 833.694,870.626 867.66,870.626 901.626,870.626 935.592,870.626 969.558,870.626 1003.52,870.626 1037.49,870.626 1071.46,870.626 1105.42,870.626 1139.39,870.626 1173.35,870.626 1207.32,870.626 1241.29,870.626 1275.25,870.626 1309.22,870.626 1343.19,870.626 1377.15,870.626 1411.12,870.626 1445.08,870.626 1479.05,870.626 1513.02,870.626 "/>
<polyline clip-path="url(#clip311)" style="stroke:#8e971d; stroke-linecap:round; stroke-linejoin:round; stroke-width:4; stroke-opacity:1; fill:none" points="188.339,71.2261 222.305,77.9308 256.271,198.9 290.237,482.992 324.203,753.421 358.169,859.258 392.135,870.626 426.101,870.626 460.067,870.626 494.033,870.626 527.999,870.626 561.965,870.626 595.931,870.626 629.898,870.626 663.864,870.626 697.83,870.626 731.796,870.626 765.762,870.626 799.728,870.626 833.694,870.626 867.66,870.626 901.626,870.626 935.592,870.626 969.558,870.626 1003.52,870.626 1037.49,870.626 1071.46,870.626 1105.42,870.626 1139.39,870.626 1173.35,870.626 1207.32,870.626 1241.29,870.626 1275.25,870.626 1309.22,870.626 1343.19,870.626 1377.15,870.626 1411.12,870.626 1445.08,870.626 1479.05,870.626 1513.02,870.626 "/>
<polyline clip-path="url(#clip311)" style="stroke:#00a8cb; stroke-linecap:round; stroke-linejoin:round; stroke-width:4; stroke-opacity:1; fill:none" points="188.339,870.626 222.305,852.115 256.271,722.547 290.237,456.543 324.203,323.708 358.169,509.744 392.135,762.67 426.101,861.148 460.067,870.626 494.033,870.626 527.999,870.626 561.965,870.626 595.931,870.626 629.898,870.626 663.864,870.626 697.83,870.626 731.796,870.626 765.762,870.626 799.728,870.626 833.694,870.626 867.66,870.626 901.626,870.626 935.592,870.626 969.558,870.626 1003.52,870.626 1037.49,870.626 1071.46,870.626 1105.42,870.626 1139.39,870.626 1173.35,870.626 1207.32,870.626 1241.29,870.626 1275.25,870.626 1309.22,870.626 1343.19,870.626 1377.15,870.626 1411.12,870.626 1445.08,870.626 1479.05,870.626 1513.02,870.626 "/>
<polyline clip-path="url(#clip311)" style="stroke:#9b7fe8; stroke-linecap:round; stroke-linejoin:round; stroke-width:4; stroke-opacity:1; fill:none" points="188.339,870.626 222.305,870.626 256.271,870.624 290.237,849.197 324.203,711.225 358.169,443.972 392.135,326.284 426.101,523.565 460.067,771.418 494.033,862.817 527.999,870.626 561.965,870.626 595.931,870.626 629.898,870.626 663.864,870.626 697.83,870.626 731.796,870.626 765.762,870.626 799.728,870.626 833.694,870.626 867.66,870.626 901.626,870.626 935.592,870.626 969.558,870.626 1003.52,870.626 1037.49,870.626 1071.46,870.626 1105.42,870.626 1139.39,870.626 1173.35,870.626 1207.32,870.626 1241.29,870.626 1275.25,870.626 1309.22,870.626 1343.19,870.626 1377.15,870.626 1411.12,870.626 1445.08,870.626 1479.05,870.626 1513.02,870.626 "/>
<polyline clip-path="url(#clip311)" style="stroke:#608cf6; stroke-linecap:round; stroke-linejoin:round; stroke-width:4; stroke-opacity:1; fill:none" points="188.339,870.626 222.305,870.626 256.271,870.626 290.237,870.626 324.203,870.607 358.169,845.988 392.135,699.445 426.101,431.776 460.067,329.817 494.033,537.511 527.999,779.681 561.965,864.277 595.931,870.626 629.898,870.626 663.864,870.626 697.83,870.626 731.796,870.626 765.762,870.626 799.728,870.626 833.694,870.626 867.66,870.626 901.626,870.626 935.592,870.626 969.558,870.626 1003.52,870.626 1037.49,870.626 1071.46,870.626 1105.42,870.626 1139.39,870.626 1173.35,870.626 1207.32,870.626 1241.29,870.626 1275.25,870.626 1309.22,870.626 1343.19,870.626 1377.15,870.626 1411.12,870.626 1445.08,870.626 1479.05,870.626 1513.02,870.626 "/>
<polyline clip-path="url(#clip311)" style="stroke:#f05f73; stroke-linecap:round; stroke-linejoin:round; stroke-width:4; stroke-opacity:1; fill:none" points="188.339,870.626 222.305,870.626 256.271,870.626 290.237,870.626 324.203,870.626 358.169,870.626 392.135,870.563 426.101,842.473 460.067,687.249 494.033,419.996 527.999,334.267 561.965,551.54 595.931,787.472 629.898,865.542 663.864,870.626 697.83,870.626 731.796,870.626 765.762,870.626 799.728,870.626 833.694,870.626 867.66,870.626 901.626,870.626 935.592,870.626 969.558,870.626 1003.52,870.626 1037.49,870.626 1071.46,870.626 1105.42,870.626 1139.39,870.626 1173.35,870.626 1207.32,870.626 1241.29,870.626 1275.25,870.626 1309.22,870.626 1343.19,870.626 1377.15,870.626 1411.12,870.626 1445.08,870.626 1479.05,870.626 1513.02,870.626 "/>
<polyline clip-path="url(#clip311)" style="stroke:#dd64b5; stroke-linecap:round; stroke-linejoin:round; stroke-width:4; stroke-opacity:1; fill:none" points="188.339,870.626 222.305,870.626 256.271,870.626 290.237,870.626 324.203,870.626 358.169,870.626 392.135,870.626 426.101,870.626 460.067,870.478 494.033,838.639 527.999,674.677 561.965,408.674 595.931,339.591 629.898,565.61 663.864,794.805 697.83,866.627 731.796,870.626 765.762,870.626 799.728,870.626 833.694,870.626 867.66,870.626 901.626,870.626 935.592,870.626 969.558,870.626 1003.52,870.626 1037.49,870.626 1071.46,870.626 1105.42,870.626 1139.39,870.626 1173.35,870.626 1207.32,870.626 1241.29,870.626 1275.25,870.626 1309.22,870.626 1343.19,870.626 1377.15,870.626 1411.12,870.626 1445.08,870.626 1479.05,870.626 1513.02,870.626 "/>
<polyline clip-path="url(#clip311)" style="stroke:#6b9e32; stroke-linecap:round; stroke-linejoin:round; stroke-width:4; stroke-opacity:1; fill:none" points="188.339,870.626 222.305,870.626 256.271,870.626 290.237,870.626 324.203,870.626 358.169,870.626 392.135,870.626 426.101,870.626 460.067,870.626 494.033,870.626 527.999,870.337 561.965,834.472 595.931,661.773 629.898,397.852 663.864,345.748 697.83,579.681 731.796,801.693 765.762,867.546 799.728,870.626 833.694,870.626 867.66,870.626 901.626,870.626 935.592,870.626 969.558,870.626 1003.52,870.626 1037.49,870.626 1071.46,870.626 1105.42,870.626 1139.39,870.626 1173.35,870.626 1207.32,870.626 1241.29,870.626 1275.25,870.626 1309.22,870.626 1343.19,870.626 1377.15,870.626 1411.12,870.626 1445.08,870.626 1479.05,870.626 1513.02,870.626 "/>
<polyline clip-path="url(#clip311)" style="stroke:#009af9; stroke-linecap:round; stroke-linejoin:round; stroke-width:4; stroke-opacity:1; fill:none" points="188.339,870.626 222.305,870.626 256.271,870.626 290.237,870.626 324.203,870.626 358.169,870.626 392.135,870.626 426.101,870.626 460.067,870.626 494.033,870.626 527.999,870.626 561.965,870.626 595.931,870.126 629.898,829.957 663.864,648.577 697.83,387.571 731.796,352.697 765.762,593.71 799.728,808.151 833.694,868.312 867.66,870.626 901.626,870.626 935.592,870.626 969.558,870.626 1003.52,870.626 1037.49,870.626 1071.46,870.626 1105.42,870.626 1139.39,870.626 1173.35,870.626 1207.32,870.626 1241.29,870.626 1275.25,870.626 1309.22,870.626 1343.19,870.626 1377.15,870.626 1411.12,870.626 1445.08,870.626 1479.05,870.626 1513.02,870.626 "/>
<polyline clip-path="url(#clip311)" style="stroke:#e26f46; stroke-linecap:round; stroke-linejoin:round; stroke-width:4; stroke-opacity:1; fill:none" points="188.339,870.626 222.305,870.626 256.271,870.626 290.237,870.626 324.203,870.626 358.169,870.626 392.135,870.626 426.101,870.626 460.067,870.626 494.033,870.626 527.999,870.626 561.965,870.626 595.931,870.626 629.898,870.626 663.864,869.832 697.83,825.082 731.796,635.131 765.762,377.874 799.728,360.395 833.694,607.656 867.66,814.193 901.626,868.939 935.592,870.626 969.558,870.626 1003.52,870.626 1037.49,870.626 1071.46,870.626 1105.42,870.626 1139.39,870.626 1173.35,870.626 1207.32,870.626 1241.29,870.626 1275.25,870.626 1309.22,870.626 1343.19,870.626 1377.15,870.626 1411.12,870.626 1445.08,870.626 1479.05,870.626 1513.02,870.626 "/>
<polyline clip-path="url(#clip311)" style="stroke:#3da44d; stroke-linecap:round; stroke-linejoin:round; stroke-width:4; stroke-opacity:1; fill:none" points="188.339,870.626 222.305,870.626 256.271,870.626 290.237,870.626 324.203,870.626 358.169,870.626 392.135,870.626 426.101,870.626 460.067,870.626 494.033,870.626 527.999,870.626 561.965,870.626 595.931,870.626 629.898,870.626 663.864,870.626 697.83,870.626 731.796,869.441 765.762,819.832 799.728,621.477 833.694,368.801 867.66,368.801 901.626,621.477 935.592,819.832 969.558,869.441 1003.52,870.626 1037.49,870.626 1071.46,870.626 1105.42,870.626 1139.39,870.626 1173.35,870.626 1207.32,870.626 1241.29,870.626 1275.25,870.626 1309.22,870.626 1343.19,870.626 1377.15,870.626 1411.12,870.626 1445.08,870.626 1479.05,870.626 1513.02,870.626 "/>
<polyline clip-path="url(#clip311)" style="stroke:#c271d2; stroke-linecap:round; stroke-linejoin:round; stroke-width:4; stroke-opacity:1; fill:none" points="188.339,870.626 222.305,870.626 256.271,870.626 290.237,870.626 324.203,870.626 358.169,870.626 392.135,870.626 426.101,870.626 460.067,870.626 494.033,870.626 527.999,870.626 561.965,870.626 595.931,870.626 629.898,870.626 663.864,870.626 697.83,870.626 731.796,870.626 765.762,870.626 799.728,868.939 833.694,814.193 867.66,607.656 901.626,360.395 935.592,377.874 969.558,635.131 1003.52,825.082 1037.49,869.832 1071.46,870.626 1105.42,870.626 1139.39,870.626 1173.35,870.626 1207.32,870.626 1241.29,870.626 1275.25,870.626 1309.22,870.626 1343.19,870.626 1377.15,870.626 1411.12,870.626 1445.08,870.626 1479.05,870.626 1513.02,870.626 "/>
<polyline clip-path="url(#clip311)" style="stroke:#ac8d18; stroke-linecap:round; stroke-linejoin:round; stroke-width:4; stroke-opacity:1; fill:none" points="188.339,870.626 222.305,870.626 256.271,870.626 290.237,870.626 324.203,870.626 358.169,870.626 392.135,870.626 426.101,870.626 460.067,870.626 494.033,870.626 527.999,870.626 561.965,870.626 595.931,870.626 629.898,870.626 663.864,870.626 697.83,870.626 731.796,870.626 765.762,870.626 799.728,870.626 833.694,870.626 867.66,868.312 901.626,808.151 935.592,593.71 969.558,352.697 1003.52,387.571 1037.49,648.577 1071.46,829.957 1105.42,870.126 1139.39,870.626 1173.35,870.626 1207.32,870.626 1241.29,870.626 1275.25,870.626 1309.22,870.626 1343.19,870.626 1377.15,870.626 1411.12,870.626 1445.08,870.626 1479.05,870.626 1513.02,870.626 "/>
<polyline clip-path="url(#clip311)" style="stroke:#00a9ad; stroke-linecap:round; stroke-linejoin:round; stroke-width:4; stroke-opacity:1; fill:none" points="188.339,870.626 222.305,870.626 256.271,870.626 290.237,870.626 324.203,870.626 358.169,870.626 392.135,870.626 426.101,870.626 460.067,870.626 494.033,870.626 527.999,870.626 561.965,870.626 595.931,870.626 629.898,870.626 663.864,870.626 697.83,870.626 731.796,870.626 765.762,870.626 799.728,870.626 833.694,870.626 867.66,870.626 901.626,870.626 935.592,867.546 969.558,801.693 1003.52,579.681 1037.49,345.748 1071.46,397.852 1105.42,661.773 1139.39,834.472 1173.35,870.337 1207.32,870.626 1241.29,870.626 1275.25,870.626 1309.22,870.626 1343.19,870.626 1377.15,870.626 1411.12,870.626 1445.08,870.626 1479.05,870.626 1513.02,870.626 "/>
<polyline clip-path="url(#clip311)" style="stroke:#ed5d92; stroke-linecap:round; stroke-linejoin:round; stroke-width:4; stroke-opacity:1; fill:none" points="188.339,870.626 222.305,870.626 256.271,870.626 290.237,870.626 324.203,870.626 358.169,870.626 392.135,870.626 426.101,870.626 460.067,870.626 494.033,870.626 527.999,870.626 561.965,870.626 595.931,870.626 629.898,870.626 663.864,870.626 697.83,870.626 731.796,870.626 765.762,870.626 799.728,870.626 833.694,870.626 867.66,870.626 901.626,870.626 935.592,870.626 969.558,870.626 1003.52,866.627 1037.49,794.805 1071.46,565.61 1105.42,339.591 1139.39,408.674 1173.35,674.677 1207.32,838.639 1241.29,870.478 1275.25,870.626 1309.22,870.626 1343.19,870.626 1377.15,870.626 1411.12,870.626 1445.08,870.626 1479.05,870.626 1513.02,870.626 "/>
<polyline clip-path="url(#clip311)" style="stroke:#c68125; stroke-linecap:round; stroke-linejoin:round; stroke-width:4; stroke-opacity:1; fill:none" points="188.339,870.626 222.305,870.626 256.271,870.626 290.237,870.626 324.203,870.626 358.169,870.626 392.135,870.626 426.101,870.626 460.067,870.626 494.033,870.626 527.999,870.626 561.965,870.626 595.931,870.626 629.898,870.626 663.864,870.626 697.83,870.626 731.796,870.626 765.762,870.626 799.728,870.626 833.694,870.626 867.66,870.626 901.626,870.626 935.592,870.626 969.558,870.626 1003.52,870.626 1037.49,870.626 1071.46,865.542 1105.42,787.472 1139.39,551.54 1173.35,334.267 1207.32,419.996 1241.29,687.249 1275.25,842.473 1309.22,870.563 1343.19,870.626 1377.15,870.626 1411.12,870.626 1445.08,870.626 1479.05,870.626 1513.02,870.626 "/>
<polyline clip-path="url(#clip311)" style="stroke:#00a98d; stroke-linecap:round; stroke-linejoin:round; stroke-width:4; stroke-opacity:1; fill:none" points="188.339,870.626 222.305,870.626 256.271,870.626 290.237,870.626 324.203,870.626 358.169,870.626 392.135,870.626 426.101,870.626 460.067,870.626 494.033,870.626 527.999,870.626 561.965,870.626 595.931,870.626 629.898,870.626 663.864,870.626 697.83,870.626 731.796,870.626 765.762,870.626 799.728,870.626 833.694,870.626 867.66,870.626 901.626,870.626 935.592,870.626 969.558,870.626 1003.52,870.626 1037.49,870.626 1071.46,870.626 1105.42,870.626 1139.39,864.277 1173.35,779.681 1207.32,537.511 1241.29,329.817 1275.25,431.776 1309.22,699.445 1343.19,845.988 1377.15,870.607 1411.12,870.626 1445.08,870.626 1479.05,870.626 1513.02,870.626 "/>
<polyline clip-path="url(#clip311)" style="stroke:#8e971d; stroke-linecap:round; stroke-linejoin:round; stroke-width:4; stroke-opacity:1; fill:none" points="188.339,870.626 222.305,870.626 256.271,870.626 290.237,870.626 324.203,870.626 358.169,870.626 392.135,870.626 426.101,870.626 460.067,870.626 494.033,870.626 527.999,870.626 561.965,870.626 595.931,870.626 629.898,870.626 663.864,870.626 697.83,870.626 731.796,870.626 765.762,870.626 799.728,870.626 833.694,870.626 867.66,870.626 901.626,870.626 935.592,870.626 969.558,870.626 1003.52,870.626 1037.49,870.626 1071.46,870.626 1105.42,870.626 1139.39,870.626 1173.35,870.626 1207.32,862.817 1241.29,771.418 1275.25,523.565 1309.22,326.284 1343.19,443.972 1377.15,711.225 1411.12,849.197 1445.08,870.624 1479.05,870.626 1513.02,870.626 "/>
<polyline clip-path="url(#clip311)" style="stroke:#00a8cb; stroke-linecap:round; stroke-linejoin:round; stroke-width:4; stroke-opacity:1; fill:none" points="188.339,870.626 222.305,870.626 256.271,870.626 290.237,870.626 324.203,870.626 358.169,870.626 392.135,870.626 426.101,870.626 460.067,870.626 494.033,870.626 527.999,870.626 561.965,870.626 595.931,870.626 629.898,870.626 663.864,870.626 697.83,870.626 731.796,870.626 765.762,870.626 799.728,870.626 833.694,870.626 867.66,870.626 901.626,870.626 935.592,870.626 969.558,870.626 1003.52,870.626 1037.49,870.626 1071.46,870.626 1105.42,870.626 1139.39,870.626 1173.35,870.626 1207.32,870.626 1241.29,870.626 1275.25,861.148 1309.22,762.67 1343.19,509.744 1377.15,323.708 1411.12,456.543 1445.08,722.547 1479.05,852.115 1513.02,870.626 "/>
<polyline clip-path="url(#clip311)" style="stroke:#9b7fe8; stroke-linecap:round; stroke-linejoin:round; stroke-width:4; stroke-opacity:1; fill:none" points="188.339,870.626 222.305,870.626 256.271,870.626 290.237,870.626 324.203,870.626 358.169,870.626 392.135,870.626 426.101,870.626 460.067,870.626 494.033,870.626 527.999,870.626 561.965,870.626 595.931,870.626 629.898,870.626 663.864,870.626 697.83,870.626 731.796,870.626 765.762,870.626 799.728,870.626 833.694,870.626 867.66,870.626 901.626,870.626 935.592,870.626 969.558,870.626 1003.52,870.626 1037.49,870.626 1071.46,870.626 1105.42,870.626 1139.39,870.626 1173.35,870.626 1207.32,870.626 1241.29,870.626 1275.25,870.626 1309.22,870.626 1343.19,859.258 1377.15,753.421 1411.12,482.992 1445.08,198.9 1479.05,77.9308 1513.02,71.2261 "/>
<polyline clip-path="url(#clip311)" style="stroke:#608cf6; stroke-linecap:round; stroke-linejoin:round; stroke-width:4; stroke-opacity:1; fill:none" points="188.339,870.626 222.305,870.626 256.271,870.626 290.237,870.626 324.203,870.626 358.169,870.626 392.135,870.626 426.101,870.626 460.067,870.626 494.033,870.626 527.999,870.626 561.965,870.626 595.931,870.626 629.898,870.626 663.864,870.626 697.83,870.626 731.796,870.626 765.762,870.626 799.728,870.626 833.694,870.626 867.66,870.626 901.626,870.626 935.592,870.626 969.558,870.626 1003.52,870.626 1037.49,870.626 1071.46,870.626 1105.42,870.626 1139.39,870.626 1173.35,870.626 1207.32,870.626 1241.29,870.626 1275.25,870.626 1309.22,870.626 1343.19,870.626 1377.15,870.626 1411.12,870.229 1445.08,866.892 1479.05,858.295 1513.02,846.525 "/>
<polyline clip-path="url(#clip311)" style="stroke:#f05f73; stroke-linecap:round; stroke-linejoin:round; stroke-width:4; stroke-opacity:1; fill:none" points="188.339,870.626 222.305,870.626 256.271,870.626 290.237,870.626 324.203,870.626 358.169,870.626 392.135,870.626 426.101,870.626 460.067,870.626 494.033,870.626 527.999,870.626 561.965,870.626 595.931,870.626 629.898,870.626 663.864,870.626 697.83,870.626 731.796,870.626 765.762,870.626 799.728,870.626 833.694,870.626 867.66,870.626 901.626,870.626 935.592,870.626 969.558,870.626 1003.52,870.626 1037.49,870.626 1071.46,870.626 1105.42,870.626 1139.39,870.626 1173.35,870.626 1207.32,870.626 1241.29,870.626 1275.25,870.626 1309.22,870.626 1343.19,870.626 1377.15,870.626 1411.12,870.626 1445.08,870.626 1479.05,870.621 1513.02,870.585 "/>
</svg>
