<?xml version="1.0" encoding="utf-8"?>
<svg xmlns="http://www.w3.org/2000/svg" xmlns:xlink="http://www.w3.org/1999/xlink" width="400" height="250" viewBox="0 0 1600 1000">
<defs>
  <clipPath id="clip910">
    <rect x="0" y="0" width="1600" height="1000"/>
  </clipPath>
</defs>
<path clip-path="url(#clip910)" d="M0 1000 L1600 1000 L1600 0 L0 0  Z" fill="#ffffff" fill-rule="evenodd" fill-opacity="1"/>
<defs>
  <clipPath id="clip911">
    <rect x="178" y="47" width="1375" height="848"/>
  </clipPath>
</defs>
<path clip-path="url(#clip910)" d="M178.274 894.608 L1552.76 894.608 L1552.76 47.2441 L178.274 47.2441  Z" fill="#ffffff" fill-rule="evenodd" fill-opacity="1"/>
<polyline clip-path="url(#clip911)" style="stroke:#000000; stroke-linecap:round; stroke-linejoin:round; stroke-width:2; stroke-opacity:0.1; fill:none" points="183.926,894.608 183.926,47.2441 "/>
<polyline clip-path="url(#clip911)" style="stroke:#000000; stroke-linecap:round; stroke-linejoin:round; stroke-width:2; stroke-opacity:0.1; fill:none" points="516.409,894.608 516.409,47.2441 "/>
<polyline clip-path="url(#clip911)" style="stroke:#000000; stroke-linecap:round; stroke-linejoin:round; stroke-width:2; stroke-opacity:0.1; fill:none" points="848.891,894.608 848.891,47.2441 "/>
<polyline clip-path="url(#clip911)" style="stroke:#000000; stroke-linecap:round; stroke-linejoin:round; stroke-width:2; stroke-opacity:0.1; fill:none" points="1181.37,894.608 1181.37,47.2441 "/>
<polyline clip-path="url(#clip911)" style="stroke:#000000; stroke-linecap:round; stroke-linejoin:round; stroke-width:2; stroke-opacity:0.1; fill:none" points="1513.86,894.608 1513.86,47.2441 "/>
<polyline clip-path="url(#clip911)" style="stroke:#000000; stroke-linecap:round; stroke-linejoin:round; stroke-width:2; stroke-opacity:0.1; fill:none" points="178.274,870.626 1552.76,870.626 "/>
<polyline clip-path="url(#clip911)" style="stroke:#000000; stroke-linecap:round; stroke-linejoin:round; stroke-width:2; stroke-opacity:0.1; fill:none" points="178.274,670.776 1552.76,670.776 "/>
<polyline clip-path="url(#clip911)" style="stroke:#000000; stroke-linecap:round; stroke-linejoin:round; stroke-width:2; stroke-opacity:0.1; fill:none" points="178.274,470.926 1552.76,470.926 "/>
<polyline clip-path="url(#clip911)" style="stroke:#000000; stroke-linecap:round; stroke-linejoin:round; stroke-width:2; stroke-opacity:0.1; fill:none" points="178.274,271.076 1552.76,271.076 "/>
<polyline clip-path="url(#clip911)" style="stroke:#000000; stroke-linecap:round; stroke-linejoin:round; stroke-width:2; stroke-opacity:0.1; fill:none" points="178.274,71.2261 1552.76,71.2261 "/>
<polyline clip-path="url(#clip910)" style="stroke:#000000; stroke-linecap:round; stroke-linejoin:round; stroke-width:4; stroke-opacity:1; fill:none" points="178.274,894.608 1552.76,894.608 "/>
<polyline clip-path="url(#clip910)" style="stroke:#000000; stroke-linecap:round; stroke-linejoin:round; stroke-width:4; stroke-opacity:1; fill:none" points="183.926,894.608 183.926,875.71 "/>
<polyline clip-path="url(#clip910)" style="stroke:#000000; stroke-linecap:round; stroke-linejoin:round; stroke-width:4; stroke-opacity:1; fill:none" points="516.409,894.608 516.409,875.71 "/>
<polyline clip-path="url(#clip910)" style="stroke:#000000; stroke-linecap:round; stroke-linejoin:round; stroke-width:4; stroke-opacity:1; fill:none" points="848.891,894.608 848.891,875.71 "/>
<polyline clip-path="url(#clip910)" style="stroke:#000000; stroke-linecap:round; stroke-linejoin:round; stroke-width:4; stroke-opacity:1; fill:none" points="1181.37,894.608 1181.37,875.71 "/>
<polyline clip-path="url(#clip910)" style="stroke:#000000; stroke-linecap:round; stroke-linejoin:round; stroke-width:4; stroke-opacity:1; fill:none" points="1513.86,894.608 1513.86,875.71 "/>
<path clip-path="url(#clip910)" d="M183.926 919.127 Q180.315 919.127 178.486 922.691 Q176.681 926.233 176.681 933.363 Q176.681 940.469 178.486 944.034 Q180.315 947.575 183.926 947.575 Q187.56 947.575 189.366 944.034 Q191.195 940.469 191.195 933.363 Q191.195 926.233 189.366 922.691 Q187.56 919.127 183.926 919.127 M183.926 915.423 Q189.736 915.423 192.792 920.029 Q195.871 924.613 195.871 933.363 Q195.871 942.089 192.792 946.696 Q189.736 951.279 183.926 951.279 Q178.116 951.279 175.037 946.696 Q171.982 942.089 171.982 933.363 Q171.982 924.613 175.037 920.029 Q178.116 915.423 183.926 915.423 Z" fill="#000000" fill-rule="nonzero" fill-opacity="1" /><path clip-path="url(#clip910)" d="M491.096 946.673 L498.735 946.673 L498.735 920.307 L490.425 921.974 L490.425 917.715 L498.689 916.048 L503.365 916.048 L503.365 946.673 L511.003 946.673 L511.003 950.608 L491.096 950.608 L491.096 946.673 Z" fill="#000000" fill-rule="nonzero" fill-opacity="1" /><path clip-path="url(#clip910)" d="M530.448 919.127 Q526.837 919.127 525.008 922.691 Q523.202 926.233 523.202 933.363 Q523.202 940.469 525.008 944.034 Q526.837 947.575 530.448 947.575 Q534.082 947.575 535.888 944.034 Q537.716 940.469 537.716 933.363 Q537.716 926.233 535.888 922.691 Q534.082 919.127 530.448 919.127 M530.448 915.423 Q536.258 915.423 539.313 920.029 Q542.392 924.613 542.392 933.363 Q542.392 942.089 539.313 946.696 Q536.258 951.279 530.448 951.279 Q524.638 951.279 521.559 946.696 Q518.503 942.089 518.503 933.363 Q518.503 924.613 521.559 920.029 Q524.638 915.423 530.448 915.423 Z" fill="#000000" fill-rule="nonzero" fill-opacity="1" /><path clip-path="url(#clip910)" d="M827.664 946.673 L843.983 946.673 L843.983 950.608 L822.039 950.608 L822.039 946.673 Q824.701 943.918 829.284 939.288 Q833.891 934.636 835.071 933.293 Q837.317 930.77 838.196 929.034 Q839.099 927.275 839.099 925.585 Q839.099 922.83 837.155 921.094 Q835.234 919.358 832.132 919.358 Q829.933 919.358 827.479 920.122 Q825.048 920.886 822.271 922.437 L822.271 917.715 Q825.095 916.58 827.548 916.002 Q830.002 915.423 832.039 915.423 Q837.409 915.423 840.604 918.108 Q843.798 920.793 843.798 925.284 Q843.798 927.414 842.988 929.335 Q842.201 931.233 840.095 933.826 Q839.516 934.497 836.414 937.714 Q833.312 940.909 827.664 946.673 Z" fill="#000000" fill-rule="nonzero" fill-opacity="1" /><path clip-path="url(#clip910)" d="M863.798 919.127 Q860.187 919.127 858.358 922.691 Q856.553 926.233 856.553 933.363 Q856.553 940.469 858.358 944.034 Q860.187 947.575 863.798 947.575 Q867.432 947.575 869.238 944.034 Q871.067 940.469 871.067 933.363 Q871.067 926.233 869.238 922.691 Q867.432 919.127 863.798 919.127 M863.798 915.423 Q869.608 915.423 872.664 920.029 Q875.743 924.613 875.743 933.363 Q875.743 942.089 872.664 946.696 Q869.608 951.279 863.798 951.279 Q857.988 951.279 854.909 946.696 Q851.854 942.089 851.854 933.363 Q851.854 924.613 854.909 920.029 Q857.988 915.423 863.798 915.423 Z" fill="#000000" fill-rule="nonzero" fill-opacity="1" /><path clip-path="url(#clip910)" d="M1170.22 931.974 Q1173.57 932.691 1175.45 934.96 Q1177.35 937.228 1177.35 940.562 Q1177.35 945.677 1173.83 948.478 Q1170.31 951.279 1163.83 951.279 Q1161.65 951.279 1159.34 950.839 Q1157.04 950.423 1154.59 949.566 L1154.59 945.052 Q1156.54 946.187 1158.85 946.765 Q1161.16 947.344 1163.69 947.344 Q1168.09 947.344 1170.38 945.608 Q1172.69 943.872 1172.69 940.562 Q1172.69 937.506 1170.54 935.793 Q1168.41 934.057 1164.59 934.057 L1160.56 934.057 L1160.56 930.214 L1164.78 930.214 Q1168.23 930.214 1170.05 928.849 Q1171.88 927.46 1171.88 924.867 Q1171.88 922.205 1169.98 920.793 Q1168.11 919.358 1164.59 919.358 Q1162.67 919.358 1160.47 919.775 Q1158.27 920.191 1155.63 921.071 L1155.63 916.904 Q1158.29 916.164 1160.61 915.793 Q1162.95 915.423 1165.01 915.423 Q1170.33 915.423 1173.43 917.853 Q1176.54 920.261 1176.54 924.381 Q1176.54 927.252 1174.89 929.242 Q1173.25 931.21 1170.22 931.974 Z" fill="#000000" fill-rule="nonzero" fill-opacity="1" /><path clip-path="url(#clip910)" d="M1196.21 919.127 Q1192.6 919.127 1190.77 922.691 Q1188.97 926.233 1188.97 933.363 Q1188.97 940.469 1190.77 944.034 Q1192.6 947.575 1196.21 947.575 Q1199.85 947.575 1201.65 944.034 Q1203.48 940.469 1203.48 933.363 Q1203.48 926.233 1201.65 922.691 Q1199.85 919.127 1196.21 919.127 M1196.21 915.423 Q1202.02 915.423 1205.08 920.029 Q1208.16 924.613 1208.16 933.363 Q1208.16 942.089 1205.08 946.696 Q1202.02 951.279 1196.21 951.279 Q1190.4 951.279 1187.32 946.696 Q1184.27 942.089 1184.27 933.363 Q1184.27 924.613 1187.32 920.029 Q1190.4 915.423 1196.21 915.423 Z" fill="#000000" fill-rule="nonzero" fill-opacity="1" /><path clip-path="url(#clip910)" d="M1502.03 920.122 L1490.22 938.571 L1502.03 938.571 L1502.03 920.122 M1500.8 916.048 L1506.68 916.048 L1506.68 938.571 L1511.61 938.571 L1511.61 942.46 L1506.68 942.46 L1506.68 950.608 L1502.03 950.608 L1502.03 942.46 L1486.43 942.46 L1486.43 937.946 L1500.8 916.048 Z" fill="#000000" fill-rule="nonzero" fill-opacity="1" /><path clip-path="url(#clip910)" d="M1529.34 919.127 Q1525.73 919.127 1523.9 922.691 Q1522.1 926.233 1522.1 933.363 Q1522.1 940.469 1523.9 944.034 Q1525.73 947.575 1529.34 947.575 Q1532.98 947.575 1534.78 944.034 Q1536.61 940.469 1536.61 933.363 Q1536.61 926.233 1534.78 922.691 Q1532.98 919.127 1529.34 919.127 M1529.34 915.423 Q1535.15 915.423 1538.21 920.029 Q1541.29 924.613 1541.29 933.363 Q1541.29 942.089 1538.21 946.696 Q1535.15 951.279 1529.34 951.279 Q1523.53 951.279 1520.45 946.696 Q1517.4 942.089 1517.4 933.363 Q1517.4 924.613 1520.45 920.029 Q1523.53 915.423 1529.34 915.423 Z" fill="#000000" fill-rule="nonzero" fill-opacity="1" /><polyline clip-path="url(#clip910)" style="stroke:#000000; stroke-linecap:round; stroke-linejoin:round; stroke-width:4; stroke-opacity:1; fill:none" points="178.274,894.608 178.274,47.2441 "/>
<polyline clip-path="url(#clip910)" style="stroke:#000000; stroke-linecap:round; stroke-linejoin:round; stroke-width:4; stroke-opacity:1; fill:none" points="178.274,870.626 197.172,870.626 "/>
<polyline clip-path="url(#clip910)" style="stroke:#000000; stroke-linecap:round; stroke-linejoin:round; stroke-width:4; stroke-opacity:1; fill:none" points="178.274,670.776 197.172,670.776 "/>
<polyline clip-path="url(#clip910)" style="stroke:#000000; stroke-linecap:round; stroke-linejoin:round; stroke-width:4; stroke-opacity:1; fill:none" points="178.274,470.926 197.172,470.926 "/>
<polyline clip-path="url(#clip910)" style="stroke:#000000; stroke-linecap:round; stroke-linejoin:round; stroke-width:4; stroke-opacity:1; fill:none" points="178.274,271.076 197.172,271.076 "/>
<polyline clip-path="url(#clip910)" style="stroke:#000000; stroke-linecap:round; stroke-linejoin:round; stroke-width:4; stroke-opacity:1; fill:none" points="178.274,71.2261 197.172,71.2261 "/>
<path clip-path="url(#clip910)" d="M66.9365 856.425 Q63.3254 856.425 61.4967 859.989 Q59.6912 863.531 59.6912 870.661 Q59.6912 877.767 61.4967 881.332 Q63.3254 884.873 66.9365 884.873 Q70.5707 884.873 72.3763 881.332 Q74.205 877.767 74.205 870.661 Q74.205 863.531 72.3763 859.989 Q70.5707 856.425 66.9365 856.425 M66.9365 852.721 Q72.7467 852.721 75.8022 857.327 Q78.8809 861.911 78.8809 870.661 Q78.8809 879.387 75.8022 883.994 Q72.7467 888.577 66.9365 888.577 Q61.1264 888.577 58.0477 883.994 Q54.9921 879.387 54.9921 870.661 Q54.9921 861.911 58.0477 857.327 Q61.1264 852.721 66.9365 852.721 Z" fill="#000000" fill-rule="nonzero" fill-opacity="1" /><path clip-path="url(#clip910)" d="M87.0984 882.026 L91.9827 882.026 L91.9827 887.906 L87.0984 887.906 L87.0984 882.026 Z" fill="#000000" fill-rule="nonzero" fill-opacity="1" /><path clip-path="url(#clip910)" d="M112.168 856.425 Q108.557 856.425 106.728 859.989 Q104.922 863.531 104.922 870.661 Q104.922 877.767 106.728 881.332 Q108.557 884.873 112.168 884.873 Q115.802 884.873 117.608 881.332 Q119.436 877.767 119.436 870.661 Q119.436 863.531 117.608 859.989 Q115.802 856.425 112.168 856.425 M112.168 852.721 Q117.978 852.721 121.033 857.327 Q124.112 861.911 124.112 870.661 Q124.112 879.387 121.033 883.994 Q117.978 888.577 112.168 888.577 Q106.358 888.577 103.279 883.994 Q100.223 879.387 100.223 870.661 Q100.223 861.911 103.279 857.327 Q106.358 852.721 112.168 852.721 Z" fill="#000000" fill-rule="nonzero" fill-opacity="1" /><path clip-path="url(#clip910)" d="M142.33 856.425 Q138.719 856.425 136.89 859.989 Q135.084 863.531 135.084 870.661 Q135.084 877.767 136.89 881.332 Q138.719 884.873 142.33 884.873 Q145.964 884.873 147.769 881.332 Q149.598 877.767 149.598 870.661 Q149.598 863.531 147.769 859.989 Q145.964 856.425 142.33 856.425 M142.33 852.721 Q148.14 852.721 151.195 857.327 Q154.274 861.911 154.274 870.661 Q154.274 879.387 151.195 883.994 Q148.14 888.577 142.33 888.577 Q136.519 888.577 133.441 883.994 Q130.385 879.387 130.385 870.661 Q130.385 861.911 133.441 857.327 Q136.519 852.721 142.33 852.721 Z" fill="#000000" fill-rule="nonzero" fill-opacity="1" /><path clip-path="url(#clip910)" d="M67.9319 656.575 Q64.3208 656.575 62.4921 660.139 Q60.6865 663.681 60.6865 670.811 Q60.6865 677.917 62.4921 681.482 Q64.3208 685.024 67.9319 685.024 Q71.5661 685.024 73.3717 681.482 Q75.2004 677.917 75.2004 670.811 Q75.2004 663.681 73.3717 660.139 Q71.5661 656.575 67.9319 656.575 M67.9319 652.871 Q73.742 652.871 76.7976 657.477 Q79.8763 662.061 79.8763 670.811 Q79.8763 679.537 76.7976 684.144 Q73.742 688.727 67.9319 688.727 Q62.1217 688.727 59.043 684.144 Q55.9875 679.537 55.9875 670.811 Q55.9875 662.061 59.043 657.477 Q62.1217 652.871 67.9319 652.871 Z" fill="#000000" fill-rule="nonzero" fill-opacity="1" /><path clip-path="url(#clip910)" d="M88.0938 682.176 L92.978 682.176 L92.978 688.056 L88.0938 688.056 L88.0938 682.176 Z" fill="#000000" fill-rule="nonzero" fill-opacity="1" /><path clip-path="url(#clip910)" d="M107.191 684.121 L123.51 684.121 L123.51 688.056 L101.566 688.056 L101.566 684.121 Q104.228 681.366 108.811 676.737 Q113.418 672.084 114.598 670.741 Q116.844 668.218 117.723 666.482 Q118.626 664.723 118.626 663.033 Q118.626 660.278 116.682 658.542 Q114.76 656.806 111.658 656.806 Q109.459 656.806 107.006 657.57 Q104.575 658.334 101.797 659.885 L101.797 655.163 Q104.621 654.028 107.075 653.45 Q109.529 652.871 111.566 652.871 Q116.936 652.871 120.131 655.556 Q123.325 658.241 123.325 662.732 Q123.325 664.862 122.515 666.783 Q121.728 668.681 119.621 671.274 Q119.043 671.945 115.941 675.162 Q112.839 678.357 107.191 684.121 Z" fill="#000000" fill-rule="nonzero" fill-opacity="1" /><path clip-path="url(#clip910)" d="M133.371 653.496 L151.728 653.496 L151.728 657.431 L137.654 657.431 L137.654 665.903 Q138.672 665.556 139.691 665.394 Q140.709 665.209 141.728 665.209 Q147.515 665.209 150.894 668.38 Q154.274 671.551 154.274 676.968 Q154.274 682.547 150.802 685.649 Q147.33 688.727 141.01 688.727 Q138.834 688.727 136.566 688.357 Q134.32 687.986 131.913 687.246 L131.913 682.547 Q133.996 683.681 136.219 684.237 Q138.441 684.792 140.918 684.792 Q144.922 684.792 147.26 682.686 Q149.598 680.579 149.598 676.968 Q149.598 673.357 147.26 671.25 Q144.922 669.144 140.918 669.144 Q139.043 669.144 137.168 669.561 Q135.316 669.977 133.371 670.857 L133.371 653.496 Z" fill="#000000" fill-rule="nonzero" fill-opacity="1" /><path clip-path="url(#clip910)" d="M66.9365 456.725 Q63.3254 456.725 61.4967 460.289 Q59.6912 463.831 59.6912 470.961 Q59.6912 478.067 61.4967 481.632 Q63.3254 485.174 66.9365 485.174 Q70.5707 485.174 72.3763 481.632 Q74.205 478.067 74.205 470.961 Q74.205 463.831 72.3763 460.289 Q70.5707 456.725 66.9365 456.725 M66.9365 453.021 Q72.7467 453.021 75.8022 457.627 Q78.8809 462.211 78.8809 470.961 Q78.8809 479.688 75.8022 484.294 Q72.7467 488.877 66.9365 488.877 Q61.1264 488.877 58.0477 484.294 Q54.9921 479.688 54.9921 470.961 Q54.9921 462.211 58.0477 457.627 Q61.1264 453.021 66.9365 453.021 Z" fill="#000000" fill-rule="nonzero" fill-opacity="1" /><path clip-path="url(#clip910)" d="M87.0984 482.326 L91.9827 482.326 L91.9827 488.206 L87.0984 488.206 L87.0984 482.326 Z" fill="#000000" fill-rule="nonzero" fill-opacity="1" /><path clip-path="url(#clip910)" d="M102.214 453.646 L120.57 453.646 L120.57 457.581 L106.496 457.581 L106.496 466.053 Q107.515 465.706 108.534 465.544 Q109.552 465.359 110.571 465.359 Q116.358 465.359 119.737 468.53 Q123.117 471.701 123.117 477.118 Q123.117 482.697 119.645 485.799 Q116.172 488.877 109.853 488.877 Q107.677 488.877 105.409 488.507 Q103.163 488.137 100.756 487.396 L100.756 482.697 Q102.839 483.831 105.061 484.387 Q107.284 484.942 109.76 484.942 Q113.765 484.942 116.103 482.836 Q118.441 480.729 118.441 477.118 Q118.441 473.507 116.103 471.401 Q113.765 469.294 109.76 469.294 Q107.885 469.294 106.01 469.711 Q104.159 470.127 102.214 471.007 L102.214 453.646 Z" fill="#000000" fill-rule="nonzero" fill-opacity="1" /><path clip-path="url(#clip910)" d="M142.33 456.725 Q138.719 456.725 136.89 460.289 Q135.084 463.831 135.084 470.961 Q135.084 478.067 136.89 481.632 Q138.719 485.174 142.33 485.174 Q145.964 485.174 147.769 481.632 Q149.598 478.067 149.598 470.961 Q149.598 463.831 147.769 460.289 Q145.964 456.725 142.33 456.725 M142.33 453.021 Q148.14 453.021 151.195 457.627 Q154.274 462.211 154.274 470.961 Q154.274 479.688 151.195 484.294 Q148.14 488.877 142.33 488.877 Q136.519 488.877 133.441 484.294 Q130.385 479.688 130.385 470.961 Q130.385 462.211 133.441 457.627 Q136.519 453.021 142.33 453.021 Z" fill="#000000" fill-rule="nonzero" fill-opacity="1" /><path clip-path="url(#clip910)" d="M67.9319 256.875 Q64.3208 256.875 62.4921 260.44 Q60.6865 263.981 60.6865 271.111 Q60.6865 278.217 62.4921 281.782 Q64.3208 285.324 67.9319 285.324 Q71.5661 285.324 73.3717 281.782 Q75.2004 278.217 75.2004 271.111 Q75.2004 263.981 73.3717 260.44 Q71.5661 256.875 67.9319 256.875 M67.9319 253.171 Q73.742 253.171 76.7976 257.777 Q79.8763 262.361 79.8763 271.111 Q79.8763 279.838 76.7976 284.444 Q73.742 289.027 67.9319 289.027 Q62.1217 289.027 59.043 284.444 Q55.9875 279.838 55.9875 271.111 Q55.9875 262.361 59.043 257.777 Q62.1217 253.171 67.9319 253.171 Z" fill="#000000" fill-rule="nonzero" fill-opacity="1" /><path clip-path="url(#clip910)" d="M88.0938 282.476 L92.978 282.476 L92.978 288.356 L88.0938 288.356 L88.0938 282.476 Z" fill="#000000" fill-rule="nonzero" fill-opacity="1" /><path clip-path="url(#clip910)" d="M101.983 253.796 L124.205 253.796 L124.205 255.787 L111.658 288.356 L106.774 288.356 L118.58 257.731 L101.983 257.731 L101.983 253.796 Z" fill="#000000" fill-rule="nonzero" fill-opacity="1" /><path clip-path="url(#clip910)" d="M133.371 253.796 L151.728 253.796 L151.728 257.731 L137.654 257.731 L137.654 266.203 Q138.672 265.856 139.691 265.694 Q140.709 265.509 141.728 265.509 Q147.515 265.509 150.894 268.68 Q154.274 271.851 154.274 277.268 Q154.274 282.847 150.802 285.949 Q147.33 289.027 141.01 289.027 Q138.834 289.027 136.566 288.657 Q134.32 288.287 131.913 287.546 L131.913 282.847 Q133.996 283.981 136.219 284.537 Q138.441 285.092 140.918 285.092 Q144.922 285.092 147.26 282.986 Q149.598 280.879 149.598 277.268 Q149.598 273.657 147.26 271.551 Q144.922 269.444 140.918 269.444 Q139.043 269.444 137.168 269.861 Q135.316 270.277 133.371 271.157 L133.371 253.796 Z" fill="#000000" fill-rule="nonzero" fill-opacity="1" /><path clip-path="url(#clip910)" d="M57.7467 84.5709 L65.3856 84.5709 L65.3856 58.2053 L57.0754 59.872 L57.0754 55.6127 L65.3393 53.9461 L70.0152 53.9461 L70.0152 84.5709 L77.654 84.5709 L77.654 88.5061 L57.7467 88.5061 L57.7467 84.5709 Z" fill="#000000" fill-rule="nonzero" fill-opacity="1" /><path clip-path="url(#clip910)" d="M87.0984 82.6265 L91.9827 82.6265 L91.9827 88.5061 L87.0984 88.5061 L87.0984 82.6265 Z" fill="#000000" fill-rule="nonzero" fill-opacity="1" /><path clip-path="url(#clip910)" d="M112.168 57.0248 Q108.557 57.0248 106.728 60.5896 Q104.922 64.1312 104.922 71.2608 Q104.922 78.3673 106.728 81.932 Q108.557 85.4737 112.168 85.4737 Q115.802 85.4737 117.608 81.932 Q119.436 78.3673 119.436 71.2608 Q119.436 64.1312 117.608 60.5896 Q115.802 57.0248 112.168 57.0248 M112.168 53.3211 Q117.978 53.3211 121.033 57.9275 Q124.112 62.5109 124.112 71.2608 Q124.112 79.9876 121.033 84.5941 Q117.978 89.1774 112.168 89.1774 Q106.358 89.1774 103.279 84.5941 Q100.223 79.9876 100.223 71.2608 Q100.223 62.5109 103.279 57.9275 Q106.358 53.3211 112.168 53.3211 Z" fill="#000000" fill-rule="nonzero" fill-opacity="1" /><path clip-path="url(#clip910)" d="M142.33 57.0248 Q138.719 57.0248 136.89 60.5896 Q135.084 64.1312 135.084 71.2608 Q135.084 78.3673 136.89 81.932 Q138.719 85.4737 142.33 85.4737 Q145.964 85.4737 147.769 81.932 Q149.598 78.3673 149.598 71.2608 Q149.598 64.1312 147.769 60.5896 Q145.964 57.0248 142.33 57.0248 M142.33 53.3211 Q148.14 53.3211 151.195 57.9275 Q154.274 62.5109 154.274 71.2608 Q154.274 79.9876 151.195 84.5941 Q148.14 89.1774 142.33 89.1774 Q136.519 89.1774 133.441 84.5941 Q130.385 79.9876 130.385 71.2608 Q130.385 62.5109 133.441 57.9275 Q136.519 53.3211 142.33 53.3211 Z" fill="#000000" fill-rule="nonzero" fill-opacity="1" /><polyline clip-path="url(#clip911)" style="stroke:#009af9; stroke-linecap:round; stroke-linejoin:round; stroke-width:4; stroke-opacity:1; fill:none" stroke-dasharray="16, 10" points="217.174,71.2261 250.423,778.192 283.671,870.626 316.919,870.626 350.167,870.626 383.416,870.626 416.664,870.626 449.912,870.626 483.16,870.626 516.409,870.626 549.657,870.626 582.905,870.626 616.153,870.626 649.401,870.626 682.65,870.626 715.898,870.626 749.146,870.626 782.394,870.626 815.643,870.626 848.891,870.626 882.139,870.626 915.387,870.626 948.636,870.626 981.884,870.626 1015.13,870.626 1048.38,870.626 1081.63,870.626 1114.88,870.626 1148.12,870.626 1181.37,870.626 1214.62,870.626 1247.87,870.626 1281.12,870.626 1314.37,870.626 1347.61,870.626 1380.86,870.626 1414.11,870.626 1447.36,870.626 1480.61,870.626 1513.86,870.626 "/>
<polyline clip-path="url(#clip911)" style="stroke:#e26f46; stroke-linecap:round; stroke-linejoin:round; stroke-width:4; stroke-opacity:1; fill:none" stroke-dasharray="16, 10" points="217.174,870.626 250.423,398.147 283.671,685.758 316.919,850.977 350.167,870.626 383.416,870.626 416.664,870.626 449.912,870.626 483.16,870.626 516.409,870.626 549.657,870.626 582.905,870.626 616.153,870.626 649.401,870.626 682.65,870.626 715.898,870.626 749.146,870.626 782.394,870.626 815.643,870.626 848.891,870.626 882.139,870.626 915.387,870.626 948.636,870.626 981.884,870.626 1015.13,870.626 1048.38,870.626 1081.63,870.626 1114.88,870.626 1148.12,870.626 1181.37,870.626 1214.62,870.626 1247.87,870.626 1281.12,870.626 1314.37,870.626 1347.61,870.626 1380.86,870.626 1414.11,870.626 1447.36,870.626 1480.61,870.626 1513.86,870.626 "/>
<polyline clip-path="url(#clip911)" style="stroke:#3da44d; stroke-linecap:round; stroke-linejoin:round; stroke-width:4; stroke-opacity:1; fill:none" stroke-dasharray="16, 10" points="217.174,870.626 250.423,654.107 283.671,399.834 316.919,513.619 350.167,756.857 383.416,859.591 416.664,870.626 449.912,870.626 483.16,870.626 516.409,870.626 549.657,870.626 582.905,870.626 616.153,870.626 649.401,870.626 682.65,870.626 715.898,870.626 749.146,870.626 782.394,870.626 815.643,870.626 848.891,870.626 882.139,870.626 915.387,870.626 948.636,870.626 981.884,870.626 1015.13,870.626 1048.38,870.626 1081.63,870.626 1114.88,870.626 1148.12,870.626 1181.37,870.626 1214.62,870.626 1247.87,870.626 1281.12,870.626 1314.37,870.626 1347.61,870.626 1380.86,870.626 1414.11,870.626 1447.36,870.626 1480.61,870.626 1513.86,870.626 "/>
<polyline clip-path="url(#clip911)" style="stroke:#c271d2; stroke-linecap:round; stroke-linejoin:round; stroke-width:4; stroke-opacity:1; fill:none" stroke-dasharray="16, 10" points="217.174,870.626 250.423,852.657 283.671,726.888 316.919,468.682 350.167,339.741 383.416,520.323 416.664,765.834 449.912,861.426 483.16,870.626 516.409,870.626 549.657,870.626 582.905,870.626 616.153,870.626 649.401,870.626 682.65,870.626 715.898,870.626 749.146,870.626 782.394,870.626 815.643,870.626 848.891,870.626 882.139,870.626 915.387,870.626 948.636,870.626 981.884,870.626 1015.13,870.626 1048.38,870.626 1081.63,870.626 1114.88,870.626 1148.12,870.626 1181.37,870.626 1214.62,870.626 1247.87,870.626 1281.12,870.626 1314.37,870.626 1347.61,870.626 1380.86,870.626 1414.11,870.626 1447.36,870.626 1480.61,870.626 1513.86,870.626 "/>
<polyline clip-path="url(#clip911)" style="stroke:#ac8d18; stroke-linecap:round; stroke-linejoin:round; stroke-width:4; stroke-opacity:1; fill:none" stroke-dasharray="16, 10" points="217.174,870.626 250.423,870.626 283.671,870.624 316.919,849.825 350.167,715.898 383.416,456.479 416.664,342.241 449.912,533.739 483.16,774.327 516.409,863.045 549.657,870.626 582.905,870.626 616.153,870.626 649.401,870.626 682.65,870.626 715.898,870.626 749.146,870.626 782.394,870.626 815.643,870.626 848.891,870.626 882.139,870.626 915.387,870.626 948.636,870.626 981.884,870.626 1015.13,870.626 1048.38,870.626 1081.63,870.626 1114.88,870.626 1148.12,870.626 1181.37,870.626 1214.62,870.626 1247.87,870.626 1281.12,870.626 1314.37,870.626 1347.61,870.626 1380.86,870.626 1414.11,870.626 1447.36,870.626 1480.61,870.626 1513.86,870.626 "/>
<polyline clip-path="url(#clip911)" style="stroke:#00a9ad; stroke-linecap:round; stroke-linejoin:round; stroke-width:4; stroke-opacity:1; fill:none" stroke-dasharray="16, 10" points="217.174,870.626 250.423,870.626 283.671,870.626 316.919,870.626 350.167,870.608 383.416,846.71 416.664,704.463 449.912,444.64 483.16,345.671 516.409,547.276 549.657,782.347 582.905,864.463 616.153,870.626 649.401,870.626 682.65,870.626 715.898,870.626 749.146,870.626 782.394,870.626 815.643,870.626 848.891,870.626 882.139,870.626 915.387,870.626 948.636,870.626 981.884,870.626 1015.13,870.626 1048.38,870.626 1081.63,870.626 1114.88,870.626 1148.12,870.626 1181.37,870.626 1214.62,870.626 1247.87,870.626 1281.12,870.626 1314.37,870.626 1347.61,870.626 1380.86,870.626 1414.11,870.626 1447.36,870.626 1480.61,870.626 1513.86,870.626 "/>
<polyline clip-path="url(#clip911)" style="stroke:#ed5d92; stroke-linecap:round; stroke-linejoin:round; stroke-width:4; stroke-opacity:1; fill:none" stroke-dasharray="16, 10" points="217.174,870.626 250.423,870.626 283.671,870.626 316.919,870.626 350.167,870.626 383.416,870.626 416.664,870.565 449.912,843.298 483.16,692.624 516.409,433.206 549.657,349.99 582.905,560.894 616.153,789.91 649.401,865.691 682.65,870.626 715.898,870.626 749.146,870.626 782.394,870.626 815.643,870.626 848.891,870.626 882.139,870.626 915.387,870.626 948.636,870.626 981.884,870.626 1015.13,870.626 1048.38,870.626 1081.63,870.626 1114.88,870.626 1148.12,870.626 1181.37,870.626 1214.62,870.626 1247.87,870.626 1281.12,870.626 1314.37,870.626 1347.61,870.626 1380.86,870.626 1414.11,870.626 1447.36,870.626 1480.61,870.626 1513.86,870.626 "/>
<polyline clip-path="url(#clip911)" style="stroke:#c68125; stroke-linecap:round; stroke-linejoin:round; stroke-width:4; stroke-opacity:1; fill:none" stroke-dasharray="16, 10" points="217.174,870.626 250.423,870.626 283.671,870.626 316.919,870.626 350.167,870.626 383.416,870.626 416.664,870.626 449.912,870.626 483.16,870.482 516.409,839.577 549.657,680.422 582.905,422.216 616.153,355.158 649.401,574.552 682.65,797.027 715.898,866.745 749.146,870.626 782.394,870.626 815.643,870.626 848.891,870.626 882.139,870.626 915.387,870.626 948.636,870.626 981.884,870.626 1015.13,870.626 1048.38,870.626 1081.63,870.626 1114.88,870.626 1148.12,870.626 1181.37,870.626 1214.62,870.626 1247.87,870.626 1281.12,870.626 1314.37,870.626 1347.61,870.626 1380.86,870.626 1414.11,870.626 1447.36,870.626 1480.61,870.626 1513.86,870.626 "/>
<polyline clip-path="url(#clip911)" style="stroke:#00a98d; stroke-linecap:round; stroke-linejoin:round; stroke-width:4; stroke-opacity:1; fill:none" stroke-dasharray="16, 10" points="217.174,870.626 250.423,870.626 283.671,870.626 316.919,870.626 350.167,870.626 383.416,870.626 416.664,870.626 449.912,870.626 483.16,870.626 516.409,870.626 549.657,870.345 582.905,835.531 616.153,667.895 649.401,411.711 682.65,361.135 715.898,588.21 749.146,803.714 782.394,867.636 815.643,870.626 848.891,870.626 882.139,870.626 915.387,870.626 948.636,870.626 981.884,870.626 1015.13,870.626 1048.38,870.626 1081.63,870.626 1114.88,870.626 1148.12,870.626 1181.37,870.626 1214.62,870.626 1247.87,870.626 1281.12,870.626 1314.37,870.626 1347.61,870.626 1380.86,870.626 1414.11,870.626 1447.36,870.626 1480.61,870.626 1513.86,870.626 "/>
<polyline clip-path="url(#clip911)" style="stroke:#8e971d; stroke-linecap:round; stroke-linejoin:round; stroke-width:4; stroke-opacity:1; fill:none" stroke-dasharray="16, 10" points="217.174,870.626 250.423,870.626 283.671,870.626 316.919,870.626 350.167,870.626 383.416,870.626 416.664,870.626 449.912,870.626 483.16,870.626 516.409,870.626 549.657,870.626 582.905,870.626 616.153,870.141 649.401,831.149 682.65,655.086 715.898,401.732 749.146,367.88 782.394,601.828 815.643,809.983 848.891,868.38 882.139,870.626 915.387,870.626 948.636,870.626 981.884,870.626 1015.13,870.626 1048.38,870.626 1081.63,870.626 1114.88,870.626 1148.12,870.626 1181.37,870.626 1214.62,870.626 1247.87,870.626 1281.12,870.626 1314.37,870.626 1347.61,870.626 1380.86,870.626 1414.11,870.626 1447.36,870.626 1480.61,870.626 1513.86,870.626 "/>
<polyline clip-path="url(#clip911)" style="stroke:#00a8cb; stroke-linecap:round; stroke-linejoin:round; stroke-width:4; stroke-opacity:1; fill:none" stroke-dasharray="16, 10" points="217.174,870.626 250.423,870.626 283.671,870.626 316.919,870.626 350.167,870.626 383.416,870.626 416.664,870.626 449.912,870.626 483.16,870.626 516.409,870.626 549.657,870.626 582.905,870.626 616.153,870.626 649.401,870.626 682.65,869.855 715.898,826.417 749.146,642.034 782.394,392.319 815.643,375.352 848.891,615.365 882.139,815.847 915.387,868.989 948.636,870.626 981.884,870.626 1015.13,870.626 1048.38,870.626 1081.63,870.626 1114.88,870.626 1148.12,870.626 1181.37,870.626 1214.62,870.626 1247.87,870.626 1281.12,870.626 1314.37,870.626 1347.61,870.626 1380.86,870.626 1414.11,870.626 1447.36,870.626 1480.61,870.626 1513.86,870.626 "/>
<polyline clip-path="url(#clip911)" style="stroke:#9b7fe8; stroke-linecap:round; stroke-linejoin:round; stroke-width:4; stroke-opacity:1; fill:none" stroke-dasharray="16, 10" points="217.174,870.626 250.423,870.626 283.671,870.626 316.919,870.626 350.167,870.626 383.416,870.626 416.664,870.626 449.912,870.626 483.16,870.626 516.409,870.626 549.657,870.626 582.905,870.626 616.153,870.626 649.401,870.626 682.65,870.626 715.898,870.626 749.146,869.476 782.394,821.321 815.643,628.78 848.891,383.512 882.139,383.512 915.387,628.78 948.636,821.321 981.884,869.476 1015.13,870.626 1048.38,870.626 1081.63,870.626 1114.88,870.626 1148.12,870.626 1181.37,870.626 1214.62,870.626 1247.87,870.626 1281.12,870.626 1314.37,870.626 1347.61,870.626 1380.86,870.626 1414.11,870.626 1447.36,870.626 1480.61,870.626 1513.86,870.626 "/>
<polyline clip-path="url(#clip911)" style="stroke:#608cf6; stroke-linecap:round; stroke-linejoin:round; stroke-width:4; stroke-opacity:1; fill:none" stroke-dasharray="16, 10" points="217.174,870.626 250.423,870.626 283.671,870.626 316.919,870.626 350.167,870.626 383.416,870.626 416.664,870.626 449.912,870.626 483.16,870.626 516.409,870.626 549.657,870.626 582.905,870.626 616.153,870.626 649.401,870.626 682.65,870.626 715.898,870.626 749.146,870.626 782.394,870.626 815.643,868.989 848.891,815.847 882.139,615.365 915.387,375.352 948.636,392.319 981.884,642.034 1015.13,826.417 1048.38,869.855 1081.63,870.626 1114.88,870.626 1148.12,870.626 1181.37,870.626 1214.62,870.626 1247.87,870.626 1281.12,870.626 1314.37,870.626 1347.61,870.626 1380.86,870.626 1414.11,870.626 1447.36,870.626 1480.61,870.626 1513.86,870.626 "/>
<polyline clip-path="url(#clip911)" style="stroke:#f05f73; stroke-linecap:round; stroke-linejoin:round; stroke-width:4; stroke-opacity:1; fill:none" stroke-dasharray="16, 10" points="217.174,870.626 250.423,870.626 283.671,870.626 316.919,870.626 350.167,870.626 383.416,870.626 416.664,870.626 449.912,870.626 483.16,870.626 516.409,870.626 549.657,870.626 582.905,870.626 616.153,870.626 649.401,870.626 682.65,870.626 715.898,870.626 749.146,870.626 782.394,870.626 815.643,870.626 848.891,870.626 882.139,868.38 915.387,809.983 948.636,601.828 981.884,367.88 1015.13,401.732 1048.38,655.086 1081.63,831.149 1114.88,870.141 1148.12,870.626 1181.37,870.626 1214.62,870.626 1247.87,870.626 1281.12,870.626 1314.37,870.626 1347.61,870.626 1380.86,870.626 1414.11,870.626 1447.36,870.626 1480.61,870.626 1513.86,870.626 "/>
<polyline clip-path="url(#clip911)" style="stroke:#dd64b5; stroke-linecap:round; stroke-linejoin:round; stroke-width:4; stroke-opacity:1; fill:none" stroke-dasharray="16, 10" points="217.174,870.626 250.423,870.626 283.671,870.626 316.919,870.626 350.167,870.626 383.416,870.626 416.664,870.626 449.912,870.626 483.16,870.626 516.409,870.626 549.657,870.626 582.905,870.626 616.153,870.626 649.401,870.626 682.65,870.626 715.898,870.626 749.146,870.626 782.394,870.626 815.643,870.626 848.891,870.626 882.139,870.626 915.387,870.626 948.636,867.636 981.884,803.714 1015.13,588.21 1048.38,361.135 1081.63,411.711 1114.88,667.895 1148.12,835.531 1181.37,870.345 1214.62,870.626 1247.87,870.626 1281.12,870.626 1314.37,870.626 1347.61,870.626 1380.86,870.626 1414.11,870.626 1447.36,870.626 1480.61,870.626 1513.86,870.626 "/>
<polyline clip-path="url(#clip911)" style="stroke:#6b9e32; stroke-linecap:round; stroke-linejoin:round; stroke-width:4; stroke-opacity:1; fill:none" stroke-dasharray="16, 10" points="217.174,870.626 250.423,870.626 283.671,870.626 316.919,870.626 350.167,870.626 383.416,870.626 416.664,870.626 449.912,870.626 483.16,870.626 516.409,870.626 549.657,870.626 582.905,870.626 616.153,870.626 649.401,870.626 682.65,870.626 715.898,870.626 749.146,870.626 782.394,870.626 815.643,870.626 848.891,870.626 882.139,870.626 915.387,870.626 948.636,870.626 981.884,870.626 1015.13,866.745 1048.38,797.027 1081.63,574.552 1114.88,355.158 1148.12,422.216 1181.37,680.422 1214.62,839.577 1247.87,870.482 1281.12,870.626 1314.37,870.626 1347.61,870.626 1380.86,870.626 1414.11,870.626 1447.36,870.626 1480.61,870.626 1513.86,870.626 "/>
<polyline clip-path="url(#clip911)" style="stroke:#009af9; stroke-linecap:round; stroke-linejoin:round; stroke-width:4; stroke-opacity:1; fill:none" stroke-dasharray="16, 10" points="217.174,870.626 250.423,870.626 283.671,870.626 316.919,870.626 350.167,870.626 383.416,870.626 416.664,870.626 449.912,870.626 483.16,870.626 516.409,870.626 549.657,870.626 582.905,870.626 616.153,870.626 649.401,870.626 682.65,870.626 715.898,870.626 749.146,870.626 782.394,870.626 815.643,870.626 848.891,870.626 882.139,870.626 915.387,870.626 948.636,870.626 981.884,870.626 1015.13,870.626 1048.38,870.626 1081.63,865.691 1114.88,789.91 1148.12,560.894 1181.37,349.99 1214.62,433.206 1247.87,692.624 1281.12,843.298 1314.37,870.565 1347.61,870.626 1380.86,870.626 1414.11,870.626 1447.36,870.626 1480.61,870.626 1513.86,870.626 "/>
<polyline clip-path="url(#clip911)" style="stroke:#e26f46; stroke-linecap:round; stroke-linejoin:round; stroke-width:4; stroke-opacity:1; fill:none" stroke-dasharray="16, 10" points="217.174,870.626 250.423,870.626 283.671,870.626 316.919,870.626 350.167,870.626 383.416,870.626 416.664,870.626 449.912,870.626 483.16,870.626 516.409,870.626 549.657,870.626 582.905,870.626 616.153,870.626 649.401,870.626 682.65,870.626 715.898,870.626 749.146,870.626 782.394,870.626 815.643,870.626 848.891,870.626 882.139,870.626 915.387,870.626 948.636,870.626 981.884,870.626 1015.13,870.626 1048.38,870.626 1081.63,870.626 1114.88,870.626 1148.12,864.463 1181.37,782.347 1214.62,547.276 1247.87,345.671 1281.12,444.64 1314.37,704.463 1347.61,846.71 1380.86,870.608 1414.11,870.626 1447.36,870.626 1480.61,870.626 1513.86,870.626 "/>
<polyline clip-path="url(#clip911)" style="stroke:#3da44d; stroke-linecap:round; stroke-linejoin:round; stroke-width:4; stroke-opacity:1; fill:none" stroke-dasharray="16, 10" points="217.174,870.626 250.423,870.626 283.671,870.626 316.919,870.626 350.167,870.626 383.416,870.626 416.664,870.626 449.912,870.626 483.16,870.626 516.409,870.626 549.657,870.626 582.905,870.626 616.153,870.626 649.401,870.626 682.65,870.626 715.898,870.626 749.146,870.626 782.394,870.626 815.643,870.626 848.891,870.626 882.139,870.626 915.387,870.626 948.636,870.626 981.884,870.626 1015.13,870.626 1048.38,870.626 1081.63,870.626 1114.88,870.626 1148.12,870.626 1181.37,870.626 1214.62,863.045 1247.87,774.327 1281.12,533.739 1314.37,342.241 1347.61,456.479 1380.86,715.898 1414.11,849.825 1447.36,870.624 1480.61,870.626 1513.86,870.626 "/>
<polyline clip-path="url(#clip911)" style="stroke:#c271d2; stroke-linecap:round; stroke-linejoin:round; stroke-width:4; stroke-opacity:1; fill:none" stroke-dasharray="16, 10" points="217.174,870.626 250.423,870.626 283.671,870.626 316.919,870.626 350.167,870.626 383.416,870.626 416.664,870.626 449.912,870.626 483.16,870.626 516.409,870.626 549.657,870.626 582.905,870.626 616.153,870.626 649.401,870.626 682.65,870.626 715.898,870.626 749.146,870.626 782.394,870.626 815.643,870.626 848.891,870.626 882.139,870.626 915.387,870.626 948.636,870.626 981.884,870.626 1015.13,870.626 1048.38,870.626 1081.63,870.626 1114.88,870.626 1148.12,870.626 1181.37,870.626 1214.62,870.626 1247.87,870.626 1281.12,861.426 1314.37,765.834 1347.61,520.323 1380.86,339.741 1414.11,468.682 1447.36,726.888 1480.61,852.657 1513.86,870.626 "/>
<polyline clip-path="url(#clip911)" style="stroke:#ac8d18; stroke-linecap:round; stroke-linejoin:round; stroke-width:4; stroke-opacity:1; fill:none" stroke-dasharray="16, 10" points="217.174,870.626 250.423,870.626 283.671,870.626 316.919,870.626 350.167,870.626 383.416,870.626 416.664,870.626 449.912,870.626 483.16,870.626 516.409,870.626 549.657,870.626 582.905,870.626 616.153,870.626 649.401,870.626 682.65,870.626 715.898,870.626 749.146,870.626 782.394,870.626 815.643,870.626 848.891,870.626 882.139,870.626 915.387,870.626 948.636,870.626 981.884,870.626 1015.13,870.626 1048.38,870.626 1081.63,870.626 1114.88,870.626 1148.12,870.626 1181.37,870.626 1214.62,870.626 1247.87,870.626 1281.12,870.626 1314.37,870.626 1347.61,859.591 1380.86,756.857 1414.11,513.619 1447.36,399.834 1480.61,654.107 1513.86,870.626 "/>
<polyline clip-path="url(#clip911)" style="stroke:#00a9ad; stroke-linecap:round; stroke-linejoin:round; stroke-width:4; stroke-opacity:1; fill:none" stroke-dasharray="16, 10" points="217.174,870.626 250.423,870.626 283.671,870.626 316.919,870.626 350.167,870.626 383.416,870.626 416.664,870.626 449.912,870.626 483.16,870.626 516.409,870.626 549.657,870.626 582.905,870.626 616.153,870.626 649.401,870.626 682.65,870.626 715.898,870.626 749.146,870.626 782.394,870.626 815.643,870.626 848.891,870.626 882.139,870.626 915.387,870.626 948.636,870.626 981.884,870.626 1015.13,870.626 1048.38,870.626 1081.63,870.626 1114.88,870.626 1148.12,870.626 1181.37,870.626 1214.62,870.626 1247.87,870.626 1281.12,870.626 1314.37,870.626 1347.61,870.626 1380.86,870.626 1414.11,850.977 1447.36,685.758 1480.61,398.147 1513.86,870.626 "/>
<polyline clip-path="url(#clip911)" style="stroke:#ed5d92; stroke-linecap:round; stroke-linejoin:round; stroke-width:4; stroke-opacity:1; fill:none" stroke-dasharray="16, 10" points="217.174,870.626 250.423,870.626 283.671,870.626 316.919,870.626 350.167,870.626 383.416,870.626 416.664,870.626 449.912,870.626 483.16,870.626 516.409,870.626 549.657,870.626 582.905,870.626 616.153,870.626 649.401,870.626 682.65,870.626 715.898,870.626 749.146,870.626 782.394,870.626 815.643,870.626 848.891,870.626 882.139,870.626 915.387,870.626 948.636,870.626 981.884,870.626 1015.13,870.626 1048.38,870.626 1081.63,870.626 1114.88,870.626 1148.12,870.626 1181.37,870.626 1214.62,870.626 1247.87,870.626 1281.12,870.626 1314.37,870.626 1347.61,870.626 1380.86,870.626 1414.11,870.626 1447.36,870.626 1480.61,778.192 1513.86,71.2261 "/>
<polyline clip-path="url(#clip911)" style="stroke:#c68125; stroke-linecap:round; stroke-linejoin:round; stroke-width:4; stroke-opacity:1; fill:none" points="217.174,71.2261 250.423,778.192 283.671,870.626 316.919,870.626 350.167,870.626 383.416,870.626 416.664,870.626 449.912,870.626 483.16,870.626 516.409,870.626 549.657,870.626 582.905,870.626 616.153,870.626 649.401,870.626 682.65,870.626 715.898,870.626 749.146,870.626 782.394,870.626 815.643,870.626 848.891,870.626 882.139,870.626 915.387,870.626 948.636,870.626 981.884,870.626 1015.13,870.626 1048.38,870.626 1081.63,870.626 1114.88,870.626 1148.12,870.626 1181.37,870.626 1214.62,870.626 1247.87,870.626 1281.12,870.626 1314.37,870.626 1347.61,870.626 1380.86,870.626 1414.11,870.626 1447.36,870.626 1480.61,870.626 1513.86,870.626 "/>
<polyline clip-path="url(#clip911)" style="stroke:#00a98d; stroke-linecap:round; stroke-linejoin:round; stroke-width:4; stroke-opacity:1; fill:none" points="217.174,870.626 250.423,398.147 283.671,685.758 316.919,850.977 350.167,870.626 383.416,870.626 416.664,870.626 449.912,870.626 483.16,870.626 516.409,870.626 549.657,870.626 582.905,870.626 616.153,870.626 649.401,870.626 682.65,870.626 715.898,870.626 749.146,870.626 782.394,870.626 815.643,870.626 848.891,870.626 882.139,870.626 915.387,870.626 948.636,870.626 981.884,870.626 1015.13,870.626 1048.38,870.626 1081.63,870.626 1114.88,870.626 1148.12,870.626 1181.37,870.626 1214.62,870.626 1247.87,870.626 1281.12,870.626 1314.37,870.626 1347.61,870.626 1380.86,870.626 1414.11,870.626 1447.36,870.626 1480.61,870.626 1513.86,870.626 "/>
<polyline clip-path="url(#clip911)" style="stroke:#8e971d; stroke-linecap:round; stroke-linejoin:round; stroke-width:4; stroke-opacity:1; fill:none" points="217.174,870.626 250.423,654.107 283.671,399.834 316.919,513.619 350.167,756.857 383.416,859.591 416.664,870.626 449.912,870.626 483.16,870.626 516.409,870.626 549.657,870.626 582.905,870.626 616.153,870.626 649.401,870.626 682.65,870.626 715.898,870.626 749.146,870.626 782.394,870.626 815.643,870.626 848.891,870.626 882.139,870.626 915.387,870.626 948.636,870.626 981.884,870.626 1015.13,870.626 1048.38,870.626 1081.63,870.626 1114.88,870.626 1148.12,870.626 1181.37,870.626 1214.62,870.626 1247.87,870.626 1281.12,870.626 1314.37,870.626 1347.61,870.626 1380.86,870.626 1414.11,870.626 1447.36,870.626 1480.61,870.626 1513.86,870.626 "/>
<polyline clip-path="url(#clip911)" style="stroke:#00a8cb; stroke-linecap:round; stroke-linejoin:round; stroke-width:4; stroke-opacity:1; fill:none" points="217.174,870.626 250.423,852.657 283.671,726.888 316.919,468.682 350.167,339.741 383.416,520.323 416.664,765.834 449.912,861.426 483.16,870.626 516.409,870.626 549.657,870.626 582.905,870.626 616.153,870.626 649.401,870.626 682.65,870.626 715.898,870.626 749.146,870.626 782.394,870.626 815.643,870.626 848.891,870.626 882.139,870.626 915.387,870.626 948.636,870.626 981.884,870.626 1015.13,870.626 1048.38,870.626 1081.63,870.626 1114.88,870.626 1148.12,870.626 1181.37,870.626 1214.62,870.626 1247.87,870.626 1281.12,870.626 1314.37,870.626 1347.61,870.626 1380.86,870.626 1414.11,870.626 1447.36,870.626 1480.61,870.626 1513.86,870.626 "/>
<polyline clip-path="url(#clip911)" style="stroke:#9b7fe8; stroke-linecap:round; stroke-linejoin:round; stroke-width:4; stroke-opacity:1; fill:none" points="217.174,870.626 250.423,870.626 283.671,870.624 316.919,849.825 350.167,715.898 383.416,456.479 416.664,342.241 449.912,533.739 483.16,774.327 516.409,863.045 549.657,870.626 582.905,870.626 616.153,870.626 649.401,870.626 682.65,870.626 715.898,870.626 749.146,870.626 782.394,870.626 815.643,870.626 848.891,870.626 882.139,870.626 915.387,870.626 948.636,870.626 981.884,870.626 1015.13,870.626 1048.38,870.626 1081.63,870.626 1114.88,870.626 1148.12,870.626 1181.37,870.626 1214.62,870.626 1247.87,870.626 1281.12,870.626 1314.37,870.626 1347.61,870.626 1380.86,870.626 1414.11,870.626 1447.36,870.626 1480.61,870.626 1513.86,870.626 "/>
<polyline clip-path="url(#clip911)" style="stroke:#608cf6; stroke-linecap:round; stroke-linejoin:round; stroke-width:4; stroke-opacity:1; fill:none" points="217.174,870.626 250.423,870.626 283.671,870.626 316.919,870.626 350.167,870.608 383.416,846.71 416.664,704.463 449.912,444.64 483.16,345.671 516.409,547.276 549.657,782.347 582.905,864.463 616.153,870.626 649.401,870.626 682.65,870.626 715.898,870.626 749.146,870.626 782.394,870.626 815.643,870.626 848.891,870.626 882.139,870.626 915.387,870.626 948.636,870.626 981.884,870.626 1015.13,870.626 1048.38,870.626 1081.63,870.626 1114.88,870.626 1148.12,870.626 1181.37,870.626 1214.62,870.626 1247.87,870.626 1281.12,870.626 1314.37,870.626 1347.61,870.626 1380.86,870.626 1414.11,870.626 1447.36,870.626 1480.61,870.626 1513.86,870.626 "/>
<polyline clip-path="url(#clip911)" style="stroke:#f05f73; stroke-linecap:round; stroke-linejoin:round; stroke-width:4; stroke-opacity:1; fill:none" points="217.174,870.626 250.423,870.626 283.671,870.626 316.919,870.626 350.167,870.626 383.416,870.626 416.664,870.565 449.912,843.298 483.16,692.624 516.409,433.206 549.657,349.99 582.905,560.894 616.153,789.91 649.401,865.691 682.65,870.626 715.898,870.626 749.146,870.626 782.394,870.626 815.643,870.626 848.891,870.626 882.139,870.626 915.387,870.626 948.636,870.626 981.884,870.626 1015.13,870.626 1048.38,870.626 1081.63,870.626 1114.88,870.626 1148.12,870.626 1181.37,870.626 1214.62,870.626 1247.87,870.626 1281.12,870.626 1314.37,870.626 1347.61,870.626 1380.86,870.626 1414.11,870.626 1447.36,870.626 1480.61,870.626 1513.86,870.626 "/>
<polyline clip-path="url(#clip911)" style="stroke:#dd64b5; stroke-linecap:round; stroke-linejoin:round; stroke-width:4; stroke-opacity:1; fill:none" points="217.174,870.626 250.423,870.626 283.671,870.626 316.919,870.626 350.167,870.626 383.416,870.626 416.664,870.626 449.912,870.626 483.16,870.482 516.409,839.577 549.657,680.422 582.905,422.216 616.153,355.158 649.401,574.552 682.65,797.027 715.898,866.745 749.146,870.626 782.394,870.626 815.643,870.626 848.891,870.626 882.139,870.626 915.387,870.626 948.636,870.626 981.884,870.626 1015.13,870.626 1048.38,870.626 1081.63,870.626 1114.88,870.626 1148.12,870.626 1181.37,870.626 1214.62,870.626 1247.87,870.626 1281.12,870.626 1314.37,870.626 1347.61,870.626 1380.86,870.626 1414.11,870.626 1447.36,870.626 1480.61,870.626 1513.86,870.626 "/>
<polyline clip-path="url(#clip911)" style="stroke:#6b9e32; stroke-linecap:round; stroke-linejoin:round; stroke-width:4; stroke-opacity:1; fill:none" points="217.174,870.626 250.423,870.626 283.671,870.626 316.919,870.626 350.167,870.626 383.416,870.626 416.664,870.626 449.912,870.626 483.16,870.626 516.409,870.626 549.657,870.345 582.905,835.531 616.153,667.895 649.401,411.711 682.65,361.135 715.898,588.21 749.146,803.714 782.394,867.636 815.643,870.626 848.891,870.626 882.139,870.626 915.387,870.626 948.636,870.626 981.884,870.626 1015.13,870.626 1048.38,870.626 1081.63,870.626 1114.88,870.626 1148.12,870.626 1181.37,870.626 1214.62,870.626 1247.87,870.626 1281.12,870.626 1314.37,870.626 1347.61,870.626 1380.86,870.626 1414.11,870.626 1447.36,870.626 1480.61,870.626 1513.86,870.626 "/>
<polyline clip-path="url(#clip911)" style="stroke:#009af9; stroke-linecap:round; stroke-linejoin:round; stroke-width:4; stroke-opacity:1; fill:none" points="217.174,870.626 250.423,870.626 283.671,870.626 316.919,870.626 350.167,870.626 383.416,870.626 416.664,870.626 449.912,870.626 483.16,870.626 516.409,870.626 549.657,870.626 582.905,870.626 616.153,870.141 649.401,831.149 682.65,655.086 715.898,401.732 749.146,367.88 782.394,601.828 815.643,809.983 848.891,868.38 882.139,870.626 915.387,870.626 948.636,870.626 981.884,870.626 1015.13,870.626 1048.38,870.626 1081.63,870.626 1114.88,870.626 1148.12,870.626 1181.37,870.626 1214.62,870.626 1247.87,870.626 1281.12,870.626 1314.37,870.626 1347.61,870.626 1380.86,870.626 1414.11,870.626 1447.36,870.626 1480.61,870.626 1513.86,870.626 "/>
<polyline clip-path="url(#clip911)" style="stroke:#e26f46; stroke-linecap:round; stroke-linejoin:round; stroke-width:4; stroke-opacity:1; fill:none" points="217.174,870.626 250.423,870.626 283.671,870.626 316.919,870.626 350.167,870.626 383.416,870.626 416.664,870.626 449.912,870.626 483.16,870.626 516.409,870.626 549.657,870.626 582.905,870.626 616.153,870.626 649.401,870.626 682.65,869.855 715.898,826.417 749.146,642.034 782.394,392.319 815.643,375.352 848.891,615.365 882.139,815.847 915.387,868.989 948.636,870.626 981.884,870.626 1015.13,870.626 1048.38,870.626 1081.63,870.626 1114.88,870.626 1148.12,870.626 1181.37,870.626 1214.62,870.626 1247.87,870.626 1281.12,870.626 1314.37,870.626 1347.61,870.626 1380.86,870.626 1414.11,870.626 1447.36,870.626 1480.61,870.626 1513.86,870.626 "/>
<polyline clip-path="url(#clip911)" style="stroke:#3da44d; stroke-linecap:round; stroke-linejoin:round; stroke-width:4; stroke-opacity:1; fill:none" points="217.174,870.626 250.423,870.626 283.671,870.626 316.919,870.626 350.167,870.626 383.416,870.626 416.664,870.626 449.912,870.626 483.16,870.626 516.409,870.626 549.657,870.626 582.905,870.626 616.153,870.626 649.401,870.626 682.65,870.626 715.898,870.626 749.146,869.476 782.394,821.321 815.643,628.78 848.891,383.512 882.139,383.512 915.387,628.78 948.636,821.321 981.884,869.476 1015.13,870.626 1048.38,870.626 1081.63,870.626 1114.88,870.626 1148.12,870.626 1181.37,870.626 1214.62,870.626 1247.87,870.626 1281.12,870.626 1314.37,870.626 1347.61,870.626 1380.86,870.626 1414.11,870.626 1447.36,870.626 1480.61,870.626 1513.86,870.626 "/>
<polyline clip-path="url(#clip911)" style="stroke:#c271d2; stroke-linecap:round; stroke-linejoin:round; stroke-width:4; stroke-opacity:1; fill:none" points="217.174,870.626 250.423,870.626 283.671,870.626 316.919,870.626 350.167,870.626 383.416,870.626 416.664,870.626 449.912,870.626 483.16,870.626 516.409,870.626 549.657,870.626 582.905,870.626 616.153,870.626 649.401,870.626 682.65,870.626 715.898,870.626 749.146,870.626 782.394,870.626 815.643,868.989 848.891,815.847 882.139,615.365 915.387,375.352 948.636,392.319 981.884,642.034 1015.13,826.417 1048.38,869.855 1081.63,870.626 1114.88,870.626 1148.12,870.626 1181.37,870.626 1214.62,870.626 1247.87,870.626 1281.12,870.626 1314.37,870.626 1347.61,870.626 1380.86,870.626 1414.11,870.626 1447.36,870.626 1480.61,870.626 1513.86,870.626 "/>
<polyline clip-path="url(#clip911)" style="stroke:#ac8d18; stroke-linecap:round; stroke-linejoin:round; stroke-width:4; stroke-opacity:1; fill:none" points="217.174,870.626 250.423,870.626 283.671,870.626 316.919,870.626 350.167,870.626 383.416,870.626 416.664,870.626 449.912,870.626 483.16,870.626 516.409,870.626 549.657,870.626 582.905,870.626 616.153,870.626 649.401,870.626 682.65,870.626 715.898,870.626 749.146,870.626 782.394,870.626 815.643,870.626 848.891,870.626 882.139,868.38 915.387,809.983 948.636,601.828 981.884,367.88 1015.13,401.732 1048.38,655.086 1081.63,831.149 1114.88,870.141 1148.12,870.626 1181.37,870.626 1214.62,870.626 1247.87,870.626 1281.12,870.626 1314.37,870.626 1347.61,870.626 1380.86,870.626 1414.11,870.626 1447.36,870.626 1480.61,870.626 1513.86,870.626 "/>
<polyline clip-path="url(#clip911)" style="stroke:#00a9ad; stroke-linecap:round; stroke-linejoin:round; stroke-width:4; stroke-opacity:1; fill:none" points="217.174,870.626 250.423,870.626 283.671,870.626 316.919,870.626 350.167,870.626 383.416,870.626 416.664,870.626 449.912,870.626 483.16,870.626 516.409,870.626 549.657,870.626 582.905,870.626 616.153,870.626 649.401,870.626 682.65,870.626 715.898,870.626 749.146,870.626 782.394,870.626 815.643,870.626 848.891,870.626 882.139,870.626 915.387,870.626 948.636,867.636 981.884,803.714 1015.13,588.21 1048.38,361.135 1081.63,411.711 1114.88,667.895 1148.12,835.531 1181.37,870.345 1214.62,870.626 1247.87,870.626 1281.12,870.626 1314.37,870.626 1347.61,870.626 1380.86,870.626 1414.11,870.626 1447.36,870.626 1480.61,870.626 1513.86,870.626 "/>
<polyline clip-path="url(#clip911)" style="stroke:#ed5d92; stroke-linecap:round; stroke-linejoin:round; stroke-width:4; stroke-opacity:1; fill:none" points="217.174,870.626 250.423,870.626 283.671,870.626 316.919,870.626 350.167,870.626 383.416,870.626 416.664,870.626 449.912,870.626 483.16,870.626 516.409,870.626 549.657,870.626 582.905,870.626 616.153,870.626 649.401,870.626 682.65,870.626 715.898,870.626 749.146,870.626 782.394,870.626 815.643,870.626 848.891,870.626 882.139,870.626 915.387,870.626 948.636,870.626 981.884,870.626 1015.13,866.745 1048.38,797.027 1081.63,574.552 1114.88,355.158 1148.12,422.216 1181.37,680.422 1214.62,839.577 1247.87,870.482 1281.12,870.626 1314.37,870.626 1347.61,870.626 1380.86,870.626 1414.11,870.626 1447.36,870.626 1480.61,870.626 1513.86,870.626 "/>
<polyline clip-path="url(#clip911)" style="stroke:#c68125; stroke-linecap:round; stroke-linejoin:round; stroke-width:4; stroke-opacity:1; fill:none" points="217.174,870.626 250.423,870.626 283.671,870.626 316.919,870.626 350.167,870.626 383.416,870.626 416.664,870.626 449.912,870.626 483.16,870.626 516.409,870.626 549.657,870.626 582.905,870.626 616.153,870.626 649.401,870.626 682.65,870.626 715.898,870.626 749.146,870.626 782.394,870.626 815.643,870.626 848.891,870.626 882.139,870.626 915.387,870.626 948.636,870.626 981.884,870.626 1015.13,870.626 1048.38,870.626 1081.63,865.691 1114.88,789.91 1148.12,560.894 1181.37,349.99 1214.62,433.206 1247.87,692.624 1281.12,843.298 1314.37,870.565 1347.61,870.626 1380.86,870.626 1414.11,870.626 1447.36,870.626 1480.61,870.626 1513.86,870.626 "/>
<polyline clip-path="url(#clip911)" style="stroke:#00a98d; stroke-linecap:round; stroke-linejoin:round; stroke-width:4; stroke-opacity:1; fill:none" points="217.174,870.626 250.423,870.626 283.671,870.626 316.919,870.626 350.167,870.626 383.416,870.626 416.664,870.626 449.912,870.626 483.16,870.626 516.409,870.626 549.657,870.626 582.905,870.626 616.153,870.626 649.401,870.626 682.65,870.626 715.898,870.626 749.146,870.626 782.394,870.626 815.643,870.626 848.891,870.626 882.139,870.626 915.387,870.626 948.636,870.626 981.884,870.626 1015.13,870.626 1048.38,870.626 1081.63,870.626 1114.88,870.626 1148.12,864.463 1181.37,782.347 1214.62,547.276 1247.87,345.671 1281.12,444.64 1314.37,704.463 1347.61,846.71 1380.86,870.608 1414.11,870.626 1447.36,870.626 1480.61,870.626 1513.86,870.626 "/>
<polyline clip-path="url(#clip911)" style="stroke:#8e971d; stroke-linecap:round; stroke-linejoin:round; stroke-width:4; stroke-opacity:1; fill:none" points="217.174,870.626 250.423,870.626 283.671,870.626 316.919,870.626 350.167,870.626 383.416,870.626 416.664,870.626 449.912,870.626 483.16,870.626 516.409,870.626 549.657,870.626 582.905,870.626 616.153,870.626 649.401,870.626 682.65,870.626 715.898,870.626 749.146,870.626 782.394,870.626 815.643,870.626 848.891,870.626 882.139,870.626 915.387,870.626 948.636,870.626 981.884,870.626 1015.13,870.626 1048.38,870.626 1081.63,870.626 1114.88,870.626 1148.12,870.626 1181.37,870.626 1214.62,863.045 1247.87,774.327 1281.12,533.739 1314.37,342.241 1347.61,456.479 1380.86,715.898 1414.11,849.825 1447.36,870.624 1480.61,870.626 1513.86,870.626 "/>
<polyline clip-path="url(#clip911)" style="stroke:#00a8cb; stroke-linecap:round; stroke-linejoin:round; stroke-width:4; stroke-opacity:1; fill:none" points="217.174,870.626 250.423,870.626 283.671,870.626 316.919,870.626 350.167,870.626 383.416,870.626 416.664,870.626 449.912,870.626 483.16,870.626 516.409,870.626 549.657,870.626 582.905,870.626 616.153,870.626 649.401,870.626 682.65,870.626 715.898,870.626 749.146,870.626 782.394,870.626 815.643,870.626 848.891,870.626 882.139,870.626 915.387,870.626 948.636,870.626 981.884,870.626 1015.13,870.626 1048.38,870.626 1081.63,870.626 1114.88,870.626 1148.12,870.626 1181.37,870.626 1214.62,870.626 1247.87,870.626 1281.12,861.426 1314.37,765.834 1347.61,520.323 1380.86,339.741 1414.11,468.682 1447.36,726.888 1480.61,852.657 1513.86,870.626 "/>
<polyline clip-path="url(#clip911)" style="stroke:#9b7fe8; stroke-linecap:round; stroke-linejoin:round; stroke-width:4; stroke-opacity:1; fill:none" points="217.174,870.626 250.423,870.626 283.671,870.626 316.919,870.626 350.167,870.626 383.416,870.626 416.664,870.626 449.912,870.626 483.16,870.626 516.409,870.626 549.657,870.626 582.905,870.626 616.153,870.626 649.401,870.626 682.65,870.626 715.898,870.626 749.146,870.626 782.394,870.626 815.643,870.626 848.891,870.626 882.139,870.626 915.387,870.626 948.636,870.626 981.884,870.626 1015.13,870.626 1048.38,870.626 1081.63,870.626 1114.88,870.626 1148.12,870.626 1181.37,870.626 1214.62,870.626 1247.87,870.626 1281.12,870.626 1314.37,870.626 1347.61,859.591 1380.86,756.857 1414.11,513.619 1447.36,399.834 1480.61,654.107 1513.86,870.626 "/>
<polyline clip-path="url(#clip911)" style="stroke:#608cf6; stroke-linecap:round; stroke-linejoin:round; stroke-width:4; stroke-opacity:1; fill:none" points="217.174,870.626 250.423,870.626 283.671,870.626 316.919,870.626 350.167,870.626 383.416,870.626 416.664,870.626 449.912,870.626 483.16,870.626 516.409,870.626 549.657,870.626 582.905,870.626 616.153,870.626 649.401,870.626 682.65,870.626 715.898,870.626 749.146,870.626 782.394,870.626 815.643,870.626 848.891,870.626 882.139,870.626 915.387,870.626 948.636,870.626 981.884,870.626 1015.13,870.626 1048.38,870.626 1081.63,870.626 1114.88,870.626 1148.12,870.626 1181.37,870.626 1214.62,870.626 1247.87,870.626 1281.12,870.626 1314.37,870.626 1347.61,870.626 1380.86,870.626 1414.11,850.977 1447.36,685.758 1480.61,398.147 1513.86,870.626 "/>
<polyline clip-path="url(#clip911)" style="stroke:#f05f73; stroke-linecap:round; stroke-linejoin:round; stroke-width:4; stroke-opacity:1; fill:none" points="217.174,870.626 250.423,870.626 283.671,870.626 316.919,870.626 350.167,870.626 383.416,870.626 416.664,870.626 449.912,870.626 483.16,870.626 516.409,870.626 549.657,870.626 582.905,870.626 616.153,870.626 649.401,870.626 682.65,870.626 715.898,870.626 749.146,870.626 782.394,870.626 815.643,870.626 848.891,870.626 882.139,870.626 915.387,870.626 948.636,870.626 981.884,870.626 1015.13,870.626 1048.38,870.626 1081.63,870.626 1114.88,870.626 1148.12,870.626 1181.37,870.626 1214.62,870.626 1247.87,870.626 1281.12,870.626 1314.37,870.626 1347.61,870.626 1380.86,870.626 1414.11,870.626 1447.36,870.626 1480.61,778.192 1513.86,71.2261 "/>
</svg>
