<?xml version="1.0" encoding="utf-8"?>
<svg xmlns="http://www.w3.org/2000/svg" xmlns:xlink="http://www.w3.org/1999/xlink" width="400" height="250" viewBox="0 0 1600 1000">
<defs>
  <clipPath id="clip060">
    <rect x="0" y="0" width="1600" height="1000"/>
  </clipPath>
</defs>
<path clip-path="url(#clip060)" d="M0 1000 L1600 1000 L1600 0 L0 0  Z" fill="#ffffff" fill-rule="evenodd" fill-opacity="1"/>
<defs>
  <clipPath id="clip061">
    <rect x="298" y="47" width="1255" height="848"/>
  </clipPath>
</defs>
<path clip-path="url(#clip060)" d="M298.301 894.608 L1552.76 894.608 L1552.76 47.2441 L298.301 47.2441  Z" fill="#ffffff" fill-rule="evenodd" fill-opacity="1"/>
<polyline clip-path="url(#clip061)" style="stroke:#000000; stroke-linecap:round; stroke-linejoin:round; stroke-width:2; stroke-opacity:0.1; fill:none" points="303.459,894.608 303.459,47.2441 "/>
<polyline clip-path="url(#clip061)" style="stroke:#000000; stroke-linecap:round; stroke-linejoin:round; stroke-width:2; stroke-opacity:0.1; fill:none" points="606.908,894.608 606.908,47.2441 "/>
<polyline clip-path="url(#clip061)" style="stroke:#000000; stroke-linecap:round; stroke-linejoin:round; stroke-width:2; stroke-opacity:0.1; fill:none" points="910.356,894.608 910.356,47.2441 "/>
<polyline clip-path="url(#clip061)" style="stroke:#000000; stroke-linecap:round; stroke-linejoin:round; stroke-width:2; stroke-opacity:0.1; fill:none" points="1213.8,894.608 1213.8,47.2441 "/>
<polyline clip-path="url(#clip061)" style="stroke:#000000; stroke-linecap:round; stroke-linejoin:round; stroke-width:2; stroke-opacity:0.1; fill:none" points="1517.25,894.608 1517.25,47.2441 "/>
<polyline clip-path="url(#clip061)" style="stroke:#000000; stroke-linecap:round; stroke-linejoin:round; stroke-width:2; stroke-opacity:0.1; fill:none" points="298.301,870.626 1552.76,870.626 "/>
<polyline clip-path="url(#clip061)" style="stroke:#000000; stroke-linecap:round; stroke-linejoin:round; stroke-width:2; stroke-opacity:0.1; fill:none" points="298.301,708.34 1552.76,708.34 "/>
<polyline clip-path="url(#clip061)" style="stroke:#000000; stroke-linecap:round; stroke-linejoin:round; stroke-width:2; stroke-opacity:0.1; fill:none" points="298.301,546.054 1552.76,546.054 "/>
<polyline clip-path="url(#clip061)" style="stroke:#000000; stroke-linecap:round; stroke-linejoin:round; stroke-width:2; stroke-opacity:0.1; fill:none" points="298.301,383.767 1552.76,383.767 "/>
<polyline clip-path="url(#clip061)" style="stroke:#000000; stroke-linecap:round; stroke-linejoin:round; stroke-width:2; stroke-opacity:0.1; fill:none" points="298.301,221.481 1552.76,221.481 "/>
<polyline clip-path="url(#clip061)" style="stroke:#000000; stroke-linecap:round; stroke-linejoin:round; stroke-width:2; stroke-opacity:0.1; fill:none" points="298.301,59.1951 1552.76,59.1951 "/>
<polyline clip-path="url(#clip060)" style="stroke:#000000; stroke-linecap:round; stroke-linejoin:round; stroke-width:4; stroke-opacity:1; fill:none" points="298.301,894.608 1552.76,894.608 "/>
<polyline clip-path="url(#clip060)" style="stroke:#000000; stroke-linecap:round; stroke-linejoin:round; stroke-width:4; stroke-opacity:1; fill:none" points="303.459,894.608 303.459,875.71 "/>
<polyline clip-path="url(#clip060)" style="stroke:#000000; stroke-linecap:round; stroke-linejoin:round; stroke-width:4; stroke-opacity:1; fill:none" points="606.908,894.608 606.908,875.71 "/>
<polyline clip-path="url(#clip060)" style="stroke:#000000; stroke-linecap:round; stroke-linejoin:round; stroke-width:4; stroke-opacity:1; fill:none" points="910.356,894.608 910.356,875.71 "/>
<polyline clip-path="url(#clip060)" style="stroke:#000000; stroke-linecap:round; stroke-linejoin:round; stroke-width:4; stroke-opacity:1; fill:none" points="1213.8,894.608 1213.8,875.71 "/>
<polyline clip-path="url(#clip060)" style="stroke:#000000; stroke-linecap:round; stroke-linejoin:round; stroke-width:4; stroke-opacity:1; fill:none" points="1517.25,894.608 1517.25,875.71 "/>
<path clip-path="url(#clip060)" d="M303.459 919.127 Q299.848 919.127 298.02 922.691 Q296.214 926.233 296.214 933.363 Q296.214 940.469 298.02 944.034 Q299.848 947.575 303.459 947.575 Q307.094 947.575 308.899 944.034 Q310.728 940.469 310.728 933.363 Q310.728 926.233 308.899 922.691 Q307.094 919.127 303.459 919.127 M303.459 915.423 Q309.27 915.423 312.325 920.029 Q315.404 924.613 315.404 933.363 Q315.404 942.089 312.325 946.696 Q309.27 951.279 303.459 951.279 Q297.649 951.279 294.571 946.696 Q291.515 942.089 291.515 933.363 Q291.515 924.613 294.571 920.029 Q297.649 915.423 303.459 915.423 Z" fill="#000000" fill-rule="nonzero" fill-opacity="1" /><path clip-path="url(#clip060)" d="M581.595 946.673 L589.234 946.673 L589.234 920.307 L580.924 921.974 L580.924 917.715 L589.188 916.048 L593.864 916.048 L593.864 946.673 L601.503 946.673 L601.503 950.608 L581.595 950.608 L581.595 946.673 Z" fill="#000000" fill-rule="nonzero" fill-opacity="1" /><path clip-path="url(#clip060)" d="M620.947 919.127 Q617.336 919.127 615.507 922.691 Q613.702 926.233 613.702 933.363 Q613.702 940.469 615.507 944.034 Q617.336 947.575 620.947 947.575 Q624.581 947.575 626.387 944.034 Q628.215 940.469 628.215 933.363 Q628.215 926.233 626.387 922.691 Q624.581 919.127 620.947 919.127 M620.947 915.423 Q626.757 915.423 629.813 920.029 Q632.891 924.613 632.891 933.363 Q632.891 942.089 629.813 946.696 Q626.757 951.279 620.947 951.279 Q615.137 951.279 612.058 946.696 Q609.003 942.089 609.003 933.363 Q609.003 924.613 612.058 920.029 Q615.137 915.423 620.947 915.423 Z" fill="#000000" fill-rule="nonzero" fill-opacity="1" /><path clip-path="url(#clip060)" d="M889.129 946.673 L905.449 946.673 L905.449 950.608 L883.504 950.608 L883.504 946.673 Q886.166 943.918 890.75 939.288 Q895.356 934.636 896.537 933.293 Q898.782 930.77 899.662 929.034 Q900.564 927.275 900.564 925.585 Q900.564 922.83 898.62 921.094 Q896.699 919.358 893.597 919.358 Q891.398 919.358 888.944 920.122 Q886.513 920.886 883.736 922.437 L883.736 917.715 Q886.56 916.58 889.013 916.002 Q891.467 915.423 893.504 915.423 Q898.875 915.423 902.069 918.108 Q905.263 920.793 905.263 925.284 Q905.263 927.414 904.453 929.335 Q903.666 931.233 901.56 933.826 Q900.981 934.497 897.879 937.714 Q894.777 940.909 889.129 946.673 Z" fill="#000000" fill-rule="nonzero" fill-opacity="1" /><path clip-path="url(#clip060)" d="M925.263 919.127 Q921.652 919.127 919.824 922.691 Q918.018 926.233 918.018 933.363 Q918.018 940.469 919.824 944.034 Q921.652 947.575 925.263 947.575 Q928.898 947.575 930.703 944.034 Q932.532 940.469 932.532 933.363 Q932.532 926.233 930.703 922.691 Q928.898 919.127 925.263 919.127 M925.263 915.423 Q931.073 915.423 934.129 920.029 Q937.208 924.613 937.208 933.363 Q937.208 942.089 934.129 946.696 Q931.073 951.279 925.263 951.279 Q919.453 951.279 916.374 946.696 Q913.319 942.089 913.319 933.363 Q913.319 924.613 916.374 920.029 Q919.453 915.423 925.263 915.423 Z" fill="#000000" fill-rule="nonzero" fill-opacity="1" /><path clip-path="url(#clip060)" d="M1202.65 931.974 Q1206 932.691 1207.88 934.96 Q1209.78 937.228 1209.78 940.562 Q1209.78 945.677 1206.26 948.478 Q1202.74 951.279 1196.26 951.279 Q1194.08 951.279 1191.77 950.839 Q1189.48 950.423 1187.02 949.566 L1187.02 945.052 Q1188.97 946.187 1191.28 946.765 Q1193.6 947.344 1196.12 947.344 Q1200.52 947.344 1202.81 945.608 Q1205.12 943.872 1205.12 940.562 Q1205.12 937.506 1202.97 935.793 Q1200.84 934.057 1197.02 934.057 L1192.99 934.057 L1192.99 930.214 L1197.21 930.214 Q1200.66 930.214 1202.48 928.849 Q1204.31 927.46 1204.31 924.867 Q1204.31 922.205 1202.42 920.793 Q1200.54 919.358 1197.02 919.358 Q1195.1 919.358 1192.9 919.775 Q1190.7 920.191 1188.06 921.071 L1188.06 916.904 Q1190.73 916.164 1193.04 915.793 Q1195.38 915.423 1197.44 915.423 Q1202.76 915.423 1205.86 917.853 Q1208.97 920.261 1208.97 924.381 Q1208.97 927.252 1207.32 929.242 Q1205.68 931.21 1202.65 931.974 Z" fill="#000000" fill-rule="nonzero" fill-opacity="1" /><path clip-path="url(#clip060)" d="M1228.64 919.127 Q1225.03 919.127 1223.2 922.691 Q1221.4 926.233 1221.4 933.363 Q1221.4 940.469 1223.2 944.034 Q1225.03 947.575 1228.64 947.575 Q1232.28 947.575 1234.08 944.034 Q1235.91 940.469 1235.91 933.363 Q1235.91 926.233 1234.08 922.691 Q1232.28 919.127 1228.64 919.127 M1228.64 915.423 Q1234.45 915.423 1237.51 920.029 Q1240.59 924.613 1240.59 933.363 Q1240.59 942.089 1237.51 946.696 Q1234.45 951.279 1228.64 951.279 Q1222.83 951.279 1219.75 946.696 Q1216.7 942.089 1216.7 933.363 Q1216.7 924.613 1219.75 920.029 Q1222.83 915.423 1228.64 915.423 Z" fill="#000000" fill-rule="nonzero" fill-opacity="1" /><path clip-path="url(#clip060)" d="M1505.42 920.122 L1493.62 938.571 L1505.42 938.571 L1505.42 920.122 M1504.2 916.048 L1510.08 916.048 L1510.08 938.571 L1515.01 938.571 L1515.01 942.46 L1510.08 942.46 L1510.08 950.608 L1505.42 950.608 L1505.42 942.46 L1489.82 942.46 L1489.82 937.946 L1504.2 916.048 Z" fill="#000000" fill-rule="nonzero" fill-opacity="1" /><path clip-path="url(#clip060)" d="M1532.74 919.127 Q1529.13 919.127 1527.3 922.691 Q1525.49 926.233 1525.49 933.363 Q1525.49 940.469 1527.3 944.034 Q1529.13 947.575 1532.74 947.575 Q1536.37 947.575 1538.18 944.034 Q1540.01 940.469 1540.01 933.363 Q1540.01 926.233 1538.18 922.691 Q1536.37 919.127 1532.74 919.127 M1532.74 915.423 Q1538.55 915.423 1541.6 920.029 Q1544.68 924.613 1544.68 933.363 Q1544.68 942.089 1541.6 946.696 Q1538.55 951.279 1532.74 951.279 Q1526.93 951.279 1523.85 946.696 Q1520.79 942.089 1520.79 933.363 Q1520.79 924.613 1523.85 920.029 Q1526.93 915.423 1532.74 915.423 Z" fill="#000000" fill-rule="nonzero" fill-opacity="1" /><polyline clip-path="url(#clip060)" style="stroke:#000000; stroke-linecap:round; stroke-linejoin:round; stroke-width:4; stroke-opacity:1; fill:none" points="298.301,894.608 298.301,47.2441 "/>
<polyline clip-path="url(#clip060)" style="stroke:#000000; stroke-linecap:round; stroke-linejoin:round; stroke-width:4; stroke-opacity:1; fill:none" points="298.301,870.626 317.198,870.626 "/>
<polyline clip-path="url(#clip060)" style="stroke:#000000; stroke-linecap:round; stroke-linejoin:round; stroke-width:4; stroke-opacity:1; fill:none" points="298.301,708.34 317.198,708.34 "/>
<polyline clip-path="url(#clip060)" style="stroke:#000000; stroke-linecap:round; stroke-linejoin:round; stroke-width:4; stroke-opacity:1; fill:none" points="298.301,546.054 317.198,546.054 "/>
<polyline clip-path="url(#clip060)" style="stroke:#000000; stroke-linecap:round; stroke-linejoin:round; stroke-width:4; stroke-opacity:1; fill:none" points="298.301,383.767 317.198,383.767 "/>
<polyline clip-path="url(#clip060)" style="stroke:#000000; stroke-linecap:round; stroke-linejoin:round; stroke-width:4; stroke-opacity:1; fill:none" points="298.301,221.481 317.198,221.481 "/>
<polyline clip-path="url(#clip060)" style="stroke:#000000; stroke-linecap:round; stroke-linejoin:round; stroke-width:4; stroke-opacity:1; fill:none" points="298.301,59.1951 317.198,59.1951 "/>
<path clip-path="url(#clip060)" d="M262.356 856.425 Q258.745 856.425 256.917 859.989 Q255.111 863.531 255.111 870.661 Q255.111 877.767 256.917 881.332 Q258.745 884.873 262.356 884.873 Q265.991 884.873 267.796 881.332 Q269.625 877.767 269.625 870.661 Q269.625 863.531 267.796 859.989 Q265.991 856.425 262.356 856.425 M262.356 852.721 Q268.167 852.721 271.222 857.327 Q274.301 861.911 274.301 870.661 Q274.301 879.387 271.222 883.994 Q268.167 888.577 262.356 888.577 Q256.546 888.577 253.468 883.994 Q250.412 879.387 250.412 870.661 Q250.412 861.911 253.468 857.327 Q256.546 852.721 262.356 852.721 Z" fill="#000000" fill-rule="nonzero" fill-opacity="1" /><path clip-path="url(#clip060)" d="M58.5569 728.132 L66.1958 728.132 L66.1958 701.767 L57.8856 703.433 L57.8856 699.174 L66.1495 697.507 L70.8254 697.507 L70.8254 728.132 L78.4642 728.132 L78.4642 732.067 L58.5569 732.067 L58.5569 728.132 Z" fill="#000000" fill-rule="nonzero" fill-opacity="1" /><path clip-path="url(#clip060)" d="M87.9086 726.188 L92.7928 726.188 L92.7928 732.067 L87.9086 732.067 L87.9086 726.188 Z" fill="#000000" fill-rule="nonzero" fill-opacity="1" /><path clip-path="url(#clip060)" d="M112.978 700.586 Q109.367 700.586 107.538 704.151 Q105.733 707.692 105.733 714.822 Q105.733 721.928 107.538 725.493 Q109.367 729.035 112.978 729.035 Q116.612 729.035 118.418 725.493 Q120.246 721.928 120.246 714.822 Q120.246 707.692 118.418 704.151 Q116.612 700.586 112.978 700.586 M112.978 696.882 Q118.788 696.882 121.844 701.489 Q124.922 706.072 124.922 714.822 Q124.922 723.549 121.844 728.155 Q118.788 732.739 112.978 732.739 Q107.168 732.739 104.089 728.155 Q101.034 723.549 101.034 714.822 Q101.034 706.072 104.089 701.489 Q107.168 696.882 112.978 696.882 Z" fill="#000000" fill-rule="nonzero" fill-opacity="1" /><path clip-path="url(#clip060)" d="M161.311 706.605 L150.732 717.229 L161.311 727.808 L158.556 730.609 L147.931 719.984 L137.306 730.609 L134.575 727.808 L145.131 717.229 L134.575 706.605 L137.306 703.804 L147.931 714.429 L158.556 703.804 L161.311 706.605 Z" fill="#000000" fill-rule="nonzero" fill-opacity="1" /><path clip-path="url(#clip060)" d="M173.672 728.132 L181.311 728.132 L181.311 701.767 L173.001 703.433 L173.001 699.174 L181.265 697.507 L185.94 697.507 L185.94 728.132 L193.579 728.132 L193.579 732.067 L173.672 732.067 L173.672 728.132 Z" fill="#000000" fill-rule="nonzero" fill-opacity="1" /><path clip-path="url(#clip060)" d="M213.024 700.586 Q209.413 700.586 207.584 704.151 Q205.778 707.692 205.778 714.822 Q205.778 721.928 207.584 725.493 Q209.413 729.035 213.024 729.035 Q216.658 729.035 218.463 725.493 Q220.292 721.928 220.292 714.822 Q220.292 707.692 218.463 704.151 Q216.658 700.586 213.024 700.586 M213.024 696.882 Q218.834 696.882 221.889 701.489 Q224.968 706.072 224.968 714.822 Q224.968 723.549 221.889 728.155 Q218.834 732.739 213.024 732.739 Q207.214 732.739 204.135 728.155 Q201.079 723.549 201.079 714.822 Q201.079 706.072 204.135 701.489 Q207.214 696.882 213.024 696.882 Z" fill="#000000" fill-rule="nonzero" fill-opacity="1" /><path clip-path="url(#clip060)" d="M224.968 690.984 L249.08 690.984 L249.08 694.181 L224.968 694.181 L224.968 690.984 Z" fill="#000000" fill-rule="nonzero" fill-opacity="1" /><path clip-path="url(#clip060)" d="M257.317 676.577 L272.232 676.577 L272.232 679.774 L260.797 679.774 L260.797 686.658 Q261.624 686.376 262.452 686.244 Q263.279 686.094 264.107 686.094 Q268.809 686.094 271.555 688.67 Q274.301 691.247 274.301 695.648 Q274.301 700.181 271.48 702.701 Q268.659 705.202 263.524 705.202 Q261.756 705.202 259.913 704.901 Q258.089 704.601 256.133 703.999 L256.133 700.181 Q257.825 701.102 259.631 701.554 Q261.436 702.005 263.449 702.005 Q266.703 702.005 268.602 700.294 Q270.502 698.582 270.502 695.648 Q270.502 692.714 268.602 691.002 Q266.703 689.291 263.449 689.291 Q261.925 689.291 260.402 689.63 Q258.897 689.968 257.317 690.683 L257.317 676.577 Z" fill="#000000" fill-rule="nonzero" fill-opacity="1" /><path clip-path="url(#clip060)" d="M61.7745 565.846 L78.0939 565.846 L78.0939 569.781 L56.1495 569.781 L56.1495 565.846 Q58.8115 563.091 63.3949 558.462 Q68.0013 553.809 69.1819 552.466 Q71.4272 549.943 72.3068 548.207 Q73.2096 546.448 73.2096 544.758 Q73.2096 542.004 71.2652 540.267 Q69.3439 538.531 66.2421 538.531 Q64.043 538.531 61.5893 539.295 Q59.1588 540.059 56.381 541.61 L56.381 536.888 Q59.2051 535.754 61.6588 535.175 Q64.1124 534.596 66.1495 534.596 Q71.5198 534.596 74.7142 537.281 Q77.9087 539.967 77.9087 544.457 Q77.9087 546.587 77.0985 548.508 Q76.3115 550.406 74.205 552.999 Q73.6263 553.67 70.5245 556.888 Q67.4226 560.082 61.7745 565.846 Z" fill="#000000" fill-rule="nonzero" fill-opacity="1" /><path clip-path="url(#clip060)" d="M87.9086 563.902 L92.7928 563.902 L92.7928 569.781 L87.9086 569.781 L87.9086 563.902 Z" fill="#000000" fill-rule="nonzero" fill-opacity="1" /><path clip-path="url(#clip060)" d="M112.978 538.3 Q109.367 538.3 107.538 541.865 Q105.733 545.406 105.733 552.536 Q105.733 559.642 107.538 563.207 Q109.367 566.749 112.978 566.749 Q116.612 566.749 118.418 563.207 Q120.246 559.642 120.246 552.536 Q120.246 545.406 118.418 541.865 Q116.612 538.3 112.978 538.3 M112.978 534.596 Q118.788 534.596 121.844 539.203 Q124.922 543.786 124.922 552.536 Q124.922 561.263 121.844 565.869 Q118.788 570.452 112.978 570.452 Q107.168 570.452 104.089 565.869 Q101.034 561.263 101.034 552.536 Q101.034 543.786 104.089 539.203 Q107.168 534.596 112.978 534.596 Z" fill="#000000" fill-rule="nonzero" fill-opacity="1" /><path clip-path="url(#clip060)" d="M161.311 544.318 L150.732 554.943 L161.311 565.522 L158.556 568.323 L147.931 557.698 L137.306 568.323 L134.575 565.522 L145.131 554.943 L134.575 544.318 L137.306 541.517 L147.931 552.142 L158.556 541.517 L161.311 544.318 Z" fill="#000000" fill-rule="nonzero" fill-opacity="1" /><path clip-path="url(#clip060)" d="M173.672 565.846 L181.311 565.846 L181.311 539.48 L173.001 541.147 L173.001 536.888 L181.265 535.221 L185.94 535.221 L185.94 565.846 L193.579 565.846 L193.579 569.781 L173.672 569.781 L173.672 565.846 Z" fill="#000000" fill-rule="nonzero" fill-opacity="1" /><path clip-path="url(#clip060)" d="M213.024 538.3 Q209.413 538.3 207.584 541.865 Q205.778 545.406 205.778 552.536 Q205.778 559.642 207.584 563.207 Q209.413 566.749 213.024 566.749 Q216.658 566.749 218.463 563.207 Q220.292 559.642 220.292 552.536 Q220.292 545.406 218.463 541.865 Q216.658 538.3 213.024 538.3 M213.024 534.596 Q218.834 534.596 221.889 539.203 Q224.968 543.786 224.968 552.536 Q224.968 561.263 221.889 565.869 Q218.834 570.452 213.024 570.452 Q207.214 570.452 204.135 565.869 Q201.079 561.263 201.079 552.536 Q201.079 543.786 204.135 539.203 Q207.214 534.596 213.024 534.596 Z" fill="#000000" fill-rule="nonzero" fill-opacity="1" /><path clip-path="url(#clip060)" d="M224.968 528.698 L249.08 528.698 L249.08 531.895 L224.968 531.895 L224.968 528.698 Z" fill="#000000" fill-rule="nonzero" fill-opacity="1" /><path clip-path="url(#clip060)" d="M257.317 514.291 L272.232 514.291 L272.232 517.488 L260.797 517.488 L260.797 524.372 Q261.624 524.09 262.452 523.958 Q263.279 523.808 264.107 523.808 Q268.809 523.808 271.555 526.384 Q274.301 528.961 274.301 533.362 Q274.301 537.895 271.48 540.415 Q268.659 542.916 263.524 542.916 Q261.756 542.916 259.913 542.615 Q258.089 542.314 256.133 541.713 L256.133 537.895 Q257.825 538.816 259.631 539.267 Q261.436 539.719 263.449 539.719 Q266.703 539.719 268.602 538.007 Q270.502 536.296 270.502 533.362 Q270.502 530.428 268.602 528.716 Q266.703 527.005 263.449 527.005 Q261.925 527.005 260.402 527.343 Q258.897 527.682 257.317 528.397 L257.317 514.291 Z" fill="#000000" fill-rule="nonzero" fill-opacity="1" /><path clip-path="url(#clip060)" d="M71.9133 388.861 Q75.2698 389.578 77.1448 391.847 Q79.0429 394.115 79.0429 397.449 Q79.0429 402.564 75.5244 405.365 Q72.0059 408.166 65.5245 408.166 Q63.3486 408.166 61.0338 407.727 Q58.7421 407.31 56.2884 406.453 L56.2884 401.939 Q58.2328 403.074 60.5477 403.652 Q62.8625 404.231 65.3856 404.231 Q69.7837 404.231 72.0754 402.495 Q74.3902 400.759 74.3902 397.449 Q74.3902 394.393 72.2374 392.68 Q70.1078 390.944 66.2884 390.944 L62.2606 390.944 L62.2606 387.102 L66.4735 387.102 Q69.9226 387.102 71.7513 385.736 Q73.58 384.347 73.58 381.754 Q73.58 379.092 71.6819 377.68 Q69.8069 376.245 66.2884 376.245 Q64.3671 376.245 62.168 376.662 Q59.969 377.079 57.3301 377.958 L57.3301 373.792 Q59.9921 373.051 62.3069 372.68 Q64.6449 372.31 66.705 372.31 Q72.0291 372.31 75.1309 374.741 Q78.2327 377.148 78.2327 381.268 Q78.2327 384.139 76.5892 386.129 Q74.9457 388.097 71.9133 388.861 Z" fill="#000000" fill-rule="nonzero" fill-opacity="1" /><path clip-path="url(#clip060)" d="M87.9086 401.615 L92.7928 401.615 L92.7928 407.495 L87.9086 407.495 L87.9086 401.615 Z" fill="#000000" fill-rule="nonzero" fill-opacity="1" /><path clip-path="url(#clip060)" d="M112.978 376.014 Q109.367 376.014 107.538 379.579 Q105.733 383.12 105.733 390.25 Q105.733 397.356 107.538 400.921 Q109.367 404.463 112.978 404.463 Q116.612 404.463 118.418 400.921 Q120.246 397.356 120.246 390.25 Q120.246 383.12 118.418 379.579 Q116.612 376.014 112.978 376.014 M112.978 372.31 Q118.788 372.31 121.844 376.916 Q124.922 381.5 124.922 390.25 Q124.922 398.977 121.844 403.583 Q118.788 408.166 112.978 408.166 Q107.168 408.166 104.089 403.583 Q101.034 398.977 101.034 390.25 Q101.034 381.5 104.089 376.916 Q107.168 372.31 112.978 372.31 Z" fill="#000000" fill-rule="nonzero" fill-opacity="1" /><path clip-path="url(#clip060)" d="M161.311 382.032 L150.732 392.657 L161.311 403.236 L158.556 406.037 L147.931 395.412 L137.306 406.037 L134.575 403.236 L145.131 392.657 L134.575 382.032 L137.306 379.231 L147.931 389.856 L158.556 379.231 L161.311 382.032 Z" fill="#000000" fill-rule="nonzero" fill-opacity="1" /><path clip-path="url(#clip060)" d="M173.672 403.56 L181.311 403.56 L181.311 377.194 L173.001 378.861 L173.001 374.602 L181.265 372.935 L185.94 372.935 L185.94 403.56 L193.579 403.56 L193.579 407.495 L173.672 407.495 L173.672 403.56 Z" fill="#000000" fill-rule="nonzero" fill-opacity="1" /><path clip-path="url(#clip060)" d="M213.024 376.014 Q209.413 376.014 207.584 379.579 Q205.778 383.12 205.778 390.25 Q205.778 397.356 207.584 400.921 Q209.413 404.463 213.024 404.463 Q216.658 404.463 218.463 400.921 Q220.292 397.356 220.292 390.25 Q220.292 383.12 218.463 379.579 Q216.658 376.014 213.024 376.014 M213.024 372.31 Q218.834 372.31 221.889 376.916 Q224.968 381.5 224.968 390.25 Q224.968 398.977 221.889 403.583 Q218.834 408.166 213.024 408.166 Q207.214 408.166 204.135 403.583 Q201.079 398.977 201.079 390.25 Q201.079 381.5 204.135 376.916 Q207.214 372.31 213.024 372.31 Z" fill="#000000" fill-rule="nonzero" fill-opacity="1" /><path clip-path="url(#clip060)" d="M224.968 366.411 L249.08 366.411 L249.08 369.609 L224.968 369.609 L224.968 366.411 Z" fill="#000000" fill-rule="nonzero" fill-opacity="1" /><path clip-path="url(#clip060)" d="M257.317 352.005 L272.232 352.005 L272.232 355.202 L260.797 355.202 L260.797 362.086 Q261.624 361.803 262.452 361.672 Q263.279 361.521 264.107 361.521 Q268.809 361.521 271.555 364.098 Q274.301 366.675 274.301 371.076 Q274.301 375.608 271.48 378.129 Q268.659 380.63 263.524 380.63 Q261.756 380.63 259.913 380.329 Q258.089 380.028 256.133 379.426 L256.133 375.608 Q257.825 376.53 259.631 376.981 Q261.436 377.433 263.449 377.433 Q266.703 377.433 268.602 375.721 Q270.502 374.01 270.502 371.076 Q270.502 368.142 268.602 366.43 Q266.703 364.719 263.449 364.719 Q261.925 364.719 260.402 365.057 Q258.897 365.396 257.317 366.11 L257.317 352.005 Z" fill="#000000" fill-rule="nonzero" fill-opacity="1" /><path clip-path="url(#clip060)" d="M70.5939 214.723 L58.7884 233.172 L70.5939 233.172 L70.5939 214.723 M69.367 210.649 L75.2466 210.649 L75.2466 233.172 L80.1772 233.172 L80.1772 237.061 L75.2466 237.061 L75.2466 245.209 L70.5939 245.209 L70.5939 237.061 L54.9921 237.061 L54.9921 232.547 L69.367 210.649 Z" fill="#000000" fill-rule="nonzero" fill-opacity="1" /><path clip-path="url(#clip060)" d="M87.9086 239.329 L92.7928 239.329 L92.7928 245.209 L87.9086 245.209 L87.9086 239.329 Z" fill="#000000" fill-rule="nonzero" fill-opacity="1" /><path clip-path="url(#clip060)" d="M112.978 213.728 Q109.367 213.728 107.538 217.292 Q105.733 220.834 105.733 227.964 Q105.733 235.07 107.538 238.635 Q109.367 242.176 112.978 242.176 Q116.612 242.176 118.418 238.635 Q120.246 235.07 120.246 227.964 Q120.246 220.834 118.418 217.292 Q116.612 213.728 112.978 213.728 M112.978 210.024 Q118.788 210.024 121.844 214.63 Q124.922 219.214 124.922 227.964 Q124.922 236.69 121.844 241.297 Q118.788 245.88 112.978 245.88 Q107.168 245.88 104.089 241.297 Q101.034 236.69 101.034 227.964 Q101.034 219.214 104.089 214.63 Q107.168 210.024 112.978 210.024 Z" fill="#000000" fill-rule="nonzero" fill-opacity="1" /><path clip-path="url(#clip060)" d="M161.311 219.746 L150.732 230.371 L161.311 240.95 L158.556 243.751 L147.931 233.126 L137.306 243.751 L134.575 240.95 L145.131 230.371 L134.575 219.746 L137.306 216.945 L147.931 227.57 L158.556 216.945 L161.311 219.746 Z" fill="#000000" fill-rule="nonzero" fill-opacity="1" /><path clip-path="url(#clip060)" d="M173.672 241.274 L181.311 241.274 L181.311 214.908 L173.001 216.575 L173.001 212.316 L181.265 210.649 L185.94 210.649 L185.94 241.274 L193.579 241.274 L193.579 245.209 L173.672 245.209 L173.672 241.274 Z" fill="#000000" fill-rule="nonzero" fill-opacity="1" /><path clip-path="url(#clip060)" d="M213.024 213.728 Q209.413 213.728 207.584 217.292 Q205.778 220.834 205.778 227.964 Q205.778 235.07 207.584 238.635 Q209.413 242.176 213.024 242.176 Q216.658 242.176 218.463 238.635 Q220.292 235.07 220.292 227.964 Q220.292 220.834 218.463 217.292 Q216.658 213.728 213.024 213.728 M213.024 210.024 Q218.834 210.024 221.889 214.63 Q224.968 219.214 224.968 227.964 Q224.968 236.69 221.889 241.297 Q218.834 245.88 213.024 245.88 Q207.214 245.88 204.135 241.297 Q201.079 236.69 201.079 227.964 Q201.079 219.214 204.135 214.63 Q207.214 210.024 213.024 210.024 Z" fill="#000000" fill-rule="nonzero" fill-opacity="1" /><path clip-path="url(#clip060)" d="M224.968 204.125 L249.08 204.125 L249.08 207.323 L224.968 207.323 L224.968 204.125 Z" fill="#000000" fill-rule="nonzero" fill-opacity="1" /><path clip-path="url(#clip060)" d="M257.317 189.718 L272.232 189.718 L272.232 192.916 L260.797 192.916 L260.797 199.799 Q261.624 199.517 262.452 199.386 Q263.279 199.235 264.107 199.235 Q268.809 199.235 271.555 201.812 Q274.301 204.389 274.301 208.79 Q274.301 213.322 271.48 215.842 Q268.659 218.344 263.524 218.344 Q261.756 218.344 259.913 218.043 Q258.089 217.742 256.133 217.14 L256.133 213.322 Q257.825 214.244 259.631 214.695 Q261.436 215.147 263.449 215.147 Q266.703 215.147 268.602 213.435 Q270.502 211.724 270.502 208.79 Q270.502 205.856 268.602 204.144 Q266.703 202.433 263.449 202.433 Q261.925 202.433 260.402 202.771 Q258.897 203.11 257.317 203.824 L257.317 189.718 Z" fill="#000000" fill-rule="nonzero" fill-opacity="1" /><path clip-path="url(#clip060)" d="M57.793 48.3627 L76.1494 48.3627 L76.1494 52.2979 L62.0754 52.2979 L62.0754 60.7701 Q63.0939 60.4228 64.1124 60.2608 Q65.131 60.0756 66.1495 60.0756 Q71.9365 60.0756 75.3161 63.2469 Q78.6957 66.4182 78.6957 71.8348 Q78.6957 77.4135 75.2235 80.5153 Q71.7513 83.594 65.4319 83.594 Q63.256 83.594 60.9875 83.2236 Q58.7421 82.8533 56.3347 82.1125 L56.3347 77.4135 Q58.418 78.5477 60.6402 79.1033 Q62.8625 79.6588 65.3393 79.6588 Q69.3439 79.6588 71.6819 77.5524 Q74.0198 75.4459 74.0198 71.8348 Q74.0198 68.2237 71.6819 66.1173 Q69.3439 64.0108 65.3393 64.0108 Q63.4643 64.0108 61.5893 64.4275 Q59.7375 64.8441 57.793 65.7237 L57.793 48.3627 Z" fill="#000000" fill-rule="nonzero" fill-opacity="1" /><path clip-path="url(#clip060)" d="M87.9086 77.0431 L92.7928 77.0431 L92.7928 82.9227 L87.9086 82.9227 L87.9086 77.0431 Z" fill="#000000" fill-rule="nonzero" fill-opacity="1" /><path clip-path="url(#clip060)" d="M112.978 51.4414 Q109.367 51.4414 107.538 55.0062 Q105.733 58.5479 105.733 65.6774 Q105.733 72.7839 107.538 76.3487 Q109.367 79.8903 112.978 79.8903 Q116.612 79.8903 118.418 76.3487 Q120.246 72.7839 120.246 65.6774 Q120.246 58.5479 118.418 55.0062 Q116.612 51.4414 112.978 51.4414 M112.978 47.7377 Q118.788 47.7377 121.844 52.3442 Q124.922 56.9275 124.922 65.6774 Q124.922 74.4042 121.844 79.0107 Q118.788 83.594 112.978 83.594 Q107.168 83.594 104.089 79.0107 Q101.034 74.4042 101.034 65.6774 Q101.034 56.9275 104.089 52.3442 Q107.168 47.7377 112.978 47.7377 Z" fill="#000000" fill-rule="nonzero" fill-opacity="1" /><path clip-path="url(#clip060)" d="M161.311 57.4599 L150.732 68.0848 L161.311 78.6635 L158.556 81.4644 L147.931 70.8395 L137.306 81.4644 L134.575 78.6635 L145.131 68.0848 L134.575 57.4599 L137.306 54.659 L147.931 65.2839 L158.556 54.659 L161.311 57.4599 Z" fill="#000000" fill-rule="nonzero" fill-opacity="1" /><path clip-path="url(#clip060)" d="M173.672 78.9876 L181.311 78.9876 L181.311 52.622 L173.001 54.2886 L173.001 50.0294 L181.265 48.3627 L185.94 48.3627 L185.94 78.9876 L193.579 78.9876 L193.579 82.9227 L173.672 82.9227 L173.672 78.9876 Z" fill="#000000" fill-rule="nonzero" fill-opacity="1" /><path clip-path="url(#clip060)" d="M213.024 51.4414 Q209.413 51.4414 207.584 55.0062 Q205.778 58.5479 205.778 65.6774 Q205.778 72.7839 207.584 76.3487 Q209.413 79.8903 213.024 79.8903 Q216.658 79.8903 218.463 76.3487 Q220.292 72.7839 220.292 65.6774 Q220.292 58.5479 218.463 55.0062 Q216.658 51.4414 213.024 51.4414 M213.024 47.7377 Q218.834 47.7377 221.889 52.3442 Q224.968 56.9275 224.968 65.6774 Q224.968 74.4042 221.889 79.0107 Q218.834 83.594 213.024 83.594 Q207.214 83.594 204.135 79.0107 Q201.079 74.4042 201.079 65.6774 Q201.079 56.9275 204.135 52.3442 Q207.214 47.7377 213.024 47.7377 Z" fill="#000000" fill-rule="nonzero" fill-opacity="1" /><path clip-path="url(#clip060)" d="M224.968 41.8391 L249.08 41.8391 L249.08 45.0364 L224.968 45.0364 L224.968 41.8391 Z" fill="#000000" fill-rule="nonzero" fill-opacity="1" /><path clip-path="url(#clip060)" d="M257.317 27.4323 L272.232 27.4323 L272.232 30.6296 L260.797 30.6296 L260.797 37.5133 Q261.624 37.2312 262.452 37.0995 Q263.279 36.9491 264.107 36.9491 Q268.809 36.9491 271.555 39.5257 Q274.301 42.1024 274.301 46.5034 Q274.301 51.0361 271.48 53.5563 Q268.659 56.0577 263.524 56.0577 Q261.756 56.0577 259.913 55.7568 Q258.089 55.4559 256.133 54.854 L256.133 51.0361 Q257.825 51.9577 259.631 52.409 Q261.436 52.8604 263.449 52.8604 Q266.703 52.8604 268.602 51.1489 Q270.502 49.4374 270.502 46.5034 Q270.502 43.5694 268.602 41.8579 Q266.703 40.1464 263.449 40.1464 Q261.925 40.1464 260.402 40.4849 Q258.897 40.8235 257.317 41.5381 L257.317 27.4323 Z" fill="#000000" fill-rule="nonzero" fill-opacity="1" /><polyline clip-path="url(#clip061)" style="stroke:#009af9; stroke-linecap:round; stroke-linejoin:round; stroke-width:4; stroke-opacity:1; fill:none" stroke-dasharray="16, 10" points="333.804,870.626 364.149,870.626 394.494,870.626 424.839,870.626 455.184,870.626 485.528,870.626 515.873,870.626 546.218,870.626 576.563,870.626 606.908,870.626 637.253,870.626 667.597,870.626 697.942,870.626 728.287,870.626 758.632,870.626 788.977,870.626 819.321,870.626 849.666,870.626 880.011,870.626 910.356,870.626 940.701,870.626 971.046,870.626 1001.39,870.626 1031.74,870.626 1062.08,870.626 1092.42,870.626 1122.77,870.626 1153.11,870.626 1183.46,870.626 1213.8,870.626 1244.15,870.626 1274.49,870.626 1304.84,870.626 1335.18,870.626 1365.53,870.626 1395.87,870.626 1426.22,870.626 1456.56,870.626 1486.91,778.192 1517.25,71.2261 "/>
<polyline clip-path="url(#clip061)" style="stroke:#e26f46; stroke-linecap:round; stroke-linejoin:round; stroke-width:4; stroke-opacity:1; fill:none" points="333.804,870.626 364.149,870.626 394.494,870.626 424.839,870.626 455.184,870.626 485.528,870.626 515.873,870.626 546.218,870.626 576.563,870.626 606.908,870.626 637.253,870.626 667.597,870.626 697.942,870.626 728.287,870.626 758.632,870.626 788.977,870.626 819.321,870.626 849.666,870.626 880.011,870.626 910.356,870.626 940.701,870.626 971.046,870.626 1001.39,870.626 1031.74,870.626 1062.08,870.626 1092.42,870.626 1122.77,870.626 1153.11,870.626 1183.46,870.626 1213.8,870.626 1244.15,870.626 1274.49,870.626 1304.84,870.626 1335.18,870.626 1365.53,870.626 1395.87,870.626 1426.22,870.626 1456.56,870.626 1486.91,778.192 1517.25,71.2261 "/>
</svg>
